<?xml version="1.0" encoding="utf-8"?>
<svg xmlns="http://www.w3.org/2000/svg" xmlns:xlink="http://www.w3.org/1999/xlink" width="600" height="400" viewBox="0 0 2400 1600">
<defs>
  <clipPath id="clip060">
    <rect x="0" y="0" width="2400" height="1600"/>
  </clipPath>
</defs>
<path clip-path="url(#clip060)" d="
M0 1600 L2400 1600 L2400 0 L0 0  Z
  " fill="#ffffff" fill-rule="evenodd" fill-opacity="1"/>
<defs>
  <clipPath id="clip061">
    <rect x="480" y="0" width="1681" height="1600"/>
  </clipPath>
</defs>
<path clip-path="url(#clip060)" d="
M148.01 1486.45 L2352.76 1486.45 L2352.76 47.2441 L148.01 47.2441  Z
  " fill="#ffffff" fill-rule="evenodd" fill-opacity="1"/>
<defs>
  <clipPath id="clip062">
    <rect x="148" y="47" width="2206" height="1440"/>
  </clipPath>
</defs>
<polyline clip-path="url(#clip062)" style="stroke:#000000; stroke-width:2; stroke-opacity:0.1; fill:none" points="
  189.609,1486.45 189.609,47.2441 
  "/>
<polyline clip-path="url(#clip062)" style="stroke:#000000; stroke-width:2; stroke-opacity:0.1; fill:none" points="
  709.596,1486.45 709.596,47.2441 
  "/>
<polyline clip-path="url(#clip062)" style="stroke:#000000; stroke-width:2; stroke-opacity:0.1; fill:none" points="
  1229.58,1486.45 1229.58,47.2441 
  "/>
<polyline clip-path="url(#clip062)" style="stroke:#000000; stroke-width:2; stroke-opacity:0.1; fill:none" points="
  1749.57,1486.45 1749.57,47.2441 
  "/>
<polyline clip-path="url(#clip062)" style="stroke:#000000; stroke-width:2; stroke-opacity:0.1; fill:none" points="
  2269.56,1486.45 2269.56,47.2441 
  "/>
<polyline clip-path="url(#clip062)" style="stroke:#000000; stroke-width:2; stroke-opacity:0.1; fill:none" points="
  148.01,1351.75 2352.76,1351.75 
  "/>
<polyline clip-path="url(#clip062)" style="stroke:#000000; stroke-width:2; stroke-opacity:0.1; fill:none" points="
  148.01,1073.67 2352.76,1073.67 
  "/>
<polyline clip-path="url(#clip062)" style="stroke:#000000; stroke-width:2; stroke-opacity:0.1; fill:none" points="
  148.01,795.597 2352.76,795.597 
  "/>
<polyline clip-path="url(#clip062)" style="stroke:#000000; stroke-width:2; stroke-opacity:0.1; fill:none" points="
  148.01,517.522 2352.76,517.522 
  "/>
<polyline clip-path="url(#clip062)" style="stroke:#000000; stroke-width:2; stroke-opacity:0.1; fill:none" points="
  148.01,239.446 2352.76,239.446 
  "/>
<polyline clip-path="url(#clip060)" style="stroke:#000000; stroke-width:4; stroke-opacity:1; fill:none" points="
  148.01,1486.45 2352.76,1486.45 
  "/>
<polyline clip-path="url(#clip060)" style="stroke:#000000; stroke-width:4; stroke-opacity:1; fill:none" points="
  148.01,1486.45 148.01,47.2441 
  "/>
<polyline clip-path="url(#clip060)" style="stroke:#000000; stroke-width:4; stroke-opacity:1; fill:none" points="
  189.609,1486.45 189.609,1469.18 
  "/>
<polyline clip-path="url(#clip060)" style="stroke:#000000; stroke-width:4; stroke-opacity:1; fill:none" points="
  709.596,1486.45 709.596,1469.18 
  "/>
<polyline clip-path="url(#clip060)" style="stroke:#000000; stroke-width:4; stroke-opacity:1; fill:none" points="
  1229.58,1486.45 1229.58,1469.18 
  "/>
<polyline clip-path="url(#clip060)" style="stroke:#000000; stroke-width:4; stroke-opacity:1; fill:none" points="
  1749.57,1486.45 1749.57,1469.18 
  "/>
<polyline clip-path="url(#clip060)" style="stroke:#000000; stroke-width:4; stroke-opacity:1; fill:none" points="
  2269.56,1486.45 2269.56,1469.18 
  "/>
<polyline clip-path="url(#clip060)" style="stroke:#000000; stroke-width:4; stroke-opacity:1; fill:none" points="
  148.01,1351.75 174.467,1351.75 
  "/>
<polyline clip-path="url(#clip060)" style="stroke:#000000; stroke-width:4; stroke-opacity:1; fill:none" points="
  148.01,1073.67 174.467,1073.67 
  "/>
<polyline clip-path="url(#clip060)" style="stroke:#000000; stroke-width:4; stroke-opacity:1; fill:none" points="
  148.01,795.597 174.467,795.597 
  "/>
<polyline clip-path="url(#clip060)" style="stroke:#000000; stroke-width:4; stroke-opacity:1; fill:none" points="
  148.01,517.522 174.467,517.522 
  "/>
<polyline clip-path="url(#clip060)" style="stroke:#000000; stroke-width:4; stroke-opacity:1; fill:none" points="
  148.01,239.446 174.467,239.446 
  "/>
<path clip-path="url(#clip060)" d="M 0 0 M189.609 1508.44 Q185.998 1508.44 184.17 1512 Q182.364 1515.55 182.364 1522.67 Q182.364 1529.78 184.17 1533.35 Q185.998 1536.89 189.609 1536.89 Q193.244 1536.89 195.049 1533.35 Q196.878 1529.78 196.878 1522.67 Q196.878 1515.55 195.049 1512 Q193.244 1508.44 189.609 1508.44 M189.609 1504.73 Q195.419 1504.73 198.475 1509.34 Q201.554 1513.92 201.554 1522.67 Q201.554 1531.4 198.475 1536.01 Q195.419 1540.59 189.609 1540.59 Q183.799 1540.59 180.72 1536.01 Q177.665 1531.4 177.665 1522.67 Q177.665 1513.92 180.72 1509.34 Q183.799 1504.73 189.609 1504.73 Z" fill="#000000" fill-rule="evenodd" fill-opacity="1" /><path clip-path="url(#clip060)" d="M 0 0 M691.24 1535.98 L707.559 1535.98 L707.559 1539.92 L685.615 1539.92 L685.615 1535.98 Q688.277 1533.23 692.86 1528.6 Q697.467 1523.95 698.647 1522.61 Q700.893 1520.08 701.772 1518.35 Q702.675 1516.59 702.675 1514.9 Q702.675 1512.14 700.731 1510.41 Q698.809 1508.67 695.708 1508.67 Q693.509 1508.67 691.055 1509.43 Q688.624 1510.2 685.847 1511.75 L685.847 1507.03 Q688.671 1505.89 691.124 1505.31 Q693.578 1504.73 695.615 1504.73 Q700.985 1504.73 704.18 1507.42 Q707.374 1510.11 707.374 1514.6 Q707.374 1516.73 706.564 1518.65 Q705.777 1520.54 703.671 1523.14 Q703.092 1523.81 699.99 1527.03 Q696.888 1530.22 691.24 1535.98 Z" fill="#000000" fill-rule="evenodd" fill-opacity="1" /><path clip-path="url(#clip060)" d="M 0 0 M712.675 1505.36 L731.032 1505.36 L731.032 1509.3 L716.958 1509.3 L716.958 1517.77 Q717.976 1517.42 718.995 1517.26 Q720.013 1517.07 721.032 1517.07 Q726.819 1517.07 730.198 1520.24 Q733.578 1523.42 733.578 1528.83 Q733.578 1534.41 730.106 1537.51 Q726.633 1540.59 720.314 1540.59 Q718.138 1540.59 715.87 1540.22 Q713.624 1539.85 711.217 1539.11 L711.217 1534.41 Q713.3 1535.54 715.522 1536.1 Q717.745 1536.66 720.221 1536.66 Q724.226 1536.66 726.564 1534.55 Q728.902 1532.44 728.902 1528.83 Q728.902 1525.22 726.564 1523.11 Q724.226 1521.01 720.221 1521.01 Q718.346 1521.01 716.471 1521.42 Q714.62 1521.84 712.675 1522.72 L712.675 1505.36 Z" fill="#000000" fill-rule="evenodd" fill-opacity="1" /><path clip-path="url(#clip060)" d="M 0 0 M1206.35 1505.36 L1224.71 1505.36 L1224.71 1509.3 L1210.64 1509.3 L1210.64 1517.77 Q1211.66 1517.42 1212.67 1517.26 Q1213.69 1517.07 1214.71 1517.07 Q1220.5 1517.07 1223.88 1520.24 Q1227.26 1523.42 1227.26 1528.83 Q1227.26 1534.41 1223.79 1537.51 Q1220.31 1540.59 1213.99 1540.59 Q1211.82 1540.59 1209.55 1540.22 Q1207.3 1539.85 1204.9 1539.11 L1204.9 1534.41 Q1206.98 1535.54 1209.2 1536.1 Q1211.42 1536.66 1213.9 1536.66 Q1217.91 1536.66 1220.24 1534.55 Q1222.58 1532.44 1222.58 1528.83 Q1222.58 1525.22 1220.24 1523.11 Q1217.91 1521.01 1213.9 1521.01 Q1212.03 1521.01 1210.15 1521.42 Q1208.3 1521.84 1206.35 1522.72 L1206.35 1505.36 Z" fill="#000000" fill-rule="evenodd" fill-opacity="1" /><path clip-path="url(#clip060)" d="M 0 0 M1242.33 1508.44 Q1238.72 1508.44 1236.89 1512 Q1235.08 1515.55 1235.08 1522.67 Q1235.08 1529.78 1236.89 1533.35 Q1238.72 1536.89 1242.33 1536.89 Q1245.96 1536.89 1247.77 1533.35 Q1249.6 1529.78 1249.6 1522.67 Q1249.6 1515.55 1247.77 1512 Q1245.96 1508.44 1242.33 1508.44 M1242.33 1504.73 Q1248.14 1504.73 1251.19 1509.34 Q1254.27 1513.92 1254.27 1522.67 Q1254.27 1531.4 1251.19 1536.01 Q1248.14 1540.59 1242.33 1540.59 Q1236.52 1540.59 1233.44 1536.01 Q1230.38 1531.4 1230.38 1522.67 Q1230.38 1513.92 1233.44 1509.34 Q1236.52 1504.73 1242.33 1504.73 Z" fill="#000000" fill-rule="evenodd" fill-opacity="1" /><path clip-path="url(#clip060)" d="M 0 0 M1725.45 1505.36 L1747.67 1505.36 L1747.67 1507.35 L1735.13 1539.92 L1730.24 1539.92 L1742.05 1509.3 L1725.45 1509.3 L1725.45 1505.36 Z" fill="#000000" fill-rule="evenodd" fill-opacity="1" /><path clip-path="url(#clip060)" d="M 0 0 M1752.79 1505.36 L1771.14 1505.36 L1771.14 1509.3 L1757.07 1509.3 L1757.07 1517.77 Q1758.09 1517.42 1759.11 1517.26 Q1760.13 1517.07 1761.14 1517.07 Q1766.93 1517.07 1770.31 1520.24 Q1773.69 1523.42 1773.69 1528.83 Q1773.69 1534.41 1770.22 1537.51 Q1766.75 1540.59 1760.43 1540.59 Q1758.25 1540.59 1755.98 1540.22 Q1753.74 1539.85 1751.33 1539.11 L1751.33 1534.41 Q1753.41 1535.54 1755.64 1536.1 Q1757.86 1536.66 1760.33 1536.66 Q1764.34 1536.66 1766.68 1534.55 Q1769.02 1532.44 1769.02 1528.83 Q1769.02 1525.22 1766.68 1523.11 Q1764.34 1521.01 1760.33 1521.01 Q1758.46 1521.01 1756.58 1521.42 Q1754.73 1521.84 1752.79 1522.72 L1752.79 1505.36 Z" fill="#000000" fill-rule="evenodd" fill-opacity="1" /><path clip-path="url(#clip060)" d="M 0 0 M2232.93 1535.98 L2240.57 1535.98 L2240.57 1509.62 L2232.25 1511.29 L2232.25 1507.03 L2240.52 1505.36 L2245.19 1505.36 L2245.19 1535.98 L2252.83 1535.98 L2252.83 1539.92 L2232.93 1539.92 L2232.93 1535.98 Z" fill="#000000" fill-rule="evenodd" fill-opacity="1" /><path clip-path="url(#clip060)" d="M 0 0 M2267.9 1508.44 Q2264.29 1508.44 2262.46 1512 Q2260.66 1515.55 2260.66 1522.67 Q2260.66 1529.78 2262.46 1533.35 Q2264.29 1536.89 2267.9 1536.89 Q2271.54 1536.89 2273.34 1533.35 Q2275.17 1529.78 2275.17 1522.67 Q2275.17 1515.55 2273.34 1512 Q2271.54 1508.44 2267.9 1508.44 M2267.9 1504.73 Q2273.71 1504.73 2276.77 1509.34 Q2279.85 1513.92 2279.85 1522.67 Q2279.85 1531.4 2276.77 1536.01 Q2273.71 1540.59 2267.9 1540.59 Q2262.09 1540.59 2259.01 1536.01 Q2255.96 1531.4 2255.96 1522.67 Q2255.96 1513.92 2259.01 1509.34 Q2262.09 1504.73 2267.9 1504.73 Z" fill="#000000" fill-rule="evenodd" fill-opacity="1" /><path clip-path="url(#clip060)" d="M 0 0 M2294.92 1508.44 Q2291.31 1508.44 2289.48 1512 Q2287.67 1515.55 2287.67 1522.67 Q2287.67 1529.78 2289.48 1533.35 Q2291.31 1536.89 2294.92 1536.89 Q2298.55 1536.89 2300.36 1533.35 Q2302.19 1529.78 2302.19 1522.67 Q2302.19 1515.55 2300.36 1512 Q2298.55 1508.44 2294.92 1508.44 M2294.92 1504.73 Q2300.73 1504.73 2303.78 1509.34 Q2306.86 1513.92 2306.86 1522.67 Q2306.86 1531.4 2303.78 1536.01 Q2300.73 1540.59 2294.92 1540.59 Q2289.11 1540.59 2286.03 1536.01 Q2282.97 1531.4 2282.97 1522.67 Q2282.97 1513.92 2286.03 1509.34 Q2289.11 1504.73 2294.92 1504.73 Z" fill="#000000" fill-rule="evenodd" fill-opacity="1" /><path clip-path="url(#clip060)" d="M 0 0 M75.7467 1337.55 Q72.1356 1337.55 70.3069 1341.11 Q68.5014 1344.65 68.5014 1351.78 Q68.5014 1358.89 70.3069 1362.45 Q72.1356 1366 75.7467 1366 Q79.3809 1366 81.1865 1362.45 Q83.0152 1358.89 83.0152 1351.78 Q83.0152 1344.65 81.1865 1341.11 Q79.3809 1337.55 75.7467 1337.55 M75.7467 1333.84 Q81.5568 1333.84 84.6124 1338.45 Q87.6911 1343.03 87.6911 1351.78 Q87.6911 1360.51 84.6124 1365.12 Q81.5568 1369.7 75.7467 1369.7 Q69.9365 1369.7 66.8578 1365.12 Q63.8023 1360.51 63.8023 1351.78 Q63.8023 1343.03 66.8578 1338.45 Q69.9365 1333.84 75.7467 1333.84 Z" fill="#000000" fill-rule="evenodd" fill-opacity="1" /><path clip-path="url(#clip060)" d="M 0 0 M92.7605 1363.15 L97.6447 1363.15 L97.6447 1369.03 L92.7605 1369.03 L92.7605 1363.15 Z" fill="#000000" fill-rule="evenodd" fill-opacity="1" /><path clip-path="url(#clip060)" d="M 0 0 M116.881 1350.39 Q120.237 1351.11 122.112 1353.38 Q124.01 1355.65 124.01 1358.98 Q124.01 1364.1 120.492 1366.9 Q116.973 1369.7 110.492 1369.7 Q108.316 1369.7 106.001 1369.26 Q103.71 1368.84 101.256 1367.99 L101.256 1363.47 Q103.2 1364.61 105.515 1365.19 Q107.83 1365.76 110.353 1365.76 Q114.751 1365.76 117.043 1364.03 Q119.358 1362.29 119.358 1358.98 Q119.358 1355.93 117.205 1354.21 Q115.075 1352.48 111.256 1352.48 L107.228 1352.48 L107.228 1348.64 L111.441 1348.64 Q114.89 1348.64 116.719 1347.27 Q118.547 1345.88 118.547 1343.29 Q118.547 1340.63 116.649 1339.21 Q114.774 1337.78 111.256 1337.78 Q109.334 1337.78 107.135 1338.2 Q104.936 1338.61 102.297 1339.49 L102.297 1335.32 Q104.959 1334.58 107.274 1334.21 Q109.612 1333.84 111.672 1333.84 Q116.996 1333.84 120.098 1336.27 Q123.2 1338.68 123.2 1342.8 Q123.2 1345.67 121.557 1347.66 Q119.913 1349.63 116.881 1350.39 Z" fill="#000000" fill-rule="evenodd" fill-opacity="1" /><path clip-path="url(#clip060)" d="M 0 0 M74.9365 1059.47 Q71.3254 1059.47 69.4967 1063.04 Q67.6912 1066.58 67.6912 1073.71 Q67.6912 1080.81 69.4967 1084.38 Q71.3254 1087.92 74.9365 1087.92 Q78.5707 1087.92 80.3763 1084.38 Q82.205 1080.81 82.205 1073.71 Q82.205 1066.58 80.3763 1063.04 Q78.5707 1059.47 74.9365 1059.47 M74.9365 1055.77 Q80.7467 1055.77 83.8022 1060.37 Q86.8809 1064.96 86.8809 1073.71 Q86.8809 1082.43 83.8022 1087.04 Q80.7467 1091.62 74.9365 1091.62 Q69.1264 1091.62 66.0477 1087.04 Q62.9921 1082.43 62.9921 1073.71 Q62.9921 1064.96 66.0477 1060.37 Q69.1264 1055.77 74.9365 1055.77 Z" fill="#000000" fill-rule="evenodd" fill-opacity="1" /><path clip-path="url(#clip060)" d="M 0 0 M91.9503 1085.07 L96.8345 1085.07 L96.8345 1090.95 L91.9503 1090.95 L91.9503 1085.07 Z" fill="#000000" fill-rule="evenodd" fill-opacity="1" /><path clip-path="url(#clip060)" d="M 0 0 M112.483 1071.81 Q109.334 1071.81 107.483 1073.96 Q105.654 1076.11 105.654 1079.86 Q105.654 1083.59 107.483 1085.77 Q109.334 1087.92 112.483 1087.92 Q115.631 1087.92 117.459 1085.77 Q119.311 1083.59 119.311 1079.86 Q119.311 1076.11 117.459 1073.96 Q115.631 1071.81 112.483 1071.81 M121.765 1057.16 L121.765 1061.42 Q120.006 1060.58 118.2 1060.14 Q116.418 1059.7 114.659 1059.7 Q110.029 1059.7 107.575 1062.83 Q105.145 1065.95 104.797 1072.27 Q106.163 1070.26 108.223 1069.19 Q110.284 1068.11 112.76 1068.11 Q117.969 1068.11 120.978 1071.28 Q124.01 1074.43 124.01 1079.86 Q124.01 1085.19 120.862 1088.41 Q117.714 1091.62 112.483 1091.62 Q106.487 1091.62 103.316 1087.04 Q100.145 1082.43 100.145 1073.71 Q100.145 1065.51 104.034 1060.65 Q107.922 1055.77 114.473 1055.77 Q116.233 1055.77 118.015 1056.12 Q119.821 1056.46 121.765 1057.16 Z" fill="#000000" fill-rule="evenodd" fill-opacity="1" /><path clip-path="url(#clip060)" d="M 0 0 M75.2837 781.396 Q71.6726 781.396 69.8439 784.961 Q68.0384 788.502 68.0384 795.632 Q68.0384 802.738 69.8439 806.303 Q71.6726 809.845 75.2837 809.845 Q78.918 809.845 80.7235 806.303 Q82.5522 802.738 82.5522 795.632 Q82.5522 788.502 80.7235 784.961 Q78.918 781.396 75.2837 781.396 M75.2837 777.692 Q81.0939 777.692 84.1494 782.299 Q87.2281 786.882 87.2281 795.632 Q87.2281 804.359 84.1494 808.965 Q81.0939 813.549 75.2837 813.549 Q69.4736 813.549 66.3949 808.965 Q63.3393 804.359 63.3393 795.632 Q63.3393 786.882 66.3949 782.299 Q69.4736 777.692 75.2837 777.692 Z" fill="#000000" fill-rule="evenodd" fill-opacity="1" /><path clip-path="url(#clip060)" d="M 0 0 M92.2975 806.998 L97.1818 806.998 L97.1818 812.877 L92.2975 812.877 L92.2975 806.998 Z" fill="#000000" fill-rule="evenodd" fill-opacity="1" /><path clip-path="url(#clip060)" d="M 0 0 M102.39 812.16 L102.39 807.901 Q104.149 808.734 105.955 809.174 Q107.76 809.613 109.497 809.613 Q114.126 809.613 116.557 806.512 Q119.01 803.387 119.358 797.044 Q118.015 799.035 115.955 800.1 Q113.895 801.164 111.395 801.164 Q106.209 801.164 103.177 798.039 Q100.168 794.891 100.168 789.452 Q100.168 784.127 103.316 780.91 Q106.464 777.692 111.696 777.692 Q117.691 777.692 120.839 782.299 Q124.01 786.882 124.01 795.632 Q124.01 803.803 120.121 808.688 Q116.256 813.549 109.705 813.549 Q107.946 813.549 106.14 813.201 Q104.334 812.854 102.39 812.16 M111.696 797.507 Q114.844 797.507 116.672 795.354 Q118.524 793.202 118.524 789.452 Q118.524 785.725 116.672 783.572 Q114.844 781.396 111.696 781.396 Q108.547 781.396 106.696 783.572 Q104.867 785.725 104.867 789.452 Q104.867 793.202 106.696 795.354 Q108.547 797.507 111.696 797.507 Z" fill="#000000" fill-rule="evenodd" fill-opacity="1" /><path clip-path="url(#clip060)" d="M 0 0 M68.7328 530.867 L76.3717 530.867 L76.3717 504.501 L68.0615 506.168 L68.0615 501.908 L76.3254 500.242 L81.0013 500.242 L81.0013 530.867 L88.6401 530.867 L88.6401 534.802 L68.7328 534.802 L68.7328 530.867 Z" fill="#000000" fill-rule="evenodd" fill-opacity="1" /><path clip-path="url(#clip060)" d="M 0 0 M93.7096 528.922 L98.5938 528.922 L98.5938 534.802 L93.7096 534.802 L93.7096 528.922 Z" fill="#000000" fill-rule="evenodd" fill-opacity="1" /><path clip-path="url(#clip060)" d="M 0 0 M107.691 530.867 L124.01 530.867 L124.01 534.802 L102.066 534.802 L102.066 530.867 Q104.728 528.112 109.311 523.482 Q113.918 518.83 115.098 517.487 Q117.344 514.964 118.223 513.228 Q119.126 511.469 119.126 509.779 Q119.126 507.024 117.182 505.288 Q115.26 503.552 112.159 503.552 Q109.959 503.552 107.506 504.316 Q105.075 505.08 102.297 506.631 L102.297 501.908 Q105.122 500.774 107.575 500.195 Q110.029 499.617 112.066 499.617 Q117.436 499.617 120.631 502.302 Q123.825 504.987 123.825 509.478 Q123.825 511.607 123.015 513.529 Q122.228 515.427 120.121 518.019 Q119.543 518.691 116.441 521.908 Q113.339 525.103 107.691 530.867 Z" fill="#000000" fill-rule="evenodd" fill-opacity="1" /><path clip-path="url(#clip060)" d="M 0 0 M68.131 252.791 L75.7698 252.791 L75.7698 226.425 L67.4597 228.092 L67.4597 223.833 L75.7235 222.166 L80.3994 222.166 L80.3994 252.791 L88.0383 252.791 L88.0383 256.726 L68.131 256.726 L68.131 252.791 Z" fill="#000000" fill-rule="evenodd" fill-opacity="1" /><path clip-path="url(#clip060)" d="M 0 0 M93.1077 250.847 L97.9919 250.847 L97.9919 256.726 L93.1077 256.726 L93.1077 250.847 Z" fill="#000000" fill-rule="evenodd" fill-opacity="1" /><path clip-path="url(#clip060)" d="M 0 0 M103.108 222.166 L121.464 222.166 L121.464 226.101 L107.39 226.101 L107.39 234.574 Q108.409 234.226 109.427 234.064 Q110.446 233.879 111.464 233.879 Q117.251 233.879 120.631 237.05 Q124.01 240.222 124.01 245.638 Q124.01 251.217 120.538 254.319 Q117.066 257.398 110.746 257.398 Q108.571 257.398 106.302 257.027 Q104.057 256.657 101.649 255.916 L101.649 251.217 Q103.733 252.351 105.955 252.907 Q108.177 253.462 110.654 253.462 Q114.659 253.462 116.996 251.356 Q119.334 249.249 119.334 245.638 Q119.334 242.027 116.996 239.921 Q114.659 237.814 110.654 237.814 Q108.779 237.814 106.904 238.231 Q105.052 238.648 103.108 239.527 L103.108 222.166 Z" fill="#000000" fill-rule="evenodd" fill-opacity="1" /><circle clip-path="url(#clip062)" cx="210.409" cy="689.127" r="10" fill="#009af9" fill-rule="evenodd" fill-opacity="1" stroke="none"/>
<circle clip-path="url(#clip062)" cx="231.208" cy="722.26" r="10" fill="#009af9" fill-rule="evenodd" fill-opacity="1" stroke="none"/>
<circle clip-path="url(#clip062)" cx="252.008" cy="805.943" r="10" fill="#009af9" fill-rule="evenodd" fill-opacity="1" stroke="none"/>
<circle clip-path="url(#clip062)" cx="272.807" cy="817.483" r="10" fill="#009af9" fill-rule="evenodd" fill-opacity="1" stroke="none"/>
<circle clip-path="url(#clip062)" cx="293.607" cy="894.549" r="10" fill="#009af9" fill-rule="evenodd" fill-opacity="1" stroke="none"/>
<circle clip-path="url(#clip062)" cx="314.406" cy="879.35" r="10" fill="#009af9" fill-rule="evenodd" fill-opacity="1" stroke="none"/>
<circle clip-path="url(#clip062)" cx="335.206" cy="824.576" r="10" fill="#009af9" fill-rule="evenodd" fill-opacity="1" stroke="none"/>
<circle clip-path="url(#clip062)" cx="356.005" cy="1046.15" r="10" fill="#009af9" fill-rule="evenodd" fill-opacity="1" stroke="none"/>
<circle clip-path="url(#clip062)" cx="376.805" cy="990.818" r="10" fill="#009af9" fill-rule="evenodd" fill-opacity="1" stroke="none"/>
<circle clip-path="url(#clip062)" cx="397.604" cy="1139.45" r="10" fill="#009af9" fill-rule="evenodd" fill-opacity="1" stroke="none"/>
<circle clip-path="url(#clip062)" cx="418.404" cy="1041.09" r="10" fill="#009af9" fill-rule="evenodd" fill-opacity="1" stroke="none"/>
<circle clip-path="url(#clip062)" cx="439.203" cy="1075.19" r="10" fill="#009af9" fill-rule="evenodd" fill-opacity="1" stroke="none"/>
<circle clip-path="url(#clip062)" cx="460.003" cy="1095.89" r="10" fill="#009af9" fill-rule="evenodd" fill-opacity="1" stroke="none"/>
<circle clip-path="url(#clip062)" cx="480.802" cy="1104.3" r="10" fill="#009af9" fill-rule="evenodd" fill-opacity="1" stroke="none"/>
<circle clip-path="url(#clip062)" cx="501.602" cy="1151.92" r="10" fill="#009af9" fill-rule="evenodd" fill-opacity="1" stroke="none"/>
<circle clip-path="url(#clip062)" cx="522.401" cy="1219.9" r="10" fill="#009af9" fill-rule="evenodd" fill-opacity="1" stroke="none"/>
<circle clip-path="url(#clip062)" cx="543.201" cy="1197.6" r="10" fill="#009af9" fill-rule="evenodd" fill-opacity="1" stroke="none"/>
<circle clip-path="url(#clip062)" cx="564" cy="1238.05" r="10" fill="#009af9" fill-rule="evenodd" fill-opacity="1" stroke="none"/>
<circle clip-path="url(#clip062)" cx="584.8" cy="1285.46" r="10" fill="#009af9" fill-rule="evenodd" fill-opacity="1" stroke="none"/>
<circle clip-path="url(#clip062)" cx="605.599" cy="1351.59" r="10" fill="#009af9" fill-rule="evenodd" fill-opacity="1" stroke="none"/>
<circle clip-path="url(#clip062)" cx="626.399" cy="1278.35" r="10" fill="#009af9" fill-rule="evenodd" fill-opacity="1" stroke="none"/>
<circle clip-path="url(#clip062)" cx="647.198" cy="1332.18" r="10" fill="#009af9" fill-rule="evenodd" fill-opacity="1" stroke="none"/>
<circle clip-path="url(#clip062)" cx="667.997" cy="1388.94" r="10" fill="#009af9" fill-rule="evenodd" fill-opacity="1" stroke="none"/>
<circle clip-path="url(#clip062)" cx="688.797" cy="1282.23" r="10" fill="#009af9" fill-rule="evenodd" fill-opacity="1" stroke="none"/>
<circle clip-path="url(#clip062)" cx="709.596" cy="1297.06" r="10" fill="#009af9" fill-rule="evenodd" fill-opacity="1" stroke="none"/>
<circle clip-path="url(#clip062)" cx="730.396" cy="1310.25" r="10" fill="#009af9" fill-rule="evenodd" fill-opacity="1" stroke="none"/>
<circle clip-path="url(#clip062)" cx="751.195" cy="1345.07" r="10" fill="#009af9" fill-rule="evenodd" fill-opacity="1" stroke="none"/>
<circle clip-path="url(#clip062)" cx="771.995" cy="1285.21" r="10" fill="#009af9" fill-rule="evenodd" fill-opacity="1" stroke="none"/>
<circle clip-path="url(#clip062)" cx="792.794" cy="1354.26" r="10" fill="#009af9" fill-rule="evenodd" fill-opacity="1" stroke="none"/>
<circle clip-path="url(#clip062)" cx="813.594" cy="1387.75" r="10" fill="#009af9" fill-rule="evenodd" fill-opacity="1" stroke="none"/>
<circle clip-path="url(#clip062)" cx="834.393" cy="1410.67" r="10" fill="#009af9" fill-rule="evenodd" fill-opacity="1" stroke="none"/>
<circle clip-path="url(#clip062)" cx="855.193" cy="1356.04" r="10" fill="#009af9" fill-rule="evenodd" fill-opacity="1" stroke="none"/>
<circle clip-path="url(#clip062)" cx="875.992" cy="1359.12" r="10" fill="#009af9" fill-rule="evenodd" fill-opacity="1" stroke="none"/>
<circle clip-path="url(#clip062)" cx="896.792" cy="1445.72" r="10" fill="#009af9" fill-rule="evenodd" fill-opacity="1" stroke="none"/>
<circle clip-path="url(#clip062)" cx="917.591" cy="1345.17" r="10" fill="#009af9" fill-rule="evenodd" fill-opacity="1" stroke="none"/>
<circle clip-path="url(#clip062)" cx="938.391" cy="1277.84" r="10" fill="#009af9" fill-rule="evenodd" fill-opacity="1" stroke="none"/>
<circle clip-path="url(#clip062)" cx="959.19" cy="1298.41" r="10" fill="#009af9" fill-rule="evenodd" fill-opacity="1" stroke="none"/>
<circle clip-path="url(#clip062)" cx="979.99" cy="1277.11" r="10" fill="#009af9" fill-rule="evenodd" fill-opacity="1" stroke="none"/>
<circle clip-path="url(#clip062)" cx="1000.79" cy="1279.99" r="10" fill="#009af9" fill-rule="evenodd" fill-opacity="1" stroke="none"/>
<circle clip-path="url(#clip062)" cx="1021.59" cy="1309.41" r="10" fill="#009af9" fill-rule="evenodd" fill-opacity="1" stroke="none"/>
<circle clip-path="url(#clip062)" cx="1042.39" cy="1288.77" r="10" fill="#009af9" fill-rule="evenodd" fill-opacity="1" stroke="none"/>
<circle clip-path="url(#clip062)" cx="1063.19" cy="1316.09" r="10" fill="#009af9" fill-rule="evenodd" fill-opacity="1" stroke="none"/>
<circle clip-path="url(#clip062)" cx="1083.99" cy="1262.42" r="10" fill="#009af9" fill-rule="evenodd" fill-opacity="1" stroke="none"/>
<circle clip-path="url(#clip062)" cx="1104.79" cy="1183.45" r="10" fill="#009af9" fill-rule="evenodd" fill-opacity="1" stroke="none"/>
<circle clip-path="url(#clip062)" cx="1125.59" cy="1124.46" r="10" fill="#009af9" fill-rule="evenodd" fill-opacity="1" stroke="none"/>
<circle clip-path="url(#clip062)" cx="1146.39" cy="1065.84" r="10" fill="#009af9" fill-rule="evenodd" fill-opacity="1" stroke="none"/>
<circle clip-path="url(#clip062)" cx="1167.19" cy="949.021" r="10" fill="#009af9" fill-rule="evenodd" fill-opacity="1" stroke="none"/>
<circle clip-path="url(#clip062)" cx="1187.98" cy="910.649" r="10" fill="#009af9" fill-rule="evenodd" fill-opacity="1" stroke="none"/>
<circle clip-path="url(#clip062)" cx="1208.78" cy="896.708" r="10" fill="#009af9" fill-rule="evenodd" fill-opacity="1" stroke="none"/>
<circle clip-path="url(#clip062)" cx="1229.58" cy="883.019" r="10" fill="#009af9" fill-rule="evenodd" fill-opacity="1" stroke="none"/>
<circle clip-path="url(#clip062)" cx="1250.38" cy="801.544" r="10" fill="#009af9" fill-rule="evenodd" fill-opacity="1" stroke="none"/>
<circle clip-path="url(#clip062)" cx="1271.18" cy="633.535" r="10" fill="#009af9" fill-rule="evenodd" fill-opacity="1" stroke="none"/>
<circle clip-path="url(#clip062)" cx="1291.98" cy="672.573" r="10" fill="#009af9" fill-rule="evenodd" fill-opacity="1" stroke="none"/>
<circle clip-path="url(#clip062)" cx="1312.78" cy="480.4" r="10" fill="#009af9" fill-rule="evenodd" fill-opacity="1" stroke="none"/>
<circle clip-path="url(#clip062)" cx="1333.58" cy="475.285" r="10" fill="#009af9" fill-rule="evenodd" fill-opacity="1" stroke="none"/>
<circle clip-path="url(#clip062)" cx="1354.38" cy="382.618" r="10" fill="#009af9" fill-rule="evenodd" fill-opacity="1" stroke="none"/>
<circle clip-path="url(#clip062)" cx="1375.18" cy="377.31" r="10" fill="#009af9" fill-rule="evenodd" fill-opacity="1" stroke="none"/>
<circle clip-path="url(#clip062)" cx="1395.98" cy="365.51" r="10" fill="#009af9" fill-rule="evenodd" fill-opacity="1" stroke="none"/>
<circle clip-path="url(#clip062)" cx="1416.78" cy="430.124" r="10" fill="#009af9" fill-rule="evenodd" fill-opacity="1" stroke="none"/>
<circle clip-path="url(#clip062)" cx="1437.58" cy="366.806" r="10" fill="#009af9" fill-rule="evenodd" fill-opacity="1" stroke="none"/>
<circle clip-path="url(#clip062)" cx="1458.38" cy="410.778" r="10" fill="#009af9" fill-rule="evenodd" fill-opacity="1" stroke="none"/>
<circle clip-path="url(#clip062)" cx="1479.18" cy="299.163" r="10" fill="#009af9" fill-rule="evenodd" fill-opacity="1" stroke="none"/>
<circle clip-path="url(#clip062)" cx="1499.98" cy="492.837" r="10" fill="#009af9" fill-rule="evenodd" fill-opacity="1" stroke="none"/>
<circle clip-path="url(#clip062)" cx="1520.78" cy="495.095" r="10" fill="#009af9" fill-rule="evenodd" fill-opacity="1" stroke="none"/>
<circle clip-path="url(#clip062)" cx="1541.58" cy="565.679" r="10" fill="#009af9" fill-rule="evenodd" fill-opacity="1" stroke="none"/>
<circle clip-path="url(#clip062)" cx="1562.38" cy="639.196" r="10" fill="#009af9" fill-rule="evenodd" fill-opacity="1" stroke="none"/>
<circle clip-path="url(#clip062)" cx="1583.17" cy="624.429" r="10" fill="#009af9" fill-rule="evenodd" fill-opacity="1" stroke="none"/>
<circle clip-path="url(#clip062)" cx="1603.97" cy="715.26" r="10" fill="#009af9" fill-rule="evenodd" fill-opacity="1" stroke="none"/>
<circle clip-path="url(#clip062)" cx="1624.77" cy="821.882" r="10" fill="#009af9" fill-rule="evenodd" fill-opacity="1" stroke="none"/>
<circle clip-path="url(#clip062)" cx="1645.57" cy="781.426" r="10" fill="#009af9" fill-rule="evenodd" fill-opacity="1" stroke="none"/>
<circle clip-path="url(#clip062)" cx="1666.37" cy="915.616" r="10" fill="#009af9" fill-rule="evenodd" fill-opacity="1" stroke="none"/>
<circle clip-path="url(#clip062)" cx="1687.17" cy="921.338" r="10" fill="#009af9" fill-rule="evenodd" fill-opacity="1" stroke="none"/>
<circle clip-path="url(#clip062)" cx="1707.97" cy="965.153" r="10" fill="#009af9" fill-rule="evenodd" fill-opacity="1" stroke="none"/>
<circle clip-path="url(#clip062)" cx="1728.77" cy="944.414" r="10" fill="#009af9" fill-rule="evenodd" fill-opacity="1" stroke="none"/>
<circle clip-path="url(#clip062)" cx="1749.57" cy="978.543" r="10" fill="#009af9" fill-rule="evenodd" fill-opacity="1" stroke="none"/>
<circle clip-path="url(#clip062)" cx="1770.37" cy="1133.91" r="10" fill="#009af9" fill-rule="evenodd" fill-opacity="1" stroke="none"/>
<circle clip-path="url(#clip062)" cx="1791.17" cy="1183.01" r="10" fill="#009af9" fill-rule="evenodd" fill-opacity="1" stroke="none"/>
<circle clip-path="url(#clip062)" cx="1811.97" cy="1163.66" r="10" fill="#009af9" fill-rule="evenodd" fill-opacity="1" stroke="none"/>
<circle clip-path="url(#clip062)" cx="1832.77" cy="1118.17" r="10" fill="#009af9" fill-rule="evenodd" fill-opacity="1" stroke="none"/>
<circle clip-path="url(#clip062)" cx="1853.57" cy="1210.21" r="10" fill="#009af9" fill-rule="evenodd" fill-opacity="1" stroke="none"/>
<circle clip-path="url(#clip062)" cx="1874.37" cy="1192.2" r="10" fill="#009af9" fill-rule="evenodd" fill-opacity="1" stroke="none"/>
<circle clip-path="url(#clip062)" cx="1895.17" cy="1187.01" r="10" fill="#009af9" fill-rule="evenodd" fill-opacity="1" stroke="none"/>
<circle clip-path="url(#clip062)" cx="1915.97" cy="1178.71" r="10" fill="#009af9" fill-rule="evenodd" fill-opacity="1" stroke="none"/>
<circle clip-path="url(#clip062)" cx="1936.77" cy="1341.78" r="10" fill="#009af9" fill-rule="evenodd" fill-opacity="1" stroke="none"/>
<circle clip-path="url(#clip062)" cx="1957.57" cy="1265.45" r="10" fill="#009af9" fill-rule="evenodd" fill-opacity="1" stroke="none"/>
<circle clip-path="url(#clip062)" cx="1978.37" cy="1359.37" r="10" fill="#009af9" fill-rule="evenodd" fill-opacity="1" stroke="none"/>
<circle clip-path="url(#clip062)" cx="1999.16" cy="1364.03" r="10" fill="#009af9" fill-rule="evenodd" fill-opacity="1" stroke="none"/>
<circle clip-path="url(#clip062)" cx="2019.96" cy="1296.36" r="10" fill="#009af9" fill-rule="evenodd" fill-opacity="1" stroke="none"/>
<circle clip-path="url(#clip062)" cx="2040.76" cy="1341.63" r="10" fill="#009af9" fill-rule="evenodd" fill-opacity="1" stroke="none"/>
<circle clip-path="url(#clip062)" cx="2061.56" cy="1397.93" r="10" fill="#009af9" fill-rule="evenodd" fill-opacity="1" stroke="none"/>
<circle clip-path="url(#clip062)" cx="2082.36" cy="1421.81" r="10" fill="#009af9" fill-rule="evenodd" fill-opacity="1" stroke="none"/>
<circle clip-path="url(#clip062)" cx="2103.16" cy="1398.83" r="10" fill="#009af9" fill-rule="evenodd" fill-opacity="1" stroke="none"/>
<circle clip-path="url(#clip062)" cx="2123.96" cy="1399.94" r="10" fill="#009af9" fill-rule="evenodd" fill-opacity="1" stroke="none"/>
<circle clip-path="url(#clip062)" cx="2144.76" cy="1408.25" r="10" fill="#009af9" fill-rule="evenodd" fill-opacity="1" stroke="none"/>
<circle clip-path="url(#clip062)" cx="2165.56" cy="1416.43" r="10" fill="#009af9" fill-rule="evenodd" fill-opacity="1" stroke="none"/>
<circle clip-path="url(#clip062)" cx="2186.36" cy="1411.36" r="10" fill="#009af9" fill-rule="evenodd" fill-opacity="1" stroke="none"/>
<circle clip-path="url(#clip062)" cx="2207.16" cy="1426.03" r="10" fill="#009af9" fill-rule="evenodd" fill-opacity="1" stroke="none"/>
<circle clip-path="url(#clip062)" cx="2227.96" cy="1367.09" r="10" fill="#009af9" fill-rule="evenodd" fill-opacity="1" stroke="none"/>
<circle clip-path="url(#clip062)" cx="2248.76" cy="1380.02" r="10" fill="#009af9" fill-rule="evenodd" fill-opacity="1" stroke="none"/>
<circle clip-path="url(#clip062)" cx="2269.56" cy="1445.51" r="10" fill="#009af9" fill-rule="evenodd" fill-opacity="1" stroke="none"/>
<circle clip-path="url(#clip062)" cx="2290.36" cy="1428.7" r="10" fill="#009af9" fill-rule="evenodd" fill-opacity="1" stroke="none"/>
<circle clip-path="url(#clip062)" cx="210.409" cy="1187.23" r="10" fill="#e26f46" fill-rule="evenodd" fill-opacity="1" stroke="none"/>
<circle clip-path="url(#clip062)" cx="231.208" cy="1261.22" r="10" fill="#e26f46" fill-rule="evenodd" fill-opacity="1" stroke="none"/>
<circle clip-path="url(#clip062)" cx="252.008" cy="1300.06" r="10" fill="#e26f46" fill-rule="evenodd" fill-opacity="1" stroke="none"/>
<circle clip-path="url(#clip062)" cx="272.807" cy="1158.78" r="10" fill="#e26f46" fill-rule="evenodd" fill-opacity="1" stroke="none"/>
<circle clip-path="url(#clip062)" cx="293.607" cy="1256.07" r="10" fill="#e26f46" fill-rule="evenodd" fill-opacity="1" stroke="none"/>
<circle clip-path="url(#clip062)" cx="314.406" cy="1207.41" r="10" fill="#e26f46" fill-rule="evenodd" fill-opacity="1" stroke="none"/>
<circle clip-path="url(#clip062)" cx="335.206" cy="1325.49" r="10" fill="#e26f46" fill-rule="evenodd" fill-opacity="1" stroke="none"/>
<circle clip-path="url(#clip062)" cx="356.005" cy="1260.59" r="10" fill="#e26f46" fill-rule="evenodd" fill-opacity="1" stroke="none"/>
<circle clip-path="url(#clip062)" cx="376.805" cy="1291.61" r="10" fill="#e26f46" fill-rule="evenodd" fill-opacity="1" stroke="none"/>
<circle clip-path="url(#clip062)" cx="397.604" cy="1244.53" r="10" fill="#e26f46" fill-rule="evenodd" fill-opacity="1" stroke="none"/>
<circle clip-path="url(#clip062)" cx="418.404" cy="1277.77" r="10" fill="#e26f46" fill-rule="evenodd" fill-opacity="1" stroke="none"/>
<circle clip-path="url(#clip062)" cx="439.203" cy="1252.4" r="10" fill="#e26f46" fill-rule="evenodd" fill-opacity="1" stroke="none"/>
<circle clip-path="url(#clip062)" cx="460.003" cy="1193.84" r="10" fill="#e26f46" fill-rule="evenodd" fill-opacity="1" stroke="none"/>
<circle clip-path="url(#clip062)" cx="480.802" cy="1217.48" r="10" fill="#e26f46" fill-rule="evenodd" fill-opacity="1" stroke="none"/>
<circle clip-path="url(#clip062)" cx="501.602" cy="1295.42" r="10" fill="#e26f46" fill-rule="evenodd" fill-opacity="1" stroke="none"/>
<circle clip-path="url(#clip062)" cx="522.401" cy="1267.81" r="10" fill="#e26f46" fill-rule="evenodd" fill-opacity="1" stroke="none"/>
<circle clip-path="url(#clip062)" cx="543.201" cy="1204.1" r="10" fill="#e26f46" fill-rule="evenodd" fill-opacity="1" stroke="none"/>
<circle clip-path="url(#clip062)" cx="564" cy="1270.03" r="10" fill="#e26f46" fill-rule="evenodd" fill-opacity="1" stroke="none"/>
<circle clip-path="url(#clip062)" cx="584.8" cy="1163.27" r="10" fill="#e26f46" fill-rule="evenodd" fill-opacity="1" stroke="none"/>
<circle clip-path="url(#clip062)" cx="605.599" cy="1227.32" r="10" fill="#e26f46" fill-rule="evenodd" fill-opacity="1" stroke="none"/>
<circle clip-path="url(#clip062)" cx="626.399" cy="1212.11" r="10" fill="#e26f46" fill-rule="evenodd" fill-opacity="1" stroke="none"/>
<circle clip-path="url(#clip062)" cx="647.198" cy="1192.35" r="10" fill="#e26f46" fill-rule="evenodd" fill-opacity="1" stroke="none"/>
<circle clip-path="url(#clip062)" cx="667.997" cy="1081.02" r="10" fill="#e26f46" fill-rule="evenodd" fill-opacity="1" stroke="none"/>
<circle clip-path="url(#clip062)" cx="688.797" cy="1203.1" r="10" fill="#e26f46" fill-rule="evenodd" fill-opacity="1" stroke="none"/>
<circle clip-path="url(#clip062)" cx="709.596" cy="1046.79" r="10" fill="#e26f46" fill-rule="evenodd" fill-opacity="1" stroke="none"/>
<circle clip-path="url(#clip062)" cx="730.396" cy="1101.14" r="10" fill="#e26f46" fill-rule="evenodd" fill-opacity="1" stroke="none"/>
<circle clip-path="url(#clip062)" cx="751.195" cy="1119.91" r="10" fill="#e26f46" fill-rule="evenodd" fill-opacity="1" stroke="none"/>
<circle clip-path="url(#clip062)" cx="771.995" cy="977.835" r="10" fill="#e26f46" fill-rule="evenodd" fill-opacity="1" stroke="none"/>
<circle clip-path="url(#clip062)" cx="792.794" cy="988.368" r="10" fill="#e26f46" fill-rule="evenodd" fill-opacity="1" stroke="none"/>
<circle clip-path="url(#clip062)" cx="813.594" cy="829.718" r="10" fill="#e26f46" fill-rule="evenodd" fill-opacity="1" stroke="none"/>
<circle clip-path="url(#clip062)" cx="834.393" cy="864.467" r="10" fill="#e26f46" fill-rule="evenodd" fill-opacity="1" stroke="none"/>
<circle clip-path="url(#clip062)" cx="855.193" cy="762.391" r="10" fill="#e26f46" fill-rule="evenodd" fill-opacity="1" stroke="none"/>
<circle clip-path="url(#clip062)" cx="875.992" cy="717.311" r="10" fill="#e26f46" fill-rule="evenodd" fill-opacity="1" stroke="none"/>
<circle clip-path="url(#clip062)" cx="896.792" cy="779.523" r="10" fill="#e26f46" fill-rule="evenodd" fill-opacity="1" stroke="none"/>
<circle clip-path="url(#clip062)" cx="917.591" cy="697.61" r="10" fill="#e26f46" fill-rule="evenodd" fill-opacity="1" stroke="none"/>
<circle clip-path="url(#clip062)" cx="938.391" cy="571.164" r="10" fill="#e26f46" fill-rule="evenodd" fill-opacity="1" stroke="none"/>
<circle clip-path="url(#clip062)" cx="959.19" cy="568.804" r="10" fill="#e26f46" fill-rule="evenodd" fill-opacity="1" stroke="none"/>
<circle clip-path="url(#clip062)" cx="979.99" cy="438.304" r="10" fill="#e26f46" fill-rule="evenodd" fill-opacity="1" stroke="none"/>
<circle clip-path="url(#clip062)" cx="1000.79" cy="346.559" r="10" fill="#e26f46" fill-rule="evenodd" fill-opacity="1" stroke="none"/>
<circle clip-path="url(#clip062)" cx="1021.59" cy="386.268" r="10" fill="#e26f46" fill-rule="evenodd" fill-opacity="1" stroke="none"/>
<circle clip-path="url(#clip062)" cx="1042.39" cy="336.114" r="10" fill="#e26f46" fill-rule="evenodd" fill-opacity="1" stroke="none"/>
<circle clip-path="url(#clip062)" cx="1063.19" cy="286.391" r="10" fill="#e26f46" fill-rule="evenodd" fill-opacity="1" stroke="none"/>
<circle clip-path="url(#clip062)" cx="1083.99" cy="296.292" r="10" fill="#e26f46" fill-rule="evenodd" fill-opacity="1" stroke="none"/>
<circle clip-path="url(#clip062)" cx="1104.79" cy="102.16" r="10" fill="#e26f46" fill-rule="evenodd" fill-opacity="1" stroke="none"/>
<circle clip-path="url(#clip062)" cx="1125.59" cy="191.002" r="10" fill="#e26f46" fill-rule="evenodd" fill-opacity="1" stroke="none"/>
<circle clip-path="url(#clip062)" cx="1146.39" cy="166.194" r="10" fill="#e26f46" fill-rule="evenodd" fill-opacity="1" stroke="none"/>
<circle clip-path="url(#clip062)" cx="1167.19" cy="139.824" r="10" fill="#e26f46" fill-rule="evenodd" fill-opacity="1" stroke="none"/>
<circle clip-path="url(#clip062)" cx="1187.98" cy="118.205" r="10" fill="#e26f46" fill-rule="evenodd" fill-opacity="1" stroke="none"/>
<circle clip-path="url(#clip062)" cx="1208.78" cy="87.9763" r="10" fill="#e26f46" fill-rule="evenodd" fill-opacity="1" stroke="none"/>
<circle clip-path="url(#clip062)" cx="1229.58" cy="106.375" r="10" fill="#e26f46" fill-rule="evenodd" fill-opacity="1" stroke="none"/>
<circle clip-path="url(#clip062)" cx="1250.38" cy="196.907" r="10" fill="#e26f46" fill-rule="evenodd" fill-opacity="1" stroke="none"/>
<circle clip-path="url(#clip062)" cx="1271.18" cy="240.806" r="10" fill="#e26f46" fill-rule="evenodd" fill-opacity="1" stroke="none"/>
<circle clip-path="url(#clip062)" cx="1291.98" cy="264.126" r="10" fill="#e26f46" fill-rule="evenodd" fill-opacity="1" stroke="none"/>
<circle clip-path="url(#clip062)" cx="1312.78" cy="429.006" r="10" fill="#e26f46" fill-rule="evenodd" fill-opacity="1" stroke="none"/>
<circle clip-path="url(#clip062)" cx="1333.58" cy="557.416" r="10" fill="#e26f46" fill-rule="evenodd" fill-opacity="1" stroke="none"/>
<circle clip-path="url(#clip062)" cx="1354.38" cy="570.174" r="10" fill="#e26f46" fill-rule="evenodd" fill-opacity="1" stroke="none"/>
<circle clip-path="url(#clip062)" cx="1375.18" cy="694.529" r="10" fill="#e26f46" fill-rule="evenodd" fill-opacity="1" stroke="none"/>
<circle clip-path="url(#clip062)" cx="1395.98" cy="808.462" r="10" fill="#e26f46" fill-rule="evenodd" fill-opacity="1" stroke="none"/>
<circle clip-path="url(#clip062)" cx="1416.78" cy="776.003" r="10" fill="#e26f46" fill-rule="evenodd" fill-opacity="1" stroke="none"/>
<circle clip-path="url(#clip062)" cx="1437.58" cy="932.722" r="10" fill="#e26f46" fill-rule="evenodd" fill-opacity="1" stroke="none"/>
<circle clip-path="url(#clip062)" cx="1458.38" cy="1074.78" r="10" fill="#e26f46" fill-rule="evenodd" fill-opacity="1" stroke="none"/>
<circle clip-path="url(#clip062)" cx="1479.18" cy="1102.84" r="10" fill="#e26f46" fill-rule="evenodd" fill-opacity="1" stroke="none"/>
<circle clip-path="url(#clip062)" cx="1499.98" cy="1146.92" r="10" fill="#e26f46" fill-rule="evenodd" fill-opacity="1" stroke="none"/>
<circle clip-path="url(#clip062)" cx="1520.78" cy="1207.91" r="10" fill="#e26f46" fill-rule="evenodd" fill-opacity="1" stroke="none"/>
<circle clip-path="url(#clip062)" cx="1541.58" cy="1228.28" r="10" fill="#e26f46" fill-rule="evenodd" fill-opacity="1" stroke="none"/>
<circle clip-path="url(#clip062)" cx="1562.38" cy="1235.13" r="10" fill="#e26f46" fill-rule="evenodd" fill-opacity="1" stroke="none"/>
<circle clip-path="url(#clip062)" cx="1583.17" cy="1341.39" r="10" fill="#e26f46" fill-rule="evenodd" fill-opacity="1" stroke="none"/>
<circle clip-path="url(#clip062)" cx="1603.97" cy="1307.62" r="10" fill="#e26f46" fill-rule="evenodd" fill-opacity="1" stroke="none"/>
<circle clip-path="url(#clip062)" cx="1624.77" cy="1331.66" r="10" fill="#e26f46" fill-rule="evenodd" fill-opacity="1" stroke="none"/>
<circle clip-path="url(#clip062)" cx="1645.57" cy="1283.62" r="10" fill="#e26f46" fill-rule="evenodd" fill-opacity="1" stroke="none"/>
<circle clip-path="url(#clip062)" cx="1666.37" cy="1344.59" r="10" fill="#e26f46" fill-rule="evenodd" fill-opacity="1" stroke="none"/>
<circle clip-path="url(#clip062)" cx="1687.17" cy="1342.49" r="10" fill="#e26f46" fill-rule="evenodd" fill-opacity="1" stroke="none"/>
<circle clip-path="url(#clip062)" cx="1707.97" cy="1406.8" r="10" fill="#e26f46" fill-rule="evenodd" fill-opacity="1" stroke="none"/>
<circle clip-path="url(#clip062)" cx="1728.77" cy="1377.56" r="10" fill="#e26f46" fill-rule="evenodd" fill-opacity="1" stroke="none"/>
<circle clip-path="url(#clip062)" cx="1749.57" cy="1304.59" r="10" fill="#e26f46" fill-rule="evenodd" fill-opacity="1" stroke="none"/>
<circle clip-path="url(#clip062)" cx="1770.37" cy="1332.86" r="10" fill="#e26f46" fill-rule="evenodd" fill-opacity="1" stroke="none"/>
<circle clip-path="url(#clip062)" cx="1791.17" cy="1341.99" r="10" fill="#e26f46" fill-rule="evenodd" fill-opacity="1" stroke="none"/>
<circle clip-path="url(#clip062)" cx="1811.97" cy="1331.95" r="10" fill="#e26f46" fill-rule="evenodd" fill-opacity="1" stroke="none"/>
<circle clip-path="url(#clip062)" cx="1832.77" cy="1295.07" r="10" fill="#e26f46" fill-rule="evenodd" fill-opacity="1" stroke="none"/>
<circle clip-path="url(#clip062)" cx="1853.57" cy="1411.69" r="10" fill="#e26f46" fill-rule="evenodd" fill-opacity="1" stroke="none"/>
<circle clip-path="url(#clip062)" cx="1874.37" cy="1332.75" r="10" fill="#e26f46" fill-rule="evenodd" fill-opacity="1" stroke="none"/>
<circle clip-path="url(#clip062)" cx="1895.17" cy="1298.78" r="10" fill="#e26f46" fill-rule="evenodd" fill-opacity="1" stroke="none"/>
<circle clip-path="url(#clip062)" cx="1915.97" cy="1301.37" r="10" fill="#e26f46" fill-rule="evenodd" fill-opacity="1" stroke="none"/>
<circle clip-path="url(#clip062)" cx="1936.77" cy="1256.62" r="10" fill="#e26f46" fill-rule="evenodd" fill-opacity="1" stroke="none"/>
<circle clip-path="url(#clip062)" cx="1957.57" cy="1263.6" r="10" fill="#e26f46" fill-rule="evenodd" fill-opacity="1" stroke="none"/>
<circle clip-path="url(#clip062)" cx="1978.37" cy="1229.66" r="10" fill="#e26f46" fill-rule="evenodd" fill-opacity="1" stroke="none"/>
<circle clip-path="url(#clip062)" cx="1999.16" cy="1218.78" r="10" fill="#e26f46" fill-rule="evenodd" fill-opacity="1" stroke="none"/>
<circle clip-path="url(#clip062)" cx="2019.96" cy="1137.24" r="10" fill="#e26f46" fill-rule="evenodd" fill-opacity="1" stroke="none"/>
<circle clip-path="url(#clip062)" cx="2040.76" cy="1200.42" r="10" fill="#e26f46" fill-rule="evenodd" fill-opacity="1" stroke="none"/>
<circle clip-path="url(#clip062)" cx="2061.56" cy="1218.95" r="10" fill="#e26f46" fill-rule="evenodd" fill-opacity="1" stroke="none"/>
<circle clip-path="url(#clip062)" cx="2082.36" cy="1108.78" r="10" fill="#e26f46" fill-rule="evenodd" fill-opacity="1" stroke="none"/>
<circle clip-path="url(#clip062)" cx="2103.16" cy="1148.2" r="10" fill="#e26f46" fill-rule="evenodd" fill-opacity="1" stroke="none"/>
<circle clip-path="url(#clip062)" cx="2123.96" cy="1075.96" r="10" fill="#e26f46" fill-rule="evenodd" fill-opacity="1" stroke="none"/>
<circle clip-path="url(#clip062)" cx="2144.76" cy="1026.35" r="10" fill="#e26f46" fill-rule="evenodd" fill-opacity="1" stroke="none"/>
<circle clip-path="url(#clip062)" cx="2165.56" cy="991.726" r="10" fill="#e26f46" fill-rule="evenodd" fill-opacity="1" stroke="none"/>
<circle clip-path="url(#clip062)" cx="2186.36" cy="1048.06" r="10" fill="#e26f46" fill-rule="evenodd" fill-opacity="1" stroke="none"/>
<circle clip-path="url(#clip062)" cx="2207.16" cy="951.357" r="10" fill="#e26f46" fill-rule="evenodd" fill-opacity="1" stroke="none"/>
<circle clip-path="url(#clip062)" cx="2227.96" cy="945.525" r="10" fill="#e26f46" fill-rule="evenodd" fill-opacity="1" stroke="none"/>
<circle clip-path="url(#clip062)" cx="2248.76" cy="805.23" r="10" fill="#e26f46" fill-rule="evenodd" fill-opacity="1" stroke="none"/>
<circle clip-path="url(#clip062)" cx="2269.56" cy="691.945" r="10" fill="#e26f46" fill-rule="evenodd" fill-opacity="1" stroke="none"/>
<circle clip-path="url(#clip062)" cx="2290.36" cy="795.315" r="10" fill="#e26f46" fill-rule="evenodd" fill-opacity="1" stroke="none"/>
<polyline clip-path="url(#clip062)" style="stroke:#000000; stroke-width:8; stroke-opacity:1; fill:none" stroke-dasharray="4, 8" points="
  210.409,702.905 231.208,739.982 252.008,778.245 272.807,816.999 293.607,855.664 314.406,893.769 335.206,930.944 356.005,966.902 376.805,1001.43 397.604,1034.38 
  418.404,1065.65 439.203,1095.18 460.003,1122.95 480.802,1148.94 501.602,1173.18 522.401,1195.69 543.201,1216.52 564,1235.72 584.8,1253.32 605.599,1269.38 
  626.399,1283.94 647.198,1297.06 667.997,1308.78 688.797,1319.12 709.596,1328.11 730.396,1335.78 751.195,1342.14 771.995,1347.17 792.794,1350.87 813.594,1353.2 
  834.393,1354.13 855.193,1353.57 875.992,1351.46 896.792,1347.68 917.591,1342.08 938.391,1334.5 959.19,1324.72 979.99,1312.5 1000.79,1297.54 1021.59,1279.49 
  1042.39,1257.97 1063.19,1232.52 1083.99,1202.67 1104.79,1167.91 1125.59,1127.73 1146.39,1081.68 1167.19,1029.44 1187.98,970.895 1208.78,906.272 1229.58,836.262 
  1250.38,762.147 1271.18,685.879 1291.98,610.074 1312.78,537.882 1333.58,472.706 1354.38,417.813 1375.18,375.907 1395.98,348.775 1416.78,337.094 1437.58,340.442 
  1458.38,357.497 1479.18,386.322 1499.98,424.68 1520.78,470.29 1541.58,521.023 1562.38,575.002 1583.17,630.653 1603.97,686.705 1624.77,742.167 1645.57,796.292 
  1666.37,848.536 1687.17,898.523 1707.97,946.008 1728.77,990.849 1749.57,1032.98 1770.37,1072.41 1791.17,1109.17 1811.97,1143.33 1832.77,1174.98 1853.57,1204.24 
  1874.37,1231.21 1895.17,1256.03 1915.97,1278.79 1936.77,1299.63 1957.57,1318.65 1978.37,1335.96 1999.16,1351.66 2019.96,1365.84 2040.76,1378.59 2061.56,1389.97 
  2082.36,1400.07 2103.16,1408.92 2123.96,1416.58 2144.76,1423.08 2165.56,1428.44 2186.36,1432.67 2207.16,1435.76 2227.96,1437.68 2248.76,1438.41 2269.56,1437.85 
  2290.36,1435.94 
  "/>
<polyline clip-path="url(#clip062)" style="stroke:#000000; stroke-width:8; stroke-opacity:1; fill:none" stroke-dasharray="4, 8" points="
  210.409,1166.36 231.208,1189.54 252.008,1208.91 272.807,1224.82 293.607,1237.6 314.406,1247.51 335.206,1254.82 356.005,1259.73 376.805,1262.42 397.604,1263.05 
  418.404,1261.71 439.203,1258.51 460.003,1253.5 480.802,1246.74 501.602,1238.24 522.401,1228.02 543.201,1216.07 564,1202.36 584.8,1186.88 605.599,1169.57 
  626.399,1150.39 647.198,1129.29 667.997,1106.19 688.797,1081.03 709.596,1053.74 730.396,1024.26 751.195,992.519 771.995,958.459 792.794,922.032 813.594,883.204 
  834.393,841.964 855.193,798.329 875.992,752.351 896.792,704.131 917.591,653.828 938.391,601.675 959.19,547.997 979.99,493.229 1000.79,437.936 1021.59,382.838 
  1042.39,328.835 1063.19,277.024 1083.99,228.72 1104.79,185.46 1125.59,148.99 1146.39,121.228 1167.19,104.187 1187.98,99.8519 1208.78,109.999 1229.58,135.973 
  1250.38,178.427 1271.18,237.082 1291.98,310.557 1312.78,396.339 1333.58,490.954 1354.38,590.323 1375.18,690.256 1395.98,786.954 1416.78,877.4 1437.58,959.563 
  1458.38,1032.39 1479.18,1095.66 1499.98,1149.73 1520.78,1195.35 1541.58,1233.43 1562.38,1264.92 1583.17,1290.72 1603.97,1311.64 1624.77,1328.38 1645.57,1341.54 
  1666.37,1351.59 1687.17,1358.95 1707.97,1363.92 1728.77,1366.75 1749.57,1367.65 1770.37,1366.75 1791.17,1364.17 1811.97,1359.99 1832.77,1354.25 1853.57,1346.98 
  1874.37,1338.17 1895.17,1327.82 1915.97,1315.89 1936.77,1302.33 1957.57,1287.08 1978.37,1270.07 1999.16,1251.2 2019.96,1230.38 2040.76,1207.5 2061.56,1182.44 
  2082.36,1155.06 2103.16,1125.24 2123.96,1092.82 2144.76,1057.65 2165.56,1019.58 2186.36,978.438 2207.16,934.082 2227.96,886.357 2248.76,835.128 2269.56,780.275 
  2290.36,721.712 
  "/>
<polyline clip-path="url(#clip062)" style="stroke:#009af9; stroke-width:4; stroke-opacity:1; fill:none" points="
  210.409,702.905 231.208,739.678 252.008,777.677 272.807,816.205 293.607,854.68 314.406,892.63 335.206,929.679 356.005,965.538 376.805,999.992 397.604,1032.89 
  418.404,1064.12 439.203,1093.62 460.003,1121.37 480.802,1147.36 501.602,1171.6 522.401,1194.13 543.201,1214.97 564,1234.18 584.8,1251.8 605.599,1267.89 
  626.399,1282.48 647.198,1295.62 667.997,1307.36 688.797,1317.72 709.596,1326.74 730.396,1334.43 751.195,1340.8 771.995,1345.86 792.794,1349.57 813.594,1351.92 
  834.393,1352.86 855.193,1352.33 875.992,1350.23 896.792,1346.46 917.591,1340.88 938.391,1333.31 959.19,1323.56 979.99,1311.37 1000.79,1296.45 1021.59,1278.45 
  1042.39,1256.99 1063.19,1231.63 1083.99,1201.9 1104.79,1167.28 1125.59,1127.29 1146.39,1081.48 1167.19,1029.55 1187.98,971.377 1208.78,907.196 1229.58,837.696 
  1250.38,764.143 1271.18,688.467 1291.98,613.248 1312.78,541.59 1333.58,476.85 1354.38,422.254 1375.18,380.478 1395.98,353.302 1416.78,341.415 1437.58,344.427 
  1458.38,361.053 1479.18,389.395 1499.98,427.25 1520.78,472.367 1541.58,522.633 1562.38,576.185 1583.17,631.454 1603.97,687.171 1624.77,742.343 1645.57,796.219 
  1666.37,848.254 1687.17,898.066 1707.97,945.405 1728.77,990.128 1749.57,1032.17 1770.37,1071.51 1791.17,1108.21 1811.97,1142.32 1832.77,1173.94 1853.57,1203.16 
  1874.37,1230.12 1895.17,1254.91 1915.97,1277.66 1936.77,1298.49 1957.57,1317.51 1978.37,1334.81 1999.16,1350.51 2019.96,1364.69 2040.76,1377.43 2061.56,1388.81 
  2082.36,1398.9 2103.16,1407.74 2123.96,1415.39 2144.76,1421.87 2165.56,1427.21 2186.36,1431.42 2207.16,1434.48 2227.96,1436.37 2248.76,1437.05 2269.56,1436.45 
  2290.36,1434.47 
  "/>
<polyline clip-path="url(#clip062)" style="stroke:#e26f46; stroke-width:4; stroke-opacity:1; fill:none" points="
  210.409,1166.36 231.208,1189.54 252.008,1208.93 272.807,1224.88 293.607,1237.71 314.406,1247.68 335.206,1255.06 356.005,1260.04 376.805,1262.81 397.604,1263.52 
  418.404,1262.27 439.203,1259.17 460.003,1254.26 480.802,1247.61 501.602,1239.23 522.401,1229.13 543.201,1217.32 564,1203.76 584.8,1188.43 605.599,1171.29 
  626.399,1152.3 647.198,1131.39 667.997,1108.5 688.797,1083.57 709.596,1056.54 730.396,1027.33 751.195,995.876 771.995,962.132 792.794,926.046 813.594,887.586 
  834.393,846.742 855.193,803.531 875.992,758.008 896.792,710.272 917.591,660.483 938.391,608.875 959.19,555.768 979.99,501.594 1000.79,446.914 1021.59,392.44 
  1042.39,339.061 1063.19,287.862 1083.99,240.139 1104.79,197.406 1125.59,161.384 1146.39,133.959 1167.19,117.109 1187.98,112.783 1208.78,122.726 1229.58,148.257 
  1250.38,190.019 1271.18,247.741 1291.98,320.074 1312.78,404.565 1333.58,497.813 1354.38,595.825 1375.18,694.486 1395.98,790.056 1416.78,879.554 1437.58,960.958 
  1458.38,1033.2 1479.18,1096.04 1499.98,1149.81 1520.78,1195.22 1541.58,1233.17 1562.38,1264.57 1583.17,1290.32 1603.97,1311.22 1624.77,1327.97 1645.57,1341.13 
  1666.37,1351.21 1687.17,1358.58 1707.97,1363.58 1728.77,1366.44 1749.57,1367.37 1770.37,1366.51 1791.17,1363.97 1811.97,1359.82 1832.77,1354.13 1853.57,1346.89 
  1874.37,1338.14 1895.17,1327.84 1915.97,1315.96 1936.77,1302.46 1957.57,1287.27 1978.37,1270.33 1999.16,1251.55 2019.96,1230.82 2040.76,1208.04 2061.56,1183.08 
  2082.36,1155.83 2103.16,1126.15 2123.96,1093.88 2144.76,1058.89 2165.56,1021.01 2186.36,980.085 2207.16,935.972 2227.96,888.521 2248.76,837.598 2269.56,783.09 
  2290.36,724.914 
  "/>
<path clip-path="url(#clip060)" d="
M1805.38 518.578 L2279.26 518.578 L2279.26 95.2176 L1805.38 95.2176  Z
  " fill="#ffffff" fill-rule="evenodd" fill-opacity="1"/>
<polyline clip-path="url(#clip060)" style="stroke:#000000; stroke-width:4; stroke-opacity:1; fill:none" points="
  1805.38,518.578 2279.26,518.578 2279.26,95.2176 1805.38,95.2176 1805.38,518.578 
  "/>
<circle clip-path="url(#clip060)" cx="1903.37" cy="155.698" r="23" fill="#009af9" fill-rule="evenodd" fill-opacity="1" stroke="none"/>
<path clip-path="url(#clip060)" d="M 0 0 M2017.86 136.959 L2017.86 140.501 L2013.79 140.501 Q2011.5 140.501 2010.6 141.427 Q2009.72 142.353 2009.72 144.76 L2009.72 147.052 L2016.73 147.052 L2016.73 150.362 L2009.72 150.362 L2009.72 172.978 L2005.43 172.978 L2005.43 150.362 L2001.36 150.362 L2001.36 147.052 L2005.43 147.052 L2005.43 145.246 Q2005.43 140.918 2007.45 138.95 Q2009.46 136.959 2013.84 136.959 L2017.86 136.959 Z" fill="#000000" fill-rule="evenodd" fill-opacity="1" /><path clip-path="url(#clip060)" d="M 0 0 M2032.38 150.038 Q2028.95 150.038 2026.96 152.723 Q2024.97 155.385 2024.97 160.038 Q2024.97 164.691 2026.94 167.376 Q2028.93 170.038 2032.38 170.038 Q2035.78 170.038 2037.77 167.353 Q2039.76 164.667 2039.76 160.038 Q2039.76 155.431 2037.77 152.746 Q2035.78 150.038 2032.38 150.038 M2032.38 146.427 Q2037.93 146.427 2041.1 150.038 Q2044.28 153.649 2044.28 160.038 Q2044.28 166.404 2041.1 170.038 Q2037.93 173.649 2032.38 173.649 Q2026.8 173.649 2023.63 170.038 Q2020.48 166.404 2020.48 160.038 Q2020.48 153.649 2023.63 150.038 Q2026.8 146.427 2032.38 146.427 Z" fill="#000000" fill-rule="evenodd" fill-opacity="1" /><path clip-path="url(#clip060)" d="M 0 0 M2068.84 147.052 L2059.46 159.667 L2069.32 172.978 L2064.3 172.978 L2056.75 162.792 L2049.21 172.978 L2044.18 172.978 L2054.25 159.413 L2045.04 147.052 L2050.06 147.052 L2056.94 156.288 L2063.81 147.052 L2068.84 147.052 Z" fill="#000000" fill-rule="evenodd" fill-opacity="1" /><path clip-path="url(#clip060)" d="M 0 0 M2105.92 150.987 L2105.92 136.959 L2110.18 136.959 L2110.18 172.978 L2105.92 172.978 L2105.92 169.089 Q2104.58 171.403 2102.52 172.538 Q2100.48 173.649 2097.61 173.649 Q2092.91 173.649 2089.95 169.899 Q2087.01 166.149 2087.01 160.038 Q2087.01 153.927 2089.95 150.177 Q2092.91 146.427 2097.61 146.427 Q2100.48 146.427 2102.52 147.561 Q2104.58 148.672 2105.92 150.987 M2091.41 160.038 Q2091.41 164.737 2093.33 167.422 Q2095.27 170.084 2098.65 170.084 Q2102.03 170.084 2103.97 167.422 Q2105.92 164.737 2105.92 160.038 Q2105.92 155.339 2103.97 152.677 Q2102.03 149.992 2098.65 149.992 Q2095.27 149.992 2093.33 152.677 Q2091.41 155.339 2091.41 160.038 Z" fill="#000000" fill-rule="evenodd" fill-opacity="1" /><path clip-path="url(#clip060)" d="M 0 0 M2126.43 159.945 Q2121.27 159.945 2119.28 161.126 Q2117.28 162.306 2117.28 165.154 Q2117.28 167.422 2118.77 168.765 Q2120.27 170.084 2122.84 170.084 Q2126.38 170.084 2128.51 167.584 Q2130.66 165.061 2130.66 160.894 L2130.66 159.945 L2126.43 159.945 M2134.92 158.186 L2134.92 172.978 L2130.66 172.978 L2130.66 169.042 Q2129.21 171.403 2127.03 172.538 Q2124.85 173.649 2121.71 173.649 Q2117.72 173.649 2115.36 171.427 Q2113.03 169.181 2113.03 165.431 Q2113.03 161.056 2115.94 158.834 Q2118.88 156.612 2124.69 156.612 L2130.66 156.612 L2130.66 156.195 Q2130.66 153.255 2128.72 151.658 Q2126.8 150.038 2123.3 150.038 Q2121.08 150.038 2118.97 150.57 Q2116.87 151.103 2114.92 152.167 L2114.92 148.232 Q2117.26 147.33 2119.46 146.89 Q2121.66 146.427 2123.74 146.427 Q2129.37 146.427 2132.15 149.343 Q2134.92 152.26 2134.92 158.186 Z" fill="#000000" fill-rule="evenodd" fill-opacity="1" /><path clip-path="url(#clip060)" d="M 0 0 M2143.6 139.691 L2143.6 147.052 L2152.38 147.052 L2152.38 150.362 L2143.6 150.362 L2143.6 164.436 Q2143.6 167.607 2144.46 168.51 Q2145.34 169.413 2148 169.413 L2152.38 169.413 L2152.38 172.978 L2148 172.978 Q2143.07 172.978 2141.2 171.149 Q2139.32 169.297 2139.32 164.436 L2139.32 150.362 L2136.2 150.362 L2136.2 147.052 L2139.32 147.052 L2139.32 139.691 L2143.6 139.691 Z" fill="#000000" fill-rule="evenodd" fill-opacity="1" /><path clip-path="url(#clip060)" d="M 0 0 M2168.63 159.945 Q2163.46 159.945 2161.47 161.126 Q2159.48 162.306 2159.48 165.154 Q2159.48 167.422 2160.96 168.765 Q2162.47 170.084 2165.04 170.084 Q2168.58 170.084 2170.71 167.584 Q2172.86 165.061 2172.86 160.894 L2172.86 159.945 L2168.63 159.945 M2177.12 158.186 L2177.12 172.978 L2172.86 172.978 L2172.86 169.042 Q2171.4 171.403 2169.23 172.538 Q2167.05 173.649 2163.9 173.649 Q2159.92 173.649 2157.56 171.427 Q2155.22 169.181 2155.22 165.431 Q2155.22 161.056 2158.14 158.834 Q2161.08 156.612 2166.89 156.612 L2172.86 156.612 L2172.86 156.195 Q2172.86 153.255 2170.92 151.658 Q2169 150.038 2165.5 150.038 Q2163.28 150.038 2161.17 150.57 Q2159.07 151.103 2157.12 152.167 L2157.12 148.232 Q2159.46 147.33 2161.66 146.89 Q2163.86 146.427 2165.94 146.427 Q2171.57 146.427 2174.34 149.343 Q2177.12 152.26 2177.12 158.186 Z" fill="#000000" fill-rule="evenodd" fill-opacity="1" /><circle clip-path="url(#clip060)" cx="1903.37" cy="216.178" r="23" fill="#e26f46" fill-rule="evenodd" fill-opacity="1" stroke="none"/>
<path clip-path="url(#clip060)" d="M 0 0 M2016.54 211.513 Q2015.83 211.097 2014.97 210.911 Q2014.14 210.703 2013.12 210.703 Q2009.51 210.703 2007.56 213.064 Q2005.64 215.402 2005.64 219.8 L2005.64 233.458 L2001.36 233.458 L2001.36 207.532 L2005.64 207.532 L2005.64 211.56 Q2006.98 209.198 2009.14 208.064 Q2011.29 206.907 2014.37 206.907 Q2014.81 206.907 2015.34 206.976 Q2015.87 207.023 2016.52 207.138 L2016.54 211.513 Z" fill="#000000" fill-rule="evenodd" fill-opacity="1" /><path clip-path="url(#clip060)" d="M 0 0 M2032.79 220.425 Q2027.63 220.425 2025.64 221.606 Q2023.65 222.786 2023.65 225.634 Q2023.65 227.902 2025.13 229.245 Q2026.64 230.564 2029.21 230.564 Q2032.75 230.564 2034.88 228.064 Q2037.03 225.541 2037.03 221.374 L2037.03 220.425 L2032.79 220.425 M2041.29 218.666 L2041.29 233.458 L2037.03 233.458 L2037.03 229.522 Q2035.57 231.883 2033.4 233.018 Q2031.22 234.129 2028.07 234.129 Q2024.09 234.129 2021.73 231.907 Q2019.39 229.661 2019.39 225.911 Q2019.39 221.536 2022.31 219.314 Q2025.25 217.092 2031.06 217.092 L2037.03 217.092 L2037.03 216.675 Q2037.03 213.735 2035.09 212.138 Q2033.16 210.518 2029.67 210.518 Q2027.45 210.518 2025.34 211.05 Q2023.23 211.583 2021.29 212.647 L2021.29 208.712 Q2023.63 207.81 2025.83 207.37 Q2028.03 206.907 2030.11 206.907 Q2035.73 206.907 2038.51 209.823 Q2041.29 212.74 2041.29 218.666 Z" fill="#000000" fill-rule="evenodd" fill-opacity="1" /><path clip-path="url(#clip060)" d="M 0 0 M2064.37 220.518 Q2064.37 215.819 2062.42 213.157 Q2060.5 210.472 2057.12 210.472 Q2053.74 210.472 2051.8 213.157 Q2049.88 215.819 2049.88 220.518 Q2049.88 225.217 2051.8 227.902 Q2053.74 230.564 2057.12 230.564 Q2060.5 230.564 2062.42 227.902 Q2064.37 225.217 2064.37 220.518 M2049.88 211.467 Q2051.22 209.152 2053.26 208.041 Q2055.32 206.907 2058.16 206.907 Q2062.89 206.907 2065.83 210.657 Q2068.79 214.407 2068.79 220.518 Q2068.79 226.629 2065.83 230.379 Q2062.89 234.129 2058.16 234.129 Q2055.32 234.129 2053.26 233.018 Q2051.22 231.883 2049.88 229.569 L2049.88 233.458 L2045.6 233.458 L2045.6 197.439 L2049.88 197.439 L2049.88 211.467 Z" fill="#000000" fill-rule="evenodd" fill-opacity="1" /><path clip-path="url(#clip060)" d="M 0 0 M2091.87 220.518 Q2091.87 215.819 2089.92 213.157 Q2088 210.472 2084.62 210.472 Q2081.24 210.472 2079.3 213.157 Q2077.38 215.819 2077.38 220.518 Q2077.38 225.217 2079.3 227.902 Q2081.24 230.564 2084.62 230.564 Q2088 230.564 2089.92 227.902 Q2091.87 225.217 2091.87 220.518 M2077.38 211.467 Q2078.72 209.152 2080.76 208.041 Q2082.82 206.907 2085.66 206.907 Q2090.39 206.907 2093.33 210.657 Q2096.29 214.407 2096.29 220.518 Q2096.29 226.629 2093.33 230.379 Q2090.39 234.129 2085.66 234.129 Q2082.82 234.129 2080.76 233.018 Q2078.72 231.883 2077.38 229.569 L2077.38 233.458 L2073.09 233.458 L2073.09 197.439 L2077.38 197.439 L2077.38 211.467 Z" fill="#000000" fill-rule="evenodd" fill-opacity="1" /><path clip-path="url(#clip060)" d="M 0 0 M2100.76 207.532 L2105.02 207.532 L2105.02 233.458 L2100.76 233.458 L2100.76 207.532 M2100.76 197.439 L2105.02 197.439 L2105.02 202.833 L2100.76 202.833 L2100.76 197.439 Z" fill="#000000" fill-rule="evenodd" fill-opacity="1" /><path clip-path="url(#clip060)" d="M 0 0 M2113.7 200.171 L2113.7 207.532 L2122.47 207.532 L2122.47 210.842 L2113.7 210.842 L2113.7 224.916 Q2113.7 228.087 2114.55 228.99 Q2115.43 229.893 2118.09 229.893 L2122.47 229.893 L2122.47 233.458 L2118.09 233.458 Q2113.16 233.458 2111.29 231.629 Q2109.41 229.777 2109.41 224.916 L2109.41 210.842 L2106.29 210.842 L2106.29 207.532 L2109.41 207.532 L2109.41 200.171 L2113.7 200.171 Z" fill="#000000" fill-rule="evenodd" fill-opacity="1" /><path clip-path="url(#clip060)" d="M 0 0 M2159.07 211.467 L2159.07 197.439 L2163.33 197.439 L2163.33 233.458 L2159.07 233.458 L2159.07 229.569 Q2157.72 231.883 2155.66 233.018 Q2153.63 234.129 2150.76 234.129 Q2146.06 234.129 2143.09 230.379 Q2140.15 226.629 2140.15 220.518 Q2140.15 214.407 2143.09 210.657 Q2146.06 206.907 2150.76 206.907 Q2153.63 206.907 2155.66 208.041 Q2157.72 209.152 2159.07 211.467 M2144.55 220.518 Q2144.55 225.217 2146.47 227.902 Q2148.42 230.564 2151.8 230.564 Q2155.18 230.564 2157.12 227.902 Q2159.07 225.217 2159.07 220.518 Q2159.07 215.819 2157.12 213.157 Q2155.18 210.472 2151.8 210.472 Q2148.42 210.472 2146.47 213.157 Q2144.55 215.819 2144.55 220.518 Z" fill="#000000" fill-rule="evenodd" fill-opacity="1" /><path clip-path="url(#clip060)" d="M 0 0 M2179.58 220.425 Q2174.41 220.425 2172.42 221.606 Q2170.43 222.786 2170.43 225.634 Q2170.43 227.902 2171.91 229.245 Q2173.42 230.564 2175.99 230.564 Q2179.53 230.564 2181.66 228.064 Q2183.81 225.541 2183.81 221.374 L2183.81 220.425 L2179.58 220.425 M2188.07 218.666 L2188.07 233.458 L2183.81 233.458 L2183.81 229.522 Q2182.35 231.883 2180.18 233.018 Q2178 234.129 2174.85 234.129 Q2170.87 234.129 2168.51 231.907 Q2166.17 229.661 2166.17 225.911 Q2166.17 221.536 2169.09 219.314 Q2172.03 217.092 2177.84 217.092 L2183.81 217.092 L2183.81 216.675 Q2183.81 213.735 2181.87 212.138 Q2179.95 210.518 2176.45 210.518 Q2174.23 210.518 2172.12 211.05 Q2170.02 211.583 2168.07 212.647 L2168.07 208.712 Q2170.41 207.81 2172.61 207.37 Q2174.81 206.907 2176.89 206.907 Q2182.52 206.907 2185.29 209.823 Q2188.07 212.74 2188.07 218.666 Z" fill="#000000" fill-rule="evenodd" fill-opacity="1" /><path clip-path="url(#clip060)" d="M 0 0 M2196.75 200.171 L2196.75 207.532 L2205.52 207.532 L2205.52 210.842 L2196.75 210.842 L2196.75 224.916 Q2196.75 228.087 2197.61 228.99 Q2198.49 229.893 2201.15 229.893 L2205.52 229.893 L2205.52 233.458 L2201.15 233.458 Q2196.22 233.458 2194.34 231.629 Q2192.47 229.777 2192.47 224.916 L2192.47 210.842 L2189.34 210.842 L2189.34 207.532 L2192.47 207.532 L2192.47 200.171 L2196.75 200.171 Z" fill="#000000" fill-rule="evenodd" fill-opacity="1" /><path clip-path="url(#clip060)" d="M 0 0 M2221.77 220.425 Q2216.61 220.425 2214.62 221.606 Q2212.63 222.786 2212.63 225.634 Q2212.63 227.902 2214.11 229.245 Q2215.62 230.564 2218.19 230.564 Q2221.73 230.564 2223.86 228.064 Q2226.01 225.541 2226.01 221.374 L2226.01 220.425 L2221.77 220.425 M2230.27 218.666 L2230.27 233.458 L2226.01 233.458 L2226.01 229.522 Q2224.55 231.883 2222.38 233.018 Q2220.2 234.129 2217.05 234.129 Q2213.07 234.129 2210.71 231.907 Q2208.37 229.661 2208.37 225.911 Q2208.37 221.536 2211.29 219.314 Q2214.23 217.092 2220.04 217.092 L2226.01 217.092 L2226.01 216.675 Q2226.01 213.735 2224.07 212.138 Q2222.15 210.518 2218.65 210.518 Q2216.43 210.518 2214.32 211.05 Q2212.21 211.583 2210.27 212.647 L2210.27 208.712 Q2212.61 207.81 2214.81 207.37 Q2217.01 206.907 2219.09 206.907 Q2224.71 206.907 2227.49 209.823 Q2230.27 212.74 2230.27 218.666 Z" fill="#000000" fill-rule="evenodd" fill-opacity="1" /><polyline clip-path="url(#clip060)" style="stroke:#000000; stroke-width:4; stroke-opacity:1; fill:none" stroke-dasharray="2, 4" points="
  1829.88,276.658 1976.86,276.658 
  "/>
<path clip-path="url(#clip060)" d="M 0 0 M2008.77 260.651 L2008.77 268.012 L2017.54 268.012 L2017.54 271.322 L2008.77 271.322 L2008.77 285.396 Q2008.77 288.567 2009.62 289.47 Q2010.5 290.373 2013.16 290.373 L2017.54 290.373 L2017.54 293.938 L2013.16 293.938 Q2008.23 293.938 2006.36 292.109 Q2004.48 290.257 2004.48 285.396 L2004.48 271.322 L2001.36 271.322 L2001.36 268.012 L2004.48 268.012 L2004.48 260.651 L2008.77 260.651 Z" fill="#000000" fill-rule="evenodd" fill-opacity="1" /><path clip-path="url(#clip060)" d="M 0 0 M2037.03 271.993 Q2036.31 271.577 2035.46 271.391 Q2034.62 271.183 2033.6 271.183 Q2029.99 271.183 2028.05 273.544 Q2026.13 275.882 2026.13 280.28 L2026.13 293.938 L2021.85 293.938 L2021.85 268.012 L2026.13 268.012 L2026.13 272.04 Q2027.47 269.678 2029.62 268.544 Q2031.78 267.387 2034.85 267.387 Q2035.29 267.387 2035.83 267.456 Q2036.36 267.503 2037.01 267.618 L2037.03 271.993 Z" fill="#000000" fill-rule="evenodd" fill-opacity="1" /><path clip-path="url(#clip060)" d="M 0 0 M2041.06 283.706 L2041.06 268.012 L2045.32 268.012 L2045.32 283.544 Q2045.32 287.225 2046.75 289.076 Q2048.19 290.905 2051.06 290.905 Q2054.51 290.905 2056.5 288.706 Q2058.51 286.507 2058.51 282.711 L2058.51 268.012 L2062.77 268.012 L2062.77 293.938 L2058.51 293.938 L2058.51 289.956 Q2056.96 292.317 2054.9 293.475 Q2052.86 294.609 2050.16 294.609 Q2045.69 294.609 2043.37 291.831 Q2041.06 289.053 2041.06 283.706 M2051.78 267.387 L2051.78 267.387 Z" fill="#000000" fill-rule="evenodd" fill-opacity="1" /><path clip-path="url(#clip060)" d="M 0 0 M2089.41 279.91 L2089.41 281.993 L2069.83 281.993 Q2070.11 286.391 2072.47 288.706 Q2074.85 290.998 2079.09 290.998 Q2081.54 290.998 2083.84 290.396 Q2086.15 289.794 2088.42 288.59 L2088.42 292.618 Q2086.13 293.59 2083.72 294.1 Q2081.31 294.609 2078.84 294.609 Q2072.63 294.609 2069 290.998 Q2065.39 287.387 2065.39 281.229 Q2065.39 274.864 2068.81 271.137 Q2072.26 267.387 2078.09 267.387 Q2083.33 267.387 2086.36 270.766 Q2089.41 274.123 2089.41 279.91 M2085.16 278.66 Q2085.11 275.165 2083.19 273.081 Q2081.29 270.998 2078.14 270.998 Q2074.58 270.998 2072.42 273.012 Q2070.29 275.026 2069.97 278.683 L2085.16 278.66 Z" fill="#000000" fill-rule="evenodd" fill-opacity="1" /><path clip-path="url(#clip060)" d="M 0 0 M2122.08 257.919 L2122.08 261.461 L2118 261.461 Q2115.71 261.461 2114.81 262.387 Q2113.93 263.313 2113.93 265.72 L2113.93 268.012 L2120.94 268.012 L2120.94 271.322 L2113.93 271.322 L2113.93 293.938 L2109.65 293.938 L2109.65 271.322 L2105.57 271.322 L2105.57 268.012 L2109.65 268.012 L2109.65 266.206 Q2109.65 261.878 2111.66 259.91 Q2113.67 257.919 2118.05 257.919 L2122.08 257.919 Z" fill="#000000" fill-rule="evenodd" fill-opacity="1" /><path clip-path="url(#clip060)" d="M 0 0 M2136.59 270.998 Q2133.16 270.998 2131.17 273.683 Q2129.18 276.345 2129.18 280.998 Q2129.18 285.651 2131.15 288.336 Q2133.14 290.998 2136.59 290.998 Q2139.99 290.998 2141.98 288.313 Q2143.97 285.627 2143.97 280.998 Q2143.97 276.391 2141.98 273.706 Q2139.99 270.998 2136.59 270.998 M2136.59 267.387 Q2142.15 267.387 2145.32 270.998 Q2148.49 274.609 2148.49 280.998 Q2148.49 287.364 2145.32 290.998 Q2142.15 294.609 2136.59 294.609 Q2131.01 294.609 2127.84 290.998 Q2124.69 287.364 2124.69 280.998 Q2124.69 274.609 2127.84 270.998 Q2131.01 267.387 2136.59 267.387 Z" fill="#000000" fill-rule="evenodd" fill-opacity="1" /><path clip-path="url(#clip060)" d="M 0 0 M2173.05 268.012 L2163.67 280.627 L2173.53 293.938 L2168.51 293.938 L2160.96 283.752 L2153.42 293.938 L2148.4 293.938 L2158.46 280.373 L2149.25 268.012 L2154.28 268.012 L2161.15 277.248 L2168.03 268.012 L2173.05 268.012 Z" fill="#000000" fill-rule="evenodd" fill-opacity="1" /><polyline clip-path="url(#clip060)" style="stroke:#000000; stroke-width:4; stroke-opacity:1; fill:none" stroke-dasharray="2, 4" points="
  1829.88,337.138 1976.86,337.138 
  "/>
<path clip-path="url(#clip060)" d="M 0 0 M2008.77 321.131 L2008.77 328.492 L2017.54 328.492 L2017.54 331.802 L2008.77 331.802 L2008.77 345.876 Q2008.77 349.047 2009.62 349.95 Q2010.5 350.853 2013.16 350.853 L2017.54 350.853 L2017.54 354.418 L2013.16 354.418 Q2008.23 354.418 2006.36 352.589 Q2004.48 350.737 2004.48 345.876 L2004.48 331.802 L2001.36 331.802 L2001.36 328.492 L2004.48 328.492 L2004.48 321.131 L2008.77 321.131 Z" fill="#000000" fill-rule="evenodd" fill-opacity="1" /><path clip-path="url(#clip060)" d="M 0 0 M2037.03 332.473 Q2036.31 332.057 2035.46 331.871 Q2034.62 331.663 2033.6 331.663 Q2029.99 331.663 2028.05 334.024 Q2026.13 336.362 2026.13 340.76 L2026.13 354.418 L2021.85 354.418 L2021.85 328.492 L2026.13 328.492 L2026.13 332.52 Q2027.47 330.158 2029.62 329.024 Q2031.78 327.867 2034.85 327.867 Q2035.29 327.867 2035.83 327.936 Q2036.36 327.983 2037.01 328.098 L2037.03 332.473 Z" fill="#000000" fill-rule="evenodd" fill-opacity="1" /><path clip-path="url(#clip060)" d="M 0 0 M2041.06 344.186 L2041.06 328.492 L2045.32 328.492 L2045.32 344.024 Q2045.32 347.705 2046.75 349.556 Q2048.19 351.385 2051.06 351.385 Q2054.51 351.385 2056.5 349.186 Q2058.51 346.987 2058.51 343.191 L2058.51 328.492 L2062.77 328.492 L2062.77 354.418 L2058.51 354.418 L2058.51 350.436 Q2056.96 352.797 2054.9 353.955 Q2052.86 355.089 2050.16 355.089 Q2045.69 355.089 2043.37 352.311 Q2041.06 349.533 2041.06 344.186 M2051.78 327.867 L2051.78 327.867 Z" fill="#000000" fill-rule="evenodd" fill-opacity="1" /><path clip-path="url(#clip060)" d="M 0 0 M2089.41 340.39 L2089.41 342.473 L2069.83 342.473 Q2070.11 346.871 2072.47 349.186 Q2074.85 351.478 2079.09 351.478 Q2081.54 351.478 2083.84 350.876 Q2086.15 350.274 2088.42 349.07 L2088.42 353.098 Q2086.13 354.07 2083.72 354.58 Q2081.31 355.089 2078.84 355.089 Q2072.63 355.089 2069 351.478 Q2065.39 347.867 2065.39 341.709 Q2065.39 335.344 2068.81 331.617 Q2072.26 327.867 2078.09 327.867 Q2083.33 327.867 2086.36 331.246 Q2089.41 334.603 2089.41 340.39 M2085.16 339.14 Q2085.11 335.645 2083.19 333.561 Q2081.29 331.478 2078.14 331.478 Q2074.58 331.478 2072.42 333.492 Q2070.29 335.506 2069.97 339.163 L2085.16 339.14 Z" fill="#000000" fill-rule="evenodd" fill-opacity="1" /><path clip-path="url(#clip060)" d="M 0 0 M2123.97 332.473 Q2123.26 332.057 2122.4 331.871 Q2121.57 331.663 2120.55 331.663 Q2116.94 331.663 2114.99 334.024 Q2113.07 336.362 2113.07 340.76 L2113.07 354.418 L2108.79 354.418 L2108.79 328.492 L2113.07 328.492 L2113.07 332.52 Q2114.41 330.158 2116.57 329.024 Q2118.72 327.867 2121.8 327.867 Q2122.24 327.867 2122.77 327.936 Q2123.3 327.983 2123.95 328.098 L2123.97 332.473 Z" fill="#000000" fill-rule="evenodd" fill-opacity="1" /><path clip-path="url(#clip060)" d="M 0 0 M2140.22 341.385 Q2135.06 341.385 2133.07 342.566 Q2131.08 343.746 2131.08 346.594 Q2131.08 348.862 2132.56 350.205 Q2134.07 351.524 2136.64 351.524 Q2140.18 351.524 2142.31 349.024 Q2144.46 346.501 2144.46 342.334 L2144.46 341.385 L2140.22 341.385 M2148.72 339.626 L2148.72 354.418 L2144.46 354.418 L2144.46 350.482 Q2143 352.843 2140.83 353.978 Q2138.65 355.089 2135.5 355.089 Q2131.52 355.089 2129.16 352.867 Q2126.82 350.621 2126.82 346.871 Q2126.82 342.496 2129.74 340.274 Q2132.68 338.052 2138.49 338.052 L2144.46 338.052 L2144.46 337.635 Q2144.46 334.695 2142.52 333.098 Q2140.59 331.478 2137.1 331.478 Q2134.88 331.478 2132.77 332.01 Q2130.66 332.543 2128.72 333.607 L2128.72 329.672 Q2131.06 328.77 2133.26 328.33 Q2135.46 327.867 2137.54 327.867 Q2143.16 327.867 2145.94 330.783 Q2148.72 333.7 2148.72 339.626 Z" fill="#000000" fill-rule="evenodd" fill-opacity="1" /><path clip-path="url(#clip060)" d="M 0 0 M2171.8 341.478 Q2171.8 336.779 2169.85 334.117 Q2167.93 331.432 2164.55 331.432 Q2161.17 331.432 2159.23 334.117 Q2157.31 336.779 2157.31 341.478 Q2157.31 346.177 2159.23 348.862 Q2161.17 351.524 2164.55 351.524 Q2167.93 351.524 2169.85 348.862 Q2171.8 346.177 2171.8 341.478 M2157.31 332.427 Q2158.65 330.112 2160.69 329.001 Q2162.75 327.867 2165.59 327.867 Q2170.32 327.867 2173.26 331.617 Q2176.22 335.367 2176.22 341.478 Q2176.22 347.589 2173.26 351.339 Q2170.32 355.089 2165.59 355.089 Q2162.75 355.089 2160.69 353.978 Q2158.65 352.843 2157.31 350.529 L2157.31 354.418 L2153.03 354.418 L2153.03 318.399 L2157.31 318.399 L2157.31 332.427 Z" fill="#000000" fill-rule="evenodd" fill-opacity="1" /><path clip-path="url(#clip060)" d="M 0 0 M2199.3 341.478 Q2199.3 336.779 2197.35 334.117 Q2195.43 331.432 2192.05 331.432 Q2188.67 331.432 2186.73 334.117 Q2184.81 336.779 2184.81 341.478 Q2184.81 346.177 2186.73 348.862 Q2188.67 351.524 2192.05 351.524 Q2195.43 351.524 2197.35 348.862 Q2199.3 346.177 2199.3 341.478 M2184.81 332.427 Q2186.15 330.112 2188.19 329.001 Q2190.25 327.867 2193.09 327.867 Q2197.82 327.867 2200.76 331.617 Q2203.72 335.367 2203.72 341.478 Q2203.72 347.589 2200.76 351.339 Q2197.82 355.089 2193.09 355.089 Q2190.25 355.089 2188.19 353.978 Q2186.15 352.843 2184.81 350.529 L2184.81 354.418 L2180.52 354.418 L2180.52 318.399 L2184.81 318.399 L2184.81 332.427 Z" fill="#000000" fill-rule="evenodd" fill-opacity="1" /><path clip-path="url(#clip060)" d="M 0 0 M2208.19 328.492 L2212.45 328.492 L2212.45 354.418 L2208.19 354.418 L2208.19 328.492 M2208.19 318.399 L2212.45 318.399 L2212.45 323.793 L2208.19 323.793 L2208.19 318.399 Z" fill="#000000" fill-rule="evenodd" fill-opacity="1" /><path clip-path="url(#clip060)" d="M 0 0 M2221.13 321.131 L2221.13 328.492 L2229.9 328.492 L2229.9 331.802 L2221.13 331.802 L2221.13 345.876 Q2221.13 349.047 2221.98 349.95 Q2222.86 350.853 2225.52 350.853 L2229.9 350.853 L2229.9 354.418 L2225.52 354.418 Q2220.59 354.418 2218.72 352.589 Q2216.84 350.737 2216.84 345.876 L2216.84 331.802 L2213.72 331.802 L2213.72 328.492 L2216.84 328.492 L2216.84 321.131 L2221.13 321.131 Z" fill="#000000" fill-rule="evenodd" fill-opacity="1" /><polyline clip-path="url(#clip060)" style="stroke:#009af9; stroke-width:4; stroke-opacity:1; fill:none" points="
  1829.88,397.618 1976.86,397.618 
  "/>
<path clip-path="url(#clip060)" d="M 0 0 M2025.39 400.87 L2025.39 402.953 L2005.8 402.953 Q2006.08 407.351 2008.44 409.666 Q2010.83 411.958 2015.06 411.958 Q2017.52 411.958 2019.81 411.356 Q2022.12 410.754 2024.39 409.55 L2024.39 413.578 Q2022.1 414.55 2019.69 415.06 Q2017.29 415.569 2014.81 415.569 Q2008.6 415.569 2004.97 411.958 Q2001.36 408.347 2001.36 402.189 Q2001.36 395.824 2004.79 392.097 Q2008.23 388.347 2014.07 388.347 Q2019.3 388.347 2022.33 391.726 Q2025.39 395.083 2025.39 400.87 M2021.13 399.62 Q2021.08 396.125 2019.16 394.041 Q2017.26 391.958 2014.11 391.958 Q2010.55 391.958 2008.4 393.972 Q2006.27 395.986 2005.94 399.643 L2021.13 399.62 Z" fill="#000000" fill-rule="evenodd" fill-opacity="1" /><path clip-path="url(#clip060)" d="M 0 0 M2046.38 389.736 L2046.38 393.763 Q2044.58 392.837 2042.63 392.375 Q2040.69 391.912 2038.6 391.912 Q2035.43 391.912 2033.84 392.884 Q2032.26 393.856 2032.26 395.8 Q2032.26 397.282 2033.4 398.138 Q2034.53 398.972 2037.96 399.736 L2039.41 400.06 Q2043.95 401.032 2045.85 402.814 Q2047.77 404.574 2047.77 407.745 Q2047.77 411.356 2044.9 413.462 Q2042.05 415.569 2037.05 415.569 Q2034.97 415.569 2032.7 415.152 Q2030.46 414.759 2027.96 413.948 L2027.96 409.55 Q2030.32 410.777 2032.61 411.402 Q2034.9 412.004 2037.15 412.004 Q2040.16 412.004 2041.78 410.986 Q2043.4 409.944 2043.4 408.069 Q2043.4 406.333 2042.22 405.407 Q2041.06 404.481 2037.1 403.624 L2035.62 403.277 Q2031.66 402.444 2029.9 400.731 Q2028.14 398.995 2028.14 395.986 Q2028.14 392.328 2030.73 390.338 Q2033.33 388.347 2038.1 388.347 Q2040.46 388.347 2042.54 388.694 Q2044.62 389.041 2046.38 389.736 Z" fill="#000000" fill-rule="evenodd" fill-opacity="1" /><path clip-path="url(#clip060)" d="M 0 0 M2056.45 381.611 L2056.45 388.972 L2065.22 388.972 L2065.22 392.282 L2056.45 392.282 L2056.45 406.356 Q2056.45 409.527 2057.31 410.43 Q2058.19 411.333 2060.85 411.333 L2065.22 411.333 L2065.22 414.898 L2060.85 414.898 Q2055.92 414.898 2054.04 413.069 Q2052.17 411.217 2052.17 406.356 L2052.17 392.282 L2049.04 392.282 L2049.04 388.972 L2052.17 388.972 L2052.17 381.611 L2056.45 381.611 Z" fill="#000000" fill-rule="evenodd" fill-opacity="1" /><path clip-path="url(#clip060)" d="M 0 0 M2097.89 378.879 L2097.89 382.421 L2093.81 382.421 Q2091.52 382.421 2090.62 383.347 Q2089.74 384.273 2089.74 386.68 L2089.74 388.972 L2096.75 388.972 L2096.75 392.282 L2089.74 392.282 L2089.74 414.898 L2085.46 414.898 L2085.46 392.282 L2081.38 392.282 L2081.38 388.972 L2085.46 388.972 L2085.46 387.166 Q2085.46 382.838 2087.47 380.87 Q2089.48 378.879 2093.86 378.879 L2097.89 378.879 Z" fill="#000000" fill-rule="evenodd" fill-opacity="1" /><path clip-path="url(#clip060)" d="M 0 0 M2112.4 391.958 Q2108.97 391.958 2106.98 394.643 Q2104.99 397.305 2104.99 401.958 Q2104.99 406.611 2106.96 409.296 Q2108.95 411.958 2112.4 411.958 Q2115.8 411.958 2117.79 409.273 Q2119.78 406.587 2119.78 401.958 Q2119.78 397.351 2117.79 394.666 Q2115.8 391.958 2112.4 391.958 M2112.4 388.347 Q2117.96 388.347 2121.13 391.958 Q2124.3 395.569 2124.3 401.958 Q2124.3 408.324 2121.13 411.958 Q2117.96 415.569 2112.4 415.569 Q2106.82 415.569 2103.65 411.958 Q2100.5 408.324 2100.5 401.958 Q2100.5 395.569 2103.65 391.958 Q2106.82 388.347 2112.4 388.347 Z" fill="#000000" fill-rule="evenodd" fill-opacity="1" /><path clip-path="url(#clip060)" d="M 0 0 M2148.86 388.972 L2139.48 401.587 L2149.34 414.898 L2144.32 414.898 L2136.78 404.712 L2129.23 414.898 L2124.21 414.898 L2134.28 401.333 L2125.06 388.972 L2130.09 388.972 L2136.96 398.208 L2143.84 388.972 L2148.86 388.972 Z" fill="#000000" fill-rule="evenodd" fill-opacity="1" /><polyline clip-path="url(#clip060)" style="stroke:#e26f46; stroke-width:4; stroke-opacity:1; fill:none" points="
  1829.88,458.098 1976.86,458.098 
  "/>
<path clip-path="url(#clip060)" d="M 0 0 M2025.39 461.35 L2025.39 463.433 L2005.8 463.433 Q2006.08 467.831 2008.44 470.146 Q2010.83 472.438 2015.06 472.438 Q2017.52 472.438 2019.81 471.836 Q2022.12 471.234 2024.39 470.03 L2024.39 474.058 Q2022.1 475.03 2019.69 475.54 Q2017.29 476.049 2014.81 476.049 Q2008.6 476.049 2004.97 472.438 Q2001.36 468.827 2001.36 462.669 Q2001.36 456.304 2004.79 452.577 Q2008.23 448.827 2014.07 448.827 Q2019.3 448.827 2022.33 452.206 Q2025.39 455.563 2025.39 461.35 M2021.13 460.1 Q2021.08 456.605 2019.16 454.521 Q2017.26 452.438 2014.11 452.438 Q2010.55 452.438 2008.4 454.452 Q2006.27 456.466 2005.94 460.123 L2021.13 460.1 Z" fill="#000000" fill-rule="evenodd" fill-opacity="1" /><path clip-path="url(#clip060)" d="M 0 0 M2046.38 450.216 L2046.38 454.243 Q2044.58 453.317 2042.63 452.855 Q2040.69 452.392 2038.6 452.392 Q2035.43 452.392 2033.84 453.364 Q2032.26 454.336 2032.26 456.28 Q2032.26 457.762 2033.4 458.618 Q2034.53 459.452 2037.96 460.216 L2039.41 460.54 Q2043.95 461.512 2045.85 463.294 Q2047.77 465.054 2047.77 468.225 Q2047.77 471.836 2044.9 473.942 Q2042.05 476.049 2037.05 476.049 Q2034.97 476.049 2032.7 475.632 Q2030.46 475.239 2027.96 474.428 L2027.96 470.03 Q2030.32 471.257 2032.61 471.882 Q2034.9 472.484 2037.15 472.484 Q2040.16 472.484 2041.78 471.466 Q2043.4 470.424 2043.4 468.549 Q2043.4 466.813 2042.22 465.887 Q2041.06 464.961 2037.1 464.104 L2035.62 463.757 Q2031.66 462.924 2029.9 461.211 Q2028.14 459.475 2028.14 456.466 Q2028.14 452.808 2030.73 450.818 Q2033.33 448.827 2038.1 448.827 Q2040.46 448.827 2042.54 449.174 Q2044.62 449.521 2046.38 450.216 Z" fill="#000000" fill-rule="evenodd" fill-opacity="1" /><path clip-path="url(#clip060)" d="M 0 0 M2056.45 442.091 L2056.45 449.452 L2065.22 449.452 L2065.22 452.762 L2056.45 452.762 L2056.45 466.836 Q2056.45 470.007 2057.31 470.91 Q2058.19 471.813 2060.85 471.813 L2065.22 471.813 L2065.22 475.378 L2060.85 475.378 Q2055.92 475.378 2054.04 473.549 Q2052.17 471.697 2052.17 466.836 L2052.17 452.762 L2049.04 452.762 L2049.04 449.452 L2052.17 449.452 L2052.17 442.091 L2056.45 442.091 Z" fill="#000000" fill-rule="evenodd" fill-opacity="1" /><path clip-path="url(#clip060)" d="M 0 0 M2099.78 453.433 Q2099.07 453.017 2098.21 452.831 Q2097.38 452.623 2096.36 452.623 Q2092.75 452.623 2090.8 454.984 Q2088.88 457.322 2088.88 461.72 L2088.88 475.378 L2084.6 475.378 L2084.6 449.452 L2088.88 449.452 L2088.88 453.48 Q2090.22 451.118 2092.38 449.984 Q2094.53 448.827 2097.61 448.827 Q2098.05 448.827 2098.58 448.896 Q2099.11 448.943 2099.76 449.058 L2099.78 453.433 Z" fill="#000000" fill-rule="evenodd" fill-opacity="1" /><path clip-path="url(#clip060)" d="M 0 0 M2116.03 462.345 Q2110.87 462.345 2108.88 463.526 Q2106.89 464.706 2106.89 467.554 Q2106.89 469.822 2108.37 471.165 Q2109.88 472.484 2112.45 472.484 Q2115.99 472.484 2118.12 469.984 Q2120.27 467.461 2120.27 463.294 L2120.27 462.345 L2116.03 462.345 M2124.53 460.586 L2124.53 475.378 L2120.27 475.378 L2120.27 471.442 Q2118.81 473.803 2116.64 474.938 Q2114.46 476.049 2111.31 476.049 Q2107.33 476.049 2104.97 473.827 Q2102.63 471.581 2102.63 467.831 Q2102.63 463.456 2105.55 461.234 Q2108.49 459.012 2114.3 459.012 L2120.27 459.012 L2120.27 458.595 Q2120.27 455.655 2118.33 454.058 Q2116.4 452.438 2112.91 452.438 Q2110.69 452.438 2108.58 452.97 Q2106.47 453.503 2104.53 454.567 L2104.53 450.632 Q2106.87 449.73 2109.07 449.29 Q2111.27 448.827 2113.35 448.827 Q2118.97 448.827 2121.75 451.743 Q2124.53 454.66 2124.53 460.586 Z" fill="#000000" fill-rule="evenodd" fill-opacity="1" /><path clip-path="url(#clip060)" d="M 0 0 M2147.61 462.438 Q2147.61 457.739 2145.66 455.077 Q2143.74 452.392 2140.36 452.392 Q2136.98 452.392 2135.04 455.077 Q2133.12 457.739 2133.12 462.438 Q2133.12 467.137 2135.04 469.822 Q2136.98 472.484 2140.36 472.484 Q2143.74 472.484 2145.66 469.822 Q2147.61 467.137 2147.61 462.438 M2133.12 453.387 Q2134.46 451.072 2136.5 449.961 Q2138.56 448.827 2141.4 448.827 Q2146.13 448.827 2149.07 452.577 Q2152.03 456.327 2152.03 462.438 Q2152.03 468.549 2149.07 472.299 Q2146.13 476.049 2141.4 476.049 Q2138.56 476.049 2136.5 474.938 Q2134.46 473.803 2133.12 471.489 L2133.12 475.378 L2128.84 475.378 L2128.84 439.359 L2133.12 439.359 L2133.12 453.387 Z" fill="#000000" fill-rule="evenodd" fill-opacity="1" /><path clip-path="url(#clip060)" d="M 0 0 M2175.11 462.438 Q2175.11 457.739 2173.16 455.077 Q2171.24 452.392 2167.86 452.392 Q2164.48 452.392 2162.54 455.077 Q2160.62 457.739 2160.62 462.438 Q2160.62 467.137 2162.54 469.822 Q2164.48 472.484 2167.86 472.484 Q2171.24 472.484 2173.16 469.822 Q2175.11 467.137 2175.11 462.438 M2160.62 453.387 Q2161.96 451.072 2164 449.961 Q2166.06 448.827 2168.9 448.827 Q2173.63 448.827 2176.57 452.577 Q2179.53 456.327 2179.53 462.438 Q2179.53 468.549 2176.57 472.299 Q2173.63 476.049 2168.9 476.049 Q2166.06 476.049 2164 474.938 Q2161.96 473.803 2160.62 471.489 L2160.62 475.378 L2156.34 475.378 L2156.34 439.359 L2160.62 439.359 L2160.62 453.387 Z" fill="#000000" fill-rule="evenodd" fill-opacity="1" /><path clip-path="url(#clip060)" d="M 0 0 M2184 449.452 L2188.26 449.452 L2188.26 475.378 L2184 475.378 L2184 449.452 M2184 439.359 L2188.26 439.359 L2188.26 444.753 L2184 444.753 L2184 439.359 Z" fill="#000000" fill-rule="evenodd" fill-opacity="1" /><path clip-path="url(#clip060)" d="M 0 0 M2196.94 442.091 L2196.94 449.452 L2205.71 449.452 L2205.71 452.762 L2196.94 452.762 L2196.94 466.836 Q2196.94 470.007 2197.79 470.91 Q2198.67 471.813 2201.34 471.813 L2205.71 471.813 L2205.71 475.378 L2201.34 475.378 Q2196.4 475.378 2194.53 473.549 Q2192.65 471.697 2192.65 466.836 L2192.65 452.762 L2189.53 452.762 L2189.53 449.452 L2192.65 449.452 L2192.65 442.091 L2196.94 442.091 Z" fill="#000000" fill-rule="evenodd" fill-opacity="1" /></svg>
