<?xml version="1.0" encoding="utf-8"?>
<svg xmlns="http://www.w3.org/2000/svg" xmlns:xlink="http://www.w3.org/1999/xlink" width="600" height="400" viewBox="0 0 2400 1600">
<defs>
  <clipPath id="clip910">
    <rect x="0" y="0" width="2400" height="1600"/>
  </clipPath>
</defs>
<path clip-path="url(#clip910)" d="
M0 1600 L2400 1600 L2400 0 L0 0  Z
  " fill="#ffffff" fill-rule="evenodd" fill-opacity="1"/>
<defs>
  <clipPath id="clip911">
    <rect x="480" y="0" width="1681" height="1600"/>
  </clipPath>
</defs>
<path clip-path="url(#clip910)" d="
M193.218 1486.45 L2352.76 1486.45 L2352.76 47.2441 L193.218 47.2441  Z
  " fill="#ffffff" fill-rule="evenodd" fill-opacity="1"/>
<defs>
  <clipPath id="clip912">
    <rect x="193" y="47" width="2161" height="1440"/>
  </clipPath>
</defs>
<polyline clip-path="url(#clip912)" style="stroke:#000000; stroke-width:2; stroke-opacity:0.1; fill:none" points="
  583.893,1486.45 583.893,47.2441 
  "/>
<polyline clip-path="url(#clip912)" style="stroke:#000000; stroke-width:2; stroke-opacity:0.1; fill:none" points="
  1012.91,1486.45 1012.91,47.2441 
  "/>
<polyline clip-path="url(#clip912)" style="stroke:#000000; stroke-width:2; stroke-opacity:0.1; fill:none" points="
  1441.92,1486.45 1441.92,47.2441 
  "/>
<polyline clip-path="url(#clip912)" style="stroke:#000000; stroke-width:2; stroke-opacity:0.1; fill:none" points="
  1870.93,1486.45 1870.93,47.2441 
  "/>
<polyline clip-path="url(#clip912)" style="stroke:#000000; stroke-width:2; stroke-opacity:0.1; fill:none" points="
  2299.95,1486.45 2299.95,47.2441 
  "/>
<polyline clip-path="url(#clip912)" style="stroke:#000000; stroke-width:2; stroke-opacity:0.1; fill:none" points="
  193.218,1445.72 2352.76,1445.72 
  "/>
<polyline clip-path="url(#clip912)" style="stroke:#000000; stroke-width:2; stroke-opacity:0.1; fill:none" points="
  193.218,1062.82 2352.76,1062.82 
  "/>
<polyline clip-path="url(#clip912)" style="stroke:#000000; stroke-width:2; stroke-opacity:0.1; fill:none" points="
  193.218,679.929 2352.76,679.929 
  "/>
<polyline clip-path="url(#clip912)" style="stroke:#000000; stroke-width:2; stroke-opacity:0.1; fill:none" points="
  193.218,297.036 2352.76,297.036 
  "/>
<polyline clip-path="url(#clip910)" style="stroke:#000000; stroke-width:4; stroke-opacity:1; fill:none" points="
  193.218,1486.45 2352.76,1486.45 
  "/>
<polyline clip-path="url(#clip910)" style="stroke:#000000; stroke-width:4; stroke-opacity:1; fill:none" points="
  193.218,1486.45 193.218,47.2441 
  "/>
<polyline clip-path="url(#clip910)" style="stroke:#000000; stroke-width:4; stroke-opacity:1; fill:none" points="
  583.893,1486.45 583.893,1469.18 
  "/>
<polyline clip-path="url(#clip910)" style="stroke:#000000; stroke-width:4; stroke-opacity:1; fill:none" points="
  1012.91,1486.45 1012.91,1469.18 
  "/>
<polyline clip-path="url(#clip910)" style="stroke:#000000; stroke-width:4; stroke-opacity:1; fill:none" points="
  1441.92,1486.45 1441.92,1469.18 
  "/>
<polyline clip-path="url(#clip910)" style="stroke:#000000; stroke-width:4; stroke-opacity:1; fill:none" points="
  1870.93,1486.45 1870.93,1469.18 
  "/>
<polyline clip-path="url(#clip910)" style="stroke:#000000; stroke-width:4; stroke-opacity:1; fill:none" points="
  2299.95,1486.45 2299.95,1469.18 
  "/>
<polyline clip-path="url(#clip910)" style="stroke:#000000; stroke-width:4; stroke-opacity:1; fill:none" points="
  193.218,1445.72 219.133,1445.72 
  "/>
<polyline clip-path="url(#clip910)" style="stroke:#000000; stroke-width:4; stroke-opacity:1; fill:none" points="
  193.218,1062.82 219.133,1062.82 
  "/>
<polyline clip-path="url(#clip910)" style="stroke:#000000; stroke-width:4; stroke-opacity:1; fill:none" points="
  193.218,679.929 219.133,679.929 
  "/>
<polyline clip-path="url(#clip910)" style="stroke:#000000; stroke-width:4; stroke-opacity:1; fill:none" points="
  193.218,297.036 219.133,297.036 
  "/>
<path clip-path="url(#clip910)" d="M 0 0 M539.715 1508.44 Q536.104 1508.44 534.276 1512 Q532.47 1515.55 532.47 1522.67 Q532.47 1529.78 534.276 1533.35 Q536.104 1536.89 539.715 1536.89 Q543.35 1536.89 545.155 1533.35 Q546.984 1529.78 546.984 1522.67 Q546.984 1515.55 545.155 1512 Q543.35 1508.44 539.715 1508.44 M539.715 1504.73 Q545.526 1504.73 548.581 1509.34 Q551.66 1513.92 551.66 1522.67 Q551.66 1531.4 548.581 1536.01 Q545.526 1540.59 539.715 1540.59 Q533.905 1540.59 530.827 1536.01 Q527.771 1531.4 527.771 1522.67 Q527.771 1513.92 530.827 1509.34 Q533.905 1504.73 539.715 1504.73 Z" fill="#000000" fill-rule="evenodd" fill-opacity="1" /><path clip-path="url(#clip910)" d="M 0 0 M556.729 1534.04 L561.613 1534.04 L561.613 1539.92 L556.729 1539.92 L556.729 1534.04 Z" fill="#000000" fill-rule="evenodd" fill-opacity="1" /><path clip-path="url(#clip910)" d="M 0 0 M567.493 1535.98 L575.132 1535.98 L575.132 1509.62 L566.822 1511.29 L566.822 1507.03 L575.086 1505.36 L579.761 1505.36 L579.761 1535.98 L587.4 1535.98 L587.4 1539.92 L567.493 1539.92 L567.493 1535.98 Z" fill="#000000" fill-rule="evenodd" fill-opacity="1" /><path clip-path="url(#clip910)" d="M 0 0 M593.28 1535.98 L600.919 1535.98 L600.919 1509.62 L592.609 1511.29 L592.609 1507.03 L600.872 1505.36 L605.548 1505.36 L605.548 1535.98 L613.187 1535.98 L613.187 1539.92 L593.28 1539.92 L593.28 1535.98 Z" fill="#000000" fill-rule="evenodd" fill-opacity="1" /><path clip-path="url(#clip910)" d="M 0 0 M618.396 1539.2 L618.396 1534.94 Q620.155 1535.78 621.96 1536.22 Q623.766 1536.66 625.502 1536.66 Q630.132 1536.66 632.562 1533.55 Q635.016 1530.43 635.363 1524.09 Q634.02 1526.08 631.96 1527.14 Q629.9 1528.21 627.4 1528.21 Q622.215 1528.21 619.183 1525.08 Q616.173 1521.93 616.173 1516.49 Q616.173 1511.17 619.321 1507.95 Q622.47 1504.73 627.701 1504.73 Q633.696 1504.73 636.845 1509.34 Q640.016 1513.92 640.016 1522.67 Q640.016 1530.85 636.127 1535.73 Q632.261 1540.59 625.71 1540.59 Q623.951 1540.59 622.146 1540.24 Q620.34 1539.9 618.396 1539.2 M627.701 1524.55 Q630.849 1524.55 632.678 1522.4 Q634.53 1520.24 634.53 1516.49 Q634.53 1512.77 632.678 1510.61 Q630.849 1508.44 627.701 1508.44 Q624.553 1508.44 622.701 1510.61 Q620.872 1512.77 620.872 1516.49 Q620.872 1520.24 622.701 1522.4 Q624.553 1524.55 627.701 1524.55 Z" fill="#000000" fill-rule="evenodd" fill-opacity="1" /><path clip-path="url(#clip910)" d="M 0 0 M968.822 1508.44 Q965.21 1508.44 963.382 1512 Q961.576 1515.55 961.576 1522.67 Q961.576 1529.78 963.382 1533.35 Q965.21 1536.89 968.822 1536.89 Q972.456 1536.89 974.261 1533.35 Q976.09 1529.78 976.09 1522.67 Q976.09 1515.55 974.261 1512 Q972.456 1508.44 968.822 1508.44 M968.822 1504.73 Q974.632 1504.73 977.687 1509.34 Q980.766 1513.92 980.766 1522.67 Q980.766 1531.4 977.687 1536.01 Q974.632 1540.59 968.822 1540.59 Q963.011 1540.59 959.933 1536.01 Q956.877 1531.4 956.877 1522.67 Q956.877 1513.92 959.933 1509.34 Q963.011 1504.73 968.822 1504.73 Z" fill="#000000" fill-rule="evenodd" fill-opacity="1" /><path clip-path="url(#clip910)" d="M 0 0 M985.835 1534.04 L990.72 1534.04 L990.72 1539.92 L985.835 1539.92 L985.835 1534.04 Z" fill="#000000" fill-rule="evenodd" fill-opacity="1" /><path clip-path="url(#clip910)" d="M 0 0 M996.599 1535.98 L1004.24 1535.98 L1004.24 1509.62 L995.928 1511.29 L995.928 1507.03 L1004.19 1505.36 L1008.87 1505.36 L1008.87 1535.98 L1016.51 1535.98 L1016.51 1539.92 L996.599 1539.92 L996.599 1535.98 Z" fill="#000000" fill-rule="evenodd" fill-opacity="1" /><path clip-path="url(#clip910)" d="M 0 0 M1025.6 1535.98 L1041.92 1535.98 L1041.92 1539.92 L1019.98 1539.92 L1019.98 1535.98 Q1022.64 1533.23 1027.22 1528.6 Q1031.83 1523.95 1033.01 1522.61 Q1035.26 1520.08 1036.14 1518.35 Q1037.04 1516.59 1037.04 1514.9 Q1037.04 1512.14 1035.09 1510.41 Q1033.17 1508.67 1030.07 1508.67 Q1027.87 1508.67 1025.42 1509.43 Q1022.99 1510.2 1020.21 1511.75 L1020.21 1507.03 Q1023.03 1505.89 1025.49 1505.31 Q1027.94 1504.73 1029.98 1504.73 Q1035.35 1504.73 1038.54 1507.42 Q1041.74 1510.11 1041.74 1514.6 Q1041.74 1516.73 1040.93 1518.65 Q1040.14 1520.54 1038.03 1523.14 Q1037.46 1523.81 1034.35 1527.03 Q1031.25 1530.22 1025.6 1535.98 Z" fill="#000000" fill-rule="evenodd" fill-opacity="1" /><path clip-path="url(#clip910)" d="M 0 0 M1056.99 1508.44 Q1053.38 1508.44 1051.55 1512 Q1049.75 1515.55 1049.75 1522.67 Q1049.75 1529.78 1051.55 1533.35 Q1053.38 1536.89 1056.99 1536.89 Q1060.63 1536.89 1062.43 1533.35 Q1064.26 1529.78 1064.26 1522.67 Q1064.26 1515.55 1062.43 1512 Q1060.63 1508.44 1056.99 1508.44 M1056.99 1504.73 Q1062.8 1504.73 1065.86 1509.34 Q1068.94 1513.92 1068.94 1522.67 Q1068.94 1531.4 1065.86 1536.01 Q1062.8 1540.59 1056.99 1540.59 Q1051.18 1540.59 1048.1 1536.01 Q1045.05 1531.4 1045.05 1522.67 Q1045.05 1513.92 1048.1 1509.34 Q1051.18 1504.73 1056.99 1504.73 Z" fill="#000000" fill-rule="evenodd" fill-opacity="1" /><path clip-path="url(#clip910)" d="M 0 0 M1398.45 1508.44 Q1394.84 1508.44 1393.01 1512 Q1391.2 1515.55 1391.2 1522.67 Q1391.2 1529.78 1393.01 1533.35 Q1394.84 1536.89 1398.45 1536.89 Q1402.08 1536.89 1403.89 1533.35 Q1405.72 1529.78 1405.72 1522.67 Q1405.72 1515.55 1403.89 1512 Q1402.08 1508.44 1398.45 1508.44 M1398.45 1504.73 Q1404.26 1504.73 1407.31 1509.34 Q1410.39 1513.92 1410.39 1522.67 Q1410.39 1531.4 1407.31 1536.01 Q1404.26 1540.59 1398.45 1540.59 Q1392.64 1540.59 1389.56 1536.01 Q1386.5 1531.4 1386.5 1522.67 Q1386.5 1513.92 1389.56 1509.34 Q1392.64 1504.73 1398.45 1504.73 Z" fill="#000000" fill-rule="evenodd" fill-opacity="1" /><path clip-path="url(#clip910)" d="M 0 0 M1415.46 1534.04 L1420.35 1534.04 L1420.35 1539.92 L1415.46 1539.92 L1415.46 1534.04 Z" fill="#000000" fill-rule="evenodd" fill-opacity="1" /><path clip-path="url(#clip910)" d="M 0 0 M1426.23 1535.98 L1433.86 1535.98 L1433.86 1509.62 L1425.55 1511.29 L1425.55 1507.03 L1433.82 1505.36 L1438.49 1505.36 L1438.49 1535.98 L1446.13 1535.98 L1446.13 1539.92 L1426.23 1539.92 L1426.23 1535.98 Z" fill="#000000" fill-rule="evenodd" fill-opacity="1" /><path clip-path="url(#clip910)" d="M 0 0 M1455.23 1535.98 L1471.55 1535.98 L1471.55 1539.92 L1449.61 1539.92 L1449.61 1535.98 Q1452.27 1533.23 1456.85 1528.6 Q1461.46 1523.95 1462.64 1522.61 Q1464.88 1520.08 1465.76 1518.35 Q1466.67 1516.59 1466.67 1514.9 Q1466.67 1512.14 1464.72 1510.41 Q1462.8 1508.67 1459.7 1508.67 Q1457.5 1508.67 1455.05 1509.43 Q1452.61 1510.2 1449.84 1511.75 L1449.84 1507.03 Q1452.66 1505.89 1455.11 1505.31 Q1457.57 1504.73 1459.61 1504.73 Q1464.98 1504.73 1468.17 1507.42 Q1471.36 1510.11 1471.36 1514.6 Q1471.36 1516.73 1470.55 1518.65 Q1469.77 1520.54 1467.66 1523.14 Q1467.08 1523.81 1463.98 1527.03 Q1460.88 1530.22 1455.23 1535.98 Z" fill="#000000" fill-rule="evenodd" fill-opacity="1" /><path clip-path="url(#clip910)" d="M 0 0 M1477.43 1535.98 L1485.07 1535.98 L1485.07 1509.62 L1476.76 1511.29 L1476.76 1507.03 L1485.02 1505.36 L1489.7 1505.36 L1489.7 1535.98 L1497.34 1535.98 L1497.34 1539.92 L1477.43 1539.92 L1477.43 1535.98 Z" fill="#000000" fill-rule="evenodd" fill-opacity="1" /><path clip-path="url(#clip910)" d="M 0 0 M1827.65 1508.44 Q1824.04 1508.44 1822.21 1512 Q1820.4 1515.55 1820.4 1522.67 Q1820.4 1529.78 1822.21 1533.35 Q1824.04 1536.89 1827.65 1536.89 Q1831.28 1536.89 1833.09 1533.35 Q1834.92 1529.78 1834.92 1522.67 Q1834.92 1515.55 1833.09 1512 Q1831.28 1508.44 1827.65 1508.44 M1827.65 1504.73 Q1833.46 1504.73 1836.51 1509.34 Q1839.59 1513.92 1839.59 1522.67 Q1839.59 1531.4 1836.51 1536.01 Q1833.46 1540.59 1827.65 1540.59 Q1821.84 1540.59 1818.76 1536.01 Q1815.7 1531.4 1815.7 1522.67 Q1815.7 1513.92 1818.76 1509.34 Q1821.84 1504.73 1827.65 1504.73 Z" fill="#000000" fill-rule="evenodd" fill-opacity="1" /><path clip-path="url(#clip910)" d="M 0 0 M1844.66 1534.04 L1849.55 1534.04 L1849.55 1539.92 L1844.66 1539.92 L1844.66 1534.04 Z" fill="#000000" fill-rule="evenodd" fill-opacity="1" /><path clip-path="url(#clip910)" d="M 0 0 M1855.42 1535.98 L1863.06 1535.98 L1863.06 1509.62 L1854.75 1511.29 L1854.75 1507.03 L1863.02 1505.36 L1867.69 1505.36 L1867.69 1535.98 L1875.33 1535.98 L1875.33 1539.92 L1855.42 1539.92 L1855.42 1535.98 Z" fill="#000000" fill-rule="evenodd" fill-opacity="1" /><path clip-path="url(#clip910)" d="M 0 0 M1884.43 1535.98 L1900.75 1535.98 L1900.75 1539.92 L1878.8 1539.92 L1878.8 1535.98 Q1881.47 1533.23 1886.05 1528.6 Q1890.66 1523.95 1891.84 1522.61 Q1894.08 1520.08 1894.96 1518.35 Q1895.86 1516.59 1895.86 1514.9 Q1895.86 1512.14 1893.92 1510.41 Q1892 1508.67 1888.9 1508.67 Q1886.7 1508.67 1884.24 1509.43 Q1881.81 1510.2 1879.04 1511.75 L1879.04 1507.03 Q1881.86 1505.89 1884.31 1505.31 Q1886.77 1504.73 1888.8 1504.73 Q1894.17 1504.73 1897.37 1507.42 Q1900.56 1510.11 1900.56 1514.6 Q1900.56 1516.73 1899.75 1518.65 Q1898.97 1520.54 1896.86 1523.14 Q1896.28 1523.81 1893.18 1527.03 Q1890.08 1530.22 1884.43 1535.98 Z" fill="#000000" fill-rule="evenodd" fill-opacity="1" /><path clip-path="url(#clip910)" d="M 0 0 M1909.85 1535.98 L1926.17 1535.98 L1926.17 1539.92 L1904.22 1539.92 L1904.22 1535.98 Q1906.88 1533.23 1911.47 1528.6 Q1916.07 1523.95 1917.25 1522.61 Q1919.5 1520.08 1920.38 1518.35 Q1921.28 1516.59 1921.28 1514.9 Q1921.28 1512.14 1919.34 1510.41 Q1917.42 1508.67 1914.31 1508.67 Q1912.11 1508.67 1909.66 1509.43 Q1907.23 1510.2 1904.45 1511.75 L1904.45 1507.03 Q1907.28 1505.89 1909.73 1505.31 Q1912.18 1504.73 1914.22 1504.73 Q1919.59 1504.73 1922.79 1507.42 Q1925.98 1510.11 1925.98 1514.6 Q1925.98 1516.73 1925.17 1518.65 Q1924.38 1520.54 1922.28 1523.14 Q1921.7 1523.81 1918.6 1527.03 Q1915.49 1530.22 1909.85 1535.98 Z" fill="#000000" fill-rule="evenodd" fill-opacity="1" /><path clip-path="url(#clip910)" d="M 0 0 M2256.19 1508.44 Q2252.58 1508.44 2250.75 1512 Q2248.94 1515.55 2248.94 1522.67 Q2248.94 1529.78 2250.75 1533.35 Q2252.58 1536.89 2256.19 1536.89 Q2259.82 1536.89 2261.63 1533.35 Q2263.45 1529.78 2263.45 1522.67 Q2263.45 1515.55 2261.63 1512 Q2259.82 1508.44 2256.19 1508.44 M2256.19 1504.73 Q2262 1504.73 2265.05 1509.34 Q2268.13 1513.92 2268.13 1522.67 Q2268.13 1531.4 2265.05 1536.01 Q2262 1540.59 2256.19 1540.59 Q2250.38 1540.59 2247.3 1536.01 Q2244.24 1531.4 2244.24 1522.67 Q2244.24 1513.92 2247.3 1509.34 Q2250.38 1504.73 2256.19 1504.73 Z" fill="#000000" fill-rule="evenodd" fill-opacity="1" /><path clip-path="url(#clip910)" d="M 0 0 M2273.2 1534.04 L2278.08 1534.04 L2278.08 1539.92 L2273.2 1539.92 L2273.2 1534.04 Z" fill="#000000" fill-rule="evenodd" fill-opacity="1" /><path clip-path="url(#clip910)" d="M 0 0 M2283.96 1535.98 L2291.6 1535.98 L2291.6 1509.62 L2283.29 1511.29 L2283.29 1507.03 L2291.56 1505.36 L2296.23 1505.36 L2296.23 1535.98 L2303.87 1535.98 L2303.87 1539.92 L2283.96 1539.92 L2283.96 1535.98 Z" fill="#000000" fill-rule="evenodd" fill-opacity="1" /><path clip-path="url(#clip910)" d="M 0 0 M2312.97 1535.98 L2329.29 1535.98 L2329.29 1539.92 L2307.34 1539.92 L2307.34 1535.98 Q2310.01 1533.23 2314.59 1528.6 Q2319.2 1523.95 2320.38 1522.61 Q2322.62 1520.08 2323.5 1518.35 Q2324.4 1516.59 2324.4 1514.9 Q2324.4 1512.14 2322.46 1510.41 Q2320.54 1508.67 2317.44 1508.67 Q2315.24 1508.67 2312.78 1509.43 Q2310.35 1510.2 2307.57 1511.75 L2307.57 1507.03 Q2310.4 1505.89 2312.85 1505.31 Q2315.31 1504.73 2317.34 1504.73 Q2322.71 1504.73 2325.91 1507.42 Q2329.1 1510.11 2329.1 1514.6 Q2329.1 1516.73 2328.29 1518.65 Q2327.51 1520.54 2325.4 1523.14 Q2324.82 1523.81 2321.72 1527.03 Q2318.62 1530.22 2312.97 1535.98 Z" fill="#000000" fill-rule="evenodd" fill-opacity="1" /><path clip-path="url(#clip910)" d="M 0 0 M2348.52 1521.29 Q2351.88 1522 2353.76 1524.27 Q2355.65 1526.54 2355.65 1529.87 Q2355.65 1534.99 2352.13 1537.79 Q2348.62 1540.59 2342.13 1540.59 Q2339.96 1540.59 2337.64 1540.15 Q2335.35 1539.73 2332.9 1538.88 L2332.9 1534.36 Q2334.84 1535.5 2337.16 1536.08 Q2339.47 1536.66 2342 1536.66 Q2346.39 1536.66 2348.69 1534.92 Q2351 1533.18 2351 1529.87 Q2351 1526.82 2348.85 1525.11 Q2346.72 1523.37 2342.9 1523.37 L2338.87 1523.37 L2338.87 1519.53 L2343.08 1519.53 Q2346.53 1519.53 2348.36 1518.16 Q2350.19 1516.77 2350.19 1514.18 Q2350.19 1511.52 2348.29 1510.11 Q2346.42 1508.67 2342.9 1508.67 Q2340.98 1508.67 2338.78 1509.09 Q2336.58 1509.5 2333.94 1510.38 L2333.94 1506.22 Q2336.6 1505.48 2338.92 1505.11 Q2341.26 1504.73 2343.32 1504.73 Q2348.64 1504.73 2351.74 1507.17 Q2354.84 1509.57 2354.84 1513.69 Q2354.84 1516.56 2353.2 1518.55 Q2351.56 1520.52 2348.52 1521.29 Z" fill="#000000" fill-rule="evenodd" fill-opacity="1" /><path clip-path="url(#clip910)" d="M 0 0 M157.274 1431.51 Q153.663 1431.51 151.834 1435.08 Q150.029 1438.62 150.029 1445.75 Q150.029 1452.86 151.834 1456.42 Q153.663 1459.96 157.274 1459.96 Q160.908 1459.96 162.714 1456.42 Q164.543 1452.86 164.543 1445.75 Q164.543 1438.62 162.714 1435.08 Q160.908 1431.51 157.274 1431.51 M157.274 1427.81 Q163.084 1427.81 166.14 1432.42 Q169.218 1437 169.218 1445.75 Q169.218 1454.48 166.14 1459.08 Q163.084 1463.67 157.274 1463.67 Q151.464 1463.67 148.385 1459.08 Q145.33 1454.48 145.33 1445.75 Q145.33 1437 148.385 1432.42 Q151.464 1427.81 157.274 1427.81 Z" fill="#000000" fill-rule="evenodd" fill-opacity="1" /><path clip-path="url(#clip910)" d="M 0 0 M71.8578 1076.17 L88.1772 1076.17 L88.1772 1080.1 L66.2328 1080.1 L66.2328 1076.17 Q68.8949 1073.41 73.4782 1068.78 Q78.0846 1064.13 79.2652 1062.79 Q81.5105 1060.26 82.3902 1058.53 Q83.2929 1056.77 83.2929 1055.08 Q83.2929 1052.32 81.3485 1050.59 Q79.4272 1048.85 76.3254 1048.85 Q74.1263 1048.85 71.6726 1049.62 Q69.2421 1050.38 66.4643 1051.93 L66.4643 1047.21 Q69.2884 1046.07 71.7421 1045.5 Q74.1958 1044.92 76.2328 1044.92 Q81.6031 1044.92 84.7976 1047.6 Q87.992 1050.29 87.992 1054.78 Q87.992 1056.91 87.1818 1058.83 Q86.3948 1060.73 84.2883 1063.32 Q83.7096 1063.99 80.6078 1067.21 Q77.5059 1070.4 71.8578 1076.17 Z" fill="#000000" fill-rule="evenodd" fill-opacity="1" /><path clip-path="url(#clip910)" d="M 0 0 M103.247 1048.62 Q99.6354 1048.62 97.8068 1052.19 Q96.0012 1055.73 96.0012 1062.86 Q96.0012 1069.96 97.8068 1073.53 Q99.6354 1077.07 103.247 1077.07 Q106.881 1077.07 108.686 1073.53 Q110.515 1069.96 110.515 1062.86 Q110.515 1055.73 108.686 1052.19 Q106.881 1048.62 103.247 1048.62 M103.247 1044.92 Q109.057 1044.92 112.112 1049.52 Q115.191 1054.11 115.191 1062.86 Q115.191 1071.58 112.112 1076.19 Q109.057 1080.77 103.247 1080.77 Q97.4364 1080.77 94.3577 1076.19 Q91.3022 1071.58 91.3022 1062.86 Q91.3022 1054.11 94.3577 1049.52 Q97.4364 1044.92 103.247 1044.92 Z" fill="#000000" fill-rule="evenodd" fill-opacity="1" /><path clip-path="url(#clip910)" d="M 0 0 M130.26 1048.62 Q126.649 1048.62 124.82 1052.19 Q123.015 1055.73 123.015 1062.86 Q123.015 1069.96 124.82 1073.53 Q126.649 1077.07 130.26 1077.07 Q133.895 1077.07 135.7 1073.53 Q137.529 1069.96 137.529 1062.86 Q137.529 1055.73 135.7 1052.19 Q133.895 1048.62 130.26 1048.62 M130.26 1044.92 Q136.07 1044.92 139.126 1049.52 Q142.205 1054.11 142.205 1062.86 Q142.205 1071.58 139.126 1076.19 Q136.07 1080.77 130.26 1080.77 Q124.45 1080.77 121.371 1076.19 Q118.316 1071.58 118.316 1062.86 Q118.316 1054.11 121.371 1049.52 Q124.45 1044.92 130.26 1044.92 Z" fill="#000000" fill-rule="evenodd" fill-opacity="1" /><path clip-path="url(#clip910)" d="M 0 0 M157.274 1048.62 Q153.663 1048.62 151.834 1052.19 Q150.029 1055.73 150.029 1062.86 Q150.029 1069.96 151.834 1073.53 Q153.663 1077.07 157.274 1077.07 Q160.908 1077.07 162.714 1073.53 Q164.543 1069.96 164.543 1062.86 Q164.543 1055.73 162.714 1052.19 Q160.908 1048.62 157.274 1048.62 M157.274 1044.92 Q163.084 1044.92 166.14 1049.52 Q169.218 1054.11 169.218 1062.86 Q169.218 1071.58 166.14 1076.19 Q163.084 1080.77 157.274 1080.77 Q151.464 1080.77 148.385 1076.19 Q145.33 1071.58 145.33 1062.86 Q145.33 1054.11 148.385 1049.52 Q151.464 1044.92 157.274 1044.92 Z" fill="#000000" fill-rule="evenodd" fill-opacity="1" /><path clip-path="url(#clip910)" d="M 0 0 M78.5939 666.723 L66.7884 685.172 L78.5939 685.172 L78.5939 666.723 M77.367 662.649 L83.2466 662.649 L83.2466 685.172 L88.1772 685.172 L88.1772 689.061 L83.2466 689.061 L83.2466 697.209 L78.5939 697.209 L78.5939 689.061 L62.9921 689.061 L62.9921 684.547 L77.367 662.649 Z" fill="#000000" fill-rule="evenodd" fill-opacity="1" /><path clip-path="url(#clip910)" d="M 0 0 M103.247 665.728 Q99.6354 665.728 97.8068 669.293 Q96.0012 672.834 96.0012 679.964 Q96.0012 687.07 97.8068 690.635 Q99.6354 694.177 103.247 694.177 Q106.881 694.177 108.686 690.635 Q110.515 687.07 110.515 679.964 Q110.515 672.834 108.686 669.293 Q106.881 665.728 103.247 665.728 M103.247 662.024 Q109.057 662.024 112.112 666.631 Q115.191 671.214 115.191 679.964 Q115.191 688.691 112.112 693.297 Q109.057 697.881 103.247 697.881 Q97.4364 697.881 94.3577 693.297 Q91.3022 688.691 91.3022 679.964 Q91.3022 671.214 94.3577 666.631 Q97.4364 662.024 103.247 662.024 Z" fill="#000000" fill-rule="evenodd" fill-opacity="1" /><path clip-path="url(#clip910)" d="M 0 0 M130.26 665.728 Q126.649 665.728 124.82 669.293 Q123.015 672.834 123.015 679.964 Q123.015 687.07 124.82 690.635 Q126.649 694.177 130.26 694.177 Q133.895 694.177 135.7 690.635 Q137.529 687.07 137.529 679.964 Q137.529 672.834 135.7 669.293 Q133.895 665.728 130.26 665.728 M130.26 662.024 Q136.07 662.024 139.126 666.631 Q142.205 671.214 142.205 679.964 Q142.205 688.691 139.126 693.297 Q136.07 697.881 130.26 697.881 Q124.45 697.881 121.371 693.297 Q118.316 688.691 118.316 679.964 Q118.316 671.214 121.371 666.631 Q124.45 662.024 130.26 662.024 Z" fill="#000000" fill-rule="evenodd" fill-opacity="1" /><path clip-path="url(#clip910)" d="M 0 0 M157.274 665.728 Q153.663 665.728 151.834 669.293 Q150.029 672.834 150.029 679.964 Q150.029 687.07 151.834 690.635 Q153.663 694.177 157.274 694.177 Q160.908 694.177 162.714 690.635 Q164.543 687.07 164.543 679.964 Q164.543 672.834 162.714 669.293 Q160.908 665.728 157.274 665.728 M157.274 662.024 Q163.084 662.024 166.14 666.631 Q169.218 671.214 169.218 679.964 Q169.218 688.691 166.14 693.297 Q163.084 697.881 157.274 697.881 Q151.464 697.881 148.385 693.297 Q145.33 688.691 145.33 679.964 Q145.33 671.214 148.385 666.631 Q151.464 662.024 157.274 662.024 Z" fill="#000000" fill-rule="evenodd" fill-opacity="1" /><path clip-path="url(#clip910)" d="M 0 0 M76.6495 295.173 Q73.5013 295.173 71.6495 297.325 Q69.8208 299.478 69.8208 303.228 Q69.8208 306.955 71.6495 309.131 Q73.5013 311.284 76.6495 311.284 Q79.7976 311.284 81.6263 309.131 Q83.4781 306.955 83.4781 303.228 Q83.4781 299.478 81.6263 297.325 Q79.7976 295.173 76.6495 295.173 M85.9318 280.52 L85.9318 284.779 Q84.1726 283.946 82.367 283.506 Q80.5846 283.066 78.8254 283.066 Q74.1958 283.066 71.7421 286.191 Q69.3115 289.316 68.9643 295.636 Q70.33 293.622 72.3902 292.557 Q74.4504 291.469 76.9272 291.469 Q82.1355 291.469 85.1448 294.64 Q88.1772 297.788 88.1772 303.228 Q88.1772 308.552 85.029 311.77 Q81.8809 314.987 76.6495 314.987 Q70.6541 314.987 67.4828 310.404 Q64.3116 305.798 64.3116 297.071 Q64.3116 288.876 68.2004 284.015 Q72.0893 279.131 78.6402 279.131 Q80.3994 279.131 82.1818 279.478 Q83.9874 279.825 85.9318 280.52 Z" fill="#000000" fill-rule="evenodd" fill-opacity="1" /><path clip-path="url(#clip910)" d="M 0 0 M103.247 282.835 Q99.6354 282.835 97.8068 286.399 Q96.0012 289.941 96.0012 297.071 Q96.0012 304.177 97.8068 307.742 Q99.6354 311.284 103.247 311.284 Q106.881 311.284 108.686 307.742 Q110.515 304.177 110.515 297.071 Q110.515 289.941 108.686 286.399 Q106.881 282.835 103.247 282.835 M103.247 279.131 Q109.057 279.131 112.112 283.737 Q115.191 288.321 115.191 297.071 Q115.191 305.798 112.112 310.404 Q109.057 314.987 103.247 314.987 Q97.4364 314.987 94.3577 310.404 Q91.3022 305.798 91.3022 297.071 Q91.3022 288.321 94.3577 283.737 Q97.4364 279.131 103.247 279.131 Z" fill="#000000" fill-rule="evenodd" fill-opacity="1" /><path clip-path="url(#clip910)" d="M 0 0 M130.26 282.835 Q126.649 282.835 124.82 286.399 Q123.015 289.941 123.015 297.071 Q123.015 304.177 124.82 307.742 Q126.649 311.284 130.26 311.284 Q133.895 311.284 135.7 307.742 Q137.529 304.177 137.529 297.071 Q137.529 289.941 135.7 286.399 Q133.895 282.835 130.26 282.835 M130.26 279.131 Q136.07 279.131 139.126 283.737 Q142.205 288.321 142.205 297.071 Q142.205 305.798 139.126 310.404 Q136.07 314.987 130.26 314.987 Q124.45 314.987 121.371 310.404 Q118.316 305.798 118.316 297.071 Q118.316 288.321 121.371 283.737 Q124.45 279.131 130.26 279.131 Z" fill="#000000" fill-rule="evenodd" fill-opacity="1" /><path clip-path="url(#clip910)" d="M 0 0 M157.274 282.835 Q153.663 282.835 151.834 286.399 Q150.029 289.941 150.029 297.071 Q150.029 304.177 151.834 307.742 Q153.663 311.284 157.274 311.284 Q160.908 311.284 162.714 307.742 Q164.543 304.177 164.543 297.071 Q164.543 289.941 162.714 286.399 Q160.908 282.835 157.274 282.835 M157.274 279.131 Q163.084 279.131 166.14 283.737 Q169.218 288.321 169.218 297.071 Q169.218 305.798 166.14 310.404 Q163.084 314.987 157.274 314.987 Q151.464 314.987 148.385 310.404 Q145.33 305.798 145.33 297.071 Q145.33 288.321 148.385 283.737 Q151.464 279.131 157.274 279.131 Z" fill="#000000" fill-rule="evenodd" fill-opacity="1" /><path clip-path="url(#clip912)" d="
M311.997 1444.95 L311.997 1445.72 L346.318 1445.72 L346.318 1444.95 L311.997 1444.95 L311.997 1444.95  Z
  " fill="#808080" fill-rule="evenodd" fill-opacity="1"/>
<polyline clip-path="url(#clip912)" style="stroke:#000000; stroke-width:4; stroke-opacity:1; fill:none" points="
  311.997,1444.95 311.997,1445.72 346.318,1445.72 346.318,1444.95 311.997,1444.95 
  "/>
<path clip-path="url(#clip912)" d="
M354.898 1445.52 L354.898 1445.72 L389.219 1445.72 L389.219 1445.52 L354.898 1445.52 L354.898 1445.52  Z
  " fill="#808080" fill-rule="evenodd" fill-opacity="1"/>
<polyline clip-path="url(#clip912)" style="stroke:#000000; stroke-width:4; stroke-opacity:1; fill:none" points="
  354.898,1445.52 354.898,1445.72 389.219,1445.72 389.219,1445.52 354.898,1445.52 
  "/>
<path clip-path="url(#clip912)" d="
M397.8 1442.46 L397.8 1445.72 L432.121 1445.72 L432.121 1442.46 L397.8 1442.46 L397.8 1442.46  Z
  " fill="#808080" fill-rule="evenodd" fill-opacity="1"/>
<polyline clip-path="url(#clip912)" style="stroke:#000000; stroke-width:4; stroke-opacity:1; fill:none" points="
  397.8,1442.46 397.8,1445.72 432.121,1445.72 432.121,1442.46 397.8,1442.46 
  "/>
<path clip-path="url(#clip912)" d="
M440.701 1440.93 L440.701 1445.72 L475.022 1445.72 L475.022 1440.93 L440.701 1440.93 L440.701 1440.93  Z
  " fill="#808080" fill-rule="evenodd" fill-opacity="1"/>
<polyline clip-path="url(#clip912)" style="stroke:#000000; stroke-width:4; stroke-opacity:1; fill:none" points="
  440.701,1440.93 440.701,1445.72 475.022,1445.72 475.022,1440.93 440.701,1440.93 
  "/>
<path clip-path="url(#clip912)" d="
M483.602 1434.04 L483.602 1445.72 L517.923 1445.72 L517.923 1434.04 L483.602 1434.04 L483.602 1434.04  Z
  " fill="#808080" fill-rule="evenodd" fill-opacity="1"/>
<polyline clip-path="url(#clip912)" style="stroke:#000000; stroke-width:4; stroke-opacity:1; fill:none" points="
  483.602,1434.04 483.602,1445.72 517.923,1445.72 517.923,1434.04 483.602,1434.04 
  "/>
<path clip-path="url(#clip912)" d="
M526.504 1430.02 L526.504 1445.72 L560.825 1445.72 L560.825 1430.02 L526.504 1430.02 L526.504 1430.02  Z
  " fill="#808080" fill-rule="evenodd" fill-opacity="1"/>
<polyline clip-path="url(#clip912)" style="stroke:#000000; stroke-width:4; stroke-opacity:1; fill:none" points="
  526.504,1430.02 526.504,1445.72 560.825,1445.72 560.825,1430.02 526.504,1430.02 
  "/>
<path clip-path="url(#clip912)" d="
M569.405 1424.85 L569.405 1445.72 L603.726 1445.72 L603.726 1424.85 L569.405 1424.85 L569.405 1424.85  Z
  " fill="#808080" fill-rule="evenodd" fill-opacity="1"/>
<polyline clip-path="url(#clip912)" style="stroke:#000000; stroke-width:4; stroke-opacity:1; fill:none" points="
  569.405,1424.85 569.405,1445.72 603.726,1445.72 603.726,1424.85 569.405,1424.85 
  "/>
<path clip-path="url(#clip912)" d="
M612.306 1412.4 L612.306 1445.72 L646.627 1445.72 L646.627 1412.4 L612.306 1412.4 L612.306 1412.4  Z
  " fill="#808080" fill-rule="evenodd" fill-opacity="1"/>
<polyline clip-path="url(#clip912)" style="stroke:#000000; stroke-width:4; stroke-opacity:1; fill:none" points="
  612.306,1412.4 612.306,1445.72 646.627,1445.72 646.627,1412.4 612.306,1412.4 
  "/>
<path clip-path="url(#clip912)" d="
M655.208 1394.41 L655.208 1445.72 L689.529 1445.72 L689.529 1394.41 L655.208 1394.41 L655.208 1394.41  Z
  " fill="#808080" fill-rule="evenodd" fill-opacity="1"/>
<polyline clip-path="url(#clip912)" style="stroke:#000000; stroke-width:4; stroke-opacity:1; fill:none" points="
  655.208,1394.41 655.208,1445.72 689.529,1445.72 689.529,1394.41 655.208,1394.41 
  "/>
<path clip-path="url(#clip912)" d="
M698.109 1349.04 L698.109 1445.72 L732.43 1445.72 L732.43 1349.04 L698.109 1349.04 L698.109 1349.04  Z
  " fill="#808080" fill-rule="evenodd" fill-opacity="1"/>
<polyline clip-path="url(#clip912)" style="stroke:#000000; stroke-width:4; stroke-opacity:1; fill:none" points="
  698.109,1349.04 698.109,1445.72 732.43,1445.72 732.43,1349.04 698.109,1349.04 
  "/>
<path clip-path="url(#clip912)" d="
M741.01 1302.51 L741.01 1445.72 L775.331 1445.72 L775.331 1302.51 L741.01 1302.51 L741.01 1302.51  Z
  " fill="#808080" fill-rule="evenodd" fill-opacity="1"/>
<polyline clip-path="url(#clip912)" style="stroke:#000000; stroke-width:4; stroke-opacity:1; fill:none" points="
  741.01,1302.51 741.01,1445.72 775.331,1445.72 775.331,1302.51 741.01,1302.51 
  "/>
<path clip-path="url(#clip912)" d="
M783.912 1258.1 L783.912 1445.72 L818.233 1445.72 L818.233 1258.1 L783.912 1258.1 L783.912 1258.1  Z
  " fill="#009af9" fill-rule="evenodd" fill-opacity="1"/>
<polyline clip-path="url(#clip912)" style="stroke:#000000; stroke-width:4; stroke-opacity:1; fill:none" points="
  783.912,1258.1 783.912,1445.72 818.233,1445.72 818.233,1258.1 783.912,1258.1 
  "/>
<path clip-path="url(#clip912)" d="
M826.813 1169.46 L826.813 1445.72 L861.134 1445.72 L861.134 1169.46 L826.813 1169.46 L826.813 1169.46  Z
  " fill="#009af9" fill-rule="evenodd" fill-opacity="1"/>
<polyline clip-path="url(#clip912)" style="stroke:#000000; stroke-width:4; stroke-opacity:1; fill:none" points="
  826.813,1169.46 826.813,1445.72 861.134,1445.72 861.134,1169.46 826.813,1169.46 
  "/>
<path clip-path="url(#clip912)" d="
M869.714 1085.22 L869.714 1445.72 L904.036 1445.72 L904.036 1085.22 L869.714 1085.22 L869.714 1085.22  Z
  " fill="#009af9" fill-rule="evenodd" fill-opacity="1"/>
<polyline clip-path="url(#clip912)" style="stroke:#000000; stroke-width:4; stroke-opacity:1; fill:none" points="
  869.714,1085.22 869.714,1445.72 904.036,1445.72 904.036,1085.22 869.714,1085.22 
  "/>
<path clip-path="url(#clip912)" d="
M912.616 954.655 L912.616 1445.72 L946.937 1445.72 L946.937 954.655 L912.616 954.655 L912.616 954.655  Z
  " fill="#009af9" fill-rule="evenodd" fill-opacity="1"/>
<polyline clip-path="url(#clip912)" style="stroke:#000000; stroke-width:4; stroke-opacity:1; fill:none" points="
  912.616,954.655 912.616,1445.72 946.937,1445.72 946.937,954.655 912.616,954.655 
  "/>
<path clip-path="url(#clip912)" d="
M955.517 865.058 L955.517 1445.72 L989.838 1445.72 L989.838 865.058 L955.517 865.058 L955.517 865.058  Z
  " fill="#009af9" fill-rule="evenodd" fill-opacity="1"/>
<polyline clip-path="url(#clip912)" style="stroke:#000000; stroke-width:4; stroke-opacity:1; fill:none" points="
  955.517,865.058 955.517,1445.72 989.838,1445.72 989.838,865.058 955.517,865.058 
  "/>
<path clip-path="url(#clip912)" d="
M998.418 747.51 L998.418 1445.72 L1032.74 1445.72 L1032.74 747.51 L998.418 747.51 L998.418 747.51  Z
  " fill="#009af9" fill-rule="evenodd" fill-opacity="1"/>
<polyline clip-path="url(#clip912)" style="stroke:#000000; stroke-width:4; stroke-opacity:1; fill:none" points="
  998.418,747.51 998.418,1445.72 1032.74,1445.72 1032.74,747.51 998.418,747.51 
  "/>
<path clip-path="url(#clip912)" d="
M1041.32 537.684 L1041.32 1445.72 L1075.64 1445.72 L1075.64 537.684 L1041.32 537.684 L1041.32 537.684  Z
  " fill="#009af9" fill-rule="evenodd" fill-opacity="1"/>
<polyline clip-path="url(#clip912)" style="stroke:#000000; stroke-width:4; stroke-opacity:1; fill:none" points="
  1041.32,537.684 1041.32,1445.72 1075.64,1445.72 1075.64,537.684 1041.32,537.684 
  "/>
<path clip-path="url(#clip912)" d="
M1084.22 425.88 L1084.22 1445.72 L1118.54 1445.72 L1118.54 425.88 L1084.22 425.88 L1084.22 425.88  Z
  " fill="#009af9" fill-rule="evenodd" fill-opacity="1"/>
<polyline clip-path="url(#clip912)" style="stroke:#000000; stroke-width:4; stroke-opacity:1; fill:none" points="
  1084.22,425.88 1084.22,1445.72 1118.54,1445.72 1118.54,425.88 1084.22,425.88 
  "/>
<path clip-path="url(#clip912)" d="
M1127.12 312.543 L1127.12 1445.72 L1161.44 1445.72 L1161.44 312.543 L1127.12 312.543 L1127.12 312.543  Z
  " fill="#009af9" fill-rule="evenodd" fill-opacity="1"/>
<polyline clip-path="url(#clip912)" style="stroke:#000000; stroke-width:4; stroke-opacity:1; fill:none" points="
  1127.12,312.543 1127.12,1445.72 1161.44,1445.72 1161.44,312.543 1127.12,312.543 
  "/>
<path clip-path="url(#clip912)" d="
M1170.02 154.217 L1170.02 1445.72 L1204.34 1445.72 L1204.34 154.217 L1170.02 154.217 L1170.02 154.217  Z
  " fill="#009af9" fill-rule="evenodd" fill-opacity="1"/>
<polyline clip-path="url(#clip912)" style="stroke:#000000; stroke-width:4; stroke-opacity:1; fill:none" points="
  1170.02,154.217 1170.02,1445.72 1204.34,1445.72 1204.34,154.217 1170.02,154.217 
  "/>
<path clip-path="url(#clip912)" d="
M1212.93 107.504 L1212.93 1445.72 L1247.25 1445.72 L1247.25 107.504 L1212.93 107.504 L1212.93 107.504  Z
  " fill="#009af9" fill-rule="evenodd" fill-opacity="1"/>
<polyline clip-path="url(#clip912)" style="stroke:#000000; stroke-width:4; stroke-opacity:1; fill:none" points="
  1212.93,107.504 1212.93,1445.72 1247.25,1445.72 1247.25,107.504 1212.93,107.504 
  "/>
<path clip-path="url(#clip912)" d="
M1255.83 87.9763 L1255.83 1445.72 L1290.15 1445.72 L1290.15 87.9763 L1255.83 87.9763 L1255.83 87.9763  Z
  " fill="#e26f46" fill-rule="evenodd" fill-opacity="1"/>
<polyline clip-path="url(#clip912)" style="stroke:#000000; stroke-width:4; stroke-opacity:1; fill:none" points="
  1255.83,87.9763 1255.83,1445.72 1290.15,1445.72 1290.15,87.9763 1255.83,87.9763 
  "/>
<path clip-path="url(#clip912)" d="
M1298.73 189.06 L1298.73 1445.72 L1333.05 1445.72 L1333.05 189.06 L1298.73 189.06 L1298.73 189.06  Z
  " fill="#009af9" fill-rule="evenodd" fill-opacity="1"/>
<polyline clip-path="url(#clip912)" style="stroke:#000000; stroke-width:4; stroke-opacity:1; fill:none" points="
  1298.73,189.06 1298.73,1445.72 1333.05,1445.72 1333.05,189.06 1298.73,189.06 
  "/>
<path clip-path="url(#clip912)" d="
M1341.63 151.919 L1341.63 1445.72 L1375.95 1445.72 L1375.95 151.919 L1341.63 151.919 L1341.63 151.919  Z
  " fill="#009af9" fill-rule="evenodd" fill-opacity="1"/>
<polyline clip-path="url(#clip912)" style="stroke:#000000; stroke-width:4; stroke-opacity:1; fill:none" points="
  1341.63,151.919 1341.63,1445.72 1375.95,1445.72 1375.95,151.919 1341.63,151.919 
  "/>
<path clip-path="url(#clip912)" d="
M1384.53 289.761 L1384.53 1445.72 L1418.85 1445.72 L1418.85 289.761 L1384.53 289.761 L1384.53 289.761  Z
  " fill="#009af9" fill-rule="evenodd" fill-opacity="1"/>
<polyline clip-path="url(#clip912)" style="stroke:#000000; stroke-width:4; stroke-opacity:1; fill:none" points="
  1384.53,289.761 1384.53,1445.72 1418.85,1445.72 1418.85,289.761 1384.53,289.761 
  "/>
<path clip-path="url(#clip912)" d="
M1427.43 333.411 L1427.43 1445.72 L1461.75 1445.72 L1461.75 333.411 L1427.43 333.411 L1427.43 333.411  Z
  " fill="#009af9" fill-rule="evenodd" fill-opacity="1"/>
<polyline clip-path="url(#clip912)" style="stroke:#000000; stroke-width:4; stroke-opacity:1; fill:none" points="
  1427.43,333.411 1427.43,1445.72 1461.75,1445.72 1461.75,333.411 1427.43,333.411 
  "/>
<path clip-path="url(#clip912)" d="
M1470.33 557.978 L1470.33 1445.72 L1504.65 1445.72 L1504.65 557.978 L1470.33 557.978 L1470.33 557.978  Z
  " fill="#009af9" fill-rule="evenodd" fill-opacity="1"/>
<polyline clip-path="url(#clip912)" style="stroke:#000000; stroke-width:4; stroke-opacity:1; fill:none" points="
  1470.33,557.978 1470.33,1445.72 1504.65,1445.72 1504.65,557.978 1470.33,557.978 
  "/>
<path clip-path="url(#clip912)" d="
M1513.23 687.013 L1513.23 1445.72 L1547.56 1445.72 L1547.56 687.013 L1513.23 687.013 L1513.23 687.013  Z
  " fill="#009af9" fill-rule="evenodd" fill-opacity="1"/>
<polyline clip-path="url(#clip912)" style="stroke:#000000; stroke-width:4; stroke-opacity:1; fill:none" points="
  1513.23,687.013 1513.23,1445.72 1547.56,1445.72 1547.56,687.013 1513.23,687.013 
  "/>
<path clip-path="url(#clip912)" d="
M1556.14 818.728 L1556.14 1445.72 L1590.46 1445.72 L1590.46 818.728 L1556.14 818.728 L1556.14 818.728  Z
  " fill="#009af9" fill-rule="evenodd" fill-opacity="1"/>
<polyline clip-path="url(#clip912)" style="stroke:#000000; stroke-width:4; stroke-opacity:1; fill:none" points="
  1556.14,818.728 1556.14,1445.72 1590.46,1445.72 1590.46,818.728 1556.14,818.728 
  "/>
<path clip-path="url(#clip912)" d="
M1599.04 915.026 L1599.04 1445.72 L1633.36 1445.72 L1633.36 915.026 L1599.04 915.026 L1599.04 915.026  Z
  " fill="#009af9" fill-rule="evenodd" fill-opacity="1"/>
<polyline clip-path="url(#clip912)" style="stroke:#000000; stroke-width:4; stroke-opacity:1; fill:none" points="
  1599.04,915.026 1599.04,1445.72 1633.36,1445.72 1633.36,915.026 1599.04,915.026 
  "/>
<path clip-path="url(#clip912)" d="
M1641.94 1053.25 L1641.94 1445.72 L1676.26 1445.72 L1676.26 1053.25 L1641.94 1053.25 L1641.94 1053.25  Z
  " fill="#009af9" fill-rule="evenodd" fill-opacity="1"/>
<polyline clip-path="url(#clip912)" style="stroke:#000000; stroke-width:4; stroke-opacity:1; fill:none" points="
  1641.94,1053.25 1641.94,1445.72 1676.26,1445.72 1676.26,1053.25 1641.94,1053.25 
  "/>
<path clip-path="url(#clip912)" d="
M1684.84 1185.54 L1684.84 1445.72 L1719.16 1445.72 L1719.16 1185.54 L1684.84 1185.54 L1684.84 1185.54  Z
  " fill="#009af9" fill-rule="evenodd" fill-opacity="1"/>
<polyline clip-path="url(#clip912)" style="stroke:#000000; stroke-width:4; stroke-opacity:1; fill:none" points="
  1684.84,1185.54 1684.84,1445.72 1719.16,1445.72 1719.16,1185.54 1684.84,1185.54 
  "/>
<path clip-path="url(#clip912)" d="
M1727.74 1226.51 L1727.74 1445.72 L1762.06 1445.72 L1762.06 1226.51 L1727.74 1226.51 L1727.74 1226.51  Z
  " fill="#009af9" fill-rule="evenodd" fill-opacity="1"/>
<polyline clip-path="url(#clip912)" style="stroke:#000000; stroke-width:4; stroke-opacity:1; fill:none" points="
  1727.74,1226.51 1727.74,1445.72 1762.06,1445.72 1762.06,1226.51 1727.74,1226.51 
  "/>
<path clip-path="url(#clip912)" d="
M1770.64 1311.51 L1770.64 1445.72 L1804.96 1445.72 L1804.96 1311.51 L1770.64 1311.51 L1770.64 1311.51  Z
  " fill="#808080" fill-rule="evenodd" fill-opacity="1"/>
<polyline clip-path="url(#clip912)" style="stroke:#000000; stroke-width:4; stroke-opacity:1; fill:none" points="
  1770.64,1311.51 1770.64,1445.72 1804.96,1445.72 1804.96,1311.51 1770.64,1311.51 
  "/>
<path clip-path="url(#clip912)" d="
M1813.54 1330.27 L1813.54 1445.72 L1847.87 1445.72 L1847.87 1330.27 L1813.54 1330.27 L1813.54 1330.27  Z
  " fill="#808080" fill-rule="evenodd" fill-opacity="1"/>
<polyline clip-path="url(#clip912)" style="stroke:#000000; stroke-width:4; stroke-opacity:1; fill:none" points="
  1813.54,1330.27 1813.54,1445.72 1847.87,1445.72 1847.87,1330.27 1813.54,1330.27 
  "/>
<path clip-path="url(#clip912)" d="
M1856.45 1379.48 L1856.45 1445.72 L1890.77 1445.72 L1890.77 1379.48 L1856.45 1379.48 L1856.45 1379.48  Z
  " fill="#808080" fill-rule="evenodd" fill-opacity="1"/>
<polyline clip-path="url(#clip912)" style="stroke:#000000; stroke-width:4; stroke-opacity:1; fill:none" points="
  1856.45,1379.48 1856.45,1445.72 1890.77,1445.72 1890.77,1379.48 1856.45,1379.48 
  "/>
<path clip-path="url(#clip912)" d="
M1899.35 1399.77 L1899.35 1445.72 L1933.67 1445.72 L1933.67 1399.77 L1899.35 1399.77 L1899.35 1399.77  Z
  " fill="#808080" fill-rule="evenodd" fill-opacity="1"/>
<polyline clip-path="url(#clip912)" style="stroke:#000000; stroke-width:4; stroke-opacity:1; fill:none" points="
  1899.35,1399.77 1899.35,1445.72 1933.67,1445.72 1933.67,1399.77 1899.35,1399.77 
  "/>
<path clip-path="url(#clip912)" d="
M1942.25 1416.81 L1942.25 1445.72 L1976.57 1445.72 L1976.57 1416.81 L1942.25 1416.81 L1942.25 1416.81  Z
  " fill="#808080" fill-rule="evenodd" fill-opacity="1"/>
<polyline clip-path="url(#clip912)" style="stroke:#000000; stroke-width:4; stroke-opacity:1; fill:none" points="
  1942.25,1416.81 1942.25,1445.72 1976.57,1445.72 1976.57,1416.81 1942.25,1416.81 
  "/>
<path clip-path="url(#clip912)" d="
M1985.15 1431.36 L1985.15 1445.72 L2019.47 1445.72 L2019.47 1431.36 L1985.15 1431.36 L1985.15 1431.36  Z
  " fill="#808080" fill-rule="evenodd" fill-opacity="1"/>
<polyline clip-path="url(#clip912)" style="stroke:#000000; stroke-width:4; stroke-opacity:1; fill:none" points="
  1985.15,1431.36 1985.15,1445.72 2019.47,1445.72 2019.47,1431.36 1985.15,1431.36 
  "/>
<path clip-path="url(#clip912)" d="
M2028.05 1434.23 L2028.05 1445.72 L2062.37 1445.72 L2062.37 1434.23 L2028.05 1434.23 L2028.05 1434.23  Z
  " fill="#808080" fill-rule="evenodd" fill-opacity="1"/>
<polyline clip-path="url(#clip912)" style="stroke:#000000; stroke-width:4; stroke-opacity:1; fill:none" points="
  2028.05,1434.23 2028.05,1445.72 2062.37,1445.72 2062.37,1434.23 2028.05,1434.23 
  "/>
<path clip-path="url(#clip912)" d="
M2070.95 1435.76 L2070.95 1445.72 L2105.27 1445.72 L2105.27 1435.76 L2070.95 1435.76 L2070.95 1435.76  Z
  " fill="#808080" fill-rule="evenodd" fill-opacity="1"/>
<polyline clip-path="url(#clip912)" style="stroke:#000000; stroke-width:4; stroke-opacity:1; fill:none" points="
  2070.95,1435.76 2070.95,1445.72 2105.27,1445.72 2105.27,1435.76 2070.95,1435.76 
  "/>
<path clip-path="url(#clip912)" d="
M2113.85 1443.04 L2113.85 1445.72 L2148.17 1445.72 L2148.17 1443.04 L2113.85 1443.04 L2113.85 1443.04  Z
  " fill="#808080" fill-rule="evenodd" fill-opacity="1"/>
<polyline clip-path="url(#clip912)" style="stroke:#000000; stroke-width:4; stroke-opacity:1; fill:none" points="
  2113.85,1443.04 2113.85,1445.72 2148.17,1445.72 2148.17,1443.04 2113.85,1443.04 
  "/>
<path clip-path="url(#clip912)" d="
M2156.76 1441.89 L2156.76 1445.72 L2191.08 1445.72 L2191.08 1441.89 L2156.76 1441.89 L2156.76 1441.89  Z
  " fill="#808080" fill-rule="evenodd" fill-opacity="1"/>
<polyline clip-path="url(#clip912)" style="stroke:#000000; stroke-width:4; stroke-opacity:1; fill:none" points="
  2156.76,1441.89 2156.76,1445.72 2191.08,1445.72 2191.08,1441.89 2156.76,1441.89 
  "/>
<path clip-path="url(#clip912)" d="
M2199.66 1444.57 L2199.66 1445.72 L2233.98 1445.72 L2233.98 1444.57 L2199.66 1444.57 L2199.66 1444.57  Z
  " fill="#808080" fill-rule="evenodd" fill-opacity="1"/>
<polyline clip-path="url(#clip912)" style="stroke:#000000; stroke-width:4; stroke-opacity:1; fill:none" points="
  2199.66,1444.57 2199.66,1445.72 2233.98,1445.72 2233.98,1444.57 2199.66,1444.57 
  "/>
</svg>
