<?xml version="1.0" encoding="utf-8"?>
<svg xmlns="http://www.w3.org/2000/svg" xmlns:xlink="http://www.w3.org/1999/xlink" width="600" height="400" viewBox="0 0 2400 1600">
<defs>
  <clipPath id="clip3500">
    <rect x="0" y="0" width="2400" height="1600"/>
  </clipPath>
</defs>
<path clip-path="url(#clip3500)" d="
M0 1600 L2400 1600 L2400 0 L0 0  Z
  " fill="#ffffff" fill-rule="evenodd" fill-opacity="1"/>
<defs>
  <clipPath id="clip3501">
    <rect x="480" y="0" width="1681" height="1600"/>
  </clipPath>
</defs>
<path clip-path="url(#clip3500)" d="
M140.458 1500.68 L2352.76 1500.68 L2352.76 47.2441 L140.458 47.2441  Z
  " fill="#ffffff" fill-rule="evenodd" fill-opacity="1"/>
<defs>
  <clipPath id="clip3502">
    <rect x="140" y="47" width="2213" height="1454"/>
  </clipPath>
</defs>
<polyline clip-path="url(#clip3502)" style="stroke:#000000; stroke-width:2; stroke-opacity:0.1; fill:none" points="
  203.07,1500.68 203.07,47.2441 
  "/>
<polyline clip-path="url(#clip3502)" style="stroke:#000000; stroke-width:2; stroke-opacity:0.1; fill:none" points="
  724.838,1500.68 724.838,47.2441 
  "/>
<polyline clip-path="url(#clip3502)" style="stroke:#000000; stroke-width:2; stroke-opacity:0.1; fill:none" points="
  1246.61,1500.68 1246.61,47.2441 
  "/>
<polyline clip-path="url(#clip3502)" style="stroke:#000000; stroke-width:2; stroke-opacity:0.1; fill:none" points="
  1768.38,1500.68 1768.38,47.2441 
  "/>
<polyline clip-path="url(#clip3502)" style="stroke:#000000; stroke-width:2; stroke-opacity:0.1; fill:none" points="
  2290.14,1500.68 2290.14,47.2441 
  "/>
<polyline clip-path="url(#clip3502)" style="stroke:#000000; stroke-width:2; stroke-opacity:0.1; fill:none" points="
  140.458,1321.16 2352.76,1321.16 
  "/>
<polyline clip-path="url(#clip3502)" style="stroke:#000000; stroke-width:2; stroke-opacity:0.1; fill:none" points="
  140.458,1047.1 2352.76,1047.1 
  "/>
<polyline clip-path="url(#clip3502)" style="stroke:#000000; stroke-width:2; stroke-opacity:0.1; fill:none" points="
  140.458,773.046 2352.76,773.046 
  "/>
<polyline clip-path="url(#clip3502)" style="stroke:#000000; stroke-width:2; stroke-opacity:0.1; fill:none" points="
  140.458,498.988 2352.76,498.988 
  "/>
<polyline clip-path="url(#clip3502)" style="stroke:#000000; stroke-width:2; stroke-opacity:0.1; fill:none" points="
  140.458,224.931 2352.76,224.931 
  "/>
<polyline clip-path="url(#clip3500)" style="stroke:#000000; stroke-width:4; stroke-opacity:1; fill:none" points="
  140.458,1500.68 2352.76,1500.68 
  "/>
<polyline clip-path="url(#clip3500)" style="stroke:#000000; stroke-width:4; stroke-opacity:1; fill:none" points="
  140.458,1500.68 140.458,47.2441 
  "/>
<polyline clip-path="url(#clip3500)" style="stroke:#000000; stroke-width:4; stroke-opacity:1; fill:none" points="
  203.07,1500.68 203.07,1483.24 
  "/>
<polyline clip-path="url(#clip3500)" style="stroke:#000000; stroke-width:4; stroke-opacity:1; fill:none" points="
  724.838,1500.68 724.838,1483.24 
  "/>
<polyline clip-path="url(#clip3500)" style="stroke:#000000; stroke-width:4; stroke-opacity:1; fill:none" points="
  1246.61,1500.68 1246.61,1483.24 
  "/>
<polyline clip-path="url(#clip3500)" style="stroke:#000000; stroke-width:4; stroke-opacity:1; fill:none" points="
  1768.38,1500.68 1768.38,1483.24 
  "/>
<polyline clip-path="url(#clip3500)" style="stroke:#000000; stroke-width:4; stroke-opacity:1; fill:none" points="
  2290.14,1500.68 2290.14,1483.24 
  "/>
<polyline clip-path="url(#clip3500)" style="stroke:#000000; stroke-width:4; stroke-opacity:1; fill:none" points="
  140.458,1321.16 167.005,1321.16 
  "/>
<polyline clip-path="url(#clip3500)" style="stroke:#000000; stroke-width:4; stroke-opacity:1; fill:none" points="
  140.458,1047.1 167.005,1047.1 
  "/>
<polyline clip-path="url(#clip3500)" style="stroke:#000000; stroke-width:4; stroke-opacity:1; fill:none" points="
  140.458,773.046 167.005,773.046 
  "/>
<polyline clip-path="url(#clip3500)" style="stroke:#000000; stroke-width:4; stroke-opacity:1; fill:none" points="
  140.458,498.988 167.005,498.988 
  "/>
<polyline clip-path="url(#clip3500)" style="stroke:#000000; stroke-width:4; stroke-opacity:1; fill:none" points="
  140.458,224.931 167.005,224.931 
  "/>
<g clip-path="url(#clip3500)">
<text style="fill:#000000; fill-opacity:1; font-family:Arial,Helvetica Neue,Helvetica,sans-serif; font-size:48px; text-anchor:middle;" transform="rotate(0, 203.07, 1554.68)" x="203.07" y="1554.68">0.00</text>
</g>
<g clip-path="url(#clip3500)">
<text style="fill:#000000; fill-opacity:1; font-family:Arial,Helvetica Neue,Helvetica,sans-serif; font-size:48px; text-anchor:middle;" transform="rotate(0, 724.838, 1554.68)" x="724.838" y="1554.68">0.25</text>
</g>
<g clip-path="url(#clip3500)">
<text style="fill:#000000; fill-opacity:1; font-family:Arial,Helvetica Neue,Helvetica,sans-serif; font-size:48px; text-anchor:middle;" transform="rotate(0, 1246.61, 1554.68)" x="1246.61" y="1554.68">0.50</text>
</g>
<g clip-path="url(#clip3500)">
<text style="fill:#000000; fill-opacity:1; font-family:Arial,Helvetica Neue,Helvetica,sans-serif; font-size:48px; text-anchor:middle;" transform="rotate(0, 1768.38, 1554.68)" x="1768.38" y="1554.68">0.75</text>
</g>
<g clip-path="url(#clip3500)">
<text style="fill:#000000; fill-opacity:1; font-family:Arial,Helvetica Neue,Helvetica,sans-serif; font-size:48px; text-anchor:middle;" transform="rotate(0, 2290.14, 1554.68)" x="2290.14" y="1554.68">1.00</text>
</g>
<g clip-path="url(#clip3500)">
<text style="fill:#000000; fill-opacity:1; font-family:Arial,Helvetica Neue,Helvetica,sans-serif; font-size:48px; text-anchor:end;" transform="rotate(0, 116.458, 1338.66)" x="116.458" y="1338.66">-50</text>
</g>
<g clip-path="url(#clip3500)">
<text style="fill:#000000; fill-opacity:1; font-family:Arial,Helvetica Neue,Helvetica,sans-serif; font-size:48px; text-anchor:end;" transform="rotate(0, 116.458, 1064.6)" x="116.458" y="1064.6">-25</text>
</g>
<g clip-path="url(#clip3500)">
<text style="fill:#000000; fill-opacity:1; font-family:Arial,Helvetica Neue,Helvetica,sans-serif; font-size:48px; text-anchor:end;" transform="rotate(0, 116.458, 790.546)" x="116.458" y="790.546">0</text>
</g>
<g clip-path="url(#clip3500)">
<text style="fill:#000000; fill-opacity:1; font-family:Arial,Helvetica Neue,Helvetica,sans-serif; font-size:48px; text-anchor:end;" transform="rotate(0, 116.458, 516.488)" x="116.458" y="516.488">25</text>
</g>
<g clip-path="url(#clip3500)">
<text style="fill:#000000; fill-opacity:1; font-family:Arial,Helvetica Neue,Helvetica,sans-serif; font-size:48px; text-anchor:end;" transform="rotate(0, 116.458, 242.431)" x="116.458" y="242.431">50</text>
</g>
<path clip-path="url(#clip3502)" d="
M203.07 1082.68 L207.252 1072.48 L211.435 1062.48 L215.617 1052.66 L219.8 1043.04 L223.982 1033.61 L228.165 1024.37 L232.347 1015.31 L236.53 1006.43 L240.712 997.727 
  L244.895 989.205 L249.077 980.859 L253.26 972.687 L257.443 964.687 L261.625 956.855 L265.808 949.192 L269.99 941.694 L274.173 934.359 L278.355 927.186 L282.538 920.173 
  L286.72 913.318 L290.903 906.618 L295.085 900.073 L299.268 893.681 L303.45 887.44 L307.633 881.348 L311.815 875.403 L315.998 869.605 L320.18 863.952 L324.363 858.443 
  L328.545 853.076 L332.728 847.851 L336.91 842.766 L341.093 837.822 L345.275 833.017 L349.458 828.352 L353.64 823.828 L357.823 819.445 L362.005 815.205 L366.188 811.112 
  L370.37 807.169 L374.553 803.384 L378.735 799.764 L382.918 796.322 L387.1 793.077 L391.283 790.053 L395.465 787.286 L399.648 784.825 L403.83 782.732 L408.013 781.082 
  L412.195 779.945 L416.378 779.363 L420.56 779.321 L424.743 779.749 L428.926 780.544 L433.108 781.6 L437.291 782.831 L441.473 784.169 L445.656 785.566 L449.838 786.989 
  L454.021 788.414 L458.203 789.823 L462.386 791.205 L466.568 792.552 L470.751 793.857 L474.933 795.117 L479.116 796.328 L483.298 797.487 L487.481 798.595 L491.663 799.649 
  L495.846 800.65 L500.028 801.597 L504.211 802.491 L508.393 803.331 L512.576 804.118 L516.758 804.852 L520.941 805.535 L525.123 806.167 L529.306 806.749 L533.488 807.281 
  L537.671 807.765 L541.853 808.2 L546.036 808.59 L550.218 808.933 L554.401 809.231 L558.583 809.486 L562.766 809.698 L566.948 809.868 L571.131 809.997 L575.313 810.086 
  L579.496 810.136 L583.678 810.148 L587.861 810.123 L592.044 810.063 L596.226 809.968 L600.409 809.839 L604.591 809.677 L608.774 809.483 L612.956 809.258 L617.139 809.004 
  L621.321 808.721 L625.504 808.41 L629.686 808.072 L633.869 807.708 L638.051 807.319 L642.234 806.906 L646.416 806.471 L650.599 806.013 L654.781 805.534 L658.964 805.036 
  L663.146 804.518 L667.329 803.982 L671.511 803.428 L675.694 802.859 L679.876 802.274 L684.059 801.675 L688.241 801.062 L692.424 800.437 L696.606 799.8 L700.789 799.153 
  L704.971 798.495 L709.154 797.829 L713.336 797.156 L717.519 796.475 L721.701 795.788 L725.884 795.096 L730.066 794.4 L734.249 793.701 L738.431 793 L742.614 792.297 
  L746.796 791.594 L750.979 790.892 L755.162 790.192 L759.344 789.494 L763.527 788.799 L767.709 788.109 L771.892 787.425 L776.074 786.747 L780.257 786.078 L784.439 785.416 
  L788.622 784.765 L792.804 784.125 L796.987 783.497 L801.169 782.882 L805.352 782.282 L809.534 781.697 L813.717 781.129 L817.899 780.58 L822.082 780.049 L826.264 779.539 
  L830.447 779.052 L834.629 778.587 L838.812 778.147 L842.994 777.732 L847.177 777.344 L851.359 776.984 L855.542 776.652 L859.724 776.351 L863.907 776.079 L868.089 775.838 
  L872.272 775.629 L876.454 775.45 L880.637 775.303 L884.819 775.185 L889.002 775.098 L893.184 775.039 L897.367 775.007 L901.549 775.001 L905.732 775.019 L909.914 775.059 
  L914.097 775.119 L918.28 775.197 L922.462 775.291 L926.645 775.398 L930.827 775.517 L935.01 775.646 L939.192 775.782 L943.375 775.924 L947.557 776.069 L951.74 776.218 
  L955.922 776.367 L960.105 776.517 L964.287 776.665 L968.47 776.812 L972.652 776.957 L976.835 777.099 L981.017 777.238 L985.2 777.374 L989.382 777.508 L993.565 777.639 
  L997.747 777.77 L1001.93 777.9 L1006.11 778.031 L1010.29 778.165 L1014.48 778.303 L1018.66 778.448 L1022.84 778.602 L1027.02 778.767 L1031.21 778.947 L1035.39 779.144 
  L1039.57 779.363 L1043.75 779.605 L1047.94 779.876 L1052.12 780.178 L1056.3 780.514 L1060.48 780.889 L1064.67 781.306 L1068.85 781.766 L1073.03 782.274 L1077.21 782.83 
  L1081.4 783.438 L1085.58 784.098 L1089.76 784.812 L1093.95 785.581 L1098.13 786.404 L1102.31 787.283 L1106.49 788.217 L1110.68 789.206 L1114.86 790.251 L1119.04 791.35 
  L1123.22 792.503 L1127.41 793.71 L1131.59 794.971 L1135.77 796.284 L1139.95 797.649 L1144.14 799.066 L1148.32 800.534 L1152.5 802.053 L1156.68 803.622 L1160.87 805.242 
  L1165.05 806.911 L1169.23 808.629 L1173.41 810.396 L1177.6 812.211 L1181.78 814.075 L1185.96 815.987 L1190.14 817.946 L1194.33 819.953 L1198.51 822.008 L1202.69 824.109 
  L1206.87 826.258 L1211.06 828.453 L1215.24 830.695 L1219.42 832.983 L1223.6 835.317 L1227.79 837.698 L1231.97 840.124 L1236.15 842.596 L1240.33 845.114 L1244.52 847.678 
  L1248.7 850.286 L1252.88 852.94 L1257.06 855.639 L1261.25 858.383 L1265.43 861.172 L1269.61 864.005 L1273.79 866.882 L1277.98 869.804 L1282.16 872.77 L1286.34 875.78 
  L1290.52 878.833 L1294.71 881.93 L1298.89 885.071 L1303.07 888.254 L1307.25 891.481 L1311.44 894.75 L1315.62 898.061 L1319.8 901.415 L1323.98 904.811 L1328.17 908.248 
  L1332.35 911.727 L1336.53 915.248 L1340.71 918.809 L1344.9 922.411 L1349.08 926.053 L1353.26 929.736 L1357.44 933.458 L1361.63 937.219 L1365.81 941.02 L1369.99 944.86 
  L1374.17 948.737 L1378.36 952.653 L1382.54 956.607 L1386.72 960.598 L1390.9 964.626 L1395.09 968.69 L1399.27 972.79 L1403.45 976.926 L1407.63 981.097 L1411.82 985.303 
  L1416 989.543 L1420.18 993.817 L1424.36 998.124 L1428.55 1002.46 L1432.73 1006.84 L1436.91 1011.24 L1441.09 1015.68 L1445.28 1020.14 L1449.46 1024.64 L1453.64 1029.16 
  L1457.82 1033.72 L1462.01 1038.3 L1466.19 1042.91 L1470.37 1047.55 L1474.55 1052.21 L1478.74 1056.9 L1482.92 1061.61 L1487.1 1066.35 L1491.28 1071.12 L1495.47 1075.9 
  L1499.65 1080.71 L1503.83 1085.54 L1508.01 1090.39 L1512.2 1095.26 L1516.38 1100.14 L1520.56 1105.05 L1524.74 1109.97 L1528.93 1114.91 L1533.11 1119.87 L1537.29 1124.84 
  L1541.47 1129.83 L1545.66 1134.82 L1549.84 1139.83 L1554.02 1144.85 L1558.2 1149.88 L1562.39 1154.92 L1566.57 1159.97 L1570.75 1165.03 L1574.93 1170.09 L1579.12 1175.15 
  L1583.3 1180.22 L1587.48 1185.3 L1591.66 1190.37 L1595.85 1195.44 L1600.03 1200.52 L1604.21 1205.59 L1608.39 1210.66 L1612.58 1215.72 L1616.76 1220.78 L1620.94 1225.83 
  L1625.12 1230.88 L1629.31 1235.91 L1633.49 1240.93 L1637.67 1245.95 L1641.85 1250.94 L1646.04 1255.93 L1650.22 1260.89 L1654.4 1265.84 L1658.58 1270.77 L1662.77 1275.68 
  L1666.95 1280.57 L1671.13 1285.43 L1675.31 1290.27 L1679.5 1295.08 L1683.68 1299.86 L1687.86 1304.61 L1692.04 1309.33 L1696.23 1314.02 L1700.41 1318.67 L1704.59 1323.28 
  L1708.77 1327.86 L1712.96 1332.39 L1717.14 1336.89 L1721.32 1341.33 L1725.5 1345.74 L1729.69 1350.09 L1733.87 1354.39 L1738.05 1358.65 L1742.23 1362.84 L1746.42 1366.98 
  L1750.6 1371.07 L1754.78 1375.09 L1758.96 1379.05 L1763.15 1382.95 L1767.33 1386.78 L1771.51 1390.54 L1775.69 1394.23 L1779.88 1397.85 L1784.06 1401.39 L1788.24 1404.86 
  L1792.42 1408.24 L1796.61 1411.54 L1800.79 1414.75 L1804.97 1417.88 L1809.15 1420.92 L1813.34 1423.86 L1817.52 1426.71 L1821.7 1429.46 L1825.88 1432.11 L1830.07 1434.66 
  L1834.25 1437.1 L1838.43 1439.43 L1842.61 1441.66 L1846.8 1443.76 L1850.98 1445.75 L1855.16 1447.62 L1859.34 1449.36 L1863.53 1450.98 L1867.71 1452.47 L1871.89 1453.83 
  L1876.07 1455.05 L1880.26 1456.13 L1884.44 1457.07 L1888.62 1457.87 L1892.8 1458.52 L1896.99 1459.01 L1901.17 1459.35 L1905.35 1459.53 L1909.54 1459.55 L1913.72 1459.4 
  L1917.9 1459.08 L1922.08 1458.59 L1926.27 1457.93 L1930.45 1457.08 L1934.63 1456.05 L1938.81 1454.83 L1943 1453.42 L1947.18 1451.81 L1951.36 1450 L1955.54 1447.99 
  L1959.73 1445.77 L1963.91 1443.34 L1968.09 1440.69 L1972.27 1437.82 L1976.46 1434.73 L1980.64 1431.4 L1984.82 1427.85 L1989 1424.05 L1993.19 1420.01 L1997.37 1415.73 
  L2001.55 1411.19 L2005.73 1406.39 L2009.92 1401.34 L2014.1 1396.02 L2018.28 1390.42 L2022.46 1384.55 L2026.65 1378.4 L2030.83 1371.96 L2035.01 1365.23 L2039.19 1358.2 
  L2043.38 1350.87 L2047.56 1343.24 L2051.74 1335.29 L2055.92 1327.02 L2060.11 1318.43 L2064.29 1309.5 L2068.47 1300.25 L2072.65 1290.65 L2076.84 1280.7 L2081.02 1270.4 
  L2085.2 1259.75 L2089.38 1248.72 L2093.57 1237.33 L2097.75 1225.56 L2101.93 1213.4 L2106.11 1200.86 L2110.3 1187.91 L2114.48 1174.57 L2118.66 1160.81 L2122.84 1146.64 
  L2127.03 1132.05 L2131.21 1117.03 L2135.39 1101.57 L2139.57 1085.66 L2143.76 1069.31 L2147.94 1052.5 L2152.12 1035.22 L2156.3 1017.48 L2160.49 999.257 L2164.67 980.552 
  L2168.85 961.359 L2173.03 941.672 L2177.22 921.489 L2181.4 900.812 L2185.58 879.649 L2189.76 858.027 L2193.95 836.024 L2198.13 813.916 L2202.31 793.293 L2206.49 789.292 
  L2210.68 809.422 L2214.86 833.726 L2219.04 859.264 L2223.22 885.628 L2227.41 912.71 L2231.59 940.478 L2235.77 968.92 L2239.95 998.035 L2244.14 1027.83 L2248.32 1058.3 
  L2252.5 1089.47 L2256.68 1121.33 L2260.87 1153.91 L2265.05 1187.2 L2269.23 1221.22 L2273.41 1255.98 L2277.6 1291.49 L2281.78 1327.76 L2285.96 1364.8 L2290.14 1402.62 
  L2290.14 147.937 L2285.96 185.43 L2281.78 222.154 L2277.6 258.118 L2273.41 293.334 L2269.23 327.812 L2265.05 361.562 L2260.87 394.594 L2256.68 426.919 L2252.5 458.545 
  L2248.32 489.481 L2244.14 519.737 L2239.95 549.32 L2235.77 578.234 L2231.59 606.485 L2227.41 634.071 L2223.22 660.98 L2219.04 687.179 L2214.86 712.562 L2210.68 736.719 
  L2206.49 756.709 L2202.31 752.578 L2198.13 731.831 L2193.95 709.607 L2189.76 687.496 L2185.58 665.773 L2181.4 644.516 L2177.22 623.751 L2173.03 603.488 L2168.85 583.728 
  L2164.67 564.467 L2160.49 545.701 L2156.3 527.424 L2152.12 509.63 L2147.94 492.312 L2143.76 475.464 L2139.57 459.079 L2135.39 443.149 L2131.21 427.667 L2127.03 412.627 
  L2122.84 398.022 L2118.66 383.845 L2114.48 370.088 L2110.3 356.746 L2106.11 343.811 L2101.93 331.277 L2097.75 319.137 L2093.57 307.385 L2089.38 296.014 L2085.2 285.018 
  L2081.02 274.391 L2076.84 264.126 L2072.65 254.218 L2068.47 244.661 L2064.29 235.447 L2060.11 226.572 L2055.92 218.03 L2051.74 209.815 L2047.56 201.921 L2043.38 194.343 
  L2039.19 187.075 L2035.01 180.111 L2030.83 173.447 L2026.65 167.076 L2022.46 160.994 L2018.28 155.196 L2014.1 149.676 L2009.92 144.429 L2005.73 139.45 L2001.55 134.735 
  L1997.37 130.278 L1993.19 126.075 L1989 122.121 L1984.82 118.41 L1980.64 114.94 L1976.46 111.704 L1972.27 108.698 L1968.09 105.919 L1963.91 103.361 L1959.73 101.021 
  L1955.54 98.8936 L1951.36 96.9749 L1947.18 95.2608 L1943 93.7472 L1938.81 92.43 L1934.63 91.3052 L1930.45 90.3689 L1926.27 89.6171 L1922.08 89.046 L1917.9 88.6518 
  L1913.72 88.4308 L1909.54 88.3792 L1905.35 88.4934 L1901.17 88.7698 L1896.99 89.2048 L1892.8 89.795 L1888.62 90.5368 L1884.44 91.4269 L1880.26 92.4619 L1876.07 93.6384 
  L1871.89 94.9533 L1867.71 96.4032 L1863.53 97.9849 L1859.34 99.6954 L1855.16 101.532 L1850.98 103.49 L1846.8 105.568 L1842.61 107.763 L1838.43 110.071 L1834.25 112.491 
  L1830.07 115.018 L1825.88 117.65 L1821.7 120.384 L1817.52 123.218 L1813.34 126.148 L1809.15 129.173 L1804.97 132.29 L1800.79 135.495 L1796.61 138.787 L1792.42 142.162 
  L1788.24 145.619 L1784.06 149.155 L1779.88 152.768 L1775.69 156.455 L1771.51 160.213 L1767.33 164.041 L1763.15 167.937 L1758.96 171.897 L1754.78 175.92 L1750.6 180.004 
  L1746.42 184.146 L1742.23 188.345 L1738.05 192.598 L1733.87 196.903 L1729.69 201.258 L1725.5 205.662 L1721.32 210.111 L1717.14 214.605 L1712.96 219.142 L1708.77 223.719 
  L1704.59 228.335 L1700.41 232.987 L1696.23 237.675 L1692.04 242.396 L1687.86 247.149 L1683.68 251.931 L1679.5 256.742 L1675.31 261.579 L1671.13 266.441 L1666.95 271.326 
  L1662.77 276.233 L1658.58 281.161 L1654.4 286.106 L1650.22 291.069 L1646.04 296.048 L1641.85 301.041 L1637.67 306.046 L1633.49 311.063 L1629.31 316.09 L1625.12 321.125 
  L1620.94 326.168 L1616.76 331.217 L1612.58 336.27 L1608.39 341.326 L1604.21 346.385 L1600.03 351.444 L1595.85 356.504 L1591.66 361.561 L1587.48 366.616 L1583.3 371.667 
  L1579.12 376.713 L1574.93 381.753 L1570.75 386.786 L1566.57 391.81 L1562.39 396.826 L1558.2 401.831 L1554.02 406.824 L1549.84 411.805 L1545.66 416.773 L1541.47 421.727 
  L1537.29 426.665 L1533.11 431.587 L1528.93 436.493 L1524.74 441.38 L1520.56 446.248 L1516.38 451.097 L1512.2 455.926 L1508.01 460.733 L1503.83 465.518 L1499.65 470.28 
  L1495.47 475.018 L1491.28 479.732 L1487.1 484.421 L1482.92 489.084 L1478.74 493.721 L1474.55 498.33 L1470.37 502.911 L1466.19 507.464 L1462.01 511.988 L1457.82 516.481 
  L1453.64 520.945 L1449.46 525.377 L1445.28 529.777 L1441.09 534.145 L1436.91 538.481 L1432.73 542.783 L1428.55 547.051 L1424.36 551.285 L1420.18 555.484 L1416 559.647 
  L1411.82 563.775 L1407.63 567.866 L1403.45 571.921 L1399.27 575.938 L1395.09 579.918 L1390.9 583.859 L1386.72 587.762 L1382.54 591.626 L1378.36 595.451 L1374.17 599.236 
  L1369.99 602.982 L1365.81 606.687 L1361.63 610.351 L1357.44 613.974 L1353.26 617.556 L1349.08 621.096 L1344.9 624.594 L1340.71 628.05 L1336.53 631.464 L1332.35 634.835 
  L1328.17 638.163 L1323.98 641.447 L1319.8 644.688 L1315.62 647.886 L1311.44 651.039 L1307.25 654.148 L1303.07 657.213 L1298.89 660.233 L1294.71 663.209 L1290.52 666.139 
  L1286.34 669.025 L1282.16 671.865 L1277.98 674.66 L1273.79 677.409 L1269.61 680.112 L1265.43 682.77 L1261.25 685.381 L1257.06 687.947 L1252.88 690.466 L1248.7 692.938 
  L1244.52 695.364 L1240.33 697.744 L1236.15 700.076 L1231.97 702.362 L1227.79 704.601 L1223.6 706.792 L1219.42 708.936 L1215.24 711.033 L1211.06 713.082 L1206.87 715.083 
  L1202.69 717.037 L1198.51 718.943 L1194.33 720.8 L1190.14 722.609 L1185.96 724.37 L1181.78 726.081 L1177.6 727.744 L1173.41 729.358 L1169.23 730.922 L1165.05 732.437 
  L1160.87 733.901 L1156.68 735.315 L1152.5 736.679 L1148.32 737.991 L1144.14 739.252 L1139.95 740.461 L1135.77 741.618 L1131.59 742.721 L1127.41 743.772 L1123.22 744.768 
  L1119.04 745.711 L1114.86 746.599 L1110.68 747.431 L1106.49 748.208 L1102.31 748.93 L1098.13 749.596 L1093.95 750.206 L1089.76 750.761 L1085.58 751.261 L1081.4 751.707 
  L1077.21 752.101 L1073.03 752.443 L1068.85 752.736 L1064.67 752.983 L1060.48 753.185 L1056.3 753.345 L1052.12 753.468 L1047.94 753.555 L1043.75 753.612 L1039.57 753.64 
  L1035.39 753.645 L1031.21 753.629 L1027.02 753.595 L1022.84 753.547 L1018.66 753.489 L1014.48 753.421 L1010.29 753.348 L1006.11 753.27 L1001.93 753.191 L997.747 753.111 
  L993.565 753.031 L989.382 752.954 L985.2 752.879 L981.017 752.808 L976.835 752.74 L972.652 752.676 L968.47 752.615 L964.287 752.558 L960.105 752.503 L955.922 752.45 
  L951.74 752.399 L947.557 752.347 L943.375 752.293 L939.192 752.237 L935.01 752.176 L930.827 752.109 L926.645 752.034 L922.462 751.949 L918.28 751.851 L914.097 751.739 
  L909.914 751.611 L905.732 751.464 L901.549 751.296 L897.367 751.106 L893.184 750.892 L889.002 750.653 L884.819 750.387 L880.637 750.093 L876.454 749.77 L872.272 749.419 
  L868.089 749.038 L863.907 748.628 L859.724 748.19 L855.542 747.723 L851.359 747.229 L847.177 746.709 L842.994 746.163 L838.812 745.593 L834.629 744.999 L830.447 744.384 
  L826.264 743.747 L822.082 743.092 L817.899 742.418 L813.717 741.728 L809.534 741.023 L805.352 740.303 L801.169 739.571 L796.987 738.827 L792.804 738.072 L788.622 737.309 
  L784.439 736.538 L780.257 735.76 L776.074 734.976 L771.892 734.188 L767.709 733.396 L763.527 732.603 L759.344 731.808 L755.162 731.013 L750.979 730.219 L746.796 729.427 
  L742.614 728.638 L738.431 727.853 L734.249 727.073 L730.066 726.3 L725.884 725.533 L721.701 724.775 L717.519 724.026 L713.336 723.286 L709.154 722.558 L704.971 721.842 
  L700.789 721.14 L696.606 720.451 L692.424 719.778 L688.241 719.12 L684.059 718.48 L679.876 717.858 L675.694 717.255 L671.511 716.672 L667.329 716.11 L663.146 715.571 
  L658.964 715.055 L654.781 714.563 L650.599 714.096 L646.416 713.655 L642.234 713.242 L638.051 712.857 L633.869 712.502 L629.686 712.177 L625.504 711.884 L621.321 711.623 
  L617.139 711.396 L612.956 711.203 L608.774 711.046 L604.591 710.927 L600.409 710.845 L596.226 710.802 L592.044 710.799 L587.861 710.837 L583.678 710.918 L579.496 711.042 
  L575.313 711.211 L571.131 711.425 L566.948 711.686 L562.766 711.994 L558.583 712.351 L554.401 712.759 L550.218 713.217 L546.036 713.727 L541.853 714.29 L537.671 714.908 
  L533.488 715.58 L529.306 716.309 L525.123 717.095 L520.941 717.939 L516.758 718.841 L512.576 719.804 L508.393 720.827 L504.211 721.91 L500.028 723.056 L495.846 724.263 
  L491.663 725.533 L487.481 726.864 L483.298 728.257 L479.116 729.711 L474.933 731.225 L470.751 732.797 L466.568 734.423 L462.386 736.1 L458.203 737.822 L454.021 739.58 
  L449.838 741.362 L445.656 743.153 L441.473 744.927 L437.291 746.652 L433.108 748.279 L428.926 749.742 L424.743 750.953 L420.56 751.808 L416.378 752.203 L412.195 752.068 
  L408.013 751.389 L403.83 750.207 L399.648 748.593 L395.465 746.622 L391.283 744.356 L387.1 741.844 L382.918 739.121 L378.735 736.214 L374.553 733.14 L370.37 729.911 
  L366.188 726.537 L362.005 723.024 L357.823 719.377 L353.64 715.598 L349.458 711.69 L345.275 707.654 L341.093 703.49 L336.91 699.199 L332.728 694.781 L328.545 690.234 
  L324.363 685.559 L320.18 680.754 L315.998 675.819 L311.815 670.752 L307.633 665.553 L303.45 660.219 L299.268 654.749 L295.085 649.142 L290.903 643.397 L286.72 637.511 
  L282.538 631.484 L278.355 625.313 L274.173 618.996 L269.99 612.533 L265.808 605.921 L261.625 599.158 L257.443 592.243 L253.26 585.174 L249.077 577.949 L244.895 570.565 
  L240.712 563.022 L236.53 555.316 L232.347 547.447 L228.165 539.412 L223.982 531.208 L219.8 522.835 L215.617 514.29 L211.435 505.57 L207.252 496.675 L203.07 487.601 
   Z
  " fill="#009af9" fill-rule="evenodd" fill-opacity="0.5"/>
<polyline clip-path="url(#clip3502)" style="stroke:#000000; stroke-width:4; stroke-opacity:1; fill:none" points="
  203.07,785.14 207.252,784.577 211.435,784.023 215.617,783.477 219.8,782.939 223.982,782.41 228.165,781.889 232.347,781.376 236.53,780.871 240.712,780.374 
  244.895,779.885 249.077,779.404 253.26,778.931 257.443,778.465 261.625,778.007 265.808,777.556 269.99,777.113 274.173,776.678 278.355,776.249 282.538,775.828 
  286.72,775.414 290.903,775.008 295.085,774.608 299.268,774.215 303.45,773.829 307.633,773.45 311.815,773.078 315.998,772.712 320.18,772.353 324.363,772.001 
  328.545,771.655 332.728,771.316 336.91,770.983 341.093,770.656 345.275,770.335 349.458,770.021 353.64,769.713 357.823,769.411 362.005,769.115 366.188,768.824 
  370.37,768.54 374.553,768.262 378.735,767.989 382.918,767.722 387.1,767.46 391.283,767.204 395.465,766.954 399.648,766.709 403.83,766.47 408.013,766.235 
  412.195,766.007 416.378,765.783 420.56,765.564 424.743,765.351 428.926,765.143 433.108,764.94 437.291,764.741 441.473,764.548 445.656,764.359 449.838,764.176 
  454.021,763.997 458.203,763.822 462.386,763.653 466.568,763.488 470.751,763.327 474.933,763.171 479.116,763.02 483.298,762.872 487.481,762.729 491.663,762.591 
  495.846,762.457 500.028,762.326 504.211,762.2 508.393,762.079 512.576,761.961 516.758,761.847 520.941,761.737 525.123,761.631 529.306,761.529 533.488,761.431 
  537.671,761.336 541.853,761.245 546.036,761.158 550.218,761.075 554.401,760.995 558.583,760.919 562.766,760.846 566.948,760.777 571.131,760.711 575.313,760.648 
  579.496,760.589 583.678,760.533 587.861,760.48 592.044,760.431 596.226,760.385 600.409,760.342 604.591,760.302 608.774,760.265 612.956,760.231 617.139,760.2 
  621.321,760.172 625.504,760.147 629.686,760.124 633.869,760.105 638.051,760.088 642.234,760.074 646.416,760.063 650.599,760.054 654.781,760.048 658.964,760.045 
  663.146,760.044 667.329,760.046 671.511,760.05 675.694,760.057 679.876,760.066 684.059,760.077 688.241,760.091 692.424,760.107 696.606,760.126 700.789,760.146 
  704.971,760.169 709.154,760.194 713.336,760.221 717.519,760.25 721.701,760.281 725.884,760.315 730.066,760.35 734.249,760.387 738.431,760.427 742.614,760.468 
  746.796,760.511 750.979,760.556 755.162,760.602 759.344,760.651 763.527,760.701 767.709,760.753 771.892,760.806 776.074,760.862 780.257,760.919 784.439,760.977 
  788.622,761.037 792.804,761.099 796.987,761.162 801.169,761.226 805.352,761.292 809.534,761.36 813.717,761.429 817.899,761.499 822.082,761.571 826.264,761.643 
  830.447,761.718 834.629,761.793 838.812,761.87 842.994,761.947 847.177,762.026 851.359,762.107 855.542,762.188 859.724,762.27 863.907,762.354 868.089,762.438 
  872.272,762.524 876.454,762.61 880.637,762.698 884.819,762.786 889.002,762.875 893.184,762.966 897.367,763.057 901.549,763.149 905.732,763.241 909.914,763.335 
  914.097,763.429 918.28,763.524 922.462,763.62 926.645,763.716 930.827,763.813 935.01,763.911 939.192,764.009 943.375,764.108 947.557,764.208 951.74,764.308 
  955.922,764.409 960.105,764.51 964.287,764.612 968.47,764.714 972.652,764.816 976.835,764.919 981.017,765.023 985.2,765.127 989.382,765.231 993.565,765.335 
  997.747,765.44 1001.93,765.545 1006.11,765.651 1010.29,765.756 1014.48,765.862 1018.66,765.968 1022.84,766.075 1027.02,766.181 1031.21,766.288 1035.39,766.394 
  1039.57,766.501 1043.75,766.608 1047.94,766.715 1052.12,766.823 1056.3,766.93 1060.48,767.037 1064.67,767.144 1068.85,767.251 1073.03,767.359 1077.21,767.466 
  1081.4,767.573 1085.58,767.68 1089.76,767.787 1093.95,767.893 1098.13,768 1102.31,768.106 1106.49,768.213 1110.68,768.319 1114.86,768.425 1119.04,768.53 
  1123.22,768.636 1127.41,768.741 1131.59,768.846 1135.77,768.951 1139.95,769.055 1144.14,769.159 1148.32,769.263 1152.5,769.366 1156.68,769.469 1160.87,769.571 
  1165.05,769.674 1169.23,769.775 1173.41,769.877 1177.6,769.978 1181.78,770.078 1185.96,770.178 1190.14,770.278 1194.33,770.377 1198.51,770.475 1202.69,770.573 
  1206.87,770.671 1211.06,770.767 1215.24,770.864 1219.42,770.959 1223.6,771.055 1227.79,771.149 1231.97,771.243 1236.15,771.336 1240.33,771.429 1244.52,771.521 
  1248.7,771.612 1252.88,771.703 1257.06,771.793 1261.25,771.882 1265.43,771.971 1269.61,772.059 1273.79,772.146 1277.98,772.232 1282.16,772.318 1286.34,772.402 
  1290.52,772.486 1294.71,772.57 1298.89,772.652 1303.07,772.734 1307.25,772.814 1311.44,772.894 1315.62,772.973 1319.8,773.052 1323.98,773.129 1328.17,773.206 
  1332.35,773.281 1336.53,773.356 1340.71,773.43 1344.9,773.503 1349.08,773.575 1353.26,773.646 1357.44,773.716 1361.63,773.785 1365.81,773.853 1369.99,773.921 
  1374.17,773.987 1378.36,774.052 1382.54,774.117 1386.72,774.18 1390.9,774.242 1395.09,774.304 1399.27,774.364 1403.45,774.423 1407.63,774.482 1411.82,774.539 
  1416,774.595 1420.18,774.65 1424.36,774.705 1428.55,774.758 1432.73,774.81 1436.91,774.861 1441.09,774.911 1445.28,774.959 1449.46,775.007 1453.64,775.054 
  1457.82,775.099 1462.01,775.144 1466.19,775.187 1470.37,775.229 1474.55,775.271 1478.74,775.311 1482.92,775.35 1487.1,775.387 1491.28,775.424 1495.47,775.46 
  1499.65,775.494 1503.83,775.527 1508.01,775.56 1512.2,775.591 1516.38,775.621 1520.56,775.65 1524.74,775.677 1528.93,775.704 1533.11,775.729 1537.29,775.753 
  1541.47,775.776 1545.66,775.798 1549.84,775.819 1554.02,775.839 1558.2,775.858 1562.39,775.875 1566.57,775.891 1570.75,775.906 1574.93,775.92 1579.12,775.933 
  1583.3,775.945 1587.48,775.956 1591.66,775.965 1595.85,775.974 1600.03,775.981 1604.21,775.987 1608.39,775.992 1612.58,775.996 1616.76,775.999 1620.94,776 
  1625.12,776.001 1629.31,776 1633.49,775.999 1637.67,775.996 1641.85,775.992 1646.04,775.987 1650.22,775.981 1654.4,775.974 1658.58,775.966 1662.77,775.957 
  1666.95,775.947 1671.13,775.936 1675.31,775.923 1679.5,775.91 1683.68,775.896 1687.86,775.88 1692.04,775.864 1696.23,775.847 1700.41,775.829 1704.59,775.809 
  1708.77,775.789 1712.96,775.768 1717.14,775.746 1721.32,775.723 1725.5,775.699 1729.69,775.674 1733.87,775.648 1738.05,775.621 1742.23,775.594 1746.42,775.566 
  1750.6,775.536 1754.78,775.506 1758.96,775.475 1763.15,775.444 1767.33,775.411 1771.51,775.378 1775.69,775.344 1779.88,775.309 1784.06,775.273 1788.24,775.237 
  1792.42,775.2 1796.61,775.163 1800.79,775.124 1804.97,775.085 1809.15,775.046 1813.34,775.006 1817.52,774.965 1821.7,774.924 1825.88,774.882 1830.07,774.839 
  1834.25,774.797 1838.43,774.753 1842.61,774.709 1846.8,774.665 1850.98,774.62 1855.16,774.575 1859.34,774.53 1863.53,774.484 1867.71,774.438 1871.89,774.391 
  1876.07,774.344 1880.26,774.297 1884.44,774.25 1888.62,774.203 1892.8,774.155 1896.99,774.108 1901.17,774.06 1905.35,774.012 1909.54,773.964 1913.72,773.916 
  1917.9,773.868 1922.08,773.82 1926.27,773.772 1930.45,773.724 1934.63,773.677 1938.81,773.629 1943,773.582 1947.18,773.535 1951.36,773.488 1955.54,773.442 
  1959.73,773.396 1963.91,773.35 1968.09,773.305 1972.27,773.26 1976.46,773.216 1980.64,773.172 1984.82,773.129 1989,773.086 1993.19,773.044 1997.37,773.003 
  2001.55,772.962 2005.73,772.923 2009.92,772.884 2014.1,772.846 2018.28,772.809 2022.46,772.773 2026.65,772.738 2030.83,772.704 2035.01,772.671 2039.19,772.639 
  2043.38,772.608 2047.56,772.579 2051.74,772.551 2055.92,772.525 2060.11,772.5 2064.29,772.476 2068.47,772.454 2072.65,772.433 2076.84,772.415 2081.02,772.397 
  2085.2,772.382 2089.38,772.368 2093.57,772.357 2097.75,772.347 2101.93,772.339 2106.11,772.334 2110.3,772.33 2114.48,772.329 2118.66,772.33 2122.84,772.333 
  2127.03,772.339 2131.21,772.347 2135.39,772.357 2139.57,772.371 2143.76,772.387 2147.94,772.406 2152.12,772.427 2156.3,772.452 2160.49,772.479 2164.67,772.51 
  2168.85,772.543 2173.03,772.58 2177.22,772.62 2181.4,772.664 2185.58,772.711 2189.76,772.761 2193.95,772.815 2198.13,772.873 2202.31,772.935 2206.49,773.001 
  2210.68,773.07 2214.86,773.144 2219.04,773.222 2223.22,773.304 2227.41,773.39 2231.59,773.481 2235.77,773.577 2239.95,773.677 2244.14,773.782 2248.32,773.892 
  2252.5,774.006 2256.68,774.126 2260.87,774.251 2265.05,774.381 2269.23,774.517 2273.41,774.658 2277.6,774.805 2281.78,774.957 2285.96,775.116 2290.14,775.28 
  
  "/>
<circle clip-path="url(#clip3502)" cx="927.157" cy="764.165" r="14" fill="#e26f46" fill-rule="evenodd" fill-opacity="1" stroke="#000000" stroke-opacity="1" stroke-width="3.2"/>
<circle clip-path="url(#clip3502)" cx="416.037" cy="765.807" r="14" fill="#e26f46" fill-rule="evenodd" fill-opacity="1" stroke="#000000" stroke-opacity="1" stroke-width="3.2"/>
<circle clip-path="url(#clip3502)" cx="2204.96" cy="772.976" r="14" fill="#e26f46" fill-rule="evenodd" fill-opacity="1" stroke="#000000" stroke-opacity="1" stroke-width="3.2"/>
<circle clip-path="url(#clip3502)" cx="884.563" cy="762.431" r="14" fill="#e26f46" fill-rule="evenodd" fill-opacity="1" stroke="#000000" stroke-opacity="1" stroke-width="3.2"/>
<circle clip-path="url(#clip3502)" cx="1054.94" cy="766.801" r="14" fill="#e26f46" fill-rule="evenodd" fill-opacity="1" stroke="#000000" stroke-opacity="1" stroke-width="3.2"/>
<path clip-path="url(#clip3500)" d="
M1481.63 312.204 L2280.76 312.204 L2280.76 130.764 L1481.63 130.764  Z
  " fill="#ffffff" fill-rule="evenodd" fill-opacity="1"/>
<polyline clip-path="url(#clip3500)" style="stroke:#000000; stroke-width:4; stroke-opacity:1; fill:none" points="
  1481.63,312.204 2280.76,312.204 2280.76,130.764 1481.63,130.764 1481.63,312.204 
  "/>
<polyline clip-path="url(#clip3500)" style="stroke:#000000; stroke-width:4; stroke-opacity:1; fill:none" points="
  1505.63,191.244 1649.63,191.244 
  "/>
<g clip-path="url(#clip3500)">
<text style="fill:#000000; fill-opacity:1; font-family:Arial,Helvetica Neue,Helvetica,sans-serif; font-size:48px; text-anchor:start;" transform="rotate(0, 1673.63, 208.744)" x="1673.63" y="208.744">MAP with 95% confidence</text>
</g>
<circle clip-path="url(#clip3500)" cx="1589.63" cy="251.724" r="21" fill="#e26f46" fill-rule="evenodd" fill-opacity="1" stroke="#000000" stroke-opacity="1" stroke-width="3.2"/>
<g clip-path="url(#clip3500)">
<text style="fill:#000000; fill-opacity:1; font-family:Arial,Helvetica Neue,Helvetica,sans-serif; font-size:48px; text-anchor:start;" transform="rotate(0, 1673.63, 269.224)" x="1673.63" y="269.224">data</text>
</g>
</svg>
