<?xml version="1.0" encoding="utf-8"?>
<svg xmlns="http://www.w3.org/2000/svg" xmlns:xlink="http://www.w3.org/1999/xlink" width="600" height="400" viewBox="0 0 2400 1600">
<defs>
  <clipPath id="clip4700">
    <rect x="0" y="0" width="2400" height="1600"/>
  </clipPath>
</defs>
<path clip-path="url(#clip4700)" d="
M0 1600 L2400 1600 L2400 0 L0 0  Z
  " fill="#ffffff" fill-rule="evenodd" fill-opacity="1"/>
<defs>
  <clipPath id="clip4701">
    <rect x="480" y="0" width="1681" height="1600"/>
  </clipPath>
</defs>
<path clip-path="url(#clip4700)" d="
M120.832 1500.68 L2352.76 1500.68 L2352.76 47.2441 L120.832 47.2441  Z
  " fill="#ffffff" fill-rule="evenodd" fill-opacity="1"/>
<defs>
  <clipPath id="clip4702">
    <rect x="120" y="47" width="2233" height="1454"/>
  </clipPath>
</defs>
<polyline clip-path="url(#clip4702)" style="stroke:#000000; stroke-width:2; stroke-opacity:0.1; fill:none" points="
  243.592,1500.68 243.592,47.2441 
  "/>
<polyline clip-path="url(#clip4702)" style="stroke:#000000; stroke-width:2; stroke-opacity:0.1; fill:none" points="
  740.193,1500.68 740.193,47.2441 
  "/>
<polyline clip-path="url(#clip4702)" style="stroke:#000000; stroke-width:2; stroke-opacity:0.1; fill:none" points="
  1236.79,1500.68 1236.79,47.2441 
  "/>
<polyline clip-path="url(#clip4702)" style="stroke:#000000; stroke-width:2; stroke-opacity:0.1; fill:none" points="
  1733.4,1500.68 1733.4,47.2441 
  "/>
<polyline clip-path="url(#clip4702)" style="stroke:#000000; stroke-width:2; stroke-opacity:0.1; fill:none" points="
  2230,1500.68 2230,47.2441 
  "/>
<polyline clip-path="url(#clip4702)" style="stroke:#000000; stroke-width:2; stroke-opacity:0.1; fill:none" points="
  120.832,1472.44 2352.76,1472.44 
  "/>
<polyline clip-path="url(#clip4702)" style="stroke:#000000; stroke-width:2; stroke-opacity:0.1; fill:none" points="
  120.832,1120.47 2352.76,1120.47 
  "/>
<polyline clip-path="url(#clip4702)" style="stroke:#000000; stroke-width:2; stroke-opacity:0.1; fill:none" points="
  120.832,768.497 2352.76,768.497 
  "/>
<polyline clip-path="url(#clip4702)" style="stroke:#000000; stroke-width:2; stroke-opacity:0.1; fill:none" points="
  120.832,416.528 2352.76,416.528 
  "/>
<polyline clip-path="url(#clip4702)" style="stroke:#000000; stroke-width:2; stroke-opacity:0.1; fill:none" points="
  120.832,64.5587 2352.76,64.5587 
  "/>
<polyline clip-path="url(#clip4700)" style="stroke:#000000; stroke-width:4; stroke-opacity:1; fill:none" points="
  120.832,1500.68 2352.76,1500.68 
  "/>
<polyline clip-path="url(#clip4700)" style="stroke:#000000; stroke-width:4; stroke-opacity:1; fill:none" points="
  120.832,1500.68 120.832,47.2441 
  "/>
<polyline clip-path="url(#clip4700)" style="stroke:#000000; stroke-width:4; stroke-opacity:1; fill:none" points="
  243.592,1500.68 243.592,1483.24 
  "/>
<polyline clip-path="url(#clip4700)" style="stroke:#000000; stroke-width:4; stroke-opacity:1; fill:none" points="
  740.193,1500.68 740.193,1483.24 
  "/>
<polyline clip-path="url(#clip4700)" style="stroke:#000000; stroke-width:4; stroke-opacity:1; fill:none" points="
  1236.79,1500.68 1236.79,1483.24 
  "/>
<polyline clip-path="url(#clip4700)" style="stroke:#000000; stroke-width:4; stroke-opacity:1; fill:none" points="
  1733.4,1500.68 1733.4,1483.24 
  "/>
<polyline clip-path="url(#clip4700)" style="stroke:#000000; stroke-width:4; stroke-opacity:1; fill:none" points="
  2230,1500.68 2230,1483.24 
  "/>
<polyline clip-path="url(#clip4700)" style="stroke:#000000; stroke-width:4; stroke-opacity:1; fill:none" points="
  120.832,1472.44 147.615,1472.44 
  "/>
<polyline clip-path="url(#clip4700)" style="stroke:#000000; stroke-width:4; stroke-opacity:1; fill:none" points="
  120.832,1120.47 147.615,1120.47 
  "/>
<polyline clip-path="url(#clip4700)" style="stroke:#000000; stroke-width:4; stroke-opacity:1; fill:none" points="
  120.832,768.497 147.615,768.497 
  "/>
<polyline clip-path="url(#clip4700)" style="stroke:#000000; stroke-width:4; stroke-opacity:1; fill:none" points="
  120.832,416.528 147.615,416.528 
  "/>
<polyline clip-path="url(#clip4700)" style="stroke:#000000; stroke-width:4; stroke-opacity:1; fill:none" points="
  120.832,64.5587 147.615,64.5587 
  "/>
<g clip-path="url(#clip4700)">
<text style="fill:#000000; fill-opacity:1; font-family:Arial,Helvetica Neue,Helvetica,sans-serif; font-size:48px; text-anchor:middle;" transform="rotate(0, 243.592, 1554.68)" x="243.592" y="1554.68">0.00</text>
</g>
<g clip-path="url(#clip4700)">
<text style="fill:#000000; fill-opacity:1; font-family:Arial,Helvetica Neue,Helvetica,sans-serif; font-size:48px; text-anchor:middle;" transform="rotate(0, 740.193, 1554.68)" x="740.193" y="1554.68">0.25</text>
</g>
<g clip-path="url(#clip4700)">
<text style="fill:#000000; fill-opacity:1; font-family:Arial,Helvetica Neue,Helvetica,sans-serif; font-size:48px; text-anchor:middle;" transform="rotate(0, 1236.79, 1554.68)" x="1236.79" y="1554.68">0.50</text>
</g>
<g clip-path="url(#clip4700)">
<text style="fill:#000000; fill-opacity:1; font-family:Arial,Helvetica Neue,Helvetica,sans-serif; font-size:48px; text-anchor:middle;" transform="rotate(0, 1733.4, 1554.68)" x="1733.4" y="1554.68">0.75</text>
</g>
<g clip-path="url(#clip4700)">
<text style="fill:#000000; fill-opacity:1; font-family:Arial,Helvetica Neue,Helvetica,sans-serif; font-size:48px; text-anchor:middle;" transform="rotate(0, 2230, 1554.68)" x="2230" y="1554.68">1.00</text>
</g>
<g clip-path="url(#clip4700)">
<text style="fill:#000000; fill-opacity:1; font-family:Arial,Helvetica Neue,Helvetica,sans-serif; font-size:48px; text-anchor:end;" transform="rotate(0, 96.8319, 1489.94)" x="96.8319" y="1489.94">-2</text>
</g>
<g clip-path="url(#clip4700)">
<text style="fill:#000000; fill-opacity:1; font-family:Arial,Helvetica Neue,Helvetica,sans-serif; font-size:48px; text-anchor:end;" transform="rotate(0, 96.8319, 1137.97)" x="96.8319" y="1137.97">-1</text>
</g>
<g clip-path="url(#clip4700)">
<text style="fill:#000000; fill-opacity:1; font-family:Arial,Helvetica Neue,Helvetica,sans-serif; font-size:48px; text-anchor:end;" transform="rotate(0, 96.8319, 785.997)" x="96.8319" y="785.997">0</text>
</g>
<g clip-path="url(#clip4700)">
<text style="fill:#000000; fill-opacity:1; font-family:Arial,Helvetica Neue,Helvetica,sans-serif; font-size:48px; text-anchor:end;" transform="rotate(0, 96.8319, 434.028)" x="96.8319" y="434.028">1</text>
</g>
<g clip-path="url(#clip4700)">
<text style="fill:#000000; fill-opacity:1; font-family:Arial,Helvetica Neue,Helvetica,sans-serif; font-size:48px; text-anchor:end;" transform="rotate(0, 96.8319, 82.0587)" x="96.8319" y="82.0587">2</text>
</g>
<path clip-path="url(#clip4702)" d="
M243.592 1152.74 L247.572 1143.12 L251.553 1133.77 L255.534 1124.69 L259.515 1115.87 L263.496 1107.3 L267.476 1098.96 L271.457 1090.87 L275.438 1082.99 L279.419 1075.33 
  L283.399 1067.87 L287.38 1060.61 L291.361 1053.54 L295.342 1046.66 L299.322 1039.94 L303.303 1033.39 L307.284 1026.99 L311.265 1020.75 L315.246 1014.65 L319.226 1008.68 
  L323.207 1002.85 L327.188 997.136 L331.169 991.539 L335.149 986.054 L339.13 980.675 L343.111 975.396 L347.092 970.213 L351.072 965.12 L355.053 960.114 L359.034 955.191 
  L363.015 950.346 L366.996 945.577 L370.976 940.879 L374.957 936.25 L378.938 931.687 L382.919 927.187 L386.899 922.748 L390.88 918.368 L394.861 914.044 L398.842 909.775 
  L402.823 905.559 L406.803 901.395 L410.784 897.281 L414.765 893.217 L418.746 889.2 L422.726 885.231 L426.707 881.308 L430.688 877.43 L434.669 873.598 L438.649 869.811 
  L442.63 866.068 L446.611 862.369 L450.592 858.714 L454.573 855.102 L458.553 851.535 L462.534 848.011 L466.515 844.53 L470.496 841.094 L474.476 837.702 L478.457 834.354 
  L482.438 831.051 L486.419 827.792 L490.399 824.579 L494.38 821.411 L498.361 818.289 L502.342 815.214 L506.323 812.185 L510.303 809.204 L514.284 806.27 L518.265 803.384 
  L522.246 800.547 L526.226 797.76 L530.207 795.021 L534.188 792.333 L538.169 789.696 L542.149 787.11 L546.13 784.575 L550.111 782.093 L554.092 779.663 L558.073 777.286 
  L562.053 774.963 L566.034 772.694 L570.015 770.48 L573.996 768.32 L577.976 766.216 L581.957 764.167 L585.938 762.175 L589.919 760.239 L593.899 758.36 L597.88 756.539 
  L601.861 754.775 L605.842 753.07 L609.823 751.422 L613.803 749.834 L617.784 748.304 L621.765 746.833 L625.746 745.422 L629.726 744.07 L633.707 742.779 L637.688 741.547 
  L641.669 740.375 L645.65 739.264 L649.63 738.214 L653.611 737.223 L657.592 736.294 L661.573 735.425 L665.553 734.618 L669.534 733.871 L673.515 733.185 L677.496 732.56 
  L681.476 731.996 L685.457 731.493 L689.438 731.05 L693.419 730.669 L697.4 730.348 L701.38 730.087 L705.361 729.888 L709.342 729.748 L713.323 729.669 L717.303 729.65 
  L721.284 729.691 L725.265 729.791 L729.246 729.952 L733.226 730.171 L737.207 730.45 L741.188 730.787 L745.169 731.183 L749.15 731.638 L753.13 732.15 L757.111 732.721 
  L761.092 733.349 L765.073 734.034 L769.053 734.776 L773.034 735.575 L777.015 736.43 L780.996 737.341 L784.976 738.307 L788.957 739.329 L792.938 740.405 L796.919 741.536 
  L800.9 742.721 L804.88 743.96 L808.861 745.252 L812.842 746.598 L816.823 747.995 L820.803 749.445 L824.784 750.946 L828.765 752.499 L832.746 754.103 L836.726 755.757 
  L840.707 757.461 L844.688 759.215 L848.669 761.017 L852.65 762.869 L856.63 764.769 L860.611 766.716 L864.592 768.711 L868.573 770.753 L872.553 772.841 L876.534 774.975 
  L880.515 777.155 L884.496 779.38 L888.476 781.649 L892.457 783.962 L896.438 786.32 L900.419 788.72 L904.4 791.163 L908.38 793.649 L912.361 796.176 L916.342 798.744 
  L920.323 801.354 L924.303 804.004 L928.284 806.694 L932.265 809.423 L936.246 812.192 L940.227 814.999 L944.207 817.844 L948.188 820.726 L952.169 823.646 L956.15 826.603 
  L960.13 829.595 L964.111 832.624 L968.092 835.688 L972.073 838.786 L976.053 841.919 L980.034 845.086 L984.015 848.287 L987.996 851.52 L991.977 854.786 L995.957 858.084 
  L999.938 861.413 L1003.92 864.774 L1007.9 868.165 L1011.88 871.587 L1015.86 875.038 L1019.84 878.519 L1023.82 882.028 L1027.8 885.566 L1031.78 889.132 L1035.77 892.726 
  L1039.75 896.346 L1043.73 899.993 L1047.71 903.666 L1051.69 907.364 L1055.67 911.088 L1059.65 914.837 L1063.63 918.61 L1067.61 922.406 L1071.59 926.226 L1075.57 930.069 
  L1079.55 933.934 L1083.53 937.822 L1087.52 941.73 L1091.5 945.66 L1095.48 949.61 L1099.46 953.581 L1103.44 957.571 L1107.42 961.58 L1111.4 965.608 L1115.38 969.654 
  L1119.36 973.718 L1123.34 977.799 L1127.32 981.897 L1131.3 986.011 L1135.28 990.141 L1139.27 994.286 L1143.25 998.446 L1147.23 1002.62 L1151.21 1006.81 L1155.19 1011.01 
  L1159.17 1015.23 L1163.15 1019.45 L1167.13 1023.69 L1171.11 1027.94 L1175.09 1032.2 L1179.07 1036.48 L1183.05 1040.76 L1187.03 1045.05 L1191.02 1049.35 L1195 1053.65 
  L1198.98 1057.97 L1202.96 1062.29 L1206.94 1066.62 L1210.92 1070.96 L1214.9 1075.3 L1218.88 1079.65 L1222.86 1084 L1226.84 1088.35 L1230.82 1092.71 L1234.8 1097.07 
  L1238.78 1101.43 L1242.77 1105.8 L1246.75 1110.17 L1250.73 1114.53 L1254.71 1118.9 L1258.69 1123.27 L1262.67 1127.63 L1266.65 1131.99 L1270.63 1136.36 L1274.61 1140.71 
  L1278.59 1145.07 L1282.57 1149.42 L1286.55 1153.76 L1290.53 1158.1 L1294.52 1162.44 L1298.5 1166.77 L1302.48 1171.09 L1306.46 1175.4 L1310.44 1179.7 L1314.42 1184 
  L1318.4 1188.28 L1322.38 1192.56 L1326.36 1196.82 L1330.34 1201.08 L1334.32 1205.31 L1338.3 1209.54 L1342.28 1213.76 L1346.27 1217.95 L1350.25 1222.14 L1354.23 1226.31 
  L1358.21 1230.46 L1362.19 1234.59 L1366.17 1238.71 L1370.15 1242.81 L1374.13 1246.89 L1378.11 1250.95 L1382.09 1254.99 L1386.07 1259.01 L1390.05 1263.01 L1394.03 1266.99 
  L1398.02 1270.94 L1402 1274.87 L1405.98 1278.77 L1409.96 1282.65 L1413.94 1286.51 L1417.92 1290.33 L1421.9 1294.13 L1425.88 1297.91 L1429.86 1301.65 L1433.84 1305.37 
  L1437.82 1309.05 L1441.8 1312.71 L1445.78 1316.33 L1449.77 1319.93 L1453.75 1323.49 L1457.73 1327.01 L1461.71 1330.51 L1465.69 1333.97 L1469.67 1337.39 L1473.65 1340.78 
  L1477.63 1344.13 L1481.61 1347.45 L1485.59 1350.73 L1489.57 1353.97 L1493.55 1357.17 L1497.53 1360.33 L1501.52 1363.45 L1505.5 1366.53 L1509.48 1369.57 L1513.46 1372.57 
  L1517.44 1375.53 L1521.42 1378.44 L1525.4 1381.31 L1529.38 1384.14 L1533.36 1386.92 L1537.34 1389.65 L1541.32 1392.34 L1545.3 1394.99 L1549.28 1397.58 L1553.27 1400.13 
  L1557.25 1402.63 L1561.23 1405.09 L1565.21 1407.49 L1569.19 1409.85 L1573.17 1412.15 L1577.15 1414.41 L1581.13 1416.61 L1585.11 1418.77 L1589.09 1420.87 L1593.07 1422.92 
  L1597.05 1424.92 L1601.03 1426.86 L1605.02 1428.76 L1609 1430.59 L1612.98 1432.38 L1616.96 1434.11 L1620.94 1435.79 L1624.92 1437.41 L1628.9 1438.97 L1632.88 1440.48 
  L1636.86 1441.94 L1640.84 1443.33 L1644.82 1444.68 L1648.8 1445.96 L1652.78 1447.19 L1656.77 1448.36 L1660.75 1449.48 L1664.73 1450.53 L1668.71 1451.53 L1672.69 1452.47 
  L1676.67 1453.36 L1680.65 1454.18 L1684.63 1454.95 L1688.61 1455.65 L1692.59 1456.3 L1696.57 1456.89 L1700.55 1457.42 L1704.53 1457.9 L1708.52 1458.31 L1712.5 1458.67 
  L1716.48 1458.96 L1720.46 1459.2 L1724.44 1459.37 L1728.42 1459.49 L1732.4 1459.55 L1736.38 1459.55 L1740.36 1459.49 L1744.34 1459.37 L1748.32 1459.19 L1752.3 1458.95 
  L1756.28 1458.65 L1760.27 1458.3 L1764.25 1457.88 L1768.23 1457.4 L1772.21 1456.87 L1776.19 1456.28 L1780.17 1455.63 L1784.15 1454.92 L1788.13 1454.15 L1792.11 1453.32 
  L1796.09 1452.43 L1800.07 1451.49 L1804.05 1450.48 L1808.03 1449.42 L1812.02 1448.3 L1816 1447.12 L1819.98 1445.89 L1823.96 1444.6 L1827.94 1443.24 L1831.92 1441.83 
  L1835.9 1440.37 L1839.88 1438.84 L1843.86 1437.26 L1847.84 1435.63 L1851.82 1433.93 L1855.8 1432.18 L1859.78 1430.37 L1863.77 1428.5 L1867.75 1426.58 L1871.73 1424.6 
  L1875.71 1422.56 L1879.69 1420.47 L1883.67 1418.32 L1887.65 1416.12 L1891.63 1413.86 L1895.61 1411.54 L1899.59 1409.17 L1903.57 1406.74 L1907.55 1404.26 L1911.53 1401.72 
  L1915.52 1399.12 L1919.5 1396.47 L1923.48 1393.77 L1927.46 1391 L1931.44 1388.19 L1935.42 1385.32 L1939.4 1382.39 L1943.38 1379.41 L1947.36 1376.38 L1951.34 1373.29 
  L1955.32 1370.15 L1959.3 1366.95 L1963.28 1363.7 L1967.27 1360.4 L1971.25 1357.04 L1975.23 1353.63 L1979.21 1350.17 L1983.19 1346.66 L1987.17 1343.1 L1991.15 1339.48 
  L1995.13 1335.82 L1999.11 1332.1 L2003.09 1328.34 L2007.07 1324.53 L2011.05 1320.67 L2015.03 1316.76 L2019.02 1312.81 L2023 1308.82 L2026.98 1304.78 L2030.96 1300.7 
  L2034.94 1296.58 L2038.92 1292.43 L2042.9 1288.23 L2046.88 1284 L2050.86 1279.73 L2054.84 1275.44 L2058.82 1271.12 L2062.8 1266.77 L2066.78 1262.39 L2070.77 1258 
  L2074.75 1253.59 L2078.73 1249.17 L2082.71 1244.73 L2086.69 1240.29 L2090.67 1235.85 L2094.65 1231.42 L2098.63 1226.99 L2102.61 1222.58 L2106.59 1218.18 L2110.57 1213.82 
  L2114.55 1209.48 L2118.53 1205.19 L2122.52 1200.94 L2126.5 1196.75 L2130.48 1192.63 L2134.46 1188.58 L2138.44 1184.61 L2142.42 1180.74 L2146.4 1176.97 L2150.38 1173.32 
  L2154.36 1169.8 L2158.34 1166.42 L2162.32 1163.2 L2166.3 1160.14 L2170.28 1157.27 L2174.27 1154.6 L2178.25 1152.14 L2182.23 1149.92 L2186.21 1147.94 L2190.19 1146.23 
  L2194.17 1144.81 L2198.15 1143.68 L2202.13 1142.88 L2206.11 1142.42 L2210.09 1142.31 L2214.07 1142.59 L2218.05 1143.26 L2222.03 1144.35 L2226.02 1145.87 L2230 1147.85 
  L2230 376.273 L2226.02 384.976 L2222.03 393.381 L2218.05 401.499 L2214.07 409.345 L2210.09 416.93 L2206.11 424.268 L2202.13 431.371 L2198.15 438.253 L2194.17 444.925 
  L2190.19 451.401 L2186.21 457.693 L2182.23 463.813 L2178.25 469.772 L2174.27 475.582 L2170.28 481.255 L2166.3 486.799 L2162.32 492.226 L2158.34 497.545 L2154.36 502.764 
  L2150.38 507.892 L2146.4 512.938 L2142.42 517.908 L2138.44 522.809 L2134.46 527.648 L2130.48 532.43 L2126.5 537.162 L2122.52 541.847 L2118.53 546.49 L2114.55 551.095 
  L2110.57 555.666 L2106.59 560.206 L2102.61 564.717 L2098.63 569.203 L2094.65 573.664 L2090.67 578.104 L2086.69 582.523 L2082.71 586.923 L2078.73 591.305 L2074.75 595.669 
  L2070.77 600.015 L2066.78 604.345 L2062.8 608.658 L2058.82 612.954 L2054.84 617.233 L2050.86 621.495 L2046.88 625.739 L2042.9 629.964 L2038.92 634.169 L2034.94 638.355 
  L2030.96 642.519 L2026.98 646.661 L2023 650.78 L2019.02 654.875 L2015.03 658.944 L2011.05 662.987 L2007.07 667.002 L2003.09 670.987 L1999.11 674.942 L1995.13 678.866 
  L1991.15 682.756 L1987.17 686.611 L1983.19 690.431 L1979.21 694.214 L1975.23 697.958 L1971.25 701.662 L1967.27 705.325 L1963.28 708.946 L1959.3 712.523 L1955.32 716.055 
  L1951.34 719.54 L1947.36 722.979 L1943.38 726.368 L1939.4 729.708 L1935.42 732.997 L1931.44 736.234 L1927.46 739.417 L1923.48 742.547 L1919.5 745.621 L1915.52 748.639 
  L1911.53 751.601 L1907.55 754.504 L1903.57 757.349 L1899.59 760.133 L1895.61 762.858 L1891.63 765.521 L1887.65 768.123 L1883.67 770.662 L1879.69 773.138 L1875.71 775.55 
  L1871.73 777.898 L1867.75 780.182 L1863.77 782.4 L1859.78 784.552 L1855.8 786.638 L1851.82 788.657 L1847.84 790.61 L1843.86 792.495 L1839.88 794.314 L1835.9 796.064 
  L1831.92 797.746 L1827.94 799.361 L1823.96 800.907 L1819.98 802.385 L1816 803.794 L1812.02 805.135 L1808.03 806.408 L1804.05 807.612 L1800.07 808.747 L1796.09 809.814 
  L1792.11 810.813 L1788.13 811.743 L1784.15 812.605 L1780.17 813.399 L1776.19 814.126 L1772.21 814.784 L1768.23 815.375 L1764.25 815.899 L1760.27 816.355 L1756.28 816.745 
  L1752.3 817.068 L1748.32 817.325 L1744.34 817.516 L1740.36 817.642 L1736.38 817.702 L1732.4 817.697 L1728.42 817.627 L1724.44 817.493 L1720.46 817.295 L1716.48 817.034 
  L1712.5 816.709 L1708.52 816.322 L1704.53 815.872 L1700.55 815.361 L1696.57 814.788 L1692.59 814.154 L1688.61 813.459 L1684.63 812.704 L1680.65 811.889 L1676.67 811.015 
  L1672.69 810.082 L1668.71 809.091 L1664.73 808.042 L1660.75 806.935 L1656.77 805.772 L1652.78 804.552 L1648.8 803.275 L1644.82 801.944 L1640.84 800.557 L1636.86 799.116 
  L1632.88 797.62 L1628.9 796.071 L1624.92 794.469 L1620.94 792.814 L1616.96 791.107 L1612.98 789.348 L1609 787.538 L1605.02 785.677 L1601.03 783.766 L1597.05 781.806 
  L1593.07 779.796 L1589.09 777.737 L1585.11 775.63 L1581.13 773.476 L1577.15 771.274 L1573.17 769.025 L1569.19 766.73 L1565.21 764.389 L1561.23 762.003 L1557.25 759.571 
  L1553.27 757.096 L1549.28 754.576 L1545.3 752.014 L1541.32 749.408 L1537.34 746.76 L1533.36 744.069 L1529.38 741.338 L1525.4 738.565 L1521.42 735.752 L1517.44 732.899 
  L1513.46 730.006 L1509.48 727.074 L1505.5 724.104 L1501.52 721.095 L1497.53 718.049 L1493.55 714.965 L1489.57 711.845 L1485.59 708.689 L1481.61 705.497 L1477.63 702.27 
  L1473.65 699.008 L1469.67 695.711 L1465.69 692.381 L1461.71 689.018 L1457.73 685.622 L1453.75 682.193 L1449.77 678.733 L1445.78 675.241 L1441.8 671.719 L1437.82 668.166 
  L1433.84 664.583 L1429.86 660.971 L1425.88 657.33 L1421.9 653.661 L1417.92 649.964 L1413.94 646.239 L1409.96 642.488 L1405.98 638.71 L1402 634.907 L1398.02 631.078 
  L1394.03 627.224 L1390.05 623.346 L1386.07 619.444 L1382.09 615.519 L1378.11 611.571 L1374.13 607.601 L1370.15 603.609 L1366.17 599.597 L1362.19 595.563 L1358.21 591.51 
  L1354.23 587.437 L1350.25 583.345 L1346.27 579.234 L1342.28 575.106 L1338.3 570.96 L1334.32 566.798 L1330.34 562.619 L1326.36 558.425 L1322.38 554.216 L1318.4 549.992 
  L1314.42 545.754 L1310.44 541.503 L1306.46 537.239 L1302.48 532.963 L1298.5 528.676 L1294.52 524.377 L1290.53 520.068 L1286.55 515.749 L1282.57 511.421 L1278.59 507.084 
  L1274.61 502.739 L1270.63 498.387 L1266.65 494.027 L1262.67 489.662 L1258.69 485.291 L1254.71 480.915 L1250.73 476.535 L1246.75 472.151 L1242.77 467.764 L1238.78 463.375 
  L1234.8 458.983 L1230.82 454.591 L1226.84 450.198 L1222.86 445.804 L1218.88 441.412 L1214.9 437.021 L1210.92 432.632 L1206.94 428.245 L1202.96 423.862 L1198.98 419.482 
  L1195 415.107 L1191.02 410.738 L1187.03 406.374 L1183.05 402.016 L1179.07 397.666 L1175.09 393.323 L1171.11 388.989 L1167.13 384.664 L1163.15 380.348 L1159.17 376.043 
  L1155.19 371.749 L1151.21 367.466 L1147.23 363.196 L1143.25 358.939 L1139.27 354.695 L1135.28 350.466 L1131.3 346.251 L1127.32 342.052 L1123.34 337.868 L1119.36 333.702 
  L1115.38 329.553 L1111.4 325.422 L1107.42 321.31 L1103.44 317.216 L1099.46 313.143 L1095.48 309.09 L1091.5 305.059 L1087.52 301.049 L1083.53 297.061 L1079.55 293.096 
  L1075.57 289.155 L1071.59 285.238 L1067.61 281.346 L1063.63 277.479 L1059.65 273.638 L1055.67 269.823 L1051.69 266.035 L1047.71 262.275 L1043.73 258.543 L1039.75 254.84 
  L1035.77 251.166 L1031.78 247.522 L1027.8 243.908 L1023.82 240.325 L1019.84 236.774 L1015.86 233.255 L1011.88 229.768 L1007.9 226.314 L1003.92 222.893 L999.938 219.507 
  L995.957 216.155 L991.977 212.838 L987.996 209.556 L984.015 206.31 L980.034 203.101 L976.053 199.928 L972.073 196.793 L968.092 193.696 L964.111 190.636 L960.13 187.616 
  L956.15 184.634 L952.169 181.691 L948.188 178.789 L944.207 175.926 L940.227 173.105 L936.246 170.324 L932.265 167.584 L928.284 164.887 L924.303 162.231 L920.323 159.618 
  L916.342 157.047 L912.361 154.52 L908.38 152.036 L904.4 149.596 L900.419 147.2 L896.438 144.848 L892.457 142.541 L888.476 140.279 L884.496 138.062 L880.515 135.89 
  L876.534 133.765 L872.553 131.685 L868.573 129.652 L864.592 127.665 L860.611 125.724 L856.63 123.831 L852.65 121.985 L848.669 120.187 L844.688 118.436 L840.707 116.732 
  L836.726 115.077 L832.746 113.47 L828.765 111.912 L824.784 110.401 L820.803 108.94 L816.823 107.528 L812.842 106.164 L808.861 104.85 L804.88 103.586 L800.9 102.37 
  L796.919 101.205 L792.938 100.089 L788.957 99.0231 L784.976 98.0074 L780.996 97.0418 L777.015 96.1266 L773.034 95.2618 L769.053 94.4476 L765.073 93.684 L761.092 92.9713 
  L757.111 92.3095 L753.13 91.6987 L749.15 91.139 L745.169 90.6306 L741.188 90.1735 L737.207 89.768 L733.226 89.4139 L729.246 89.1116 L725.265 88.8611 L721.284 88.6625 
  L717.303 88.5159 L713.323 88.4214 L709.342 88.3792 L705.361 88.3893 L701.38 88.4519 L697.4 88.5672 L693.419 88.7351 L689.438 88.9559 L685.457 89.2297 L681.476 89.5566 
  L677.496 89.9368 L673.515 90.3703 L669.534 90.8574 L665.553 91.3981 L661.573 91.9926 L657.592 92.6412 L653.611 93.3438 L649.63 94.1008 L645.65 94.9122 L641.669 95.7782 
  L637.688 96.699 L633.707 97.6748 L629.726 98.7057 L625.746 99.7919 L621.765 100.934 L617.784 102.131 L613.803 103.385 L609.823 104.694 L605.842 106.06 L601.861 107.482 
  L597.88 108.961 L593.899 110.496 L589.919 112.089 L585.938 113.739 L581.957 115.447 L577.976 117.212 L573.996 119.035 L570.015 120.916 L566.034 122.855 L562.053 124.853 
  L558.073 126.909 L554.092 129.024 L550.111 131.197 L546.13 133.43 L542.149 135.722 L538.169 138.073 L534.188 140.484 L530.207 142.954 L526.226 145.484 L522.246 148.073 
  L518.265 150.722 L514.284 153.43 L510.303 156.198 L506.323 159.025 L502.342 161.912 L498.361 164.859 L494.38 167.864 L490.399 170.929 L486.419 174.052 L482.438 177.234 
  L478.457 180.474 L474.476 183.771 L470.496 187.126 L466.515 190.538 L462.534 194.006 L458.553 197.53 L454.573 201.108 L450.592 204.74 L446.611 208.426 L442.63 212.164 
  L438.649 215.952 L434.669 219.791 L430.688 223.678 L426.707 227.613 L422.726 231.593 L418.746 235.617 L414.765 239.683 L410.784 243.789 L406.803 247.934 L402.823 252.114 
  L398.842 256.327 L394.861 260.572 L390.88 264.844 L386.899 269.14 L382.919 273.459 L378.938 277.795 L374.957 282.146 L370.976 286.508 L366.996 290.876 L363.015 295.245 
  L359.034 299.612 L355.053 303.971 L351.072 308.317 L347.092 312.645 L343.111 316.948 L339.13 321.22 L335.149 325.455 L331.169 329.647 L327.188 333.787 L323.207 337.87 
  L319.226 341.886 L315.246 345.828 L311.265 349.688 L307.284 353.456 L303.303 357.125 L299.322 360.684 L295.342 364.125 L291.361 367.437 L287.38 370.611 L283.399 373.637 
  L279.419 376.503 L275.438 379.2 L271.457 381.717 L267.476 384.043 L263.496 386.168 L259.515 388.079 L255.534 389.767 L251.553 391.221 L247.572 392.429 L243.592 393.381 
   Z
  " fill="#009af9" fill-rule="evenodd" fill-opacity="0.5"/>
<polyline clip-path="url(#clip4702)" style="stroke:#000000; stroke-width:4; stroke-opacity:1; fill:none" points="
  243.592,773.059 247.572,767.772 251.553,762.495 255.534,757.228 259.515,751.974 263.496,746.732 267.476,741.504 271.457,736.291 275.438,731.095 279.419,725.916 
  283.399,720.754 287.38,715.612 291.361,710.491 295.342,705.39 299.322,700.312 303.303,695.257 307.284,690.226 311.265,685.219 315.246,680.239 319.226,675.285 
  323.207,670.359 327.188,665.461 331.169,660.593 335.149,655.755 339.13,650.947 343.111,646.172 347.092,641.429 351.072,636.719 355.053,632.043 359.034,627.402 
  363.015,622.796 366.996,618.226 370.976,613.693 374.957,609.198 378.938,604.741 382.919,600.323 386.899,595.944 390.88,591.606 394.861,587.308 398.842,583.051 
  402.823,578.837 406.803,574.664 410.784,570.535 414.765,566.45 418.746,562.408 422.726,558.412 426.707,554.46 430.688,550.554 434.669,546.695 438.649,542.882 
  442.63,539.116 446.611,535.397 450.592,531.727 454.573,528.105 458.553,524.532 462.534,521.008 466.515,517.534 470.496,514.11 474.476,510.737 478.457,507.414 
  482.438,504.142 486.419,500.922 490.399,497.754 494.38,494.638 498.361,491.574 502.342,488.563 506.323,485.605 510.303,482.701 514.284,479.85 518.265,477.053 
  522.246,474.31 526.226,471.622 530.207,468.988 534.188,466.409 538.169,463.885 542.149,461.416 546.13,459.003 550.111,456.645 554.092,454.343 558.073,452.098 
  562.053,449.908 566.034,447.775 570.015,445.698 573.996,443.677 577.976,441.714 581.957,439.807 585.938,437.957 589.919,436.164 593.899,434.428 597.88,432.75 
  601.861,431.129 605.842,429.565 609.823,428.058 613.803,426.609 617.784,425.218 621.765,423.883 625.746,422.607 629.726,421.388 633.707,420.227 637.688,419.123 
  641.669,418.077 645.65,417.088 649.63,416.157 653.611,415.284 657.592,414.468 661.573,413.709 665.553,413.008 669.534,412.364 673.515,411.778 677.496,411.248 
  681.476,410.776 685.457,410.361 689.438,410.003 693.419,409.702 697.4,409.457 701.38,409.27 705.361,409.138 709.342,409.064 713.323,409.045 717.303,409.083 
  721.284,409.177 725.265,409.326 729.246,409.532 733.226,409.792 737.207,410.109 741.188,410.48 745.169,410.907 749.15,411.388 753.13,411.924 757.111,412.515 
  761.092,413.16 765.073,413.859 769.053,414.612 773.034,415.418 777.015,416.278 780.996,417.191 784.976,418.157 788.957,419.176 792.938,420.247 796.919,421.371 
  800.9,422.546 804.88,423.773 808.861,425.051 812.842,426.381 816.823,427.761 820.803,429.193 824.784,430.674 828.765,432.205 832.746,433.787 836.726,435.417 
  840.707,437.097 844.688,438.825 848.669,440.602 852.65,442.427 856.63,444.3 860.611,446.22 864.592,448.188 868.573,450.202 872.553,452.263 876.534,454.37 
  880.515,456.523 884.496,458.721 888.476,460.964 892.457,463.252 896.438,465.584 900.419,467.96 904.4,470.38 908.38,472.842 912.361,475.348 916.342,477.896 
  920.323,480.486 924.303,483.118 928.284,485.79 932.265,488.504 936.246,491.258 940.227,494.052 944.207,496.885 948.188,499.758 952.169,502.669 956.15,505.618 
  960.13,508.605 964.111,511.63 968.092,514.692 972.073,517.79 976.053,520.924 980.034,524.094 984.015,527.298 987.996,530.538 991.977,533.812 995.957,537.119 
  999.938,540.46 1003.92,543.834 1007.9,547.24 1011.88,550.677 1015.86,554.146 1019.84,557.647 1023.82,561.177 1027.8,564.737 1031.78,568.327 1035.77,571.946 
  1039.75,575.593 1043.73,579.268 1047.71,582.97 1051.69,586.7 1055.67,590.456 1059.65,594.237 1063.63,598.044 1067.61,601.876 1071.59,605.732 1075.57,609.612 
  1079.55,613.515 1083.53,617.441 1087.52,621.39 1091.5,625.359 1095.48,629.35 1099.46,633.362 1103.44,637.394 1107.42,641.445 1111.4,645.515 1115.38,649.603 
  1119.36,653.71 1123.34,657.834 1127.32,661.974 1131.3,666.131 1135.28,670.303 1139.27,674.491 1143.25,678.693 1147.23,682.909 1151.21,687.138 1155.19,691.38 
  1159.17,695.635 1163.15,699.901 1167.13,704.178 1171.11,708.466 1175.09,712.763 1179.07,717.07 1183.05,721.386 1187.03,725.71 1191.02,730.042 1195,734.381 
  1198.98,738.726 1202.96,743.077 1206.94,747.434 1210.92,751.795 1214.9,756.16 1218.88,760.529 1222.86,764.9 1226.84,769.274 1230.82,773.65 1234.8,778.027 
  1238.78,782.404 1242.77,786.782 1246.75,791.158 1250.73,795.534 1254.71,799.907 1258.69,804.279 1262.67,808.647 1266.65,813.011 1270.63,817.371 1274.61,821.726 
  1278.59,826.076 1282.57,830.42 1286.55,834.756 1290.53,839.086 1294.52,843.408 1298.5,847.721 1302.48,852.025 1306.46,856.319 1310.44,860.603 1314.42,864.877 
  1318.4,869.138 1322.38,873.387 1326.36,877.624 1330.34,881.847 1334.32,886.056 1338.3,890.251 1342.28,894.431 1346.27,898.594 1350.25,902.741 1354.23,906.872 
  1358.21,910.984 1362.19,915.079 1366.17,919.154 1370.15,923.21 1374.13,927.246 1378.11,931.262 1382.09,935.256 1386.07,939.228 1390.05,943.178 1394.03,947.105 
  1398.02,951.008 1402,954.887 1405.98,958.741 1409.96,962.57 1413.94,966.373 1417.92,970.149 1421.9,973.898 1425.88,977.619 1429.86,981.312 1433.84,984.976 
  1437.82,988.61 1441.8,992.214 1445.78,995.788 1449.77,999.33 1453.75,1002.84 1457.73,1006.32 1461.71,1009.76 1465.69,1013.17 1469.67,1016.55 1473.65,1019.89 
  1477.63,1023.2 1481.61,1026.47 1485.59,1029.71 1489.57,1032.91 1493.55,1036.07 1497.53,1039.19 1501.52,1042.27 1505.5,1045.32 1509.48,1048.32 1513.46,1051.29 
  1517.44,1054.21 1521.42,1057.1 1525.4,1059.94 1529.38,1062.74 1533.36,1065.49 1537.34,1068.21 1541.32,1070.88 1545.3,1073.5 1549.28,1076.08 1553.27,1078.61 
  1557.25,1081.1 1561.23,1083.55 1565.21,1085.94 1569.19,1088.29 1573.17,1090.59 1577.15,1092.84 1581.13,1095.05 1585.11,1097.2 1589.09,1099.3 1593.07,1101.36 
  1597.05,1103.36 1601.03,1105.32 1605.02,1107.22 1609,1109.07 1612.98,1110.86 1616.96,1112.61 1620.94,1114.3 1624.92,1115.94 1628.9,1117.52 1632.88,1119.05 
  1636.86,1120.53 1640.84,1121.95 1644.82,1123.31 1648.8,1124.62 1652.78,1125.87 1656.77,1127.07 1660.75,1128.21 1664.73,1129.29 1668.71,1130.31 1672.69,1131.28 
  1676.67,1132.19 1680.65,1133.03 1684.63,1133.83 1688.61,1134.56 1692.59,1135.23 1696.57,1135.84 1700.55,1136.39 1704.53,1136.88 1708.52,1137.32 1712.5,1137.69 
  1716.48,1138 1720.46,1138.25 1724.44,1138.43 1728.42,1138.56 1732.4,1138.62 1736.38,1138.62 1740.36,1138.56 1744.34,1138.44 1748.32,1138.26 1752.3,1138.01 
  1756.28,1137.7 1760.27,1137.33 1764.25,1136.89 1768.23,1136.39 1772.21,1135.83 1776.19,1135.2 1780.17,1134.51 1784.15,1133.76 1788.13,1132.94 1792.11,1132.07 
  1796.09,1131.12 1800.07,1130.12 1804.05,1129.05 1808.03,1127.91 1812.02,1126.72 1816,1125.46 1819.98,1124.14 1823.96,1122.75 1827.94,1121.3 1831.92,1119.79 
  1835.9,1118.22 1839.88,1116.58 1843.86,1114.88 1847.84,1113.12 1851.82,1111.29 1855.8,1109.41 1859.78,1107.46 1863.77,1105.45 1867.75,1103.38 1871.73,1101.25 
  1875.71,1099.06 1879.69,1096.81 1883.67,1094.49 1887.65,1092.12 1891.63,1089.69 1895.61,1087.2 1899.59,1084.65 1903.57,1082.04 1907.55,1079.38 1911.53,1076.66 
  1915.52,1073.88 1919.5,1071.05 1923.48,1068.16 1927.46,1065.21 1931.44,1062.21 1935.42,1059.16 1939.4,1056.05 1943.38,1052.89 1947.36,1049.68 1951.34,1046.41 
  1955.32,1043.1 1959.3,1039.74 1963.28,1036.32 1967.27,1032.86 1971.25,1029.35 1975.23,1025.8 1979.21,1022.19 1983.19,1018.55 1987.17,1014.85 1991.15,1011.12 
  1995.13,1007.34 1999.11,1003.52 2003.09,999.663 2007.07,995.765 2011.05,991.828 2015.03,987.855 2019.02,983.845 2023,979.8 2026.98,975.722 2030.96,971.611 
  2034.94,967.469 2038.92,963.297 2042.9,959.097 2046.88,954.869 2050.86,950.615 2054.84,946.337 2058.82,942.035 2062.8,937.712 2066.78,933.369 2070.77,929.008 
  2074.75,924.629 2078.73,920.236 2082.71,915.828 2086.69,911.409 2090.67,906.979 2094.65,902.541 2098.63,898.097 2102.61,893.647 2106.59,889.195 2110.57,884.741 
  2114.55,880.289 2118.53,875.839 2122.52,871.395 2126.5,866.957 2130.48,862.529 2134.46,858.113 2138.44,853.71 2142.42,849.323 2146.4,844.954 2150.38,840.606 
  2154.36,836.281 2158.34,831.982 2162.32,827.711 2166.3,823.47 2170.28,819.262 2174.27,815.09 2178.25,810.957 2182.23,806.865 2186.21,802.817 2190.19,798.817 
  2194.17,794.866 2198.15,790.968 2202.13,787.125 2206.11,783.342 2210.09,779.621 2214.07,775.965 2218.05,772.378 2222.03,768.863 2226.02,765.423 2230,762.062 
  
  "/>
<circle clip-path="url(#clip4702)" cx="243.592" cy="747.57" r="14" fill="#e26f46" fill-rule="evenodd" fill-opacity="1" stroke="#000000" stroke-opacity="1" stroke-width="3.2"/>
<circle clip-path="url(#clip4702)" cx="284.131" cy="696.57" r="14" fill="#e26f46" fill-rule="evenodd" fill-opacity="1" stroke="#000000" stroke-opacity="1" stroke-width="3.2"/>
<circle clip-path="url(#clip4702)" cx="324.669" cy="721.288" r="14" fill="#e26f46" fill-rule="evenodd" fill-opacity="1" stroke="#000000" stroke-opacity="1" stroke-width="3.2"/>
<circle clip-path="url(#clip4702)" cx="365.208" cy="637.15" r="14" fill="#e26f46" fill-rule="evenodd" fill-opacity="1" stroke="#000000" stroke-opacity="1" stroke-width="3.2"/>
<circle clip-path="url(#clip4702)" cx="405.747" cy="654.842" r="14" fill="#e26f46" fill-rule="evenodd" fill-opacity="1" stroke="#000000" stroke-opacity="1" stroke-width="3.2"/>
<circle clip-path="url(#clip4702)" cx="446.286" cy="536.08" r="14" fill="#e26f46" fill-rule="evenodd" fill-opacity="1" stroke="#000000" stroke-opacity="1" stroke-width="3.2"/>
<circle clip-path="url(#clip4702)" cx="486.825" cy="362.078" r="14" fill="#e26f46" fill-rule="evenodd" fill-opacity="1" stroke="#000000" stroke-opacity="1" stroke-width="3.2"/>
<circle clip-path="url(#clip4702)" cx="527.364" cy="413.813" r="14" fill="#e26f46" fill-rule="evenodd" fill-opacity="1" stroke="#000000" stroke-opacity="1" stroke-width="3.2"/>
<circle clip-path="url(#clip4702)" cx="567.903" cy="451.392" r="14" fill="#e26f46" fill-rule="evenodd" fill-opacity="1" stroke="#000000" stroke-opacity="1" stroke-width="3.2"/>
<circle clip-path="url(#clip4702)" cx="608.441" cy="606.241" r="14" fill="#e26f46" fill-rule="evenodd" fill-opacity="1" stroke="#000000" stroke-opacity="1" stroke-width="3.2"/>
<circle clip-path="url(#clip4702)" cx="648.98" cy="393.769" r="14" fill="#e26f46" fill-rule="evenodd" fill-opacity="1" stroke="#000000" stroke-opacity="1" stroke-width="3.2"/>
<circle clip-path="url(#clip4702)" cx="689.519" cy="390.67" r="14" fill="#e26f46" fill-rule="evenodd" fill-opacity="1" stroke="#000000" stroke-opacity="1" stroke-width="3.2"/>
<circle clip-path="url(#clip4702)" cx="730.058" cy="375.619" r="14" fill="#e26f46" fill-rule="evenodd" fill-opacity="1" stroke="#000000" stroke-opacity="1" stroke-width="3.2"/>
<circle clip-path="url(#clip4702)" cx="770.597" cy="350.346" r="14" fill="#e26f46" fill-rule="evenodd" fill-opacity="1" stroke="#000000" stroke-opacity="1" stroke-width="3.2"/>
<circle clip-path="url(#clip4702)" cx="811.136" cy="393.056" r="14" fill="#e26f46" fill-rule="evenodd" fill-opacity="1" stroke="#000000" stroke-opacity="1" stroke-width="3.2"/>
<circle clip-path="url(#clip4702)" cx="851.675" cy="474.954" r="14" fill="#e26f46" fill-rule="evenodd" fill-opacity="1" stroke="#000000" stroke-opacity="1" stroke-width="3.2"/>
<circle clip-path="url(#clip4702)" cx="892.214" cy="427.693" r="14" fill="#e26f46" fill-rule="evenodd" fill-opacity="1" stroke="#000000" stroke-opacity="1" stroke-width="3.2"/>
<circle clip-path="url(#clip4702)" cx="932.752" cy="483.373" r="14" fill="#e26f46" fill-rule="evenodd" fill-opacity="1" stroke="#000000" stroke-opacity="1" stroke-width="3.2"/>
<circle clip-path="url(#clip4702)" cx="973.291" cy="556.771" r="14" fill="#e26f46" fill-rule="evenodd" fill-opacity="1" stroke="#000000" stroke-opacity="1" stroke-width="3.2"/>
<circle clip-path="url(#clip4702)" cx="1013.83" cy="665.207" r="14" fill="#e26f46" fill-rule="evenodd" fill-opacity="1" stroke="#000000" stroke-opacity="1" stroke-width="3.2"/>
<circle clip-path="url(#clip4702)" cx="1054.37" cy="567.984" r="14" fill="#e26f46" fill-rule="evenodd" fill-opacity="1" stroke="#000000" stroke-opacity="1" stroke-width="3.2"/>
<circle clip-path="url(#clip4702)" cx="1094.91" cy="669.116" r="14" fill="#e26f46" fill-rule="evenodd" fill-opacity="1" stroke="#000000" stroke-opacity="1" stroke-width="3.2"/>
<circle clip-path="url(#clip4702)" cx="1135.45" cy="779.353" r="14" fill="#e26f46" fill-rule="evenodd" fill-opacity="1" stroke="#000000" stroke-opacity="1" stroke-width="3.2"/>
<circle clip-path="url(#clip4702)" cx="1175.99" cy="645.185" r="14" fill="#e26f46" fill-rule="evenodd" fill-opacity="1" stroke="#000000" stroke-opacity="1" stroke-width="3.2"/>
<circle clip-path="url(#clip4702)" cx="1216.52" cy="698.778" r="14" fill="#e26f46" fill-rule="evenodd" fill-opacity="1" stroke="#000000" stroke-opacity="1" stroke-width="3.2"/>
<circle clip-path="url(#clip4702)" cx="1257.06" cy="752.271" r="14" fill="#e26f46" fill-rule="evenodd" fill-opacity="1" stroke="#000000" stroke-opacity="1" stroke-width="3.2"/>
<circle clip-path="url(#clip4702)" cx="1297.6" cy="840.24" r="14" fill="#e26f46" fill-rule="evenodd" fill-opacity="1" stroke="#000000" stroke-opacity="1" stroke-width="3.2"/>
<circle clip-path="url(#clip4702)" cx="1338.14" cy="785.293" r="14" fill="#e26f46" fill-rule="evenodd" fill-opacity="1" stroke="#000000" stroke-opacity="1" stroke-width="3.2"/>
<circle clip-path="url(#clip4702)" cx="1378.68" cy="926.36" r="14" fill="#e26f46" fill-rule="evenodd" fill-opacity="1" stroke="#000000" stroke-opacity="1" stroke-width="3.2"/>
<circle clip-path="url(#clip4702)" cx="1419.22" cy="1012.98" r="14" fill="#e26f46" fill-rule="evenodd" fill-opacity="1" stroke="#000000" stroke-opacity="1" stroke-width="3.2"/>
<circle clip-path="url(#clip4702)" cx="1459.76" cy="1082.54" r="14" fill="#e26f46" fill-rule="evenodd" fill-opacity="1" stroke="#000000" stroke-opacity="1" stroke-width="3.2"/>
<circle clip-path="url(#clip4702)" cx="1500.3" cy="1032.8" r="14" fill="#e26f46" fill-rule="evenodd" fill-opacity="1" stroke="#000000" stroke-opacity="1" stroke-width="3.2"/>
<circle clip-path="url(#clip4702)" cx="1540.84" cy="1068.8" r="14" fill="#e26f46" fill-rule="evenodd" fill-opacity="1" stroke="#000000" stroke-opacity="1" stroke-width="3.2"/>
<circle clip-path="url(#clip4702)" cx="1581.37" cy="1229.46" r="14" fill="#e26f46" fill-rule="evenodd" fill-opacity="1" stroke="#000000" stroke-opacity="1" stroke-width="3.2"/>
<circle clip-path="url(#clip4702)" cx="1621.91" cy="1103.51" r="14" fill="#e26f46" fill-rule="evenodd" fill-opacity="1" stroke="#000000" stroke-opacity="1" stroke-width="3.2"/>
<circle clip-path="url(#clip4702)" cx="1662.45" cy="1025.59" r="14" fill="#e26f46" fill-rule="evenodd" fill-opacity="1" stroke="#000000" stroke-opacity="1" stroke-width="3.2"/>
<circle clip-path="url(#clip4702)" cx="1702.99" cy="1078.88" r="14" fill="#e26f46" fill-rule="evenodd" fill-opacity="1" stroke="#000000" stroke-opacity="1" stroke-width="3.2"/>
<circle clip-path="url(#clip4702)" cx="1743.53" cy="1066.54" r="14" fill="#e26f46" fill-rule="evenodd" fill-opacity="1" stroke="#000000" stroke-opacity="1" stroke-width="3.2"/>
<circle clip-path="url(#clip4702)" cx="1784.07" cy="1089.3" r="14" fill="#e26f46" fill-rule="evenodd" fill-opacity="1" stroke="#000000" stroke-opacity="1" stroke-width="3.2"/>
<circle clip-path="url(#clip4702)" cx="1824.61" cy="1151.36" r="14" fill="#e26f46" fill-rule="evenodd" fill-opacity="1" stroke="#000000" stroke-opacity="1" stroke-width="3.2"/>
<circle clip-path="url(#clip4702)" cx="1865.15" cy="1137.13" r="14" fill="#e26f46" fill-rule="evenodd" fill-opacity="1" stroke="#000000" stroke-opacity="1" stroke-width="3.2"/>
<circle clip-path="url(#clip4702)" cx="1905.69" cy="1196.4" r="14" fill="#e26f46" fill-rule="evenodd" fill-opacity="1" stroke="#000000" stroke-opacity="1" stroke-width="3.2"/>
<circle clip-path="url(#clip4702)" cx="1946.22" cy="1134.42" r="14" fill="#e26f46" fill-rule="evenodd" fill-opacity="1" stroke="#000000" stroke-opacity="1" stroke-width="3.2"/>
<circle clip-path="url(#clip4702)" cx="1986.76" cy="1036.96" r="14" fill="#e26f46" fill-rule="evenodd" fill-opacity="1" stroke="#000000" stroke-opacity="1" stroke-width="3.2"/>
<circle clip-path="url(#clip4702)" cx="2027.3" cy="974.053" r="14" fill="#e26f46" fill-rule="evenodd" fill-opacity="1" stroke="#000000" stroke-opacity="1" stroke-width="3.2"/>
<circle clip-path="url(#clip4702)" cx="2067.84" cy="917.154" r="14" fill="#e26f46" fill-rule="evenodd" fill-opacity="1" stroke="#000000" stroke-opacity="1" stroke-width="3.2"/>
<circle clip-path="url(#clip4702)" cx="2108.38" cy="778.434" r="14" fill="#e26f46" fill-rule="evenodd" fill-opacity="1" stroke="#000000" stroke-opacity="1" stroke-width="3.2"/>
<circle clip-path="url(#clip4702)" cx="2148.92" cy="766.269" r="14" fill="#e26f46" fill-rule="evenodd" fill-opacity="1" stroke="#000000" stroke-opacity="1" stroke-width="3.2"/>
<circle clip-path="url(#clip4702)" cx="2189.46" cy="798.979" r="14" fill="#e26f46" fill-rule="evenodd" fill-opacity="1" stroke="#000000" stroke-opacity="1" stroke-width="3.2"/>
<circle clip-path="url(#clip4702)" cx="2230" cy="839.514" r="14" fill="#e26f46" fill-rule="evenodd" fill-opacity="1" stroke="#000000" stroke-opacity="1" stroke-width="3.2"/>
<polyline clip-path="url(#clip4702)" style="stroke:#000000; stroke-width:12; stroke-opacity:1; fill:none" stroke-dasharray="6, 12" points="
  184,834.449 194.281,823.173 204.562,811.838 299.629,706.436 394.695,606.604 451.826,553.07 508.957,506.552 557.26,473.824 605.564,447.962 631.799,437.013 
  658.035,428.346 684.271,422.02 710.506,418.078 758.88,417.142 807.254,424.417 859.115,441.137 910.977,466.647 941.021,485.186 971.064,506.281 1001.11,529.743 
  1031.15,555.359 1137.95,660.234 1231.6,762.712 1333.7,874.705 1436.41,976.26 1464.8,1000.9 1493.19,1023.67 1521.58,1044.38 1549.97,1062.87 1604,1091.39 
  1658.02,1110.51 1686.11,1116.54 1714.2,1119.82 1742.28,1120.33 1770.37,1118.06 1794.01,1114.02 1817.66,1108.04 1841.3,1100.16 1864.94,1090.43 1922.67,1059.25 
  1980.4,1018.39 2034.67,972.379 2088.94,920.375 2175.89,828.445 2262.83,732.01 2276.21,717.231 2289.59,702.544 
  "/>
<path clip-path="url(#clip4700)" d="
M1481.63 372.684 L2280.76 372.684 L2280.76 130.764 L1481.63 130.764  Z
  " fill="#ffffff" fill-rule="evenodd" fill-opacity="1"/>
<polyline clip-path="url(#clip4700)" style="stroke:#000000; stroke-width:4; stroke-opacity:1; fill:none" points="
  1481.63,372.684 2280.76,372.684 2280.76,130.764 1481.63,130.764 1481.63,372.684 
  "/>
<polyline clip-path="url(#clip4700)" style="stroke:#000000; stroke-width:4; stroke-opacity:1; fill:none" points="
  1505.63,191.244 1649.63,191.244 
  "/>
<g clip-path="url(#clip4700)">
<text style="fill:#000000; fill-opacity:1; font-family:Arial,Helvetica Neue,Helvetica,sans-serif; font-size:48px; text-anchor:start;" transform="rotate(0, 1673.63, 208.744)" x="1673.63" y="208.744">MAP with 95% confidence</text>
</g>
<circle clip-path="url(#clip4700)" cx="1589.63" cy="251.724" r="21" fill="#e26f46" fill-rule="evenodd" fill-opacity="1" stroke="#000000" stroke-opacity="1" stroke-width="3.2"/>
<g clip-path="url(#clip4700)">
<text style="fill:#000000; fill-opacity:1; font-family:Arial,Helvetica Neue,Helvetica,sans-serif; font-size:48px; text-anchor:start;" transform="rotate(0, 1673.63, 269.224)" x="1673.63" y="269.224">data</text>
</g>
<polyline clip-path="url(#clip4700)" style="stroke:#000000; stroke-width:12; stroke-opacity:1; fill:none" stroke-dasharray="6, 12" points="
  1505.63,312.204 1649.63,312.204 
  "/>
<g clip-path="url(#clip4700)">
<text style="fill:#000000; fill-opacity:1; font-family:Arial,Helvetica Neue,Helvetica,sans-serif; font-size:48px; text-anchor:start;" transform="rotate(0, 1673.63, 329.704)" x="1673.63" y="329.704">true</text>
</g>
</svg>
