<?xml version="1.0" encoding="utf-8"?>
<svg xmlns="http://www.w3.org/2000/svg" xmlns:xlink="http://www.w3.org/1999/xlink" width="600" height="400" viewBox="0 0 2400 1600">
<defs>
  <clipPath id="clip6900">
    <rect x="0" y="0" width="2400" height="1600"/>
  </clipPath>
</defs>
<path clip-path="url(#clip6900)" d="
M0 1600 L2400 1600 L2400 0 L0 0  Z
  " fill="#ffffff" fill-rule="evenodd" fill-opacity="1"/>
<defs>
  <clipPath id="clip6901">
    <rect x="480" y="0" width="1681" height="1600"/>
  </clipPath>
</defs>
<path clip-path="url(#clip6900)" d="
M200.059 1479.96 L2352.76 1479.96 L2352.76 47.2441 L200.059 47.2441  Z
  " fill="#ffffff" fill-rule="evenodd" fill-opacity="1"/>
<defs>
  <clipPath id="clip6902">
    <rect x="200" y="47" width="2154" height="1434"/>
  </clipPath>
</defs>
<polyline clip-path="url(#clip6902)" style="stroke:#000000; stroke-width:2; stroke-opacity:0.1; fill:none" points="
  318.461,1479.96 318.461,47.2441 
  "/>
<polyline clip-path="url(#clip6902)" style="stroke:#000000; stroke-width:2; stroke-opacity:0.1; fill:none" points="
  797.434,1479.96 797.434,47.2441 
  "/>
<polyline clip-path="url(#clip6902)" style="stroke:#000000; stroke-width:2; stroke-opacity:0.1; fill:none" points="
  1276.41,1479.96 1276.41,47.2441 
  "/>
<polyline clip-path="url(#clip6902)" style="stroke:#000000; stroke-width:2; stroke-opacity:0.1; fill:none" points="
  1755.38,1479.96 1755.38,47.2441 
  "/>
<polyline clip-path="url(#clip6902)" style="stroke:#000000; stroke-width:2; stroke-opacity:0.1; fill:none" points="
  2234.35,1479.96 2234.35,47.2441 
  "/>
<polyline clip-path="url(#clip6902)" style="stroke:#000000; stroke-width:2; stroke-opacity:0.1; fill:none" points="
  200.059,1431.86 2352.76,1431.86 
  "/>
<polyline clip-path="url(#clip6902)" style="stroke:#000000; stroke-width:2; stroke-opacity:0.1; fill:none" points="
  200.059,1206.8 2352.76,1206.8 
  "/>
<polyline clip-path="url(#clip6902)" style="stroke:#000000; stroke-width:2; stroke-opacity:0.1; fill:none" points="
  200.059,981.743 2352.76,981.743 
  "/>
<polyline clip-path="url(#clip6902)" style="stroke:#000000; stroke-width:2; stroke-opacity:0.1; fill:none" points="
  200.059,756.687 2352.76,756.687 
  "/>
<polyline clip-path="url(#clip6902)" style="stroke:#000000; stroke-width:2; stroke-opacity:0.1; fill:none" points="
  200.059,531.631 2352.76,531.631 
  "/>
<polyline clip-path="url(#clip6902)" style="stroke:#000000; stroke-width:2; stroke-opacity:0.1; fill:none" points="
  200.059,306.575 2352.76,306.575 
  "/>
<polyline clip-path="url(#clip6902)" style="stroke:#000000; stroke-width:2; stroke-opacity:0.1; fill:none" points="
  200.059,81.5188 2352.76,81.5188 
  "/>
<polyline clip-path="url(#clip6900)" style="stroke:#000000; stroke-width:4; stroke-opacity:1; fill:none" points="
  200.059,1479.96 2352.76,1479.96 
  "/>
<polyline clip-path="url(#clip6900)" style="stroke:#000000; stroke-width:4; stroke-opacity:1; fill:none" points="
  200.059,1479.96 200.059,47.2441 
  "/>
<polyline clip-path="url(#clip6900)" style="stroke:#000000; stroke-width:4; stroke-opacity:1; fill:none" points="
  318.461,1479.96 318.461,1462.77 
  "/>
<polyline clip-path="url(#clip6900)" style="stroke:#000000; stroke-width:4; stroke-opacity:1; fill:none" points="
  797.434,1479.96 797.434,1462.77 
  "/>
<polyline clip-path="url(#clip6900)" style="stroke:#000000; stroke-width:4; stroke-opacity:1; fill:none" points="
  1276.41,1479.96 1276.41,1462.77 
  "/>
<polyline clip-path="url(#clip6900)" style="stroke:#000000; stroke-width:4; stroke-opacity:1; fill:none" points="
  1755.38,1479.96 1755.38,1462.77 
  "/>
<polyline clip-path="url(#clip6900)" style="stroke:#000000; stroke-width:4; stroke-opacity:1; fill:none" points="
  2234.35,1479.96 2234.35,1462.77 
  "/>
<polyline clip-path="url(#clip6900)" style="stroke:#000000; stroke-width:4; stroke-opacity:1; fill:none" points="
  200.059,1431.86 225.891,1431.86 
  "/>
<polyline clip-path="url(#clip6900)" style="stroke:#000000; stroke-width:4; stroke-opacity:1; fill:none" points="
  200.059,1206.8 225.891,1206.8 
  "/>
<polyline clip-path="url(#clip6900)" style="stroke:#000000; stroke-width:4; stroke-opacity:1; fill:none" points="
  200.059,981.743 225.891,981.743 
  "/>
<polyline clip-path="url(#clip6900)" style="stroke:#000000; stroke-width:4; stroke-opacity:1; fill:none" points="
  200.059,756.687 225.891,756.687 
  "/>
<polyline clip-path="url(#clip6900)" style="stroke:#000000; stroke-width:4; stroke-opacity:1; fill:none" points="
  200.059,531.631 225.891,531.631 
  "/>
<polyline clip-path="url(#clip6900)" style="stroke:#000000; stroke-width:4; stroke-opacity:1; fill:none" points="
  200.059,306.575 225.891,306.575 
  "/>
<polyline clip-path="url(#clip6900)" style="stroke:#000000; stroke-width:4; stroke-opacity:1; fill:none" points="
  200.059,81.5188 225.891,81.5188 
  "/>
<g clip-path="url(#clip6900)">
<text style="fill:#000000; fill-opacity:1; font-family:Arial,Helvetica Neue,Helvetica,sans-serif; font-size:48px; text-anchor:middle;" transform="rotate(0, 318.461, 1533.96)" x="318.461" y="1533.96">0.00</text>
</g>
<g clip-path="url(#clip6900)">
<text style="fill:#000000; fill-opacity:1; font-family:Arial,Helvetica Neue,Helvetica,sans-serif; font-size:48px; text-anchor:middle;" transform="rotate(0, 797.434, 1533.96)" x="797.434" y="1533.96">0.25</text>
</g>
<g clip-path="url(#clip6900)">
<text style="fill:#000000; fill-opacity:1; font-family:Arial,Helvetica Neue,Helvetica,sans-serif; font-size:48px; text-anchor:middle;" transform="rotate(0, 1276.41, 1533.96)" x="1276.41" y="1533.96">0.50</text>
</g>
<g clip-path="url(#clip6900)">
<text style="fill:#000000; fill-opacity:1; font-family:Arial,Helvetica Neue,Helvetica,sans-serif; font-size:48px; text-anchor:middle;" transform="rotate(0, 1755.38, 1533.96)" x="1755.38" y="1533.96">0.75</text>
</g>
<g clip-path="url(#clip6900)">
<text style="fill:#000000; fill-opacity:1; font-family:Arial,Helvetica Neue,Helvetica,sans-serif; font-size:48px; text-anchor:middle;" transform="rotate(0, 2234.35, 1533.96)" x="2234.35" y="1533.96">1.00</text>
</g>
<g clip-path="url(#clip6900)">
<text style="fill:#000000; fill-opacity:1; font-family:Arial,Helvetica Neue,Helvetica,sans-serif; font-size:48px; text-anchor:end;" transform="rotate(0, 176.059, 1449.36)" x="176.059" y="1449.36">-1.5</text>
</g>
<g clip-path="url(#clip6900)">
<text style="fill:#000000; fill-opacity:1; font-family:Arial,Helvetica Neue,Helvetica,sans-serif; font-size:48px; text-anchor:end;" transform="rotate(0, 176.059, 1224.3)" x="176.059" y="1224.3">-1.0</text>
</g>
<g clip-path="url(#clip6900)">
<text style="fill:#000000; fill-opacity:1; font-family:Arial,Helvetica Neue,Helvetica,sans-serif; font-size:48px; text-anchor:end;" transform="rotate(0, 176.059, 999.243)" x="176.059" y="999.243">-0.5</text>
</g>
<g clip-path="url(#clip6900)">
<text style="fill:#000000; fill-opacity:1; font-family:Arial,Helvetica Neue,Helvetica,sans-serif; font-size:48px; text-anchor:end;" transform="rotate(0, 176.059, 774.187)" x="176.059" y="774.187">0.0</text>
</g>
<g clip-path="url(#clip6900)">
<text style="fill:#000000; fill-opacity:1; font-family:Arial,Helvetica Neue,Helvetica,sans-serif; font-size:48px; text-anchor:end;" transform="rotate(0, 176.059, 549.131)" x="176.059" y="549.131">0.5</text>
</g>
<g clip-path="url(#clip6900)">
<text style="fill:#000000; fill-opacity:1; font-family:Arial,Helvetica Neue,Helvetica,sans-serif; font-size:48px; text-anchor:end;" transform="rotate(0, 176.059, 324.075)" x="176.059" y="324.075">1.0</text>
</g>
<g clip-path="url(#clip6900)">
<text style="fill:#000000; fill-opacity:1; font-family:Arial,Helvetica Neue,Helvetica,sans-serif; font-size:48px; text-anchor:end;" transform="rotate(0, 176.059, 99.0188)" x="176.059" y="99.0188">1.5</text>
</g>
<path clip-path="url(#clip6902)" d="
M318.461 1010.25 L322.3 1000.66 L326.14 991.257 L329.979 982.034 L333.819 972.987 L337.658 964.11 L341.498 955.4 L345.337 946.85 L349.177 938.456 L353.016 930.213 
  L356.856 922.116 L360.695 914.159 L364.535 906.339 L368.374 898.649 L372.213 891.086 L376.053 883.645 L379.892 876.322 L383.732 869.113 L387.571 862.012 L391.411 855.017 
  L395.25 848.124 L399.09 841.329 L402.929 834.628 L406.769 828.018 L410.608 821.497 L414.448 815.062 L418.287 808.709 L422.127 802.436 L425.966 796.241 L429.805 790.121 
  L433.645 784.075 L437.484 778.101 L441.324 772.197 L445.163 766.361 L449.003 760.592 L452.842 754.888 L456.682 749.249 L460.521 743.674 L464.361 738.161 L468.2 732.709 
  L472.04 727.318 L475.879 721.988 L479.718 716.718 L483.558 711.507 L487.397 706.355 L491.237 701.261 L495.076 696.226 L498.916 691.25 L502.755 686.332 L506.595 681.473 
  L510.434 676.672 L514.274 671.929 L518.113 667.245 L521.953 662.62 L525.792 658.054 L529.632 653.548 L533.471 649.101 L537.31 644.714 L541.15 640.388 L544.989 636.122 
  L548.829 631.918 L552.668 627.774 L556.508 623.693 L560.347 619.675 L564.187 615.719 L568.026 611.826 L571.866 607.997 L575.705 604.233 L579.545 600.533 L583.384 596.898 
  L587.223 593.329 L591.063 589.826 L594.902 586.39 L598.742 583.021 L602.581 579.719 L606.421 576.485 L610.26 573.32 L614.1 570.223 L617.939 567.196 L621.779 564.239 
  L625.618 561.351 L629.458 558.535 L633.297 555.789 L637.137 553.114 L640.976 550.511 L644.815 547.98 L648.655 545.522 L652.494 543.136 L656.334 540.823 L660.173 538.583 
  L664.013 536.417 L667.852 534.324 L671.692 532.306 L675.531 530.362 L679.371 528.492 L683.21 526.697 L687.05 524.976 L690.889 523.331 L694.728 521.761 L698.568 520.266 
  L702.407 518.846 L706.247 517.502 L710.086 516.233 L713.926 515.04 L717.765 513.922 L721.605 512.88 L725.444 511.914 L729.284 511.024 L733.123 510.209 L736.963 509.469 
  L740.802 508.806 L744.642 508.217 L748.481 507.704 L752.32 507.267 L756.16 506.904 L759.999 506.617 L763.839 506.404 L767.678 506.266 L771.518 506.203 L775.357 506.214 
  L779.197 506.3 L783.036 506.459 L786.876 506.692 L790.715 506.999 L794.555 507.379 L798.394 507.832 L802.233 508.357 L806.073 508.955 L809.912 509.626 L813.752 510.368 
  L817.591 511.181 L821.431 512.066 L825.27 513.022 L829.11 514.048 L832.949 515.145 L836.789 516.311 L840.628 517.547 L844.468 518.851 L848.307 520.225 L852.147 521.666 
  L855.986 523.176 L859.825 524.753 L863.665 526.397 L867.504 528.107 L871.344 529.884 L875.183 531.726 L879.023 533.634 L882.862 535.606 L886.702 537.643 L890.541 539.743 
  L894.381 541.907 L898.22 544.134 L902.06 546.423 L905.899 548.775 L909.739 551.187 L913.578 553.661 L917.417 556.195 L921.257 558.789 L925.096 561.442 L928.936 564.154 
  L932.775 566.925 L936.615 569.753 L940.454 572.639 L944.294 575.581 L948.133 578.58 L951.973 581.635 L955.812 584.744 L959.652 587.909 L963.491 591.127 L967.33 594.399 
  L971.17 597.724 L975.009 601.101 L978.849 604.53 L982.688 608.011 L986.528 611.542 L990.367 615.124 L994.207 618.755 L998.046 622.435 L1001.89 626.163 L1005.73 629.94 
  L1009.56 633.764 L1013.4 637.634 L1017.24 641.551 L1021.08 645.513 L1024.92 649.521 L1028.76 653.572 L1032.6 657.668 L1036.44 661.807 L1040.28 665.988 L1044.12 670.212 
  L1047.96 674.477 L1051.8 678.783 L1055.64 683.129 L1059.48 687.514 L1063.32 691.939 L1067.16 696.403 L1071 700.904 L1074.84 705.442 L1078.67 710.018 L1082.51 714.629 
  L1086.35 719.275 L1090.19 723.957 L1094.03 728.672 L1097.87 733.422 L1101.71 738.204 L1105.55 743.018 L1109.39 747.865 L1113.23 752.742 L1117.07 757.65 L1120.91 762.587 
  L1124.75 767.554 L1128.59 772.55 L1132.43 777.573 L1136.27 782.624 L1140.11 787.701 L1143.95 792.804 L1147.79 797.933 L1151.62 803.086 L1155.46 808.264 L1159.3 813.465 
  L1163.14 818.688 L1166.98 823.934 L1170.82 829.201 L1174.66 834.489 L1178.5 839.798 L1182.34 845.125 L1186.18 850.472 L1190.02 855.836 L1193.86 861.218 L1197.7 866.617 
  L1201.54 872.032 L1205.38 877.462 L1209.22 882.907 L1213.06 888.366 L1216.9 893.838 L1220.74 899.323 L1224.57 904.82 L1228.41 910.328 L1232.25 915.846 L1236.09 921.375 
  L1239.93 926.912 L1243.77 932.458 L1247.61 938.012 L1251.45 943.572 L1255.29 949.139 L1259.13 954.711 L1262.97 960.288 L1266.81 965.87 L1270.65 971.454 L1274.49 977.041 
  L1278.33 982.63 L1282.17 988.22 L1286.01 993.81 L1289.85 999.4 L1293.68 1004.99 L1297.52 1010.58 L1301.36 1016.16 L1305.2 1021.74 L1309.04 1027.32 L1312.88 1032.89 
  L1316.72 1038.45 L1320.56 1044.01 L1324.4 1049.57 L1328.24 1055.11 L1332.08 1060.64 L1335.92 1066.17 L1339.76 1071.68 L1343.6 1077.19 L1347.44 1082.68 L1351.28 1088.16 
  L1355.12 1093.62 L1358.96 1099.08 L1362.8 1104.51 L1366.63 1109.93 L1370.47 1115.33 L1374.31 1120.72 L1378.15 1126.09 L1381.99 1131.43 L1385.83 1136.76 L1389.67 1142.07 
  L1393.51 1147.35 L1397.35 1152.62 L1401.19 1157.86 L1405.03 1163.07 L1408.87 1168.26 L1412.71 1173.43 L1416.55 1178.56 L1420.39 1183.67 L1424.23 1188.76 L1428.07 1193.81 
  L1431.91 1198.83 L1435.75 1203.83 L1439.58 1208.79 L1443.42 1213.72 L1447.26 1218.62 L1451.1 1223.48 L1454.94 1228.31 L1458.78 1233.1 L1462.62 1237.86 L1466.46 1242.57 
  L1470.3 1247.26 L1474.14 1251.9 L1477.98 1256.5 L1481.82 1261.07 L1485.66 1265.59 L1489.5 1270.07 L1493.34 1274.5 L1497.18 1278.9 L1501.02 1283.25 L1504.86 1287.55 
  L1508.69 1291.81 L1512.53 1296.02 L1516.37 1300.19 L1520.21 1304.31 L1524.05 1308.38 L1527.89 1312.39 L1531.73 1316.36 L1535.57 1320.28 L1539.41 1324.15 L1543.25 1327.96 
  L1547.09 1331.72 L1550.93 1335.43 L1554.77 1339.08 L1558.61 1342.68 L1562.45 1346.22 L1566.29 1349.7 L1570.13 1353.13 L1573.97 1356.5 L1577.81 1359.81 L1581.64 1363.06 
  L1585.48 1366.25 L1589.32 1369.38 L1593.16 1372.45 L1597 1375.46 L1600.84 1378.4 L1604.68 1381.29 L1608.52 1384.1 L1612.36 1386.86 L1616.2 1389.55 L1620.04 1392.17 
  L1623.88 1394.73 L1627.72 1397.22 L1631.56 1399.65 L1635.4 1402.01 L1639.24 1404.3 L1643.08 1406.52 L1646.92 1408.67 L1650.76 1410.76 L1654.59 1412.77 L1658.43 1414.71 
  L1662.27 1416.59 L1666.11 1418.39 L1669.95 1420.12 L1673.79 1421.78 L1677.63 1423.36 L1681.47 1424.88 L1685.31 1426.32 L1689.15 1427.68 L1692.99 1428.98 L1696.83 1430.2 
  L1700.67 1431.34 L1704.51 1432.41 L1708.35 1433.41 L1712.19 1434.33 L1716.03 1435.17 L1719.87 1435.94 L1723.7 1436.63 L1727.54 1437.25 L1731.38 1437.79 L1735.22 1438.25 
  L1739.06 1438.64 L1742.9 1438.95 L1746.74 1439.18 L1750.58 1439.34 L1754.42 1439.41 L1758.26 1439.41 L1762.1 1439.34 L1765.94 1439.18 L1769.78 1438.95 L1773.62 1438.64 
  L1777.46 1438.25 L1781.3 1437.78 L1785.14 1437.24 L1788.98 1436.62 L1792.82 1435.92 L1796.65 1435.14 L1800.49 1434.28 L1804.33 1433.34 L1808.17 1432.33 L1812.01 1431.24 
  L1815.85 1430.07 L1819.69 1428.83 L1823.53 1427.5 L1827.37 1426.1 L1831.21 1424.62 L1835.05 1423.06 L1838.89 1421.43 L1842.73 1419.72 L1846.57 1417.93 L1850.41 1416.06 
  L1854.25 1414.12 L1858.09 1412.1 L1861.93 1410 L1865.77 1407.83 L1869.6 1405.58 L1873.44 1403.25 L1877.28 1400.85 L1881.12 1398.38 L1884.96 1395.83 L1888.8 1393.2 
  L1892.64 1390.5 L1896.48 1387.72 L1900.32 1384.87 L1904.16 1381.95 L1908 1378.95 L1911.84 1375.88 L1915.68 1372.74 L1919.52 1369.52 L1923.36 1366.23 L1927.2 1362.87 
  L1931.04 1359.43 L1934.88 1355.93 L1938.71 1352.35 L1942.55 1348.71 L1946.39 1344.99 L1950.23 1341.2 L1954.07 1337.35 L1957.91 1333.43 L1961.75 1329.43 L1965.59 1325.37 
  L1969.43 1321.25 L1973.27 1317.06 L1977.11 1312.8 L1980.95 1308.47 L1984.79 1304.09 L1988.63 1299.63 L1992.47 1295.12 L1996.31 1290.54 L2000.15 1285.91 L2003.99 1281.21 
  L2007.83 1276.45 L2011.66 1271.64 L2015.5 1266.76 L2019.34 1261.83 L2023.18 1256.85 L2027.02 1251.81 L2030.86 1246.73 L2034.7 1241.59 L2038.54 1236.4 L2042.38 1231.16 
  L2046.22 1225.88 L2050.06 1220.55 L2053.9 1215.18 L2057.74 1209.77 L2061.58 1204.33 L2065.42 1198.85 L2069.26 1193.33 L2073.1 1187.78 L2076.94 1182.21 L2080.78 1176.61 
  L2084.61 1170.99 L2088.45 1165.35 L2092.29 1159.7 L2096.13 1154.04 L2099.97 1148.37 L2103.81 1142.69 L2107.65 1137.02 L2111.49 1131.35 L2115.33 1125.7 L2119.17 1120.06 
  L2123.01 1114.44 L2126.85 1108.85 L2130.69 1103.3 L2134.53 1097.78 L2138.37 1092.32 L2142.21 1086.91 L2146.05 1081.56 L2149.89 1076.29 L2153.72 1071.09 L2157.56 1065.99 
  L2161.4 1060.98 L2165.24 1056.08 L2169.08 1051.31 L2172.92 1046.66 L2176.76 1042.15 L2180.6 1037.79 L2184.44 1033.6 L2188.28 1029.59 L2192.12 1025.76 L2195.96 1022.14 
  L2199.8 1018.73 L2203.64 1015.56 L2207.48 1012.63 L2211.32 1009.96 L2215.16 1007.56 L2219 1005.45 L2222.84 1003.64 L2226.67 1002.15 L2230.51 1000.99 L2234.35 1000.17 
  L2234.35 496.742 L2230.51 504.526 L2226.67 512.164 L2222.84 519.664 L2219 527.03 L2215.16 534.269 L2211.32 541.387 L2207.48 548.391 L2203.64 555.288 L2199.8 562.083 
  L2195.96 568.783 L2192.12 575.394 L2188.28 581.923 L2184.44 588.374 L2180.6 594.754 L2176.76 601.068 L2172.92 607.322 L2169.08 613.519 L2165.24 619.664 L2161.4 625.763 
  L2157.56 631.818 L2153.72 637.834 L2149.89 643.813 L2146.05 649.758 L2142.21 655.674 L2138.37 661.56 L2134.53 667.421 L2130.69 673.257 L2126.85 679.07 L2123.01 684.862 
  L2119.17 690.633 L2115.33 696.385 L2111.49 702.118 L2107.65 707.831 L2103.81 713.526 L2099.97 719.203 L2096.13 724.861 L2092.29 730.5 L2088.45 736.12 L2084.61 741.719 
  L2080.78 747.298 L2076.94 752.855 L2073.1 758.389 L2069.26 763.9 L2065.42 769.386 L2061.58 774.846 L2057.74 780.28 L2053.9 785.684 L2050.06 791.06 L2046.22 796.404 
  L2042.38 801.715 L2038.54 806.993 L2034.7 812.235 L2030.86 817.44 L2027.02 822.607 L2023.18 827.734 L2019.34 832.819 L2015.5 837.861 L2011.66 842.859 L2007.83 847.811 
  L2003.99 852.715 L2000.15 857.57 L1996.31 862.375 L1992.47 867.127 L1988.63 871.827 L1984.79 876.471 L1980.95 881.06 L1977.11 885.59 L1973.27 890.062 L1969.43 894.474 
  L1965.59 898.824 L1961.75 903.111 L1957.91 907.335 L1954.07 911.493 L1950.23 915.585 L1946.39 919.61 L1942.55 923.566 L1938.71 927.453 L1934.88 931.269 L1931.04 935.014 
  L1927.2 938.686 L1923.36 942.285 L1919.52 945.81 L1915.68 949.26 L1911.84 952.634 L1908 955.932 L1904.16 959.152 L1900.32 962.294 L1896.48 965.358 L1892.64 968.343 
  L1888.8 971.248 L1884.96 974.072 L1881.12 976.816 L1877.28 979.479 L1873.44 982.06 L1869.6 984.559 L1865.77 986.976 L1861.93 989.309 L1858.09 991.56 L1854.25 993.728 
  L1850.41 995.812 L1846.57 997.812 L1842.73 999.728 L1838.89 1001.56 L1835.05 1003.31 L1831.21 1004.97 L1827.37 1006.55 L1823.53 1008.05 L1819.69 1009.46 L1815.85 1010.78 
  L1812.01 1012.03 L1808.17 1013.18 L1804.33 1014.26 L1800.49 1015.25 L1796.65 1016.15 L1792.82 1016.97 L1788.98 1017.71 L1785.14 1018.37 L1781.3 1018.94 L1777.46 1019.42 
  L1773.62 1019.83 L1769.78 1020.15 L1765.94 1020.39 L1762.1 1020.55 L1758.26 1020.63 L1754.42 1020.62 L1750.58 1020.54 L1746.74 1020.37 L1742.9 1020.13 L1739.06 1019.8 
  L1735.22 1019.39 L1731.38 1018.91 L1727.54 1018.35 L1723.7 1017.7 L1719.87 1016.98 L1716.03 1016.19 L1712.19 1015.31 L1708.35 1014.36 L1704.51 1013.34 L1700.67 1012.23 
  L1696.83 1011.06 L1692.99 1009.8 L1689.15 1008.48 L1685.31 1007.08 L1681.47 1005.61 L1677.63 1004.06 L1673.79 1002.44 L1669.95 1000.75 L1666.11 998.995 L1662.27 997.166 
  L1658.43 995.266 L1654.59 993.297 L1650.76 991.26 L1646.92 989.154 L1643.08 986.98 L1639.24 984.74 L1635.4 982.433 L1631.56 980.061 L1627.72 977.623 L1623.88 975.121 
  L1620.04 972.554 L1616.2 969.924 L1612.36 967.231 L1608.52 964.476 L1604.68 961.659 L1600.84 958.781 L1597 955.843 L1593.16 952.844 L1589.32 949.787 L1585.48 946.671 
  L1581.64 943.497 L1577.81 940.266 L1573.97 936.977 L1570.13 933.633 L1566.29 930.234 L1562.45 926.779 L1558.61 923.27 L1554.77 919.708 L1550.93 916.093 L1547.09 912.425 
  L1543.25 908.706 L1539.41 904.935 L1535.57 901.115 L1531.73 897.245 L1527.89 893.325 L1524.05 889.357 L1520.21 885.342 L1516.37 881.279 L1512.53 877.17 L1508.69 873.015 
  L1504.86 868.815 L1501.02 864.571 L1497.18 860.283 L1493.34 855.952 L1489.5 851.578 L1485.66 847.162 L1481.82 842.706 L1477.98 838.209 L1474.14 833.672 L1470.3 829.097 
  L1466.46 824.483 L1462.62 819.831 L1458.78 815.142 L1454.94 810.417 L1451.1 805.657 L1447.26 800.862 L1443.42 796.032 L1439.58 791.169 L1435.75 786.273 L1431.91 781.345 
  L1428.07 776.386 L1424.23 771.396 L1420.39 766.376 L1416.55 761.327 L1412.71 756.249 L1408.87 751.144 L1405.03 746.011 L1401.19 740.852 L1397.35 735.668 L1393.51 730.458 
  L1389.67 725.225 L1385.83 719.968 L1381.99 714.688 L1378.15 709.387 L1374.31 704.064 L1370.47 698.721 L1366.63 693.358 L1362.8 687.976 L1358.96 682.576 L1355.12 677.158 
  L1351.28 671.724 L1347.44 666.274 L1343.6 660.808 L1339.76 655.328 L1335.92 649.835 L1332.08 644.328 L1328.24 638.81 L1324.4 633.28 L1320.56 627.739 L1316.72 622.189 
  L1312.88 616.629 L1309.04 611.062 L1305.2 605.487 L1301.36 599.905 L1297.52 594.317 L1293.68 588.724 L1289.85 583.126 L1286.01 577.525 L1282.17 571.921 L1278.33 566.316 
  L1274.49 560.708 L1270.65 555.101 L1266.81 549.494 L1262.97 543.887 L1259.13 538.283 L1255.29 532.682 L1251.45 527.084 L1247.61 521.49 L1243.77 515.901 L1239.93 510.318 
  L1236.09 504.742 L1232.25 499.173 L1228.41 493.613 L1224.57 488.061 L1220.74 482.519 L1216.9 476.988 L1213.06 471.468 L1209.22 465.96 L1205.38 460.465 L1201.54 454.984 
  L1197.7 449.518 L1193.86 444.066 L1190.02 438.631 L1186.18 433.212 L1182.34 427.811 L1178.5 422.429 L1174.66 417.065 L1170.82 411.722 L1166.98 406.399 L1163.14 401.098 
  L1159.3 395.818 L1155.46 390.562 L1151.62 385.329 L1147.79 380.121 L1143.95 374.938 L1140.11 369.781 L1136.27 364.651 L1132.43 359.548 L1128.59 354.473 L1124.75 349.427 
  L1120.91 344.411 L1117.07 339.425 L1113.23 334.47 L1109.39 329.546 L1105.55 324.655 L1101.71 319.798 L1097.87 314.974 L1094.03 310.185 L1090.19 305.431 L1086.35 300.712 
  L1082.51 296.031 L1078.67 291.387 L1074.84 286.78 L1071 282.212 L1067.16 277.684 L1063.32 273.195 L1059.48 268.747 L1055.64 264.34 L1051.8 259.975 L1047.96 255.652 
  L1044.12 251.373 L1040.28 247.137 L1036.44 242.945 L1032.6 238.798 L1028.76 234.697 L1024.92 230.641 L1021.08 226.632 L1017.24 222.671 L1013.4 218.757 L1009.56 214.891 
  L1005.73 211.075 L1001.89 207.308 L998.046 203.59 L994.207 199.923 L990.367 196.307 L986.528 192.743 L982.688 189.231 L978.849 185.771 L975.009 182.364 L971.17 179.011 
  L967.33 175.711 L963.491 172.466 L959.652 169.276 L955.812 166.141 L951.973 163.062 L948.133 160.04 L944.294 157.074 L940.454 154.164 L936.615 151.313 L932.775 148.519 
  L928.936 145.784 L925.096 143.107 L921.257 140.49 L917.417 137.932 L913.578 135.433 L909.739 132.995 L905.899 130.617 L902.06 128.301 L898.22 126.045 L894.381 123.851 
  L890.541 121.719 L886.702 119.649 L882.862 117.642 L879.023 115.698 L875.183 113.816 L871.344 111.998 L867.504 110.244 L863.665 108.554 L859.825 106.928 L855.986 105.366 
  L852.147 103.87 L848.307 102.438 L844.468 101.072 L840.628 99.7708 L836.789 98.5357 L832.949 97.3666 L829.11 96.2637 L825.27 95.2273 L821.431 94.2576 L817.591 93.3548 
  L813.752 92.519 L809.912 91.7505 L806.073 91.0496 L802.233 90.4163 L798.394 89.8508 L794.555 89.3535 L790.715 88.9244 L786.876 88.5637 L783.036 88.2716 L779.197 88.0483 
  L775.357 87.894 L771.518 87.8087 L767.678 87.7927 L763.839 87.8462 L759.999 87.9692 L756.16 88.162 L752.32 88.4247 L748.481 88.7574 L744.642 89.1604 L740.802 89.6336 
  L736.963 90.1774 L733.123 90.7918 L729.284 91.477 L725.444 92.233 L721.605 93.0601 L717.765 93.9584 L713.926 94.928 L710.086 95.969 L706.247 97.0816 L702.407 98.2659 
  L698.568 99.522 L694.728 100.85 L690.889 102.25 L687.05 103.722 L683.21 105.267 L679.371 106.884 L675.531 108.573 L671.692 110.335 L667.852 112.17 L664.013 114.077 
  L660.173 116.058 L656.334 118.111 L652.494 120.238 L648.655 122.437 L644.815 124.71 L640.976 127.056 L637.137 129.476 L633.297 131.968 L629.458 134.535 L625.618 137.174 
  L621.779 139.887 L617.939 142.674 L614.1 145.534 L610.26 148.468 L606.421 151.475 L602.581 154.555 L598.742 157.709 L594.902 160.936 L591.063 164.236 L587.223 167.609 
  L583.384 171.056 L579.545 174.575 L575.705 178.166 L571.866 181.831 L568.026 185.567 L564.187 189.375 L560.347 193.255 L556.508 197.207 L552.668 201.229 L548.829 205.322 
  L544.989 209.485 L541.15 213.718 L537.31 218.02 L533.471 222.391 L529.632 226.83 L525.792 231.336 L521.953 235.909 L518.113 240.548 L514.274 245.251 L510.434 250.019 
  L506.595 254.85 L502.755 259.743 L498.916 264.697 L495.076 269.71 L491.237 274.782 L487.397 279.911 L483.558 285.096 L479.718 290.334 L475.879 295.625 L472.04 300.965 
  L468.2 306.354 L464.361 311.79 L460.521 317.269 L456.682 322.79 L452.842 328.351 L449.003 333.948 L445.163 339.578 L441.324 345.24 L437.484 350.929 L433.645 356.642 
  L429.805 362.376 L425.966 368.128 L422.127 373.892 L418.287 379.666 L414.448 385.444 L410.608 391.223 L406.769 396.998 L402.929 402.763 L399.09 408.514 L395.25 414.245 
  L391.411 419.951 L387.571 425.626 L383.732 431.264 L379.892 436.859 L376.053 442.404 L372.213 447.893 L368.374 453.319 L364.535 458.675 L360.695 463.954 L356.856 469.148 
  L353.016 474.252 L349.177 479.256 L345.337 484.153 L341.498 488.935 L337.658 493.596 L333.819 498.127 L329.979 502.519 L326.14 506.767 L322.3 510.86 L318.461 514.793 
   Z
  " fill="#009af9" fill-rule="evenodd" fill-opacity="0.5"/>
<polyline clip-path="url(#clip6902)" style="stroke:#000000; stroke-width:4; stroke-opacity:1; fill:none" points="
  318.461,762.521 322.3,755.76 326.14,749.012 329.979,742.277 333.819,735.557 337.658,728.853 341.498,722.168 345.337,715.502 349.177,708.856 353.016,702.232 
  356.856,695.632 360.695,689.056 364.535,682.507 368.374,675.984 372.213,669.49 376.053,663.025 379.892,656.591 383.732,650.188 387.571,643.819 391.411,637.484 
  395.25,631.185 399.09,624.921 402.929,618.695 406.769,612.508 410.608,606.36 414.448,600.253 418.287,594.187 422.127,588.164 425.966,582.184 429.805,576.249 
  433.645,570.359 437.484,564.515 441.324,558.718 445.163,552.97 449.003,547.27 452.842,541.62 456.682,536.02 460.521,530.472 464.361,524.975 468.2,519.532 
  472.04,514.142 475.879,508.806 479.718,503.526 483.558,498.301 487.397,493.133 491.237,488.022 495.076,482.968 498.916,477.974 502.755,473.038 506.595,468.161 
  510.434,463.345 514.274,458.59 518.113,453.896 521.953,449.265 525.792,444.695 529.632,440.189 533.471,435.746 537.31,431.367 541.15,427.053 544.989,422.804 
  548.829,418.62 552.668,414.502 556.508,410.45 560.347,406.465 564.187,402.547 568.026,398.697 571.866,394.914 575.705,391.2 579.545,387.554 583.384,383.977 
  587.223,380.469 591.063,377.031 594.902,373.663 598.742,370.365 602.581,367.137 606.421,363.98 610.26,360.894 614.1,357.879 617.939,354.935 621.779,352.063 
  625.618,349.263 629.458,346.535 633.297,343.879 637.137,341.295 640.976,338.784 644.815,336.345 648.655,333.98 652.494,331.687 656.334,329.467 660.173,327.32 
  664.013,325.247 667.852,323.247 671.692,321.321 675.531,319.467 679.371,317.688 683.21,315.982 687.05,314.349 690.889,312.79 694.728,311.305 698.568,309.894 
  702.407,308.556 706.247,307.292 710.086,306.101 713.926,304.984 717.765,303.94 721.605,302.97 725.444,302.074 729.284,301.25 733.123,300.5 736.963,299.823 
  740.802,299.22 744.642,298.689 748.481,298.231 752.32,297.846 756.16,297.533 759.999,297.293 763.839,297.125 767.678,297.03 771.518,297.006 775.357,297.054 
  779.197,297.174 783.036,297.365 786.876,297.628 790.715,297.962 794.555,298.366 798.394,298.841 802.233,299.387 806.073,300.002 809.912,300.688 813.752,301.443 
  817.591,302.268 821.431,303.162 825.27,304.125 829.11,305.156 832.949,306.256 836.789,307.423 840.628,308.659 844.468,309.962 848.307,311.331 852.147,312.768 
  855.986,314.271 859.825,315.84 863.665,317.475 867.504,319.176 871.344,320.941 875.183,322.771 879.023,324.666 882.862,326.624 886.702,328.646 890.541,330.731 
  894.381,332.879 898.22,335.09 902.06,337.362 905.899,339.696 909.739,342.091 913.578,344.547 917.417,347.063 921.257,349.639 925.096,352.275 928.936,354.969 
  932.775,357.722 936.615,360.533 940.454,363.402 944.294,366.327 948.133,369.31 951.973,372.349 955.812,375.443 959.652,378.592 963.491,381.797 967.33,385.055 
  971.17,388.367 975.009,391.733 978.849,395.151 982.688,398.621 986.528,402.143 990.367,405.716 994.207,409.339 998.046,413.012 1001.89,416.735 1005.73,420.507 
  1009.56,424.328 1013.4,428.196 1017.24,432.111 1021.08,436.073 1024.92,440.081 1028.76,444.134 1032.6,448.233 1036.44,452.376 1040.28,456.562 1044.12,460.792 
  1047.96,465.064 1051.8,469.379 1055.64,473.734 1059.48,478.131 1063.32,482.567 1067.16,487.043 1071,491.558 1074.84,496.111 1078.67,500.702 1082.51,505.33 
  1086.35,509.994 1090.19,514.694 1094.03,519.429 1097.87,524.198 1101.71,529.001 1105.55,533.837 1109.39,538.705 1113.23,543.606 1117.07,548.537 1120.91,553.499 
  1124.75,558.491 1128.59,563.511 1132.43,568.56 1136.27,573.637 1140.11,578.741 1143.95,583.871 1147.79,589.027 1151.62,594.208 1155.46,599.413 1159.3,604.642 
  1163.14,609.893 1166.98,615.167 1170.82,620.462 1174.66,625.777 1178.5,631.113 1182.34,636.468 1186.18,641.842 1190.02,647.234 1193.86,652.642 1197.7,658.067 
  1201.54,663.508 1205.38,668.964 1209.22,674.433 1213.06,679.917 1216.9,685.413 1220.74,690.921 1224.57,696.44 1228.41,701.97 1232.25,707.51 1236.09,713.058 
  1239.93,718.615 1243.77,724.18 1247.61,729.751 1251.45,735.328 1255.29,740.91 1259.13,746.497 1262.97,752.088 1266.81,757.682 1270.65,763.277 1274.49,768.875 
  1278.33,774.473 1282.17,780.071 1286.01,785.668 1289.85,791.263 1293.68,796.856 1297.52,802.446 1301.36,808.032 1305.2,813.613 1309.04,819.189 1312.88,824.759 
  1316.72,830.322 1320.56,835.876 1324.4,841.423 1328.24,846.959 1332.08,852.486 1335.92,858.002 1339.76,863.506 1343.6,868.998 1347.44,874.477 1351.28,879.941 
  1355.12,885.391 1358.96,890.825 1362.8,896.243 1366.63,901.644 1370.47,907.027 1374.31,912.391 1378.15,917.736 1381.99,923.061 1385.83,928.364 1389.67,933.646 
  1393.51,938.906 1397.35,944.142 1401.19,949.354 1405.03,954.541 1408.87,959.702 1412.71,964.837 1416.55,969.945 1420.39,975.025 1424.23,980.076 1428.07,985.098 
  1431.91,990.09 1435.75,995.051 1439.58,999.979 1443.42,1004.88 1447.26,1009.74 1451.1,1014.57 1454.94,1019.36 1458.78,1024.12 1462.62,1028.84 1466.46,1033.53 
  1470.3,1038.18 1474.14,1042.79 1477.98,1047.36 1481.82,1051.89 1485.66,1056.37 1489.5,1060.82 1493.34,1065.23 1497.18,1069.59 1501.02,1073.91 1504.86,1078.18 
  1508.69,1082.41 1512.53,1086.6 1516.37,1090.73 1520.21,1094.82 1524.05,1098.87 1527.89,1102.86 1531.73,1106.8 1535.57,1110.7 1539.41,1114.54 1543.25,1118.33 
  1547.09,1122.07 1550.93,1125.76 1554.77,1129.39 1558.61,1132.97 1562.45,1136.5 1566.29,1139.97 1570.13,1143.38 1573.97,1146.74 1577.81,1150.04 1581.64,1153.28 
  1585.48,1156.46 1589.32,1159.58 1593.16,1162.65 1597,1165.65 1600.84,1168.59 1604.68,1171.47 1608.52,1174.29 1612.36,1177.04 1616.2,1179.74 1620.04,1182.36 
  1623.88,1184.93 1627.72,1187.42 1631.56,1189.86 1635.4,1192.22 1639.24,1194.52 1643.08,1196.75 1646.92,1198.91 1650.76,1201.01 1654.59,1203.03 1658.43,1204.99 
  1662.27,1206.88 1666.11,1208.69 1669.95,1210.44 1673.79,1212.11 1677.63,1213.71 1681.47,1215.24 1685.31,1216.7 1689.15,1218.08 1692.99,1219.39 1696.83,1220.63 
  1700.67,1221.79 1704.51,1222.87 1708.35,1223.88 1712.19,1224.82 1716.03,1225.68 1719.87,1226.46 1723.7,1227.17 1727.54,1227.8 1731.38,1228.35 1735.22,1228.82 
  1739.06,1229.22 1742.9,1229.54 1746.74,1229.78 1750.58,1229.94 1754.42,1230.02 1758.26,1230.02 1762.1,1229.94 1765.94,1229.79 1769.78,1229.55 1773.62,1229.23 
  1777.46,1228.84 1781.3,1228.36 1785.14,1227.8 1788.98,1227.16 1792.82,1226.44 1796.65,1225.64 1800.49,1224.76 1804.33,1223.8 1808.17,1222.76 1812.01,1221.63 
  1815.85,1220.43 1819.69,1219.14 1823.53,1217.77 1827.37,1216.33 1831.21,1214.8 1835.05,1213.19 1838.89,1211.49 1842.73,1209.72 1846.57,1207.87 1850.41,1205.94 
  1854.25,1203.92 1858.09,1201.83 1861.93,1199.66 1865.77,1197.4 1869.6,1195.07 1873.44,1192.66 1877.28,1190.17 1881.12,1187.6 1884.96,1184.95 1888.8,1182.22 
  1892.64,1179.42 1896.48,1176.54 1900.32,1173.58 1904.16,1170.55 1908,1167.44 1911.84,1164.26 1915.68,1161 1919.52,1157.66 1923.36,1154.26 1927.2,1150.78 
  1931.04,1147.22 1934.88,1143.6 1938.71,1139.9 1942.55,1136.14 1946.39,1132.3 1950.23,1128.4 1954.07,1124.42 1957.91,1120.38 1961.75,1116.27 1965.59,1112.1 
  1969.43,1107.86 1973.27,1103.56 1977.11,1099.19 1980.95,1094.77 1984.79,1090.28 1988.63,1085.73 1992.47,1081.12 1996.31,1076.46 2000.15,1071.74 2003.99,1066.96 
  2007.83,1062.13 2011.66,1057.25 2015.5,1052.31 2019.34,1047.33 2023.18,1042.29 2027.02,1037.21 2030.86,1032.08 2034.7,1026.91 2038.54,1021.69 2042.38,1016.44 
  2046.22,1011.14 2050.06,1005.81 2053.9,1000.43 2057.74,995.027 2061.58,989.587 2065.42,984.116 2069.26,978.615 2073.1,973.087 2076.94,967.533 2080.78,961.955 
  2084.61,956.356 2088.45,950.737 2092.29,945.101 2096.13,939.449 2099.97,933.784 2103.81,928.109 2107.65,922.424 2111.49,916.734 2115.33,911.04 2119.17,905.345 
  2123.01,899.651 2126.85,893.961 2130.69,888.277 2134.53,882.602 2138.37,876.94 2142.21,871.292 2146.05,865.661 2149.89,860.051 2153.72,854.464 2157.56,848.904 
  2161.4,843.373 2165.24,837.875 2169.08,832.412 2172.92,826.989 2176.76,821.608 2180.6,816.273 2184.44,810.987 2188.28,805.754 2192.12,800.578 2195.96,795.461 
  2199.8,790.409 2203.64,785.424 2207.48,780.51 2211.32,775.672 2215.16,770.913 2219,766.238 2222.84,761.651 2226.67,757.155 2230.51,752.756 2234.35,748.457 
  
  "/>
<circle clip-path="url(#clip6902)" cx="318.461" cy="729.925" r="14" fill="#e26f46" fill-rule="evenodd" fill-opacity="1" stroke="#000000" stroke-opacity="1" stroke-width="3.2"/>
<circle clip-path="url(#clip6902)" cx="357.561" cy="664.704" r="14" fill="#e26f46" fill-rule="evenodd" fill-opacity="1" stroke="#000000" stroke-opacity="1" stroke-width="3.2"/>
<circle clip-path="url(#clip6902)" cx="396.661" cy="696.315" r="14" fill="#e26f46" fill-rule="evenodd" fill-opacity="1" stroke="#000000" stroke-opacity="1" stroke-width="3.2"/>
<circle clip-path="url(#clip6902)" cx="435.761" cy="588.715" r="14" fill="#e26f46" fill-rule="evenodd" fill-opacity="1" stroke="#000000" stroke-opacity="1" stroke-width="3.2"/>
<circle clip-path="url(#clip6902)" cx="474.86" cy="611.34" r="14" fill="#e26f46" fill-rule="evenodd" fill-opacity="1" stroke="#000000" stroke-opacity="1" stroke-width="3.2"/>
<circle clip-path="url(#clip6902)" cx="513.96" cy="459.463" r="14" fill="#e26f46" fill-rule="evenodd" fill-opacity="1" stroke="#000000" stroke-opacity="1" stroke-width="3.2"/>
<circle clip-path="url(#clip6902)" cx="553.06" cy="236.943" r="14" fill="#e26f46" fill-rule="evenodd" fill-opacity="1" stroke="#000000" stroke-opacity="1" stroke-width="3.2"/>
<circle clip-path="url(#clip6902)" cx="592.16" cy="303.103" r="14" fill="#e26f46" fill-rule="evenodd" fill-opacity="1" stroke="#000000" stroke-opacity="1" stroke-width="3.2"/>
<circle clip-path="url(#clip6902)" cx="631.26" cy="351.161" r="14" fill="#e26f46" fill-rule="evenodd" fill-opacity="1" stroke="#000000" stroke-opacity="1" stroke-width="3.2"/>
<circle clip-path="url(#clip6902)" cx="670.36" cy="549.188" r="14" fill="#e26f46" fill-rule="evenodd" fill-opacity="1" stroke="#000000" stroke-opacity="1" stroke-width="3.2"/>
<circle clip-path="url(#clip6902)" cx="709.46" cy="277.47" r="14" fill="#e26f46" fill-rule="evenodd" fill-opacity="1" stroke="#000000" stroke-opacity="1" stroke-width="3.2"/>
<circle clip-path="url(#clip6902)" cx="748.559" cy="273.507" r="14" fill="#e26f46" fill-rule="evenodd" fill-opacity="1" stroke="#000000" stroke-opacity="1" stroke-width="3.2"/>
<circle clip-path="url(#clip6902)" cx="787.659" cy="254.259" r="14" fill="#e26f46" fill-rule="evenodd" fill-opacity="1" stroke="#000000" stroke-opacity="1" stroke-width="3.2"/>
<circle clip-path="url(#clip6902)" cx="826.759" cy="221.939" r="14" fill="#e26f46" fill-rule="evenodd" fill-opacity="1" stroke="#000000" stroke-opacity="1" stroke-width="3.2"/>
<circle clip-path="url(#clip6902)" cx="865.859" cy="276.559" r="14" fill="#e26f46" fill-rule="evenodd" fill-opacity="1" stroke="#000000" stroke-opacity="1" stroke-width="3.2"/>
<circle clip-path="url(#clip6902)" cx="904.959" cy="381.293" r="14" fill="#e26f46" fill-rule="evenodd" fill-opacity="1" stroke="#000000" stroke-opacity="1" stroke-width="3.2"/>
<circle clip-path="url(#clip6902)" cx="944.059" cy="320.853" r="14" fill="#e26f46" fill-rule="evenodd" fill-opacity="1" stroke="#000000" stroke-opacity="1" stroke-width="3.2"/>
<circle clip-path="url(#clip6902)" cx="983.158" cy="392.059" r="14" fill="#e26f46" fill-rule="evenodd" fill-opacity="1" stroke="#000000" stroke-opacity="1" stroke-width="3.2"/>
<circle clip-path="url(#clip6902)" cx="1022.26" cy="485.923" r="14" fill="#e26f46" fill-rule="evenodd" fill-opacity="1" stroke="#000000" stroke-opacity="1" stroke-width="3.2"/>
<circle clip-path="url(#clip6902)" cx="1061.36" cy="624.596" r="14" fill="#e26f46" fill-rule="evenodd" fill-opacity="1" stroke="#000000" stroke-opacity="1" stroke-width="3.2"/>
<circle clip-path="url(#clip6902)" cx="1100.46" cy="500.264" r="14" fill="#e26f46" fill-rule="evenodd" fill-opacity="1" stroke="#000000" stroke-opacity="1" stroke-width="3.2"/>
<circle clip-path="url(#clip6902)" cx="1139.56" cy="629.595" r="14" fill="#e26f46" fill-rule="evenodd" fill-opacity="1" stroke="#000000" stroke-opacity="1" stroke-width="3.2"/>
<circle clip-path="url(#clip6902)" cx="1178.66" cy="770.57" r="14" fill="#e26f46" fill-rule="evenodd" fill-opacity="1" stroke="#000000" stroke-opacity="1" stroke-width="3.2"/>
<circle clip-path="url(#clip6902)" cx="1217.76" cy="598.991" r="14" fill="#e26f46" fill-rule="evenodd" fill-opacity="1" stroke="#000000" stroke-opacity="1" stroke-width="3.2"/>
<circle clip-path="url(#clip6902)" cx="1256.86" cy="667.528" r="14" fill="#e26f46" fill-rule="evenodd" fill-opacity="1" stroke="#000000" stroke-opacity="1" stroke-width="3.2"/>
<circle clip-path="url(#clip6902)" cx="1295.96" cy="735.937" r="14" fill="#e26f46" fill-rule="evenodd" fill-opacity="1" stroke="#000000" stroke-opacity="1" stroke-width="3.2"/>
<circle clip-path="url(#clip6902)" cx="1335.06" cy="848.435" r="14" fill="#e26f46" fill-rule="evenodd" fill-opacity="1" stroke="#000000" stroke-opacity="1" stroke-width="3.2"/>
<circle clip-path="url(#clip6902)" cx="1374.16" cy="778.166" r="14" fill="#e26f46" fill-rule="evenodd" fill-opacity="1" stroke="#000000" stroke-opacity="1" stroke-width="3.2"/>
<circle clip-path="url(#clip6902)" cx="1413.26" cy="958.569" r="14" fill="#e26f46" fill-rule="evenodd" fill-opacity="1" stroke="#000000" stroke-opacity="1" stroke-width="3.2"/>
<circle clip-path="url(#clip6902)" cx="1452.36" cy="1069.35" r="14" fill="#e26f46" fill-rule="evenodd" fill-opacity="1" stroke="#000000" stroke-opacity="1" stroke-width="3.2"/>
<circle clip-path="url(#clip6902)" cx="1491.46" cy="1158.29" r="14" fill="#e26f46" fill-rule="evenodd" fill-opacity="1" stroke="#000000" stroke-opacity="1" stroke-width="3.2"/>
<circle clip-path="url(#clip6902)" cx="1530.56" cy="1094.68" r="14" fill="#e26f46" fill-rule="evenodd" fill-opacity="1" stroke="#000000" stroke-opacity="1" stroke-width="3.2"/>
<circle clip-path="url(#clip6902)" cx="1569.66" cy="1140.72" r="14" fill="#e26f46" fill-rule="evenodd" fill-opacity="1" stroke="#000000" stroke-opacity="1" stroke-width="3.2"/>
<circle clip-path="url(#clip6902)" cx="1608.76" cy="1346.19" r="14" fill="#e26f46" fill-rule="evenodd" fill-opacity="1" stroke="#000000" stroke-opacity="1" stroke-width="3.2"/>
<circle clip-path="url(#clip6902)" cx="1647.86" cy="1185.11" r="14" fill="#e26f46" fill-rule="evenodd" fill-opacity="1" stroke="#000000" stroke-opacity="1" stroke-width="3.2"/>
<circle clip-path="url(#clip6902)" cx="1686.96" cy="1085.47" r="14" fill="#e26f46" fill-rule="evenodd" fill-opacity="1" stroke="#000000" stroke-opacity="1" stroke-width="3.2"/>
<circle clip-path="url(#clip6902)" cx="1726.06" cy="1153.61" r="14" fill="#e26f46" fill-rule="evenodd" fill-opacity="1" stroke="#000000" stroke-opacity="1" stroke-width="3.2"/>
<circle clip-path="url(#clip6902)" cx="1765.16" cy="1137.84" r="14" fill="#e26f46" fill-rule="evenodd" fill-opacity="1" stroke="#000000" stroke-opacity="1" stroke-width="3.2"/>
<circle clip-path="url(#clip6902)" cx="1804.26" cy="1166.95" r="14" fill="#e26f46" fill-rule="evenodd" fill-opacity="1" stroke="#000000" stroke-opacity="1" stroke-width="3.2"/>
<circle clip-path="url(#clip6902)" cx="1843.36" cy="1246.31" r="14" fill="#e26f46" fill-rule="evenodd" fill-opacity="1" stroke="#000000" stroke-opacity="1" stroke-width="3.2"/>
<circle clip-path="url(#clip6902)" cx="1882.46" cy="1228.11" r="14" fill="#e26f46" fill-rule="evenodd" fill-opacity="1" stroke="#000000" stroke-opacity="1" stroke-width="3.2"/>
<circle clip-path="url(#clip6902)" cx="1921.55" cy="1303.91" r="14" fill="#e26f46" fill-rule="evenodd" fill-opacity="1" stroke="#000000" stroke-opacity="1" stroke-width="3.2"/>
<circle clip-path="url(#clip6902)" cx="1960.65" cy="1224.64" r="14" fill="#e26f46" fill-rule="evenodd" fill-opacity="1" stroke="#000000" stroke-opacity="1" stroke-width="3.2"/>
<circle clip-path="url(#clip6902)" cx="1999.75" cy="1100" r="14" fill="#e26f46" fill-rule="evenodd" fill-opacity="1" stroke="#000000" stroke-opacity="1" stroke-width="3.2"/>
<circle clip-path="url(#clip6902)" cx="2038.85" cy="1019.56" r="14" fill="#e26f46" fill-rule="evenodd" fill-opacity="1" stroke="#000000" stroke-opacity="1" stroke-width="3.2"/>
<circle clip-path="url(#clip6902)" cx="2077.95" cy="946.796" r="14" fill="#e26f46" fill-rule="evenodd" fill-opacity="1" stroke="#000000" stroke-opacity="1" stroke-width="3.2"/>
<circle clip-path="url(#clip6902)" cx="2117.05" cy="769.396" r="14" fill="#e26f46" fill-rule="evenodd" fill-opacity="1" stroke="#000000" stroke-opacity="1" stroke-width="3.2"/>
<circle clip-path="url(#clip6902)" cx="2156.15" cy="753.839" r="14" fill="#e26f46" fill-rule="evenodd" fill-opacity="1" stroke="#000000" stroke-opacity="1" stroke-width="3.2"/>
<circle clip-path="url(#clip6902)" cx="2195.25" cy="795.669" r="14" fill="#e26f46" fill-rule="evenodd" fill-opacity="1" stroke="#000000" stroke-opacity="1" stroke-width="3.2"/>
<circle clip-path="url(#clip6902)" cx="2234.35" cy="847.507" r="14" fill="#e26f46" fill-rule="evenodd" fill-opacity="1" stroke="#000000" stroke-opacity="1" stroke-width="3.2"/>
<polyline clip-path="url(#clip6902)" style="stroke:#000000; stroke-width:12; stroke-opacity:1; fill:none" stroke-dasharray="6, 12" points="
  260.984,841.03 270.901,826.609 280.817,812.114 372.509,677.322 464.201,549.652 519.304,481.191 574.407,421.702 620.995,379.848 667.584,346.774 692.889,332.773 
  718.193,321.689 743.497,313.598 768.801,308.558 815.458,307.361 862.115,316.663 912.135,338.046 962.156,370.67 991.133,394.378 1020.11,421.355 1049.09,451.359 
  1078.06,484.118 1181.07,618.236 1271.4,749.29 1369.88,892.51 1468.94,1022.38 1496.32,1053.9 1523.71,1083.01 1551.09,1109.5 1578.47,1133.15 1630.58,1169.62 
  1682.69,1194.07 1709.77,1201.77 1736.86,1205.97 1763.95,1206.62 1791.04,1203.72 1813.85,1198.55 1836.65,1190.91 1859.46,1180.83 1882.26,1168.39 1937.94,1128.51 
  1993.62,1076.26 2045.96,1017.42 2098.31,950.915 2182.16,833.352 2266.02,710.027 2278.93,691.127 2291.83,672.345 
  "/>
<path clip-path="url(#clip6900)" d="
M1481.63 372.684 L2280.76 372.684 L2280.76 130.764 L1481.63 130.764  Z
  " fill="#ffffff" fill-rule="evenodd" fill-opacity="1"/>
<polyline clip-path="url(#clip6900)" style="stroke:#000000; stroke-width:4; stroke-opacity:1; fill:none" points="
  1481.63,372.684 2280.76,372.684 2280.76,130.764 1481.63,130.764 1481.63,372.684 
  "/>
<polyline clip-path="url(#clip6900)" style="stroke:#000000; stroke-width:4; stroke-opacity:1; fill:none" points="
  1505.63,191.244 1649.63,191.244 
  "/>
<g clip-path="url(#clip6900)">
<text style="fill:#000000; fill-opacity:1; font-family:Arial,Helvetica Neue,Helvetica,sans-serif; font-size:48px; text-anchor:start;" transform="rotate(0, 1673.63, 208.744)" x="1673.63" y="208.744">MAP with 95% confidence</text>
</g>
<circle clip-path="url(#clip6900)" cx="1589.63" cy="251.724" r="21" fill="#e26f46" fill-rule="evenodd" fill-opacity="1" stroke="#000000" stroke-opacity="1" stroke-width="3.2"/>
<g clip-path="url(#clip6900)">
<text style="fill:#000000; fill-opacity:1; font-family:Arial,Helvetica Neue,Helvetica,sans-serif; font-size:48px; text-anchor:start;" transform="rotate(0, 1673.63, 269.224)" x="1673.63" y="269.224">data</text>
</g>
<polyline clip-path="url(#clip6900)" style="stroke:#000000; stroke-width:12; stroke-opacity:1; fill:none" stroke-dasharray="6, 12" points="
  1505.63,312.204 1649.63,312.204 
  "/>
<g clip-path="url(#clip6900)">
<text style="fill:#000000; fill-opacity:1; font-family:Arial,Helvetica Neue,Helvetica,sans-serif; font-size:48px; text-anchor:start;" transform="rotate(0, 1673.63, 329.704)" x="1673.63" y="329.704">true</text>
</g>
</svg>
