<?xml version="1.0" encoding="utf-8"?>
<svg xmlns="http://www.w3.org/2000/svg" xmlns:xlink="http://www.w3.org/1999/xlink" width="600" height="400" viewBox="0 0 2400 1600">
<defs>
  <clipPath id="clip6300">
    <rect x="0" y="0" width="2400" height="1600"/>
  </clipPath>
</defs>
<path clip-path="url(#clip6300)" d="
M0 1600 L2400 1600 L2400 0 L0 0  Z
  " fill="#ffffff" fill-rule="evenodd" fill-opacity="1"/>
<defs>
  <clipPath id="clip6301">
    <rect x="480" y="0" width="1681" height="1600"/>
  </clipPath>
</defs>
<path clip-path="url(#clip6300)" d="
M153.827 1479.96 L2352.76 1479.96 L2352.76 47.2441 L153.827 47.2441  Z
  " fill="#ffffff" fill-rule="evenodd" fill-opacity="1"/>
<defs>
  <clipPath id="clip6302">
    <rect x="153" y="47" width="2200" height="1434"/>
  </clipPath>
</defs>
<polyline clip-path="url(#clip6302)" style="stroke:#000000; stroke-width:2; stroke-opacity:0.1; fill:none" points="
  216.061,1479.96 216.061,47.2441 
  "/>
<polyline clip-path="url(#clip6302)" style="stroke:#000000; stroke-width:2; stroke-opacity:0.1; fill:none" points="
  734.676,1479.96 734.676,47.2441 
  "/>
<polyline clip-path="url(#clip6302)" style="stroke:#000000; stroke-width:2; stroke-opacity:0.1; fill:none" points="
  1253.29,1479.96 1253.29,47.2441 
  "/>
<polyline clip-path="url(#clip6302)" style="stroke:#000000; stroke-width:2; stroke-opacity:0.1; fill:none" points="
  1771.91,1479.96 1771.91,47.2441 
  "/>
<polyline clip-path="url(#clip6302)" style="stroke:#000000; stroke-width:2; stroke-opacity:0.1; fill:none" points="
  2290.52,1479.96 2290.52,47.2441 
  "/>
<polyline clip-path="url(#clip6302)" style="stroke:#000000; stroke-width:2; stroke-opacity:0.1; fill:none" points="
  153.827,1447.98 2352.76,1447.98 
  "/>
<polyline clip-path="url(#clip6302)" style="stroke:#000000; stroke-width:2; stroke-opacity:0.1; fill:none" points="
  153.827,1082.47 2352.76,1082.47 
  "/>
<polyline clip-path="url(#clip6302)" style="stroke:#000000; stroke-width:2; stroke-opacity:0.1; fill:none" points="
  153.827,716.953 2352.76,716.953 
  "/>
<polyline clip-path="url(#clip6302)" style="stroke:#000000; stroke-width:2; stroke-opacity:0.1; fill:none" points="
  153.827,351.44 2352.76,351.44 
  "/>
<polyline clip-path="url(#clip6300)" style="stroke:#000000; stroke-width:4; stroke-opacity:1; fill:none" points="
  153.827,1479.96 2352.76,1479.96 
  "/>
<polyline clip-path="url(#clip6300)" style="stroke:#000000; stroke-width:4; stroke-opacity:1; fill:none" points="
  153.827,1479.96 153.827,47.2441 
  "/>
<polyline clip-path="url(#clip6300)" style="stroke:#000000; stroke-width:4; stroke-opacity:1; fill:none" points="
  216.061,1479.96 216.061,1462.77 
  "/>
<polyline clip-path="url(#clip6300)" style="stroke:#000000; stroke-width:4; stroke-opacity:1; fill:none" points="
  734.676,1479.96 734.676,1462.77 
  "/>
<polyline clip-path="url(#clip6300)" style="stroke:#000000; stroke-width:4; stroke-opacity:1; fill:none" points="
  1253.29,1479.96 1253.29,1462.77 
  "/>
<polyline clip-path="url(#clip6300)" style="stroke:#000000; stroke-width:4; stroke-opacity:1; fill:none" points="
  1771.91,1479.96 1771.91,1462.77 
  "/>
<polyline clip-path="url(#clip6300)" style="stroke:#000000; stroke-width:4; stroke-opacity:1; fill:none" points="
  2290.52,1479.96 2290.52,1462.77 
  "/>
<polyline clip-path="url(#clip6300)" style="stroke:#000000; stroke-width:4; stroke-opacity:1; fill:none" points="
  153.827,1447.98 180.214,1447.98 
  "/>
<polyline clip-path="url(#clip6300)" style="stroke:#000000; stroke-width:4; stroke-opacity:1; fill:none" points="
  153.827,1082.47 180.214,1082.47 
  "/>
<polyline clip-path="url(#clip6300)" style="stroke:#000000; stroke-width:4; stroke-opacity:1; fill:none" points="
  153.827,716.953 180.214,716.953 
  "/>
<polyline clip-path="url(#clip6300)" style="stroke:#000000; stroke-width:4; stroke-opacity:1; fill:none" points="
  153.827,351.44 180.214,351.44 
  "/>
<g clip-path="url(#clip6300)">
<text style="fill:#000000; fill-opacity:1; font-family:Arial,Helvetica Neue,Helvetica,sans-serif; font-size:48px; text-anchor:middle;" transform="rotate(0, 216.061, 1533.96)" x="216.061" y="1533.96">0.00</text>
</g>
<g clip-path="url(#clip6300)">
<text style="fill:#000000; fill-opacity:1; font-family:Arial,Helvetica Neue,Helvetica,sans-serif; font-size:48px; text-anchor:middle;" transform="rotate(0, 734.676, 1533.96)" x="734.676" y="1533.96">0.25</text>
</g>
<g clip-path="url(#clip6300)">
<text style="fill:#000000; fill-opacity:1; font-family:Arial,Helvetica Neue,Helvetica,sans-serif; font-size:48px; text-anchor:middle;" transform="rotate(0, 1253.29, 1533.96)" x="1253.29" y="1533.96">0.50</text>
</g>
<g clip-path="url(#clip6300)">
<text style="fill:#000000; fill-opacity:1; font-family:Arial,Helvetica Neue,Helvetica,sans-serif; font-size:48px; text-anchor:middle;" transform="rotate(0, 1771.91, 1533.96)" x="1771.91" y="1533.96">0.75</text>
</g>
<g clip-path="url(#clip6300)">
<text style="fill:#000000; fill-opacity:1; font-family:Arial,Helvetica Neue,Helvetica,sans-serif; font-size:48px; text-anchor:middle;" transform="rotate(0, 2290.52, 1533.96)" x="2290.52" y="1533.96">1.00</text>
</g>
<g clip-path="url(#clip6300)">
<text style="fill:#000000; fill-opacity:1; font-family:Arial,Helvetica Neue,Helvetica,sans-serif; font-size:48px; text-anchor:end;" transform="rotate(0, 129.827, 1465.48)" x="129.827" y="1465.48">-2</text>
</g>
<g clip-path="url(#clip6300)">
<text style="fill:#000000; fill-opacity:1; font-family:Arial,Helvetica Neue,Helvetica,sans-serif; font-size:48px; text-anchor:end;" transform="rotate(0, 129.827, 1099.97)" x="129.827" y="1099.97">-1</text>
</g>
<g clip-path="url(#clip6300)">
<text style="fill:#000000; fill-opacity:1; font-family:Arial,Helvetica Neue,Helvetica,sans-serif; font-size:48px; text-anchor:end;" transform="rotate(0, 129.827, 734.453)" x="129.827" y="734.453">0</text>
</g>
<g clip-path="url(#clip6300)">
<text style="fill:#000000; fill-opacity:1; font-family:Arial,Helvetica Neue,Helvetica,sans-serif; font-size:48px; text-anchor:end;" transform="rotate(0, 129.827, 368.94)" x="129.827" y="368.94">1</text>
</g>
<path clip-path="url(#clip6302)" d="
M216.061 928.826 L220.218 921.871 L224.375 915.142 L228.532 908.631 L232.69 902.332 L236.847 896.233 L241.004 890.327 L245.161 884.603 L249.319 879.051 L253.476 873.661 
  L257.633 868.423 L261.79 863.325 L265.948 858.358 L270.105 853.511 L274.262 848.774 L278.419 844.137 L282.577 839.591 L286.734 835.126 L290.891 830.734 L295.048 826.407 
  L299.205 822.137 L303.363 817.918 L307.52 813.741 L311.677 809.601 L315.834 805.493 L319.992 801.41 L324.149 797.349 L328.306 793.306 L332.463 789.276 L336.621 785.256 
  L340.778 781.243 L344.935 777.234 L349.092 773.228 L353.25 769.223 L357.407 765.216 L361.564 761.208 L365.721 757.196 L369.878 753.18 L374.036 749.16 L378.193 745.135 
  L382.35 741.105 L386.507 737.071 L390.665 733.033 L394.822 728.991 L398.979 724.946 L403.136 720.898 L407.294 716.848 L411.451 712.798 L415.608 708.749 L419.765 704.7 
  L423.923 700.655 L428.08 696.613 L432.237 692.577 L436.394 688.547 L440.552 684.525 L444.709 680.513 L448.866 676.512 L453.023 672.523 L457.18 668.548 L461.338 664.589 
  L465.495 660.646 L469.652 656.723 L473.809 652.819 L477.967 648.938 L482.124 645.079 L486.281 641.246 L490.438 637.439 L494.596 633.66 L498.753 629.91 L502.91 626.192 
  L507.067 622.506 L511.225 618.854 L515.382 615.237 L519.539 611.657 L523.696 608.116 L527.853 604.615 L532.011 601.154 L536.168 597.736 L540.325 594.362 L544.482 591.033 
  L548.64 587.75 L552.797 584.515 L556.954 581.329 L561.111 578.193 L565.269 575.107 L569.426 572.075 L573.583 569.095 L577.74 566.17 L581.898 563.301 L586.055 560.488 
  L590.212 557.733 L594.369 555.036 L598.527 552.398 L602.684 549.821 L606.841 547.305 L610.998 544.851 L615.155 542.46 L619.313 540.133 L623.47 537.869 L627.627 535.672 
  L631.784 533.539 L635.942 531.474 L640.099 529.475 L644.256 527.545 L648.413 525.682 L652.571 523.889 L656.728 522.165 L660.885 520.511 L665.042 518.928 L669.2 517.416 
  L673.357 515.975 L677.514 514.607 L681.671 513.31 L685.829 512.086 L689.986 510.936 L694.143 509.859 L698.3 508.855 L702.457 507.926 L706.615 507.072 L710.772 506.291 
  L714.929 505.586 L719.086 504.957 L723.244 504.402 L727.401 503.923 L731.558 503.52 L735.715 503.194 L739.873 502.943 L744.03 502.769 L748.187 502.671 L752.344 502.65 
  L756.502 502.706 L760.659 502.839 L764.816 503.048 L768.973 503.335 L773.13 503.699 L777.288 504.14 L781.445 504.659 L785.602 505.255 L789.759 505.928 L793.917 506.679 
  L798.074 507.507 L802.231 508.413 L806.388 509.396 L810.546 510.457 L814.703 511.595 L818.86 512.811 L823.017 514.104 L827.175 515.475 L831.332 516.924 L835.489 518.449 
  L839.646 520.053 L843.804 521.733 L847.961 523.491 L852.118 525.327 L856.275 527.239 L860.432 529.229 L864.59 531.296 L868.747 533.44 L872.904 535.661 L877.061 537.959 
  L881.219 540.333 L885.376 542.785 L889.533 545.313 L893.69 547.917 L897.848 550.598 L902.005 553.356 L906.162 556.189 L910.319 559.099 L914.477 562.084 L918.634 565.145 
  L922.791 568.282 L926.948 571.494 L931.106 574.782 L935.263 578.144 L939.42 581.581 L943.577 585.093 L947.734 588.68 L951.892 592.34 L956.049 596.074 L960.206 599.882 
  L964.363 603.764 L968.521 607.718 L972.678 611.745 L976.835 615.844 L980.992 620.016 L985.15 624.259 L989.307 628.573 L993.464 632.958 L997.621 637.413 L1001.78 641.938 
  L1005.94 646.533 L1010.09 651.196 L1014.25 655.928 L1018.41 660.728 L1022.56 665.595 L1026.72 670.529 L1030.88 675.528 L1035.04 680.593 L1039.19 685.723 L1043.35 690.916 
  L1047.51 696.173 L1051.67 701.492 L1055.82 706.872 L1059.98 712.314 L1064.14 717.815 L1068.29 723.376 L1072.45 728.994 L1076.61 734.67 L1080.77 740.402 L1084.92 746.19 
  L1089.08 752.032 L1093.24 757.927 L1097.39 763.874 L1101.55 769.872 L1105.71 775.92 L1109.87 782.017 L1114.02 788.161 L1118.18 794.352 L1122.34 800.588 L1126.5 806.868 
  L1130.65 813.191 L1134.81 819.555 L1138.97 825.959 L1143.12 832.402 L1147.28 838.882 L1151.44 845.399 L1155.6 851.95 L1159.75 858.534 L1163.91 865.15 L1168.07 871.796 
  L1172.23 878.471 L1176.38 885.174 L1180.54 891.902 L1184.7 898.655 L1188.85 905.431 L1193.01 912.228 L1197.17 919.045 L1201.33 925.88 L1205.48 932.732 L1209.64 939.599 
  L1213.8 946.479 L1217.95 953.372 L1222.11 960.274 L1226.27 967.186 L1230.43 974.105 L1234.58 981.029 L1238.74 987.957 L1242.9 994.887 L1247.06 1001.82 L1251.21 1008.75 
  L1255.37 1015.68 L1259.53 1022.6 L1263.68 1029.52 L1267.84 1036.42 L1272 1043.32 L1276.16 1050.21 L1280.31 1057.09 L1284.47 1063.95 L1288.63 1070.8 L1292.79 1077.63 
  L1296.94 1084.44 L1301.1 1091.23 L1305.26 1098 L1309.41 1104.74 L1313.57 1111.46 L1317.73 1118.15 L1321.89 1124.81 L1326.04 1131.44 L1330.2 1138.04 L1334.36 1144.6 
  L1338.51 1151.13 L1342.67 1157.62 L1346.83 1164.08 L1350.99 1170.49 L1355.14 1176.87 L1359.3 1183.19 L1363.46 1189.48 L1367.62 1195.72 L1371.77 1201.91 L1375.93 1208.05 
  L1380.09 1214.14 L1384.24 1220.17 L1388.4 1226.16 L1392.56 1232.08 L1396.72 1237.96 L1400.87 1243.77 L1405.03 1249.52 L1409.19 1255.21 L1413.35 1260.84 L1417.5 1266.4 
  L1421.66 1271.9 L1425.82 1277.33 L1429.97 1282.7 L1434.13 1287.99 L1438.29 1293.21 L1442.45 1298.36 L1446.6 1303.44 L1450.76 1308.44 L1454.92 1313.36 L1459.07 1318.21 
  L1463.23 1322.97 L1467.39 1327.66 L1471.55 1332.27 L1475.7 1336.79 L1479.86 1341.23 L1484.02 1345.58 L1488.18 1349.85 L1492.33 1354.03 L1496.49 1358.12 L1500.65 1362.12 
  L1504.8 1366.03 L1508.96 1369.85 L1513.12 1373.58 L1517.28 1377.21 L1521.43 1380.75 L1525.59 1384.19 L1529.75 1387.54 L1533.9 1390.79 L1538.06 1393.94 L1542.22 1396.99 
  L1546.38 1399.94 L1550.53 1402.78 L1554.69 1405.53 L1558.85 1408.18 L1563.01 1410.72 L1567.16 1413.15 L1571.32 1415.49 L1575.48 1417.71 L1579.63 1419.83 L1583.79 1421.85 
  L1587.95 1423.76 L1592.11 1425.55 L1596.26 1427.25 L1600.42 1428.83 L1604.58 1430.3 L1608.74 1431.67 L1612.89 1432.92 L1617.05 1434.07 L1621.21 1435.1 L1625.36 1436.02 
  L1629.52 1436.84 L1633.68 1437.54 L1637.84 1438.13 L1641.99 1438.61 L1646.15 1438.98 L1650.31 1439.23 L1654.46 1439.38 L1658.62 1439.41 L1662.78 1439.34 L1666.94 1439.15 
  L1671.09 1438.85 L1675.25 1438.45 L1679.41 1437.93 L1683.57 1437.3 L1687.72 1436.57 L1691.88 1435.72 L1696.04 1434.77 L1700.19 1433.71 L1704.35 1432.54 L1708.51 1431.27 
  L1712.67 1429.89 L1716.82 1428.41 L1720.98 1426.82 L1725.14 1425.13 L1729.3 1423.34 L1733.45 1421.44 L1737.61 1419.45 L1741.77 1417.36 L1745.92 1415.16 L1750.08 1412.88 
  L1754.24 1410.5 L1758.4 1408.02 L1762.55 1405.45 L1766.71 1402.79 L1770.87 1400.04 L1775.02 1397.2 L1779.18 1394.28 L1783.34 1391.27 L1787.5 1388.17 L1791.65 1385 
  L1795.81 1381.75 L1799.97 1378.41 L1804.13 1375.01 L1808.28 1371.52 L1812.44 1367.97 L1816.6 1364.34 L1820.75 1360.65 L1824.91 1356.89 L1829.07 1353.07 L1833.23 1349.18 
  L1837.38 1345.24 L1841.54 1341.23 L1845.7 1337.17 L1849.85 1333.06 L1854.01 1328.9 L1858.17 1324.68 L1862.33 1320.42 L1866.48 1316.12 L1870.64 1311.77 L1874.8 1307.38 
  L1878.96 1302.95 L1883.11 1298.48 L1887.27 1293.98 L1891.43 1289.45 L1895.58 1284.88 L1899.74 1280.29 L1903.9 1275.67 L1908.06 1271.02 L1912.21 1266.35 L1916.37 1261.66 
  L1920.53 1256.94 L1924.69 1252.21 L1928.84 1247.46 L1933 1242.69 L1937.16 1237.91 L1941.31 1233.11 L1945.47 1228.3 L1949.63 1223.48 L1953.79 1218.64 L1957.94 1213.8 
  L1962.1 1208.94 L1966.26 1204.08 L1970.41 1199.21 L1974.57 1194.33 L1978.73 1189.45 L1982.89 1184.55 L1987.04 1179.66 L1991.2 1174.75 L1995.36 1169.84 L1999.52 1164.92 
  L2003.67 1160 L2007.83 1155.08 L2011.99 1150.14 L2016.14 1145.21 L2020.3 1140.27 L2024.46 1135.32 L2028.62 1130.37 L2032.77 1125.41 L2036.93 1120.45 L2041.09 1115.49 
  L2045.25 1110.52 L2049.4 1105.55 L2053.56 1100.57 L2057.72 1095.59 L2061.87 1090.61 L2066.03 1085.63 L2070.19 1080.64 L2074.35 1075.65 L2078.5 1070.67 L2082.66 1065.68 
  L2086.82 1060.69 L2090.97 1055.71 L2095.13 1050.73 L2099.29 1045.76 L2103.45 1040.8 L2107.6 1035.84 L2111.76 1030.9 L2115.92 1025.97 L2120.08 1021.06 L2124.23 1016.17 
  L2128.39 1011.31 L2132.55 1006.47 L2136.7 1001.66 L2140.86 996.898 L2145.02 992.175 L2149.18 987.501 L2153.33 982.883 L2157.49 978.33 L2161.65 973.848 L2165.8 969.448 
  L2169.96 965.14 L2174.12 960.934 L2178.28 956.845 L2182.43 952.885 L2186.59 949.071 L2190.75 945.419 L2194.91 941.948 L2199.06 938.679 L2203.22 935.635 L2207.38 932.841 
  L2211.53 930.324 L2215.69 928.114 L2219.85 926.245 L2224.01 924.75 L2228.16 923.669 L2232.32 923.041 L2236.48 922.909 L2240.64 923.319 L2244.79 924.317 L2248.95 925.952 
  L2253.11 928.273 L2257.26 931.328 L2261.42 935.168 L2265.58 939.838 L2269.74 945.385 L2273.89 951.852 L2278.05 959.276 L2282.21 967.695 L2286.36 977.141 L2290.52 987.641 
  L2290.52 535.849 L2286.36 538.01 L2282.21 539.84 L2278.05 541.346 L2273.89 542.544 L2269.74 543.45 L2265.58 544.086 L2261.42 544.478 L2257.26 544.653 L2253.11 544.641 
  L2248.95 544.475 L2244.79 544.187 L2240.64 543.811 L2236.48 543.378 L2232.32 542.92 L2228.16 542.466 L2224.01 542.045 L2219.85 541.681 L2215.69 541.399 L2211.53 541.218 
  L2207.38 541.158 L2203.22 541.234 L2199.06 541.46 L2194.91 541.847 L2190.75 542.407 L2186.59 543.145 L2182.43 544.068 L2178.28 545.182 L2174.12 546.488 L2169.96 547.989 
  L2165.8 549.685 L2161.65 551.577 L2157.49 553.663 L2153.33 555.94 L2149.18 558.407 L2145.02 561.06 L2140.86 563.896 L2136.7 566.908 L2132.55 570.094 L2128.39 573.448 
  L2124.23 576.965 L2120.08 580.638 L2115.92 584.461 L2111.76 588.43 L2107.6 592.537 L2103.45 596.775 L2099.29 601.139 L2095.13 605.622 L2090.97 610.216 L2086.82 614.916 
  L2082.66 619.714 L2078.5 624.604 L2074.35 629.579 L2070.19 634.632 L2066.03 639.756 L2061.87 644.945 L2057.72 650.192 L2053.56 655.49 L2049.4 660.833 L2045.25 666.214 
  L2041.09 671.628 L2036.93 677.067 L2032.77 682.525 L2028.62 687.997 L2024.46 693.477 L2020.3 698.958 L2016.14 704.434 L2011.99 709.901 L2007.83 715.353 L2003.67 720.784 
  L1999.52 726.189 L1995.36 731.563 L1991.2 736.902 L1987.04 742.199 L1982.89 747.452 L1978.73 752.656 L1974.57 757.805 L1970.41 762.897 L1966.26 767.927 L1962.1 772.892 
  L1957.94 777.787 L1953.79 782.61 L1949.63 787.358 L1945.47 792.027 L1941.31 796.615 L1937.16 801.118 L1933 805.536 L1928.84 809.864 L1924.69 814.101 L1920.53 818.246 
  L1916.37 822.296 L1912.21 826.25 L1908.06 830.106 L1903.9 833.863 L1899.74 837.52 L1895.58 841.076 L1891.43 844.53 L1887.27 847.882 L1883.11 851.13 L1878.96 854.275 
  L1874.8 857.316 L1870.64 860.253 L1866.48 863.085 L1862.33 865.814 L1858.17 868.438 L1854.01 870.959 L1849.85 873.376 L1845.7 875.69 L1841.54 877.901 L1837.38 880.01 
  L1833.23 882.017 L1829.07 883.924 L1824.91 885.73 L1820.75 887.436 L1816.6 889.044 L1812.44 890.554 L1808.28 891.967 L1804.13 893.284 L1799.97 894.506 L1795.81 895.633 
  L1791.65 896.668 L1787.5 897.609 L1783.34 898.46 L1779.18 899.22 L1775.02 899.891 L1770.87 900.474 L1766.71 900.969 L1762.55 901.379 L1758.4 901.703 L1754.24 901.943 
  L1750.08 902.1 L1745.92 902.175 L1741.77 902.17 L1737.61 902.084 L1733.45 901.919 L1729.3 901.677 L1725.14 901.358 L1720.98 900.962 L1716.82 900.492 L1712.67 899.948 
  L1708.51 899.331 L1704.35 898.643 L1700.19 897.883 L1696.04 897.053 L1691.88 896.154 L1687.72 895.187 L1683.57 894.152 L1679.41 893.051 L1675.25 891.885 L1671.09 890.654 
  L1666.94 889.36 L1662.78 888.002 L1658.62 886.583 L1654.46 885.102 L1650.31 883.561 L1646.15 881.961 L1641.99 880.301 L1637.84 878.584 L1633.68 876.81 L1629.52 874.979 
  L1625.36 873.093 L1621.21 871.152 L1617.05 869.157 L1612.89 867.108 L1608.74 865.007 L1604.58 862.854 L1600.42 860.65 L1596.26 858.396 L1592.11 856.091 L1587.95 853.738 
  L1583.79 851.336 L1579.63 848.887 L1575.48 846.39 L1571.32 843.848 L1567.16 841.259 L1563.01 838.625 L1558.85 835.947 L1554.69 833.225 L1550.53 830.46 L1546.38 827.652 
  L1542.22 824.803 L1538.06 821.912 L1533.9 818.98 L1529.75 816.008 L1525.59 812.997 L1521.43 809.946 L1517.28 806.858 L1513.12 803.731 L1508.96 800.567 L1504.8 797.366 
  L1500.65 794.129 L1496.49 790.857 L1492.33 787.549 L1488.18 784.207 L1484.02 780.831 L1479.86 777.422 L1475.7 773.979 L1471.55 770.504 L1467.39 766.997 L1463.23 763.459 
  L1459.07 759.89 L1454.92 756.29 L1450.76 752.661 L1446.6 749.002 L1442.45 745.314 L1438.29 741.598 L1434.13 737.854 L1429.97 734.082 L1425.82 730.283 L1421.66 726.458 
  L1417.5 722.606 L1413.35 718.729 L1409.19 714.827 L1405.03 710.9 L1400.87 706.948 L1396.72 702.973 L1392.56 698.974 L1388.4 694.952 L1384.24 690.908 L1380.09 686.841 
  L1375.93 682.753 L1371.77 678.643 L1367.62 674.513 L1363.46 670.362 L1359.3 666.19 L1355.14 662 L1350.99 657.789 L1346.83 653.56 L1342.67 649.312 L1338.51 645.047 
  L1334.36 640.763 L1330.2 636.462 L1326.04 632.144 L1321.89 627.809 L1317.73 623.459 L1313.57 619.092 L1309.41 614.71 L1305.26 610.312 L1301.1 605.9 L1296.94 601.473 
  L1292.79 597.032 L1288.63 592.578 L1284.47 588.11 L1280.31 583.629 L1276.16 579.135 L1272 574.629 L1267.84 570.111 L1263.68 565.581 L1259.53 561.04 L1255.37 556.489 
  L1251.21 551.926 L1247.06 547.353 L1242.9 542.77 L1238.74 538.178 L1234.58 533.576 L1230.43 528.966 L1226.27 524.347 L1222.11 519.72 L1217.95 515.085 L1213.8 510.442 
  L1209.64 505.793 L1205.48 501.136 L1201.33 496.473 L1197.17 491.805 L1193.01 487.13 L1188.85 482.451 L1184.7 477.766 L1180.54 473.077 L1176.38 468.384 L1172.23 463.687 
  L1168.07 458.988 L1163.91 454.285 L1159.75 449.58 L1155.6 444.873 L1151.44 440.164 L1147.28 435.455 L1143.12 430.745 L1138.97 426.035 L1134.81 421.325 L1130.65 416.617 
  L1126.5 411.91 L1122.34 407.205 L1118.18 402.502 L1114.02 397.803 L1109.87 393.108 L1105.71 388.416 L1101.55 383.73 L1097.39 379.05 L1093.24 374.376 L1089.08 369.708 
  L1084.92 365.048 L1080.77 360.397 L1076.61 355.754 L1072.45 351.122 L1068.29 346.499 L1064.14 341.888 L1059.98 337.289 L1055.82 332.703 L1051.67 328.13 L1047.51 323.572 
  L1043.35 319.029 L1039.19 314.502 L1035.04 309.993 L1030.88 305.501 L1026.72 301.028 L1022.56 296.575 L1018.41 292.142 L1014.25 287.731 L1010.09 283.342 L1005.94 278.977 
  L1001.78 274.637 L997.621 270.322 L993.464 266.033 L989.307 261.772 L985.15 257.54 L980.992 253.337 L976.835 249.164 L972.678 245.023 L968.521 240.915 L964.363 236.84 
  L960.206 232.8 L956.049 228.796 L951.892 224.828 L947.734 220.898 L943.577 217.007 L939.42 213.156 L935.263 209.345 L931.106 205.577 L926.948 201.851 L922.791 198.17 
  L918.634 194.533 L914.477 190.942 L910.319 187.399 L906.162 183.903 L902.005 180.456 L897.848 177.059 L893.69 173.712 L889.533 170.418 L885.376 167.176 L881.219 163.988 
  L877.061 160.854 L872.904 157.776 L868.747 154.754 L864.59 151.789 L860.432 148.882 L856.275 146.034 L852.118 143.246 L847.961 140.518 L843.804 137.851 L839.646 135.246 
  L835.489 132.704 L831.332 130.225 L827.175 127.811 L823.017 125.461 L818.86 123.177 L814.703 120.959 L810.546 118.808 L806.388 116.725 L802.231 114.71 L798.074 112.763 
  L793.917 110.885 L789.759 109.078 L785.602 107.341 L781.445 105.674 L777.288 104.079 L773.13 102.556 L768.973 101.106 L764.816 99.7277 L760.659 98.423 L756.502 97.1919 
  L752.344 96.0349 L748.187 94.9523 L744.03 93.9446 L739.873 93.012 L735.715 92.1549 L731.558 91.3737 L727.401 90.6686 L723.244 90.0399 L719.086 89.4879 L714.929 89.0129 
  L710.772 88.6152 L706.615 88.2949 L702.457 88.0523 L698.3 87.8876 L694.143 87.801 L689.986 87.7927 L685.829 87.8629 L681.671 88.0117 L677.514 88.2392 L673.357 88.5457 
  L669.2 88.9311 L665.042 89.3958 L660.885 89.9397 L656.728 90.5629 L652.571 91.2656 L648.413 92.0477 L644.256 92.9095 L640.099 93.8508 L635.942 94.8718 L631.784 95.9725 
  L627.627 97.153 L623.47 98.4131 L619.313 99.753 L615.155 101.173 L610.998 102.672 L606.841 104.251 L602.684 105.91 L598.527 107.648 L594.369 109.466 L590.212 111.363 
  L586.055 113.34 L581.898 115.396 L577.74 117.532 L573.583 119.746 L569.426 122.04 L565.269 124.413 L561.111 126.864 L556.954 129.394 L552.797 132.003 L548.64 134.689 
  L544.482 137.454 L540.325 140.297 L536.168 143.218 L532.011 146.216 L527.853 149.291 L523.696 152.443 L519.539 155.672 L515.382 158.977 L511.225 162.358 L507.067 165.814 
  L502.91 169.346 L498.753 172.953 L494.596 176.634 L490.438 180.389 L486.281 184.218 L482.124 188.119 L477.967 192.092 L473.809 196.137 L469.652 200.254 L465.495 204.44 
  L461.338 208.696 L457.18 213.02 L453.023 217.412 L448.866 221.871 L444.709 226.396 L440.552 230.985 L436.394 235.638 L432.237 240.353 L428.08 245.13 L423.923 249.965 
  L419.765 254.859 L415.608 259.808 L411.451 264.812 L407.294 269.869 L403.136 274.976 L398.979 280.132 L394.822 285.333 L390.665 290.578 L386.507 295.863 L382.35 301.186 
  L378.193 306.543 L374.036 311.932 L369.878 317.348 L365.721 322.788 L361.564 328.247 L357.407 333.721 L353.25 339.206 L349.092 344.695 L344.935 350.184 L340.778 355.667 
  L336.621 361.137 L332.463 366.588 L328.306 372.013 L324.149 377.403 L319.992 382.751 L315.834 388.048 L311.677 393.285 L307.52 398.452 L303.363 403.539 L299.205 408.535 
  L295.048 413.428 L290.891 418.206 L286.734 422.857 L282.577 427.368 L278.419 431.724 L274.262 435.912 L270.105 439.917 L265.948 443.724 L261.79 447.316 L257.633 450.679 
  L253.476 453.796 L249.319 456.652 L245.161 459.229 L241.004 461.512 L236.847 463.485 L232.69 465.132 L228.532 466.438 L224.375 467.387 L220.218 467.966 L216.061 468.16 
   Z
  " fill="#009af9" fill-rule="evenodd" fill-opacity="0.5"/>
<polyline clip-path="url(#clip6302)" style="stroke:#000000; stroke-width:4; stroke-opacity:1; fill:none" points="
  216.061,698.493 220.218,694.918 224.375,691.265 228.532,687.535 232.69,683.732 236.847,679.859 241.004,675.919 245.161,671.916 249.319,667.851 253.476,663.729 
  257.633,659.551 261.79,655.321 265.948,651.041 270.105,646.714 274.262,642.343 278.419,637.931 282.577,633.479 286.734,628.992 290.891,624.47 295.048,619.918 
  299.205,615.336 303.363,610.728 307.52,606.096 311.677,601.443 315.834,596.77 319.992,592.081 324.149,587.376 328.306,582.659 332.463,577.932 336.621,573.197 
  340.778,568.455 344.935,563.709 349.092,558.962 353.25,554.214 357.407,549.469 361.564,544.727 365.721,539.992 369.878,535.264 374.036,530.546 378.193,525.839 
  382.35,521.146 386.507,516.467 390.665,511.805 394.822,507.162 398.979,502.539 403.136,497.937 407.294,493.359 411.451,488.805 415.608,484.278 419.765,479.779 
  423.923,475.31 428.08,470.871 432.237,466.465 436.394,462.093 440.552,457.755 444.709,453.454 448.866,449.191 453.023,444.968 457.18,440.784 461.338,436.642 
  465.495,432.543 469.652,428.488 473.809,424.478 477.967,420.515 482.124,416.599 486.281,412.732 490.438,408.914 494.596,405.147 498.753,401.432 502.91,397.769 
  507.067,394.16 511.225,390.606 515.382,387.107 519.539,383.665 523.696,380.28 527.853,376.953 532.011,373.685 536.168,370.477 540.325,367.33 544.482,364.244 
  548.64,361.22 552.797,358.259 556.954,355.361 561.111,352.528 565.269,349.76 569.426,347.057 573.583,344.421 577.74,341.851 581.898,339.349 586.055,336.914 
  590.212,334.548 594.369,332.251 598.527,330.023 602.684,327.865 606.841,325.778 610.998,323.762 615.155,321.816 619.313,319.943 623.47,318.141 627.627,316.412 
  631.784,314.756 635.942,313.173 640.099,311.663 644.256,310.227 648.413,308.865 652.571,307.577 656.728,306.364 660.885,305.226 665.042,304.162 669.2,303.174 
  673.357,302.26 677.514,301.423 681.671,300.661 685.829,299.975 689.986,299.364 694.143,298.83 698.3,298.372 702.457,297.989 706.615,297.683 710.772,297.453 
  714.929,297.3 719.086,297.222 723.244,297.221 727.401,297.296 731.558,297.447 735.715,297.674 739.873,297.978 744.03,298.357 748.187,298.812 752.344,299.342 
  756.502,299.949 760.659,300.631 764.816,301.388 768.973,302.22 773.13,303.128 777.288,304.11 781.445,305.167 785.602,306.298 789.759,307.503 793.917,308.782 
  798.074,310.135 802.231,311.561 806.388,313.06 810.546,314.633 814.703,316.277 818.86,317.994 823.017,319.783 827.175,321.643 831.332,323.574 835.489,325.577 
  839.646,327.649 843.804,329.792 847.961,332.004 852.118,334.286 856.275,336.637 860.432,339.056 864.59,341.542 868.747,344.097 872.904,346.718 877.061,349.406 
  881.219,352.161 885.376,354.98 889.533,357.865 893.69,360.815 897.848,363.828 902.005,366.906 906.162,370.046 910.319,373.249 914.477,376.513 918.634,379.839 
  922.791,383.226 926.948,386.673 931.106,390.179 935.263,393.745 939.42,397.369 943.577,401.05 947.734,404.789 951.892,408.584 956.049,412.435 960.206,416.341 
  964.363,420.302 968.521,424.316 972.678,428.384 976.835,432.504 980.992,436.676 985.15,440.899 989.307,445.173 993.464,449.496 997.621,453.867 1001.78,458.288 
  1005.94,462.755 1010.09,467.269 1014.25,471.83 1018.41,476.435 1022.56,481.085 1026.72,485.778 1030.88,490.514 1035.04,495.293 1039.19,500.112 1043.35,504.973 
  1047.51,509.872 1051.67,514.811 1055.82,519.788 1059.98,524.802 1064.14,529.852 1068.29,534.938 1072.45,540.058 1076.61,545.212 1080.77,550.4 1084.92,555.619 
  1089.08,560.87 1093.24,566.151 1097.39,571.462 1101.55,576.801 1105.71,582.168 1109.87,587.562 1114.02,592.982 1118.18,598.427 1122.34,603.896 1126.5,609.389 
  1130.65,614.904 1134.81,620.44 1138.97,625.997 1143.12,631.573 1147.28,637.169 1151.44,642.781 1155.6,648.411 1159.75,654.057 1163.91,659.717 1168.07,665.392 
  1172.23,671.079 1176.38,676.779 1180.54,682.49 1184.7,688.211 1188.85,693.941 1193.01,699.679 1197.17,705.425 1201.33,711.177 1205.48,716.934 1209.64,722.696 
  1213.8,728.461 1217.95,734.228 1222.11,739.997 1226.27,745.767 1230.43,751.535 1234.58,757.303 1238.74,763.067 1242.9,768.829 1247.06,774.586 1251.21,780.337 
  1255.37,786.082 1259.53,791.819 1263.68,797.548 1267.84,803.268 1272,808.977 1276.16,814.675 1280.31,820.36 1284.47,826.032 1288.63,831.689 1292.79,837.331 
  1296.94,842.956 1301.1,848.565 1305.26,854.154 1309.41,859.725 1313.57,865.274 1317.73,870.803 1321.89,876.309 1326.04,881.792 1330.2,887.25 1334.36,892.683 
  1338.51,898.089 1342.67,903.469 1346.83,908.819 1350.99,914.141 1355.14,919.432 1359.3,924.692 1363.46,929.92 1367.62,935.115 1371.77,940.275 1375.93,945.4 
  1380.09,950.489 1384.24,955.541 1388.4,960.554 1392.56,965.529 1396.72,970.464 1400.87,975.358 1405.03,980.21 1409.19,985.019 1413.35,989.784 1417.5,994.505 
  1421.66,999.179 1425.82,1003.81 1429.97,1008.39 1434.13,1012.92 1438.29,1017.4 1442.45,1021.84 1446.6,1026.22 1450.76,1030.55 1454.92,1034.82 1459.07,1039.05 
  1463.23,1043.22 1467.39,1047.33 1471.55,1051.38 1475.7,1055.38 1479.86,1059.32 1484.02,1063.21 1488.18,1067.03 1492.33,1070.79 1496.49,1074.49 1500.65,1078.13 
  1504.8,1081.7 1508.96,1085.21 1513.12,1088.65 1517.28,1092.03 1521.43,1095.35 1525.59,1098.59 1529.75,1101.77 1533.9,1104.88 1538.06,1107.92 1542.22,1110.89 
  1546.38,1113.79 1550.53,1116.62 1554.69,1119.38 1558.85,1122.06 1563.01,1124.67 1567.16,1127.21 1571.32,1129.67 1575.48,1132.05 1579.63,1134.36 1583.79,1136.59 
  1587.95,1138.75 1592.11,1140.82 1596.26,1142.82 1600.42,1144.74 1604.58,1146.58 1608.74,1148.34 1612.89,1150.01 1617.05,1151.61 1621.21,1153.13 1625.36,1154.56 
  1629.52,1155.91 1633.68,1157.17 1637.84,1158.36 1641.99,1159.45 1646.15,1160.47 1650.31,1161.4 1654.46,1162.24 1658.62,1163 1662.78,1163.67 1666.94,1164.26 
  1671.09,1164.75 1675.25,1165.17 1679.41,1165.49 1683.57,1165.73 1687.72,1165.88 1691.88,1165.94 1696.04,1165.91 1700.19,1165.8 1704.35,1165.59 1708.51,1165.3 
  1712.67,1164.92 1716.82,1164.45 1720.98,1163.89 1725.14,1163.24 1729.3,1162.51 1733.45,1161.68 1737.61,1160.77 1741.77,1159.76 1745.92,1158.67 1750.08,1157.49 
  1754.24,1156.22 1758.4,1154.86 1762.55,1153.41 1766.71,1151.88 1770.87,1150.26 1775.02,1148.55 1779.18,1146.75 1783.34,1144.86 1787.5,1142.89 1791.65,1140.83 
  1795.81,1138.69 1799.97,1136.46 1804.13,1134.15 1808.28,1131.75 1812.44,1129.26 1816.6,1126.69 1820.75,1124.04 1824.91,1121.31 1829.07,1118.5 1833.23,1115.6 
  1837.38,1112.62 1841.54,1109.57 1845.7,1106.43 1849.85,1103.22 1854.01,1099.93 1858.17,1096.56 1862.33,1093.12 1866.48,1089.6 1870.64,1086.01 1874.8,1082.35 
  1878.96,1078.61 1883.11,1074.81 1887.27,1070.93 1891.43,1066.99 1895.58,1062.98 1899.74,1058.9 1903.9,1054.77 1908.06,1050.56 1912.21,1046.3 1916.37,1041.98 
  1920.53,1037.59 1924.69,1033.16 1928.84,1028.66 1933,1024.11 1937.16,1019.51 1941.31,1014.86 1945.47,1010.16 1949.63,1005.42 1953.79,1000.63 1957.94,995.793 
  1962.1,990.918 1966.26,986.004 1970.41,981.054 1974.57,976.069 1978.73,971.051 1982.89,966.003 1987.04,960.927 1991.2,955.826 1995.36,950.701 1999.52,945.556 
  2003.67,940.393 2007.83,935.214 2011.99,930.022 2016.14,924.82 2020.3,919.611 2024.46,914.398 2028.62,909.183 2032.77,903.969 2036.93,898.759 2041.09,893.558 
  2045.25,888.367 2049.4,883.19 2053.56,878.031 2057.72,872.892 2061.87,867.778 2066.03,862.691 2070.19,857.636 2074.35,852.616 2078.5,847.635 2082.66,842.696 
  2086.82,837.805 2090.97,832.964 2095.13,828.177 2099.29,823.45 2103.45,818.786 2107.6,814.189 2111.76,809.664 2115.92,805.216 2120.08,800.849 2124.23,796.568 
  2128.39,792.377 2132.55,788.281 2136.7,784.286 2140.86,780.397 2145.02,776.617 2149.18,772.954 2153.33,769.412 2157.49,765.996 2161.65,762.712 2165.8,759.567 
  2169.96,756.564 2174.12,753.711 2178.28,751.013 2182.43,748.477 2186.59,746.108 2190.75,743.913 2194.91,741.898 2199.06,740.069 2203.22,738.434 2207.38,736.999 
  2211.53,735.771 2215.69,734.756 2219.85,733.963 2224.01,733.397 2228.16,733.067 2232.32,732.98 2236.48,733.143 2240.64,733.565 2244.79,734.252 2248.95,735.213 
  2253.11,736.457 2257.26,737.99 2261.42,739.823 2265.58,741.962 2269.74,744.418 2273.89,747.198 2278.05,750.311 2282.21,753.767 2286.36,757.576 2290.52,761.745 
  
  "/>
<circle clip-path="url(#clip6302)" cx="935.772" cy="420.857" r="14" fill="#e26f46" fill-rule="evenodd" fill-opacity="1" stroke="#000000" stroke-opacity="1" stroke-width="3.2"/>
<circle clip-path="url(#clip6302)" cx="427.74" cy="475.592" r="14" fill="#e26f46" fill-rule="evenodd" fill-opacity="1" stroke="#000000" stroke-opacity="1" stroke-width="3.2"/>
<circle clip-path="url(#clip6302)" cx="2205.85" cy="714.639" r="14" fill="#e26f46" fill-rule="evenodd" fill-opacity="1" stroke="#000000" stroke-opacity="1" stroke-width="3.2"/>
<circle clip-path="url(#clip6302)" cx="893.436" cy="363.034" r="14" fill="#e26f46" fill-rule="evenodd" fill-opacity="1" stroke="#000000" stroke-opacity="1" stroke-width="3.2"/>
<circle clip-path="url(#clip6302)" cx="1062.78" cy="508.724" r="14" fill="#e26f46" fill-rule="evenodd" fill-opacity="1" stroke="#000000" stroke-opacity="1" stroke-width="3.2"/>
<circle clip-path="url(#clip6302)" cx="2205.85" cy="714.639" r="14" fill="#e26f46" fill-rule="evenodd" fill-opacity="1" stroke="#000000" stroke-opacity="1" stroke-width="3.2"/>
<circle clip-path="url(#clip6302)" cx="1062.78" cy="508.724" r="14" fill="#e26f46" fill-rule="evenodd" fill-opacity="1" stroke="#000000" stroke-opacity="1" stroke-width="3.2"/>
<circle clip-path="url(#clip6302)" cx="216.061" cy="695.22" r="14" fill="#e26f46" fill-rule="evenodd" fill-opacity="1" stroke="#000000" stroke-opacity="1" stroke-width="3.2"/>
<circle clip-path="url(#clip6302)" cx="1867.16" cy="1114.55" r="14" fill="#e26f46" fill-rule="evenodd" fill-opacity="1" stroke="#000000" stroke-opacity="1" stroke-width="3.2"/>
<circle clip-path="url(#clip6302)" cx="2290.52" cy="790.703" r="14" fill="#e26f46" fill-rule="evenodd" fill-opacity="1" stroke="#000000" stroke-opacity="1" stroke-width="3.2"/>
<path clip-path="url(#clip6300)" d="
M1481.63 312.204 L2280.76 312.204 L2280.76 130.764 L1481.63 130.764  Z
  " fill="#ffffff" fill-rule="evenodd" fill-opacity="1"/>
<polyline clip-path="url(#clip6300)" style="stroke:#000000; stroke-width:4; stroke-opacity:1; fill:none" points="
  1481.63,312.204 2280.76,312.204 2280.76,130.764 1481.63,130.764 1481.63,312.204 
  "/>
<polyline clip-path="url(#clip6300)" style="stroke:#000000; stroke-width:4; stroke-opacity:1; fill:none" points="
  1505.63,191.244 1649.63,191.244 
  "/>
<g clip-path="url(#clip6300)">
<text style="fill:#000000; fill-opacity:1; font-family:Arial,Helvetica Neue,Helvetica,sans-serif; font-size:48px; text-anchor:start;" transform="rotate(0, 1673.63, 208.744)" x="1673.63" y="208.744">MAP with 95% confidence</text>
</g>
<circle clip-path="url(#clip6300)" cx="1589.63" cy="251.724" r="21" fill="#e26f46" fill-rule="evenodd" fill-opacity="1" stroke="#000000" stroke-opacity="1" stroke-width="3.2"/>
<g clip-path="url(#clip6300)">
<text style="fill:#000000; fill-opacity:1; font-family:Arial,Helvetica Neue,Helvetica,sans-serif; font-size:48px; text-anchor:start;" transform="rotate(0, 1673.63, 269.224)" x="1673.63" y="269.224">data</text>
</g>
</svg>
