<?xml version="1.0" encoding="utf-8"?>
<svg xmlns="http://www.w3.org/2000/svg" xmlns:xlink="http://www.w3.org/1999/xlink" width="600" height="400" viewBox="0 0 2400 1600">
<defs>
  <clipPath id="clip3800">
    <rect x="0" y="0" width="2400" height="1600"/>
  </clipPath>
</defs>
<path clip-path="url(#clip3800)" d="
M0 1600 L2400 1600 L2400 0 L0 0  Z
  " fill="#ffffff" fill-rule="evenodd" fill-opacity="1"/>
<defs>
  <clipPath id="clip3801">
    <rect x="480" y="0" width="1681" height="1600"/>
  </clipPath>
</defs>
<path clip-path="url(#clip3800)" d="
M120.832 1500.68 L2352.76 1500.68 L2352.76 47.2441 L120.832 47.2441  Z
  " fill="#ffffff" fill-rule="evenodd" fill-opacity="1"/>
<defs>
  <clipPath id="clip3802">
    <rect x="120" y="47" width="2233" height="1454"/>
  </clipPath>
</defs>
<polyline clip-path="url(#clip3802)" style="stroke:#000000; stroke-width:2; stroke-opacity:0.1; fill:none" points="
  184,1500.68 184,47.2441 
  "/>
<polyline clip-path="url(#clip3802)" style="stroke:#000000; stroke-width:2; stroke-opacity:0.1; fill:none" points="
  710.397,1500.68 710.397,47.2441 
  "/>
<polyline clip-path="url(#clip3802)" style="stroke:#000000; stroke-width:2; stroke-opacity:0.1; fill:none" points="
  1236.79,1500.68 1236.79,47.2441 
  "/>
<polyline clip-path="url(#clip3802)" style="stroke:#000000; stroke-width:2; stroke-opacity:0.1; fill:none" points="
  1763.19,1500.68 1763.19,47.2441 
  "/>
<polyline clip-path="url(#clip3802)" style="stroke:#000000; stroke-width:2; stroke-opacity:0.1; fill:none" points="
  2289.59,1500.68 2289.59,47.2441 
  "/>
<polyline clip-path="url(#clip3802)" style="stroke:#000000; stroke-width:2; stroke-opacity:0.1; fill:none" points="
  120.832,1265 2352.76,1265 
  "/>
<polyline clip-path="url(#clip3802)" style="stroke:#000000; stroke-width:2; stroke-opacity:0.1; fill:none" points="
  120.832,990.15 2352.76,990.15 
  "/>
<polyline clip-path="url(#clip3802)" style="stroke:#000000; stroke-width:2; stroke-opacity:0.1; fill:none" points="
  120.832,715.303 2352.76,715.303 
  "/>
<polyline clip-path="url(#clip3802)" style="stroke:#000000; stroke-width:2; stroke-opacity:0.1; fill:none" points="
  120.832,440.456 2352.76,440.456 
  "/>
<polyline clip-path="url(#clip3802)" style="stroke:#000000; stroke-width:2; stroke-opacity:0.1; fill:none" points="
  120.832,165.609 2352.76,165.609 
  "/>
<polyline clip-path="url(#clip3800)" style="stroke:#000000; stroke-width:4; stroke-opacity:1; fill:none" points="
  120.832,1500.68 2352.76,1500.68 
  "/>
<polyline clip-path="url(#clip3800)" style="stroke:#000000; stroke-width:4; stroke-opacity:1; fill:none" points="
  120.832,1500.68 120.832,47.2441 
  "/>
<polyline clip-path="url(#clip3800)" style="stroke:#000000; stroke-width:4; stroke-opacity:1; fill:none" points="
  184,1500.68 184,1483.24 
  "/>
<polyline clip-path="url(#clip3800)" style="stroke:#000000; stroke-width:4; stroke-opacity:1; fill:none" points="
  710.397,1500.68 710.397,1483.24 
  "/>
<polyline clip-path="url(#clip3800)" style="stroke:#000000; stroke-width:4; stroke-opacity:1; fill:none" points="
  1236.79,1500.68 1236.79,1483.24 
  "/>
<polyline clip-path="url(#clip3800)" style="stroke:#000000; stroke-width:4; stroke-opacity:1; fill:none" points="
  1763.19,1500.68 1763.19,1483.24 
  "/>
<polyline clip-path="url(#clip3800)" style="stroke:#000000; stroke-width:4; stroke-opacity:1; fill:none" points="
  2289.59,1500.68 2289.59,1483.24 
  "/>
<polyline clip-path="url(#clip3800)" style="stroke:#000000; stroke-width:4; stroke-opacity:1; fill:none" points="
  120.832,1265 147.615,1265 
  "/>
<polyline clip-path="url(#clip3800)" style="stroke:#000000; stroke-width:4; stroke-opacity:1; fill:none" points="
  120.832,990.15 147.615,990.15 
  "/>
<polyline clip-path="url(#clip3800)" style="stroke:#000000; stroke-width:4; stroke-opacity:1; fill:none" points="
  120.832,715.303 147.615,715.303 
  "/>
<polyline clip-path="url(#clip3800)" style="stroke:#000000; stroke-width:4; stroke-opacity:1; fill:none" points="
  120.832,440.456 147.615,440.456 
  "/>
<polyline clip-path="url(#clip3800)" style="stroke:#000000; stroke-width:4; stroke-opacity:1; fill:none" points="
  120.832,165.609 147.615,165.609 
  "/>
<g clip-path="url(#clip3800)">
<text style="fill:#000000; fill-opacity:1; font-family:Arial,Helvetica Neue,Helvetica,sans-serif; font-size:48px; text-anchor:middle;" transform="rotate(0, 184, 1554.68)" x="184" y="1554.68">0.00</text>
</g>
<g clip-path="url(#clip3800)">
<text style="fill:#000000; fill-opacity:1; font-family:Arial,Helvetica Neue,Helvetica,sans-serif; font-size:48px; text-anchor:middle;" transform="rotate(0, 710.397, 1554.68)" x="710.397" y="1554.68">0.25</text>
</g>
<g clip-path="url(#clip3800)">
<text style="fill:#000000; fill-opacity:1; font-family:Arial,Helvetica Neue,Helvetica,sans-serif; font-size:48px; text-anchor:middle;" transform="rotate(0, 1236.79, 1554.68)" x="1236.79" y="1554.68">0.50</text>
</g>
<g clip-path="url(#clip3800)">
<text style="fill:#000000; fill-opacity:1; font-family:Arial,Helvetica Neue,Helvetica,sans-serif; font-size:48px; text-anchor:middle;" transform="rotate(0, 1763.19, 1554.68)" x="1763.19" y="1554.68">0.75</text>
</g>
<g clip-path="url(#clip3800)">
<text style="fill:#000000; fill-opacity:1; font-family:Arial,Helvetica Neue,Helvetica,sans-serif; font-size:48px; text-anchor:middle;" transform="rotate(0, 2289.59, 1554.68)" x="2289.59" y="1554.68">1.00</text>
</g>
<g clip-path="url(#clip3800)">
<text style="fill:#000000; fill-opacity:1; font-family:Arial,Helvetica Neue,Helvetica,sans-serif; font-size:48px; text-anchor:end;" transform="rotate(0, 96.8319, 1282.5)" x="96.8319" y="1282.5">-2</text>
</g>
<g clip-path="url(#clip3800)">
<text style="fill:#000000; fill-opacity:1; font-family:Arial,Helvetica Neue,Helvetica,sans-serif; font-size:48px; text-anchor:end;" transform="rotate(0, 96.8319, 1007.65)" x="96.8319" y="1007.65">-1</text>
</g>
<g clip-path="url(#clip3800)">
<text style="fill:#000000; fill-opacity:1; font-family:Arial,Helvetica Neue,Helvetica,sans-serif; font-size:48px; text-anchor:end;" transform="rotate(0, 96.8319, 732.803)" x="96.8319" y="732.803">0</text>
</g>
<g clip-path="url(#clip3800)">
<text style="fill:#000000; fill-opacity:1; font-family:Arial,Helvetica Neue,Helvetica,sans-serif; font-size:48px; text-anchor:end;" transform="rotate(0, 96.8319, 457.956)" x="96.8319" y="457.956">1</text>
</g>
<g clip-path="url(#clip3800)">
<text style="fill:#000000; fill-opacity:1; font-family:Arial,Helvetica Neue,Helvetica,sans-serif; font-size:48px; text-anchor:end;" transform="rotate(0, 96.8319, 183.109)" x="96.8319" y="183.109">2</text>
</g>
<path clip-path="url(#clip3802)" d="
M184 1040.89 L188.219 1033.22 L192.439 1025.94 L196.658 1019.04 L200.878 1012.5 L205.098 1006.31 L209.317 1000.45 L213.537 994.9 L217.756 989.652 L221.976 984.684 
  L226.196 979.979 L230.415 975.52 L234.635 971.289 L238.855 967.268 L243.074 963.442 L247.294 959.793 L251.513 956.306 L255.733 952.965 L259.953 949.757 L264.172 946.666 
  L268.392 943.68 L272.612 940.787 L276.831 937.975 L281.051 935.233 L285.27 932.551 L289.49 929.92 L293.71 927.331 L297.929 924.776 L302.149 922.249 L306.368 919.742 
  L310.588 917.251 L314.808 914.769 L319.027 912.292 L323.247 909.816 L327.467 907.337 L331.686 904.851 L335.906 902.357 L340.125 899.851 L344.345 897.332 L348.565 894.798 
  L352.784 892.247 L357.004 889.679 L361.223 887.092 L365.443 884.487 L369.663 881.862 L373.882 879.218 L378.102 876.555 L382.322 873.873 L386.541 871.172 L390.761 868.454 
  L394.98 865.718 L399.2 862.965 L403.42 860.197 L407.639 857.414 L411.859 854.618 L416.078 851.809 L420.298 848.989 L424.518 846.16 L428.737 843.321 L432.957 840.476 
  L437.177 837.624 L441.396 834.769 L445.616 831.91 L449.835 829.051 L454.055 826.191 L458.275 823.333 L462.494 820.478 L466.714 817.627 L470.933 814.783 L475.153 811.947 
  L479.373 809.12 L483.592 806.303 L487.812 803.498 L492.032 800.708 L496.251 797.932 L500.471 795.173 L504.69 792.432 L508.91 789.71 L513.13 787.009 L517.349 784.33 
  L521.569 781.675 L525.789 779.045 L530.008 776.44 L534.228 773.863 L538.447 771.314 L542.667 768.795 L546.887 766.308 L551.106 763.852 L555.326 761.429 L559.545 759.041 
  L563.765 756.688 L567.985 754.372 L572.204 752.093 L576.424 749.852 L580.644 747.651 L584.863 745.49 L589.083 743.37 L593.302 741.292 L597.522 739.257 L601.742 737.266 
  L605.961 735.319 L610.181 733.417 L614.4 731.562 L618.62 729.753 L622.84 727.992 L627.059 726.278 L631.279 724.613 L635.499 722.998 L639.718 721.432 L643.938 719.917 
  L648.157 718.453 L652.377 717.04 L656.597 715.68 L660.816 714.371 L665.036 713.116 L669.255 711.915 L673.475 710.767 L677.695 709.673 L681.914 708.634 L686.134 707.651 
  L690.354 706.723 L694.573 705.85 L698.793 705.034 L703.012 704.274 L707.232 703.571 L711.452 702.926 L715.671 702.337 L719.891 701.807 L724.11 701.334 L728.33 700.92 
  L732.55 700.565 L736.769 700.268 L740.989 700.03 L745.209 699.852 L749.428 699.734 L753.648 699.675 L757.867 699.676 L762.087 699.738 L766.307 699.86 L770.526 700.043 
  L774.746 700.288 L778.966 700.593 L783.185 700.96 L787.405 701.388 L791.624 701.879 L795.844 702.431 L800.064 703.046 L804.283 703.724 L808.503 704.464 L812.722 705.268 
  L816.942 706.135 L821.162 707.065 L825.381 708.059 L829.601 709.117 L833.821 710.239 L838.04 711.425 L842.26 712.676 L846.479 713.992 L850.699 715.373 L854.919 716.819 
  L859.138 718.331 L863.358 719.908 L867.577 721.551 L871.797 723.261 L876.017 725.037 L880.236 726.879 L884.456 728.788 L888.676 730.764 L892.895 732.808 L897.115 734.919 
  L901.334 737.097 L905.554 739.343 L909.774 741.657 L913.993 744.038 L918.213 746.488 L922.432 749.007 L926.652 751.593 L930.872 754.249 L935.091 756.973 L939.311 759.765 
  L943.531 762.626 L947.75 765.556 L951.97 768.555 L956.189 771.622 L960.409 774.759 L964.629 777.963 L968.848 781.237 L973.068 784.579 L977.287 787.989 L981.507 791.468 
  L985.727 795.015 L989.946 798.629 L994.166 802.311 L998.386 806.061 L1002.61 809.877 L1006.82 813.76 L1011.04 817.71 L1015.26 821.725 L1019.48 825.806 L1023.7 829.952 
  L1027.92 834.162 L1032.14 838.436 L1036.36 842.774 L1040.58 847.174 L1044.8 851.637 L1049.02 856.161 L1053.24 860.745 L1057.46 865.39 L1061.68 870.093 L1065.9 874.855 
  L1070.12 879.675 L1074.34 884.55 L1078.56 889.482 L1082.78 894.468 L1087 899.507 L1091.22 904.599 L1095.44 909.742 L1099.66 914.936 L1103.88 920.179 L1108.1 925.469 
  L1112.32 930.807 L1116.53 936.19 L1120.75 941.617 L1124.97 947.087 L1129.19 952.599 L1133.41 958.151 L1137.63 963.742 L1141.85 969.371 L1146.07 975.035 L1150.29 980.734 
  L1154.51 986.467 L1158.73 992.231 L1162.95 998.025 L1167.17 1003.85 L1171.39 1009.7 L1175.61 1015.57 L1179.83 1021.47 L1184.05 1027.39 L1188.27 1033.34 L1192.49 1039.3 
  L1196.71 1045.28 L1200.93 1051.27 L1205.15 1057.28 L1209.37 1063.3 L1213.59 1069.33 L1217.81 1075.38 L1222.03 1081.43 L1226.24 1087.48 L1230.46 1093.54 L1234.68 1099.6 
  L1238.9 1105.66 L1243.12 1111.73 L1247.34 1117.78 L1251.56 1123.84 L1255.78 1129.89 L1260 1135.93 L1264.22 1141.96 L1268.44 1147.98 L1272.66 1153.99 L1276.88 1159.98 
  L1281.1 1165.95 L1285.32 1171.91 L1289.54 1177.85 L1293.76 1183.77 L1297.98 1189.66 L1302.2 1195.53 L1306.42 1201.37 L1310.64 1207.19 L1314.86 1212.97 L1319.08 1218.73 
  L1323.3 1224.45 L1327.52 1230.13 L1331.74 1235.78 L1335.95 1241.39 L1340.17 1246.97 L1344.39 1252.5 L1348.61 1257.99 L1352.83 1263.43 L1357.05 1268.83 L1361.27 1274.18 
  L1365.49 1279.48 L1369.71 1284.73 L1373.93 1289.93 L1378.15 1295.07 L1382.37 1300.16 L1386.59 1305.2 L1390.81 1310.17 L1395.03 1315.09 L1399.25 1319.94 L1403.47 1324.74 
  L1407.69 1329.47 L1411.91 1334.13 L1416.13 1338.73 L1420.35 1343.26 L1424.57 1347.72 L1428.79 1352.1 L1433.01 1356.42 L1437.23 1360.67 L1441.45 1364.84 L1445.66 1368.93 
  L1449.88 1372.95 L1454.1 1376.89 L1458.32 1380.75 L1462.54 1384.52 L1466.76 1388.22 L1470.98 1391.84 L1475.2 1395.37 L1479.42 1398.81 L1483.64 1402.17 L1487.86 1405.45 
  L1492.08 1408.63 L1496.3 1411.73 L1500.52 1414.73 L1504.74 1417.65 L1508.96 1420.47 L1513.18 1423.2 L1517.4 1425.83 L1521.62 1428.38 L1525.84 1430.82 L1530.06 1433.17 
  L1534.28 1435.43 L1538.5 1437.59 L1542.72 1439.64 L1546.94 1441.6 L1551.16 1443.47 L1555.37 1445.23 L1559.59 1446.89 L1563.81 1448.45 L1568.03 1449.91 L1572.25 1451.27 
  L1576.47 1452.52 L1580.69 1453.67 L1584.91 1454.73 L1589.13 1455.67 L1593.35 1456.52 L1597.57 1457.26 L1601.79 1457.9 L1606.01 1458.43 L1610.23 1458.86 L1614.45 1459.19 
  L1618.67 1459.41 L1622.89 1459.53 L1627.11 1459.55 L1631.33 1459.46 L1635.55 1459.27 L1639.77 1458.98 L1643.99 1458.59 L1648.21 1458.09 L1652.43 1457.5 L1656.65 1456.8 
  L1660.87 1456 L1665.08 1455.1 L1669.3 1454.11 L1673.52 1453.01 L1677.74 1451.82 L1681.96 1450.53 L1686.18 1449.14 L1690.4 1447.67 L1694.62 1446.09 L1698.84 1444.43 
  L1703.06 1442.67 L1707.28 1440.82 L1711.5 1438.89 L1715.72 1436.86 L1719.94 1434.75 L1724.16 1432.56 L1728.38 1430.28 L1732.6 1427.92 L1736.82 1425.48 L1741.04 1422.96 
  L1745.26 1420.37 L1749.48 1417.7 L1753.7 1414.95 L1757.92 1412.14 L1762.14 1409.26 L1766.36 1406.31 L1770.58 1403.3 L1774.8 1400.22 L1779.01 1397.09 L1783.23 1393.9 
  L1787.45 1390.65 L1791.67 1387.35 L1795.89 1384 L1800.11 1380.6 L1804.33 1377.15 L1808.55 1373.66 L1812.77 1370.13 L1816.99 1366.56 L1821.21 1362.96 L1825.43 1359.32 
  L1829.65 1355.66 L1833.87 1351.96 L1838.09 1348.24 L1842.31 1344.5 L1846.53 1340.74 L1850.75 1336.96 L1854.97 1333.16 L1859.19 1329.36 L1863.41 1325.54 L1867.63 1321.71 
  L1871.85 1317.88 L1876.07 1314.05 L1880.29 1310.21 L1884.51 1306.38 L1888.72 1302.54 L1892.94 1298.71 L1897.16 1294.89 L1901.38 1291.08 L1905.6 1287.27 L1909.82 1283.47 
  L1914.04 1279.69 L1918.26 1275.92 L1922.48 1272.16 L1926.7 1268.42 L1930.92 1264.69 L1935.14 1260.97 L1939.36 1257.27 L1943.58 1253.59 L1947.8 1249.93 L1952.02 1246.28 
  L1956.24 1242.64 L1960.46 1239.02 L1964.68 1235.42 L1968.9 1231.83 L1973.12 1228.25 L1977.34 1224.68 L1981.56 1221.12 L1985.78 1217.58 L1990 1214.04 L1994.22 1210.51 
  L1998.43 1206.98 L2002.65 1203.46 L2006.87 1199.94 L2011.09 1196.42 L2015.31 1192.9 L2019.53 1189.37 L2023.75 1185.84 L2027.97 1182.3 L2032.19 1178.75 L2036.41 1175.19 
  L2040.63 1171.61 L2044.85 1168.02 L2049.07 1164.41 L2053.29 1160.78 L2057.51 1157.13 L2061.73 1153.46 L2065.95 1149.76 L2070.17 1146.03 L2074.39 1142.28 L2078.61 1138.49 
  L2082.83 1134.67 L2087.05 1130.83 L2091.27 1126.94 L2095.49 1123.03 L2099.71 1119.08 L2103.93 1115.1 L2108.14 1111.08 L2112.36 1107.03 L2116.58 1102.94 L2120.8 1098.82 
  L2125.02 1094.68 L2129.24 1090.51 L2133.46 1086.31 L2137.68 1082.09 L2141.9 1077.86 L2146.12 1073.62 L2150.34 1069.37 L2154.56 1065.12 L2158.78 1060.89 L2163 1056.67 
  L2167.22 1052.49 L2171.44 1048.35 L2175.66 1044.27 L2179.88 1040.27 L2184.1 1036.36 L2188.32 1032.56 L2192.54 1028.9 L2196.76 1025.4 L2200.98 1022.09 L2205.2 1019.01 
  L2209.42 1016.19 L2213.64 1013.66 L2217.85 1011.48 L2222.07 1009.69 L2226.29 1008.33 L2230.51 1007.47 L2234.73 1007.16 L2238.95 1007.46 L2243.17 1008.43 L2247.39 1010.15 
  L2251.61 1012.67 L2255.83 1016.07 L2260.05 1020.4 L2264.27 1025.74 L2268.49 1032.15 L2272.71 1039.67 L2276.93 1048.36 L2281.15 1058.28 L2285.37 1069.45 L2289.59 1081.91 
  L2289.59 416.055 L2285.37 422.25 L2281.15 427.695 L2276.93 432.411 L2272.71 436.423 L2268.49 439.765 L2264.27 442.475 L2260.05 444.597 L2255.83 446.177 L2251.61 447.267 
  L2247.39 447.92 L2243.17 448.19 L2238.95 448.131 L2234.73 447.797 L2230.51 447.24 L2226.29 446.509 L2222.07 445.649 L2217.85 444.705 L2213.64 443.716 L2209.42 442.718 
  L2205.2 441.742 L2200.98 440.818 L2196.76 439.971 L2192.54 439.222 L2188.32 438.592 L2184.1 438.095 L2179.88 437.746 L2175.66 437.556 L2171.44 437.534 L2167.22 437.686 
  L2163 438.019 L2158.78 438.536 L2154.56 439.24 L2150.34 440.131 L2146.12 441.21 L2141.9 442.476 L2137.68 443.926 L2133.46 445.559 L2129.24 447.37 L2125.02 449.357 
  L2120.8 451.514 L2116.58 453.837 L2112.36 456.32 L2108.14 458.958 L2103.93 461.744 L2099.71 464.673 L2095.49 467.738 L2091.27 470.932 L2087.05 474.248 L2082.83 477.68 
  L2078.61 481.221 L2074.39 484.863 L2070.17 488.599 L2065.95 492.422 L2061.73 496.325 L2057.51 500.3 L2053.29 504.341 L2049.07 508.441 L2044.85 512.591 L2040.63 516.785 
  L2036.41 521.016 L2032.19 525.277 L2027.97 529.562 L2023.75 533.863 L2019.53 538.174 L2015.31 542.488 L2011.09 546.799 L2006.87 551.102 L2002.65 555.388 L1998.43 559.654 
  L1994.22 563.893 L1990 568.1 L1985.78 572.268 L1981.56 576.394 L1977.34 580.472 L1973.12 584.497 L1968.9 588.464 L1964.68 592.37 L1960.46 596.209 L1956.24 599.979 
  L1952.02 603.676 L1947.8 607.295 L1943.58 610.834 L1939.36 614.289 L1935.14 617.658 L1930.92 620.939 L1926.7 624.128 L1922.48 627.224 L1918.26 630.225 L1914.04 633.129 
  L1909.82 635.935 L1905.6 638.641 L1901.38 641.247 L1897.16 643.751 L1892.94 646.153 L1888.72 648.452 L1884.51 650.649 L1880.29 652.742 L1876.07 654.733 L1871.85 656.621 
  L1867.63 658.406 L1863.41 660.09 L1859.19 661.673 L1854.97 663.155 L1850.75 664.537 L1846.53 665.822 L1842.31 667.008 L1838.09 668.099 L1833.87 669.095 L1829.65 669.997 
  L1825.43 670.807 L1821.21 671.526 L1816.99 672.156 L1812.77 672.698 L1808.55 673.155 L1804.33 673.527 L1800.11 673.816 L1795.89 674.025 L1791.67 674.154 L1787.45 674.206 
  L1783.23 674.183 L1779.01 674.085 L1774.8 673.915 L1770.58 673.675 L1766.36 673.366 L1762.14 672.99 L1757.92 672.549 L1753.7 672.045 L1749.48 671.478 L1745.26 670.852 
  L1741.04 670.167 L1736.82 669.425 L1732.6 668.628 L1728.38 667.777 L1724.16 666.875 L1719.94 665.921 L1715.72 664.919 L1711.5 663.869 L1707.28 662.773 L1703.06 661.632 
  L1698.84 660.448 L1694.62 659.221 L1690.4 657.954 L1686.18 656.648 L1681.96 655.304 L1677.74 653.923 L1673.52 652.506 L1669.3 651.055 L1665.08 649.57 L1660.87 648.053 
  L1656.65 646.505 L1652.43 644.927 L1648.21 643.32 L1643.99 641.685 L1639.77 640.023 L1635.55 638.334 L1631.33 636.62 L1627.11 634.883 L1622.89 633.121 L1618.67 631.337 
  L1614.45 629.531 L1610.23 627.704 L1606.01 625.857 L1601.79 623.991 L1597.57 622.105 L1593.35 620.202 L1589.13 618.281 L1584.91 616.343 L1580.69 614.389 L1576.47 612.419 
  L1572.25 610.435 L1568.03 608.436 L1563.81 606.423 L1559.59 604.397 L1555.37 602.358 L1551.16 600.306 L1546.94 598.243 L1542.72 596.168 L1538.5 594.083 L1534.28 591.986 
  L1530.06 589.88 L1525.84 587.763 L1521.62 585.637 L1517.4 583.502 L1513.18 581.359 L1508.96 579.206 L1504.74 577.046 L1500.52 574.877 L1496.3 572.701 L1492.08 570.518 
  L1487.86 568.327 L1483.64 566.13 L1479.42 563.926 L1475.2 561.715 L1470.98 559.498 L1466.76 557.275 L1462.54 555.047 L1458.32 552.812 L1454.1 550.571 L1449.88 548.325 
  L1445.66 546.074 L1441.45 543.817 L1437.23 541.555 L1433.01 539.288 L1428.79 537.016 L1424.57 534.739 L1420.35 532.457 L1416.13 530.17 L1411.91 527.878 L1407.69 525.581 
  L1403.47 523.279 L1399.25 520.972 L1395.03 518.661 L1390.81 516.344 L1386.59 514.023 L1382.37 511.697 L1378.15 509.366 L1373.93 507.029 L1369.71 504.688 L1365.49 502.341 
  L1361.27 499.989 L1357.05 497.632 L1352.83 495.27 L1348.61 492.901 L1344.39 490.527 L1340.17 488.148 L1335.95 485.762 L1331.74 483.371 L1327.52 480.973 L1323.3 478.569 
  L1319.08 476.159 L1314.86 473.742 L1310.64 471.318 L1306.42 468.888 L1302.2 466.45 L1297.98 464.005 L1293.76 461.552 L1289.54 459.092 L1285.32 456.624 L1281.1 454.149 
  L1276.88 451.665 L1272.66 449.172 L1268.44 446.671 L1264.22 444.161 L1260 441.642 L1255.78 439.114 L1251.56 436.577 L1247.34 434.03 L1243.12 431.473 L1238.9 428.906 
  L1234.68 426.328 L1230.46 423.74 L1226.24 421.142 L1222.03 418.533 L1217.81 415.912 L1213.59 413.28 L1209.37 410.637 L1205.15 407.982 L1200.93 405.316 L1196.71 402.637 
  L1192.49 399.946 L1188.27 397.242 L1184.05 394.526 L1179.83 391.797 L1175.61 389.056 L1171.39 386.301 L1167.17 383.533 L1162.95 380.752 L1158.73 377.958 L1154.51 375.151 
  L1150.29 372.329 L1146.07 369.495 L1141.85 366.646 L1137.63 363.784 L1133.41 360.909 L1129.19 358.02 L1124.97 355.117 L1120.75 352.201 L1116.53 349.271 L1112.32 346.328 
  L1108.1 343.372 L1103.88 340.402 L1099.66 337.42 L1095.44 334.425 L1091.22 331.417 L1087 328.397 L1082.78 325.365 L1078.56 322.321 L1074.34 319.266 L1070.12 316.199 
  L1065.9 313.122 L1061.68 310.034 L1057.46 306.936 L1053.24 303.829 L1049.02 300.713 L1044.8 297.589 L1040.58 294.456 L1036.36 291.316 L1032.14 288.169 L1027.92 285.016 
  L1023.7 281.858 L1019.48 278.695 L1015.26 275.527 L1011.04 272.357 L1006.82 269.183 L1002.61 266.008 L998.386 262.831 L994.166 259.655 L989.946 256.479 L985.727 253.304 
  L981.507 250.132 L977.287 246.964 L973.068 243.799 L968.848 240.64 L964.629 237.486 L960.409 234.34 L956.189 231.202 L951.97 228.074 L947.75 224.955 L943.531 221.848 
  L939.311 218.752 L935.091 215.67 L930.872 212.603 L926.652 209.55 L922.432 206.514 L918.213 203.496 L913.993 200.496 L909.774 197.516 L905.554 194.556 L901.334 191.618 
  L897.115 188.703 L892.895 185.812 L888.676 182.946 L884.456 180.106 L880.236 177.292 L876.017 174.507 L871.797 171.751 L867.577 169.024 L863.358 166.329 L859.138 163.666 
  L854.919 161.035 L850.699 158.439 L846.479 155.877 L842.26 153.352 L838.04 150.863 L833.821 148.411 L829.601 145.998 L825.381 143.625 L821.162 141.291 L816.942 138.999 
  L812.722 136.749 L808.503 134.541 L804.283 132.377 L800.064 130.257 L795.844 128.182 L791.624 126.153 L787.405 124.17 L783.185 122.234 L778.966 120.346 L774.746 118.506 
  L770.526 116.716 L766.307 114.975 L762.087 113.285 L757.867 111.646 L753.648 110.058 L749.428 108.522 L745.209 107.039 L740.989 105.609 L736.769 104.233 L732.55 102.911 
  L728.33 101.643 L724.11 100.431 L719.891 99.274 L715.671 98.1732 L711.452 97.1289 L707.232 96.1415 L703.012 95.2114 L698.793 94.339 L694.573 93.5246 L690.354 92.7686 
  L686.134 92.0715 L681.914 91.4335 L677.695 90.855 L673.475 90.3364 L669.255 89.8779 L665.036 89.4799 L660.816 89.1427 L656.597 88.8666 L652.377 88.6519 L648.157 88.4989 
  L643.938 88.4079 L639.718 88.3792 L635.499 88.413 L631.279 88.5097 L627.059 88.6695 L622.84 88.8927 L618.62 89.1795 L614.4 89.5303 L610.181 89.9453 L605.961 90.4247 
  L601.742 90.9688 L597.522 91.5778 L593.302 92.2522 L589.083 92.992 L584.863 93.7975 L580.644 94.6691 L576.424 95.6069 L572.204 96.6113 L567.985 97.6824 L563.765 98.8206 
  L559.545 100.026 L555.326 101.299 L551.106 102.64 L546.887 104.049 L542.667 105.526 L538.447 107.072 L534.228 108.686 L530.008 110.37 L525.789 112.123 L521.569 113.945 
  L517.349 115.838 L513.13 117.8 L508.91 119.832 L504.69 121.935 L500.471 124.108 L496.251 126.352 L492.032 128.667 L487.812 131.053 L483.592 133.511 L479.373 136.04 
  L475.153 138.64 L470.933 141.312 L466.714 144.055 L462.494 146.87 L458.275 149.756 L454.055 152.714 L449.835 155.744 L445.616 158.844 L441.396 162.016 L437.177 165.259 
  L432.957 168.572 L428.737 171.956 L424.518 175.409 L420.298 178.931 L416.078 182.523 L411.859 186.182 L407.639 189.909 L403.42 193.702 L399.2 197.56 L394.98 201.483 
  L390.761 205.468 L386.541 209.516 L382.322 213.623 L378.102 217.789 L373.882 222.011 L369.663 226.287 L365.443 230.615 L361.223 234.993 L357.004 239.417 L352.784 243.885 
  L348.565 248.393 L344.345 252.937 L340.125 257.514 L335.906 262.118 L331.686 266.746 L327.467 271.391 L323.247 276.048 L319.027 280.712 L314.808 285.375 L310.588 290.03 
  L306.368 294.669 L302.149 299.284 L297.929 303.866 L293.71 308.406 L289.49 312.892 L285.27 317.313 L281.051 321.659 L276.831 325.915 L272.612 330.068 L268.392 334.105 
  L264.172 338.009 L259.953 341.765 L255.733 345.356 L251.513 348.765 L247.294 351.972 L243.074 354.959 L238.855 357.706 L234.635 360.193 L230.415 362.398 L226.196 364.3 
  L221.976 365.879 L217.756 367.111 L213.537 367.975 L209.317 368.45 L205.098 368.514 L200.878 368.146 L196.658 367.326 L192.439 366.032 L188.219 364.248 L184 361.953 
   Z
  " fill="#009af9" fill-rule="evenodd" fill-opacity="0.5"/>
<polyline clip-path="url(#clip3802)" style="stroke:#000000; stroke-width:4; stroke-opacity:1; fill:none" points="
  184,701.422 188.219,698.734 192.439,695.987 196.658,693.182 200.878,690.323 205.098,687.411 209.317,684.448 213.537,681.438 217.756,678.381 221.976,675.281 
  226.196,672.14 230.415,668.959 234.635,665.741 238.855,662.487 243.074,659.2 247.294,655.882 251.513,652.535 255.733,649.161 259.953,645.761 264.172,642.338 
  268.392,638.893 272.612,635.428 276.831,631.945 281.051,628.446 285.27,624.932 289.49,621.406 293.71,617.868 297.929,614.321 302.149,610.767 306.368,607.206 
  310.588,603.64 314.808,600.072 319.027,596.502 323.247,592.932 327.467,589.364 331.686,585.798 335.906,582.238 340.125,578.682 344.345,575.135 348.565,571.595 
  352.784,568.066 357.004,564.548 361.223,561.043 365.443,557.551 369.663,554.075 373.882,550.614 378.102,547.172 382.322,543.748 386.541,540.344 390.761,536.961 
  394.98,533.6 399.2,530.263 403.42,526.949 407.639,523.661 411.859,520.4 416.078,517.166 420.298,513.96 424.518,510.784 428.737,507.638 432.957,504.524 
  437.177,501.442 441.396,498.392 445.616,495.377 449.835,492.397 454.055,489.453 458.275,486.544 462.494,483.674 466.714,480.841 470.933,478.047 475.153,475.293 
  479.373,472.58 483.592,469.907 487.812,467.276 492.032,464.688 496.251,462.142 500.471,459.641 504.69,457.183 508.91,454.771 513.13,452.404 517.349,450.084 
  521.569,447.81 525.789,445.584 530.008,443.405 534.228,441.275 538.447,439.193 542.667,437.161 546.887,435.178 551.106,433.246 555.326,431.364 559.545,429.534 
  563.765,427.754 567.985,426.027 572.204,424.352 576.424,422.729 580.644,421.16 584.863,419.644 589.083,418.181 593.302,416.772 597.522,415.417 601.742,414.117 
  605.961,412.872 610.181,411.681 614.4,410.546 618.62,409.466 622.84,408.442 627.059,407.474 631.279,406.562 635.499,405.705 639.718,404.906 643.938,404.162 
  648.157,403.476 652.377,402.846 656.597,402.273 660.816,401.757 665.036,401.298 669.255,400.896 673.475,400.552 677.695,400.264 681.914,400.034 686.134,399.861 
  690.354,399.746 694.573,399.687 698.793,399.686 703.012,399.743 707.232,399.856 711.452,400.027 715.671,400.255 719.891,400.54 724.11,400.883 728.33,401.282 
  732.55,401.738 736.769,402.25 740.989,402.82 745.209,403.446 749.428,404.128 753.648,404.866 757.867,405.661 762.087,406.512 766.307,407.418 770.526,408.38 
  774.746,409.397 778.966,410.469 783.185,411.597 787.405,412.779 791.624,414.016 795.844,415.307 800.064,416.652 804.283,418.05 808.503,419.503 812.722,421.008 
  816.942,422.567 821.162,424.178 825.381,425.842 829.601,427.557 833.821,429.325 838.04,431.144 842.26,433.014 846.479,434.935 850.699,436.906 854.919,438.927 
  859.138,440.998 863.358,443.118 867.577,445.288 871.797,447.506 876.017,449.772 880.236,452.086 884.456,454.447 888.676,456.855 892.895,459.31 897.115,461.811 
  901.334,464.358 905.554,466.95 909.774,469.586 913.993,472.267 918.213,474.992 922.432,477.761 926.652,480.572 930.872,483.426 935.091,486.321 939.311,489.259 
  943.531,492.237 947.75,495.256 951.97,498.314 956.189,501.412 960.409,504.55 964.629,507.725 968.848,510.938 973.068,514.189 977.287,517.476 981.507,520.8 
  985.727,524.16 989.946,527.554 994.166,530.983 998.386,534.446 1002.61,537.942 1006.82,541.472 1011.04,545.033 1015.26,548.626 1019.48,552.25 1023.7,555.905 
  1027.92,559.589 1032.14,563.303 1036.36,567.045 1040.58,570.815 1044.8,574.613 1049.02,578.437 1053.24,582.287 1057.46,586.163 1061.68,590.064 1065.9,593.989 
  1070.12,597.937 1074.34,601.908 1078.56,605.901 1082.78,609.916 1087,613.952 1091.22,618.008 1095.44,622.084 1099.66,626.178 1103.88,630.291 1108.1,634.421 
  1112.32,638.568 1116.53,642.731 1120.75,646.909 1124.97,651.102 1129.19,655.309 1133.41,659.53 1137.63,663.763 1141.85,668.009 1146.07,672.265 1150.29,676.532 
  1154.51,680.809 1158.73,685.094 1162.95,689.389 1167.17,693.69 1171.39,697.999 1175.61,702.314 1179.83,706.635 1184.05,710.96 1188.27,715.289 1192.49,719.621 
  1196.71,723.956 1200.93,728.293 1205.15,732.631 1209.37,736.969 1213.59,741.307 1217.81,745.644 1222.03,749.979 1226.24,754.311 1230.46,758.64 1234.68,762.965 
  1238.9,767.285 1243.12,771.599 1247.34,775.907 1251.56,780.208 1255.78,784.501 1260,788.785 1264.22,793.06 1268.44,797.325 1272.66,801.579 1276.88,805.821 
  1281.1,810.051 1285.32,814.268 1289.54,818.471 1293.76,822.66 1297.98,826.833 1302.2,830.99 1306.42,835.131 1310.64,839.253 1314.86,843.358 1319.08,847.443 
  1323.3,851.508 1327.52,855.553 1331.74,859.577 1335.95,863.578 1340.17,867.557 1344.39,871.512 1348.61,875.443 1352.83,879.349 1357.05,883.23 1361.27,887.084 
  1365.49,890.91 1369.71,894.709 1373.93,898.479 1378.15,902.22 1382.37,905.93 1386.59,909.61 1390.81,913.259 1395.03,916.875 1399.25,920.458 1403.47,924.008 
  1407.69,927.523 1411.91,931.003 1416.13,934.448 1420.35,937.856 1424.57,941.227 1428.79,944.56 1433.01,947.855 1437.23,951.111 1441.45,954.327 1445.66,957.502 
  1449.88,960.636 1454.1,963.729 1458.32,966.779 1462.54,969.786 1466.76,972.749 1470.98,975.667 1475.2,978.541 1479.42,981.369 1483.64,984.151 1487.86,986.886 
  1492.08,989.574 1496.3,992.213 1500.52,994.804 1504.74,997.345 1508.96,999.837 1513.18,1002.28 1517.4,1004.67 1521.62,1007.01 1525.84,1009.29 1530.06,1011.53 
  1534.28,1013.71 1538.5,1015.83 1542.72,1017.91 1546.94,1019.92 1551.16,1021.89 1555.37,1023.79 1559.59,1025.64 1563.81,1027.44 1568.03,1029.17 1572.25,1030.85 
  1576.47,1032.47 1580.69,1034.03 1584.91,1035.53 1589.13,1036.98 1593.35,1038.36 1597.57,1039.68 1601.79,1040.94 1606.01,1042.14 1610.23,1043.28 1614.45,1044.36 
  1618.67,1045.37 1622.89,1046.33 1627.11,1047.22 1631.33,1048.04 1635.55,1048.8 1639.77,1049.5 1643.99,1050.14 1648.21,1050.71 1652.43,1051.21 1656.65,1051.65 
  1660.87,1052.03 1665.08,1052.34 1669.3,1052.58 1673.52,1052.76 1677.74,1052.87 1681.96,1052.92 1686.18,1052.9 1690.4,1052.81 1694.62,1052.66 1698.84,1052.44 
  1703.06,1052.15 1707.28,1051.8 1711.5,1051.38 1715.72,1050.89 1719.94,1050.34 1724.16,1049.72 1728.38,1049.03 1732.6,1048.27 1736.82,1047.45 1741.04,1046.56 
  1745.26,1045.61 1749.48,1044.59 1753.7,1043.5 1757.92,1042.35 1762.14,1041.13 1766.36,1039.84 1770.58,1038.49 1774.8,1037.07 1779.01,1035.59 1783.23,1034.04 
  1787.45,1032.43 1791.67,1030.75 1795.89,1029.01 1800.11,1027.21 1804.33,1025.34 1808.55,1023.41 1812.77,1021.41 1816.99,1019.36 1821.21,1017.24 1825.43,1015.06 
  1829.65,1012.83 1833.87,1010.53 1838.09,1008.17 1842.31,1005.75 1846.53,1003.28 1850.75,1000.75 1854.97,998.16 1859.19,995.515 1863.41,992.815 1867.63,990.06 
  1871.85,987.251 1876.07,984.39 1880.29,981.477 1884.51,978.512 1888.72,975.497 1892.94,972.433 1897.16,969.321 1901.38,966.161 1905.6,962.955 1909.82,959.704 
  1914.04,956.409 1918.26,953.071 1922.48,949.692 1926.7,946.272 1930.92,942.813 1935.14,939.316 1939.36,935.782 1943.58,932.213 1947.8,928.611 1952.02,924.976 
  1956.24,921.311 1960.46,917.616 1964.68,913.894 1968.9,910.145 1973.12,906.372 1977.34,902.576 1981.56,898.759 1985.78,894.923 1990,891.07 1994.22,887.201 
  1998.43,883.318 2002.65,879.424 2006.87,875.52 2011.09,871.609 2015.31,867.692 2019.53,863.771 2023.75,859.85 2027.97,855.929 2032.19,852.012 2036.41,848.101 
  2040.63,844.198 2044.85,840.305 2049.07,836.425 2053.29,832.561 2057.51,828.716 2061.73,824.891 2065.95,821.09 2070.17,817.315 2074.39,813.569 2078.61,809.856 
  2082.83,806.177 2087.05,802.537 2091.27,798.938 2095.49,795.383 2099.71,791.876 2103.93,788.42 2108.14,785.017 2112.36,781.673 2116.58,778.389 2120.8,775.169 
  2125.02,772.018 2129.24,768.939 2133.46,765.934 2137.68,763.01 2141.9,760.168 2146.12,757.413 2150.34,754.75 2154.56,752.181 2158.78,749.712 2163,747.346 
  2167.22,745.089 2171.44,742.943 2175.66,740.915 2179.88,739.008 2184.1,737.226 2188.32,735.576 2192.54,734.06 2196.76,732.686 2200.98,731.456 2205.2,730.377 
  2209.42,729.453 2213.64,728.69 2217.85,728.094 2222.07,727.669 2226.29,727.42 2230.51,727.355 2234.73,727.477 2238.95,727.794 2243.17,728.311 2247.39,729.034 
  2251.61,729.969 2255.83,731.122 2260.05,732.5 2264.27,734.109 2268.49,735.955 2272.71,738.046 2276.93,740.387 2281.15,742.986 2285.37,745.849 2289.59,748.984 
  
  "/>
<circle clip-path="url(#clip3802)" cx="914.51" cy="492.654" r="14" fill="#e26f46" fill-rule="evenodd" fill-opacity="1" stroke="#000000" stroke-opacity="1" stroke-width="3.2"/>
<circle clip-path="url(#clip3802)" cx="398.856" cy="533.813" r="14" fill="#e26f46" fill-rule="evenodd" fill-opacity="1" stroke="#000000" stroke-opacity="1" stroke-width="3.2"/>
<circle clip-path="url(#clip3802)" cx="2203.65" cy="713.564" r="14" fill="#e26f46" fill-rule="evenodd" fill-opacity="1" stroke="#000000" stroke-opacity="1" stroke-width="3.2"/>
<circle clip-path="url(#clip3802)" cx="871.539" cy="449.175" r="14" fill="#e26f46" fill-rule="evenodd" fill-opacity="1" stroke="#000000" stroke-opacity="1" stroke-width="3.2"/>
<circle clip-path="url(#clip3802)" cx="1043.42" cy="558.726" r="14" fill="#e26f46" fill-rule="evenodd" fill-opacity="1" stroke="#000000" stroke-opacity="1" stroke-width="3.2"/>
<circle clip-path="url(#clip3802)" cx="2203.65" cy="713.564" r="14" fill="#e26f46" fill-rule="evenodd" fill-opacity="1" stroke="#000000" stroke-opacity="1" stroke-width="3.2"/>
<circle clip-path="url(#clip3802)" cx="1043.42" cy="558.726" r="14" fill="#e26f46" fill-rule="evenodd" fill-opacity="1" stroke="#000000" stroke-opacity="1" stroke-width="3.2"/>
<circle clip-path="url(#clip3802)" cx="184" cy="698.961" r="14" fill="#e26f46" fill-rule="evenodd" fill-opacity="1" stroke="#000000" stroke-opacity="1" stroke-width="3.2"/>
<circle clip-path="url(#clip3802)" cx="1859.88" cy="1014.28" r="14" fill="#e26f46" fill-rule="evenodd" fill-opacity="1" stroke="#000000" stroke-opacity="1" stroke-width="3.2"/>
<circle clip-path="url(#clip3802)" cx="2289.59" cy="770.759" r="14" fill="#e26f46" fill-rule="evenodd" fill-opacity="1" stroke="#000000" stroke-opacity="1" stroke-width="3.2"/>
<path clip-path="url(#clip3800)" d="
M1481.63 312.204 L2280.76 312.204 L2280.76 130.764 L1481.63 130.764  Z
  " fill="#ffffff" fill-rule="evenodd" fill-opacity="1"/>
<polyline clip-path="url(#clip3800)" style="stroke:#000000; stroke-width:4; stroke-opacity:1; fill:none" points="
  1481.63,312.204 2280.76,312.204 2280.76,130.764 1481.63,130.764 1481.63,312.204 
  "/>
<polyline clip-path="url(#clip3800)" style="stroke:#000000; stroke-width:4; stroke-opacity:1; fill:none" points="
  1505.63,191.244 1649.63,191.244 
  "/>
<g clip-path="url(#clip3800)">
<text style="fill:#000000; fill-opacity:1; font-family:Arial,Helvetica Neue,Helvetica,sans-serif; font-size:48px; text-anchor:start;" transform="rotate(0, 1673.63, 208.744)" x="1673.63" y="208.744">MAP with 95% confidence</text>
</g>
<circle clip-path="url(#clip3800)" cx="1589.63" cy="251.724" r="21" fill="#e26f46" fill-rule="evenodd" fill-opacity="1" stroke="#000000" stroke-opacity="1" stroke-width="3.2"/>
<g clip-path="url(#clip3800)">
<text style="fill:#000000; fill-opacity:1; font-family:Arial,Helvetica Neue,Helvetica,sans-serif; font-size:48px; text-anchor:start;" transform="rotate(0, 1673.63, 269.224)" x="1673.63" y="269.224">data</text>
</g>
</svg>
