<?xml version="1.0" encoding="utf-8"?>
<svg xmlns="http://www.w3.org/2000/svg" xmlns:xlink="http://www.w3.org/1999/xlink" width="600" height="400" viewBox="0 0 2400 1600">
<defs>
  <clipPath id="clip5800">
    <rect x="0" y="0" width="2400" height="1600"/>
  </clipPath>
</defs>
<path clip-path="url(#clip5800)" d="
M0 1600 L2400 1600 L2400 0 L0 0  Z
  " fill="#ffffff" fill-rule="evenodd" fill-opacity="1"/>
<defs>
  <clipPath id="clip5801">
    <rect x="480" y="0" width="1681" height="1600"/>
  </clipPath>
</defs>
<path clip-path="url(#clip5800)" d="
M184.648 1479.96 L2352.76 1479.96 L2352.76 47.2441 L184.648 47.2441  Z
  " fill="#ffffff" fill-rule="evenodd" fill-opacity="1"/>
<defs>
  <clipPath id="clip5802">
    <rect x="184" y="47" width="2169" height="1434"/>
  </clipPath>
</defs>
<polyline clip-path="url(#clip5802)" style="stroke:#000000; stroke-width:2; stroke-opacity:0.1; fill:none" points="
  246.01,1479.96 246.01,47.2441 
  "/>
<polyline clip-path="url(#clip5802)" style="stroke:#000000; stroke-width:2; stroke-opacity:0.1; fill:none" points="
  757.356,1479.96 757.356,47.2441 
  "/>
<polyline clip-path="url(#clip5802)" style="stroke:#000000; stroke-width:2; stroke-opacity:0.1; fill:none" points="
  1268.7,1479.96 1268.7,47.2441 
  "/>
<polyline clip-path="url(#clip5802)" style="stroke:#000000; stroke-width:2; stroke-opacity:0.1; fill:none" points="
  1780.05,1479.96 1780.05,47.2441 
  "/>
<polyline clip-path="url(#clip5802)" style="stroke:#000000; stroke-width:2; stroke-opacity:0.1; fill:none" points="
  2291.39,1479.96 2291.39,47.2441 
  "/>
<polyline clip-path="url(#clip5802)" style="stroke:#000000; stroke-width:2; stroke-opacity:0.1; fill:none" points="
  184.648,1397.2 2352.76,1397.2 
  "/>
<polyline clip-path="url(#clip5802)" style="stroke:#000000; stroke-width:2; stroke-opacity:0.1; fill:none" points="
  184.648,1185.4 2352.76,1185.4 
  "/>
<polyline clip-path="url(#clip5802)" style="stroke:#000000; stroke-width:2; stroke-opacity:0.1; fill:none" points="
  184.648,973.609 2352.76,973.609 
  "/>
<polyline clip-path="url(#clip5802)" style="stroke:#000000; stroke-width:2; stroke-opacity:0.1; fill:none" points="
  184.648,761.816 2352.76,761.816 
  "/>
<polyline clip-path="url(#clip5802)" style="stroke:#000000; stroke-width:2; stroke-opacity:0.1; fill:none" points="
  184.648,550.022 2352.76,550.022 
  "/>
<polyline clip-path="url(#clip5802)" style="stroke:#000000; stroke-width:2; stroke-opacity:0.1; fill:none" points="
  184.648,338.229 2352.76,338.229 
  "/>
<polyline clip-path="url(#clip5802)" style="stroke:#000000; stroke-width:2; stroke-opacity:0.1; fill:none" points="
  184.648,126.435 2352.76,126.435 
  "/>
<polyline clip-path="url(#clip5800)" style="stroke:#000000; stroke-width:4; stroke-opacity:1; fill:none" points="
  184.648,1479.96 2352.76,1479.96 
  "/>
<polyline clip-path="url(#clip5800)" style="stroke:#000000; stroke-width:4; stroke-opacity:1; fill:none" points="
  184.648,1479.96 184.648,47.2441 
  "/>
<polyline clip-path="url(#clip5800)" style="stroke:#000000; stroke-width:4; stroke-opacity:1; fill:none" points="
  246.01,1479.96 246.01,1462.77 
  "/>
<polyline clip-path="url(#clip5800)" style="stroke:#000000; stroke-width:4; stroke-opacity:1; fill:none" points="
  757.356,1479.96 757.356,1462.77 
  "/>
<polyline clip-path="url(#clip5800)" style="stroke:#000000; stroke-width:4; stroke-opacity:1; fill:none" points="
  1268.7,1479.96 1268.7,1462.77 
  "/>
<polyline clip-path="url(#clip5800)" style="stroke:#000000; stroke-width:4; stroke-opacity:1; fill:none" points="
  1780.05,1479.96 1780.05,1462.77 
  "/>
<polyline clip-path="url(#clip5800)" style="stroke:#000000; stroke-width:4; stroke-opacity:1; fill:none" points="
  2291.39,1479.96 2291.39,1462.77 
  "/>
<polyline clip-path="url(#clip5800)" style="stroke:#000000; stroke-width:4; stroke-opacity:1; fill:none" points="
  184.648,1397.2 210.665,1397.2 
  "/>
<polyline clip-path="url(#clip5800)" style="stroke:#000000; stroke-width:4; stroke-opacity:1; fill:none" points="
  184.648,1185.4 210.665,1185.4 
  "/>
<polyline clip-path="url(#clip5800)" style="stroke:#000000; stroke-width:4; stroke-opacity:1; fill:none" points="
  184.648,973.609 210.665,973.609 
  "/>
<polyline clip-path="url(#clip5800)" style="stroke:#000000; stroke-width:4; stroke-opacity:1; fill:none" points="
  184.648,761.816 210.665,761.816 
  "/>
<polyline clip-path="url(#clip5800)" style="stroke:#000000; stroke-width:4; stroke-opacity:1; fill:none" points="
  184.648,550.022 210.665,550.022 
  "/>
<polyline clip-path="url(#clip5800)" style="stroke:#000000; stroke-width:4; stroke-opacity:1; fill:none" points="
  184.648,338.229 210.665,338.229 
  "/>
<polyline clip-path="url(#clip5800)" style="stroke:#000000; stroke-width:4; stroke-opacity:1; fill:none" points="
  184.648,126.435 210.665,126.435 
  "/>
<g clip-path="url(#clip5800)">
<text style="fill:#000000; fill-opacity:1; font-family:Arial,Helvetica Neue,Helvetica,sans-serif; font-size:48px; text-anchor:middle;" transform="rotate(0, 246.01, 1533.96)" x="246.01" y="1533.96">0.00</text>
</g>
<g clip-path="url(#clip5800)">
<text style="fill:#000000; fill-opacity:1; font-family:Arial,Helvetica Neue,Helvetica,sans-serif; font-size:48px; text-anchor:middle;" transform="rotate(0, 757.356, 1533.96)" x="757.356" y="1533.96">0.25</text>
</g>
<g clip-path="url(#clip5800)">
<text style="fill:#000000; fill-opacity:1; font-family:Arial,Helvetica Neue,Helvetica,sans-serif; font-size:48px; text-anchor:middle;" transform="rotate(0, 1268.7, 1533.96)" x="1268.7" y="1533.96">0.50</text>
</g>
<g clip-path="url(#clip5800)">
<text style="fill:#000000; fill-opacity:1; font-family:Arial,Helvetica Neue,Helvetica,sans-serif; font-size:48px; text-anchor:middle;" transform="rotate(0, 1780.05, 1533.96)" x="1780.05" y="1533.96">0.75</text>
</g>
<g clip-path="url(#clip5800)">
<text style="fill:#000000; fill-opacity:1; font-family:Arial,Helvetica Neue,Helvetica,sans-serif; font-size:48px; text-anchor:middle;" transform="rotate(0, 2291.39, 1533.96)" x="2291.39" y="1533.96">1.00</text>
</g>
<g clip-path="url(#clip5800)">
<text style="fill:#000000; fill-opacity:1; font-family:Arial,Helvetica Neue,Helvetica,sans-serif; font-size:48px; text-anchor:end;" transform="rotate(0, 160.648, 1414.7)" x="160.648" y="1414.7">-30</text>
</g>
<g clip-path="url(#clip5800)">
<text style="fill:#000000; fill-opacity:1; font-family:Arial,Helvetica Neue,Helvetica,sans-serif; font-size:48px; text-anchor:end;" transform="rotate(0, 160.648, 1202.9)" x="160.648" y="1202.9">-20</text>
</g>
<g clip-path="url(#clip5800)">
<text style="fill:#000000; fill-opacity:1; font-family:Arial,Helvetica Neue,Helvetica,sans-serif; font-size:48px; text-anchor:end;" transform="rotate(0, 160.648, 991.109)" x="160.648" y="991.109">-10</text>
</g>
<g clip-path="url(#clip5800)">
<text style="fill:#000000; fill-opacity:1; font-family:Arial,Helvetica Neue,Helvetica,sans-serif; font-size:48px; text-anchor:end;" transform="rotate(0, 160.648, 779.316)" x="160.648" y="779.316">0</text>
</g>
<g clip-path="url(#clip5800)">
<text style="fill:#000000; fill-opacity:1; font-family:Arial,Helvetica Neue,Helvetica,sans-serif; font-size:48px; text-anchor:end;" transform="rotate(0, 160.648, 567.522)" x="160.648" y="567.522">10</text>
</g>
<g clip-path="url(#clip5800)">
<text style="fill:#000000; fill-opacity:1; font-family:Arial,Helvetica Neue,Helvetica,sans-serif; font-size:48px; text-anchor:end;" transform="rotate(0, 160.648, 355.729)" x="160.648" y="355.729">20</text>
</g>
<g clip-path="url(#clip5800)">
<text style="fill:#000000; fill-opacity:1; font-family:Arial,Helvetica Neue,Helvetica,sans-serif; font-size:48px; text-anchor:end;" transform="rotate(0, 160.648, 143.935)" x="160.648" y="143.935">30</text>
</g>
<path clip-path="url(#clip5802)" d="
M246.01 1078.47 L250.109 1067.89 L254.208 1057.5 L258.307 1047.31 L262.406 1037.32 L266.505 1027.52 L270.604 1017.92 L274.702 1008.5 L278.801 999.269 L282.9 990.224 
  L286.999 981.361 L291.098 972.679 L295.197 964.176 L299.296 955.849 L303.395 947.696 L307.494 939.715 L311.593 931.905 L315.692 924.263 L319.791 916.787 L323.89 909.475 
  L327.989 902.326 L332.088 895.338 L336.187 888.508 L340.286 881.835 L344.385 875.318 L348.484 868.954 L352.583 862.742 L356.682 856.681 L360.781 850.769 L364.88 845.005 
  L368.979 839.388 L373.078 833.916 L377.177 828.588 L381.276 823.405 L385.375 818.366 L389.474 813.47 L393.573 808.719 L397.671 804.112 L401.77 799.653 L405.869 795.344 
  L409.968 791.188 L414.067 787.193 L418.166 783.367 L422.265 779.722 L426.364 776.275 L430.463 773.053 L434.562 770.088 L438.661 767.43 L442.76 765.141 L446.859 763.293 
  L450.958 761.956 L455.057 761.17 L459.156 760.922 L463.255 761.142 L467.354 761.728 L471.453 762.577 L475.552 763.602 L479.651 764.738 L483.75 765.938 L487.849 767.166 
  L491.948 768.401 L496.047 769.626 L500.146 770.828 L504.245 771.999 L508.344 773.134 L512.443 774.227 L516.542 775.277 L520.641 776.281 L524.739 777.238 L528.838 778.146 
  L532.937 779.005 L537.036 779.816 L541.135 780.577 L545.234 781.29 L549.333 781.954 L553.432 782.571 L557.531 783.14 L561.63 783.663 L565.729 784.139 L569.828 784.571 
  L573.927 784.958 L578.026 785.302 L582.125 785.603 L586.224 785.863 L590.323 786.081 L594.422 786.26 L598.521 786.4 L602.62 786.502 L606.719 786.566 L610.818 786.595 
  L614.917 786.588 L619.016 786.548 L623.115 786.474 L627.214 786.367 L631.313 786.23 L635.412 786.062 L639.511 785.864 L643.61 785.638 L647.708 785.385 L651.807 785.105 
  L655.906 784.799 L660.005 784.468 L664.104 784.114 L668.203 783.737 L672.302 783.338 L676.401 782.918 L680.5 782.478 L684.599 782.019 L688.698 781.541 L692.797 781.046 
  L696.896 780.535 L700.995 780.008 L705.094 779.467 L709.193 778.912 L713.292 778.344 L717.391 777.764 L721.49 777.173 L725.589 776.572 L729.688 775.962 L733.787 775.343 
  L737.886 774.717 L741.985 774.084 L746.084 773.445 L750.183 772.802 L754.282 772.155 L758.381 771.504 L762.48 770.852 L766.579 770.198 L770.678 769.544 L774.776 768.89 
  L778.875 768.238 L782.974 767.588 L787.073 766.942 L791.172 766.299 L795.271 765.662 L799.37 765.031 L803.469 764.408 L807.568 763.792 L811.667 763.186 L815.766 762.589 
  L819.865 762.004 L823.964 761.431 L828.063 760.872 L832.162 760.327 L836.261 759.798 L840.36 759.285 L844.459 758.791 L848.558 758.315 L852.657 757.86 L856.756 757.427 
  L860.855 757.016 L864.954 756.629 L869.053 756.268 L873.152 755.933 L877.251 755.625 L881.35 755.346 L885.449 755.096 L889.548 754.877 L893.647 754.688 L897.745 754.531 
  L901.844 754.405 L905.943 754.311 L910.042 754.248 L914.141 754.216 L918.24 754.214 L922.339 754.241 L926.438 754.296 L930.537 754.377 L934.636 754.483 L938.735 754.611 
  L942.834 754.759 L946.933 754.926 L951.032 755.109 L955.131 755.306 L959.23 755.516 L963.329 755.735 L967.428 755.962 L971.527 756.195 L975.626 756.433 L979.725 756.674 
  L983.824 756.917 L987.923 757.16 L992.022 757.403 L996.121 757.644 L1000.22 757.884 L1004.32 758.121 L1008.42 758.356 L1012.52 758.588 L1016.62 758.819 L1020.71 759.047 
  L1024.81 759.275 L1028.91 759.503 L1033.01 759.732 L1037.11 759.964 L1041.21 760.2 L1045.31 760.443 L1049.41 760.695 L1053.51 760.959 L1057.61 761.237 L1061.7 761.533 
  L1065.8 761.849 L1069.9 762.19 L1074 762.558 L1078.1 762.957 L1082.2 763.39 L1086.3 763.861 L1090.4 764.373 L1094.5 764.929 L1098.59 765.53 L1102.69 766.18 
  L1106.79 766.881 L1110.89 767.633 L1114.99 768.438 L1119.09 769.296 L1123.19 770.209 L1127.29 771.176 L1131.39 772.197 L1135.49 773.273 L1139.58 774.402 L1143.68 775.586 
  L1147.78 776.822 L1151.88 778.112 L1155.98 779.453 L1160.08 780.847 L1164.18 782.291 L1168.28 783.786 L1172.38 785.332 L1176.48 786.927 L1180.57 788.571 L1184.67 790.264 
  L1188.77 792.006 L1192.87 793.796 L1196.97 795.633 L1201.07 797.518 L1205.17 799.451 L1209.27 801.43 L1213.37 803.456 L1217.46 805.528 L1221.56 807.646 L1225.66 809.81 
  L1229.76 812.02 L1233.86 814.276 L1237.96 816.577 L1242.06 818.923 L1246.16 821.314 L1250.26 823.75 L1254.36 826.231 L1258.45 828.756 L1262.55 831.325 L1266.65 833.939 
  L1270.75 836.597 L1274.85 839.299 L1278.95 842.045 L1283.05 844.834 L1287.15 847.666 L1291.25 850.542 L1295.35 853.461 L1299.44 856.423 L1303.54 859.427 L1307.64 862.474 
  L1311.74 865.564 L1315.84 868.695 L1319.94 871.869 L1324.04 875.084 L1328.14 878.341 L1332.24 881.639 L1336.33 884.978 L1340.43 888.358 L1344.53 891.778 L1348.63 895.239 
  L1352.73 898.74 L1356.83 902.281 L1360.93 905.861 L1365.03 909.481 L1369.13 913.139 L1373.23 916.836 L1377.32 920.572 L1381.42 924.345 L1385.52 928.156 L1389.62 932.004 
  L1393.72 935.89 L1397.82 939.812 L1401.92 943.77 L1406.02 947.763 L1410.12 951.793 L1414.22 955.857 L1418.31 959.956 L1422.41 964.089 L1426.51 968.256 L1430.61 972.456 
  L1434.71 976.688 L1438.81 980.954 L1442.91 985.251 L1447.01 989.579 L1451.11 993.938 L1455.21 998.327 L1459.3 1002.75 L1463.4 1007.19 L1467.5 1011.67 L1471.6 1016.18 
  L1475.7 1020.71 L1479.8 1025.27 L1483.9 1029.85 L1488 1034.46 L1492.1 1039.1 L1496.19 1043.76 L1500.29 1048.45 L1504.39 1053.15 L1508.49 1057.88 L1512.59 1062.63 
  L1516.69 1067.4 L1520.79 1072.19 L1524.89 1077.01 L1528.99 1081.83 L1533.09 1086.68 L1537.18 1091.54 L1541.28 1096.42 L1545.38 1101.32 L1549.48 1106.23 L1553.58 1111.15 
  L1557.68 1116.09 L1561.78 1121.03 L1565.88 1125.99 L1569.98 1130.96 L1574.08 1135.94 L1578.17 1140.92 L1582.27 1145.91 L1586.37 1150.91 L1590.47 1155.91 L1594.57 1160.92 
  L1598.67 1165.92 L1602.77 1170.93 L1606.87 1175.94 L1610.97 1180.95 L1615.06 1185.96 L1619.16 1190.97 L1623.26 1195.97 L1627.36 1200.96 L1631.46 1205.95 L1635.56 1210.93 
  L1639.66 1215.91 L1643.76 1220.87 L1647.86 1225.82 L1651.96 1230.76 L1656.05 1235.68 L1660.15 1240.59 L1664.25 1245.48 L1668.35 1250.35 L1672.45 1255.2 L1676.55 1260.03 
  L1680.65 1264.84 L1684.75 1269.62 L1688.85 1274.38 L1692.95 1279.11 L1697.04 1283.81 L1701.14 1288.48 L1705.24 1293.11 L1709.34 1297.72 L1713.44 1302.28 L1717.54 1306.81 
  L1721.64 1311.3 L1725.74 1315.75 L1729.84 1320.16 L1733.93 1324.52 L1738.03 1328.84 L1742.13 1333.11 L1746.23 1337.33 L1750.33 1341.49 L1754.43 1345.6 L1758.53 1349.66 
  L1762.63 1353.66 L1766.73 1357.6 L1770.83 1361.47 L1774.92 1365.28 L1779.02 1369.03 L1783.12 1372.7 L1787.22 1376.31 L1791.32 1379.84 L1795.42 1383.3 L1799.52 1386.68 
  L1803.62 1389.98 L1807.72 1393.2 L1811.82 1396.33 L1815.91 1399.38 L1820.01 1402.33 L1824.11 1405.2 L1828.21 1407.97 L1832.31 1410.64 L1836.41 1413.21 L1840.51 1415.68 
  L1844.61 1418.05 L1848.71 1420.31 L1852.8 1422.45 L1856.9 1424.49 L1861 1426.41 L1865.1 1428.21 L1869.2 1429.88 L1873.3 1431.43 L1877.4 1432.86 L1881.5 1434.15 
  L1885.6 1435.31 L1889.7 1436.34 L1893.79 1437.22 L1897.89 1437.96 L1901.99 1438.55 L1906.09 1438.99 L1910.19 1439.28 L1914.29 1439.41 L1918.39 1439.39 L1922.49 1439.2 
  L1926.59 1438.84 L1930.69 1438.31 L1934.78 1437.61 L1938.88 1436.73 L1942.98 1435.66 L1947.08 1434.42 L1951.18 1432.98 L1955.28 1431.35 L1959.38 1429.53 L1963.48 1427.5 
  L1967.58 1425.27 L1971.67 1422.83 L1975.77 1420.17 L1979.87 1417.3 L1983.97 1414.21 L1988.07 1410.89 L1992.17 1407.35 L1996.27 1403.57 L2000.37 1399.54 L2004.47 1395.28 
  L2008.57 1390.77 L2012.66 1386.01 L2016.76 1380.99 L2020.86 1375.7 L2024.96 1370.15 L2029.06 1364.33 L2033.16 1358.23 L2037.26 1351.86 L2041.36 1345.19 L2045.46 1338.23 
  L2049.56 1330.98 L2053.65 1323.43 L2057.75 1315.56 L2061.85 1307.39 L2065.95 1298.89 L2070.05 1290.08 L2074.15 1280.93 L2078.25 1271.45 L2082.35 1261.63 L2086.45 1251.46 
  L2090.54 1240.94 L2094.64 1230.06 L2098.74 1218.82 L2102.84 1207.21 L2106.94 1195.22 L2111.04 1182.84 L2115.14 1170.08 L2119.24 1156.93 L2123.34 1143.37 L2127.44 1129.41 
  L2131.53 1115.03 L2135.63 1100.22 L2139.73 1084.99 L2143.83 1069.33 L2147.93 1053.23 L2152.03 1036.67 L2156.13 1019.67 L2160.23 1002.2 L2164.33 984.261 L2168.43 965.852 
  L2172.52 946.964 L2176.62 927.594 L2180.72 907.737 L2184.82 887.396 L2188.92 866.58 L2193.02 845.314 L2197.12 823.677 L2201.22 801.939 L2205.32 781.669 L2209.42 777.788 
  L2213.51 797.696 L2217.61 821.722 L2221.71 846.97 L2225.81 873.035 L2229.91 899.813 L2234.01 927.27 L2238.11 955.396 L2242.21 984.19 L2246.31 1013.66 L2250.4 1043.8 
  L2254.5 1074.63 L2258.6 1106.15 L2262.7 1138.38 L2266.8 1171.32 L2270.9 1204.99 L2275 1239.38 L2279.1 1274.52 L2283.2 1310.42 L2287.3 1347.08 L2291.39 1384.52 
  L2291.39 147.746 L2287.3 184.548 L2283.2 220.598 L2279.1 255.904 L2275 290.478 L2270.9 324.33 L2266.8 357.47 L2262.7 389.908 L2258.6 421.652 L2254.5 452.714 
  L2250.4 483.1 L2246.31 512.82 L2242.21 541.881 L2238.11 570.288 L2234.01 598.045 L2229.91 625.151 L2225.81 651.594 L2221.71 677.342 L2217.61 702.289 L2213.51 726.031 
  L2209.42 745.67 L2205.32 741.535 L2201.22 721.026 L2197.12 699.065 L2193.02 677.218 L2188.92 655.757 L2184.82 634.759 L2180.72 614.25 L2176.62 594.238 L2172.52 574.725 
  L2168.43 555.707 L2164.33 537.18 L2160.23 519.138 L2156.13 501.575 L2152.03 484.484 L2147.93 467.859 L2143.83 451.692 L2139.73 435.977 L2135.63 420.707 L2131.53 405.874 
  L2127.44 391.472 L2123.34 377.494 L2119.24 363.933 L2115.14 350.782 L2111.04 338.035 L2106.94 325.685 L2102.84 313.726 L2098.74 302.151 L2094.64 290.953 L2090.54 280.127 
  L2086.45 269.667 L2082.35 259.565 L2078.25 249.816 L2074.15 240.414 L2070.05 231.353 L2065.95 222.627 L2061.85 214.231 L2057.75 206.158 L2053.65 198.403 L2049.56 190.961 
  L2045.46 183.825 L2041.36 176.991 L2037.26 170.453 L2033.16 164.206 L2029.06 158.244 L2024.96 152.563 L2020.86 147.156 L2016.76 142.02 L2012.66 137.15 L2008.57 132.539 
  L2004.47 128.184 L2000.37 124.08 L1996.27 120.222 L1992.17 116.605 L1988.07 113.224 L1983.97 110.076 L1979.87 107.156 L1975.77 104.459 L1971.67 101.98 L1967.58 99.7164 
  L1963.48 97.663 L1959.38 95.8156 L1955.28 94.1702 L1951.18 92.7227 L1947.08 91.469 L1942.98 90.4052 L1938.88 89.5273 L1934.78 88.8315 L1930.69 88.3138 L1926.59 87.9706 
  L1922.49 87.7982 L1918.39 87.7927 L1914.29 87.9507 L1910.19 88.2685 L1906.09 88.7426 L1901.99 89.3694 L1897.89 90.1457 L1893.79 91.068 L1889.7 92.1328 L1885.6 93.3371 
  L1881.5 94.6774 L1877.4 96.1505 L1873.3 97.7534 L1869.2 99.4828 L1865.1 101.336 L1861 103.309 L1856.9 105.4 L1852.8 107.605 L1848.71 109.922 L1844.61 112.348 
  L1840.51 114.879 L1836.41 117.514 L1832.31 120.249 L1828.21 123.081 L1824.11 126.009 L1820.01 129.028 L1815.91 132.138 L1811.82 135.334 L1807.72 138.615 L1803.62 141.978 
  L1799.52 145.421 L1795.42 148.94 L1791.32 152.535 L1787.22 156.202 L1783.12 159.939 L1779.02 163.744 L1774.92 167.615 L1770.83 171.548 L1766.73 175.543 L1762.63 179.597 
  L1758.53 183.708 L1754.43 187.874 L1750.33 192.092 L1746.23 196.361 L1742.13 200.678 L1738.03 205.043 L1733.93 209.451 L1729.84 213.903 L1725.74 218.396 L1721.64 222.928 
  L1717.54 227.497 L1713.44 232.101 L1709.34 236.739 L1705.24 241.409 L1701.14 246.109 L1697.04 250.838 L1692.95 255.593 L1688.85 260.374 L1684.75 265.178 L1680.65 270.004 
  L1676.55 274.851 L1672.45 279.717 L1668.35 284.599 L1664.25 289.498 L1660.15 294.411 L1656.05 299.338 L1651.96 304.275 L1647.86 309.223 L1643.76 314.18 L1639.66 319.144 
  L1635.56 324.114 L1631.46 329.089 L1627.36 334.067 L1623.26 339.048 L1619.16 344.029 L1615.06 349.011 L1610.97 353.991 L1606.87 358.968 L1602.77 363.942 L1598.67 368.911 
  L1594.57 373.874 L1590.47 378.83 L1586.37 383.778 L1582.27 388.716 L1578.17 393.644 L1574.08 398.561 L1569.98 403.466 L1565.88 408.357 L1561.78 413.234 L1557.68 418.096 
  L1553.58 422.942 L1549.48 427.771 L1545.38 432.583 L1541.28 437.375 L1537.18 442.148 L1533.09 446.9 L1528.99 451.631 L1524.89 456.34 L1520.79 461.027 L1516.69 465.689 
  L1512.59 470.327 L1508.49 474.94 L1504.39 479.528 L1500.29 484.088 L1496.19 488.622 L1492.1 493.127 L1488 497.604 L1483.9 502.052 L1479.8 506.47 L1475.7 510.858 
  L1471.6 515.214 L1467.5 519.539 L1463.4 523.831 L1459.3 528.091 L1455.21 532.317 L1451.11 536.509 L1447.01 540.668 L1442.91 544.791 L1438.81 548.878 L1434.71 552.93 
  L1430.61 556.946 L1426.51 560.924 L1422.41 564.866 L1418.31 568.77 L1414.22 572.635 L1410.12 576.462 L1406.02 580.251 L1401.92 584 L1397.82 587.709 L1393.72 591.379 
  L1389.62 595.008 L1385.52 598.596 L1381.42 602.143 L1377.32 605.649 L1373.23 609.114 L1369.13 612.536 L1365.03 615.916 L1360.93 619.254 L1356.83 622.549 L1352.73 625.801 
  L1348.63 629.01 L1344.53 632.175 L1340.43 635.296 L1336.33 638.374 L1332.24 641.408 L1328.14 644.397 L1324.04 647.341 L1319.94 650.241 L1315.84 653.096 L1311.74 655.906 
  L1307.64 658.671 L1303.54 661.391 L1299.44 664.064 L1295.35 666.693 L1291.25 669.275 L1287.15 671.812 L1283.05 674.302 L1278.95 676.746 L1274.85 679.144 L1270.75 681.496 
  L1266.65 683.801 L1262.55 686.059 L1258.45 688.271 L1254.36 690.435 L1250.26 692.553 L1246.16 694.624 L1242.06 696.647 L1237.96 698.623 L1233.86 700.552 L1229.76 702.433 
  L1225.66 704.267 L1221.56 706.052 L1217.46 707.79 L1213.37 709.48 L1209.27 711.121 L1205.17 712.714 L1201.07 714.258 L1196.97 715.753 L1192.87 717.199 L1188.77 718.595 
  L1184.67 719.942 L1180.57 721.239 L1176.48 722.486 L1172.38 723.682 L1168.28 724.826 L1164.18 725.92 L1160.08 726.961 L1155.98 727.95 L1151.88 728.886 L1147.78 729.769 
  L1143.68 730.598 L1139.58 731.373 L1135.49 732.094 L1131.39 732.759 L1127.29 733.37 L1123.19 733.926 L1119.09 734.426 L1114.99 734.872 L1110.89 735.264 L1106.79 735.603 
  L1102.69 735.889 L1098.59 736.126 L1094.5 736.313 L1090.4 736.455 L1086.3 736.552 L1082.2 736.609 L1078.1 736.628 L1074 736.613 L1069.9 736.567 L1065.8 736.494 
  L1061.7 736.398 L1057.61 736.281 L1053.51 736.147 L1049.41 735.999 L1045.31 735.84 L1041.21 735.674 L1037.11 735.501 L1033.01 735.325 L1028.91 735.146 L1024.81 734.968 
  L1020.71 734.791 L1016.62 734.616 L1012.52 734.443 L1008.42 734.275 L1004.32 734.11 L1000.22 733.949 L996.121 733.792 L992.022 733.639 L987.923 733.489 L983.824 733.341 
  L979.725 733.195 L975.626 733.049 L971.527 732.902 L967.428 732.753 L963.329 732.6 L959.23 732.442 L955.131 732.276 L951.032 732.1 L946.933 731.913 L942.834 731.713 
  L938.735 731.497 L934.636 731.264 L930.537 731.011 L926.438 730.737 L922.339 730.44 L918.24 730.119 L914.141 729.772 L910.042 729.398 L905.943 728.997 L901.844 728.569 
  L897.745 728.113 L893.647 727.629 L889.548 727.118 L885.449 726.58 L881.35 726.016 L877.251 725.427 L873.152 724.815 L869.053 724.179 L864.954 723.521 L860.855 722.843 
  L856.756 722.146 L852.657 721.431 L848.558 720.699 L844.459 719.952 L840.36 719.192 L836.261 718.418 L832.162 717.634 L828.063 716.839 L823.964 716.036 L819.865 715.225 
  L815.766 714.408 L811.667 713.586 L807.568 712.76 L803.469 711.931 L799.37 711.1 L795.271 710.268 L791.172 709.437 L787.073 708.608 L782.974 707.781 L778.875 706.958 
  L774.776 706.14 L770.678 705.327 L766.579 704.521 L762.48 703.723 L758.381 702.934 L754.282 702.155 L750.183 701.387 L746.084 700.631 L741.985 699.888 L737.886 699.158 
  L733.787 698.444 L729.688 697.746 L725.589 697.064 L721.49 696.401 L717.391 695.757 L713.292 695.133 L709.193 694.53 L705.094 693.949 L700.995 693.392 L696.896 692.858 
  L692.797 692.35 L688.698 691.868 L684.599 691.414 L680.5 690.988 L676.401 690.591 L672.302 690.225 L668.203 689.89 L664.104 689.589 L660.005 689.32 L655.906 689.087 
  L651.807 688.89 L647.708 688.729 L643.61 688.607 L639.511 688.524 L635.412 688.481 L631.313 688.48 L627.214 688.521 L623.115 688.605 L619.016 688.734 L614.917 688.91 
  L610.818 689.132 L606.719 689.402 L602.62 689.721 L598.521 690.091 L594.422 690.512 L590.323 690.986 L586.224 691.513 L582.125 692.095 L578.026 692.733 L573.927 693.427 
  L569.828 694.179 L565.729 694.991 L561.63 695.862 L557.531 696.794 L553.432 697.788 L549.333 698.844 L545.234 699.964 L541.135 701.148 L537.036 702.396 L532.937 703.709 
  L528.838 705.087 L524.739 706.531 L520.641 708.04 L516.542 709.612 L512.443 711.248 L508.344 712.945 L504.245 714.7 L500.146 716.509 L496.047 718.367 L491.948 720.264 
  L487.849 722.191 L483.75 724.13 L479.651 726.057 L475.552 727.94 L471.453 729.732 L467.354 731.366 L463.255 732.757 L459.156 733.801 L455.057 734.398 L450.958 734.476 
  L446.859 734.024 L442.76 733.08 L438.661 731.716 L434.562 730.004 L430.463 728.008 L426.364 725.774 L422.265 723.338 L418.166 720.724 L414.067 717.952 L409.968 715.033 
  L405.869 711.976 L401.77 708.788 L397.671 705.473 L393.573 702.034 L389.474 698.474 L385.375 694.793 L381.276 690.992 L377.177 687.071 L373.078 683.031 L368.979 678.871 
  L364.88 674.589 L360.781 670.187 L356.682 665.662 L352.583 661.013 L348.484 656.24 L344.385 651.341 L340.286 646.314 L336.187 641.159 L332.088 635.874 L327.989 630.458 
  L323.89 624.908 L319.791 619.223 L315.692 613.403 L311.593 607.444 L307.494 601.345 L303.395 595.106 L299.296 588.723 L295.197 582.195 L291.098 575.521 L286.999 568.698 
  L282.9 561.725 L278.801 554.6 L274.702 547.32 L270.604 539.885 L266.505 532.292 L262.406 524.539 L258.307 516.625 L254.208 508.547 L250.109 500.303 L246.01 491.891 
   Z
  " fill="#009af9" fill-rule="evenodd" fill-opacity="0.5"/>
<polyline clip-path="url(#clip5802)" style="stroke:#000000; stroke-width:4; stroke-opacity:1; fill:none" points="
  246.01,785.183 250.109,784.095 254.208,783.024 258.307,781.969 262.406,780.93 266.505,779.908 270.604,778.901 274.702,777.91 278.801,776.934 282.9,775.974 
  286.999,775.03 291.098,774.1 295.197,773.186 299.296,772.286 303.395,771.401 307.494,770.53 311.593,769.674 315.692,768.833 319.791,768.005 323.89,767.192 
  327.989,766.392 332.088,765.606 336.187,764.834 340.286,764.075 344.385,763.329 348.484,762.597 352.583,761.878 356.682,761.172 360.781,760.478 364.88,759.797 
  368.979,759.129 373.078,758.473 377.177,757.83 381.276,757.199 385.375,756.579 389.474,755.972 393.573,755.377 397.671,754.793 401.77,754.221 405.869,753.66 
  409.968,753.111 414.067,752.573 418.166,752.046 422.265,751.53 426.364,751.024 430.463,750.53 434.562,750.046 438.661,749.573 442.76,749.11 446.859,748.658 
  450.958,748.216 455.057,747.784 459.156,747.362 463.255,746.95 467.354,746.547 471.453,746.155 475.552,745.771 479.651,745.398 483.75,745.034 487.849,744.679 
  491.948,744.333 496.047,743.996 500.146,743.668 504.245,743.349 508.344,743.039 512.443,742.738 516.542,742.445 520.641,742.16 524.739,741.884 528.838,741.617 
  532.937,741.357 537.036,741.106 541.135,740.862 545.234,740.627 549.333,740.399 553.432,740.179 557.531,739.967 561.63,739.762 565.729,739.565 569.828,739.375 
  573.927,739.193 578.026,739.017 582.125,738.849 586.224,738.688 590.323,738.533 594.422,738.386 598.521,738.245 602.62,738.111 606.719,737.984 610.818,737.863 
  614.917,737.749 619.016,737.641 623.115,737.539 627.214,737.444 631.313,737.355 635.412,737.271 639.511,737.194 643.61,737.123 647.708,737.057 651.807,736.997 
  655.906,736.943 660.005,736.894 664.104,736.851 668.203,736.814 672.302,736.781 676.401,736.755 680.5,736.733 684.599,736.716 688.698,736.705 692.797,736.698 
  696.896,736.697 700.995,736.7 705.094,736.708 709.193,736.721 713.292,736.738 717.391,736.761 721.49,736.787 725.589,736.818 729.688,736.854 733.787,736.893 
  737.886,736.937 741.985,736.986 746.084,737.038 750.183,737.095 754.282,737.155 758.381,737.219 762.48,737.288 766.579,737.36 770.678,737.435 774.776,737.515 
  778.875,737.598 782.974,737.685 787.073,737.775 791.172,737.868 795.271,737.965 799.37,738.066 803.469,738.169 807.568,738.276 811.667,738.386 815.766,738.499 
  819.865,738.615 823.964,738.734 828.063,738.856 832.162,738.981 836.261,739.108 840.36,739.238 844.459,739.371 848.558,739.507 852.657,739.645 856.756,739.786 
  860.855,739.929 864.954,740.075 869.053,740.223 873.152,740.374 877.251,740.526 881.35,740.681 885.449,740.838 889.548,740.997 893.647,741.159 897.745,741.322 
  901.844,741.487 905.943,741.654 910.042,741.823 914.141,741.994 918.24,742.166 922.339,742.341 926.438,742.517 930.537,742.694 934.636,742.873 938.735,743.054 
  942.834,743.236 946.933,743.42 951.032,743.605 955.131,743.791 959.23,743.979 963.329,744.167 967.428,744.358 971.527,744.549 975.626,744.741 979.725,744.935 
  983.824,745.129 987.923,745.325 992.022,745.521 996.121,745.718 1000.22,745.916 1004.32,746.115 1008.42,746.315 1012.52,746.516 1016.62,746.717 1020.71,746.919 
  1024.81,747.121 1028.91,747.325 1033.01,747.528 1037.11,747.732 1041.21,747.937 1045.31,748.142 1049.41,748.347 1053.51,748.553 1057.61,748.759 1061.7,748.965 
  1065.8,749.172 1069.9,749.379 1074,749.585 1078.1,749.792 1082.2,750 1086.3,750.207 1090.4,750.414 1094.5,750.621 1098.59,750.828 1102.69,751.035 
  1106.79,751.242 1110.89,751.448 1114.99,751.655 1119.09,751.861 1123.19,752.067 1127.29,752.273 1131.39,752.478 1135.49,752.683 1139.58,752.888 1143.68,753.092 
  1147.78,753.296 1151.88,753.499 1155.98,753.702 1160.08,753.904 1164.18,754.105 1168.28,754.306 1172.38,754.507 1176.48,754.706 1180.57,754.905 1184.67,755.103 
  1188.77,755.301 1192.87,755.497 1196.97,755.693 1201.07,755.888 1205.17,756.082 1209.27,756.275 1213.37,756.468 1217.46,756.659 1221.56,756.849 1225.66,757.038 
  1229.76,757.227 1233.86,757.414 1237.96,757.6 1242.06,757.785 1246.16,757.969 1250.26,758.151 1254.36,758.333 1258.45,758.513 1262.55,758.692 1266.65,758.87 
  1270.75,759.046 1274.85,759.222 1278.95,759.395 1283.05,759.568 1287.15,759.739 1291.25,759.909 1295.35,760.077 1299.44,760.244 1303.54,760.409 1307.64,760.573 
  1311.74,760.735 1315.84,760.896 1319.94,761.055 1324.04,761.213 1328.14,761.369 1332.24,761.523 1336.33,761.676 1340.43,761.827 1344.53,761.977 1348.63,762.125 
  1352.73,762.271 1356.83,762.415 1360.93,762.558 1365.03,762.699 1369.13,762.838 1373.23,762.975 1377.32,763.11 1381.42,763.244 1385.52,763.376 1389.62,763.506 
  1393.72,763.634 1397.82,763.76 1401.92,763.885 1406.02,764.007 1410.12,764.128 1414.22,764.246 1418.31,764.363 1422.41,764.477 1426.51,764.59 1430.61,764.701 
  1434.71,764.809 1438.81,764.916 1442.91,765.021 1447.01,765.123 1451.11,765.224 1455.21,765.322 1459.3,765.419 1463.4,765.513 1467.5,765.605 1471.6,765.695 
  1475.7,765.783 1479.8,765.869 1483.9,765.953 1488,766.035 1492.1,766.114 1496.19,766.192 1500.29,766.267 1504.39,766.34 1508.49,766.411 1512.59,766.479 
  1516.69,766.546 1520.79,766.61 1524.89,766.673 1528.99,766.733 1533.09,766.791 1537.18,766.846 1541.28,766.9 1545.38,766.951 1549.48,767 1553.58,767.047 
  1557.68,767.092 1561.78,767.134 1565.88,767.174 1569.98,767.212 1574.08,767.248 1578.17,767.282 1582.27,767.313 1586.37,767.343 1590.47,767.37 1594.57,767.395 
  1598.67,767.417 1602.77,767.438 1606.87,767.456 1610.97,767.472 1615.06,767.486 1619.16,767.498 1623.26,767.508 1627.36,767.515 1631.46,767.521 1635.56,767.524 
  1639.66,767.525 1643.76,767.524 1647.86,767.521 1651.96,767.515 1656.05,767.508 1660.15,767.499 1664.25,767.487 1668.35,767.474 1672.45,767.458 1676.55,767.44 
  1680.65,767.421 1684.75,767.399 1688.85,767.375 1692.95,767.35 1697.04,767.322 1701.14,767.292 1705.24,767.261 1709.34,767.228 1713.44,767.192 1717.54,767.155 
  1721.64,767.116 1725.74,767.075 1729.84,767.032 1733.93,766.988 1738.03,766.941 1742.13,766.893 1746.23,766.844 1750.33,766.792 1754.43,766.739 1758.53,766.684 
  1762.63,766.628 1766.73,766.569 1770.83,766.51 1774.92,766.448 1779.02,766.386 1783.12,766.321 1787.22,766.256 1791.32,766.188 1795.42,766.12 1799.52,766.05 
  1803.62,765.978 1807.72,765.906 1811.82,765.832 1815.91,765.756 1820.01,765.68 1824.11,765.602 1828.21,765.524 1832.31,765.444 1836.41,765.363 1840.51,765.281 
  1844.61,765.198 1848.71,765.114 1852.8,765.03 1856.9,764.944 1861,764.858 1865.1,764.771 1869.2,764.683 1873.3,764.594 1877.4,764.505 1881.5,764.415 
  1885.6,764.325 1889.7,764.234 1893.79,764.143 1897.89,764.051 1901.99,763.959 1906.09,763.867 1910.19,763.775 1914.29,763.682 1918.39,763.589 1922.49,763.497 
  1926.59,763.404 1930.69,763.311 1934.78,763.219 1938.88,763.127 1942.98,763.035 1947.08,762.943 1951.18,762.852 1955.28,762.761 1959.38,762.671 1963.48,762.581 
  1967.58,762.492 1971.67,762.403 1975.77,762.316 1979.87,762.229 1983.97,762.144 1988.07,762.059 1992.17,761.976 1996.27,761.893 2000.37,761.812 2004.47,761.733 
  2008.57,761.655 2012.66,761.578 2016.76,761.503 2020.86,761.429 2024.96,761.358 2029.06,761.288 2033.16,761.22 2037.26,761.155 2041.36,761.091 2045.46,761.03 
  2049.56,760.971 2053.65,760.914 2057.75,760.861 2061.85,760.809 2065.95,760.761 2070.05,760.715 2074.15,760.672 2078.25,760.633 2082.35,760.596 2086.45,760.563 
  2090.54,760.533 2094.64,760.507 2098.74,760.485 2102.84,760.466 2106.94,760.451 2111.04,760.44 2115.14,760.433 2119.24,760.431 2123.34,760.432 2127.44,760.439 
  2131.53,760.45 2135.63,760.465 2139.73,760.486 2143.83,760.512 2147.93,760.543 2152.03,760.579 2156.13,760.62 2160.23,760.668 2164.33,760.721 2168.43,760.78 
  2172.52,760.845 2176.62,760.916 2180.72,760.994 2184.82,761.078 2188.92,761.168 2193.02,761.266 2197.12,761.371 2201.22,761.483 2205.32,761.602 2209.42,761.729 
  2213.51,761.863 2217.61,762.006 2221.71,762.156 2225.81,762.315 2229.91,762.482 2234.01,762.657 2238.11,762.842 2242.21,763.035 2246.31,763.238 2250.4,763.45 
  2254.5,763.672 2258.6,763.903 2262.7,764.145 2266.8,764.396 2270.9,764.658 2275,764.931 2279.1,765.214 2283.2,765.509 2287.3,765.815 2291.39,766.132 
  
  "/>
<circle clip-path="url(#clip5802)" cx="955.633" cy="744.659" r="14" fill="#e26f46" fill-rule="evenodd" fill-opacity="1" stroke="#000000" stroke-opacity="1" stroke-width="3.2"/>
<circle clip-path="url(#clip5802)" cx="454.722" cy="747.83" r="14" fill="#e26f46" fill-rule="evenodd" fill-opacity="1" stroke="#000000" stroke-opacity="1" stroke-width="3.2"/>
<circle clip-path="url(#clip5802)" cx="2207.91" cy="761.682" r="14" fill="#e26f46" fill-rule="evenodd" fill-opacity="1" stroke="#000000" stroke-opacity="1" stroke-width="3.2"/>
<circle clip-path="url(#clip5802)" cx="913.89" cy="741.308" r="14" fill="#e26f46" fill-rule="evenodd" fill-opacity="1" stroke="#000000" stroke-opacity="1" stroke-width="3.2"/>
<circle clip-path="url(#clip5802)" cx="1080.86" cy="749.75" r="14" fill="#e26f46" fill-rule="evenodd" fill-opacity="1" stroke="#000000" stroke-opacity="1" stroke-width="3.2"/>
<path clip-path="url(#clip5800)" d="
M1481.63 312.204 L2280.76 312.204 L2280.76 130.764 L1481.63 130.764  Z
  " fill="#ffffff" fill-rule="evenodd" fill-opacity="1"/>
<polyline clip-path="url(#clip5800)" style="stroke:#000000; stroke-width:4; stroke-opacity:1; fill:none" points="
  1481.63,312.204 2280.76,312.204 2280.76,130.764 1481.63,130.764 1481.63,312.204 
  "/>
<polyline clip-path="url(#clip5800)" style="stroke:#000000; stroke-width:4; stroke-opacity:1; fill:none" points="
  1505.63,191.244 1649.63,191.244 
  "/>
<g clip-path="url(#clip5800)">
<text style="fill:#000000; fill-opacity:1; font-family:Arial,Helvetica Neue,Helvetica,sans-serif; font-size:48px; text-anchor:start;" transform="rotate(0, 1673.63, 208.744)" x="1673.63" y="208.744">MAP with 95% confidence</text>
</g>
<circle clip-path="url(#clip5800)" cx="1589.63" cy="251.724" r="21" fill="#e26f46" fill-rule="evenodd" fill-opacity="1" stroke="#000000" stroke-opacity="1" stroke-width="3.2"/>
<g clip-path="url(#clip5800)">
<text style="fill:#000000; fill-opacity:1; font-family:Arial,Helvetica Neue,Helvetica,sans-serif; font-size:48px; text-anchor:start;" transform="rotate(0, 1673.63, 269.224)" x="1673.63" y="269.224">data</text>
</g>
</svg>
