<?xml version="1.0" encoding="utf-8"?>
<svg xmlns="http://www.w3.org/2000/svg" xmlns:xlink="http://www.w3.org/1999/xlink" width="600" height="400" viewBox="0 0 2400 1600">
<defs>
  <clipPath id="clip5300">
    <rect x="0" y="0" width="2400" height="1600"/>
  </clipPath>
</defs>
<path clip-path="url(#clip5300)" d="
M0 1600 L2400 1600 L2400 0 L0 0  Z
  " fill="#ffffff" fill-rule="evenodd" fill-opacity="1"/>
<defs>
  <clipPath id="clip5301">
    <rect x="480" y="0" width="1681" height="1600"/>
  </clipPath>
</defs>
<path clip-path="url(#clip5300)" d="
M200.059 1479.96 L2352.76 1479.96 L2352.76 47.2441 L200.059 47.2441  Z
  " fill="#ffffff" fill-rule="evenodd" fill-opacity="1"/>
<defs>
  <clipPath id="clip5302">
    <rect x="200" y="47" width="2154" height="1434"/>
  </clipPath>
</defs>
<polyline clip-path="url(#clip5302)" style="stroke:#000000; stroke-width:2; stroke-opacity:0.1; fill:none" points="
  318.461,1479.96 318.461,47.2441 
  "/>
<polyline clip-path="url(#clip5302)" style="stroke:#000000; stroke-width:2; stroke-opacity:0.1; fill:none" points="
  797.434,1479.96 797.434,47.2441 
  "/>
<polyline clip-path="url(#clip5302)" style="stroke:#000000; stroke-width:2; stroke-opacity:0.1; fill:none" points="
  1276.41,1479.96 1276.41,47.2441 
  "/>
<polyline clip-path="url(#clip5302)" style="stroke:#000000; stroke-width:2; stroke-opacity:0.1; fill:none" points="
  1755.38,1479.96 1755.38,47.2441 
  "/>
<polyline clip-path="url(#clip5302)" style="stroke:#000000; stroke-width:2; stroke-opacity:0.1; fill:none" points="
  2234.35,1479.96 2234.35,47.2441 
  "/>
<polyline clip-path="url(#clip5302)" style="stroke:#000000; stroke-width:2; stroke-opacity:0.1; fill:none" points="
  200.059,1271.84 2352.76,1271.84 
  "/>
<polyline clip-path="url(#clip5302)" style="stroke:#000000; stroke-width:2; stroke-opacity:0.1; fill:none" points="
  200.059,1001.26 2352.76,1001.26 
  "/>
<polyline clip-path="url(#clip5302)" style="stroke:#000000; stroke-width:2; stroke-opacity:0.1; fill:none" points="
  200.059,730.691 2352.76,730.691 
  "/>
<polyline clip-path="url(#clip5302)" style="stroke:#000000; stroke-width:2; stroke-opacity:0.1; fill:none" points="
  200.059,460.118 2352.76,460.118 
  "/>
<polyline clip-path="url(#clip5302)" style="stroke:#000000; stroke-width:2; stroke-opacity:0.1; fill:none" points="
  200.059,189.546 2352.76,189.546 
  "/>
<polyline clip-path="url(#clip5300)" style="stroke:#000000; stroke-width:4; stroke-opacity:1; fill:none" points="
  200.059,1479.96 2352.76,1479.96 
  "/>
<polyline clip-path="url(#clip5300)" style="stroke:#000000; stroke-width:4; stroke-opacity:1; fill:none" points="
  200.059,1479.96 200.059,47.2441 
  "/>
<polyline clip-path="url(#clip5300)" style="stroke:#000000; stroke-width:4; stroke-opacity:1; fill:none" points="
  318.461,1479.96 318.461,1462.77 
  "/>
<polyline clip-path="url(#clip5300)" style="stroke:#000000; stroke-width:4; stroke-opacity:1; fill:none" points="
  797.434,1479.96 797.434,1462.77 
  "/>
<polyline clip-path="url(#clip5300)" style="stroke:#000000; stroke-width:4; stroke-opacity:1; fill:none" points="
  1276.41,1479.96 1276.41,1462.77 
  "/>
<polyline clip-path="url(#clip5300)" style="stroke:#000000; stroke-width:4; stroke-opacity:1; fill:none" points="
  1755.38,1479.96 1755.38,1462.77 
  "/>
<polyline clip-path="url(#clip5300)" style="stroke:#000000; stroke-width:4; stroke-opacity:1; fill:none" points="
  2234.35,1479.96 2234.35,1462.77 
  "/>
<polyline clip-path="url(#clip5300)" style="stroke:#000000; stroke-width:4; stroke-opacity:1; fill:none" points="
  200.059,1271.84 225.891,1271.84 
  "/>
<polyline clip-path="url(#clip5300)" style="stroke:#000000; stroke-width:4; stroke-opacity:1; fill:none" points="
  200.059,1001.26 225.891,1001.26 
  "/>
<polyline clip-path="url(#clip5300)" style="stroke:#000000; stroke-width:4; stroke-opacity:1; fill:none" points="
  200.059,730.691 225.891,730.691 
  "/>
<polyline clip-path="url(#clip5300)" style="stroke:#000000; stroke-width:4; stroke-opacity:1; fill:none" points="
  200.059,460.118 225.891,460.118 
  "/>
<polyline clip-path="url(#clip5300)" style="stroke:#000000; stroke-width:4; stroke-opacity:1; fill:none" points="
  200.059,189.546 225.891,189.546 
  "/>
<g clip-path="url(#clip5300)">
<text style="fill:#000000; fill-opacity:1; font-family:Arial,Helvetica Neue,Helvetica,sans-serif; font-size:48px; text-anchor:middle;" transform="rotate(0, 318.461, 1533.96)" x="318.461" y="1533.96">0.00</text>
</g>
<g clip-path="url(#clip5300)">
<text style="fill:#000000; fill-opacity:1; font-family:Arial,Helvetica Neue,Helvetica,sans-serif; font-size:48px; text-anchor:middle;" transform="rotate(0, 797.434, 1533.96)" x="797.434" y="1533.96">0.25</text>
</g>
<g clip-path="url(#clip5300)">
<text style="fill:#000000; fill-opacity:1; font-family:Arial,Helvetica Neue,Helvetica,sans-serif; font-size:48px; text-anchor:middle;" transform="rotate(0, 1276.41, 1533.96)" x="1276.41" y="1533.96">0.50</text>
</g>
<g clip-path="url(#clip5300)">
<text style="fill:#000000; fill-opacity:1; font-family:Arial,Helvetica Neue,Helvetica,sans-serif; font-size:48px; text-anchor:middle;" transform="rotate(0, 1755.38, 1533.96)" x="1755.38" y="1533.96">0.75</text>
</g>
<g clip-path="url(#clip5300)">
<text style="fill:#000000; fill-opacity:1; font-family:Arial,Helvetica Neue,Helvetica,sans-serif; font-size:48px; text-anchor:middle;" transform="rotate(0, 2234.35, 1533.96)" x="2234.35" y="1533.96">1.00</text>
</g>
<g clip-path="url(#clip5300)">
<text style="fill:#000000; fill-opacity:1; font-family:Arial,Helvetica Neue,Helvetica,sans-serif; font-size:48px; text-anchor:end;" transform="rotate(0, 176.059, 1289.34)" x="176.059" y="1289.34">-1.0</text>
</g>
<g clip-path="url(#clip5300)">
<text style="fill:#000000; fill-opacity:1; font-family:Arial,Helvetica Neue,Helvetica,sans-serif; font-size:48px; text-anchor:end;" transform="rotate(0, 176.059, 1018.76)" x="176.059" y="1018.76">-0.5</text>
</g>
<g clip-path="url(#clip5300)">
<text style="fill:#000000; fill-opacity:1; font-family:Arial,Helvetica Neue,Helvetica,sans-serif; font-size:48px; text-anchor:end;" transform="rotate(0, 176.059, 748.191)" x="176.059" y="748.191">0.0</text>
</g>
<g clip-path="url(#clip5300)">
<text style="fill:#000000; fill-opacity:1; font-family:Arial,Helvetica Neue,Helvetica,sans-serif; font-size:48px; text-anchor:end;" transform="rotate(0, 176.059, 477.618)" x="176.059" y="477.618">0.5</text>
</g>
<g clip-path="url(#clip5300)">
<text style="fill:#000000; fill-opacity:1; font-family:Arial,Helvetica Neue,Helvetica,sans-serif; font-size:48px; text-anchor:end;" transform="rotate(0, 176.059, 207.046)" x="176.059" y="207.046">1.0</text>
</g>
<circle clip-path="url(#clip5302)" cx="318.461" cy="698.516" r="14" fill="#009af9" fill-rule="evenodd" fill-opacity="1" stroke="#000000" stroke-opacity="1" stroke-width="3.2"/>
<circle clip-path="url(#clip5302)" cx="357.561" cy="620.104" r="14" fill="#009af9" fill-rule="evenodd" fill-opacity="1" stroke="#000000" stroke-opacity="1" stroke-width="3.2"/>
<circle clip-path="url(#clip5302)" cx="396.661" cy="658.108" r="14" fill="#009af9" fill-rule="evenodd" fill-opacity="1" stroke="#000000" stroke-opacity="1" stroke-width="3.2"/>
<circle clip-path="url(#clip5302)" cx="435.761" cy="528.747" r="14" fill="#009af9" fill-rule="evenodd" fill-opacity="1" stroke="#000000" stroke-opacity="1" stroke-width="3.2"/>
<circle clip-path="url(#clip5302)" cx="474.86" cy="555.949" r="14" fill="#009af9" fill-rule="evenodd" fill-opacity="1" stroke="#000000" stroke-opacity="1" stroke-width="3.2"/>
<circle clip-path="url(#clip5302)" cx="513.96" cy="373.355" r="14" fill="#009af9" fill-rule="evenodd" fill-opacity="1" stroke="#000000" stroke-opacity="1" stroke-width="3.2"/>
<circle clip-path="url(#clip5302)" cx="553.06" cy="105.831" r="14" fill="#009af9" fill-rule="evenodd" fill-opacity="1" stroke="#000000" stroke-opacity="1" stroke-width="3.2"/>
<circle clip-path="url(#clip5302)" cx="592.16" cy="185.372" r="14" fill="#009af9" fill-rule="evenodd" fill-opacity="1" stroke="#000000" stroke-opacity="1" stroke-width="3.2"/>
<circle clip-path="url(#clip5302)" cx="631.26" cy="243.149" r="14" fill="#009af9" fill-rule="evenodd" fill-opacity="1" stroke="#000000" stroke-opacity="1" stroke-width="3.2"/>
<circle clip-path="url(#clip5302)" cx="670.36" cy="481.226" r="14" fill="#009af9" fill-rule="evenodd" fill-opacity="1" stroke="#000000" stroke-opacity="1" stroke-width="3.2"/>
<circle clip-path="url(#clip5302)" cx="709.46" cy="154.555" r="14" fill="#009af9" fill-rule="evenodd" fill-opacity="1" stroke="#000000" stroke-opacity="1" stroke-width="3.2"/>
<circle clip-path="url(#clip5302)" cx="748.559" cy="149.79" r="14" fill="#009af9" fill-rule="evenodd" fill-opacity="1" stroke="#000000" stroke-opacity="1" stroke-width="3.2"/>
<circle clip-path="url(#clip5302)" cx="787.659" cy="126.65" r="14" fill="#009af9" fill-rule="evenodd" fill-opacity="1" stroke="#000000" stroke-opacity="1" stroke-width="3.2"/>
<circle clip-path="url(#clip5302)" cx="826.759" cy="87.7927" r="14" fill="#009af9" fill-rule="evenodd" fill-opacity="1" stroke="#000000" stroke-opacity="1" stroke-width="3.2"/>
<circle clip-path="url(#clip5302)" cx="865.859" cy="153.459" r="14" fill="#009af9" fill-rule="evenodd" fill-opacity="1" stroke="#000000" stroke-opacity="1" stroke-width="3.2"/>
<circle clip-path="url(#clip5302)" cx="904.959" cy="279.375" r="14" fill="#009af9" fill-rule="evenodd" fill-opacity="1" stroke="#000000" stroke-opacity="1" stroke-width="3.2"/>
<circle clip-path="url(#clip5302)" cx="944.059" cy="206.712" r="14" fill="#009af9" fill-rule="evenodd" fill-opacity="1" stroke="#000000" stroke-opacity="1" stroke-width="3.2"/>
<circle clip-path="url(#clip5302)" cx="983.158" cy="292.319" r="14" fill="#009af9" fill-rule="evenodd" fill-opacity="1" stroke="#000000" stroke-opacity="1" stroke-width="3.2"/>
<circle clip-path="url(#clip5302)" cx="1022.26" cy="405.167" r="14" fill="#009af9" fill-rule="evenodd" fill-opacity="1" stroke="#000000" stroke-opacity="1" stroke-width="3.2"/>
<circle clip-path="url(#clip5302)" cx="1061.36" cy="571.885" r="14" fill="#009af9" fill-rule="evenodd" fill-opacity="1" stroke="#000000" stroke-opacity="1" stroke-width="3.2"/>
<circle clip-path="url(#clip5302)" cx="1100.46" cy="422.407" r="14" fill="#009af9" fill-rule="evenodd" fill-opacity="1" stroke="#000000" stroke-opacity="1" stroke-width="3.2"/>
<circle clip-path="url(#clip5302)" cx="1139.56" cy="577.895" r="14" fill="#009af9" fill-rule="evenodd" fill-opacity="1" stroke="#000000" stroke-opacity="1" stroke-width="3.2"/>
<circle clip-path="url(#clip5302)" cx="1178.66" cy="747.381" r="14" fill="#009af9" fill-rule="evenodd" fill-opacity="1" stroke="#000000" stroke-opacity="1" stroke-width="3.2"/>
<circle clip-path="url(#clip5302)" cx="1217.76" cy="541.102" r="14" fill="#009af9" fill-rule="evenodd" fill-opacity="1" stroke="#000000" stroke-opacity="1" stroke-width="3.2"/>
<circle clip-path="url(#clip5302)" cx="1256.86" cy="623.499" r="14" fill="#009af9" fill-rule="evenodd" fill-opacity="1" stroke="#000000" stroke-opacity="1" stroke-width="3.2"/>
<circle clip-path="url(#clip5302)" cx="1295.96" cy="705.744" r="14" fill="#009af9" fill-rule="evenodd" fill-opacity="1" stroke="#000000" stroke-opacity="1" stroke-width="3.2"/>
<circle clip-path="url(#clip5302)" cx="1335.06" cy="840.994" r="14" fill="#009af9" fill-rule="evenodd" fill-opacity="1" stroke="#000000" stroke-opacity="1" stroke-width="3.2"/>
<circle clip-path="url(#clip5302)" cx="1374.16" cy="756.514" r="14" fill="#009af9" fill-rule="evenodd" fill-opacity="1" stroke="#000000" stroke-opacity="1" stroke-width="3.2"/>
<circle clip-path="url(#clip5302)" cx="1413.26" cy="973.401" r="14" fill="#009af9" fill-rule="evenodd" fill-opacity="1" stroke="#000000" stroke-opacity="1" stroke-width="3.2"/>
<circle clip-path="url(#clip5302)" cx="1452.36" cy="1106.58" r="14" fill="#009af9" fill-rule="evenodd" fill-opacity="1" stroke="#000000" stroke-opacity="1" stroke-width="3.2"/>
<circle clip-path="url(#clip5302)" cx="1491.46" cy="1213.52" r="14" fill="#009af9" fill-rule="evenodd" fill-opacity="1" stroke="#000000" stroke-opacity="1" stroke-width="3.2"/>
<circle clip-path="url(#clip5302)" cx="1530.56" cy="1137.04" r="14" fill="#009af9" fill-rule="evenodd" fill-opacity="1" stroke="#000000" stroke-opacity="1" stroke-width="3.2"/>
<circle clip-path="url(#clip5302)" cx="1569.66" cy="1192.4" r="14" fill="#009af9" fill-rule="evenodd" fill-opacity="1" stroke="#000000" stroke-opacity="1" stroke-width="3.2"/>
<circle clip-path="url(#clip5302)" cx="1608.76" cy="1439.41" r="14" fill="#009af9" fill-rule="evenodd" fill-opacity="1" stroke="#000000" stroke-opacity="1" stroke-width="3.2"/>
<circle clip-path="url(#clip5302)" cx="1647.86" cy="1245.76" r="14" fill="#009af9" fill-rule="evenodd" fill-opacity="1" stroke="#000000" stroke-opacity="1" stroke-width="3.2"/>
<circle clip-path="url(#clip5302)" cx="1686.96" cy="1125.96" r="14" fill="#009af9" fill-rule="evenodd" fill-opacity="1" stroke="#000000" stroke-opacity="1" stroke-width="3.2"/>
<circle clip-path="url(#clip5302)" cx="1726.06" cy="1207.89" r="14" fill="#009af9" fill-rule="evenodd" fill-opacity="1" stroke="#000000" stroke-opacity="1" stroke-width="3.2"/>
<circle clip-path="url(#clip5302)" cx="1765.16" cy="1188.92" r="14" fill="#009af9" fill-rule="evenodd" fill-opacity="1" stroke="#000000" stroke-opacity="1" stroke-width="3.2"/>
<circle clip-path="url(#clip5302)" cx="1804.26" cy="1223.92" r="14" fill="#009af9" fill-rule="evenodd" fill-opacity="1" stroke="#000000" stroke-opacity="1" stroke-width="3.2"/>
<circle clip-path="url(#clip5302)" cx="1843.36" cy="1319.34" r="14" fill="#009af9" fill-rule="evenodd" fill-opacity="1" stroke="#000000" stroke-opacity="1" stroke-width="3.2"/>
<circle clip-path="url(#clip5302)" cx="1882.46" cy="1297.45" r="14" fill="#009af9" fill-rule="evenodd" fill-opacity="1" stroke="#000000" stroke-opacity="1" stroke-width="3.2"/>
<circle clip-path="url(#clip5302)" cx="1921.55" cy="1388.59" r="14" fill="#009af9" fill-rule="evenodd" fill-opacity="1" stroke="#000000" stroke-opacity="1" stroke-width="3.2"/>
<circle clip-path="url(#clip5302)" cx="1960.65" cy="1293.29" r="14" fill="#009af9" fill-rule="evenodd" fill-opacity="1" stroke="#000000" stroke-opacity="1" stroke-width="3.2"/>
<circle clip-path="url(#clip5302)" cx="1999.75" cy="1143.44" r="14" fill="#009af9" fill-rule="evenodd" fill-opacity="1" stroke="#000000" stroke-opacity="1" stroke-width="3.2"/>
<circle clip-path="url(#clip5302)" cx="2038.85" cy="1046.73" r="14" fill="#009af9" fill-rule="evenodd" fill-opacity="1" stroke="#000000" stroke-opacity="1" stroke-width="3.2"/>
<circle clip-path="url(#clip5302)" cx="2077.95" cy="959.248" r="14" fill="#009af9" fill-rule="evenodd" fill-opacity="1" stroke="#000000" stroke-opacity="1" stroke-width="3.2"/>
<circle clip-path="url(#clip5302)" cx="2117.05" cy="745.969" r="14" fill="#009af9" fill-rule="evenodd" fill-opacity="1" stroke="#000000" stroke-opacity="1" stroke-width="3.2"/>
<circle clip-path="url(#clip5302)" cx="2156.15" cy="727.266" r="14" fill="#009af9" fill-rule="evenodd" fill-opacity="1" stroke="#000000" stroke-opacity="1" stroke-width="3.2"/>
<circle clip-path="url(#clip5302)" cx="2195.25" cy="777.556" r="14" fill="#009af9" fill-rule="evenodd" fill-opacity="1" stroke="#000000" stroke-opacity="1" stroke-width="3.2"/>
<circle clip-path="url(#clip5302)" cx="2234.35" cy="839.879" r="14" fill="#009af9" fill-rule="evenodd" fill-opacity="1" stroke="#000000" stroke-opacity="1" stroke-width="3.2"/>
<polyline clip-path="url(#clip5302)" style="stroke:#e26f46; stroke-width:4; stroke-opacity:1; fill:none" points="
  318.461,689.894 322.3,688.862 326.14,687.433 329.979,685.623 333.819,683.448 337.658,680.923 341.498,678.063 345.337,674.882 349.177,671.395 353.016,667.614 
  356.856,663.555 360.695,659.23 364.535,654.652 368.374,649.834 372.213,644.788 376.053,639.526 379.892,634.06 383.732,628.401 387.571,622.561 391.411,616.55 
  395.25,610.38 399.09,604.06 402.929,597.6 406.769,591.012 410.608,584.303 414.448,577.484 418.287,570.564 422.127,563.551 425.966,556.455 429.805,549.283 
  433.645,542.044 437.484,534.746 441.324,527.397 445.163,520.003 449.003,512.574 452.842,505.114 456.682,497.632 460.521,490.135 464.361,482.628 468.2,475.118 
  472.04,467.611 475.879,460.113 479.718,452.63 483.558,445.167 487.397,437.73 491.237,430.324 495.076,422.954 498.916,415.624 502.755,408.341 506.595,401.107 
  510.434,393.927 514.274,386.806 518.113,379.748 521.953,372.757 525.792,365.836 529.632,358.989 533.471,352.219 537.31,345.531 541.15,338.926 544.989,332.408 
  548.829,325.981 552.668,319.646 556.508,313.407 560.347,307.266 564.187,301.226 568.026,295.288 571.866,289.456 575.705,283.731 579.545,278.115 583.384,272.61 
  587.223,267.217 591.063,261.939 594.902,256.778 598.742,251.733 602.581,246.808 606.421,242.003 610.26,237.319 614.1,232.757 617.939,228.319 621.779,224.006 
  625.618,219.817 629.458,215.755 633.297,211.819 637.137,208.01 640.976,204.329 644.815,200.776 648.655,197.351 652.494,194.056 656.334,190.889 660.173,187.852 
  664.013,184.944 667.852,182.166 671.692,179.517 675.531,176.997 679.371,174.606 683.21,172.344 687.05,170.211 690.889,168.207 694.728,166.33 698.568,164.581 
  702.407,162.959 706.247,161.464 710.086,160.095 713.926,158.852 717.765,157.734 721.605,156.74 725.444,155.869 729.284,155.122 733.123,154.496 736.963,153.992 
  740.802,153.608 744.642,153.344 748.481,153.198 752.32,153.17 756.16,153.259 759.999,153.463 763.839,153.782 767.678,154.215 771.518,154.76 775.357,155.417 
  779.197,156.184 783.036,157.061 786.876,158.045 790.715,159.136 794.555,160.333 798.394,161.635 802.233,163.039 806.073,164.546 809.912,166.154 813.752,167.861 
  817.591,169.666 821.431,171.568 825.27,173.566 829.11,175.659 832.949,177.844 836.789,180.121 840.628,182.488 844.468,184.945 848.307,187.489 852.147,190.12 
  855.986,192.836 859.825,195.635 863.665,198.517 867.504,201.48 871.344,204.522 875.183,207.643 879.023,210.841 882.862,214.114 886.702,217.462 890.541,220.883 
  894.381,224.375 898.22,227.938 902.06,231.569 905.899,235.268 909.739,239.034 913.578,242.864 917.417,246.758 921.257,250.715 925.096,254.733 928.936,258.81 
  932.775,262.946 936.615,267.14 940.454,271.389 944.294,275.693 948.133,280.051 951.973,284.461 955.812,288.922 959.652,293.433 963.491,297.993 967.33,302.6 
  971.17,307.254 975.009,311.953 978.849,316.696 982.688,321.482 986.528,326.309 990.367,331.178 994.207,336.086 998.046,341.032 1001.89,346.016 1005.73,351.037 
  1009.56,356.093 1013.4,361.183 1017.24,366.306 1021.08,371.462 1024.92,376.65 1028.76,381.867 1032.6,387.115 1036.44,392.39 1040.28,397.694 1044.12,403.024 
  1047.96,408.38 1051.8,413.761 1055.64,419.166 1059.48,424.595 1063.32,430.046 1067.16,435.518 1071,441.012 1074.84,446.525 1078.67,452.058 1082.51,457.609 
  1086.35,463.179 1090.19,468.765 1094.03,474.368 1097.87,479.987 1101.71,485.62 1105.55,491.268 1109.39,496.93 1113.23,502.605 1117.07,508.293 1120.91,513.992 
  1124.75,519.703 1128.59,525.425 1132.43,531.157 1136.27,536.899 1140.11,542.65 1143.95,548.409 1147.79,554.177 1151.62,559.952 1155.46,565.735 1159.3,571.525 
  1163.14,577.32 1166.98,583.122 1170.82,588.929 1174.66,594.741 1178.5,600.558 1182.34,606.379 1186.18,612.204 1190.02,618.033 1193.86,623.865 1197.7,629.699 
  1201.54,635.537 1205.38,641.376 1209.22,647.217 1213.06,653.06 1216.9,658.904 1220.74,664.749 1224.57,670.595 1228.41,676.441 1232.25,682.287 1236.09,688.134 
  1239.93,693.98 1243.77,699.825 1247.61,705.67 1251.45,711.513 1255.29,717.355 1259.13,723.196 1262.97,729.035 1266.81,734.873 1270.65,740.708 1274.49,746.541 
  1278.33,752.371 1282.17,758.199 1286.01,764.024 1289.85,769.845 1293.68,775.664 1297.52,781.479 1301.36,787.29 1305.2,793.098 1309.04,798.901 1312.88,804.701 
  1316.72,810.495 1320.56,816.286 1324.4,822.071 1328.24,827.852 1332.08,833.628 1335.92,839.398 1339.76,845.162 1343.6,850.921 1347.44,856.674 1351.28,862.421 
  1355.12,868.161 1358.96,873.895 1362.8,879.622 1366.63,885.342 1370.47,891.054 1374.31,896.759 1378.15,902.456 1381.99,908.146 1385.83,913.826 1389.67,919.498 
  1393.51,925.162 1397.35,930.816 1401.19,936.46 1405.03,942.095 1408.87,947.72 1412.71,953.334 1416.55,958.937 1420.39,964.529 1424.23,970.109 1428.07,975.678 
  1431.91,981.234 1435.75,986.777 1439.58,992.307 1443.42,997.823 1447.26,1003.33 1451.1,1008.81 1454.94,1014.29 1458.78,1019.74 1462.62,1025.18 1466.46,1030.61 
  1470.3,1036.02 1474.14,1041.4 1477.98,1046.78 1481.82,1052.13 1485.66,1057.46 1489.5,1062.77 1493.34,1068.06 1497.18,1073.33 1501.02,1078.58 1504.86,1083.81 
  1508.69,1089.01 1512.53,1094.18 1516.37,1099.34 1520.21,1104.46 1524.05,1109.56 1527.89,1114.63 1531.73,1119.67 1535.57,1124.69 1539.41,1129.67 1543.25,1134.62 
  1547.09,1139.54 1550.93,1144.43 1554.77,1149.28 1558.61,1154.1 1562.45,1158.88 1566.29,1163.62 1570.13,1168.33 1573.97,1172.99 1577.81,1177.62 1581.64,1182.2 
  1585.48,1186.75 1589.32,1191.24 1593.16,1195.7 1597,1200.1 1600.84,1204.46 1604.68,1208.77 1608.52,1213.03 1612.36,1217.24 1616.2,1221.39 1620.04,1225.5 
  1623.88,1229.54 1627.72,1233.53 1631.56,1237.46 1635.4,1241.33 1639.24,1245.14 1643.08,1248.89 1646.92,1252.57 1650.76,1256.19 1654.59,1259.74 1658.43,1263.22 
  1662.27,1266.63 1666.11,1269.97 1669.95,1273.24 1673.79,1276.43 1677.63,1279.54 1681.47,1282.58 1685.31,1285.53 1689.15,1288.41 1692.99,1291.2 1696.83,1293.9 
  1700.67,1296.52 1704.51,1299.05 1708.35,1301.49 1712.19,1303.84 1716.03,1306.09 1719.87,1308.25 1723.7,1310.31 1727.54,1312.28 1731.38,1314.14 1735.22,1315.9 
  1739.06,1317.56 1742.9,1319.11 1746.74,1320.55 1750.58,1321.88 1754.42,1323.1 1758.26,1324.21 1762.1,1325.21 1765.94,1326.08 1769.78,1326.84 1773.62,1327.48 
  1777.46,1328 1781.3,1328.39 1785.14,1328.66 1788.98,1328.81 1792.82,1328.82 1796.65,1328.71 1800.49,1328.46 1804.33,1328.08 1808.17,1327.57 1812.01,1326.92 
  1815.85,1326.13 1819.69,1325.21 1823.53,1324.14 1827.37,1322.93 1831.21,1321.58 1835.05,1320.08 1838.89,1318.44 1842.73,1316.65 1846.57,1314.72 1850.41,1312.63 
  1854.25,1310.4 1858.09,1308.01 1861.93,1305.47 1865.77,1302.78 1869.6,1299.94 1873.44,1296.94 1877.28,1293.79 1881.12,1290.48 1884.96,1287.02 1888.8,1283.39 
  1892.64,1279.62 1896.48,1275.68 1900.32,1271.59 1904.16,1267.35 1908,1262.94 1911.84,1258.38 1915.68,1253.66 1919.52,1248.79 1923.36,1243.76 1927.2,1238.58 
  1931.04,1233.24 1934.88,1227.75 1938.71,1222.11 1942.55,1216.32 1946.39,1210.38 1950.23,1204.29 1954.07,1198.06 1957.91,1191.68 1961.75,1185.16 1965.59,1178.5 
  1969.43,1171.71 1973.27,1164.77 1977.11,1157.71 1980.95,1150.52 1984.79,1143.2 1988.63,1135.75 1992.47,1128.19 1996.31,1120.52 2000.15,1112.73 2003.99,1104.83 
  2007.83,1096.84 2011.66,1088.74 2015.5,1080.55 2019.34,1072.28 2023.18,1063.92 2027.02,1055.49 2030.86,1046.99 2034.7,1038.42 2038.54,1029.8 2042.38,1021.12 
  2046.22,1012.41 2050.06,1003.66 2053.9,994.882 2057.74,986.087 2061.58,977.283 2065.42,968.478 2069.26,959.682 2073.1,950.905 2076.94,942.157 2080.78,933.449 
  2084.61,924.791 2088.45,916.195 2092.29,907.674 2096.13,899.239 2099.97,890.903 2103.81,882.68 2107.65,874.583 2111.49,866.627 2115.33,858.826 2119.17,851.195 
  2123.01,843.751 2126.85,836.509 2130.69,829.487 2134.53,822.702 2138.37,816.172 2142.21,809.915 2146.05,803.952 2149.89,798.3 2153.72,792.982 2157.56,788.018 
  2161.4,783.43 2165.24,779.24 2169.08,775.472 2172.92,772.149 2176.76,769.295 2180.6,766.937 2184.44,765.1 2188.28,763.812 2192.12,763.098 2195.96,762.989 
  2199.8,763.513 2203.64,764.7 2207.48,766.582 2211.32,769.189 2215.16,772.556 2219,776.714 2222.84,781.7 2226.67,787.548 2230.51,794.295 2234.35,801.978 
  
  "/>
<polyline clip-path="url(#clip5302)" style="stroke:#000000; stroke-width:12; stroke-opacity:1; fill:none" stroke-dasharray="6, 12" points="
  260.984,832.091 270.901,814.754 280.817,797.327 372.509,635.274 464.201,481.784 519.304,399.477 574.407,327.957 620.995,277.638 667.584,237.875 692.889,221.042 
  718.193,207.716 743.497,197.99 768.801,191.93 815.458,190.491 862.115,201.675 912.135,227.382 962.156,266.604 991.133,295.107 1020.11,327.54 1049.09,363.612 
  1078.06,402.996 1181.07,564.239 1271.4,721.797 1369.88,893.983 1468.94,1050.12 1496.32,1088.01 1523.71,1123.01 1551.09,1154.86 1578.47,1183.29 1630.58,1227.14 
  1682.69,1256.53 1709.77,1265.79 1736.86,1270.84 1763.95,1271.62 1791.04,1268.14 1813.85,1261.92 1836.65,1252.73 1859.46,1240.62 1882.26,1225.66 1937.94,1177.71 
  1993.62,1114.9 2045.96,1044.16 2098.31,964.2 2182.16,822.86 2266.02,674.594 2278.93,651.871 2291.83,629.29 
  "/>
<path clip-path="url(#clip5300)" d="
M1396.15 372.684 L2280.76 372.684 L2280.76 130.764 L1396.15 130.764  Z
  " fill="#ffffff" fill-rule="evenodd" fill-opacity="1"/>
<polyline clip-path="url(#clip5300)" style="stroke:#000000; stroke-width:4; stroke-opacity:1; fill:none" points="
  1396.15,372.684 2280.76,372.684 2280.76,130.764 1396.15,130.764 1396.15,372.684 
  "/>
<circle clip-path="url(#clip5300)" cx="1504.15" cy="191.244" r="21" fill="#009af9" fill-rule="evenodd" fill-opacity="1" stroke="#000000" stroke-opacity="1" stroke-width="3.2"/>
<g clip-path="url(#clip5300)">
<text style="fill:#000000; fill-opacity:1; font-family:Arial,Helvetica Neue,Helvetica,sans-serif; font-size:48px; text-anchor:start;" transform="rotate(0, 1588.15, 208.744)" x="1588.15" y="208.744">data</text>
</g>
<polyline clip-path="url(#clip5300)" style="stroke:#e26f46; stroke-width:4; stroke-opacity:1; fill:none" points="
  1420.15,251.724 1564.15,251.724 
  "/>
<g clip-path="url(#clip5300)">
<text style="fill:#000000; fill-opacity:1; font-family:Arial,Helvetica Neue,Helvetica,sans-serif; font-size:48px; text-anchor:start;" transform="rotate(0, 1588.15, 269.224)" x="1588.15" y="269.224">maximum likelihood prediction</text>
</g>
<polyline clip-path="url(#clip5300)" style="stroke:#000000; stroke-width:12; stroke-opacity:1; fill:none" stroke-dasharray="6, 12" points="
  1420.15,312.204 1564.15,312.204 
  "/>
<g clip-path="url(#clip5300)">
<text style="fill:#000000; fill-opacity:1; font-family:Arial,Helvetica Neue,Helvetica,sans-serif; font-size:48px; text-anchor:start;" transform="rotate(0, 1588.15, 329.704)" x="1588.15" y="329.704">true</text>
</g>
</svg>
