<?xml version="1.0" encoding="utf-8"?>
<svg xmlns="http://www.w3.org/2000/svg" xmlns:xlink="http://www.w3.org/1999/xlink" width="600" height="400" viewBox="0 0 2400 1600">
<defs>
  <clipPath id="clip480">
    <rect x="0" y="0" width="2400" height="1600"/>
  </clipPath>
</defs>
<path clip-path="url(#clip480)" d="
M0 1600 L2400 1600 L2400 0 L0 0  Z
  " fill="#ffffff" fill-rule="evenodd" fill-opacity="1"/>
<defs>
  <clipPath id="clip481">
    <rect x="480" y="0" width="1681" height="1600"/>
  </clipPath>
</defs>
<path clip-path="url(#clip480)" d="
M156.598 1486.45 L2352.76 1486.45 L2352.76 123.472 L156.598 123.472  Z
  " fill="#ffffff" fill-rule="evenodd" fill-opacity="1"/>
<defs>
  <clipPath id="clip482">
    <rect x="156" y="123" width="2197" height="1364"/>
  </clipPath>
</defs>
<polyline clip-path="url(#clip482)" style="stroke:#000000; stroke-linecap:butt; stroke-linejoin:round; stroke-width:2; stroke-opacity:0.1; fill:none" points="
  156.598,1486.45 156.598,123.472 
  "/>
<polyline clip-path="url(#clip482)" style="stroke:#000000; stroke-linecap:butt; stroke-linejoin:round; stroke-width:2; stroke-opacity:0.1; fill:none" points="
  522.625,1486.45 522.625,123.472 
  "/>
<polyline clip-path="url(#clip482)" style="stroke:#000000; stroke-linecap:butt; stroke-linejoin:round; stroke-width:2; stroke-opacity:0.1; fill:none" points="
  888.651,1486.45 888.651,123.472 
  "/>
<polyline clip-path="url(#clip482)" style="stroke:#000000; stroke-linecap:butt; stroke-linejoin:round; stroke-width:2; stroke-opacity:0.1; fill:none" points="
  1254.68,1486.45 1254.68,123.472 
  "/>
<polyline clip-path="url(#clip482)" style="stroke:#000000; stroke-linecap:butt; stroke-linejoin:round; stroke-width:2; stroke-opacity:0.1; fill:none" points="
  1620.7,1486.45 1620.7,123.472 
  "/>
<polyline clip-path="url(#clip482)" style="stroke:#000000; stroke-linecap:butt; stroke-linejoin:round; stroke-width:2; stroke-opacity:0.1; fill:none" points="
  1986.73,1486.45 1986.73,123.472 
  "/>
<polyline clip-path="url(#clip482)" style="stroke:#000000; stroke-linecap:butt; stroke-linejoin:round; stroke-width:2; stroke-opacity:0.1; fill:none" points="
  2352.76,1486.45 2352.76,123.472 
  "/>
<polyline clip-path="url(#clip480)" style="stroke:#000000; stroke-linecap:butt; stroke-linejoin:round; stroke-width:4; stroke-opacity:1; fill:none" points="
  156.598,1486.45 2352.76,1486.45 
  "/>
<polyline clip-path="url(#clip480)" style="stroke:#000000; stroke-linecap:butt; stroke-linejoin:round; stroke-width:4; stroke-opacity:1; fill:none" points="
  156.598,1486.45 156.598,1470.09 
  "/>
<polyline clip-path="url(#clip480)" style="stroke:#000000; stroke-linecap:butt; stroke-linejoin:round; stroke-width:4; stroke-opacity:1; fill:none" points="
  522.625,1486.45 522.625,1470.09 
  "/>
<polyline clip-path="url(#clip480)" style="stroke:#000000; stroke-linecap:butt; stroke-linejoin:round; stroke-width:4; stroke-opacity:1; fill:none" points="
  888.651,1486.45 888.651,1470.09 
  "/>
<polyline clip-path="url(#clip480)" style="stroke:#000000; stroke-linecap:butt; stroke-linejoin:round; stroke-width:4; stroke-opacity:1; fill:none" points="
  1254.68,1486.45 1254.68,1470.09 
  "/>
<polyline clip-path="url(#clip480)" style="stroke:#000000; stroke-linecap:butt; stroke-linejoin:round; stroke-width:4; stroke-opacity:1; fill:none" points="
  1620.7,1486.45 1620.7,1470.09 
  "/>
<polyline clip-path="url(#clip480)" style="stroke:#000000; stroke-linecap:butt; stroke-linejoin:round; stroke-width:4; stroke-opacity:1; fill:none" points="
  1986.73,1486.45 1986.73,1470.09 
  "/>
<polyline clip-path="url(#clip480)" style="stroke:#000000; stroke-linecap:butt; stroke-linejoin:round; stroke-width:4; stroke-opacity:1; fill:none" points="
  2352.76,1486.45 2352.76,1470.09 
  "/>
<path clip-path="url(#clip480)" d="M125.499 1530.29 L155.175 1530.29 L155.175 1534.23 L125.499 1534.23 L125.499 1530.29 Z" fill="#000000" fill-rule="evenodd" fill-opacity="1" /><path clip-path="url(#clip480)" d="M178.114 1516.63 L166.309 1535.08 L178.114 1535.08 L178.114 1516.63 M176.887 1512.56 L182.767 1512.56 L182.767 1535.08 L187.698 1535.08 L187.698 1538.97 L182.767 1538.97 L182.767 1547.12 L178.114 1547.12 L178.114 1538.97 L162.513 1538.97 L162.513 1534.46 L176.887 1512.56 Z" fill="#000000" fill-rule="evenodd" fill-opacity="1" /><path clip-path="url(#clip480)" d="M492.567 1530.29 L522.243 1530.29 L522.243 1534.23 L492.567 1534.23 L492.567 1530.29 Z" fill="#000000" fill-rule="evenodd" fill-opacity="1" /><path clip-path="url(#clip480)" d="M536.363 1543.18 L552.682 1543.18 L552.682 1547.12 L530.738 1547.12 L530.738 1543.18 Q533.4 1540.43 537.983 1535.8 Q542.59 1531.15 543.77 1529.81 Q546.016 1527.28 546.895 1525.55 Q547.798 1523.79 547.798 1522.1 Q547.798 1519.34 545.854 1517.61 Q543.932 1515.87 540.83 1515.87 Q538.631 1515.87 536.178 1516.63 Q533.747 1517.4 530.969 1518.95 L530.969 1514.23 Q533.793 1513.09 536.247 1512.51 Q538.701 1511.93 540.738 1511.93 Q546.108 1511.93 549.303 1514.62 Q552.497 1517.31 552.497 1521.8 Q552.497 1523.93 551.687 1525.85 Q550.9 1527.74 548.793 1530.34 Q548.215 1531.01 545.113 1534.23 Q542.011 1537.42 536.363 1543.18 Z" fill="#000000" fill-rule="evenodd" fill-opacity="1" /><path clip-path="url(#clip480)" d="M888.651 1515.64 Q885.04 1515.64 883.211 1519.2 Q881.405 1522.75 881.405 1529.87 Q881.405 1536.98 883.211 1540.55 Q885.04 1544.09 888.651 1544.09 Q892.285 1544.09 894.091 1540.55 Q895.919 1536.98 895.919 1529.87 Q895.919 1522.75 894.091 1519.2 Q892.285 1515.64 888.651 1515.64 M888.651 1511.93 Q894.461 1511.93 897.516 1516.54 Q900.595 1521.12 900.595 1529.87 Q900.595 1538.6 897.516 1543.21 Q894.461 1547.79 888.651 1547.79 Q882.841 1547.79 879.762 1543.21 Q876.706 1538.6 876.706 1529.87 Q876.706 1521.12 879.762 1516.54 Q882.841 1511.93 888.651 1511.93 Z" fill="#000000" fill-rule="evenodd" fill-opacity="1" /><path clip-path="url(#clip480)" d="M1249.33 1543.18 L1265.65 1543.18 L1265.65 1547.12 L1243.7 1547.12 L1243.7 1543.18 Q1246.37 1540.43 1250.95 1535.8 Q1255.56 1531.15 1256.74 1529.81 Q1258.98 1527.28 1259.86 1525.55 Q1260.77 1523.79 1260.77 1522.1 Q1260.77 1519.34 1258.82 1517.61 Q1256.9 1515.87 1253.8 1515.87 Q1251.6 1515.87 1249.14 1516.63 Q1246.71 1517.4 1243.94 1518.95 L1243.94 1514.23 Q1246.76 1513.09 1249.21 1512.51 Q1251.67 1511.93 1253.7 1511.93 Q1259.08 1511.93 1262.27 1514.62 Q1265.46 1517.31 1265.46 1521.8 Q1265.46 1523.93 1264.65 1525.85 Q1263.87 1527.74 1261.76 1530.34 Q1261.18 1531.01 1258.08 1534.23 Q1254.98 1537.42 1249.33 1543.18 Z" fill="#000000" fill-rule="evenodd" fill-opacity="1" /><path clip-path="url(#clip480)" d="M1623.71 1516.63 L1611.91 1535.08 L1623.71 1535.08 L1623.71 1516.63 M1622.49 1512.56 L1628.37 1512.56 L1628.37 1535.08 L1633.3 1535.08 L1633.3 1538.97 L1628.37 1538.97 L1628.37 1547.12 L1623.71 1547.12 L1623.71 1538.97 L1608.11 1538.97 L1608.11 1534.46 L1622.49 1512.56 Z" fill="#000000" fill-rule="evenodd" fill-opacity="1" /><path clip-path="url(#clip480)" d="M1987.13 1527.98 Q1983.99 1527.98 1982.13 1530.13 Q1980.31 1532.28 1980.31 1536.03 Q1980.31 1539.76 1982.13 1541.93 Q1983.99 1544.09 1987.13 1544.09 Q1990.28 1544.09 1992.11 1541.93 Q1993.96 1539.76 1993.96 1536.03 Q1993.96 1532.28 1992.11 1530.13 Q1990.28 1527.98 1987.13 1527.98 M1996.42 1513.32 L1996.42 1517.58 Q1994.66 1516.75 1992.85 1516.31 Q1991.07 1515.87 1989.31 1515.87 Q1984.68 1515.87 1982.23 1519 Q1979.8 1522.12 1979.45 1528.44 Q1980.82 1526.43 1982.88 1525.36 Q1984.94 1524.27 1987.41 1524.27 Q1992.62 1524.27 1995.63 1527.44 Q1998.66 1530.59 1998.66 1536.03 Q1998.66 1541.36 1995.51 1544.57 Q1992.37 1547.79 1987.13 1547.79 Q1981.14 1547.79 1977.97 1543.21 Q1974.8 1538.6 1974.8 1529.87 Q1974.8 1521.68 1978.69 1516.82 Q1982.57 1511.93 1989.13 1511.93 Q1990.88 1511.93 1992.67 1512.28 Q1994.47 1512.63 1996.42 1513.32 Z" fill="#000000" fill-rule="evenodd" fill-opacity="1" /><path clip-path="url(#clip480)" d="M2352.76 1530.71 Q2349.42 1530.71 2347.5 1532.49 Q2345.6 1534.27 2345.6 1537.4 Q2345.6 1540.52 2347.5 1542.31 Q2349.42 1544.09 2352.76 1544.09 Q2356.09 1544.09 2358.01 1542.31 Q2359.93 1540.5 2359.93 1537.4 Q2359.93 1534.27 2358.01 1532.49 Q2356.11 1530.71 2352.76 1530.71 M2348.08 1528.72 Q2345.07 1527.98 2343.38 1525.92 Q2341.71 1523.86 2341.71 1520.89 Q2341.71 1516.75 2344.65 1514.34 Q2347.62 1511.93 2352.76 1511.93 Q2357.92 1511.93 2360.86 1514.34 Q2363.8 1516.75 2363.8 1520.89 Q2363.8 1523.86 2362.11 1525.92 Q2360.44 1527.98 2357.45 1528.72 Q2360.83 1529.5 2362.71 1531.8 Q2364.61 1534.09 2364.61 1537.4 Q2364.61 1542.42 2361.53 1545.11 Q2358.47 1547.79 2352.76 1547.79 Q2347.04 1547.79 2343.96 1545.11 Q2340.9 1542.42 2340.9 1537.4 Q2340.9 1534.09 2342.8 1531.8 Q2344.7 1529.5 2348.08 1528.72 M2346.37 1521.33 Q2346.37 1524.02 2348.03 1525.52 Q2349.72 1527.03 2352.76 1527.03 Q2355.77 1527.03 2357.45 1525.52 Q2359.17 1524.02 2359.17 1521.33 Q2359.17 1518.65 2357.45 1517.14 Q2355.77 1515.64 2352.76 1515.64 Q2349.72 1515.64 2348.03 1517.14 Q2346.37 1518.65 2346.37 1521.33 Z" fill="#000000" fill-rule="evenodd" fill-opacity="1" /><polyline clip-path="url(#clip482)" style="stroke:#000000; stroke-linecap:butt; stroke-linejoin:round; stroke-width:2; stroke-opacity:0.1; fill:none" points="
  156.598,1447.87 2352.76,1447.87 
  "/>
<polyline clip-path="url(#clip482)" style="stroke:#000000; stroke-linecap:butt; stroke-linejoin:round; stroke-width:2; stroke-opacity:0.1; fill:none" points="
  156.598,1125.13 2352.76,1125.13 
  "/>
<polyline clip-path="url(#clip482)" style="stroke:#000000; stroke-linecap:butt; stroke-linejoin:round; stroke-width:2; stroke-opacity:0.1; fill:none" points="
  156.598,802.385 2352.76,802.385 
  "/>
<polyline clip-path="url(#clip482)" style="stroke:#000000; stroke-linecap:butt; stroke-linejoin:round; stroke-width:2; stroke-opacity:0.1; fill:none" points="
  156.598,479.64 2352.76,479.64 
  "/>
<polyline clip-path="url(#clip482)" style="stroke:#000000; stroke-linecap:butt; stroke-linejoin:round; stroke-width:2; stroke-opacity:0.1; fill:none" points="
  156.598,156.896 2352.76,156.896 
  "/>
<polyline clip-path="url(#clip480)" style="stroke:#000000; stroke-linecap:butt; stroke-linejoin:round; stroke-width:4; stroke-opacity:1; fill:none" points="
  156.598,1486.45 156.598,123.472 
  "/>
<polyline clip-path="url(#clip480)" style="stroke:#000000; stroke-linecap:butt; stroke-linejoin:round; stroke-width:4; stroke-opacity:1; fill:none" points="
  156.598,1447.87 182.952,1447.87 
  "/>
<polyline clip-path="url(#clip480)" style="stroke:#000000; stroke-linecap:butt; stroke-linejoin:round; stroke-width:4; stroke-opacity:1; fill:none" points="
  156.598,1125.13 182.952,1125.13 
  "/>
<polyline clip-path="url(#clip480)" style="stroke:#000000; stroke-linecap:butt; stroke-linejoin:round; stroke-width:4; stroke-opacity:1; fill:none" points="
  156.598,802.385 182.952,802.385 
  "/>
<polyline clip-path="url(#clip480)" style="stroke:#000000; stroke-linecap:butt; stroke-linejoin:round; stroke-width:4; stroke-opacity:1; fill:none" points="
  156.598,479.64 182.952,479.64 
  "/>
<polyline clip-path="url(#clip480)" style="stroke:#000000; stroke-linecap:butt; stroke-linejoin:round; stroke-width:4; stroke-opacity:1; fill:none" points="
  156.598,156.896 182.952,156.896 
  "/>
<path clip-path="url(#clip480)" d="M63.4226 1433.67 Q59.8115 1433.67 57.9828 1437.24 Q56.1773 1440.78 56.1773 1447.91 Q56.1773 1455.01 57.9828 1458.58 Q59.8115 1462.12 63.4226 1462.12 Q67.0569 1462.12 68.8624 1458.58 Q70.6911 1455.01 70.6911 1447.91 Q70.6911 1440.78 68.8624 1437.24 Q67.0569 1433.67 63.4226 1433.67 M63.4226 1429.97 Q69.2328 1429.97 72.2883 1434.57 Q75.367 1439.16 75.367 1447.91 Q75.367 1456.63 72.2883 1461.24 Q69.2328 1465.82 63.4226 1465.82 Q57.6125 1465.82 54.5338 1461.24 Q51.4782 1456.63 51.4782 1447.91 Q51.4782 1439.16 54.5338 1434.57 Q57.6125 1429.97 63.4226 1429.97 Z" fill="#000000" fill-rule="evenodd" fill-opacity="1" /><path clip-path="url(#clip480)" d="M83.5845 1459.27 L88.4688 1459.27 L88.4688 1465.15 L83.5845 1465.15 L83.5845 1459.27 Z" fill="#000000" fill-rule="evenodd" fill-opacity="1" /><path clip-path="url(#clip480)" d="M108.654 1433.67 Q105.043 1433.67 103.214 1437.24 Q101.409 1440.78 101.409 1447.91 Q101.409 1455.01 103.214 1458.58 Q105.043 1462.12 108.654 1462.12 Q112.288 1462.12 114.094 1458.58 Q115.922 1455.01 115.922 1447.91 Q115.922 1440.78 114.094 1437.24 Q112.288 1433.67 108.654 1433.67 M108.654 1429.97 Q114.464 1429.97 117.52 1434.57 Q120.598 1439.16 120.598 1447.91 Q120.598 1456.63 117.52 1461.24 Q114.464 1465.82 108.654 1465.82 Q102.844 1465.82 99.765 1461.24 Q96.7095 1456.63 96.7095 1447.91 Q96.7095 1439.16 99.765 1434.57 Q102.844 1429.97 108.654 1429.97 Z" fill="#000000" fill-rule="evenodd" fill-opacity="1" /><path clip-path="url(#clip480)" d="M65.0198 1110.93 Q61.4087 1110.93 59.58 1114.49 Q57.7745 1118.03 57.7745 1125.16 Q57.7745 1132.27 59.58 1135.83 Q61.4087 1139.38 65.0198 1139.38 Q68.6541 1139.38 70.4596 1135.83 Q72.2883 1132.27 72.2883 1125.16 Q72.2883 1118.03 70.4596 1114.49 Q68.6541 1110.93 65.0198 1110.93 M65.0198 1107.22 Q70.83 1107.22 73.8855 1111.83 Q76.9642 1116.41 76.9642 1125.16 Q76.9642 1133.89 73.8855 1138.5 Q70.83 1143.08 65.0198 1143.08 Q59.2097 1143.08 56.131 1138.5 Q53.0754 1133.89 53.0754 1125.16 Q53.0754 1116.41 56.131 1111.83 Q59.2097 1107.22 65.0198 1107.22 Z" fill="#000000" fill-rule="evenodd" fill-opacity="1" /><path clip-path="url(#clip480)" d="M85.1818 1136.53 L90.066 1136.53 L90.066 1142.41 L85.1818 1142.41 L85.1818 1136.53 Z" fill="#000000" fill-rule="evenodd" fill-opacity="1" /><path clip-path="url(#clip480)" d="M104.279 1138.47 L120.598 1138.47 L120.598 1142.41 L98.6539 1142.41 L98.6539 1138.47 Q101.316 1135.72 105.899 1131.09 Q110.506 1126.44 111.686 1125.09 Q113.932 1122.57 114.811 1120.83 Q115.714 1119.08 115.714 1117.39 Q115.714 1114.63 113.77 1112.9 Q111.848 1111.16 108.746 1111.16 Q106.547 1111.16 104.094 1111.92 Q101.663 1112.69 98.8854 1114.24 L98.8854 1109.52 Q101.709 1108.38 104.163 1107.8 Q106.617 1107.22 108.654 1107.22 Q114.024 1107.22 117.219 1109.91 Q120.413 1112.59 120.413 1117.08 Q120.413 1119.21 119.603 1121.14 Q118.816 1123.03 116.709 1125.63 Q116.131 1126.3 113.029 1129.52 Q109.927 1132.71 104.279 1138.47 Z" fill="#000000" fill-rule="evenodd" fill-opacity="1" /><path clip-path="url(#clip480)" d="M62.9365 788.183 Q59.3254 788.183 57.4967 791.748 Q55.6912 795.29 55.6912 802.419 Q55.6912 809.526 57.4967 813.09 Q59.3254 816.632 62.9365 816.632 Q66.5707 816.632 68.3763 813.09 Q70.205 809.526 70.205 802.419 Q70.205 795.29 68.3763 791.748 Q66.5707 788.183 62.9365 788.183 M62.9365 784.48 Q68.7467 784.48 71.8022 789.086 Q74.8809 793.669 74.8809 802.419 Q74.8809 811.146 71.8022 815.753 Q68.7467 820.336 62.9365 820.336 Q57.1264 820.336 54.0477 815.753 Q50.9921 811.146 50.9921 802.419 Q50.9921 793.669 54.0477 789.086 Q57.1264 784.48 62.9365 784.48 Z" fill="#000000" fill-rule="evenodd" fill-opacity="1" /><path clip-path="url(#clip480)" d="M83.0984 813.785 L87.9827 813.785 L87.9827 819.665 L83.0984 819.665 L83.0984 813.785 Z" fill="#000000" fill-rule="evenodd" fill-opacity="1" /><path clip-path="url(#clip480)" d="M111.015 789.179 L99.2095 807.628 L111.015 807.628 L111.015 789.179 M109.788 785.105 L115.668 785.105 L115.668 807.628 L120.598 807.628 L120.598 811.516 L115.668 811.516 L115.668 819.665 L111.015 819.665 L111.015 811.516 L95.4132 811.516 L95.4132 807.003 L109.788 785.105 Z" fill="#000000" fill-rule="evenodd" fill-opacity="1" /><path clip-path="url(#clip480)" d="M63.2606 465.439 Q59.6495 465.439 57.8208 469.004 Q56.0152 472.545 56.0152 479.675 Q56.0152 486.781 57.8208 490.346 Q59.6495 493.888 63.2606 493.888 Q66.8948 493.888 68.7004 490.346 Q70.5291 486.781 70.5291 479.675 Q70.5291 472.545 68.7004 469.004 Q66.8948 465.439 63.2606 465.439 M63.2606 461.735 Q69.0707 461.735 72.1263 466.342 Q75.205 470.925 75.205 479.675 Q75.205 488.402 72.1263 493.008 Q69.0707 497.592 63.2606 497.592 Q57.4504 497.592 54.3717 493.008 Q51.3162 488.402 51.3162 479.675 Q51.3162 470.925 54.3717 466.342 Q57.4504 461.735 63.2606 461.735 Z" fill="#000000" fill-rule="evenodd" fill-opacity="1" /><path clip-path="url(#clip480)" d="M83.4225 491.041 L88.3067 491.041 L88.3067 496.92 L83.4225 496.92 L83.4225 491.041 Z" fill="#000000" fill-rule="evenodd" fill-opacity="1" /><path clip-path="url(#clip480)" d="M109.071 477.777 Q105.922 477.777 104.071 479.93 Q102.242 482.082 102.242 485.832 Q102.242 489.559 104.071 491.735 Q105.922 493.888 109.071 493.888 Q112.219 493.888 114.047 491.735 Q115.899 489.559 115.899 485.832 Q115.899 482.082 114.047 479.93 Q112.219 477.777 109.071 477.777 M118.353 463.124 L118.353 467.383 Q116.594 466.55 114.788 466.11 Q113.006 465.67 111.246 465.67 Q106.617 465.67 104.163 468.795 Q101.733 471.92 101.385 478.24 Q102.751 476.226 104.811 475.161 Q106.871 474.073 109.348 474.073 Q114.557 474.073 117.566 477.244 Q120.598 480.393 120.598 485.832 Q120.598 491.156 117.45 494.374 Q114.302 497.592 109.071 497.592 Q103.075 497.592 99.9039 493.008 Q96.7326 488.402 96.7326 479.675 Q96.7326 471.481 100.621 466.619 Q104.51 461.735 111.061 461.735 Q112.82 461.735 114.603 462.082 Q116.408 462.43 118.353 463.124 Z" fill="#000000" fill-rule="evenodd" fill-opacity="1" /><path clip-path="url(#clip480)" d="M63.5152 142.695 Q59.9041 142.695 58.0754 146.259 Q56.2699 149.801 56.2699 156.931 Q56.2699 164.037 58.0754 167.602 Q59.9041 171.144 63.5152 171.144 Q67.1494 171.144 68.955 167.602 Q70.7837 164.037 70.7837 156.931 Q70.7837 149.801 68.955 146.259 Q67.1494 142.695 63.5152 142.695 M63.5152 138.991 Q69.3254 138.991 72.3809 143.597 Q75.4596 148.181 75.4596 156.931 Q75.4596 165.658 72.3809 170.264 Q69.3254 174.847 63.5152 174.847 Q57.7051 174.847 54.6264 170.264 Q51.5708 165.658 51.5708 156.931 Q51.5708 148.181 54.6264 143.597 Q57.7051 138.991 63.5152 138.991 Z" fill="#000000" fill-rule="evenodd" fill-opacity="1" /><path clip-path="url(#clip480)" d="M83.6771 168.296 L88.5614 168.296 L88.5614 174.176 L83.6771 174.176 L83.6771 168.296 Z" fill="#000000" fill-rule="evenodd" fill-opacity="1" /><path clip-path="url(#clip480)" d="M108.746 157.764 Q105.413 157.764 103.492 159.546 Q101.594 161.329 101.594 164.454 Q101.594 167.579 103.492 169.361 Q105.413 171.144 108.746 171.144 Q112.08 171.144 114.001 169.361 Q115.922 167.556 115.922 164.454 Q115.922 161.329 114.001 159.546 Q112.103 157.764 108.746 157.764 M104.071 155.773 Q101.061 155.033 99.3715 152.972 Q97.7048 150.912 97.7048 147.949 Q97.7048 143.806 100.645 141.398 Q103.608 138.991 108.746 138.991 Q113.908 138.991 116.848 141.398 Q119.788 143.806 119.788 147.949 Q119.788 150.912 118.098 152.972 Q116.432 155.033 113.445 155.773 Q116.825 156.56 118.7 158.852 Q120.598 161.144 120.598 164.454 Q120.598 169.477 117.52 172.162 Q114.464 174.847 108.746 174.847 Q103.029 174.847 99.9502 172.162 Q96.8947 169.477 96.8947 164.454 Q96.8947 161.144 98.7928 158.852 Q100.691 156.56 104.071 155.773 M102.358 148.389 Q102.358 151.074 104.024 152.579 Q105.714 154.084 108.746 154.084 Q111.756 154.084 113.445 152.579 Q115.158 151.074 115.158 148.389 Q115.158 145.704 113.445 144.199 Q111.756 142.695 108.746 142.695 Q105.714 142.695 104.024 144.199 Q102.358 145.704 102.358 148.389 Z" fill="#000000" fill-rule="evenodd" fill-opacity="1" /><path clip-path="url(#clip480)" d="M803.791 18.8205 L803.791 65.8515 L813.675 65.8515 Q826.193 65.8515 831.985 60.1802 Q837.819 54.509 837.819 42.2752 Q837.819 30.1225 831.985 24.4918 Q826.193 18.8205 813.675 18.8205 L803.791 18.8205 M795.608 12.096 L812.42 12.096 Q830.001 12.096 838.224 19.4281 Q846.447 26.7198 846.447 42.2752 Q846.447 57.9117 838.183 65.2439 Q829.92 72.576 812.42 72.576 L795.608 72.576 L795.608 12.096 Z" fill="#000000" fill-rule="evenodd" fill-opacity="1" /><path clip-path="url(#clip480)" d="M859.491 12.096 L867.674 12.096 L867.674 37.6572 L894.815 12.096 L905.347 12.096 L875.33 40.2903 L907.494 72.576 L896.719 72.576 L867.674 43.45 L867.674 72.576 L859.491 72.576 L859.491 12.096 Z" fill="#000000" fill-rule="evenodd" fill-opacity="1" /><path clip-path="url(#clip480)" d="M914.543 34.9026 L966.475 34.9026 L966.475 41.7081 L914.543 41.7081 L914.543 34.9026 M914.543 51.4303 L966.475 51.4303 L966.475 58.3168 L914.543 58.3168 L914.543 51.4303 Z" fill="#000000" fill-rule="evenodd" fill-opacity="1" /><path clip-path="url(#clip480)" d="M1001.64 17.4837 Q995.318 17.4837 992.118 23.7221 Q988.958 29.92 988.958 42.3968 Q988.958 54.833 992.118 61.0714 Q995.318 67.2693 1001.64 67.2693 Q1008 67.2693 1011.16 61.0714 Q1014.36 54.833 1014.36 42.3968 Q1014.36 29.92 1011.16 23.7221 Q1008 17.4837 1001.64 17.4837 M1001.64 11.0023 Q1011.81 11.0023 1017.15 19.0636 Q1022.54 27.0843 1022.54 42.3968 Q1022.54 57.6687 1017.15 65.73 Q1011.81 73.7508 1001.64 73.7508 Q991.47 73.7508 986.082 65.73 Q980.735 57.6687 980.735 42.3968 Q980.735 27.0843 986.082 19.0636 Q991.47 11.0023 1001.64 11.0023 Z" fill="#000000" fill-rule="evenodd" fill-opacity="1" /><path clip-path="url(#clip480)" d="M1036.92 62.2867 L1045.47 62.2867 L1045.47 72.576 L1036.92 72.576 L1036.92 62.2867 Z" fill="#000000" fill-rule="evenodd" fill-opacity="1" /><path clip-path="url(#clip480)" d="M1063.37 12.096 L1095.5 12.096 L1095.5 18.9825 L1070.87 18.9825 L1070.87 33.8088 Q1072.65 33.2012 1074.43 32.9176 Q1076.21 32.5936 1078 32.5936 Q1088.12 32.5936 1094.04 38.1433 Q1099.95 43.6931 1099.95 53.1722 Q1099.95 62.9348 1093.88 68.3631 Q1087.8 73.7508 1076.74 73.7508 Q1072.93 73.7508 1068.96 73.1026 Q1065.03 72.4545 1060.82 71.1582 L1060.82 62.9348 Q1064.47 64.9198 1068.36 65.892 Q1072.24 66.8642 1076.58 66.8642 Q1083.59 66.8642 1087.68 63.1779 Q1091.77 59.4916 1091.77 53.1722 Q1091.77 46.8528 1087.68 43.1664 Q1083.59 39.4801 1076.58 39.4801 Q1073.3 39.4801 1070.02 40.2093 Q1066.78 40.9384 1063.37 42.4778 L1063.37 12.096 Z" fill="#000000" fill-rule="evenodd" fill-opacity="1" /><path clip-path="url(#clip480)" d="M1117.49 65.6895 L1130.86 65.6895 L1130.86 19.5497 L1116.32 22.4663 L1116.32 15.0127 L1130.78 12.096 L1138.96 12.096 L1138.96 65.6895 L1152.33 65.6895 L1152.33 72.576 L1117.49 72.576 L1117.49 65.6895 Z" fill="#000000" fill-rule="evenodd" fill-opacity="1" /><path clip-path="url(#clip480)" d="M1193.41 89.8329 L1193.41 27.2059 L1200.86 27.2059 L1200.86 55.4002 Q1200.86 61.274 1203.66 64.2716 Q1206.45 67.2693 1211.92 67.2693 Q1217.92 67.2693 1220.91 63.8666 Q1223.95 60.4638 1223.95 53.6583 L1223.95 27.2059 L1231.4 27.2059 L1231.4 62.1247 Q1231.4 64.5552 1232.09 65.73 Q1232.82 66.8642 1234.32 66.8642 Q1234.69 66.8642 1235.33 66.6617 Q1235.98 66.4186 1237.12 65.9325 L1237.12 71.9279 Q1235.46 72.8596 1233.96 73.3052 Q1232.5 73.7508 1231.08 73.7508 Q1228.29 73.7508 1226.62 72.1709 Q1224.96 70.5911 1224.36 67.3503 Q1222.33 70.5505 1219.37 72.1709 Q1216.46 73.7508 1212.49 73.7508 Q1208.35 73.7508 1205.44 72.1709 Q1202.56 70.5911 1200.86 67.4314 L1200.86 89.8329 L1193.41 89.8329 Z" fill="#000000" fill-rule="evenodd" fill-opacity="1" /><path clip-path="url(#clip480)" d="M1247.93 34.9026 L1299.86 34.9026 L1299.86 41.7081 L1247.93 41.7081 L1247.93 34.9026 M1247.93 51.4303 L1299.86 51.4303 L1299.86 58.3168 L1247.93 58.3168 L1247.93 51.4303 Z" fill="#000000" fill-rule="evenodd" fill-opacity="1" /><path clip-path="url(#clip480)" d="M1340.01 19.2256 L1319.35 51.5113 L1340.01 51.5113 L1340.01 19.2256 M1337.86 12.096 L1348.15 12.096 L1348.15 51.5113 L1356.78 51.5113 L1356.78 58.3168 L1348.15 58.3168 L1348.15 72.576 L1340.01 72.576 L1340.01 58.3168 L1312.71 58.3168 L1312.71 50.4176 L1337.86 12.096 Z" fill="#000000" fill-rule="evenodd" fill-opacity="1" /><path clip-path="url(#clip480)" d="M1370.31 62.2867 L1378.86 62.2867 L1378.86 72.576 L1370.31 72.576 L1370.31 62.2867 Z" fill="#000000" fill-rule="evenodd" fill-opacity="1" /><path clip-path="url(#clip480)" d="M1414.18 17.4837 Q1407.86 17.4837 1404.66 23.7221 Q1401.5 29.92 1401.5 42.3968 Q1401.5 54.833 1404.66 61.0714 Q1407.86 67.2693 1414.18 67.2693 Q1420.54 67.2693 1423.7 61.0714 Q1426.9 54.833 1426.9 42.3968 Q1426.9 29.92 1423.7 23.7221 Q1420.54 17.4837 1414.18 17.4837 M1414.18 11.0023 Q1424.35 11.0023 1429.7 19.0636 Q1435.08 27.0843 1435.08 42.3968 Q1435.08 57.6687 1429.7 65.73 Q1424.35 73.7508 1414.18 73.7508 Q1404.01 73.7508 1398.63 65.73 Q1393.28 57.6687 1393.28 42.3968 Q1393.28 27.0843 1398.63 19.0636 Q1404.01 11.0023 1414.18 11.0023 Z" fill="#000000" fill-rule="evenodd" fill-opacity="1" /><path clip-path="url(#clip480)" d="M1492.36 33.1202 Q1486.21 33.1202 1482.88 37.5762 Q1479.4 42.2347 1479.4 49.9314 Q1479.4 58.0738 1482.84 62.7728 Q1486.33 67.4314 1492.36 67.4314 Q1498.32 67.4314 1501.8 62.7323 Q1505.29 58.0333 1505.29 49.9314 Q1505.29 42.5183 1501.8 37.5762 Q1498.6 33.1202 1492.36 33.1202 M1492.36 27.2059 L1517.11 27.2059 L1517.11 34.6595 L1508.77 34.6595 Q1513.19 40.9789 1513.19 49.9314 Q1513.19 61.0714 1507.64 67.3908 Q1502.09 73.7508 1492.36 73.7508 Q1482.6 73.7508 1477.09 67.3908 Q1471.54 61.0714 1471.54 49.9314 Q1471.54 38.7104 1477.09 32.4315 Q1481.67 27.2059 1492.36 27.2059 Z" fill="#000000" fill-rule="evenodd" fill-opacity="1" /><path clip-path="url(#clip480)" d="M1528.34 34.9026 L1580.27 34.9026 L1580.27 41.7081 L1528.34 41.7081 L1528.34 34.9026 M1528.34 51.4303 L1580.27 51.4303 L1580.27 58.3168 L1528.34 58.3168 L1528.34 51.4303 Z" fill="#000000" fill-rule="evenodd" fill-opacity="1" /><path clip-path="url(#clip480)" d="M1615.43 17.4837 Q1609.11 17.4837 1605.91 23.7221 Q1602.75 29.92 1602.75 42.3968 Q1602.75 54.833 1605.91 61.0714 Q1609.11 67.2693 1615.43 67.2693 Q1621.79 67.2693 1624.95 61.0714 Q1628.15 54.833 1628.15 42.3968 Q1628.15 29.92 1624.95 23.7221 Q1621.79 17.4837 1615.43 17.4837 M1615.43 11.0023 Q1625.6 11.0023 1630.95 19.0636 Q1636.33 27.0843 1636.33 42.3968 Q1636.33 57.6687 1630.95 65.73 Q1625.6 73.7508 1615.43 73.7508 Q1605.26 73.7508 1599.87 65.73 Q1594.53 57.6687 1594.53 42.3968 Q1594.53 27.0843 1599.87 19.0636 Q1605.26 11.0023 1615.43 11.0023 Z" fill="#000000" fill-rule="evenodd" fill-opacity="1" /><path clip-path="url(#clip480)" d="M1650.71 62.2867 L1659.26 62.2867 L1659.26 72.576 L1650.71 72.576 L1650.71 62.2867 Z" fill="#000000" fill-rule="evenodd" fill-opacity="1" /><path clip-path="url(#clip480)" d="M1677.17 12.096 L1709.29 12.096 L1709.29 18.9825 L1684.66 18.9825 L1684.66 33.8088 Q1686.44 33.2012 1688.23 32.9176 Q1690.01 32.5936 1691.79 32.5936 Q1701.92 32.5936 1707.83 38.1433 Q1713.75 43.6931 1713.75 53.1722 Q1713.75 62.9348 1707.67 68.3631 Q1701.59 73.7508 1690.53 73.7508 Q1686.73 73.7508 1682.76 73.1026 Q1678.83 72.4545 1674.61 71.1582 L1674.61 62.9348 Q1678.26 64.9198 1682.15 65.892 Q1686.04 66.8642 1690.37 66.8642 Q1697.38 66.8642 1701.47 63.1779 Q1705.56 59.4916 1705.56 53.1722 Q1705.56 46.8528 1701.47 43.1664 Q1697.38 39.4801 1690.37 39.4801 Q1687.09 39.4801 1683.81 40.2093 Q1680.57 40.9384 1677.17 42.4778 L1677.17 12.096 Z" fill="#000000" fill-rule="evenodd" fill-opacity="1" /><polyline clip-path="url(#clip482)" style="stroke:#009af9; stroke-linecap:butt; stroke-linejoin:round; stroke-width:4; stroke-opacity:1; fill:none" points="
  156.598,1447.76 161.96,1447.74 167.322,1447.72 172.684,1447.69 178.046,1447.66 227.623,1447.07 277.201,1445.24 326.779,1440.26 376.357,1428.55 406.151,1416.11 
  435.945,1398.05 465.739,1373.33 495.533,1341.47 545.914,1273.41 596.296,1197.87 623.66,1160.61 651.024,1130.65 664.706,1119.46 678.388,1111.22 692.07,1106.2 
  705.752,1104.52 718.365,1106 730.979,1110.32 743.593,1117.4 756.206,1127.05 781.433,1153.08 806.661,1185.99 860.753,1266.56 914.846,1340.4 946.181,1373.94 
  977.517,1399.59 1008.85,1417.95 1040.19,1430.26 1095.88,1441.84 1151.58,1446.12 1200.42,1447.34 1249.26,1447.53 1302.51,1446.02 1355.75,1436.19 1369.15,1430.22 
  1382.54,1421.75 1395.93,1410.06 1409.32,1394.27 1422.71,1373.52 1436.1,1346.91 1449.49,1313.68 1462.88,1273.29 1477.69,1220.09 1492.49,1158.37 1507.3,1089.43 
  1522.11,1015.54 1536.91,939.897 1551.72,866.436 1559.12,831.889 1566.52,799.547 1573.93,769.959 1581.33,743.644 1588.37,722.082 1595.42,704.278 1602.46,690.538 
  1609.5,681.101 1616.55,676.132 1623.59,675.719 1630.63,679.871 1637.68,688.512 1644.72,701.492 1651.76,718.583 1658.81,739.493 1665.85,763.868 1679.94,821.366 
  1694.03,887.471 1708.67,961.205 1723.32,1035.93 1737.97,1108 1752.62,1174.56 1759.94,1205.12 1767.26,1233.64 1774.59,1260.02 1781.91,1284.2 1796.56,1325.99 
  1811.21,1359.4 1823.54,1381.65 1835.87,1399.19 1848.2,1412.73 1860.53,1422.96 1885.19,1436.02 1909.85,1442.63 2030.27,1447.84 2143.48,1447.87 2324.84,1447.87 
  2352.76,1447.87 
  "/>
<polyline clip-path="url(#clip482)" style="stroke:#e26f46; stroke-linecap:butt; stroke-linejoin:round; stroke-width:4; stroke-opacity:1; fill:none" points="
  156.598,1447.87 178.046,1447.87 376.357,1447.87 495.533,1447.87 596.296,1447.87 705.752,1447.87 806.661,1447.87 914.846,1447.87 1040.19,1447.87 1151.58,1447.87 
  1249.26,1447.53 1275.88,1446.8 1302.51,1444.79 1329.13,1439.77 1355.75,1428.27 1369.15,1418.27 1382.54,1404.11 1395.93,1384.55 1409.32,1358.18 1422.71,1323.51 
  1436.1,1279.1 1449.49,1223.67 1462.88,1156.33 1477.69,1067.68 1492.49,964.864 1507.3,850.077 1522.11,727.095 1536.91,601.231 1551.72,479.042 1559.12,421.593 
  1566.52,367.818 1573.93,318.626 1581.33,274.884 1588.37,239.046 1595.42,209.46 1602.46,186.633 1609.5,170.96 1616.55,162.716 1623.59,162.047 1630.63,168.965 
  1637.68,183.347 1644.72,204.941 1651.76,233.371 1658.81,268.15 1665.85,308.691 1679.94,404.324 1694.03,514.28 1708.67,636.944 1723.32,761.28 1737.97,881.233 
  1752.62,992.039 1767.26,1090.44 1781.91,1174.67 1796.56,1244.33 1811.21,1300.06 1823.54,1337.17 1835.87,1366.46 1848.2,1389.07 1860.53,1406.16 1885.19,1428 
  1909.85,1439.07 1970.06,1446.98 2030.27,1447.81 2086.88,1447.87 2143.48,1447.87 2234.16,1447.87 2324.84,1447.87 2338.8,1447.87 2352.76,1447.87 
  "/>
<path clip-path="url(#clip480)" d="
M2012.34 350.345 L2279.55 350.345 L2279.55 168.905 L2012.34 168.905  Z
  " fill="#ffffff" fill-rule="evenodd" fill-opacity="1"/>
<polyline clip-path="url(#clip480)" style="stroke:#000000; stroke-linecap:butt; stroke-linejoin:round; stroke-width:4; stroke-opacity:1; fill:none" points="
  2012.34,350.345 2279.55,350.345 2279.55,168.905 2012.34,168.905 2012.34,350.345 
  "/>
<polyline clip-path="url(#clip480)" style="stroke:#009af9; stroke-linecap:butt; stroke-linejoin:round; stroke-width:4; stroke-opacity:1; fill:none" points="
  2036.74,229.385 2183.15,229.385 
  "/>
<path clip-path="url(#clip480)" d="M2211.84 242.776 L2211.84 256.526 L2207.55 256.526 L2207.55 220.739 L2211.84 220.739 L2211.84 224.674 Q2213.18 222.359 2215.21 221.248 Q2217.27 220.114 2220.12 220.114 Q2224.84 220.114 2227.78 223.864 Q2230.75 227.614 2230.75 233.725 Q2230.75 239.836 2227.78 243.586 Q2224.84 247.336 2220.12 247.336 Q2217.27 247.336 2215.21 246.225 Q2213.18 245.091 2211.84 242.776 M2226.33 233.725 Q2226.33 229.026 2224.38 226.364 Q2222.46 223.679 2219.08 223.679 Q2215.7 223.679 2213.76 226.364 Q2211.84 229.026 2211.84 233.725 Q2211.84 238.424 2213.76 241.109 Q2215.7 243.771 2219.08 243.771 Q2222.46 243.771 2224.38 241.109 Q2226.33 238.424 2226.33 233.725 Z" fill="#000000" fill-rule="evenodd" fill-opacity="1" /><polyline clip-path="url(#clip480)" style="stroke:#e26f46; stroke-linecap:butt; stroke-linejoin:round; stroke-width:4; stroke-opacity:1; fill:none" points="
  2036.74,289.865 2183.15,289.865 
  "/>
<path clip-path="url(#clip480)" d="M2211.95 294.205 Q2211.95 298.904 2213.87 301.589 Q2215.82 304.251 2219.2 304.251 Q2222.58 304.251 2224.52 301.589 Q2226.46 298.904 2226.46 294.205 Q2226.46 289.506 2224.52 286.844 Q2222.58 284.159 2219.2 284.159 Q2215.82 284.159 2213.87 286.844 Q2211.95 289.506 2211.95 294.205 M2226.46 303.256 Q2225.12 305.571 2223.06 306.705 Q2221.02 307.816 2218.15 307.816 Q2213.46 307.816 2210.49 304.066 Q2207.55 300.316 2207.55 294.205 Q2207.55 288.094 2210.49 284.344 Q2213.46 280.594 2218.15 280.594 Q2221.02 280.594 2223.06 281.728 Q2225.12 282.839 2226.46 285.154 L2226.46 281.219 L2230.72 281.219 L2230.72 317.006 L2226.46 317.006 L2226.46 303.256 Z" fill="#000000" fill-rule="evenodd" fill-opacity="1" /></svg>
