<?xml version="1.0" encoding="utf-8"?>
<svg xmlns="http://www.w3.org/2000/svg" xmlns:xlink="http://www.w3.org/1999/xlink" width="600" height="400" viewBox="0 0 2400 1600">
<defs>
  <clipPath id="clip430">
    <rect x="0" y="0" width="2400" height="1600"/>
  </clipPath>
</defs>
<path clip-path="url(#clip430)" d="
M0 1600 L2400 1600 L2400 0 L0 0  Z
  " fill="#ffffff" fill-rule="evenodd" fill-opacity="1"/>
<defs>
  <clipPath id="clip431">
    <rect x="480" y="0" width="1681" height="1600"/>
  </clipPath>
</defs>
<path clip-path="url(#clip430)" d="
M156.598 1486.45 L2352.76 1486.45 L2352.76 123.472 L156.598 123.472  Z
  " fill="#ffffff" fill-rule="evenodd" fill-opacity="1"/>
<defs>
  <clipPath id="clip432">
    <rect x="156" y="123" width="2197" height="1364"/>
  </clipPath>
</defs>
<polyline clip-path="url(#clip432)" style="stroke:#000000; stroke-linecap:butt; stroke-linejoin:round; stroke-width:2; stroke-opacity:0.1; fill:none" points="
  156.598,1486.45 156.598,123.472 
  "/>
<polyline clip-path="url(#clip432)" style="stroke:#000000; stroke-linecap:butt; stroke-linejoin:round; stroke-width:2; stroke-opacity:0.1; fill:none" points="
  522.625,1486.45 522.625,123.472 
  "/>
<polyline clip-path="url(#clip432)" style="stroke:#000000; stroke-linecap:butt; stroke-linejoin:round; stroke-width:2; stroke-opacity:0.1; fill:none" points="
  888.651,1486.45 888.651,123.472 
  "/>
<polyline clip-path="url(#clip432)" style="stroke:#000000; stroke-linecap:butt; stroke-linejoin:round; stroke-width:2; stroke-opacity:0.1; fill:none" points="
  1254.68,1486.45 1254.68,123.472 
  "/>
<polyline clip-path="url(#clip432)" style="stroke:#000000; stroke-linecap:butt; stroke-linejoin:round; stroke-width:2; stroke-opacity:0.1; fill:none" points="
  1620.7,1486.45 1620.7,123.472 
  "/>
<polyline clip-path="url(#clip432)" style="stroke:#000000; stroke-linecap:butt; stroke-linejoin:round; stroke-width:2; stroke-opacity:0.1; fill:none" points="
  1986.73,1486.45 1986.73,123.472 
  "/>
<polyline clip-path="url(#clip432)" style="stroke:#000000; stroke-linecap:butt; stroke-linejoin:round; stroke-width:2; stroke-opacity:0.1; fill:none" points="
  2352.76,1486.45 2352.76,123.472 
  "/>
<polyline clip-path="url(#clip430)" style="stroke:#000000; stroke-linecap:butt; stroke-linejoin:round; stroke-width:4; stroke-opacity:1; fill:none" points="
  156.598,1486.45 2352.76,1486.45 
  "/>
<polyline clip-path="url(#clip430)" style="stroke:#000000; stroke-linecap:butt; stroke-linejoin:round; stroke-width:4; stroke-opacity:1; fill:none" points="
  156.598,1486.45 156.598,1470.09 
  "/>
<polyline clip-path="url(#clip430)" style="stroke:#000000; stroke-linecap:butt; stroke-linejoin:round; stroke-width:4; stroke-opacity:1; fill:none" points="
  522.625,1486.45 522.625,1470.09 
  "/>
<polyline clip-path="url(#clip430)" style="stroke:#000000; stroke-linecap:butt; stroke-linejoin:round; stroke-width:4; stroke-opacity:1; fill:none" points="
  888.651,1486.45 888.651,1470.09 
  "/>
<polyline clip-path="url(#clip430)" style="stroke:#000000; stroke-linecap:butt; stroke-linejoin:round; stroke-width:4; stroke-opacity:1; fill:none" points="
  1254.68,1486.45 1254.68,1470.09 
  "/>
<polyline clip-path="url(#clip430)" style="stroke:#000000; stroke-linecap:butt; stroke-linejoin:round; stroke-width:4; stroke-opacity:1; fill:none" points="
  1620.7,1486.45 1620.7,1470.09 
  "/>
<polyline clip-path="url(#clip430)" style="stroke:#000000; stroke-linecap:butt; stroke-linejoin:round; stroke-width:4; stroke-opacity:1; fill:none" points="
  1986.73,1486.45 1986.73,1470.09 
  "/>
<polyline clip-path="url(#clip430)" style="stroke:#000000; stroke-linecap:butt; stroke-linejoin:round; stroke-width:4; stroke-opacity:1; fill:none" points="
  2352.76,1486.45 2352.76,1470.09 
  "/>
<path clip-path="url(#clip430)" d="M125.499 1530.29 L155.175 1530.29 L155.175 1534.23 L125.499 1534.23 L125.499 1530.29 Z" fill="#000000" fill-rule="evenodd" fill-opacity="1" /><path clip-path="url(#clip430)" d="M178.114 1516.63 L166.309 1535.08 L178.114 1535.08 L178.114 1516.63 M176.887 1512.56 L182.767 1512.56 L182.767 1535.08 L187.698 1535.08 L187.698 1538.97 L182.767 1538.97 L182.767 1547.12 L178.114 1547.12 L178.114 1538.97 L162.513 1538.97 L162.513 1534.46 L176.887 1512.56 Z" fill="#000000" fill-rule="evenodd" fill-opacity="1" /><path clip-path="url(#clip430)" d="M492.567 1530.29 L522.243 1530.29 L522.243 1534.23 L492.567 1534.23 L492.567 1530.29 Z" fill="#000000" fill-rule="evenodd" fill-opacity="1" /><path clip-path="url(#clip430)" d="M536.363 1543.18 L552.682 1543.18 L552.682 1547.12 L530.738 1547.12 L530.738 1543.18 Q533.4 1540.43 537.983 1535.8 Q542.59 1531.15 543.77 1529.81 Q546.016 1527.28 546.895 1525.55 Q547.798 1523.79 547.798 1522.1 Q547.798 1519.34 545.854 1517.61 Q543.932 1515.87 540.83 1515.87 Q538.631 1515.87 536.178 1516.63 Q533.747 1517.4 530.969 1518.95 L530.969 1514.23 Q533.793 1513.09 536.247 1512.51 Q538.701 1511.93 540.738 1511.93 Q546.108 1511.93 549.303 1514.62 Q552.497 1517.31 552.497 1521.8 Q552.497 1523.93 551.687 1525.85 Q550.9 1527.74 548.793 1530.34 Q548.215 1531.01 545.113 1534.23 Q542.011 1537.42 536.363 1543.18 Z" fill="#000000" fill-rule="evenodd" fill-opacity="1" /><path clip-path="url(#clip430)" d="M888.651 1515.64 Q885.04 1515.64 883.211 1519.2 Q881.405 1522.75 881.405 1529.87 Q881.405 1536.98 883.211 1540.55 Q885.04 1544.09 888.651 1544.09 Q892.285 1544.09 894.091 1540.55 Q895.919 1536.98 895.919 1529.87 Q895.919 1522.75 894.091 1519.2 Q892.285 1515.64 888.651 1515.64 M888.651 1511.93 Q894.461 1511.93 897.516 1516.54 Q900.595 1521.12 900.595 1529.87 Q900.595 1538.6 897.516 1543.21 Q894.461 1547.79 888.651 1547.79 Q882.841 1547.79 879.762 1543.21 Q876.706 1538.6 876.706 1529.87 Q876.706 1521.12 879.762 1516.54 Q882.841 1511.93 888.651 1511.93 Z" fill="#000000" fill-rule="evenodd" fill-opacity="1" /><path clip-path="url(#clip430)" d="M1249.33 1543.18 L1265.65 1543.18 L1265.65 1547.12 L1243.7 1547.12 L1243.7 1543.18 Q1246.37 1540.43 1250.95 1535.8 Q1255.56 1531.15 1256.74 1529.81 Q1258.98 1527.28 1259.86 1525.55 Q1260.77 1523.79 1260.77 1522.1 Q1260.77 1519.34 1258.82 1517.61 Q1256.9 1515.87 1253.8 1515.87 Q1251.6 1515.87 1249.14 1516.63 Q1246.71 1517.4 1243.94 1518.95 L1243.94 1514.23 Q1246.76 1513.09 1249.21 1512.51 Q1251.67 1511.93 1253.7 1511.93 Q1259.08 1511.93 1262.27 1514.62 Q1265.46 1517.31 1265.46 1521.8 Q1265.46 1523.93 1264.65 1525.85 Q1263.87 1527.74 1261.76 1530.34 Q1261.18 1531.01 1258.08 1534.23 Q1254.98 1537.42 1249.33 1543.18 Z" fill="#000000" fill-rule="evenodd" fill-opacity="1" /><path clip-path="url(#clip430)" d="M1623.71 1516.63 L1611.91 1535.08 L1623.71 1535.08 L1623.71 1516.63 M1622.49 1512.56 L1628.37 1512.56 L1628.37 1535.08 L1633.3 1535.08 L1633.3 1538.97 L1628.37 1538.97 L1628.37 1547.12 L1623.71 1547.12 L1623.71 1538.97 L1608.11 1538.97 L1608.11 1534.46 L1622.49 1512.56 Z" fill="#000000" fill-rule="evenodd" fill-opacity="1" /><path clip-path="url(#clip430)" d="M1987.13 1527.98 Q1983.99 1527.98 1982.13 1530.13 Q1980.31 1532.28 1980.31 1536.03 Q1980.31 1539.76 1982.13 1541.93 Q1983.99 1544.09 1987.13 1544.09 Q1990.28 1544.09 1992.11 1541.93 Q1993.96 1539.76 1993.96 1536.03 Q1993.96 1532.28 1992.11 1530.13 Q1990.28 1527.98 1987.13 1527.98 M1996.42 1513.32 L1996.42 1517.58 Q1994.66 1516.75 1992.85 1516.31 Q1991.07 1515.87 1989.31 1515.87 Q1984.68 1515.87 1982.23 1519 Q1979.8 1522.12 1979.45 1528.44 Q1980.82 1526.43 1982.88 1525.36 Q1984.94 1524.27 1987.41 1524.27 Q1992.62 1524.27 1995.63 1527.44 Q1998.66 1530.59 1998.66 1536.03 Q1998.66 1541.36 1995.51 1544.57 Q1992.37 1547.79 1987.13 1547.79 Q1981.14 1547.79 1977.97 1543.21 Q1974.8 1538.6 1974.8 1529.87 Q1974.8 1521.68 1978.69 1516.82 Q1982.57 1511.93 1989.13 1511.93 Q1990.88 1511.93 1992.67 1512.28 Q1994.47 1512.63 1996.42 1513.32 Z" fill="#000000" fill-rule="evenodd" fill-opacity="1" /><path clip-path="url(#clip430)" d="M2352.76 1530.71 Q2349.42 1530.71 2347.5 1532.49 Q2345.6 1534.27 2345.6 1537.4 Q2345.6 1540.52 2347.5 1542.31 Q2349.42 1544.09 2352.76 1544.09 Q2356.09 1544.09 2358.01 1542.31 Q2359.93 1540.5 2359.93 1537.4 Q2359.93 1534.27 2358.01 1532.49 Q2356.11 1530.71 2352.76 1530.71 M2348.08 1528.72 Q2345.07 1527.98 2343.38 1525.92 Q2341.71 1523.86 2341.71 1520.89 Q2341.71 1516.75 2344.65 1514.34 Q2347.62 1511.93 2352.76 1511.93 Q2357.92 1511.93 2360.86 1514.34 Q2363.8 1516.75 2363.8 1520.89 Q2363.8 1523.86 2362.11 1525.92 Q2360.44 1527.98 2357.45 1528.72 Q2360.83 1529.5 2362.71 1531.8 Q2364.61 1534.09 2364.61 1537.4 Q2364.61 1542.42 2361.53 1545.11 Q2358.47 1547.79 2352.76 1547.79 Q2347.04 1547.79 2343.96 1545.11 Q2340.9 1542.42 2340.9 1537.4 Q2340.9 1534.09 2342.8 1531.8 Q2344.7 1529.5 2348.08 1528.72 M2346.37 1521.33 Q2346.37 1524.02 2348.03 1525.52 Q2349.72 1527.03 2352.76 1527.03 Q2355.77 1527.03 2357.45 1525.52 Q2359.17 1524.02 2359.17 1521.33 Q2359.17 1518.65 2357.45 1517.14 Q2355.77 1515.64 2352.76 1515.64 Q2349.72 1515.64 2348.03 1517.14 Q2346.37 1518.65 2346.37 1521.33 Z" fill="#000000" fill-rule="evenodd" fill-opacity="1" /><polyline clip-path="url(#clip432)" style="stroke:#000000; stroke-linecap:butt; stroke-linejoin:round; stroke-width:2; stroke-opacity:0.1; fill:none" points="
  156.598,1447.87 2352.76,1447.87 
  "/>
<polyline clip-path="url(#clip432)" style="stroke:#000000; stroke-linecap:butt; stroke-linejoin:round; stroke-width:2; stroke-opacity:0.1; fill:none" points="
  156.598,1179.15 2352.76,1179.15 
  "/>
<polyline clip-path="url(#clip432)" style="stroke:#000000; stroke-linecap:butt; stroke-linejoin:round; stroke-width:2; stroke-opacity:0.1; fill:none" points="
  156.598,910.424 2352.76,910.424 
  "/>
<polyline clip-path="url(#clip432)" style="stroke:#000000; stroke-linecap:butt; stroke-linejoin:round; stroke-width:2; stroke-opacity:0.1; fill:none" points="
  156.598,641.7 2352.76,641.7 
  "/>
<polyline clip-path="url(#clip432)" style="stroke:#000000; stroke-linecap:butt; stroke-linejoin:round; stroke-width:2; stroke-opacity:0.1; fill:none" points="
  156.598,372.976 2352.76,372.976 
  "/>
<polyline clip-path="url(#clip430)" style="stroke:#000000; stroke-linecap:butt; stroke-linejoin:round; stroke-width:4; stroke-opacity:1; fill:none" points="
  156.598,1486.45 156.598,123.472 
  "/>
<polyline clip-path="url(#clip430)" style="stroke:#000000; stroke-linecap:butt; stroke-linejoin:round; stroke-width:4; stroke-opacity:1; fill:none" points="
  156.598,1447.87 182.952,1447.87 
  "/>
<polyline clip-path="url(#clip430)" style="stroke:#000000; stroke-linecap:butt; stroke-linejoin:round; stroke-width:4; stroke-opacity:1; fill:none" points="
  156.598,1179.15 182.952,1179.15 
  "/>
<polyline clip-path="url(#clip430)" style="stroke:#000000; stroke-linecap:butt; stroke-linejoin:round; stroke-width:4; stroke-opacity:1; fill:none" points="
  156.598,910.424 182.952,910.424 
  "/>
<polyline clip-path="url(#clip430)" style="stroke:#000000; stroke-linecap:butt; stroke-linejoin:round; stroke-width:4; stroke-opacity:1; fill:none" points="
  156.598,641.7 182.952,641.7 
  "/>
<polyline clip-path="url(#clip430)" style="stroke:#000000; stroke-linecap:butt; stroke-linejoin:round; stroke-width:4; stroke-opacity:1; fill:none" points="
  156.598,372.976 182.952,372.976 
  "/>
<path clip-path="url(#clip430)" d="M63.4226 1433.67 Q59.8115 1433.67 57.9828 1437.24 Q56.1773 1440.78 56.1773 1447.91 Q56.1773 1455.01 57.9828 1458.58 Q59.8115 1462.12 63.4226 1462.12 Q67.0569 1462.12 68.8624 1458.58 Q70.6911 1455.01 70.6911 1447.91 Q70.6911 1440.78 68.8624 1437.24 Q67.0569 1433.67 63.4226 1433.67 M63.4226 1429.97 Q69.2328 1429.97 72.2883 1434.57 Q75.367 1439.16 75.367 1447.91 Q75.367 1456.63 72.2883 1461.24 Q69.2328 1465.82 63.4226 1465.82 Q57.6125 1465.82 54.5338 1461.24 Q51.4782 1456.63 51.4782 1447.91 Q51.4782 1439.16 54.5338 1434.57 Q57.6125 1429.97 63.4226 1429.97 Z" fill="#000000" fill-rule="evenodd" fill-opacity="1" /><path clip-path="url(#clip430)" d="M83.5845 1459.27 L88.4688 1459.27 L88.4688 1465.15 L83.5845 1465.15 L83.5845 1459.27 Z" fill="#000000" fill-rule="evenodd" fill-opacity="1" /><path clip-path="url(#clip430)" d="M108.654 1433.67 Q105.043 1433.67 103.214 1437.24 Q101.409 1440.78 101.409 1447.91 Q101.409 1455.01 103.214 1458.58 Q105.043 1462.12 108.654 1462.12 Q112.288 1462.12 114.094 1458.58 Q115.922 1455.01 115.922 1447.91 Q115.922 1440.78 114.094 1437.24 Q112.288 1433.67 108.654 1433.67 M108.654 1429.97 Q114.464 1429.97 117.52 1434.57 Q120.598 1439.16 120.598 1447.91 Q120.598 1456.63 117.52 1461.24 Q114.464 1465.82 108.654 1465.82 Q102.844 1465.82 99.765 1461.24 Q96.7095 1456.63 96.7095 1447.91 Q96.7095 1439.16 99.765 1434.57 Q102.844 1429.97 108.654 1429.97 Z" fill="#000000" fill-rule="evenodd" fill-opacity="1" /><path clip-path="url(#clip430)" d="M64.6495 1164.95 Q61.0384 1164.95 59.2097 1168.51 Q57.4041 1172.05 57.4041 1179.18 Q57.4041 1186.29 59.2097 1189.85 Q61.0384 1193.4 64.6495 1193.4 Q68.2837 1193.4 70.0892 1189.85 Q71.9179 1186.29 71.9179 1179.18 Q71.9179 1172.05 70.0892 1168.51 Q68.2837 1164.95 64.6495 1164.95 M64.6495 1161.24 Q70.4596 1161.24 73.5152 1165.85 Q76.5938 1170.43 76.5938 1179.18 Q76.5938 1187.91 73.5152 1192.52 Q70.4596 1197.1 64.6495 1197.1 Q58.8393 1197.1 55.7606 1192.52 Q52.7051 1187.91 52.7051 1179.18 Q52.7051 1170.43 55.7606 1165.85 Q58.8393 1161.24 64.6495 1161.24 Z" fill="#000000" fill-rule="evenodd" fill-opacity="1" /><path clip-path="url(#clip430)" d="M84.8114 1190.55 L89.6956 1190.55 L89.6956 1196.43 L84.8114 1196.43 L84.8114 1190.55 Z" fill="#000000" fill-rule="evenodd" fill-opacity="1" /><path clip-path="url(#clip430)" d="M100.691 1192.49 L108.33 1192.49 L108.33 1166.13 L100.02 1167.79 L100.02 1163.54 L108.283 1161.87 L112.959 1161.87 L112.959 1192.49 L120.598 1192.49 L120.598 1196.43 L100.691 1196.43 L100.691 1192.49 Z" fill="#000000" fill-rule="evenodd" fill-opacity="1" /><path clip-path="url(#clip430)" d="M65.0198 896.223 Q61.4087 896.223 59.58 899.788 Q57.7745 903.329 57.7745 910.459 Q57.7745 917.566 59.58 921.13 Q61.4087 924.672 65.0198 924.672 Q68.6541 924.672 70.4596 921.13 Q72.2883 917.566 72.2883 910.459 Q72.2883 903.329 70.4596 899.788 Q68.6541 896.223 65.0198 896.223 M65.0198 892.519 Q70.83 892.519 73.8855 897.126 Q76.9642 901.709 76.9642 910.459 Q76.9642 919.186 73.8855 923.792 Q70.83 928.376 65.0198 928.376 Q59.2097 928.376 56.131 923.792 Q53.0754 919.186 53.0754 910.459 Q53.0754 901.709 56.131 897.126 Q59.2097 892.519 65.0198 892.519 Z" fill="#000000" fill-rule="evenodd" fill-opacity="1" /><path clip-path="url(#clip430)" d="M85.1818 921.825 L90.066 921.825 L90.066 927.704 L85.1818 927.704 L85.1818 921.825 Z" fill="#000000" fill-rule="evenodd" fill-opacity="1" /><path clip-path="url(#clip430)" d="M104.279 923.769 L120.598 923.769 L120.598 927.704 L98.6539 927.704 L98.6539 923.769 Q101.316 921.015 105.899 916.385 Q110.506 911.732 111.686 910.39 Q113.932 907.867 114.811 906.13 Q115.714 904.371 115.714 902.681 Q115.714 899.927 113.77 898.191 Q111.848 896.455 108.746 896.455 Q106.547 896.455 104.094 897.218 Q101.663 897.982 98.8854 899.533 L98.8854 894.811 Q101.709 893.677 104.163 893.098 Q106.617 892.519 108.654 892.519 Q114.024 892.519 117.219 895.205 Q120.413 897.89 120.413 902.38 Q120.413 904.51 119.603 906.431 Q118.816 908.329 116.709 910.922 Q116.131 911.593 113.029 914.811 Q109.927 918.005 104.279 923.769 Z" fill="#000000" fill-rule="evenodd" fill-opacity="1" /><path clip-path="url(#clip430)" d="M64.0708 627.499 Q60.4597 627.499 58.631 631.063 Q56.8254 634.605 56.8254 641.735 Q56.8254 648.841 58.631 652.406 Q60.4597 655.948 64.0708 655.948 Q67.705 655.948 69.5105 652.406 Q71.3392 648.841 71.3392 641.735 Q71.3392 634.605 69.5105 631.063 Q67.705 627.499 64.0708 627.499 M64.0708 623.795 Q69.8809 623.795 72.9365 628.401 Q76.0151 632.985 76.0151 641.735 Q76.0151 650.462 72.9365 655.068 Q69.8809 659.651 64.0708 659.651 Q58.2606 659.651 55.1819 655.068 Q52.1264 650.462 52.1264 641.735 Q52.1264 632.985 55.1819 628.401 Q58.2606 623.795 64.0708 623.795 Z" fill="#000000" fill-rule="evenodd" fill-opacity="1" /><path clip-path="url(#clip430)" d="M84.2327 653.1 L89.1169 653.1 L89.1169 658.98 L84.2327 658.98 L84.2327 653.1 Z" fill="#000000" fill-rule="evenodd" fill-opacity="1" /><path clip-path="url(#clip430)" d="M113.469 640.346 Q116.825 641.063 118.7 643.332 Q120.598 645.6 120.598 648.934 Q120.598 654.049 117.08 656.85 Q113.561 659.651 107.08 659.651 Q104.904 659.651 102.589 659.211 Q100.297 658.795 97.8437 657.938 L97.8437 653.424 Q99.7882 654.559 102.103 655.137 Q104.418 655.716 106.941 655.716 Q111.339 655.716 113.631 653.98 Q115.945 652.244 115.945 648.934 Q115.945 645.878 113.793 644.165 Q111.663 642.429 107.844 642.429 L103.816 642.429 L103.816 638.587 L108.029 638.587 Q111.478 638.587 113.307 637.221 Q115.135 635.832 115.135 633.239 Q115.135 630.577 113.237 629.165 Q111.362 627.73 107.844 627.73 Q105.922 627.73 103.723 628.147 Q101.524 628.563 98.8854 629.443 L98.8854 625.276 Q101.547 624.536 103.862 624.165 Q106.2 623.795 108.26 623.795 Q113.584 623.795 116.686 626.226 Q119.788 628.633 119.788 632.753 Q119.788 635.624 118.145 637.614 Q116.501 639.582 113.469 640.346 Z" fill="#000000" fill-rule="evenodd" fill-opacity="1" /><path clip-path="url(#clip430)" d="M62.9365 358.774 Q59.3254 358.774 57.4967 362.339 Q55.6912 365.881 55.6912 373.01 Q55.6912 380.117 57.4967 383.682 Q59.3254 387.223 62.9365 387.223 Q66.5707 387.223 68.3763 383.682 Q70.205 380.117 70.205 373.01 Q70.205 365.881 68.3763 362.339 Q66.5707 358.774 62.9365 358.774 M62.9365 355.071 Q68.7467 355.071 71.8022 359.677 Q74.8809 364.26 74.8809 373.01 Q74.8809 381.737 71.8022 386.344 Q68.7467 390.927 62.9365 390.927 Q57.1264 390.927 54.0477 386.344 Q50.9921 381.737 50.9921 373.01 Q50.9921 364.26 54.0477 359.677 Q57.1264 355.071 62.9365 355.071 Z" fill="#000000" fill-rule="evenodd" fill-opacity="1" /><path clip-path="url(#clip430)" d="M83.0984 384.376 L87.9827 384.376 L87.9827 390.256 L83.0984 390.256 L83.0984 384.376 Z" fill="#000000" fill-rule="evenodd" fill-opacity="1" /><path clip-path="url(#clip430)" d="M111.015 359.77 L99.2095 378.219 L111.015 378.219 L111.015 359.77 M109.788 355.696 L115.668 355.696 L115.668 378.219 L120.598 378.219 L120.598 382.108 L115.668 382.108 L115.668 390.256 L111.015 390.256 L111.015 382.108 L95.4132 382.108 L95.4132 377.594 L109.788 355.696 Z" fill="#000000" fill-rule="evenodd" fill-opacity="1" /><path clip-path="url(#clip430)" d="M777.926 18.8205 L777.926 65.8515 L787.81 65.8515 Q800.328 65.8515 806.12 60.1802 Q811.954 54.509 811.954 42.2752 Q811.954 30.1225 806.12 24.4918 Q800.328 18.8205 787.81 18.8205 L777.926 18.8205 M769.743 12.096 L786.555 12.096 Q804.136 12.096 812.359 19.4281 Q820.582 26.7198 820.582 42.2752 Q820.582 57.9117 812.318 65.2439 Q804.054 72.576 786.555 72.576 L769.743 72.576 L769.743 12.096 Z" fill="#000000" fill-rule="evenodd" fill-opacity="1" /><path clip-path="url(#clip430)" d="M833.626 12.096 L841.809 12.096 L841.809 37.6572 L868.95 12.096 L879.482 12.096 L849.465 40.2903 L881.629 72.576 L870.854 72.576 L841.809 43.45 L841.809 72.576 L833.626 72.576 L833.626 12.096 Z" fill="#000000" fill-rule="evenodd" fill-opacity="1" /><path clip-path="url(#clip430)" d="M888.678 34.9026 L940.61 34.9026 L940.61 41.7081 L888.678 41.7081 L888.678 34.9026 M888.678 51.4303 L940.61 51.4303 L940.61 58.3168 L888.678 58.3168 L888.678 51.4303 Z" fill="#000000" fill-rule="evenodd" fill-opacity="1" /><path clip-path="url(#clip430)" d="M975.772 17.4837 Q969.453 17.4837 966.253 23.7221 Q963.093 29.92 963.093 42.3968 Q963.093 54.833 966.253 61.0714 Q969.453 67.2693 975.772 67.2693 Q982.132 67.2693 985.292 61.0714 Q988.492 54.833 988.492 42.3968 Q988.492 29.92 985.292 23.7221 Q982.132 17.4837 975.772 17.4837 M975.772 11.0023 Q985.94 11.0023 991.287 19.0636 Q996.675 27.0843 996.675 42.3968 Q996.675 57.6687 991.287 65.73 Q985.94 73.7508 975.772 73.7508 Q965.605 73.7508 960.217 65.73 Q954.87 57.6687 954.87 42.3968 Q954.87 27.0843 960.217 19.0636 Q965.605 11.0023 975.772 11.0023 Z" fill="#000000" fill-rule="evenodd" fill-opacity="1" /><path clip-path="url(#clip430)" d="M1011.06 62.2867 L1019.6 62.2867 L1019.6 72.576 L1011.06 72.576 L1011.06 62.2867 Z" fill="#000000" fill-rule="evenodd" fill-opacity="1" /><path clip-path="url(#clip430)" d="M1035.36 12.096 L1074.25 12.096 L1074.25 15.5798 L1052.29 72.576 L1043.75 72.576 L1064.41 18.9825 L1035.36 18.9825 L1035.36 12.096 Z" fill="#000000" fill-rule="evenodd" fill-opacity="1" /><path clip-path="url(#clip430)" d="M1107.71 43.8551 Q1101.88 43.8551 1098.51 46.9743 Q1095.19 50.0935 1095.19 55.5622 Q1095.19 61.0309 1098.51 64.1501 Q1101.88 67.2693 1107.71 67.2693 Q1113.54 67.2693 1116.91 64.1501 Q1120.27 60.9904 1120.27 55.5622 Q1120.27 50.0935 1116.91 46.9743 Q1113.58 43.8551 1107.71 43.8551 M1099.53 40.3713 Q1094.26 39.075 1091.3 35.4697 Q1088.39 31.8644 1088.39 26.6793 Q1088.39 19.4281 1093.53 15.2152 Q1098.72 11.0023 1107.71 11.0023 Q1116.74 11.0023 1121.89 15.2152 Q1127.03 19.4281 1127.03 26.6793 Q1127.03 31.8644 1124.08 35.4697 Q1121.16 39.075 1115.93 40.3713 Q1121.85 41.7486 1125.13 45.759 Q1128.45 49.7694 1128.45 55.5622 Q1128.45 64.3527 1123.06 69.0517 Q1117.72 73.7508 1107.71 73.7508 Q1097.7 73.7508 1092.32 69.0517 Q1086.97 64.3527 1086.97 55.5622 Q1086.97 49.7694 1090.29 45.759 Q1093.61 41.7486 1099.53 40.3713 M1096.53 27.4489 Q1096.53 32.148 1099.45 34.7811 Q1102.4 37.4142 1107.71 37.4142 Q1112.98 37.4142 1115.93 34.7811 Q1118.93 32.148 1118.93 27.4489 Q1118.93 22.7499 1115.93 20.1168 Q1112.98 17.4837 1107.71 17.4837 Q1102.4 17.4837 1099.45 20.1168 Q1096.53 22.7499 1096.53 27.4489 Z" fill="#000000" fill-rule="evenodd" fill-opacity="1" /><path clip-path="url(#clip430)" d="M1167.54 89.8329 L1167.54 27.2059 L1175 27.2059 L1175 55.4002 Q1175 61.274 1177.79 64.2716 Q1180.59 67.2693 1186.05 67.2693 Q1192.05 67.2693 1195.05 63.8666 Q1198.09 60.4638 1198.09 53.6583 L1198.09 27.2059 L1205.54 27.2059 L1205.54 62.1247 Q1205.54 64.5552 1206.23 65.73 Q1206.96 66.8642 1208.46 66.8642 Q1208.82 66.8642 1209.47 66.6617 Q1210.12 66.4186 1211.25 65.9325 L1211.25 71.9279 Q1209.59 72.8596 1208.09 73.3052 Q1206.63 73.7508 1205.22 73.7508 Q1202.42 73.7508 1200.76 72.1709 Q1199.1 70.5911 1198.49 67.3503 Q1196.47 70.5505 1193.51 72.1709 Q1190.59 73.7508 1186.62 73.7508 Q1182.49 73.7508 1179.57 72.1709 Q1176.7 70.5911 1175 67.4314 L1175 89.8329 L1167.54 89.8329 Z" fill="#000000" fill-rule="evenodd" fill-opacity="1" /><path clip-path="url(#clip430)" d="M1222.07 34.9026 L1274 34.9026 L1274 41.7081 L1222.07 41.7081 L1222.07 34.9026 M1222.07 51.4303 L1274 51.4303 L1274 58.3168 L1222.07 58.3168 L1222.07 51.4303 Z" fill="#000000" fill-rule="evenodd" fill-opacity="1" /><path clip-path="url(#clip430)" d="M1298.71 65.6895 L1327.27 65.6895 L1327.27 72.576 L1288.87 72.576 L1288.87 65.6895 Q1293.53 60.8689 1301.55 52.7671 Q1309.61 44.6248 1311.67 42.2752 Q1315.6 37.8598 1317.14 34.8216 Q1318.72 31.7429 1318.72 28.7857 Q1318.72 23.9651 1315.32 20.927 Q1311.96 17.8888 1306.53 17.8888 Q1302.68 17.8888 1298.39 19.2256 Q1294.13 20.5624 1289.27 23.2765 L1289.27 15.0127 Q1294.21 13.0277 1298.51 12.015 Q1302.8 11.0023 1306.37 11.0023 Q1315.76 11.0023 1321.35 15.7013 Q1326.95 20.4004 1326.95 28.2591 Q1326.95 31.9859 1325.53 35.3482 Q1324.15 38.6699 1320.46 43.2069 Q1319.45 44.3817 1314.02 50.0125 Q1308.59 55.6027 1298.71 65.6895 Z" fill="#000000" fill-rule="evenodd" fill-opacity="1" /><path clip-path="url(#clip430)" d="M1344.45 62.2867 L1352.99 62.2867 L1352.99 72.576 L1344.45 72.576 L1344.45 62.2867 Z" fill="#000000" fill-rule="evenodd" fill-opacity="1" /><path clip-path="url(#clip430)" d="M1388.32 17.4837 Q1382 17.4837 1378.8 23.7221 Q1375.64 29.92 1375.64 42.3968 Q1375.64 54.833 1378.8 61.0714 Q1382 67.2693 1388.32 67.2693 Q1394.68 67.2693 1397.84 61.0714 Q1401.04 54.833 1401.04 42.3968 Q1401.04 29.92 1397.84 23.7221 Q1394.68 17.4837 1388.32 17.4837 M1388.32 11.0023 Q1398.48 11.0023 1403.83 19.0636 Q1409.22 27.0843 1409.22 42.3968 Q1409.22 57.6687 1403.83 65.73 Q1398.48 73.7508 1388.32 73.7508 Q1378.15 73.7508 1372.76 65.73 Q1367.41 57.6687 1367.41 42.3968 Q1367.41 27.0843 1372.76 19.0636 Q1378.15 11.0023 1388.32 11.0023 Z" fill="#000000" fill-rule="evenodd" fill-opacity="1" /><path clip-path="url(#clip430)" d="M1466.5 33.1202 Q1460.34 33.1202 1457.02 37.5762 Q1453.54 42.2347 1453.54 49.9314 Q1453.54 58.0738 1456.98 62.7728 Q1460.46 67.4314 1466.5 67.4314 Q1472.45 67.4314 1475.94 62.7323 Q1479.42 58.0333 1479.42 49.9314 Q1479.42 42.5183 1475.94 37.5762 Q1472.74 33.1202 1466.5 33.1202 M1466.5 27.2059 L1491.25 27.2059 L1491.25 34.6595 L1482.91 34.6595 Q1487.32 40.9789 1487.32 49.9314 Q1487.32 61.0714 1481.77 67.3908 Q1476.22 73.7508 1466.5 73.7508 Q1456.74 73.7508 1451.23 67.3908 Q1445.68 61.0714 1445.68 49.9314 Q1445.68 38.7104 1451.23 32.4315 Q1455.8 27.2059 1466.5 27.2059 Z" fill="#000000" fill-rule="evenodd" fill-opacity="1" /><path clip-path="url(#clip430)" d="M1502.47 34.9026 L1554.4 34.9026 L1554.4 41.7081 L1502.47 41.7081 L1502.47 34.9026 M1502.47 51.4303 L1554.4 51.4303 L1554.4 58.3168 L1502.47 58.3168 L1502.47 51.4303 Z" fill="#000000" fill-rule="evenodd" fill-opacity="1" /><path clip-path="url(#clip430)" d="M1579.11 65.6895 L1607.67 65.6895 L1607.67 72.576 L1569.27 72.576 L1569.27 65.6895 Q1573.93 60.8689 1581.95 52.7671 Q1590.01 44.6248 1592.08 42.2752 Q1596.01 37.8598 1597.55 34.8216 Q1599.13 31.7429 1599.13 28.7857 Q1599.13 23.9651 1595.72 20.927 Q1592.36 17.8888 1586.93 17.8888 Q1583.08 17.8888 1578.79 19.2256 Q1574.54 20.5624 1569.68 23.2765 L1569.68 15.0127 Q1574.62 13.0277 1578.91 12.015 Q1583.21 11.0023 1586.77 11.0023 Q1596.17 11.0023 1601.76 15.7013 Q1607.35 20.4004 1607.35 28.2591 Q1607.35 31.9859 1605.93 35.3482 Q1604.55 38.6699 1600.87 43.2069 Q1599.85 44.3817 1594.43 50.0125 Q1589 55.6027 1579.11 65.6895 Z" fill="#000000" fill-rule="evenodd" fill-opacity="1" /><path clip-path="url(#clip430)" d="M1624.85 62.2867 L1633.4 62.2867 L1633.4 72.576 L1624.85 72.576 L1624.85 62.2867 Z" fill="#000000" fill-rule="evenodd" fill-opacity="1" /><path clip-path="url(#clip430)" d="M1651.3 12.096 L1683.42 12.096 L1683.42 18.9825 L1658.8 18.9825 L1658.8 33.8088 Q1660.58 33.2012 1662.36 32.9176 Q1664.14 32.5936 1665.92 32.5936 Q1676.05 32.5936 1681.97 38.1433 Q1687.88 43.6931 1687.88 53.1722 Q1687.88 62.9348 1681.8 68.3631 Q1675.73 73.7508 1664.67 73.7508 Q1660.86 73.7508 1656.89 73.1026 Q1652.96 72.4545 1648.75 71.1582 L1648.75 62.9348 Q1652.39 64.9198 1656.28 65.892 Q1660.17 66.8642 1664.51 66.8642 Q1671.52 66.8642 1675.61 63.1779 Q1679.7 59.4916 1679.7 53.1722 Q1679.7 46.8528 1675.61 43.1664 Q1671.52 39.4801 1664.51 39.4801 Q1661.23 39.4801 1657.94 40.2093 Q1654.7 40.9384 1651.3 42.4778 L1651.3 12.096 Z" fill="#000000" fill-rule="evenodd" fill-opacity="1" /><path clip-path="url(#clip430)" d="M1711.05 65.6895 L1739.61 65.6895 L1739.61 72.576 L1701.21 72.576 L1701.21 65.6895 Q1705.87 60.8689 1713.89 52.7671 Q1721.95 44.6248 1724.01 42.2752 Q1727.94 37.8598 1729.48 34.8216 Q1731.06 31.7429 1731.06 28.7857 Q1731.06 23.9651 1727.66 20.927 Q1724.3 17.8888 1718.87 17.8888 Q1715.02 17.8888 1710.73 19.2256 Q1706.47 20.5624 1701.61 23.2765 L1701.61 15.0127 Q1706.56 13.0277 1710.85 12.015 Q1715.14 11.0023 1718.71 11.0023 Q1728.11 11.0023 1733.7 15.7013 Q1739.29 20.4004 1739.29 28.2591 Q1739.29 31.9859 1737.87 35.3482 Q1736.49 38.6699 1732.81 43.2069 Q1731.79 44.3817 1726.36 50.0125 Q1720.94 55.6027 1711.05 65.6895 Z" fill="#000000" fill-rule="evenodd" fill-opacity="1" /><polyline clip-path="url(#clip432)" style="stroke:#009af9; stroke-linecap:butt; stroke-linejoin:round; stroke-width:4; stroke-opacity:1; fill:none" points="
  156.598,1447.68 161.96,1447.65 167.322,1447.61 172.684,1447.57 178.046,1447.52 227.623,1446.54 277.201,1443.49 326.779,1435.2 376.357,1415.7 406.151,1394.97 
  435.945,1364.91 465.739,1323.74 495.533,1270.69 545.914,1157.35 596.296,1031.56 623.66,969.509 651.024,919.625 664.706,900.976 678.388,887.268 692.07,878.897 
  705.752,876.111 718.365,878.563 730.979,885.772 743.593,897.557 756.206,913.626 781.433,956.964 806.661,1011.77 860.753,1145.95 914.846,1268.91 946.181,1324.75 
  977.517,1367.47 1008.85,1398.04 1040.19,1418.55 1095.88,1437.83 1151.58,1444.95 1200.42,1446.98 1249.26,1447.31 1302.51,1444.78 1355.75,1428.41 1369.15,1418.47 
  1382.54,1404.38 1395.93,1384.9 1409.32,1358.62 1422.71,1324.05 1436.1,1279.74 1449.49,1224.4 1462.88,1157.15 1477.69,1068.57 1492.49,965.783 1507.3,850.982 
  1522.11,727.938 1536.91,601.967 1551.72,479.636 1559.12,422.108 1566.52,368.251 1573.93,318.979 1581.33,275.158 1588.37,239.251 1595.42,209.604 1602.46,186.723 
  1609.5,171.008 1616.55,162.734 1623.59,162.047 1630.63,168.96 1637.68,183.35 1644.72,204.964 1651.76,233.426 1658.81,268.246 1665.85,308.836 1679.94,404.585 
  1694.03,514.666 1708.67,637.451 1723.32,761.884 1737.97,881.901 1752.62,992.733 1759.94,1043.63 1767.26,1091.12 1774.59,1135.04 1781.91,1175.31 1796.56,1244.9 
  1811.21,1300.55 1823.54,1337.59 1835.87,1366.81 1848.2,1389.35 1860.53,1406.39 1885.19,1428.13 1909.85,1439.14 2030.27,1447.82 2143.48,1447.87 2324.84,1447.87 
  2352.76,1447.87 
  "/>
<polyline clip-path="url(#clip432)" style="stroke:#e26f46; stroke-linecap:butt; stroke-linejoin:round; stroke-width:4; stroke-opacity:1; fill:none" points="
  156.598,1422.65 167.322,1421.23 178.046,1419.74 277.201,1402.55 376.357,1378.14 406.151,1369.21 435.945,1359.5 465.739,1349.01 495.533,1337.74 545.914,1316.91 
  596.296,1293.99 705.752,1238.18 806.661,1182.48 860.753,1152.62 914.846,1123.86 977.517,1093.15 1040.19,1066.61 1068.04,1056.51 1095.88,1047.6 1123.73,1039.96 
  1151.58,1033.69 1200.42,1026.17 1249.26,1023.29 1275.88,1023.71 1302.51,1025.53 1329.13,1028.74 1355.75,1033.31 1382.54,1039.22 1409.32,1046.4 1436.1,1054.77 
  1462.88,1064.27 1522.11,1088.76 1581.33,1117.16 1637.68,1146.73 1694.03,1177.7 1811.21,1242.31 1909.85,1292.5 1970.06,1319.8 2030.27,1344.09 2086.88,1364.01 
  2143.48,1381.12 2234.16,1402.98 2324.84,1418.82 2338.8,1420.8 2352.76,1422.66 
  "/>
<path clip-path="url(#clip430)" d="
M2012.34 350.345 L2279.55 350.345 L2279.55 168.905 L2012.34 168.905  Z
  " fill="#ffffff" fill-rule="evenodd" fill-opacity="1"/>
<polyline clip-path="url(#clip430)" style="stroke:#000000; stroke-linecap:butt; stroke-linejoin:round; stroke-width:4; stroke-opacity:1; fill:none" points="
  2012.34,350.345 2279.55,350.345 2279.55,168.905 2012.34,168.905 2012.34,350.345 
  "/>
<polyline clip-path="url(#clip430)" style="stroke:#009af9; stroke-linecap:butt; stroke-linejoin:round; stroke-width:4; stroke-opacity:1; fill:none" points="
  2036.74,229.385 2183.15,229.385 
  "/>
<path clip-path="url(#clip430)" d="M2211.84 242.776 L2211.84 256.526 L2207.55 256.526 L2207.55 220.739 L2211.84 220.739 L2211.84 224.674 Q2213.18 222.359 2215.21 221.248 Q2217.27 220.114 2220.12 220.114 Q2224.84 220.114 2227.78 223.864 Q2230.75 227.614 2230.75 233.725 Q2230.75 239.836 2227.78 243.586 Q2224.84 247.336 2220.12 247.336 Q2217.27 247.336 2215.21 246.225 Q2213.18 245.091 2211.84 242.776 M2226.33 233.725 Q2226.33 229.026 2224.38 226.364 Q2222.46 223.679 2219.08 223.679 Q2215.7 223.679 2213.76 226.364 Q2211.84 229.026 2211.84 233.725 Q2211.84 238.424 2213.76 241.109 Q2215.7 243.771 2219.08 243.771 Q2222.46 243.771 2224.38 241.109 Q2226.33 238.424 2226.33 233.725 Z" fill="#000000" fill-rule="evenodd" fill-opacity="1" /><polyline clip-path="url(#clip430)" style="stroke:#e26f46; stroke-linecap:butt; stroke-linejoin:round; stroke-width:4; stroke-opacity:1; fill:none" points="
  2036.74,289.865 2183.15,289.865 
  "/>
<path clip-path="url(#clip430)" d="M2211.95 294.205 Q2211.95 298.904 2213.87 301.589 Q2215.82 304.251 2219.2 304.251 Q2222.58 304.251 2224.52 301.589 Q2226.46 298.904 2226.46 294.205 Q2226.46 289.506 2224.52 286.844 Q2222.58 284.159 2219.2 284.159 Q2215.82 284.159 2213.87 286.844 Q2211.95 289.506 2211.95 294.205 M2226.46 303.256 Q2225.12 305.571 2223.06 306.705 Q2221.02 307.816 2218.15 307.816 Q2213.46 307.816 2210.49 304.066 Q2207.55 300.316 2207.55 294.205 Q2207.55 288.094 2210.49 284.344 Q2213.46 280.594 2218.15 280.594 Q2221.02 280.594 2223.06 281.728 Q2225.12 282.839 2226.46 285.154 L2226.46 281.219 L2230.72 281.219 L2230.72 317.006 L2226.46 317.006 L2226.46 303.256 Z" fill="#000000" fill-rule="evenodd" fill-opacity="1" /></svg>
