<?xml version="1.0" encoding="utf-8"?>
<svg xmlns="http://www.w3.org/2000/svg" xmlns:xlink="http://www.w3.org/1999/xlink" width="600" height="400" viewBox="0 0 2400 1600">
<defs>
  <clipPath id="clip960">
    <rect x="0" y="0" width="2400" height="1600"/>
  </clipPath>
</defs>
<path clip-path="url(#clip960)" d="
M0 1600 L2400 1600 L2400 0 L0 0  Z
  " fill="#ffffff" fill-rule="evenodd" fill-opacity="1"/>
<defs>
  <clipPath id="clip961">
    <rect x="480" y="0" width="1681" height="1600"/>
  </clipPath>
</defs>
<path clip-path="url(#clip960)" d="
M179.654 1486.45 L2352.76 1486.45 L2352.76 47.2441 L179.654 47.2441  Z
  " fill="#ffffff" fill-rule="evenodd" fill-opacity="1"/>
<defs>
  <clipPath id="clip962">
    <rect x="179" y="47" width="2174" height="1440"/>
  </clipPath>
</defs>
<polyline clip-path="url(#clip962)" style="stroke:#000000; stroke-width:2; stroke-opacity:0.1; fill:none" points="
  241.157,1486.45 241.157,47.2441 
  "/>
<polyline clip-path="url(#clip962)" style="stroke:#000000; stroke-width:2; stroke-opacity:0.1; fill:none" points="
  753.681,1486.45 753.681,47.2441 
  "/>
<polyline clip-path="url(#clip962)" style="stroke:#000000; stroke-width:2; stroke-opacity:0.1; fill:none" points="
  1266.2,1486.45 1266.2,47.2441 
  "/>
<polyline clip-path="url(#clip962)" style="stroke:#000000; stroke-width:2; stroke-opacity:0.1; fill:none" points="
  1778.73,1486.45 1778.73,47.2441 
  "/>
<polyline clip-path="url(#clip962)" style="stroke:#000000; stroke-width:2; stroke-opacity:0.1; fill:none" points="
  2291.25,1486.45 2291.25,47.2441 
  "/>
<polyline clip-path="url(#clip960)" style="stroke:#000000; stroke-width:4; stroke-opacity:1; fill:none" points="
  179.654,1486.45 2352.76,1486.45 
  "/>
<polyline clip-path="url(#clip960)" style="stroke:#000000; stroke-width:4; stroke-opacity:1; fill:none" points="
  241.157,1486.45 241.157,1469.18 
  "/>
<polyline clip-path="url(#clip960)" style="stroke:#000000; stroke-width:4; stroke-opacity:1; fill:none" points="
  753.681,1486.45 753.681,1469.18 
  "/>
<polyline clip-path="url(#clip960)" style="stroke:#000000; stroke-width:4; stroke-opacity:1; fill:none" points="
  1266.2,1486.45 1266.2,1469.18 
  "/>
<polyline clip-path="url(#clip960)" style="stroke:#000000; stroke-width:4; stroke-opacity:1; fill:none" points="
  1778.73,1486.45 1778.73,1469.18 
  "/>
<polyline clip-path="url(#clip960)" style="stroke:#000000; stroke-width:4; stroke-opacity:1; fill:none" points="
  2291.25,1486.45 2291.25,1469.18 
  "/>
<path clip-path="url(#clip960)" d="M 0 0 M212.569 1530.29 L242.245 1530.29 L242.245 1534.23 L212.569 1534.23 L212.569 1530.29 Z" fill="#000000" fill-rule="evenodd" fill-opacity="1" /><path clip-path="url(#clip960)" d="M 0 0 M260.161 1516.63 L248.356 1535.08 L260.161 1535.08 L260.161 1516.63 M258.934 1512.56 L264.814 1512.56 L264.814 1535.08 L269.744 1535.08 L269.744 1538.97 L264.814 1538.97 L264.814 1547.12 L260.161 1547.12 L260.161 1538.97 L244.559 1538.97 L244.559 1534.46 L258.934 1512.56 Z" fill="#000000" fill-rule="evenodd" fill-opacity="1" /><path clip-path="url(#clip960)" d="M 0 0 M726.135 1530.29 L755.81 1530.29 L755.81 1534.23 L726.135 1534.23 L726.135 1530.29 Z" fill="#000000" fill-rule="evenodd" fill-opacity="1" /><path clip-path="url(#clip960)" d="M 0 0 M764.907 1543.18 L781.227 1543.18 L781.227 1547.12 L759.282 1547.12 L759.282 1543.18 Q761.945 1540.43 766.528 1535.8 Q771.134 1531.15 772.315 1529.81 Q774.56 1527.28 775.44 1525.55 Q776.343 1523.79 776.343 1522.1 Q776.343 1519.34 774.398 1517.61 Q772.477 1515.87 769.375 1515.87 Q767.176 1515.87 764.722 1516.63 Q762.292 1517.4 759.514 1518.95 L759.514 1514.23 Q762.338 1513.09 764.792 1512.51 Q767.245 1511.93 769.282 1511.93 Q774.653 1511.93 777.847 1514.62 Q781.042 1517.31 781.042 1521.8 Q781.042 1523.93 780.231 1525.85 Q779.444 1527.74 777.338 1530.34 Q776.759 1531.01 773.657 1534.23 Q770.556 1537.42 764.907 1543.18 Z" fill="#000000" fill-rule="evenodd" fill-opacity="1" /><path clip-path="url(#clip960)" d="M 0 0 M1266.2 1515.64 Q1262.59 1515.64 1260.77 1519.2 Q1258.96 1522.75 1258.96 1529.87 Q1258.96 1536.98 1260.77 1540.55 Q1262.59 1544.09 1266.2 1544.09 Q1269.84 1544.09 1271.64 1540.55 Q1273.47 1536.98 1273.47 1529.87 Q1273.47 1522.75 1271.64 1519.2 Q1269.84 1515.64 1266.2 1515.64 M1266.2 1511.93 Q1272.01 1511.93 1275.07 1516.54 Q1278.15 1521.12 1278.15 1529.87 Q1278.15 1538.6 1275.07 1543.21 Q1272.01 1547.79 1266.2 1547.79 Q1260.39 1547.79 1257.32 1543.21 Q1254.26 1538.6 1254.26 1529.87 Q1254.26 1521.12 1257.32 1516.54 Q1260.39 1511.93 1266.2 1511.93 Z" fill="#000000" fill-rule="evenodd" fill-opacity="1" /><path clip-path="url(#clip960)" d="M 0 0 M1773.38 1543.18 L1789.7 1543.18 L1789.7 1547.12 L1767.76 1547.12 L1767.76 1543.18 Q1770.42 1540.43 1775 1535.8 Q1779.61 1531.15 1780.79 1529.81 Q1783.03 1527.28 1783.91 1525.55 Q1784.82 1523.79 1784.82 1522.1 Q1784.82 1519.34 1782.87 1517.61 Q1780.95 1515.87 1777.85 1515.87 Q1775.65 1515.87 1773.2 1516.63 Q1770.77 1517.4 1767.99 1518.95 L1767.99 1514.23 Q1770.81 1513.09 1773.27 1512.51 Q1775.72 1511.93 1777.76 1511.93 Q1783.13 1511.93 1786.32 1514.62 Q1789.52 1517.31 1789.52 1521.8 Q1789.52 1523.93 1788.71 1525.85 Q1787.92 1527.74 1785.81 1530.34 Q1785.23 1531.01 1782.13 1534.23 Q1779.03 1537.42 1773.38 1543.18 Z" fill="#000000" fill-rule="evenodd" fill-opacity="1" /><path clip-path="url(#clip960)" d="M 0 0 M2294.26 1516.63 L2282.46 1535.08 L2294.26 1535.08 L2294.26 1516.63 M2293.04 1512.56 L2298.92 1512.56 L2298.92 1535.08 L2303.85 1535.08 L2303.85 1538.97 L2298.92 1538.97 L2298.92 1547.12 L2294.26 1547.12 L2294.26 1538.97 L2278.66 1538.97 L2278.66 1534.46 L2293.04 1512.56 Z" fill="#000000" fill-rule="evenodd" fill-opacity="1" /><polyline clip-path="url(#clip962)" style="stroke:#000000; stroke-width:2; stroke-opacity:0.1; fill:none" points="
  179.654,1415.42 2352.76,1415.42 
  "/>
<polyline clip-path="url(#clip962)" style="stroke:#000000; stroke-width:2; stroke-opacity:0.1; fill:none" points="
  179.654,1107.08 2352.76,1107.08 
  "/>
<polyline clip-path="url(#clip962)" style="stroke:#000000; stroke-width:2; stroke-opacity:0.1; fill:none" points="
  179.654,798.742 2352.76,798.742 
  "/>
<polyline clip-path="url(#clip962)" style="stroke:#000000; stroke-width:2; stroke-opacity:0.1; fill:none" points="
  179.654,490.404 2352.76,490.404 
  "/>
<polyline clip-path="url(#clip962)" style="stroke:#000000; stroke-width:2; stroke-opacity:0.1; fill:none" points="
  179.654,182.066 2352.76,182.066 
  "/>
<polyline clip-path="url(#clip960)" style="stroke:#000000; stroke-width:4; stroke-opacity:1; fill:none" points="
  179.654,1486.45 179.654,47.2441 
  "/>
<polyline clip-path="url(#clip960)" style="stroke:#000000; stroke-width:4; stroke-opacity:1; fill:none" points="
  179.654,1415.42 205.731,1415.42 
  "/>
<polyline clip-path="url(#clip960)" style="stroke:#000000; stroke-width:4; stroke-opacity:1; fill:none" points="
  179.654,1107.08 205.731,1107.08 
  "/>
<polyline clip-path="url(#clip960)" style="stroke:#000000; stroke-width:4; stroke-opacity:1; fill:none" points="
  179.654,798.742 205.731,798.742 
  "/>
<polyline clip-path="url(#clip960)" style="stroke:#000000; stroke-width:4; stroke-opacity:1; fill:none" points="
  179.654,490.404 205.731,490.404 
  "/>
<polyline clip-path="url(#clip960)" style="stroke:#000000; stroke-width:4; stroke-opacity:1; fill:none" points="
  179.654,182.066 205.731,182.066 
  "/>
<path clip-path="url(#clip960)" d="M 0 0 M50.9921 1415.87 L80.6679 1415.87 L80.6679 1419.8 L50.9921 1419.8 L50.9921 1415.87 Z" fill="#000000" fill-rule="evenodd" fill-opacity="1" /><path clip-path="url(#clip960)" d="M 0 0 M85.7836 1398.14 L104.14 1398.14 L104.14 1402.07 L90.066 1402.07 L90.066 1410.55 Q91.0845 1410.2 92.103 1410.04 Q93.1215 1409.85 94.14 1409.85 Q99.927 1409.85 103.307 1413.02 Q106.686 1416.19 106.686 1421.61 Q106.686 1427.19 103.214 1430.29 Q99.7419 1433.37 93.4225 1433.37 Q91.2465 1433.37 88.978 1433 Q86.7327 1432.63 84.3253 1431.89 L84.3253 1427.19 Q86.4086 1428.32 88.6308 1428.88 Q90.853 1429.43 93.3299 1429.43 Q97.3345 1429.43 99.6724 1427.33 Q102.01 1425.22 102.01 1421.61 Q102.01 1418 99.6724 1415.89 Q97.3345 1413.79 93.3299 1413.79 Q91.4549 1413.79 89.5799 1414.2 Q87.728 1414.62 85.7836 1415.5 L85.7836 1398.14 Z" fill="#000000" fill-rule="evenodd" fill-opacity="1" /><path clip-path="url(#clip960)" d="M 0 0 M111.756 1426.82 L116.64 1426.82 L116.64 1432.7 L111.756 1432.7 L111.756 1426.82 Z" fill="#000000" fill-rule="evenodd" fill-opacity="1" /><path clip-path="url(#clip960)" d="M 0 0 M131.709 1401.22 Q128.098 1401.22 126.27 1404.78 Q124.464 1408.32 124.464 1415.45 Q124.464 1422.56 126.27 1426.12 Q128.098 1429.67 131.709 1429.67 Q135.344 1429.67 137.149 1426.12 Q138.978 1422.56 138.978 1415.45 Q138.978 1408.32 137.149 1404.78 Q135.344 1401.22 131.709 1401.22 M131.709 1397.51 Q137.519 1397.51 140.575 1402.12 Q143.654 1406.7 143.654 1415.45 Q143.654 1424.18 140.575 1428.79 Q137.519 1433.37 131.709 1433.37 Q125.899 1433.37 122.82 1428.79 Q119.765 1424.18 119.765 1415.45 Q119.765 1406.7 122.82 1402.12 Q125.899 1397.51 131.709 1397.51 Z" fill="#000000" fill-rule="evenodd" fill-opacity="1" /><path clip-path="url(#clip960)" d="M 0 0 M52.5893 1107.53 L82.2651 1107.53 L82.2651 1111.47 L52.5893 1111.47 L52.5893 1107.53 Z" fill="#000000" fill-rule="evenodd" fill-opacity="1" /><path clip-path="url(#clip960)" d="M 0 0 M91.3623 1120.42 L107.682 1120.42 L107.682 1124.36 L85.7373 1124.36 L85.7373 1120.42 Q88.3993 1117.67 92.9826 1113.04 Q97.5891 1108.39 98.7696 1107.05 Q101.015 1104.52 101.895 1102.79 Q102.797 1101.03 102.797 1099.34 Q102.797 1096.58 100.853 1094.85 Q98.9317 1093.11 95.8298 1093.11 Q93.6308 1093.11 91.1771 1093.87 Q88.7466 1094.64 85.9688 1096.19 L85.9688 1091.47 Q88.7928 1090.33 91.2465 1089.75 Q93.7002 1089.17 95.7373 1089.17 Q101.108 1089.17 104.302 1091.86 Q107.496 1094.55 107.496 1099.04 Q107.496 1101.17 106.686 1103.09 Q105.899 1104.99 103.793 1107.58 Q103.214 1108.25 100.112 1111.47 Q97.0104 1114.66 91.3623 1120.42 Z" fill="#000000" fill-rule="evenodd" fill-opacity="1" /><path clip-path="url(#clip960)" d="M 0 0 M112.751 1118.48 L117.635 1118.48 L117.635 1124.36 L112.751 1124.36 L112.751 1118.48 Z" fill="#000000" fill-rule="evenodd" fill-opacity="1" /><path clip-path="url(#clip960)" d="M 0 0 M122.751 1089.8 L141.107 1089.8 L141.107 1093.74 L127.033 1093.74 L127.033 1102.21 Q128.052 1101.86 129.07 1101.7 Q130.089 1101.51 131.107 1101.51 Q136.894 1101.51 140.274 1104.68 Q143.654 1107.86 143.654 1113.27 Q143.654 1118.85 140.181 1121.95 Q136.709 1125.03 130.39 1125.03 Q128.214 1125.03 125.945 1124.66 Q123.7 1124.29 121.293 1123.55 L121.293 1118.85 Q123.376 1119.98 125.598 1120.54 Q127.82 1121.1 130.297 1121.1 Q134.302 1121.1 136.64 1118.99 Q138.978 1116.88 138.978 1113.27 Q138.978 1109.66 136.64 1107.55 Q134.302 1105.45 130.297 1105.45 Q128.422 1105.45 126.547 1105.86 Q124.695 1106.28 122.751 1107.16 L122.751 1089.8 Z" fill="#000000" fill-rule="evenodd" fill-opacity="1" /><path clip-path="url(#clip960)" d="M 0 0 M94.7419 784.541 Q91.1308 784.541 89.3021 788.106 Q87.4966 791.647 87.4966 798.777 Q87.4966 805.883 89.3021 809.448 Q91.1308 812.99 94.7419 812.99 Q98.3761 812.99 100.182 809.448 Q102.01 805.883 102.01 798.777 Q102.01 791.647 100.182 788.106 Q98.3761 784.541 94.7419 784.541 M94.7419 780.837 Q100.552 780.837 103.608 785.443 Q106.686 790.027 106.686 798.777 Q106.686 807.504 103.608 812.11 Q100.552 816.693 94.7419 816.693 Q88.9317 816.693 85.8531 812.11 Q82.7975 807.504 82.7975 798.777 Q82.7975 790.027 85.8531 785.443 Q88.9317 780.837 94.7419 780.837 Z" fill="#000000" fill-rule="evenodd" fill-opacity="1" /><path clip-path="url(#clip960)" d="M 0 0 M111.756 810.142 L116.64 810.142 L116.64 816.022 L111.756 816.022 L111.756 810.142 Z" fill="#000000" fill-rule="evenodd" fill-opacity="1" /><path clip-path="url(#clip960)" d="M 0 0 M131.709 784.541 Q128.098 784.541 126.27 788.106 Q124.464 791.647 124.464 798.777 Q124.464 805.883 126.27 809.448 Q128.098 812.99 131.709 812.99 Q135.344 812.99 137.149 809.448 Q138.978 805.883 138.978 798.777 Q138.978 791.647 137.149 788.106 Q135.344 784.541 131.709 784.541 M131.709 780.837 Q137.519 780.837 140.575 785.443 Q143.654 790.027 143.654 798.777 Q143.654 807.504 140.575 812.11 Q137.519 816.693 131.709 816.693 Q125.899 816.693 122.82 812.11 Q119.765 807.504 119.765 798.777 Q119.765 790.027 122.82 785.443 Q125.899 780.837 131.709 780.837 Z" fill="#000000" fill-rule="evenodd" fill-opacity="1" /><path clip-path="url(#clip960)" d="M 0 0 M91.3623 503.749 L107.682 503.749 L107.682 507.684 L85.7373 507.684 L85.7373 503.749 Q88.3993 500.994 92.9826 496.365 Q97.5891 491.712 98.7696 490.369 Q101.015 487.846 101.895 486.11 Q102.797 484.351 102.797 482.661 Q102.797 479.907 100.853 478.17 Q98.9317 476.434 95.8298 476.434 Q93.6308 476.434 91.1771 477.198 Q88.7466 477.962 85.9688 479.513 L85.9688 474.791 Q88.7928 473.657 91.2465 473.078 Q93.7002 472.499 95.7373 472.499 Q101.108 472.499 104.302 475.184 Q107.496 477.869 107.496 482.36 Q107.496 484.49 106.686 486.411 Q105.899 488.309 103.793 490.902 Q103.214 491.573 100.112 494.791 Q97.0104 497.985 91.3623 503.749 Z" fill="#000000" fill-rule="evenodd" fill-opacity="1" /><path clip-path="url(#clip960)" d="M 0 0 M112.751 501.805 L117.635 501.805 L117.635 507.684 L112.751 507.684 L112.751 501.805 Z" fill="#000000" fill-rule="evenodd" fill-opacity="1" /><path clip-path="url(#clip960)" d="M 0 0 M122.751 473.124 L141.107 473.124 L141.107 477.059 L127.033 477.059 L127.033 485.531 Q128.052 485.184 129.07 485.022 Q130.089 484.837 131.107 484.837 Q136.894 484.837 140.274 488.008 Q143.654 491.18 143.654 496.596 Q143.654 502.175 140.181 505.277 Q136.709 508.355 130.39 508.355 Q128.214 508.355 125.945 507.985 Q123.7 507.615 121.293 506.874 L121.293 502.175 Q123.376 503.309 125.598 503.865 Q127.82 504.42 130.297 504.42 Q134.302 504.42 136.64 502.314 Q138.978 500.207 138.978 496.596 Q138.978 492.985 136.64 490.879 Q134.302 488.772 130.297 488.772 Q128.422 488.772 126.547 489.189 Q124.695 489.606 122.751 490.485 L122.751 473.124 Z" fill="#000000" fill-rule="evenodd" fill-opacity="1" /><path clip-path="url(#clip960)" d="M 0 0 M85.7836 164.786 L104.14 164.786 L104.14 168.721 L90.066 168.721 L90.066 177.194 Q91.0845 176.846 92.103 176.684 Q93.1215 176.499 94.14 176.499 Q99.927 176.499 103.307 179.67 Q106.686 182.842 106.686 188.258 Q106.686 193.837 103.214 196.939 Q99.7419 200.018 93.4225 200.018 Q91.2465 200.018 88.978 199.647 Q86.7327 199.277 84.3253 198.536 L84.3253 193.837 Q86.4086 194.971 88.6308 195.527 Q90.853 196.082 93.3299 196.082 Q97.3345 196.082 99.6724 193.976 Q102.01 191.869 102.01 188.258 Q102.01 184.647 99.6724 182.541 Q97.3345 180.434 93.3299 180.434 Q91.4549 180.434 89.5799 180.851 Q87.728 181.268 85.7836 182.147 L85.7836 164.786 Z" fill="#000000" fill-rule="evenodd" fill-opacity="1" /><path clip-path="url(#clip960)" d="M 0 0 M111.756 193.467 L116.64 193.467 L116.64 199.346 L111.756 199.346 L111.756 193.467 Z" fill="#000000" fill-rule="evenodd" fill-opacity="1" /><path clip-path="url(#clip960)" d="M 0 0 M131.709 167.865 Q128.098 167.865 126.27 171.43 Q124.464 174.971 124.464 182.101 Q124.464 189.207 126.27 192.772 Q128.098 196.314 131.709 196.314 Q135.344 196.314 137.149 192.772 Q138.978 189.207 138.978 182.101 Q138.978 174.971 137.149 171.43 Q135.344 167.865 131.709 167.865 M131.709 164.161 Q137.519 164.161 140.575 168.768 Q143.654 173.351 143.654 182.101 Q143.654 190.828 140.575 195.434 Q137.519 200.018 131.709 200.018 Q125.899 200.018 122.82 195.434 Q119.765 190.828 119.765 182.101 Q119.765 173.351 122.82 168.768 Q125.899 164.161 131.709 164.161 Z" fill="#000000" fill-rule="evenodd" fill-opacity="1" /><path clip-path="url(#clip962)" d="
M241.157 563.91 L261.865 576.216 L282.573 588.615 L303.281 601.053 L323.989 613.465 L344.697 625.77 L365.405 637.882 L386.113 649.702 L406.821 661.128 L427.529 672.057 
  L448.237 682.384 L468.945 692.015 L489.653 700.861 L510.361 708.852 L531.069 715.93 L551.777 722.061 L572.485 727.228 L593.193 731.438 L613.901 734.717 L634.609 737.112 
  L655.317 738.68 L676.026 739.494 L696.734 739.628 L717.442 739.156 L738.15 738.148 L758.858 741.732 L779.566 757.945 L800.274 770.081 L820.982 777.939 L841.69 781.422 
  L862.398 780.546 L883.106 775.45 L903.814 766.39 L924.522 753.737 L945.23 737.974 L965.938 719.675 L986.646 699.49 L1007.35 678.124 L1028.06 666.626 L1048.77 655.864 
  L1069.48 644.457 L1090.19 632.587 L1110.89 620.487 L1131.6 608.426 L1152.31 596.705 L1173.02 585.642 L1193.73 575.559 L1214.43 566.76 L1235.14 559.522 L1255.85 554.072 
  L1276.56 555.939 L1297.27 564.891 L1317.97 574.944 L1338.68 585.443 L1359.39 595.727 L1380.1 605.165 L1400.81 613.182 L1421.52 619.291 L1442.22 623.117 L1462.93 624.414 
  L1483.64 623.077 L1504.35 619.151 L1525.06 614.343 L1545.76 618.203 L1566.47 620.178 L1587.18 620.124 L1607.89 618.002 L1628.6 613.879 L1649.3 607.929 L1670.01 600.421 
  L1690.72 591.713 L1711.43 582.233 L1732.14 572.462 L1752.84 562.91 L1773.55 554.099 L1794.26 562.949 L1814.97 581.527 L1835.68 604.697 L1856.38 632.275 L1877.09 663.964 
  L1897.8 699.374 L1918.51 738.036 L1939.22 779.425 L1959.92 822.978 L1980.63 868.113 L2001.34 914.254 L2022.05 960.839 L2042.76 1007.35 L2063.46 1053.29 L2084.17 1098.26 
  L2104.88 1141.89 L2125.59 1183.88 L2146.3 1224.01 L2167 1262.11 L2187.71 1298.07 L2208.42 1331.86 L2229.13 1363.46 L2249.84 1392.91 L2270.54 1420.3 L2291.25 1445.72 
  L2291.25 969.782 L2270.54 947.075 L2249.84 923.191 L2229.13 898.197 L2208.42 872.199 L2187.71 845.348 L2167 817.838 L2146.3 789.91 L2125.59 761.844 L2104.88 733.958 
  L2084.17 706.599 L2063.46 680.134 L2042.76 654.942 L2022.05 631.398 L2001.34 609.861 L1980.63 590.66 L1959.92 574.081 L1939.22 560.35 L1918.51 549.625 L1897.8 541.983 
  L1877.09 537.414 L1856.38 535.819 L1835.68 537.006 L1814.97 540.697 L1794.26 546.536 L1773.55 549.026 L1752.84 539.695 L1732.14 534.758 L1711.43 533.893 L1690.72 536.659 
  L1670.01 542.509 L1649.3 550.815 L1628.6 560.885 L1607.89 571.996 L1587.18 583.419 L1566.47 594.45 L1545.76 604.441 L1525.06 612.828 L1504.35 608.837 L1483.64 602.004 
  L1462.93 594.231 L1442.22 585.947 L1421.52 577.606 L1400.81 569.661 L1380.1 562.542 L1359.39 556.639 L1338.68 552.279 L1317.97 549.716 L1297.27 549.12 L1276.56 550.575 
  L1255.85 548.708 L1235.14 543.752 L1214.43 541.532 L1193.73 542.394 L1173.02 546.554 L1152.31 554.082 L1131.6 564.905 L1110.89 578.802 L1090.19 595.417 L1069.48 614.274 
  L1048.77 634.792 L1028.06 656.312 L1007.35 676.609 L986.646 685.728 L965.938 693.947 L945.23 701.269 L924.522 707.732 L903.814 713.395 L883.106 718.336 L862.398 722.635 
  L841.69 726.367 L820.982 729.599 L800.274 732.378 L779.566 734.73 L758.858 736.66 L738.15 721.736 L717.442 698.327 L696.734 671.936 L676.026 643.038 L655.317 612.13 
  L634.609 579.72 L613.901 546.306 L593.193 512.363 L572.485 478.331 L551.777 444.607 L531.069 411.537 L510.361 379.41 L489.653 348.458 L468.945 318.856 L448.237 290.722 
  L427.529 264.127 L406.821 239.093 L386.113 215.605 L365.405 193.613 L344.697 173.045 L323.989 153.807 L303.281 135.793 L282.573 118.893 L261.865 102.992 L241.157 87.9763 
   Z
  " fill="#009af9" fill-rule="evenodd" fill-opacity="0.25"/>
<polyline clip-path="url(#clip962)" style="stroke:#009af9; stroke-width:12; stroke-opacity:1; fill:none" points="
  241.157,325.943 261.865,339.604 282.573,353.754 303.281,368.423 323.989,383.636 344.697,399.408 365.405,415.747 386.113,432.653 406.821,450.111 427.529,468.092 
  448.237,486.553 468.945,505.435 489.653,524.66 510.361,544.131 531.069,563.734 551.777,583.334 572.485,602.779 593.193,621.9 613.901,640.512 634.609,658.416 
  655.317,675.405 676.026,691.266 696.734,705.782 717.442,718.741 738.15,729.942 758.858,739.196 779.566,746.338 800.274,751.229 820.982,753.769 841.69,753.894 
  862.398,751.591 883.106,746.893 903.814,739.893 924.522,730.734 945.23,719.622 965.938,706.811 986.646,692.609 1007.35,677.366 1028.06,661.469 1048.77,645.328 
  1069.48,629.365 1090.19,614.002 1110.89,599.644 1131.6,586.665 1152.31,575.394 1173.02,566.098 1193.73,558.977 1214.43,554.146 1235.14,551.637 1255.85,551.39 
  1276.56,553.257 1297.27,557.006 1317.97,562.33 1338.68,568.861 1359.39,576.183 1380.1,583.854 1400.81,591.421 1421.52,598.449 1442.22,604.532 1462.93,609.322 
  1483.64,612.541 1504.35,613.994 1525.06,613.586 1545.76,611.322 1566.47,607.314 1587.18,601.771 1607.89,594.999 1628.6,587.382 1649.3,579.372 1670.01,571.465 
  1690.72,564.186 1711.43,558.063 1732.14,553.61 1752.84,551.302 1773.55,551.563 1794.26,554.742 1814.97,561.112 1835.68,570.852 1856.38,584.047 1877.09,600.689 
  1897.8,620.678 1918.51,643.83 1939.22,669.888 1959.92,698.529 1980.63,729.387 2001.34,762.057 2022.05,796.118 2042.76,831.143 2063.46,866.713 2084.17,902.43 
  2104.88,937.923 2125.59,972.862 2146.3,1006.96 2167,1039.97 2187.71,1071.71 2208.42,1102.03 2229.13,1130.83 2249.84,1158.05 2270.54,1183.69 2291.25,1207.75 
  
  "/>
<circle clip-path="url(#clip962)" cx="753.681" cy="737.074" r="14" fill="#e26f46" fill-rule="evenodd" fill-opacity="1" stroke="#000000" stroke-opacity="1" stroke-width="3.2"/>
<circle clip-path="url(#clip962)" cx="1009.94" cy="675.407" r="14" fill="#e26f46" fill-rule="evenodd" fill-opacity="1" stroke="#000000" stroke-opacity="1" stroke-width="3.2"/>
<circle clip-path="url(#clip962)" cx="1266.2" cy="552.072" r="14" fill="#e26f46" fill-rule="evenodd" fill-opacity="1" stroke="#000000" stroke-opacity="1" stroke-width="3.2"/>
<circle clip-path="url(#clip962)" cx="1522.47" cy="613.739" r="14" fill="#e26f46" fill-rule="evenodd" fill-opacity="1" stroke="#000000" stroke-opacity="1" stroke-width="3.2"/>
<circle clip-path="url(#clip962)" cx="1778.73" cy="552.072" r="14" fill="#e26f46" fill-rule="evenodd" fill-opacity="1" stroke="#000000" stroke-opacity="1" stroke-width="3.2"/>
</svg>
