<?xml version="1.0" encoding="utf-8"?>
<svg xmlns="http://www.w3.org/2000/svg" xmlns:xlink="http://www.w3.org/1999/xlink" width="600" height="400" viewBox="0 0 2400 1600">
<defs>
  <clipPath id="clip030">
    <rect x="0" y="0" width="2400" height="1600"/>
  </clipPath>
</defs>
<path clip-path="url(#clip030)" d="
M0 1600 L2400 1600 L2400 0 L0 0  Z
  " fill="#ffffff" fill-rule="evenodd" fill-opacity="1"/>
<defs>
  <clipPath id="clip031">
    <rect x="480" y="0" width="1681" height="1600"/>
  </clipPath>
</defs>
<path clip-path="url(#clip030)" d="
M179.654 1486.45 L2352.76 1486.45 L2352.76 47.2441 L179.654 47.2441  Z
  " fill="#ffffff" fill-rule="evenodd" fill-opacity="1"/>
<defs>
  <clipPath id="clip032">
    <rect x="179" y="47" width="2174" height="1440"/>
  </clipPath>
</defs>
<polyline clip-path="url(#clip032)" style="stroke:#000000; stroke-width:2; stroke-opacity:0.1; fill:none" points="
  241.157,1486.45 241.157,47.2441 
  "/>
<polyline clip-path="url(#clip032)" style="stroke:#000000; stroke-width:2; stroke-opacity:0.1; fill:none" points="
  753.681,1486.45 753.681,47.2441 
  "/>
<polyline clip-path="url(#clip032)" style="stroke:#000000; stroke-width:2; stroke-opacity:0.1; fill:none" points="
  1266.2,1486.45 1266.2,47.2441 
  "/>
<polyline clip-path="url(#clip032)" style="stroke:#000000; stroke-width:2; stroke-opacity:0.1; fill:none" points="
  1778.73,1486.45 1778.73,47.2441 
  "/>
<polyline clip-path="url(#clip032)" style="stroke:#000000; stroke-width:2; stroke-opacity:0.1; fill:none" points="
  2291.25,1486.45 2291.25,47.2441 
  "/>
<polyline clip-path="url(#clip030)" style="stroke:#000000; stroke-width:4; stroke-opacity:1; fill:none" points="
  179.654,1486.45 2352.76,1486.45 
  "/>
<polyline clip-path="url(#clip030)" style="stroke:#000000; stroke-width:4; stroke-opacity:1; fill:none" points="
  241.157,1486.45 241.157,1469.18 
  "/>
<polyline clip-path="url(#clip030)" style="stroke:#000000; stroke-width:4; stroke-opacity:1; fill:none" points="
  753.681,1486.45 753.681,1469.18 
  "/>
<polyline clip-path="url(#clip030)" style="stroke:#000000; stroke-width:4; stroke-opacity:1; fill:none" points="
  1266.2,1486.45 1266.2,1469.18 
  "/>
<polyline clip-path="url(#clip030)" style="stroke:#000000; stroke-width:4; stroke-opacity:1; fill:none" points="
  1778.73,1486.45 1778.73,1469.18 
  "/>
<polyline clip-path="url(#clip030)" style="stroke:#000000; stroke-width:4; stroke-opacity:1; fill:none" points="
  2291.25,1486.45 2291.25,1469.18 
  "/>
<path clip-path="url(#clip030)" d="M 0 0 M212.569 1530.29 L242.245 1530.29 L242.245 1534.23 L212.569 1534.23 L212.569 1530.29 Z" fill="#000000" fill-rule="evenodd" fill-opacity="1" /><path clip-path="url(#clip030)" d="M 0 0 M260.161 1516.63 L248.356 1535.08 L260.161 1535.08 L260.161 1516.63 M258.934 1512.56 L264.814 1512.56 L264.814 1535.08 L269.744 1535.08 L269.744 1538.97 L264.814 1538.97 L264.814 1547.12 L260.161 1547.12 L260.161 1538.97 L244.559 1538.97 L244.559 1534.46 L258.934 1512.56 Z" fill="#000000" fill-rule="evenodd" fill-opacity="1" /><path clip-path="url(#clip030)" d="M 0 0 M726.135 1530.29 L755.81 1530.29 L755.81 1534.23 L726.135 1534.23 L726.135 1530.29 Z" fill="#000000" fill-rule="evenodd" fill-opacity="1" /><path clip-path="url(#clip030)" d="M 0 0 M764.907 1543.18 L781.227 1543.18 L781.227 1547.12 L759.282 1547.12 L759.282 1543.18 Q761.945 1540.43 766.528 1535.8 Q771.134 1531.15 772.315 1529.81 Q774.56 1527.28 775.44 1525.55 Q776.343 1523.79 776.343 1522.1 Q776.343 1519.34 774.398 1517.61 Q772.477 1515.87 769.375 1515.87 Q767.176 1515.87 764.722 1516.63 Q762.292 1517.4 759.514 1518.95 L759.514 1514.23 Q762.338 1513.09 764.792 1512.51 Q767.245 1511.93 769.282 1511.93 Q774.653 1511.93 777.847 1514.62 Q781.042 1517.31 781.042 1521.8 Q781.042 1523.93 780.231 1525.85 Q779.444 1527.74 777.338 1530.34 Q776.759 1531.01 773.657 1534.23 Q770.556 1537.42 764.907 1543.18 Z" fill="#000000" fill-rule="evenodd" fill-opacity="1" /><path clip-path="url(#clip030)" d="M 0 0 M1266.2 1515.64 Q1262.59 1515.64 1260.77 1519.2 Q1258.96 1522.75 1258.96 1529.87 Q1258.96 1536.98 1260.77 1540.55 Q1262.59 1544.09 1266.2 1544.09 Q1269.84 1544.09 1271.64 1540.55 Q1273.47 1536.98 1273.47 1529.87 Q1273.47 1522.75 1271.64 1519.2 Q1269.84 1515.64 1266.2 1515.64 M1266.2 1511.93 Q1272.01 1511.93 1275.07 1516.54 Q1278.15 1521.12 1278.15 1529.87 Q1278.15 1538.6 1275.07 1543.21 Q1272.01 1547.79 1266.2 1547.79 Q1260.39 1547.79 1257.32 1543.21 Q1254.26 1538.6 1254.26 1529.87 Q1254.26 1521.12 1257.32 1516.54 Q1260.39 1511.93 1266.2 1511.93 Z" fill="#000000" fill-rule="evenodd" fill-opacity="1" /><path clip-path="url(#clip030)" d="M 0 0 M1773.38 1543.18 L1789.7 1543.18 L1789.7 1547.12 L1767.76 1547.12 L1767.76 1543.18 Q1770.42 1540.43 1775 1535.8 Q1779.61 1531.15 1780.79 1529.81 Q1783.03 1527.28 1783.91 1525.55 Q1784.82 1523.79 1784.82 1522.1 Q1784.82 1519.34 1782.87 1517.61 Q1780.95 1515.87 1777.85 1515.87 Q1775.65 1515.87 1773.2 1516.63 Q1770.77 1517.4 1767.99 1518.95 L1767.99 1514.23 Q1770.81 1513.09 1773.27 1512.51 Q1775.72 1511.93 1777.76 1511.93 Q1783.13 1511.93 1786.32 1514.62 Q1789.52 1517.31 1789.52 1521.8 Q1789.52 1523.93 1788.71 1525.85 Q1787.92 1527.74 1785.81 1530.34 Q1785.23 1531.01 1782.13 1534.23 Q1779.03 1537.42 1773.38 1543.18 Z" fill="#000000" fill-rule="evenodd" fill-opacity="1" /><path clip-path="url(#clip030)" d="M 0 0 M2294.26 1516.63 L2282.46 1535.08 L2294.26 1535.08 L2294.26 1516.63 M2293.04 1512.56 L2298.92 1512.56 L2298.92 1535.08 L2303.85 1535.08 L2303.85 1538.97 L2298.92 1538.97 L2298.92 1547.12 L2294.26 1547.12 L2294.26 1538.97 L2278.66 1538.97 L2278.66 1534.46 L2293.04 1512.56 Z" fill="#000000" fill-rule="evenodd" fill-opacity="1" /><polyline clip-path="url(#clip032)" style="stroke:#000000; stroke-width:2; stroke-opacity:0.1; fill:none" points="
  179.654,1415.42 2352.76,1415.42 
  "/>
<polyline clip-path="url(#clip032)" style="stroke:#000000; stroke-width:2; stroke-opacity:0.1; fill:none" points="
  179.654,1107.08 2352.76,1107.08 
  "/>
<polyline clip-path="url(#clip032)" style="stroke:#000000; stroke-width:2; stroke-opacity:0.1; fill:none" points="
  179.654,798.742 2352.76,798.742 
  "/>
<polyline clip-path="url(#clip032)" style="stroke:#000000; stroke-width:2; stroke-opacity:0.1; fill:none" points="
  179.654,490.404 2352.76,490.404 
  "/>
<polyline clip-path="url(#clip032)" style="stroke:#000000; stroke-width:2; stroke-opacity:0.1; fill:none" points="
  179.654,182.066 2352.76,182.066 
  "/>
<polyline clip-path="url(#clip030)" style="stroke:#000000; stroke-width:4; stroke-opacity:1; fill:none" points="
  179.654,1486.45 179.654,47.2441 
  "/>
<polyline clip-path="url(#clip030)" style="stroke:#000000; stroke-width:4; stroke-opacity:1; fill:none" points="
  179.654,1415.42 205.731,1415.42 
  "/>
<polyline clip-path="url(#clip030)" style="stroke:#000000; stroke-width:4; stroke-opacity:1; fill:none" points="
  179.654,1107.08 205.731,1107.08 
  "/>
<polyline clip-path="url(#clip030)" style="stroke:#000000; stroke-width:4; stroke-opacity:1; fill:none" points="
  179.654,798.742 205.731,798.742 
  "/>
<polyline clip-path="url(#clip030)" style="stroke:#000000; stroke-width:4; stroke-opacity:1; fill:none" points="
  179.654,490.404 205.731,490.404 
  "/>
<polyline clip-path="url(#clip030)" style="stroke:#000000; stroke-width:4; stroke-opacity:1; fill:none" points="
  179.654,182.066 205.731,182.066 
  "/>
<path clip-path="url(#clip030)" d="M 0 0 M50.9921 1415.87 L80.6679 1415.87 L80.6679 1419.8 L50.9921 1419.8 L50.9921 1415.87 Z" fill="#000000" fill-rule="evenodd" fill-opacity="1" /><path clip-path="url(#clip030)" d="M 0 0 M85.7836 1398.14 L104.14 1398.14 L104.14 1402.07 L90.066 1402.07 L90.066 1410.55 Q91.0845 1410.2 92.103 1410.04 Q93.1215 1409.85 94.14 1409.85 Q99.927 1409.85 103.307 1413.02 Q106.686 1416.19 106.686 1421.61 Q106.686 1427.19 103.214 1430.29 Q99.7419 1433.37 93.4225 1433.37 Q91.2465 1433.37 88.978 1433 Q86.7327 1432.63 84.3253 1431.89 L84.3253 1427.19 Q86.4086 1428.32 88.6308 1428.88 Q90.853 1429.43 93.3299 1429.43 Q97.3345 1429.43 99.6724 1427.33 Q102.01 1425.22 102.01 1421.61 Q102.01 1418 99.6724 1415.89 Q97.3345 1413.79 93.3299 1413.79 Q91.4549 1413.79 89.5799 1414.2 Q87.728 1414.62 85.7836 1415.5 L85.7836 1398.14 Z" fill="#000000" fill-rule="evenodd" fill-opacity="1" /><path clip-path="url(#clip030)" d="M 0 0 M111.756 1426.82 L116.64 1426.82 L116.64 1432.7 L111.756 1432.7 L111.756 1426.82 Z" fill="#000000" fill-rule="evenodd" fill-opacity="1" /><path clip-path="url(#clip030)" d="M 0 0 M131.709 1401.22 Q128.098 1401.22 126.27 1404.78 Q124.464 1408.32 124.464 1415.45 Q124.464 1422.56 126.27 1426.12 Q128.098 1429.67 131.709 1429.67 Q135.344 1429.67 137.149 1426.12 Q138.978 1422.56 138.978 1415.45 Q138.978 1408.32 137.149 1404.78 Q135.344 1401.22 131.709 1401.22 M131.709 1397.51 Q137.519 1397.51 140.575 1402.12 Q143.654 1406.7 143.654 1415.45 Q143.654 1424.18 140.575 1428.79 Q137.519 1433.37 131.709 1433.37 Q125.899 1433.37 122.82 1428.79 Q119.765 1424.18 119.765 1415.45 Q119.765 1406.7 122.82 1402.12 Q125.899 1397.51 131.709 1397.51 Z" fill="#000000" fill-rule="evenodd" fill-opacity="1" /><path clip-path="url(#clip030)" d="M 0 0 M52.5893 1107.53 L82.2651 1107.53 L82.2651 1111.47 L52.5893 1111.47 L52.5893 1107.53 Z" fill="#000000" fill-rule="evenodd" fill-opacity="1" /><path clip-path="url(#clip030)" d="M 0 0 M91.3623 1120.42 L107.682 1120.42 L107.682 1124.36 L85.7373 1124.36 L85.7373 1120.42 Q88.3993 1117.67 92.9826 1113.04 Q97.5891 1108.39 98.7696 1107.05 Q101.015 1104.52 101.895 1102.79 Q102.797 1101.03 102.797 1099.34 Q102.797 1096.58 100.853 1094.85 Q98.9317 1093.11 95.8298 1093.11 Q93.6308 1093.11 91.1771 1093.87 Q88.7466 1094.64 85.9688 1096.19 L85.9688 1091.47 Q88.7928 1090.33 91.2465 1089.75 Q93.7002 1089.17 95.7373 1089.17 Q101.108 1089.17 104.302 1091.86 Q107.496 1094.55 107.496 1099.04 Q107.496 1101.17 106.686 1103.09 Q105.899 1104.99 103.793 1107.58 Q103.214 1108.25 100.112 1111.47 Q97.0104 1114.66 91.3623 1120.42 Z" fill="#000000" fill-rule="evenodd" fill-opacity="1" /><path clip-path="url(#clip030)" d="M 0 0 M112.751 1118.48 L117.635 1118.48 L117.635 1124.36 L112.751 1124.36 L112.751 1118.48 Z" fill="#000000" fill-rule="evenodd" fill-opacity="1" /><path clip-path="url(#clip030)" d="M 0 0 M122.751 1089.8 L141.107 1089.8 L141.107 1093.74 L127.033 1093.74 L127.033 1102.21 Q128.052 1101.86 129.07 1101.7 Q130.089 1101.51 131.107 1101.51 Q136.894 1101.51 140.274 1104.68 Q143.654 1107.86 143.654 1113.27 Q143.654 1118.85 140.181 1121.95 Q136.709 1125.03 130.39 1125.03 Q128.214 1125.03 125.945 1124.66 Q123.7 1124.29 121.293 1123.55 L121.293 1118.85 Q123.376 1119.98 125.598 1120.54 Q127.82 1121.1 130.297 1121.1 Q134.302 1121.1 136.64 1118.99 Q138.978 1116.88 138.978 1113.27 Q138.978 1109.66 136.64 1107.55 Q134.302 1105.45 130.297 1105.45 Q128.422 1105.45 126.547 1105.86 Q124.695 1106.28 122.751 1107.16 L122.751 1089.8 Z" fill="#000000" fill-rule="evenodd" fill-opacity="1" /><path clip-path="url(#clip030)" d="M 0 0 M94.7419 784.541 Q91.1308 784.541 89.3021 788.106 Q87.4966 791.647 87.4966 798.777 Q87.4966 805.883 89.3021 809.448 Q91.1308 812.99 94.7419 812.99 Q98.3761 812.99 100.182 809.448 Q102.01 805.883 102.01 798.777 Q102.01 791.647 100.182 788.106 Q98.3761 784.541 94.7419 784.541 M94.7419 780.837 Q100.552 780.837 103.608 785.443 Q106.686 790.027 106.686 798.777 Q106.686 807.504 103.608 812.11 Q100.552 816.693 94.7419 816.693 Q88.9317 816.693 85.8531 812.11 Q82.7975 807.504 82.7975 798.777 Q82.7975 790.027 85.8531 785.443 Q88.9317 780.837 94.7419 780.837 Z" fill="#000000" fill-rule="evenodd" fill-opacity="1" /><path clip-path="url(#clip030)" d="M 0 0 M111.756 810.142 L116.64 810.142 L116.64 816.022 L111.756 816.022 L111.756 810.142 Z" fill="#000000" fill-rule="evenodd" fill-opacity="1" /><path clip-path="url(#clip030)" d="M 0 0 M131.709 784.541 Q128.098 784.541 126.27 788.106 Q124.464 791.647 124.464 798.777 Q124.464 805.883 126.27 809.448 Q128.098 812.99 131.709 812.99 Q135.344 812.99 137.149 809.448 Q138.978 805.883 138.978 798.777 Q138.978 791.647 137.149 788.106 Q135.344 784.541 131.709 784.541 M131.709 780.837 Q137.519 780.837 140.575 785.443 Q143.654 790.027 143.654 798.777 Q143.654 807.504 140.575 812.11 Q137.519 816.693 131.709 816.693 Q125.899 816.693 122.82 812.11 Q119.765 807.504 119.765 798.777 Q119.765 790.027 122.82 785.443 Q125.899 780.837 131.709 780.837 Z" fill="#000000" fill-rule="evenodd" fill-opacity="1" /><path clip-path="url(#clip030)" d="M 0 0 M91.3623 503.749 L107.682 503.749 L107.682 507.684 L85.7373 507.684 L85.7373 503.749 Q88.3993 500.994 92.9826 496.365 Q97.5891 491.712 98.7696 490.369 Q101.015 487.846 101.895 486.11 Q102.797 484.351 102.797 482.661 Q102.797 479.907 100.853 478.17 Q98.9317 476.434 95.8298 476.434 Q93.6308 476.434 91.1771 477.198 Q88.7466 477.962 85.9688 479.513 L85.9688 474.791 Q88.7928 473.657 91.2465 473.078 Q93.7002 472.499 95.7373 472.499 Q101.108 472.499 104.302 475.184 Q107.496 477.869 107.496 482.36 Q107.496 484.49 106.686 486.411 Q105.899 488.309 103.793 490.902 Q103.214 491.573 100.112 494.791 Q97.0104 497.985 91.3623 503.749 Z" fill="#000000" fill-rule="evenodd" fill-opacity="1" /><path clip-path="url(#clip030)" d="M 0 0 M112.751 501.805 L117.635 501.805 L117.635 507.684 L112.751 507.684 L112.751 501.805 Z" fill="#000000" fill-rule="evenodd" fill-opacity="1" /><path clip-path="url(#clip030)" d="M 0 0 M122.751 473.124 L141.107 473.124 L141.107 477.059 L127.033 477.059 L127.033 485.531 Q128.052 485.184 129.07 485.022 Q130.089 484.837 131.107 484.837 Q136.894 484.837 140.274 488.008 Q143.654 491.18 143.654 496.596 Q143.654 502.175 140.181 505.277 Q136.709 508.355 130.39 508.355 Q128.214 508.355 125.945 507.985 Q123.7 507.615 121.293 506.874 L121.293 502.175 Q123.376 503.309 125.598 503.865 Q127.82 504.42 130.297 504.42 Q134.302 504.42 136.64 502.314 Q138.978 500.207 138.978 496.596 Q138.978 492.985 136.64 490.879 Q134.302 488.772 130.297 488.772 Q128.422 488.772 126.547 489.189 Q124.695 489.606 122.751 490.485 L122.751 473.124 Z" fill="#000000" fill-rule="evenodd" fill-opacity="1" /><path clip-path="url(#clip030)" d="M 0 0 M85.7836 164.786 L104.14 164.786 L104.14 168.721 L90.066 168.721 L90.066 177.194 Q91.0845 176.846 92.103 176.684 Q93.1215 176.499 94.14 176.499 Q99.927 176.499 103.307 179.67 Q106.686 182.842 106.686 188.258 Q106.686 193.837 103.214 196.939 Q99.7419 200.018 93.4225 200.018 Q91.2465 200.018 88.978 199.647 Q86.7327 199.277 84.3253 198.536 L84.3253 193.837 Q86.4086 194.971 88.6308 195.527 Q90.853 196.082 93.3299 196.082 Q97.3345 196.082 99.6724 193.976 Q102.01 191.869 102.01 188.258 Q102.01 184.647 99.6724 182.541 Q97.3345 180.434 93.3299 180.434 Q91.4549 180.434 89.5799 180.851 Q87.728 181.268 85.7836 182.147 L85.7836 164.786 Z" fill="#000000" fill-rule="evenodd" fill-opacity="1" /><path clip-path="url(#clip030)" d="M 0 0 M111.756 193.467 L116.64 193.467 L116.64 199.346 L111.756 199.346 L111.756 193.467 Z" fill="#000000" fill-rule="evenodd" fill-opacity="1" /><path clip-path="url(#clip030)" d="M 0 0 M131.709 167.865 Q128.098 167.865 126.27 171.43 Q124.464 174.971 124.464 182.101 Q124.464 189.207 126.27 192.772 Q128.098 196.314 131.709 196.314 Q135.344 196.314 137.149 192.772 Q138.978 189.207 138.978 182.101 Q138.978 174.971 137.149 171.43 Q135.344 167.865 131.709 167.865 M131.709 164.161 Q137.519 164.161 140.575 168.768 Q143.654 173.351 143.654 182.101 Q143.654 190.828 140.575 195.434 Q137.519 200.018 131.709 200.018 Q125.899 200.018 122.82 195.434 Q119.765 190.828 119.765 182.101 Q119.765 173.351 122.82 168.768 Q125.899 164.161 131.709 164.161 Z" fill="#000000" fill-rule="evenodd" fill-opacity="1" /><path clip-path="url(#clip032)" d="
M241.157 563.91 L261.865 576.216 L282.573 588.615 L303.281 601.053 L323.989 613.465 L344.697 625.77 L365.405 637.882 L386.113 649.702 L406.821 661.128 L427.529 672.057 
  L448.237 682.384 L468.945 692.015 L489.653 700.861 L510.361 708.852 L531.069 715.93 L551.777 722.061 L572.485 727.228 L593.193 731.438 L613.901 734.717 L634.609 737.112 
  L655.317 738.68 L676.026 739.494 L696.734 739.628 L717.442 739.156 L738.15 738.148 L758.858 741.732 L779.566 757.945 L800.274 770.081 L820.982 777.939 L841.69 781.422 
  L862.398 780.546 L883.106 775.45 L903.814 766.39 L924.522 753.737 L945.23 737.974 L965.938 719.675 L986.646 699.49 L1007.35 678.124 L1028.06 666.626 L1048.77 655.864 
  L1069.48 644.457 L1090.19 632.587 L1110.89 620.487 L1131.6 608.426 L1152.31 596.705 L1173.02 585.642 L1193.73 575.559 L1214.43 566.76 L1235.14 559.522 L1255.85 554.072 
  L1276.56 555.939 L1297.27 564.891 L1317.97 574.944 L1338.68 585.443 L1359.39 595.727 L1380.1 605.165 L1400.81 613.182 L1421.52 619.291 L1442.22 623.117 L1462.93 624.414 
  L1483.64 623.077 L1504.35 619.151 L1525.06 614.343 L1545.76 618.203 L1566.47 620.178 L1587.18 620.124 L1607.89 618.002 L1628.6 613.879 L1649.3 607.929 L1670.01 600.421 
  L1690.72 591.713 L1711.43 582.233 L1732.14 572.462 L1752.84 562.91 L1773.55 554.099 L1794.26 562.949 L1814.97 581.527 L1835.68 604.697 L1856.38 632.275 L1877.09 663.964 
  L1897.8 699.374 L1918.51 738.036 L1939.22 779.425 L1959.92 822.978 L1980.63 868.113 L2001.34 914.254 L2022.05 960.839 L2042.76 1007.35 L2063.46 1053.29 L2084.17 1098.26 
  L2104.88 1141.89 L2125.59 1183.88 L2146.3 1224.01 L2167 1262.11 L2187.71 1298.07 L2208.42 1331.86 L2229.13 1363.46 L2249.84 1392.91 L2270.54 1420.3 L2291.25 1445.72 
  L2291.25 969.782 L2270.54 947.075 L2249.84 923.191 L2229.13 898.197 L2208.42 872.199 L2187.71 845.348 L2167 817.838 L2146.3 789.91 L2125.59 761.844 L2104.88 733.958 
  L2084.17 706.599 L2063.46 680.134 L2042.76 654.942 L2022.05 631.398 L2001.34 609.861 L1980.63 590.66 L1959.92 574.081 L1939.22 560.35 L1918.51 549.625 L1897.8 541.983 
  L1877.09 537.414 L1856.38 535.819 L1835.68 537.006 L1814.97 540.697 L1794.26 546.536 L1773.55 549.026 L1752.84 539.695 L1732.14 534.758 L1711.43 533.893 L1690.72 536.659 
  L1670.01 542.509 L1649.3 550.815 L1628.6 560.885 L1607.89 571.996 L1587.18 583.419 L1566.47 594.45 L1545.76 604.441 L1525.06 612.828 L1504.35 608.837 L1483.64 602.004 
  L1462.93 594.231 L1442.22 585.947 L1421.52 577.606 L1400.81 569.661 L1380.1 562.542 L1359.39 556.639 L1338.68 552.279 L1317.97 549.716 L1297.27 549.12 L1276.56 550.575 
  L1255.85 548.708 L1235.14 543.752 L1214.43 541.532 L1193.73 542.394 L1173.02 546.554 L1152.31 554.082 L1131.6 564.905 L1110.89 578.802 L1090.19 595.417 L1069.48 614.274 
  L1048.77 634.792 L1028.06 656.312 L1007.35 676.609 L986.646 685.728 L965.938 693.947 L945.23 701.269 L924.522 707.732 L903.814 713.395 L883.106 718.336 L862.398 722.635 
  L841.69 726.367 L820.982 729.599 L800.274 732.378 L779.566 734.73 L758.858 736.66 L738.15 721.736 L717.442 698.327 L696.734 671.936 L676.026 643.038 L655.317 612.13 
  L634.609 579.72 L613.901 546.306 L593.193 512.363 L572.485 478.331 L551.777 444.607 L531.069 411.537 L510.361 379.41 L489.653 348.458 L468.945 318.856 L448.237 290.722 
  L427.529 264.127 L406.821 239.093 L386.113 215.605 L365.405 193.613 L344.697 173.045 L323.989 153.807 L303.281 135.793 L282.573 118.893 L261.865 102.992 L241.157 87.9763 
   Z
  " fill="#009af9" fill-rule="evenodd" fill-opacity="0.25"/>
<polyline clip-path="url(#clip032)" style="stroke:#009af9; stroke-width:12; stroke-opacity:1; fill:none" points="
  241.157,325.943 261.865,339.604 282.573,353.754 303.281,368.423 323.989,383.636 344.697,399.408 365.405,415.747 386.113,432.653 406.821,450.111 427.529,468.092 
  448.237,486.553 468.945,505.435 489.653,524.66 510.361,544.131 531.069,563.734 551.777,583.334 572.485,602.779 593.193,621.9 613.901,640.512 634.609,658.416 
  655.317,675.405 676.026,691.266 696.734,705.782 717.442,718.741 738.15,729.942 758.858,739.196 779.566,746.338 800.274,751.229 820.982,753.769 841.69,753.894 
  862.398,751.591 883.106,746.893 903.814,739.893 924.522,730.734 945.23,719.622 965.938,706.811 986.646,692.609 1007.35,677.366 1028.06,661.469 1048.77,645.328 
  1069.48,629.365 1090.19,614.002 1110.89,599.644 1131.6,586.665 1152.31,575.394 1173.02,566.098 1193.73,558.977 1214.43,554.146 1235.14,551.637 1255.85,551.39 
  1276.56,553.257 1297.27,557.006 1317.97,562.33 1338.68,568.861 1359.39,576.183 1380.1,583.854 1400.81,591.421 1421.52,598.449 1442.22,604.532 1462.93,609.322 
  1483.64,612.541 1504.35,613.994 1525.06,613.586 1545.76,611.322 1566.47,607.314 1587.18,601.771 1607.89,594.999 1628.6,587.382 1649.3,579.372 1670.01,571.465 
  1690.72,564.186 1711.43,558.063 1732.14,553.61 1752.84,551.302 1773.55,551.563 1794.26,554.742 1814.97,561.112 1835.68,570.852 1856.38,584.047 1877.09,600.689 
  1897.8,620.678 1918.51,643.83 1939.22,669.888 1959.92,698.529 1980.63,729.387 2001.34,762.057 2022.05,796.118 2042.76,831.143 2063.46,866.713 2084.17,902.43 
  2104.88,937.923 2125.59,972.862 2146.3,1006.96 2167,1039.97 2187.71,1071.71 2208.42,1102.03 2229.13,1130.83 2249.84,1158.05 2270.54,1183.69 2291.25,1207.75 
  
  "/>
<circle clip-path="url(#clip032)" cx="753.681" cy="737.074" r="14" fill="#e26f46" fill-rule="evenodd" fill-opacity="1" stroke="#000000" stroke-opacity="1" stroke-width="3.2"/>
<circle clip-path="url(#clip032)" cx="1009.94" cy="675.407" r="14" fill="#e26f46" fill-rule="evenodd" fill-opacity="1" stroke="#000000" stroke-opacity="1" stroke-width="3.2"/>
<circle clip-path="url(#clip032)" cx="1266.2" cy="552.072" r="14" fill="#e26f46" fill-rule="evenodd" fill-opacity="1" stroke="#000000" stroke-opacity="1" stroke-width="3.2"/>
<circle clip-path="url(#clip032)" cx="1522.47" cy="613.739" r="14" fill="#e26f46" fill-rule="evenodd" fill-opacity="1" stroke="#000000" stroke-opacity="1" stroke-width="3.2"/>
<circle clip-path="url(#clip032)" cx="1778.73" cy="552.072" r="14" fill="#e26f46" fill-rule="evenodd" fill-opacity="1" stroke="#000000" stroke-opacity="1" stroke-width="3.2"/>
<polyline clip-path="url(#clip032)" style="stroke:#3da44d; stroke-width:4; stroke-opacity:1; fill:none" points="
  241.157,289.848 261.865,300.287 282.573,312.183 303.281,325.563 323.989,340.653 344.697,357.235 365.405,374.909 386.113,394.416 406.821,414.828 427.529,436.712 
  448.237,459.266 468.945,482.586 489.653,506.321 510.361,530.159 531.069,553.9 551.777,577.312 572.485,599.928 593.193,621.664 613.901,642.273 634.609,661.594 
  655.317,679.148 676.026,695.107 696.734,709.226 717.442,721.097 738.15,731.01 758.858,738.775 779.566,744.379 800.274,747.588 820.982,748.742 841.69,747.766 
  862.398,744.756 883.106,739.678 903.814,732.825 924.522,724.46 945.23,714.341 965.938,702.886 986.646,690.437 1007.35,677.076 1028.06,663.135 1048.77,648.909 
  1069.48,634.634 1090.19,620.773 1110.89,607.452 1131.6,594.984 1152.31,583.707 1173.02,573.861 1193.73,565.562 1214.43,559.192 1235.14,554.851 1255.85,552.561 
  1276.56,552.193 1297.27,553.609 1317.97,557.083 1338.68,561.762 1359.39,567.849 1380.1,574.676 1400.81,582.065 1421.52,589.512 1442.22,596.741 1462.93,603.025 
  1483.64,608.266 1504.35,611.785 1525.06,613.98 1545.76,614.065 1566.47,612.406 1587.18,609.024 1607.89,603.887 1628.6,597.535 1649.3,590.335 1670.01,582.423 
  1690.72,574.717 1711.43,567.341 1732.14,560.933 1752.84,555.795 1773.55,552.499 1794.26,551.517 1814.97,553.025 1835.68,557.276 1856.38,564.296 1877.09,574.492 
  1897.8,587.549 1918.51,603.426 1939.22,621.862 1959.92,643.064 1980.63,666.178 2001.34,691.353 2022.05,718.026 2042.76,745.623 2063.46,773.946 2084.17,802.594 
  2104.88,831.162 2125.59,859.213 2146.3,886.479 2167,912.692 2187.71,937.647 2208.42,961.163 2229.13,983.207 2249.84,1003.52 2270.54,1022.21 2291.25,1039.45 
  
  "/>
<polyline clip-path="url(#clip032)" style="stroke:#c271d2; stroke-width:4; stroke-opacity:1; fill:none" points="
  241.157,306.979 261.865,328.325 282.573,351.646 303.281,376.157 323.989,401.829 344.697,428.218 365.405,455.19 386.113,482.451 406.821,509.156 427.529,535.489 
  448.237,560.694 468.945,584.945 489.653,607.552 510.361,628.586 531.069,647.663 551.777,664.881 572.485,680.021 593.193,693.023 613.901,704.108 634.609,713.45 
  655.317,720.947 676.026,726.754 696.734,731.292 717.442,734.299 738.15,736.367 758.858,737.297 779.566,737.321 800.274,736.386 820.982,735.037 841.69,732.551 
  862.398,729.484 883.106,725.567 903.814,720.429 924.522,714.36 945.23,706.82 965.938,698.224 986.646,688.139 1007.35,676.855 1028.06,664.583 1048.77,651.264 
  1069.48,637.248 1090.19,623.132 1110.89,609.002 1131.6,595.468 1152.31,583.227 1173.02,572.476 1193.73,563.697 1214.43,557.307 1235.14,553.115 1255.85,551.87 
  1276.56,553.007 1297.27,556.503 1317.97,562.057 1338.68,569.139 1359.39,577.269 1380.1,585.942 1400.81,594.383 1421.52,601.961 1442.22,608.403 1462.93,613.062 
  1483.64,615.42 1504.35,615.579 1525.06,613.36 1545.76,608.641 1566.47,602.033 1587.18,593.83 1607.89,584.402 1628.6,574.482 1649.3,564.801 1670.01,556.011 
  1690.72,548.841 1711.43,544.211 1732.14,542.42 1752.84,544.227 1773.55,549.899 1794.26,559.974 1814.97,574.314 1835.68,593.169 1856.38,616.2 1877.09,642.996 
  1897.8,673.296 1918.51,706.475 1939.22,741.86 1959.92,778.645 1980.63,816.521 2001.34,854.347 2022.05,891.572 2042.76,927.616 2063.46,961.781 2084.17,993.71 
  2104.88,1022.9 2125.59,1049.12 2146.3,1071.93 2167,1091.57 2187.71,1107.97 2208.42,1120.96 2229.13,1131.08 2249.84,1138.32 2270.54,1143.03 2291.25,1145.57 
  
  "/>
<polyline clip-path="url(#clip032)" style="stroke:#ac8d18; stroke-width:4; stroke-opacity:1; fill:none" points="
  241.157,508.324 261.865,523.858 282.573,539.654 303.281,555.357 323.989,570.482 344.697,585.438 365.405,599.545 386.113,612.835 406.821,625.227 427.529,636.712 
  448.237,647.071 468.945,656.835 489.653,665.664 510.361,673.893 531.069,681.692 551.777,688.772 572.485,695.805 593.193,702.364 613.901,708.716 634.609,714.851 
  655.317,720.203 676.026,725.235 696.734,729.53 717.442,733.091 738.15,735.723 758.858,737.368 779.566,738.069 800.274,737.441 820.982,735.801 841.69,733.169 
  862.398,729.297 883.106,724.585 903.814,718.821 924.522,712.15 945.23,704.487 965.938,695.996 986.646,686.859 1007.35,676.663 1028.06,665.992 1048.77,654.474 
  1069.48,642.664 1090.19,630.378 1110.89,618.133 1131.6,606.079 1152.31,594.409 1173.02,583.565 1193.73,573.656 1214.43,565.383 1235.14,558.606 1255.85,553.788 
  1276.56,551.007 1297.27,550.149 1317.97,551.344 1338.68,554.52 1359.39,559.35 1380.1,565.862 1400.81,573.213 1421.52,581.172 1442.22,589.29 1462.93,597.126 
  1483.64,604.161 1504.35,610.079 1525.06,614.2 1545.76,616.545 1566.47,617.373 1587.18,615.862 1607.89,612.551 1628.6,607.384 1649.3,600.796 1670.01,593.126 
  1690.72,584.661 1711.43,576.029 1732.14,567.431 1752.84,559.959 1773.55,553.402 1794.26,548.798 1814.97,546.054 1835.68,546.059 1856.38,548.779 1877.09,554.579 
  1897.8,563.374 1918.51,575.322 1939.22,590.445 1959.92,608.483 1980.63,629.518 2001.34,652.939 2022.05,678.464 2042.76,705.764 2063.46,734.515 2084.17,764.104 
  2104.88,794.51 2125.59,824.715 2146.3,854.949 2167,884.525 2187.71,913.362 2208.42,941.2 2229.13,968.015 2249.84,993.614 2270.54,1018.13 2291.25,1041.48 
  
  "/>
<polyline clip-path="url(#clip032)" style="stroke:#00a9ad; stroke-width:4; stroke-opacity:1; fill:none" points="
  241.157,181.552 261.865,194.553 282.573,208.181 303.281,222.953 323.989,238.192 344.697,253.95 365.405,269.993 386.113,286.686 406.821,303.909 427.529,321.822 
  448.237,340.512 468.945,360.266 489.653,381.12 510.361,403.732 531.069,427.836 551.777,453.651 572.485,481.299 593.193,510.306 613.901,540.667 634.609,571.795 
  655.317,603.336 676.026,634.66 696.734,665.202 717.442,693.691 738.15,719.62 758.858,742.42 779.566,761.441 800.274,775.693 820.982,785.36 841.69,789.865 
  862.398,789.453 883.106,784.23 903.814,774.289 924.522,760.48 945.23,743.192 965.938,723.147 986.646,701.187 1007.35,678.21 1028.06,655.223 1048.77,632.624 
  1069.48,611.621 1090.19,592.336 1110.89,575.821 1131.6,562.108 1152.31,551.753 1173.02,544.809 1193.73,541.129 1214.43,540.881 1235.14,543.483 1255.85,548.688 
  1276.56,555.867 1297.27,564.697 1317.97,574.553 1338.68,584.555 1359.39,594.394 1380.1,603.283 1400.81,611.028 1421.52,616.988 1442.22,620.791 1462.93,622.143 
  1483.64,621.386 1504.35,618.303 1525.06,612.993 1545.76,605.838 1566.47,597.084 1587.18,587.409 1607.89,577.239 1628.6,567.082 1649.3,557.731 1670.01,549.776 
  1690.72,543.785 1711.43,540.134 1732.14,539.734 1752.84,542.731 1773.55,549.708 1794.26,560.753 1814.97,576.133 1835.68,595.803 1856.38,619.655 1877.09,647.64 
  1897.8,679.452 1918.51,714.477 1939.22,752.337 1959.92,792.486 1980.63,834.374 2001.34,877.316 2022.05,920.415 2042.76,963.473 2063.46,1005.68 2084.17,1046.63 
  2104.88,1086.18 2125.59,1123.65 2146.3,1159.43 2167,1193.11 2187.71,1224.65 2208.42,1254.48 2229.13,1283.03 2249.84,1309.82 2270.54,1335.78 2291.25,1360.71 
  
  "/>
<polyline clip-path="url(#clip032)" style="stroke:#ed5d92; stroke-width:4; stroke-opacity:1; fill:none" points="
  241.157,317.312 261.865,336.683 282.573,354.629 303.281,371.368 323.989,386.95 344.697,401.581 365.405,415.327 386.113,428.682 406.821,441.802 427.529,454.903 
  448.237,468.261 468.945,482.35 489.653,497.325 510.361,513.183 531.069,530.447 551.777,548.652 572.485,567.959 593.193,588.145 613.901,609.149 634.609,630.38 
  655.317,651.491 676.026,672.206 696.734,691.867 717.442,710.088 738.15,726.367 758.858,740.321 779.566,751.474 800.274,759.503 820.982,764.476 841.69,765.976 
  862.398,763.916 883.106,758.89 903.814,750.707 924.522,739.752 945.23,726.512 965.938,711.449 986.646,694.899 1007.35,677.629 1028.06,659.769 1048.77,642.113 
  1069.48,625.058 1090.19,609.031 1110.89,594.377 1131.6,581.434 1152.31,570.641 1173.02,561.878 1193.73,555.535 1214.43,551.696 1235.14,550.161 1255.85,550.965 
  1276.56,553.839 1297.27,558.594 1317.97,564.942 1338.68,572.334 1359.39,580.443 1380.1,588.871 1400.81,596.66 1421.52,603.777 1442.22,609.648 1462.93,613.668 
  1483.64,615.749 1504.35,615.594 1525.06,613.292 1545.76,608.999 1566.47,602.86 1587.18,595.363 1607.89,586.661 1628.6,577.818 1649.3,568.86 1670.01,561.04 
  1690.72,554.442 1711.43,549.784 1732.14,547.521 1752.84,547.7 1773.55,550.801 1794.26,556.794 1814.97,565.79 1835.68,577.444 1856.38,591.514 1877.09,607.802 
  1897.8,625.828 1918.51,645.139 1939.22,665.6 1959.92,686.547 1980.63,707.432 2001.34,728.579 2022.05,749.389 2042.76,769.634 2063.46,789.353 2084.17,808.317 
  2104.88,826.809 2125.59,844.629 2146.3,862.281 2167,879.263 2187.71,896.369 2208.42,913.485 2229.13,930.757 2249.84,948.053 2270.54,965.674 2291.25,983.577 
  
  "/>
<polyline clip-path="url(#clip032)" style="stroke:#c68125; stroke-width:4; stroke-opacity:1; fill:none" points="
  241.157,230.369 261.865,245.105 282.573,262.961 303.281,284.14 323.989,308.361 344.697,334.846 365.405,363.27 386.113,393.365 406.821,424.169 427.529,455.278 
  448.237,486.002 468.945,515.734 489.653,543.943 510.361,570.491 531.069,595.123 551.777,617.587 572.485,637.587 593.193,655.689 613.901,671.609 634.609,685.585 
  655.317,698.081 676.026,708.846 696.734,718.189 717.442,726.14 738.15,732.839 758.858,738.358 779.566,742.361 800.274,744.994 820.982,746.025 841.69,745.365 
  862.398,743.028 883.106,738.702 903.814,732.705 924.522,724.683 945.23,715.089 965.938,703.7 986.646,691.048 1007.35,677.124 1028.06,662.556 1048.77,647.46 
  1069.48,632.424 1090.19,617.654 1110.89,603.79 1131.6,590.911 1152.31,579.363 1173.02,569.842 1193.73,562.101 1214.43,556.587 1235.14,553.072 1255.85,551.793 
  1276.56,552.761 1297.27,555.489 1317.97,559.979 1338.68,565.773 1359.39,572.56 1380.1,579.896 1400.81,587.45 1421.52,594.696 1442.22,601.199 1462.93,606.692 
  1483.64,610.813 1504.35,613.177 1525.06,613.641 1545.76,612.446 1566.47,609.459 1587.18,604.596 1607.89,598.497 1628.6,591.109 1649.3,583.402 1670.01,575.359 
  1690.72,567.667 1711.43,560.945 1732.14,555.708 1752.84,552.433 1773.55,551.899 1794.26,554.025 1814.97,559.48 1835.68,568.529 1856.38,581.395 1877.09,597.971 
  1897.8,618.482 1918.51,642.775 1939.22,670.524 1959.92,701.478 1980.63,735.281 2001.34,771.552 2022.05,809.794 2042.76,849.454 2063.46,890.044 2084.17,930.959 
  2104.88,971.955 2125.59,1012.36 2146.3,1051.79 2167,1089.95 2187.71,1126.62 2208.42,1161.5 2229.13,1194.51 2249.84,1225.55 2270.54,1254.61 2291.25,1281.95 
  
  "/>
<polyline clip-path="url(#clip032)" style="stroke:#00a98d; stroke-width:4; stroke-opacity:1; fill:none" points="
  241.157,500.887 261.865,513.854 282.573,526.245 303.281,538.462 323.989,550.433 344.697,562.549 365.405,574.942 386.113,587.496 406.821,600.526 427.529,613.601 
  448.237,627.122 468.945,640.685 489.653,654.089 510.361,667.275 531.069,679.808 551.777,691.631 572.485,702.251 593.193,711.795 613.901,719.64 634.609,726.257 
  655.317,731.193 676.026,734.643 696.734,736.803 717.442,737.847 738.15,737.738 758.858,736.709 779.566,735.109 800.274,732.867 820.982,730.332 841.69,727.187 
  862.398,723.684 883.106,719.599 903.814,714.924 924.522,709.373 945.23,702.913 965.938,695.239 986.646,686.618 1007.35,676.724 1028.06,665.638 1048.77,653.513 
  1069.48,640.715 1090.19,627.336 1110.89,613.897 1131.6,600.932 1152.31,588.588 1173.02,577.543 1193.73,568.042 1214.43,560.54 1235.14,555.393 1255.85,552.376 
  1276.56,552.243 1297.27,554.158 1317.97,558.032 1338.68,563.835 1359.39,570.988 1380.1,578.805 1400.81,586.688 1421.52,594.57 1442.22,601.44 1462.93,607.243 
  1483.64,611.365 1504.35,613.567 1525.06,613.602 1545.76,611.805 1566.47,608.218 1587.18,602.832 1607.89,596.366 1628.6,588.791 1649.3,580.883 1670.01,572.897 
  1690.72,565.709 1711.43,559.7 1732.14,555.075 1752.84,552.106 1773.55,551.865 1794.26,554.005 1814.97,558.971 1835.68,567.172 1856.38,578.211 1877.09,592.493 
  1897.8,610.204 1918.51,630.602 1939.22,654.091 1959.92,680.117 1980.63,708.785 2001.34,739.572 2022.05,772.217 2042.76,806.203 2063.46,841.388 2084.17,877.162 
  2104.88,913.142 2125.59,949.04 2146.3,984.035 2167,1017.98 2187.71,1050.32 2208.42,1080.66 2229.13,1108.84 2249.84,1134.34 2270.54,1157.12 2291.25,1176.81 
  
  "/>
<polyline clip-path="url(#clip032)" style="stroke:#8e971d; stroke-width:4; stroke-opacity:1; fill:none" points="
  241.157,89.011 261.865,103.234 282.573,119.091 303.281,136.712 323.989,156.115 344.697,176.965 365.405,199.331 386.113,223.159 406.821,248.499 427.529,275.08 
  448.237,303.007 468.945,332.253 489.653,362.708 510.361,394.165 531.069,426.341 551.777,458.959 572.485,491.939 593.193,525.02 613.901,557.79 634.609,589.653 
  655.317,620.372 676.026,649.536 696.734,676.699 717.442,701.285 738.15,723.01 758.858,741.283 779.566,756.193 800.274,767.084 820.982,773.942 841.69,776.703 
  862.398,775.586 883.106,770.49 903.814,761.533 924.522,749.54 945.23,734.352 965.938,717.056 986.646,698.035 1007.35,677.907 1028.06,657.486 1048.77,637.336 
  1069.48,618.084 1090.19,600.116 1110.89,584.466 1131.6,570.859 1152.31,560.336 1173.02,552.506 1193.73,547.731 1214.43,545.689 1235.14,546.518 1255.85,549.64 
  1276.56,554.97 1297.27,561.844 1317.97,569.684 1338.68,578.383 1359.39,587.109 1380.1,595.33 1400.81,602.645 1421.52,608.813 1442.22,613.502 1462.93,616.102 
  1483.64,617.068 1504.35,616.106 1525.06,613.378 1545.76,608.795 1566.47,603.195 1587.18,596.31 1607.89,589.022 1628.6,581.362 1649.3,574.035 1670.01,567.178 
  1690.72,561.18 1711.43,556.652 1732.14,553.383 1752.84,551.699 1773.55,551.811 1794.26,553.513 1814.97,557.15 1835.68,562.292 1856.38,569.253 1877.09,577.554 
  1897.8,587.611 1918.51,599.023 1939.22,612.195 1959.92,626.782 1980.63,643.096 2001.34,661.11 2022.05,680.953 2042.76,703.028 2063.46,726.974 2084.17,753.255 
  2104.88,781.732 2125.59,812.462 2146.3,845.112 2167,879.986 2187.71,916.578 2208.42,954.815 2229.13,994.277 2249.84,1034.68 2270.54,1075.52 2291.25,1116.3 
  
  "/>
<polyline clip-path="url(#clip032)" style="stroke:#00a8cb; stroke-width:4; stroke-opacity:1; fill:none" points="
  241.157,388.887 261.865,387.733 282.573,386.498 303.281,385.536 323.989,385.148 344.697,385.871 365.405,387.869 386.113,391.592 406.821,397.253 427.529,405.147 
  448.237,415.258 468.945,427.891 489.653,442.841 510.361,460.245 531.069,479.861 551.777,501.466 572.485,524.831 593.193,549.628 613.901,575.495 634.609,601.952 
  655.317,628.304 676.026,654.178 696.734,679.05 717.442,702.081 738.15,723.086 758.858,741.328 779.566,756.48 800.274,767.727 820.982,775.456 841.69,778.931 
  862.398,778.241 883.106,773.514 903.814,764.956 924.522,752.653 945.23,737.336 965.938,719.426 986.646,699.406 1007.35,678.115 1028.06,656.229 1048.77,634.597 
  1069.48,613.946 1090.19,594.702 1110.89,577.832 1131.6,563.8 1152.31,552.654 1173.02,545.144 1193.73,540.965 1214.43,540.31 1235.14,542.872 1255.85,548.415 
  1276.56,556.311 1297.27,566.014 1317.97,576.86 1338.68,588.387 1359.39,599.458 1380.1,609.399 1400.81,617.818 1421.52,623.816 1442.22,627.339 1462.93,627.958 
  1483.64,625.644 1504.35,620.377 1525.06,612.61 1545.76,602.719 1566.47,591.299 1587.18,579.319 1607.89,567.08 1628.6,555.621 1649.3,545.705 1670.01,538.056 
  1690.72,533.177 1711.43,531.64 1732.14,533.672 1752.84,539.566 1773.55,549.267 1794.26,562.333 1814.97,578.489 1835.68,597.632 1856.38,619.108 1877.09,642.363 
  1897.8,666.588 1918.51,691.573 1939.22,716.509 1959.92,741.218 1980.63,764.966 2001.34,787.763 2022.05,809.297 2042.76,829.452 2063.46,848.168 2084.17,865.708 
  2104.88,882.115 2125.59,897.558 2146.3,912.126 2167,926.543 2187.71,940.715 2208.42,955.076 2229.13,969.932 2249.84,985.427 2270.54,1001.95 2291.25,1019.44 
  
  "/>
<polyline clip-path="url(#clip032)" style="stroke:#9b7fe8; stroke-width:4; stroke-opacity:1; fill:none" points="
  241.157,528.758 261.865,530.329 282.573,531.549 303.281,532.814 323.989,533.802 344.697,534.77 365.405,535.899 386.113,537.137 406.821,539.084 427.529,541.444 
  448.237,544.785 468.945,549.12 489.653,554.667 510.361,561.748 531.069,570.329 551.777,580.649 572.485,592.588 593.193,606.417 613.901,621.618 634.609,638.187 
  655.317,655.616 676.026,673.722 696.734,691.941 717.442,709.464 738.15,725.884 758.858,740.677 779.566,753.037 800.274,762.57 820.982,769.055 841.69,771.942 
  862.398,771.167 883.106,766.781 903.814,758.537 924.522,747.236 945.23,732.895 965.938,716.117 986.646,697.596 1007.35,677.929 1028.06,657.76 1048.77,637.773 
  1069.48,618.728 1090.19,600.979 1110.89,585.355 1131.6,571.959 1152.31,561.372 1173.02,553.53 1193.73,548.576 1214.43,546.34 1235.14,546.948 1255.85,549.827 
  1276.56,554.788 1297.27,561.166 1317.97,568.84 1338.68,577.03 1359.39,585.414 1380.1,593.545 1400.81,600.756 1421.52,606.814 1442.22,611.522 1462.93,614.751 
  1483.64,615.98 1504.35,615.662 1525.06,613.402 1545.76,609.579 1566.47,604.421 1587.18,598.349 1607.89,591.326 1628.6,583.875 1649.3,576.47 1670.01,569.507 
  1690.72,563.1 1711.43,558.058 1732.14,554.248 1752.84,551.989 1773.55,551.863 1794.26,553.647 1814.97,557.498 1835.68,563.711 1856.38,572.235 1877.09,582.74 
  1897.8,595.535 1918.51,610.255 1939.22,627.163 1959.92,645.773 1980.63,666.574 2001.34,689.026 2022.05,713.277 2042.76,739.443 2063.46,767.502 2084.17,797.396 
  2104.88,829.108 2125.59,862.686 2146.3,898.083 2167,935.264 2187.71,974.028 2208.42,1014 2229.13,1055.21 2249.84,1097.23 2270.54,1139.5 2291.25,1182 
  
  "/>
</svg>
