<?xml version="1.0" encoding="utf-8"?>
<svg xmlns="http://www.w3.org/2000/svg" xmlns:xlink="http://www.w3.org/1999/xlink" width="600" height="400" viewBox="0 0 2400 1600">
<defs>
  <clipPath id="clip900">
    <rect x="0" y="0" width="2400" height="1600"/>
  </clipPath>
</defs>
<path clip-path="url(#clip900)" d="
M0 1600 L2400 1600 L2400 0 L0 0  Z
  " fill="#ffffff" fill-rule="evenodd" fill-opacity="1"/>
<defs>
  <clipPath id="clip901">
    <rect x="480" y="0" width="1681" height="1600"/>
  </clipPath>
</defs>
<path clip-path="url(#clip900)" d="
M179.654 1486.45 L2352.76 1486.45 L2352.76 47.2441 L179.654 47.2441  Z
  " fill="#ffffff" fill-rule="evenodd" fill-opacity="1"/>
<defs>
  <clipPath id="clip902">
    <rect x="179" y="47" width="2174" height="1440"/>
  </clipPath>
</defs>
<polyline clip-path="url(#clip902)" style="stroke:#000000; stroke-width:2; stroke-opacity:0.1; fill:none" points="
  241.157,1486.45 241.157,47.2441 
  "/>
<polyline clip-path="url(#clip902)" style="stroke:#000000; stroke-width:2; stroke-opacity:0.1; fill:none" points="
  753.681,1486.45 753.681,47.2441 
  "/>
<polyline clip-path="url(#clip902)" style="stroke:#000000; stroke-width:2; stroke-opacity:0.1; fill:none" points="
  1266.2,1486.45 1266.2,47.2441 
  "/>
<polyline clip-path="url(#clip902)" style="stroke:#000000; stroke-width:2; stroke-opacity:0.1; fill:none" points="
  1778.73,1486.45 1778.73,47.2441 
  "/>
<polyline clip-path="url(#clip902)" style="stroke:#000000; stroke-width:2; stroke-opacity:0.1; fill:none" points="
  2291.25,1486.45 2291.25,47.2441 
  "/>
<polyline clip-path="url(#clip900)" style="stroke:#000000; stroke-width:4; stroke-opacity:1; fill:none" points="
  179.654,1486.45 2352.76,1486.45 
  "/>
<polyline clip-path="url(#clip900)" style="stroke:#000000; stroke-width:4; stroke-opacity:1; fill:none" points="
  241.157,1486.45 241.157,1469.18 
  "/>
<polyline clip-path="url(#clip900)" style="stroke:#000000; stroke-width:4; stroke-opacity:1; fill:none" points="
  753.681,1486.45 753.681,1469.18 
  "/>
<polyline clip-path="url(#clip900)" style="stroke:#000000; stroke-width:4; stroke-opacity:1; fill:none" points="
  1266.2,1486.45 1266.2,1469.18 
  "/>
<polyline clip-path="url(#clip900)" style="stroke:#000000; stroke-width:4; stroke-opacity:1; fill:none" points="
  1778.73,1486.45 1778.73,1469.18 
  "/>
<polyline clip-path="url(#clip900)" style="stroke:#000000; stroke-width:4; stroke-opacity:1; fill:none" points="
  2291.25,1486.45 2291.25,1469.18 
  "/>
<path clip-path="url(#clip900)" d="M 0 0 M212.569 1530.29 L242.245 1530.29 L242.245 1534.23 L212.569 1534.23 L212.569 1530.29 Z" fill="#000000" fill-rule="evenodd" fill-opacity="1" /><path clip-path="url(#clip900)" d="M 0 0 M260.161 1516.63 L248.356 1535.08 L260.161 1535.08 L260.161 1516.63 M258.934 1512.56 L264.814 1512.56 L264.814 1535.08 L269.744 1535.08 L269.744 1538.97 L264.814 1538.97 L264.814 1547.12 L260.161 1547.12 L260.161 1538.97 L244.559 1538.97 L244.559 1534.46 L258.934 1512.56 Z" fill="#000000" fill-rule="evenodd" fill-opacity="1" /><path clip-path="url(#clip900)" d="M 0 0 M726.135 1530.29 L755.81 1530.29 L755.81 1534.23 L726.135 1534.23 L726.135 1530.29 Z" fill="#000000" fill-rule="evenodd" fill-opacity="1" /><path clip-path="url(#clip900)" d="M 0 0 M764.907 1543.18 L781.227 1543.18 L781.227 1547.12 L759.282 1547.12 L759.282 1543.18 Q761.945 1540.43 766.528 1535.8 Q771.134 1531.15 772.315 1529.81 Q774.56 1527.28 775.44 1525.55 Q776.343 1523.79 776.343 1522.1 Q776.343 1519.34 774.398 1517.61 Q772.477 1515.87 769.375 1515.87 Q767.176 1515.87 764.722 1516.63 Q762.292 1517.4 759.514 1518.95 L759.514 1514.23 Q762.338 1513.09 764.792 1512.51 Q767.245 1511.93 769.282 1511.93 Q774.653 1511.93 777.847 1514.62 Q781.042 1517.31 781.042 1521.8 Q781.042 1523.93 780.231 1525.85 Q779.444 1527.74 777.338 1530.34 Q776.759 1531.01 773.657 1534.23 Q770.556 1537.42 764.907 1543.18 Z" fill="#000000" fill-rule="evenodd" fill-opacity="1" /><path clip-path="url(#clip900)" d="M 0 0 M1266.2 1515.64 Q1262.59 1515.64 1260.77 1519.2 Q1258.96 1522.75 1258.96 1529.87 Q1258.96 1536.98 1260.77 1540.55 Q1262.59 1544.09 1266.2 1544.09 Q1269.84 1544.09 1271.64 1540.55 Q1273.47 1536.98 1273.47 1529.87 Q1273.47 1522.75 1271.64 1519.2 Q1269.84 1515.64 1266.2 1515.64 M1266.2 1511.93 Q1272.01 1511.93 1275.07 1516.54 Q1278.15 1521.12 1278.15 1529.87 Q1278.15 1538.6 1275.07 1543.21 Q1272.01 1547.79 1266.2 1547.79 Q1260.39 1547.79 1257.32 1543.21 Q1254.26 1538.6 1254.26 1529.87 Q1254.26 1521.12 1257.32 1516.54 Q1260.39 1511.93 1266.2 1511.93 Z" fill="#000000" fill-rule="evenodd" fill-opacity="1" /><path clip-path="url(#clip900)" d="M 0 0 M1773.38 1543.18 L1789.7 1543.18 L1789.7 1547.12 L1767.76 1547.12 L1767.76 1543.18 Q1770.42 1540.43 1775 1535.8 Q1779.61 1531.15 1780.79 1529.81 Q1783.03 1527.28 1783.91 1525.55 Q1784.82 1523.79 1784.82 1522.1 Q1784.82 1519.34 1782.87 1517.61 Q1780.95 1515.87 1777.85 1515.87 Q1775.65 1515.87 1773.2 1516.63 Q1770.77 1517.4 1767.99 1518.95 L1767.99 1514.23 Q1770.81 1513.09 1773.27 1512.51 Q1775.72 1511.93 1777.76 1511.93 Q1783.13 1511.93 1786.32 1514.62 Q1789.52 1517.31 1789.52 1521.8 Q1789.52 1523.93 1788.71 1525.85 Q1787.92 1527.74 1785.81 1530.34 Q1785.23 1531.01 1782.13 1534.23 Q1779.03 1537.42 1773.38 1543.18 Z" fill="#000000" fill-rule="evenodd" fill-opacity="1" /><path clip-path="url(#clip900)" d="M 0 0 M2294.26 1516.63 L2282.46 1535.08 L2294.26 1535.08 L2294.26 1516.63 M2293.04 1512.56 L2298.92 1512.56 L2298.92 1535.08 L2303.85 1535.08 L2303.85 1538.97 L2298.92 1538.97 L2298.92 1547.12 L2294.26 1547.12 L2294.26 1538.97 L2278.66 1538.97 L2278.66 1534.46 L2293.04 1512.56 Z" fill="#000000" fill-rule="evenodd" fill-opacity="1" /><polyline clip-path="url(#clip902)" style="stroke:#000000; stroke-width:2; stroke-opacity:0.1; fill:none" points="
  179.654,1336.37 2352.76,1336.37 
  "/>
<polyline clip-path="url(#clip902)" style="stroke:#000000; stroke-width:2; stroke-opacity:0.1; fill:none" points="
  179.654,1051.61 2352.76,1051.61 
  "/>
<polyline clip-path="url(#clip902)" style="stroke:#000000; stroke-width:2; stroke-opacity:0.1; fill:none" points="
  179.654,766.846 2352.76,766.846 
  "/>
<polyline clip-path="url(#clip902)" style="stroke:#000000; stroke-width:2; stroke-opacity:0.1; fill:none" points="
  179.654,482.083 2352.76,482.083 
  "/>
<polyline clip-path="url(#clip902)" style="stroke:#000000; stroke-width:2; stroke-opacity:0.1; fill:none" points="
  179.654,197.321 2352.76,197.321 
  "/>
<polyline clip-path="url(#clip900)" style="stroke:#000000; stroke-width:4; stroke-opacity:1; fill:none" points="
  179.654,1486.45 179.654,47.2441 
  "/>
<polyline clip-path="url(#clip900)" style="stroke:#000000; stroke-width:4; stroke-opacity:1; fill:none" points="
  179.654,1336.37 205.731,1336.37 
  "/>
<polyline clip-path="url(#clip900)" style="stroke:#000000; stroke-width:4; stroke-opacity:1; fill:none" points="
  179.654,1051.61 205.731,1051.61 
  "/>
<polyline clip-path="url(#clip900)" style="stroke:#000000; stroke-width:4; stroke-opacity:1; fill:none" points="
  179.654,766.846 205.731,766.846 
  "/>
<polyline clip-path="url(#clip900)" style="stroke:#000000; stroke-width:4; stroke-opacity:1; fill:none" points="
  179.654,482.083 205.731,482.083 
  "/>
<polyline clip-path="url(#clip900)" style="stroke:#000000; stroke-width:4; stroke-opacity:1; fill:none" points="
  179.654,197.321 205.731,197.321 
  "/>
<path clip-path="url(#clip900)" d="M 0 0 M50.9921 1336.82 L80.6679 1336.82 L80.6679 1340.76 L50.9921 1340.76 L50.9921 1336.82 Z" fill="#000000" fill-rule="evenodd" fill-opacity="1" /><path clip-path="url(#clip900)" d="M 0 0 M85.7836 1319.09 L104.14 1319.09 L104.14 1323.03 L90.066 1323.03 L90.066 1331.5 Q91.0845 1331.15 92.103 1330.99 Q93.1215 1330.8 94.14 1330.8 Q99.927 1330.8 103.307 1333.98 Q106.686 1337.15 106.686 1342.56 Q106.686 1348.14 103.214 1351.24 Q99.7419 1354.32 93.4225 1354.32 Q91.2465 1354.32 88.978 1353.95 Q86.7327 1353.58 84.3253 1352.84 L84.3253 1348.14 Q86.4086 1349.28 88.6308 1349.83 Q90.853 1350.39 93.3299 1350.39 Q97.3345 1350.39 99.6724 1348.28 Q102.01 1346.17 102.01 1342.56 Q102.01 1338.95 99.6724 1336.85 Q97.3345 1334.74 93.3299 1334.74 Q91.4549 1334.74 89.5799 1335.16 Q87.728 1335.57 85.7836 1336.45 L85.7836 1319.09 Z" fill="#000000" fill-rule="evenodd" fill-opacity="1" /><path clip-path="url(#clip900)" d="M 0 0 M111.756 1347.77 L116.64 1347.77 L116.64 1353.65 L111.756 1353.65 L111.756 1347.77 Z" fill="#000000" fill-rule="evenodd" fill-opacity="1" /><path clip-path="url(#clip900)" d="M 0 0 M131.709 1322.17 Q128.098 1322.17 126.27 1325.73 Q124.464 1329.28 124.464 1336.41 Q124.464 1343.51 126.27 1347.08 Q128.098 1350.62 131.709 1350.62 Q135.344 1350.62 137.149 1347.08 Q138.978 1343.51 138.978 1336.41 Q138.978 1329.28 137.149 1325.73 Q135.344 1322.17 131.709 1322.17 M131.709 1318.47 Q137.519 1318.47 140.575 1323.07 Q143.654 1327.66 143.654 1336.41 Q143.654 1345.13 140.575 1349.74 Q137.519 1354.32 131.709 1354.32 Q125.899 1354.32 122.82 1349.74 Q119.765 1345.13 119.765 1336.41 Q119.765 1327.66 122.82 1323.07 Q125.899 1318.47 131.709 1318.47 Z" fill="#000000" fill-rule="evenodd" fill-opacity="1" /><path clip-path="url(#clip900)" d="M 0 0 M52.5893 1052.06 L82.2651 1052.06 L82.2651 1056 L52.5893 1056 L52.5893 1052.06 Z" fill="#000000" fill-rule="evenodd" fill-opacity="1" /><path clip-path="url(#clip900)" d="M 0 0 M91.3623 1064.95 L107.682 1064.95 L107.682 1068.89 L85.7373 1068.89 L85.7373 1064.95 Q88.3993 1062.2 92.9826 1057.57 Q97.5891 1052.92 98.7696 1051.57 Q101.015 1049.05 101.895 1047.31 Q102.797 1045.56 102.797 1043.87 Q102.797 1041.11 100.853 1039.37 Q98.9317 1037.64 95.8298 1037.64 Q93.6308 1037.64 91.1771 1038.4 Q88.7466 1039.17 85.9688 1040.72 L85.9688 1036 Q88.7928 1034.86 91.2465 1034.28 Q93.7002 1033.7 95.7373 1033.7 Q101.108 1033.7 104.302 1036.39 Q107.496 1039.07 107.496 1043.56 Q107.496 1045.69 106.686 1047.62 Q105.899 1049.51 103.793 1052.11 Q103.214 1052.78 100.112 1056 Q97.0104 1059.19 91.3623 1064.95 Z" fill="#000000" fill-rule="evenodd" fill-opacity="1" /><path clip-path="url(#clip900)" d="M 0 0 M112.751 1063.01 L117.635 1063.01 L117.635 1068.89 L112.751 1068.89 L112.751 1063.01 Z" fill="#000000" fill-rule="evenodd" fill-opacity="1" /><path clip-path="url(#clip900)" d="M 0 0 M122.751 1034.33 L141.107 1034.33 L141.107 1038.26 L127.033 1038.26 L127.033 1046.74 Q128.052 1046.39 129.07 1046.23 Q130.089 1046.04 131.107 1046.04 Q136.894 1046.04 140.274 1049.21 Q143.654 1052.38 143.654 1057.8 Q143.654 1063.38 140.181 1066.48 Q136.709 1069.56 130.39 1069.56 Q128.214 1069.56 125.945 1069.19 Q123.7 1068.82 121.293 1068.08 L121.293 1063.38 Q123.376 1064.51 125.598 1065.07 Q127.82 1065.62 130.297 1065.62 Q134.302 1065.62 136.64 1063.52 Q138.978 1061.41 138.978 1057.8 Q138.978 1054.19 136.64 1052.08 Q134.302 1049.98 130.297 1049.98 Q128.422 1049.98 126.547 1050.39 Q124.695 1050.81 122.751 1051.69 L122.751 1034.33 Z" fill="#000000" fill-rule="evenodd" fill-opacity="1" /><path clip-path="url(#clip900)" d="M 0 0 M94.7419 752.645 Q91.1308 752.645 89.3021 756.209 Q87.4966 759.751 87.4966 766.881 Q87.4966 773.987 89.3021 777.552 Q91.1308 781.094 94.7419 781.094 Q98.3761 781.094 100.182 777.552 Q102.01 773.987 102.01 766.881 Q102.01 759.751 100.182 756.209 Q98.3761 752.645 94.7419 752.645 M94.7419 748.941 Q100.552 748.941 103.608 753.547 Q106.686 758.131 106.686 766.881 Q106.686 775.608 103.608 780.214 Q100.552 784.797 94.7419 784.797 Q88.9317 784.797 85.8531 780.214 Q82.7975 775.608 82.7975 766.881 Q82.7975 758.131 85.8531 753.547 Q88.9317 748.941 94.7419 748.941 Z" fill="#000000" fill-rule="evenodd" fill-opacity="1" /><path clip-path="url(#clip900)" d="M 0 0 M111.756 778.246 L116.64 778.246 L116.64 784.126 L111.756 784.126 L111.756 778.246 Z" fill="#000000" fill-rule="evenodd" fill-opacity="1" /><path clip-path="url(#clip900)" d="M 0 0 M131.709 752.645 Q128.098 752.645 126.27 756.209 Q124.464 759.751 124.464 766.881 Q124.464 773.987 126.27 777.552 Q128.098 781.094 131.709 781.094 Q135.344 781.094 137.149 777.552 Q138.978 773.987 138.978 766.881 Q138.978 759.751 137.149 756.209 Q135.344 752.645 131.709 752.645 M131.709 748.941 Q137.519 748.941 140.575 753.547 Q143.654 758.131 143.654 766.881 Q143.654 775.608 140.575 780.214 Q137.519 784.797 131.709 784.797 Q125.899 784.797 122.82 780.214 Q119.765 775.608 119.765 766.881 Q119.765 758.131 122.82 753.547 Q125.899 748.941 131.709 748.941 Z" fill="#000000" fill-rule="evenodd" fill-opacity="1" /><path clip-path="url(#clip900)" d="M 0 0 M91.3623 495.428 L107.682 495.428 L107.682 499.363 L85.7373 499.363 L85.7373 495.428 Q88.3993 492.674 92.9826 488.044 Q97.5891 483.391 98.7696 482.049 Q101.015 479.526 101.895 477.79 Q102.797 476.03 102.797 474.34 Q102.797 471.586 100.853 469.85 Q98.9317 468.114 95.8298 468.114 Q93.6308 468.114 91.1771 468.878 Q88.7466 469.641 85.9688 471.192 L85.9688 466.47 Q88.7928 465.336 91.2465 464.757 Q93.7002 464.178 95.7373 464.178 Q101.108 464.178 104.302 466.864 Q107.496 469.549 107.496 474.04 Q107.496 476.169 106.686 478.09 Q105.899 479.989 103.793 482.581 Q103.214 483.252 100.112 486.47 Q97.0104 489.664 91.3623 495.428 Z" fill="#000000" fill-rule="evenodd" fill-opacity="1" /><path clip-path="url(#clip900)" d="M 0 0 M112.751 493.484 L117.635 493.484 L117.635 499.363 L112.751 499.363 L112.751 493.484 Z" fill="#000000" fill-rule="evenodd" fill-opacity="1" /><path clip-path="url(#clip900)" d="M 0 0 M122.751 464.803 L141.107 464.803 L141.107 468.739 L127.033 468.739 L127.033 477.211 Q128.052 476.864 129.07 476.702 Q130.089 476.516 131.107 476.516 Q136.894 476.516 140.274 479.688 Q143.654 482.859 143.654 488.276 Q143.654 493.854 140.181 496.956 Q136.709 500.035 130.39 500.035 Q128.214 500.035 125.945 499.664 Q123.7 499.294 121.293 498.553 L121.293 493.854 Q123.376 494.989 125.598 495.544 Q127.82 496.1 130.297 496.1 Q134.302 496.1 136.64 493.993 Q138.978 491.887 138.978 488.276 Q138.978 484.664 136.64 482.558 Q134.302 480.452 130.297 480.452 Q128.422 480.452 126.547 480.868 Q124.695 481.285 122.751 482.164 L122.751 464.803 Z" fill="#000000" fill-rule="evenodd" fill-opacity="1" /><path clip-path="url(#clip900)" d="M 0 0 M85.7836 180.041 L104.14 180.041 L104.14 183.976 L90.066 183.976 L90.066 192.448 Q91.0845 192.101 92.103 191.939 Q93.1215 191.754 94.14 191.754 Q99.927 191.754 103.307 194.925 Q106.686 198.096 106.686 203.513 Q106.686 209.092 103.214 212.194 Q99.7419 215.272 93.4225 215.272 Q91.2465 215.272 88.978 214.902 Q86.7327 214.532 84.3253 213.791 L84.3253 209.092 Q86.4086 210.226 88.6308 210.782 Q90.853 211.337 93.3299 211.337 Q97.3345 211.337 99.6724 209.231 Q102.01 207.124 102.01 203.513 Q102.01 199.902 99.6724 197.796 Q97.3345 195.689 93.3299 195.689 Q91.4549 195.689 89.5799 196.106 Q87.728 196.522 85.7836 197.402 L85.7836 180.041 Z" fill="#000000" fill-rule="evenodd" fill-opacity="1" /><path clip-path="url(#clip900)" d="M 0 0 M111.756 208.721 L116.64 208.721 L116.64 214.601 L111.756 214.601 L111.756 208.721 Z" fill="#000000" fill-rule="evenodd" fill-opacity="1" /><path clip-path="url(#clip900)" d="M 0 0 M131.709 183.12 Q128.098 183.12 126.27 186.684 Q124.464 190.226 124.464 197.356 Q124.464 204.462 126.27 208.027 Q128.098 211.569 131.709 211.569 Q135.344 211.569 137.149 208.027 Q138.978 204.462 138.978 197.356 Q138.978 190.226 137.149 186.684 Q135.344 183.12 131.709 183.12 M131.709 179.416 Q137.519 179.416 140.575 184.022 Q143.654 188.606 143.654 197.356 Q143.654 206.083 140.575 210.689 Q137.519 215.272 131.709 215.272 Q125.899 215.272 122.82 210.689 Q119.765 206.083 119.765 197.356 Q119.765 188.606 122.82 184.022 Q125.899 179.416 131.709 179.416 Z" fill="#000000" fill-rule="evenodd" fill-opacity="1" /><path clip-path="url(#clip902)" d="
M241.157 534.476 L261.865 543.68 L282.573 552.885 L303.281 562.089 L323.989 571.293 L344.697 580.498 L365.405 589.702 L386.113 598.907 L406.821 608.111 L427.529 617.316 
  L448.237 626.52 L468.945 635.725 L489.653 644.929 L510.361 654.133 L531.069 663.338 L551.777 672.542 L572.485 681.747 L593.193 690.951 L613.901 700.156 L634.609 709.36 
  L655.317 718.565 L676.026 727.769 L696.734 736.973 L717.442 746.178 L738.15 755.382 L758.858 764.587 L779.566 773.791 L800.274 782.996 L820.982 792.2 L841.69 801.405 
  L862.398 810.609 L883.106 819.813 L903.814 829.018 L924.522 838.222 L945.23 847.427 L965.938 856.631 L986.646 865.836 L1007.35 875.04 L1028.06 884.245 L1048.77 893.449 
  L1069.48 902.653 L1090.19 911.858 L1110.89 921.062 L1131.6 930.267 L1152.31 939.471 L1173.02 948.676 L1193.73 957.88 L1214.43 967.085 L1235.14 976.289 L1255.85 985.493 
  L1276.56 994.698 L1297.27 1003.9 L1317.97 1013.11 L1338.68 1022.31 L1359.39 1031.52 L1380.1 1040.72 L1400.81 1049.92 L1421.52 1059.13 L1442.22 1068.33 L1462.93 1077.54 
  L1483.64 1086.74 L1504.35 1095.95 L1525.06 1105.15 L1545.76 1114.36 L1566.47 1123.56 L1587.18 1132.76 L1607.89 1141.97 L1628.6 1151.17 L1649.3 1160.38 L1670.01 1169.58 
  L1690.72 1178.79 L1711.43 1187.99 L1732.14 1197.2 L1752.84 1206.4 L1773.55 1215.6 L1794.26 1224.81 L1814.97 1234.01 L1835.68 1243.22 L1856.38 1252.42 L1877.09 1261.63 
  L1897.8 1270.83 L1918.51 1280.04 L1939.22 1289.24 L1959.92 1298.44 L1980.63 1307.65 L2001.34 1316.85 L2022.05 1326.06 L2042.76 1335.26 L2063.46 1344.47 L2084.17 1353.67 
  L2104.88 1362.88 L2125.59 1372.08 L2146.3 1381.28 L2167 1390.49 L2187.71 1399.69 L2208.42 1408.9 L2229.13 1418.1 L2249.84 1427.31 L2270.54 1436.51 L2291.25 1445.72 
  L2291.25 999.216 L2270.54 990.012 L2249.84 980.807 L2229.13 971.603 L2208.42 962.399 L2187.71 953.194 L2167 943.99 L2146.3 934.785 L2125.59 925.581 L2104.88 916.376 
  L2084.17 907.172 L2063.46 897.967 L2042.76 888.763 L2022.05 879.559 L2001.34 870.354 L1980.63 861.15 L1959.92 851.945 L1939.22 842.741 L1918.51 833.536 L1897.8 824.332 
  L1877.09 815.127 L1856.38 805.923 L1835.68 796.719 L1814.97 787.514 L1794.26 778.31 L1773.55 769.105 L1752.84 759.901 L1732.14 750.696 L1711.43 741.492 L1690.72 732.287 
  L1670.01 723.083 L1649.3 713.879 L1628.6 704.674 L1607.89 695.47 L1587.18 686.265 L1566.47 677.061 L1545.76 667.856 L1525.06 658.652 L1504.35 649.447 L1483.64 640.243 
  L1462.93 631.039 L1442.22 621.834 L1421.52 612.63 L1400.81 603.425 L1380.1 594.221 L1359.39 585.016 L1338.68 575.812 L1317.97 566.607 L1297.27 557.403 L1276.56 548.199 
  L1255.85 538.994 L1235.14 529.79 L1214.43 520.585 L1193.73 511.381 L1173.02 502.176 L1152.31 492.972 L1131.6 483.767 L1110.89 474.563 L1090.19 465.359 L1069.48 456.154 
  L1048.77 446.95 L1028.06 437.745 L1007.35 428.541 L986.646 419.336 L965.938 410.132 L945.23 400.927 L924.522 391.723 L903.814 382.519 L883.106 373.314 L862.398 364.11 
  L841.69 354.905 L820.982 345.701 L800.274 336.496 L779.566 327.292 L758.858 318.087 L738.15 308.883 L717.442 299.679 L696.734 290.474 L676.026 281.27 L655.317 272.065 
  L634.609 262.861 L613.901 253.656 L593.193 244.452 L572.485 235.247 L551.777 226.043 L531.069 216.839 L510.361 207.634 L489.653 198.43 L468.945 189.225 L448.237 180.021 
  L427.529 170.816 L406.821 161.612 L386.113 152.407 L365.405 143.203 L344.697 133.998 L323.989 124.794 L303.281 115.59 L282.573 106.385 L261.865 97.1807 L241.157 87.9763 
   Z
  " fill="#009af9" fill-rule="evenodd" fill-opacity="0.25"/>
<polyline clip-path="url(#clip902)" style="stroke:#009af9; stroke-width:12; stroke-opacity:1; fill:none" points="
  241.157,311.226 261.865,320.43 282.573,329.635 303.281,338.839 323.989,348.044 344.697,357.248 365.405,366.453 386.113,375.657 406.821,384.862 427.529,394.066 
  448.237,403.27 468.945,412.475 489.653,421.679 510.361,430.884 531.069,440.088 551.777,449.293 572.485,458.497 593.193,467.702 613.901,476.906 634.609,486.11 
  655.317,495.315 676.026,504.519 696.734,513.724 717.442,522.928 738.15,532.133 758.858,541.337 779.566,550.542 800.274,559.746 820.982,568.95 841.69,578.155 
  862.398,587.359 883.106,596.564 903.814,605.768 924.522,614.973 945.23,624.177 965.938,633.382 986.646,642.586 1007.35,651.79 1028.06,660.995 1048.77,670.199 
  1069.48,679.404 1090.19,688.608 1110.89,697.813 1131.6,707.017 1152.31,716.222 1173.02,725.426 1193.73,734.63 1214.43,743.835 1235.14,753.039 1255.85,762.244 
  1276.56,771.448 1297.27,780.653 1317.97,789.857 1338.68,799.062 1359.39,808.266 1380.1,817.47 1400.81,826.675 1421.52,835.879 1442.22,845.084 1462.93,854.288 
  1483.64,863.493 1504.35,872.697 1525.06,881.902 1545.76,891.106 1566.47,900.31 1587.18,909.515 1607.89,918.719 1628.6,927.924 1649.3,937.128 1670.01,946.333 
  1690.72,955.537 1711.43,964.742 1732.14,973.946 1752.84,983.15 1773.55,992.355 1794.26,1001.56 1814.97,1010.76 1835.68,1019.97 1856.38,1029.17 1877.09,1038.38 
  1897.8,1047.58 1918.51,1056.79 1939.22,1065.99 1959.92,1075.19 1980.63,1084.4 2001.34,1093.6 2022.05,1102.81 2042.76,1112.01 2063.46,1121.22 2084.17,1130.42 
  2104.88,1139.63 2125.59,1148.83 2146.3,1158.03 2167,1167.24 2187.71,1176.44 2208.42,1185.65 2229.13,1194.85 2249.84,1204.06 2270.54,1213.26 2291.25,1222.47 
  
  "/>
<polyline clip-path="url(#clip902)" style="stroke:#e26f46; stroke-width:4; stroke-opacity:1; fill:none" points="
  241.157,277.363 261.865,283.164 282.573,289.877 303.281,297.478 323.989,306.357 344.697,316.127 365.405,326.133 386.113,337.849 406.821,349.753 427.529,363.132 
  448.237,376.826 468.945,391.319 489.653,406.329 510.361,421.62 531.069,437.164 551.777,452.924 572.485,468.354 593.193,483.562 613.901,498.438 634.609,513.105 
  655.317,526.939 676.026,540.519 696.734,553.958 717.442,566.648 738.15,579.149 758.858,591.407 779.566,603.617 800.274,615.36 820.982,627.214 841.69,639.041 
  862.398,650.949 883.106,662.633 903.814,674.32 924.522,686.442 945.23,698.255 965.938,709.869 986.646,721.485 1007.35,732.793 1028.06,743.847 1048.77,754.747 
  1069.48,765.32 1090.19,775.932 1110.89,786.384 1131.6,796.711 1152.31,807.05 1173.02,817.434 1193.73,827.56 1214.43,837.672 1235.14,847.794 1255.85,857.996 
  1276.56,868.07 1297.27,877.553 1317.97,887.28 1338.68,896.029 1359.39,904.539 1380.1,912.149 1400.81,919.131 1421.52,925.328 1442.22,931.161 1462.93,936.157 
  1483.64,940.958 1504.35,944.828 1525.06,949.272 1545.76,953.614 1566.47,958.568 1587.18,964.442 1607.89,971.132 1628.6,979.344 1649.3,989.409 1670.01,1000.9 
  1690.72,1014.79 1711.43,1030.56 1732.14,1048.44 1752.84,1067.96 1773.55,1089.05 1794.26,1111.96 1814.97,1136.03 1835.68,1160.79 1856.38,1185.63 1877.09,1210.68 
  1897.8,1234.88 1918.51,1257.83 1939.22,1278.84 1959.92,1298.22 1980.63,1314.51 2001.34,1328.23 2022.05,1338.73 2042.76,1345.5 2063.46,1348.86 2084.17,1348.83 
  2104.88,1345.47 2125.59,1338.87 2146.3,1329.46 2167,1317.61 2187.71,1303.8 2208.42,1288.45 2229.13,1272.2 2249.84,1255.16 2270.54,1238.03 2291.25,1221.45 
  
  "/>
<polyline clip-path="url(#clip902)" style="stroke:#3da44d; stroke-width:4; stroke-opacity:1; fill:none" points="
  241.157,293.435 261.865,310.181 282.573,328.794 303.281,348.108 323.989,368.526 344.697,389.628 365.405,411.605 386.113,434.408 406.821,456.928 427.529,479.912 
  448.237,502.337 468.945,524.865 489.653,546.52 510.361,567.625 531.069,587.597 551.777,606.662 572.485,624.411 593.193,640.507 613.901,655.091 634.609,668.368 
  655.317,679.988 676.026,689.861 696.734,698.671 717.442,705.744 738.15,712.091 758.858,717.631 779.566,722.793 800.274,727.45 820.982,733.069 841.69,738.769 
  862.398,745.979 883.106,754.972 903.814,765.507 924.522,778.6 945.23,793.543 965.938,811.262 986.646,830.981 1007.35,852.753 1028.06,876.78 1048.77,902.167 
  1069.48,928.309 1090.19,955.168 1110.89,981.481 1131.6,1006.67 1152.31,1030.57 1173.02,1052.17 1193.73,1071.04 1214.43,1087.09 1235.14,1099 1255.85,1107.8 
  1276.56,1112.9 1297.27,1114.52 1317.97,1112.92 1338.68,1108.31 1359.39,1101.23 1380.1,1092.42 1400.81,1082.17 1421.52,1070.87 1442.22,1059.63 1462.93,1048.82 
  1483.64,1038.45 1504.35,1029.4 1525.06,1021.9 1545.76,1015.43 1566.47,1010.86 1587.18,1008.12 1607.89,1006.81 1628.6,1006.96 1649.3,1008.47 1670.01,1011.01 
  1690.72,1014.29 1711.43,1018.6 1732.14,1023.19 1752.84,1028.24 1773.55,1033.2 1794.26,1038.42 1814.97,1043.47 1835.68,1048.72 1856.38,1053.79 1877.09,1058.46 
  1897.8,1063.07 1918.51,1067.45 1939.22,1071.49 1959.92,1075 1980.63,1078.68 2001.34,1081.69 2022.05,1084.3 2042.76,1086.57 2063.46,1088.23 2084.17,1089.49 
  2104.88,1090.12 2125.59,1090.23 2146.3,1089.39 2167,1088.21 2187.71,1086.57 2208.42,1084.04 2229.13,1081.38 2249.84,1078.17 2270.54,1074.68 2291.25,1071.04 
  
  "/>
<polyline clip-path="url(#clip902)" style="stroke:#c271d2; stroke-width:4; stroke-opacity:1; fill:none" points="
  241.157,482.327 261.865,494.399 282.573,506.704 303.281,518.688 323.989,529.766 344.697,540.89 365.405,550.969 386.113,560.207 406.821,568.531 427.529,575.975 
  448.237,582.111 468.945,587.917 489.653,592.796 510.361,597.357 531.069,602.046 551.777,606.378 572.485,611.768 593.193,617.753 613.901,625.098 634.609,634.341 
  655.317,644.661 676.026,657.057 696.734,671.064 717.442,686.761 738.15,703.782 758.858,721.826 779.566,740.887 800.274,759.769 820.982,778.5 841.69,796.742 
  862.398,813.495 883.106,829.024 903.814,842.644 924.522,854.316 945.23,863.621 965.938,870.619 986.646,875.9 1007.35,878.69 1028.06,880.106 1048.77,879.634 
  1069.48,878.318 1090.19,875.882 1110.89,873.227 1131.6,870.657 1152.31,868.337 1173.02,866.846 1193.73,865.972 1214.43,866.746 1235.14,868.714 1255.85,872.413 
  1276.56,878.059 1297.27,885.177 1317.97,893.881 1338.68,904.244 1359.39,915.882 1380.1,929.382 1400.81,943.779 1421.52,959.094 1442.22,975.115 1462.93,991.709 
  1483.64,1008.6 1504.35,1026.03 1525.06,1043.34 1545.76,1060.82 1566.47,1079.37 1587.18,1097.59 1607.89,1116.44 1628.6,1135.55 1649.3,1155.25 1670.01,1175.6 
  1690.72,1196.31 1711.43,1217.58 1732.14,1238.54 1752.84,1260.17 1773.55,1280.99 1794.26,1301.63 1814.97,1320.79 1835.68,1339.02 1856.38,1355.36 1877.09,1369.73 
  1897.8,1381.44 1918.51,1390.45 1939.22,1396.67 1959.92,1399.75 1980.63,1400.16 2001.34,1397.31 2022.05,1391.45 2042.76,1382.88 2063.46,1372.02 2084.17,1358.86 
  2104.88,1344.45 2125.59,1328.1 2146.3,1311.32 2167,1293.87 2187.71,1276.51 2208.42,1259.56 2229.13,1243.59 2249.84,1228.73 2270.54,1215.54 2291.25,1204.07 
  
  "/>
<polyline clip-path="url(#clip902)" style="stroke:#ac8d18; stroke-width:4; stroke-opacity:1; fill:none" points="
  241.157,175.765 261.865,183.518 282.573,191.064 303.281,199.18 323.989,206.48 344.697,213.024 365.405,218.127 386.113,222.174 406.821,224.651 427.529,225.537 
  448.237,224.669 468.945,222.277 489.653,218.167 510.361,213.502 531.069,207.955 551.777,202.199 572.485,197.093 593.193,192.548 613.901,189.508 634.609,188.056 
  655.317,188.821 676.026,192.199 696.734,199.118 717.442,208.99 738.15,222.048 758.858,238.628 779.566,259.03 800.274,282.043 820.982,308.411 841.69,337.201 
  862.398,368.542 883.106,402.128 903.814,437.058 924.522,473.61 945.23,511.141 965.938,549.205 986.646,587.363 1007.35,625.18 1028.06,662.873 1048.77,699.407 
  1069.48,735.269 1090.19,769.181 1110.89,801.75 1131.6,832.018 1152.31,860.194 1173.02,886.019 1193.73,908.972 1214.43,929.58 1235.14,947.359 1255.85,962.547 
  1276.56,974.745 1297.27,984.471 1317.97,992.091 1338.68,997.259 1359.39,1000.76 1380.1,1002.49 1400.81,1003.4 1421.52,1003.65 1442.22,1003.5 1462.93,1002.9 
  1483.64,1002.89 1504.35,1003.58 1525.06,1005.05 1545.76,1007.58 1566.47,1010.97 1587.18,1015.64 1607.89,1021.36 1628.6,1027.81 1649.3,1035.11 1670.01,1043.05 
  1690.72,1051.37 1711.43,1059.31 1732.14,1067.26 1752.84,1074.45 1773.55,1081.02 1794.26,1086.58 1814.97,1091.14 1835.68,1094.48 1856.38,1096.56 1877.09,1097.7 
  1897.8,1097.99 1918.51,1097.21 1939.22,1095.79 1959.92,1093.98 1980.63,1092.13 2001.34,1090.39 2022.05,1088.58 2042.76,1087.72 2063.46,1087.58 2084.17,1088.57 
  2104.88,1091.32 2125.59,1095.27 2146.3,1101.63 2167,1109.85 2187.71,1119.95 2208.42,1132.51 2229.13,1147.91 2249.84,1164.82 2270.54,1184.38 2291.25,1205.59 
  
  "/>
<polyline clip-path="url(#clip902)" style="stroke:#00a9ad; stroke-width:4; stroke-opacity:1; fill:none" points="
  241.157,303.128 261.865,317.967 282.573,330.788 303.281,341.905 323.989,351.128 344.697,358.568 365.405,364.023 386.113,368.057 406.821,370.624 427.529,371.798 
  448.237,371.769 468.945,371.194 489.653,370.282 510.361,369.014 531.069,368.563 551.777,368.426 572.485,369.257 593.193,371.183 613.901,374.848 634.609,379.996 
  655.317,386.695 676.026,395.303 696.734,405.485 717.442,417.258 738.15,430.378 758.858,444.72 779.566,459.787 800.274,475.168 820.982,491.137 841.69,506.853 
  862.398,521.611 883.106,536.023 903.814,549.231 924.522,561.029 945.23,571.397 965.938,580.362 986.646,587.528 1007.35,593.397 1028.06,597.081 1048.77,599.125 
  1069.48,599.72 1090.19,598.879 1110.89,596.644 1131.6,593.138 1152.31,588.958 1173.02,583.708 1193.73,577.971 1214.43,572.221 1235.14,566.507 1255.85,561.506 
  1276.56,557.654 1297.27,555.472 1317.97,555.38 1338.68,557.596 1359.39,562.748 1380.1,571.473 1400.81,583.087 1421.52,598.43 1442.22,617.445 1462.93,639.53 
  1483.64,664.665 1504.35,692.12 1525.06,721.523 1545.76,752.637 1566.47,784.568 1587.18,816.872 1607.89,848.353 1628.6,879.411 1649.3,908.52 1670.01,936.518 
  1690.72,962.378 1711.43,986.311 1732.14,1008.51 1752.84,1028.52 1773.55,1046.81 1794.26,1063.38 1814.97,1078.88 1835.68,1093.09 1856.38,1106.15 1877.09,1118.37 
  1897.8,1129.64 1918.51,1139.86 1939.22,1149.44 1959.92,1157.77 1980.63,1164.43 2001.34,1170.45 2022.05,1174.98 2042.76,1177.89 2063.46,1179.4 2084.17,1179.22 
  2104.88,1177.91 2125.59,1175.13 2146.3,1171.79 2167,1167.01 2187.71,1162.27 2208.42,1157.34 2229.13,1152.55 2249.84,1147.77 2270.54,1143.7 2291.25,1140.4 
  
  "/>
<polyline clip-path="url(#clip902)" style="stroke:#ed5d92; stroke-width:4; stroke-opacity:1; fill:none" points="
  241.157,221.563 261.865,231.31 282.573,243.842 303.281,259.639 323.989,278.479 344.697,299.347 365.405,322.111 386.113,346.768 406.821,372.085 427.529,397.831 
  448.237,423.208 468.945,447.459 489.653,469.81 510.361,490.136 531.069,508.11 551.777,523.34 572.485,535.103 593.193,544.352 613.901,550.584 634.609,554.087 
  655.317,555.95 676.026,556.057 696.734,555.208 717.442,553.809 738.15,552.501 758.858,552.175 779.566,552.775 800.274,555.004 820.982,558.956 841.69,564.768 
  862.398,572.73 883.106,582.284 903.814,593.945 924.522,606.804 945.23,621.295 965.938,636.457 986.646,652.517 1007.35,668.558 1028.06,684.785 1048.77,700.641 
  1069.48,716.278 1090.19,731.198 1110.89,745.859 1131.6,759.751 1152.31,772.695 1173.02,785.598 1193.73,797.791 1214.43,809.913 1235.14,821.43 1255.85,832.555 
  1276.56,843.716 1297.27,854.459 1317.97,865.142 1338.68,875.503 1359.39,885.593 1380.1,895.278 1400.81,904.714 1421.52,913.735 1442.22,922.231 1462.93,930.426 
  1483.64,938.437 1504.35,946.119 1525.06,953.366 1545.76,961.023 1566.47,969.001 1587.18,976.854 1607.89,985.441 1628.6,994.068 1649.3,1003.83 1670.01,1013.91 
  1690.72,1024.44 1711.43,1035.41 1732.14,1046.63 1752.84,1057.67 1773.55,1069.08 1794.26,1079.74 1814.97,1089.84 1835.68,1099.31 1856.38,1108.1 1877.09,1115.8 
  1897.8,1122.79 1918.51,1129.01 1939.22,1134.33 1959.92,1138.95 1980.63,1143.06 2001.34,1146.95 2022.05,1150.77 2042.76,1154.64 2063.46,1158.82 2084.17,1163.34 
  2104.88,1168.77 2125.59,1174.83 2146.3,1181.64 2167,1189.35 2187.71,1198.08 2208.42,1207.59 2229.13,1217.99 2249.84,1229.16 2270.54,1240.99 2291.25,1253.78 
  
  "/>
<polyline clip-path="url(#clip902)" style="stroke:#c68125; stroke-width:4; stroke-opacity:1; fill:none" points="
  241.157,475.35 261.865,484.827 282.573,493.493 303.281,502.014 323.989,510.162 344.697,518.559 365.405,527.448 386.113,536.686 406.821,546.976 427.529,557.695 
  448.237,569.817 468.945,582.932 489.653,596.984 510.361,612.209 531.069,628.129 551.777,644.914 572.485,661.803 593.193,679.104 613.901,695.502 634.609,711.587 
  655.317,726.219 676.026,739.063 696.734,749.853 717.442,758.493 738.15,764.41 758.858,767.258 779.566,767.296 800.274,764.309 820.982,758.957 841.69,750.881 
  862.398,740.927 883.106,729.322 903.814,716.828 924.522,703.764 945.23,690.891 965.938,678.262 986.646,667.008 1007.35,657.148 1028.06,648.836 1048.77,642.261 
  1069.48,637.898 1090.19,635.304 1110.89,634.597 1131.6,635.977 1152.31,638.731 1173.02,643.032 1193.73,648.338 1214.43,654.49 1235.14,661.546 1255.85,668.247 
  1276.56,675.874 1297.27,683.245 1317.97,690.072 1338.68,696.855 1359.39,703.38 1380.1,709.244 1400.81,714.055 1421.52,718.701 1442.22,722.312 1462.93,725.65 
  1483.64,728.555 1504.35,731.262 1525.06,733.562 1545.76,736.34 1566.47,739.873 1587.18,743.924 1607.89,749.584 1628.6,756.331 1649.3,764.914 1670.01,775.012 
  1690.72,787.42 1711.43,802.243 1732.14,819.126 1752.84,837.31 1773.55,858.056 1794.26,880.424 1814.97,904.104 1835.68,929.254 1856.38,954.687 1877.09,980.742 
  1897.8,1007.43 1918.51,1033.22 1939.22,1058.81 1959.92,1083.29 1980.63,1107.04 2001.34,1129.42 2022.05,1150.38 2042.76,1169.55 2063.46,1187.28 2084.17,1203.16 
  2104.88,1217.23 2125.59,1229.73 2146.3,1239.95 2167,1248.45 2187.71,1254.92 2208.42,1259.43 2229.13,1262.29 2249.84,1263.11 2270.54,1262.28 2291.25,1259.55 
  
  "/>
<polyline clip-path="url(#clip902)" style="stroke:#00a98d; stroke-width:4; stroke-opacity:1; fill:none" points="
  241.157,88.9469 261.865,97.4064 282.573,106.616 303.281,116.716 323.989,127.623 344.697,138.701 365.405,150.01 386.113,161.387 406.821,172.912 427.529,184.108 
  448.237,195.221 468.945,206.372 489.653,217.639 510.361,229.005 531.069,240.324 551.777,251.416 572.485,262.545 593.193,273.863 613.901,285.374 634.609,296.648 
  655.317,307.901 676.026,319.219 696.734,330.764 717.442,342.39 738.15,354.487 758.858,366.619 779.566,379.749 800.274,393.399 820.982,407.863 841.69,423.269 
  862.398,440.21 883.106,458.482 903.814,477.713 924.522,498.839 945.23,520.591 965.938,543.611 986.646,567.411 1007.35,591.525 1028.06,615.929 1048.77,640.172 
  1069.48,663.792 1090.19,685.907 1110.89,707.168 1131.6,725.932 1152.31,743.277 1173.02,758.126 1193.73,770.906 1214.43,781.091 1235.14,789.353 1255.85,795.329 
  1276.56,799.816 1297.27,802.819 1317.97,804.332 1338.68,805.533 1359.39,806.334 1380.1,806.937 1400.81,807.612 1421.52,808.877 1442.22,811.047 1462.93,813.301 
  1483.64,816.565 1504.35,820.505 1525.06,825.364 1545.76,830.399 1566.47,836.577 1587.18,842.822 1607.89,850.052 1628.6,857.666 1649.3,866.303 1670.01,875.661 
  1690.72,885.863 1711.43,897.797 1732.14,910.955 1752.84,925.635 1773.55,942.247 1794.26,960.366 1814.97,980.691 1835.68,1002.47 1856.38,1026.22 1877.09,1050.97 
  1897.8,1077.27 1918.51,1104.05 1939.22,1131.67 1959.92,1158.98 1980.63,1186.04 2001.34,1212.22 2022.05,1237.23 2042.76,1261.26 2063.46,1283.24 2084.17,1303.72 
  2104.88,1322.28 2125.59,1339.03 2146.3,1353.55 2167,1366.78 2187.71,1378.24 2208.42,1388.47 2229.13,1397.43 2249.84,1405.45 2270.54,1412.5 2291.25,1418.64 
  
  "/>
<polyline clip-path="url(#clip902)" style="stroke:#8e971d; stroke-width:4; stroke-opacity:1; fill:none" points="
  241.157,370.277 261.865,365.088 282.573,358.96 303.281,352.118 323.989,344.684 344.697,337.237 365.405,329.687 386.113,322.512 406.821,315.814 427.529,309.924 
  448.237,304.658 468.945,300.514 489.653,297.142 510.361,294.917 531.069,293.653 551.777,293.26 572.485,293.744 593.193,295.082 613.901,297.363 634.609,300.647 
  655.317,304.56 676.026,309.326 696.734,315.153 717.442,321.407 738.15,328.649 758.858,336.633 779.566,345.761 800.274,355.058 820.982,365.789 841.69,377.094 
  862.398,389.159 883.106,402.123 903.814,416.15 924.522,430.79 945.23,446.586 965.938,463.591 986.646,481.568 1007.35,500.686 1028.06,520.736 1048.77,541.935 
  1069.48,564.313 1090.19,587.145 1110.89,610.828 1131.6,635.218 1152.31,659.305 1173.02,683.668 1193.73,707.28 1214.43,730.133 1235.14,751.693 1255.85,771.939 
  1276.56,790.492 1297.27,807.185 1317.97,821.869 1338.68,835.177 1359.39,846.6 1380.1,856.229 1400.81,864.763 1421.52,871.748 1442.22,878.015 1462.93,883.569 
  1483.64,888.753 1504.35,893.434 1525.06,897.962 1545.76,902.386 1566.47,906.785 1587.18,911.767 1607.89,916.584 1628.6,921.653 1649.3,927.025 1670.01,932.837 
  1690.72,938.981 1711.43,945.738 1732.14,953.031 1752.84,961.298 1773.55,970.971 1794.26,981.623 1814.97,993.084 1835.68,1006.23 1856.38,1020.78 1877.09,1036.68 
  1897.8,1053.36 1918.51,1071.26 1939.22,1089.56 1959.92,1108.43 1980.63,1126.83 2001.34,1144.94 2022.05,1162.1 2042.76,1177.92 2063.46,1192 2084.17,1204.41 
  2104.88,1214.77 2125.59,1222.93 2146.3,1228.67 2167,1232.9 2187.71,1235.12 2208.42,1235.9 2229.13,1235.63 2249.84,1234.51 2270.54,1233.27 2291.25,1231.9 
  
  "/>
<polyline clip-path="url(#clip902)" style="stroke:#00a8cb; stroke-width:4; stroke-opacity:1; fill:none" points="
  241.157,501.497 261.865,499.79 282.573,497.252 303.281,494.305 323.989,490.181 344.697,485.215 365.405,479.455 386.113,472.514 406.821,465.209 427.529,456.696 
  448.237,447.708 468.945,437.998 489.653,427.693 510.361,417.214 531.069,406.402 551.777,395.705 572.485,385.024 593.193,375.261 613.901,366.038 634.609,358.021 
  655.317,351.119 676.026,346.06 696.734,343.302 717.442,342.72 738.15,344.826 758.858,350.3 779.566,358.924 800.274,370.79 820.982,386.479 841.69,405.599 
  862.398,428.217 883.106,454.383 903.814,482.971 924.522,514.511 945.23,547.932 965.938,582.665 986.646,618.23 1007.35,653.936 1028.06,689.015 1048.77,722.749 
  1069.48,754.79 1090.19,784.123 1110.89,810.9 1131.6,834.249 1152.31,854.513 1173.02,871.253 1193.73,884.632 1214.43,894.457 1235.14,901.551 1255.85,905.787 
  1276.56,907.801 1297.27,907.413 1317.97,905.711 1338.68,902.581 1359.39,898.644 1380.1,894.367 1400.81,889.561 1421.52,884.548 1442.22,879.657 1462.93,875.385 
  1483.64,871.069 1504.35,867.772 1525.06,864.938 1545.76,862.903 1566.47,861.853 1587.18,862.295 1607.89,863.753 1628.6,866.576 1649.3,871.089 1670.01,877.524 
  1690.72,885.458 1711.43,895.895 1732.14,908.221 1752.84,922.252 1773.55,938.664 1794.26,956.715 1814.97,976.151 1835.68,997.238 1856.38,1019.53 1877.09,1042.13 
  1897.8,1065.36 1918.51,1088.34 1939.22,1111.36 1959.92,1133.41 1980.63,1155.22 2001.34,1175.69 2022.05,1195.07 2042.76,1213.54 2063.46,1231.06 2084.17,1247.58 
  2104.88,1263.2 2125.59,1278.22 2146.3,1292.79 2167,1307.17 2187.71,1321.38 2208.42,1335.27 2229.13,1349.41 2249.84,1363.62 2270.54,1377.55 2291.25,1391.84 
  
  "/>
</svg>
