<?xml version="1.0" encoding="utf-8"?>
<svg xmlns="http://www.w3.org/2000/svg" xmlns:xlink="http://www.w3.org/1999/xlink" width="600" height="400" viewBox="0 0 2400 1600">
<defs>
  <clipPath id="clip850">
    <rect x="0" y="0" width="2400" height="1600"/>
  </clipPath>
</defs>
<path clip-path="url(#clip850)" d="
M0 1600 L2400 1600 L2400 0 L0 0  Z
  " fill="#ffffff" fill-rule="evenodd" fill-opacity="1"/>
<defs>
  <clipPath id="clip851">
    <rect x="480" y="0" width="1681" height="1600"/>
  </clipPath>
</defs>
<path clip-path="url(#clip850)" d="
M179.654 1486.45 L2352.76 1486.45 L2352.76 47.2441 L179.654 47.2441  Z
  " fill="#ffffff" fill-rule="evenodd" fill-opacity="1"/>
<defs>
  <clipPath id="clip852">
    <rect x="179" y="47" width="2174" height="1440"/>
  </clipPath>
</defs>
<polyline clip-path="url(#clip852)" style="stroke:#000000; stroke-width:2; stroke-opacity:0.1; fill:none" points="
  241.157,1486.45 241.157,47.2441 
  "/>
<polyline clip-path="url(#clip852)" style="stroke:#000000; stroke-width:2; stroke-opacity:0.1; fill:none" points="
  753.681,1486.45 753.681,47.2441 
  "/>
<polyline clip-path="url(#clip852)" style="stroke:#000000; stroke-width:2; stroke-opacity:0.1; fill:none" points="
  1266.2,1486.45 1266.2,47.2441 
  "/>
<polyline clip-path="url(#clip852)" style="stroke:#000000; stroke-width:2; stroke-opacity:0.1; fill:none" points="
  1778.73,1486.45 1778.73,47.2441 
  "/>
<polyline clip-path="url(#clip852)" style="stroke:#000000; stroke-width:2; stroke-opacity:0.1; fill:none" points="
  2291.25,1486.45 2291.25,47.2441 
  "/>
<polyline clip-path="url(#clip850)" style="stroke:#000000; stroke-width:4; stroke-opacity:1; fill:none" points="
  179.654,1486.45 2352.76,1486.45 
  "/>
<polyline clip-path="url(#clip850)" style="stroke:#000000; stroke-width:4; stroke-opacity:1; fill:none" points="
  241.157,1486.45 241.157,1469.18 
  "/>
<polyline clip-path="url(#clip850)" style="stroke:#000000; stroke-width:4; stroke-opacity:1; fill:none" points="
  753.681,1486.45 753.681,1469.18 
  "/>
<polyline clip-path="url(#clip850)" style="stroke:#000000; stroke-width:4; stroke-opacity:1; fill:none" points="
  1266.2,1486.45 1266.2,1469.18 
  "/>
<polyline clip-path="url(#clip850)" style="stroke:#000000; stroke-width:4; stroke-opacity:1; fill:none" points="
  1778.73,1486.45 1778.73,1469.18 
  "/>
<polyline clip-path="url(#clip850)" style="stroke:#000000; stroke-width:4; stroke-opacity:1; fill:none" points="
  2291.25,1486.45 2291.25,1469.18 
  "/>
<path clip-path="url(#clip850)" d="M 0 0 M212.569 1530.29 L242.245 1530.29 L242.245 1534.23 L212.569 1534.23 L212.569 1530.29 Z" fill="#000000" fill-rule="evenodd" fill-opacity="1" /><path clip-path="url(#clip850)" d="M 0 0 M260.161 1516.63 L248.356 1535.08 L260.161 1535.08 L260.161 1516.63 M258.934 1512.56 L264.814 1512.56 L264.814 1535.08 L269.744 1535.08 L269.744 1538.97 L264.814 1538.97 L264.814 1547.12 L260.161 1547.12 L260.161 1538.97 L244.559 1538.97 L244.559 1534.46 L258.934 1512.56 Z" fill="#000000" fill-rule="evenodd" fill-opacity="1" /><path clip-path="url(#clip850)" d="M 0 0 M726.135 1530.29 L755.81 1530.29 L755.81 1534.23 L726.135 1534.23 L726.135 1530.29 Z" fill="#000000" fill-rule="evenodd" fill-opacity="1" /><path clip-path="url(#clip850)" d="M 0 0 M764.907 1543.18 L781.227 1543.18 L781.227 1547.12 L759.282 1547.12 L759.282 1543.18 Q761.945 1540.43 766.528 1535.8 Q771.134 1531.15 772.315 1529.81 Q774.56 1527.28 775.44 1525.55 Q776.343 1523.79 776.343 1522.1 Q776.343 1519.34 774.398 1517.61 Q772.477 1515.87 769.375 1515.87 Q767.176 1515.87 764.722 1516.63 Q762.292 1517.4 759.514 1518.95 L759.514 1514.23 Q762.338 1513.09 764.792 1512.51 Q767.245 1511.93 769.282 1511.93 Q774.653 1511.93 777.847 1514.62 Q781.042 1517.31 781.042 1521.8 Q781.042 1523.93 780.231 1525.85 Q779.444 1527.74 777.338 1530.34 Q776.759 1531.01 773.657 1534.23 Q770.556 1537.42 764.907 1543.18 Z" fill="#000000" fill-rule="evenodd" fill-opacity="1" /><path clip-path="url(#clip850)" d="M 0 0 M1266.2 1515.64 Q1262.59 1515.64 1260.77 1519.2 Q1258.96 1522.75 1258.96 1529.87 Q1258.96 1536.98 1260.77 1540.55 Q1262.59 1544.09 1266.2 1544.09 Q1269.84 1544.09 1271.64 1540.55 Q1273.47 1536.98 1273.47 1529.87 Q1273.47 1522.75 1271.64 1519.2 Q1269.84 1515.64 1266.2 1515.64 M1266.2 1511.93 Q1272.01 1511.93 1275.07 1516.54 Q1278.15 1521.12 1278.15 1529.87 Q1278.15 1538.6 1275.07 1543.21 Q1272.01 1547.79 1266.2 1547.79 Q1260.39 1547.79 1257.32 1543.21 Q1254.26 1538.6 1254.26 1529.87 Q1254.26 1521.12 1257.32 1516.54 Q1260.39 1511.93 1266.2 1511.93 Z" fill="#000000" fill-rule="evenodd" fill-opacity="1" /><path clip-path="url(#clip850)" d="M 0 0 M1773.38 1543.18 L1789.7 1543.18 L1789.7 1547.12 L1767.76 1547.12 L1767.76 1543.18 Q1770.42 1540.43 1775 1535.8 Q1779.61 1531.15 1780.79 1529.81 Q1783.03 1527.28 1783.91 1525.55 Q1784.82 1523.79 1784.82 1522.1 Q1784.82 1519.34 1782.87 1517.61 Q1780.95 1515.87 1777.85 1515.87 Q1775.65 1515.87 1773.2 1516.63 Q1770.77 1517.4 1767.99 1518.95 L1767.99 1514.23 Q1770.81 1513.09 1773.27 1512.51 Q1775.72 1511.93 1777.76 1511.93 Q1783.13 1511.93 1786.32 1514.62 Q1789.52 1517.31 1789.52 1521.8 Q1789.52 1523.93 1788.71 1525.85 Q1787.92 1527.74 1785.81 1530.34 Q1785.23 1531.01 1782.13 1534.23 Q1779.03 1537.42 1773.38 1543.18 Z" fill="#000000" fill-rule="evenodd" fill-opacity="1" /><path clip-path="url(#clip850)" d="M 0 0 M2294.26 1516.63 L2282.46 1535.08 L2294.26 1535.08 L2294.26 1516.63 M2293.04 1512.56 L2298.92 1512.56 L2298.92 1535.08 L2303.85 1535.08 L2303.85 1538.97 L2298.92 1538.97 L2298.92 1547.12 L2294.26 1547.12 L2294.26 1538.97 L2278.66 1538.97 L2278.66 1534.46 L2293.04 1512.56 Z" fill="#000000" fill-rule="evenodd" fill-opacity="1" /><polyline clip-path="url(#clip852)" style="stroke:#000000; stroke-width:2; stroke-opacity:0.1; fill:none" points="
  179.654,1336.37 2352.76,1336.37 
  "/>
<polyline clip-path="url(#clip852)" style="stroke:#000000; stroke-width:2; stroke-opacity:0.1; fill:none" points="
  179.654,1051.61 2352.76,1051.61 
  "/>
<polyline clip-path="url(#clip852)" style="stroke:#000000; stroke-width:2; stroke-opacity:0.1; fill:none" points="
  179.654,766.846 2352.76,766.846 
  "/>
<polyline clip-path="url(#clip852)" style="stroke:#000000; stroke-width:2; stroke-opacity:0.1; fill:none" points="
  179.654,482.083 2352.76,482.083 
  "/>
<polyline clip-path="url(#clip852)" style="stroke:#000000; stroke-width:2; stroke-opacity:0.1; fill:none" points="
  179.654,197.321 2352.76,197.321 
  "/>
<polyline clip-path="url(#clip850)" style="stroke:#000000; stroke-width:4; stroke-opacity:1; fill:none" points="
  179.654,1486.45 179.654,47.2441 
  "/>
<polyline clip-path="url(#clip850)" style="stroke:#000000; stroke-width:4; stroke-opacity:1; fill:none" points="
  179.654,1336.37 205.731,1336.37 
  "/>
<polyline clip-path="url(#clip850)" style="stroke:#000000; stroke-width:4; stroke-opacity:1; fill:none" points="
  179.654,1051.61 205.731,1051.61 
  "/>
<polyline clip-path="url(#clip850)" style="stroke:#000000; stroke-width:4; stroke-opacity:1; fill:none" points="
  179.654,766.846 205.731,766.846 
  "/>
<polyline clip-path="url(#clip850)" style="stroke:#000000; stroke-width:4; stroke-opacity:1; fill:none" points="
  179.654,482.083 205.731,482.083 
  "/>
<polyline clip-path="url(#clip850)" style="stroke:#000000; stroke-width:4; stroke-opacity:1; fill:none" points="
  179.654,197.321 205.731,197.321 
  "/>
<path clip-path="url(#clip850)" d="M 0 0 M50.9921 1336.82 L80.6679 1336.82 L80.6679 1340.76 L50.9921 1340.76 L50.9921 1336.82 Z" fill="#000000" fill-rule="evenodd" fill-opacity="1" /><path clip-path="url(#clip850)" d="M 0 0 M85.7836 1319.09 L104.14 1319.09 L104.14 1323.03 L90.066 1323.03 L90.066 1331.5 Q91.0845 1331.15 92.103 1330.99 Q93.1215 1330.8 94.14 1330.8 Q99.927 1330.8 103.307 1333.98 Q106.686 1337.15 106.686 1342.56 Q106.686 1348.14 103.214 1351.24 Q99.7419 1354.32 93.4225 1354.32 Q91.2465 1354.32 88.978 1353.95 Q86.7327 1353.58 84.3253 1352.84 L84.3253 1348.14 Q86.4086 1349.28 88.6308 1349.83 Q90.853 1350.39 93.3299 1350.39 Q97.3345 1350.39 99.6724 1348.28 Q102.01 1346.17 102.01 1342.56 Q102.01 1338.95 99.6724 1336.85 Q97.3345 1334.74 93.3299 1334.74 Q91.4549 1334.74 89.5799 1335.16 Q87.728 1335.57 85.7836 1336.45 L85.7836 1319.09 Z" fill="#000000" fill-rule="evenodd" fill-opacity="1" /><path clip-path="url(#clip850)" d="M 0 0 M111.756 1347.77 L116.64 1347.77 L116.64 1353.65 L111.756 1353.65 L111.756 1347.77 Z" fill="#000000" fill-rule="evenodd" fill-opacity="1" /><path clip-path="url(#clip850)" d="M 0 0 M131.709 1322.17 Q128.098 1322.17 126.27 1325.73 Q124.464 1329.28 124.464 1336.41 Q124.464 1343.51 126.27 1347.08 Q128.098 1350.62 131.709 1350.62 Q135.344 1350.62 137.149 1347.08 Q138.978 1343.51 138.978 1336.41 Q138.978 1329.28 137.149 1325.73 Q135.344 1322.17 131.709 1322.17 M131.709 1318.47 Q137.519 1318.47 140.575 1323.07 Q143.654 1327.66 143.654 1336.41 Q143.654 1345.13 140.575 1349.74 Q137.519 1354.32 131.709 1354.32 Q125.899 1354.32 122.82 1349.74 Q119.765 1345.13 119.765 1336.41 Q119.765 1327.66 122.82 1323.07 Q125.899 1318.47 131.709 1318.47 Z" fill="#000000" fill-rule="evenodd" fill-opacity="1" /><path clip-path="url(#clip850)" d="M 0 0 M52.5893 1052.06 L82.2651 1052.06 L82.2651 1056 L52.5893 1056 L52.5893 1052.06 Z" fill="#000000" fill-rule="evenodd" fill-opacity="1" /><path clip-path="url(#clip850)" d="M 0 0 M91.3623 1064.95 L107.682 1064.95 L107.682 1068.89 L85.7373 1068.89 L85.7373 1064.95 Q88.3993 1062.2 92.9826 1057.57 Q97.5891 1052.92 98.7696 1051.57 Q101.015 1049.05 101.895 1047.31 Q102.797 1045.56 102.797 1043.87 Q102.797 1041.11 100.853 1039.37 Q98.9317 1037.64 95.8298 1037.64 Q93.6308 1037.64 91.1771 1038.4 Q88.7466 1039.17 85.9688 1040.72 L85.9688 1036 Q88.7928 1034.86 91.2465 1034.28 Q93.7002 1033.7 95.7373 1033.7 Q101.108 1033.7 104.302 1036.39 Q107.496 1039.07 107.496 1043.56 Q107.496 1045.69 106.686 1047.62 Q105.899 1049.51 103.793 1052.11 Q103.214 1052.78 100.112 1056 Q97.0104 1059.19 91.3623 1064.95 Z" fill="#000000" fill-rule="evenodd" fill-opacity="1" /><path clip-path="url(#clip850)" d="M 0 0 M112.751 1063.01 L117.635 1063.01 L117.635 1068.89 L112.751 1068.89 L112.751 1063.01 Z" fill="#000000" fill-rule="evenodd" fill-opacity="1" /><path clip-path="url(#clip850)" d="M 0 0 M122.751 1034.33 L141.107 1034.33 L141.107 1038.26 L127.033 1038.26 L127.033 1046.74 Q128.052 1046.39 129.07 1046.23 Q130.089 1046.04 131.107 1046.04 Q136.894 1046.04 140.274 1049.21 Q143.654 1052.38 143.654 1057.8 Q143.654 1063.38 140.181 1066.48 Q136.709 1069.56 130.39 1069.56 Q128.214 1069.56 125.945 1069.19 Q123.7 1068.82 121.293 1068.08 L121.293 1063.38 Q123.376 1064.51 125.598 1065.07 Q127.82 1065.62 130.297 1065.62 Q134.302 1065.62 136.64 1063.52 Q138.978 1061.41 138.978 1057.8 Q138.978 1054.19 136.64 1052.08 Q134.302 1049.98 130.297 1049.98 Q128.422 1049.98 126.547 1050.39 Q124.695 1050.81 122.751 1051.69 L122.751 1034.33 Z" fill="#000000" fill-rule="evenodd" fill-opacity="1" /><path clip-path="url(#clip850)" d="M 0 0 M94.7419 752.645 Q91.1308 752.645 89.3021 756.209 Q87.4966 759.751 87.4966 766.881 Q87.4966 773.987 89.3021 777.552 Q91.1308 781.094 94.7419 781.094 Q98.3761 781.094 100.182 777.552 Q102.01 773.987 102.01 766.881 Q102.01 759.751 100.182 756.209 Q98.3761 752.645 94.7419 752.645 M94.7419 748.941 Q100.552 748.941 103.608 753.547 Q106.686 758.131 106.686 766.881 Q106.686 775.608 103.608 780.214 Q100.552 784.797 94.7419 784.797 Q88.9317 784.797 85.8531 780.214 Q82.7975 775.608 82.7975 766.881 Q82.7975 758.131 85.8531 753.547 Q88.9317 748.941 94.7419 748.941 Z" fill="#000000" fill-rule="evenodd" fill-opacity="1" /><path clip-path="url(#clip850)" d="M 0 0 M111.756 778.246 L116.64 778.246 L116.64 784.126 L111.756 784.126 L111.756 778.246 Z" fill="#000000" fill-rule="evenodd" fill-opacity="1" /><path clip-path="url(#clip850)" d="M 0 0 M131.709 752.645 Q128.098 752.645 126.27 756.209 Q124.464 759.751 124.464 766.881 Q124.464 773.987 126.27 777.552 Q128.098 781.094 131.709 781.094 Q135.344 781.094 137.149 777.552 Q138.978 773.987 138.978 766.881 Q138.978 759.751 137.149 756.209 Q135.344 752.645 131.709 752.645 M131.709 748.941 Q137.519 748.941 140.575 753.547 Q143.654 758.131 143.654 766.881 Q143.654 775.608 140.575 780.214 Q137.519 784.797 131.709 784.797 Q125.899 784.797 122.82 780.214 Q119.765 775.608 119.765 766.881 Q119.765 758.131 122.82 753.547 Q125.899 748.941 131.709 748.941 Z" fill="#000000" fill-rule="evenodd" fill-opacity="1" /><path clip-path="url(#clip850)" d="M 0 0 M91.3623 495.428 L107.682 495.428 L107.682 499.363 L85.7373 499.363 L85.7373 495.428 Q88.3993 492.674 92.9826 488.044 Q97.5891 483.391 98.7696 482.049 Q101.015 479.526 101.895 477.79 Q102.797 476.03 102.797 474.34 Q102.797 471.586 100.853 469.85 Q98.9317 468.114 95.8298 468.114 Q93.6308 468.114 91.1771 468.878 Q88.7466 469.641 85.9688 471.192 L85.9688 466.47 Q88.7928 465.336 91.2465 464.757 Q93.7002 464.178 95.7373 464.178 Q101.108 464.178 104.302 466.864 Q107.496 469.549 107.496 474.04 Q107.496 476.169 106.686 478.09 Q105.899 479.989 103.793 482.581 Q103.214 483.252 100.112 486.47 Q97.0104 489.664 91.3623 495.428 Z" fill="#000000" fill-rule="evenodd" fill-opacity="1" /><path clip-path="url(#clip850)" d="M 0 0 M112.751 493.484 L117.635 493.484 L117.635 499.363 L112.751 499.363 L112.751 493.484 Z" fill="#000000" fill-rule="evenodd" fill-opacity="1" /><path clip-path="url(#clip850)" d="M 0 0 M122.751 464.803 L141.107 464.803 L141.107 468.739 L127.033 468.739 L127.033 477.211 Q128.052 476.864 129.07 476.702 Q130.089 476.516 131.107 476.516 Q136.894 476.516 140.274 479.688 Q143.654 482.859 143.654 488.276 Q143.654 493.854 140.181 496.956 Q136.709 500.035 130.39 500.035 Q128.214 500.035 125.945 499.664 Q123.7 499.294 121.293 498.553 L121.293 493.854 Q123.376 494.989 125.598 495.544 Q127.82 496.1 130.297 496.1 Q134.302 496.1 136.64 493.993 Q138.978 491.887 138.978 488.276 Q138.978 484.664 136.64 482.558 Q134.302 480.452 130.297 480.452 Q128.422 480.452 126.547 480.868 Q124.695 481.285 122.751 482.164 L122.751 464.803 Z" fill="#000000" fill-rule="evenodd" fill-opacity="1" /><path clip-path="url(#clip850)" d="M 0 0 M85.7836 180.041 L104.14 180.041 L104.14 183.976 L90.066 183.976 L90.066 192.448 Q91.0845 192.101 92.103 191.939 Q93.1215 191.754 94.14 191.754 Q99.927 191.754 103.307 194.925 Q106.686 198.096 106.686 203.513 Q106.686 209.092 103.214 212.194 Q99.7419 215.272 93.4225 215.272 Q91.2465 215.272 88.978 214.902 Q86.7327 214.532 84.3253 213.791 L84.3253 209.092 Q86.4086 210.226 88.6308 210.782 Q90.853 211.337 93.3299 211.337 Q97.3345 211.337 99.6724 209.231 Q102.01 207.124 102.01 203.513 Q102.01 199.902 99.6724 197.796 Q97.3345 195.689 93.3299 195.689 Q91.4549 195.689 89.5799 196.106 Q87.728 196.522 85.7836 197.402 L85.7836 180.041 Z" fill="#000000" fill-rule="evenodd" fill-opacity="1" /><path clip-path="url(#clip850)" d="M 0 0 M111.756 208.721 L116.64 208.721 L116.64 214.601 L111.756 214.601 L111.756 208.721 Z" fill="#000000" fill-rule="evenodd" fill-opacity="1" /><path clip-path="url(#clip850)" d="M 0 0 M131.709 183.12 Q128.098 183.12 126.27 186.684 Q124.464 190.226 124.464 197.356 Q124.464 204.462 126.27 208.027 Q128.098 211.569 131.709 211.569 Q135.344 211.569 137.149 208.027 Q138.978 204.462 138.978 197.356 Q138.978 190.226 137.149 186.684 Q135.344 183.12 131.709 183.12 M131.709 179.416 Q137.519 179.416 140.575 184.022 Q143.654 188.606 143.654 197.356 Q143.654 206.083 140.575 210.689 Q137.519 215.272 131.709 215.272 Q125.899 215.272 122.82 210.689 Q119.765 206.083 119.765 197.356 Q119.765 188.606 122.82 184.022 Q125.899 179.416 131.709 179.416 Z" fill="#000000" fill-rule="evenodd" fill-opacity="1" /><path clip-path="url(#clip852)" d="
M241.157 534.476 L261.865 543.68 L282.573 552.885 L303.281 562.089 L323.989 571.293 L344.697 580.498 L365.405 589.702 L386.113 598.907 L406.821 608.111 L427.529 617.316 
  L448.237 626.52 L468.945 635.725 L489.653 644.929 L510.361 654.133 L531.069 663.338 L551.777 672.542 L572.485 681.747 L593.193 690.951 L613.901 700.156 L634.609 709.36 
  L655.317 718.565 L676.026 727.769 L696.734 736.973 L717.442 746.178 L738.15 755.382 L758.858 764.587 L779.566 773.791 L800.274 782.996 L820.982 792.2 L841.69 801.405 
  L862.398 810.609 L883.106 819.813 L903.814 829.018 L924.522 838.222 L945.23 847.427 L965.938 856.631 L986.646 865.836 L1007.35 875.04 L1028.06 884.245 L1048.77 893.449 
  L1069.48 902.653 L1090.19 911.858 L1110.89 921.062 L1131.6 930.267 L1152.31 939.471 L1173.02 948.676 L1193.73 957.88 L1214.43 967.085 L1235.14 976.289 L1255.85 985.493 
  L1276.56 994.698 L1297.27 1003.9 L1317.97 1013.11 L1338.68 1022.31 L1359.39 1031.52 L1380.1 1040.72 L1400.81 1049.92 L1421.52 1059.13 L1442.22 1068.33 L1462.93 1077.54 
  L1483.64 1086.74 L1504.35 1095.95 L1525.06 1105.15 L1545.76 1114.36 L1566.47 1123.56 L1587.18 1132.76 L1607.89 1141.97 L1628.6 1151.17 L1649.3 1160.38 L1670.01 1169.58 
  L1690.72 1178.79 L1711.43 1187.99 L1732.14 1197.2 L1752.84 1206.4 L1773.55 1215.6 L1794.26 1224.81 L1814.97 1234.01 L1835.68 1243.22 L1856.38 1252.42 L1877.09 1261.63 
  L1897.8 1270.83 L1918.51 1280.04 L1939.22 1289.24 L1959.92 1298.44 L1980.63 1307.65 L2001.34 1316.85 L2022.05 1326.06 L2042.76 1335.26 L2063.46 1344.47 L2084.17 1353.67 
  L2104.88 1362.88 L2125.59 1372.08 L2146.3 1381.28 L2167 1390.49 L2187.71 1399.69 L2208.42 1408.9 L2229.13 1418.1 L2249.84 1427.31 L2270.54 1436.51 L2291.25 1445.72 
  L2291.25 999.216 L2270.54 990.012 L2249.84 980.807 L2229.13 971.603 L2208.42 962.399 L2187.71 953.194 L2167 943.99 L2146.3 934.785 L2125.59 925.581 L2104.88 916.376 
  L2084.17 907.172 L2063.46 897.967 L2042.76 888.763 L2022.05 879.559 L2001.34 870.354 L1980.63 861.15 L1959.92 851.945 L1939.22 842.741 L1918.51 833.536 L1897.8 824.332 
  L1877.09 815.127 L1856.38 805.923 L1835.68 796.719 L1814.97 787.514 L1794.26 778.31 L1773.55 769.105 L1752.84 759.901 L1732.14 750.696 L1711.43 741.492 L1690.72 732.287 
  L1670.01 723.083 L1649.3 713.879 L1628.6 704.674 L1607.89 695.47 L1587.18 686.265 L1566.47 677.061 L1545.76 667.856 L1525.06 658.652 L1504.35 649.447 L1483.64 640.243 
  L1462.93 631.039 L1442.22 621.834 L1421.52 612.63 L1400.81 603.425 L1380.1 594.221 L1359.39 585.016 L1338.68 575.812 L1317.97 566.607 L1297.27 557.403 L1276.56 548.199 
  L1255.85 538.994 L1235.14 529.79 L1214.43 520.585 L1193.73 511.381 L1173.02 502.176 L1152.31 492.972 L1131.6 483.767 L1110.89 474.563 L1090.19 465.359 L1069.48 456.154 
  L1048.77 446.95 L1028.06 437.745 L1007.35 428.541 L986.646 419.336 L965.938 410.132 L945.23 400.927 L924.522 391.723 L903.814 382.519 L883.106 373.314 L862.398 364.11 
  L841.69 354.905 L820.982 345.701 L800.274 336.496 L779.566 327.292 L758.858 318.087 L738.15 308.883 L717.442 299.679 L696.734 290.474 L676.026 281.27 L655.317 272.065 
  L634.609 262.861 L613.901 253.656 L593.193 244.452 L572.485 235.247 L551.777 226.043 L531.069 216.839 L510.361 207.634 L489.653 198.43 L468.945 189.225 L448.237 180.021 
  L427.529 170.816 L406.821 161.612 L386.113 152.407 L365.405 143.203 L344.697 133.998 L323.989 124.794 L303.281 115.59 L282.573 106.385 L261.865 97.1807 L241.157 87.9763 
   Z
  " fill="#009af9" fill-rule="evenodd" fill-opacity="0.25"/>
<polyline clip-path="url(#clip852)" style="stroke:#009af9; stroke-width:12; stroke-opacity:1; fill:none" points="
  241.157,311.226 261.865,320.43 282.573,329.635 303.281,338.839 323.989,348.044 344.697,357.248 365.405,366.453 386.113,375.657 406.821,384.862 427.529,394.066 
  448.237,403.27 468.945,412.475 489.653,421.679 510.361,430.884 531.069,440.088 551.777,449.293 572.485,458.497 593.193,467.702 613.901,476.906 634.609,486.11 
  655.317,495.315 676.026,504.519 696.734,513.724 717.442,522.928 738.15,532.133 758.858,541.337 779.566,550.542 800.274,559.746 820.982,568.95 841.69,578.155 
  862.398,587.359 883.106,596.564 903.814,605.768 924.522,614.973 945.23,624.177 965.938,633.382 986.646,642.586 1007.35,651.79 1028.06,660.995 1048.77,670.199 
  1069.48,679.404 1090.19,688.608 1110.89,697.813 1131.6,707.017 1152.31,716.222 1173.02,725.426 1193.73,734.63 1214.43,743.835 1235.14,753.039 1255.85,762.244 
  1276.56,771.448 1297.27,780.653 1317.97,789.857 1338.68,799.062 1359.39,808.266 1380.1,817.47 1400.81,826.675 1421.52,835.879 1442.22,845.084 1462.93,854.288 
  1483.64,863.493 1504.35,872.697 1525.06,881.902 1545.76,891.106 1566.47,900.31 1587.18,909.515 1607.89,918.719 1628.6,927.924 1649.3,937.128 1670.01,946.333 
  1690.72,955.537 1711.43,964.742 1732.14,973.946 1752.84,983.15 1773.55,992.355 1794.26,1001.56 1814.97,1010.76 1835.68,1019.97 1856.38,1029.17 1877.09,1038.38 
  1897.8,1047.58 1918.51,1056.79 1939.22,1065.99 1959.92,1075.19 1980.63,1084.4 2001.34,1093.6 2022.05,1102.81 2042.76,1112.01 2063.46,1121.22 2084.17,1130.42 
  2104.88,1139.63 2125.59,1148.83 2146.3,1158.03 2167,1167.24 2187.71,1176.44 2208.42,1185.65 2229.13,1194.85 2249.84,1204.06 2270.54,1213.26 2291.25,1222.47 
  
  "/>
</svg>
