<?xml version="1.0" encoding="utf-8"?>
<svg xmlns="http://www.w3.org/2000/svg" xmlns:xlink="http://www.w3.org/1999/xlink" width="600" height="400" viewBox="0 0 2400 1600">
<defs>
  <clipPath id="clip9000">
    <rect x="0" y="0" width="2400" height="1600"/>
  </clipPath>
</defs>
<path clip-path="url(#clip9000)" d="
M0 1600 L2400 1600 L2400 0 L0 0  Z
  " fill="#ffffff" fill-rule="evenodd" fill-opacity="1"/>
<defs>
  <clipPath id="clip9001">
    <rect x="480" y="0" width="1681" height="1600"/>
  </clipPath>
</defs>
<path clip-path="url(#clip9000)" d="
M211.024 1423.18 L2352.76 1423.18 L2352.76 123.472 L211.024 123.472  Z
  " fill="#ffffff" fill-rule="evenodd" fill-opacity="1"/>
<defs>
  <clipPath id="clip9002">
    <rect x="211" y="123" width="2143" height="1301"/>
  </clipPath>
</defs>
<polyline clip-path="url(#clip9002)" style="stroke:#000000; stroke-width:2; stroke-opacity:0.1; fill:none" points="
  550.329,1423.18 550.329,123.472 
  "/>
<polyline clip-path="url(#clip9002)" style="stroke:#000000; stroke-width:2; stroke-opacity:0.1; fill:none" points="
  898.691,1423.18 898.691,123.472 
  "/>
<polyline clip-path="url(#clip9002)" style="stroke:#000000; stroke-width:2; stroke-opacity:0.1; fill:none" points="
  1247.05,1423.18 1247.05,123.472 
  "/>
<polyline clip-path="url(#clip9002)" style="stroke:#000000; stroke-width:2; stroke-opacity:0.1; fill:none" points="
  1595.42,1423.18 1595.42,123.472 
  "/>
<polyline clip-path="url(#clip9002)" style="stroke:#000000; stroke-width:2; stroke-opacity:0.1; fill:none" points="
  1943.78,1423.18 1943.78,123.472 
  "/>
<polyline clip-path="url(#clip9002)" style="stroke:#000000; stroke-width:2; stroke-opacity:0.1; fill:none" points="
  2292.14,1423.18 2292.14,123.472 
  "/>
<polyline clip-path="url(#clip9002)" style="stroke:#000000; stroke-width:2; stroke-opacity:0.1; fill:none" points="
  211.024,1128.69 2352.76,1128.69 
  "/>
<polyline clip-path="url(#clip9002)" style="stroke:#000000; stroke-width:2; stroke-opacity:0.1; fill:none" points="
  211.024,805.207 2352.76,805.207 
  "/>
<polyline clip-path="url(#clip9002)" style="stroke:#000000; stroke-width:2; stroke-opacity:0.1; fill:none" points="
  211.024,481.725 2352.76,481.725 
  "/>
<polyline clip-path="url(#clip9002)" style="stroke:#000000; stroke-width:2; stroke-opacity:0.1; fill:none" points="
  211.024,158.244 2352.76,158.244 
  "/>
<polyline clip-path="url(#clip9000)" style="stroke:#000000; stroke-width:4; stroke-opacity:1; fill:none" points="
  211.024,1423.18 2352.76,1423.18 
  "/>
<polyline clip-path="url(#clip9000)" style="stroke:#000000; stroke-width:4; stroke-opacity:1; fill:none" points="
  211.024,1423.18 211.024,123.472 
  "/>
<polyline clip-path="url(#clip9000)" style="stroke:#000000; stroke-width:4; stroke-opacity:1; fill:none" points="
  550.329,1423.18 550.329,1407.58 
  "/>
<polyline clip-path="url(#clip9000)" style="stroke:#000000; stroke-width:4; stroke-opacity:1; fill:none" points="
  898.691,1423.18 898.691,1407.58 
  "/>
<polyline clip-path="url(#clip9000)" style="stroke:#000000; stroke-width:4; stroke-opacity:1; fill:none" points="
  1247.05,1423.18 1247.05,1407.58 
  "/>
<polyline clip-path="url(#clip9000)" style="stroke:#000000; stroke-width:4; stroke-opacity:1; fill:none" points="
  1595.42,1423.18 1595.42,1407.58 
  "/>
<polyline clip-path="url(#clip9000)" style="stroke:#000000; stroke-width:4; stroke-opacity:1; fill:none" points="
  1943.78,1423.18 1943.78,1407.58 
  "/>
<polyline clip-path="url(#clip9000)" style="stroke:#000000; stroke-width:4; stroke-opacity:1; fill:none" points="
  2292.14,1423.18 2292.14,1407.58 
  "/>
<polyline clip-path="url(#clip9000)" style="stroke:#000000; stroke-width:4; stroke-opacity:1; fill:none" points="
  211.024,1128.69 236.725,1128.69 
  "/>
<polyline clip-path="url(#clip9000)" style="stroke:#000000; stroke-width:4; stroke-opacity:1; fill:none" points="
  211.024,805.207 236.725,805.207 
  "/>
<polyline clip-path="url(#clip9000)" style="stroke:#000000; stroke-width:4; stroke-opacity:1; fill:none" points="
  211.024,481.725 236.725,481.725 
  "/>
<polyline clip-path="url(#clip9000)" style="stroke:#000000; stroke-width:4; stroke-opacity:1; fill:none" points="
  211.024,158.244 236.725,158.244 
  "/>
<path clip-path="url(#clip9000)" d="M 0 0 M540.607 1442.09 L558.963 1442.09 L558.963 1446.03 L544.889 1446.03 L544.889 1454.5 Q545.907 1454.15 546.926 1453.99 Q547.944 1453.8 548.963 1453.8 Q554.75 1453.8 558.13 1456.98 Q561.509 1460.15 561.509 1465.56 Q561.509 1471.14 558.037 1474.24 Q554.565 1477.32 548.245 1477.32 Q546.069 1477.32 543.801 1476.95 Q541.556 1476.58 539.148 1475.84 L539.148 1471.14 Q541.232 1472.28 543.454 1472.83 Q545.676 1473.39 548.153 1473.39 Q552.157 1473.39 554.495 1471.28 Q556.833 1469.18 556.833 1465.56 Q556.833 1461.95 554.495 1459.85 Q552.157 1457.74 548.153 1457.74 Q546.278 1457.74 544.403 1458.16 Q542.551 1458.57 540.607 1459.45 L540.607 1442.09 Z" fill="#000000" fill-rule="evenodd" fill-opacity="1" /><path clip-path="url(#clip9000)" d="M 0 0 M875.566 1472.72 L883.205 1472.72 L883.205 1446.35 L874.895 1448.02 L874.895 1443.76 L883.159 1442.09 L887.835 1442.09 L887.835 1472.72 L895.474 1472.72 L895.474 1476.65 L875.566 1476.65 L875.566 1472.72 Z" fill="#000000" fill-rule="evenodd" fill-opacity="1" /><path clip-path="url(#clip9000)" d="M 0 0 M910.543 1445.17 Q906.932 1445.17 905.103 1448.74 Q903.298 1452.28 903.298 1459.41 Q903.298 1466.51 905.103 1470.08 Q906.932 1473.62 910.543 1473.62 Q914.177 1473.62 915.983 1470.08 Q917.811 1466.51 917.811 1459.41 Q917.811 1452.28 915.983 1448.74 Q914.177 1445.17 910.543 1445.17 M910.543 1441.47 Q916.353 1441.47 919.409 1446.07 Q922.487 1450.66 922.487 1459.41 Q922.487 1468.13 919.409 1472.74 Q916.353 1477.32 910.543 1477.32 Q904.733 1477.32 901.654 1472.74 Q898.599 1468.13 898.599 1459.41 Q898.599 1450.66 901.654 1446.07 Q904.733 1441.47 910.543 1441.47 Z" fill="#000000" fill-rule="evenodd" fill-opacity="1" /><path clip-path="url(#clip9000)" d="M 0 0 M1224.43 1472.72 L1232.07 1472.72 L1232.07 1446.35 L1223.76 1448.02 L1223.76 1443.76 L1232.02 1442.09 L1236.69 1442.09 L1236.69 1472.72 L1244.33 1472.72 L1244.33 1476.65 L1224.43 1476.65 L1224.43 1472.72 Z" fill="#000000" fill-rule="evenodd" fill-opacity="1" /><path clip-path="url(#clip9000)" d="M 0 0 M1249.45 1442.09 L1267.81 1442.09 L1267.81 1446.03 L1253.73 1446.03 L1253.73 1454.5 Q1254.75 1454.15 1255.77 1453.99 Q1256.79 1453.8 1257.81 1453.8 Q1263.59 1453.8 1266.97 1456.98 Q1270.35 1460.15 1270.35 1465.56 Q1270.35 1471.14 1266.88 1474.24 Q1263.41 1477.32 1257.09 1477.32 Q1254.91 1477.32 1252.64 1476.95 Q1250.4 1476.58 1247.99 1475.84 L1247.99 1471.14 Q1250.07 1472.28 1252.3 1472.83 Q1254.52 1473.39 1257 1473.39 Q1261 1473.39 1263.34 1471.28 Q1265.68 1469.18 1265.68 1465.56 Q1265.68 1461.95 1263.34 1459.85 Q1261 1457.74 1257 1457.74 Q1255.12 1457.74 1253.25 1458.16 Q1251.39 1458.57 1249.45 1459.45 L1249.45 1442.09 Z" fill="#000000" fill-rule="evenodd" fill-opacity="1" /><path clip-path="url(#clip9000)" d="M 0 0 M1576.56 1472.72 L1592.88 1472.72 L1592.88 1476.65 L1570.94 1476.65 L1570.94 1472.72 Q1573.6 1469.96 1578.18 1465.33 Q1582.79 1460.68 1583.97 1459.34 Q1586.21 1456.81 1587.09 1455.08 Q1588 1453.32 1588 1451.63 Q1588 1448.87 1586.05 1447.14 Q1584.13 1445.4 1581.03 1445.4 Q1578.83 1445.4 1576.38 1446.17 Q1573.95 1446.93 1571.17 1448.48 L1571.17 1443.76 Q1573.99 1442.62 1576.45 1442.05 Q1578.9 1441.47 1580.94 1441.47 Q1586.31 1441.47 1589.5 1444.15 Q1592.7 1446.84 1592.7 1451.33 Q1592.7 1453.46 1591.89 1455.38 Q1591.1 1457.28 1588.99 1459.87 Q1588.41 1460.54 1585.31 1463.76 Q1582.21 1466.95 1576.56 1472.72 Z" fill="#000000" fill-rule="evenodd" fill-opacity="1" /><path clip-path="url(#clip9000)" d="M 0 0 M1607.95 1445.17 Q1604.34 1445.17 1602.51 1448.74 Q1600.71 1452.28 1600.71 1459.41 Q1600.71 1466.51 1602.51 1470.08 Q1604.34 1473.62 1607.95 1473.62 Q1611.58 1473.62 1613.39 1470.08 Q1615.22 1466.51 1615.22 1459.41 Q1615.22 1452.28 1613.39 1448.74 Q1611.58 1445.17 1607.95 1445.17 M1607.95 1441.47 Q1613.76 1441.47 1616.82 1446.07 Q1619.9 1450.66 1619.9 1459.41 Q1619.9 1468.13 1616.82 1472.74 Q1613.76 1477.32 1607.95 1477.32 Q1602.14 1477.32 1599.06 1472.74 Q1596.01 1468.13 1596.01 1459.41 Q1596.01 1450.66 1599.06 1446.07 Q1602.14 1441.47 1607.95 1441.47 Z" fill="#000000" fill-rule="evenodd" fill-opacity="1" /><path clip-path="url(#clip9000)" d="M 0 0 M1925.42 1472.72 L1941.74 1472.72 L1941.74 1476.65 L1919.8 1476.65 L1919.8 1472.72 Q1922.46 1469.96 1927.04 1465.33 Q1931.65 1460.68 1932.83 1459.34 Q1935.07 1456.81 1935.95 1455.08 Q1936.86 1453.32 1936.86 1451.63 Q1936.86 1448.87 1934.91 1447.14 Q1932.99 1445.4 1929.89 1445.4 Q1927.69 1445.4 1925.24 1446.17 Q1922.81 1446.93 1920.03 1448.48 L1920.03 1443.76 Q1922.85 1442.62 1925.31 1442.05 Q1927.76 1441.47 1929.8 1441.47 Q1935.17 1441.47 1938.36 1444.15 Q1941.56 1446.84 1941.56 1451.33 Q1941.56 1453.46 1940.75 1455.38 Q1939.96 1457.28 1937.85 1459.87 Q1937.27 1460.54 1934.17 1463.76 Q1931.07 1466.95 1925.42 1472.72 Z" fill="#000000" fill-rule="evenodd" fill-opacity="1" /><path clip-path="url(#clip9000)" d="M 0 0 M1946.86 1442.09 L1965.21 1442.09 L1965.21 1446.03 L1951.14 1446.03 L1951.14 1454.5 Q1952.16 1454.15 1953.18 1453.99 Q1954.2 1453.8 1955.21 1453.8 Q1961 1453.8 1964.38 1456.98 Q1967.76 1460.15 1967.76 1465.56 Q1967.76 1471.14 1964.29 1474.24 Q1960.82 1477.32 1954.5 1477.32 Q1952.32 1477.32 1950.05 1476.95 Q1947.81 1476.58 1945.4 1475.84 L1945.4 1471.14 Q1947.48 1472.28 1949.7 1472.83 Q1951.93 1473.39 1954.4 1473.39 Q1958.41 1473.39 1960.75 1471.28 Q1963.08 1469.18 1963.08 1465.56 Q1963.08 1461.95 1960.75 1459.85 Q1958.41 1457.74 1954.4 1457.74 Q1952.53 1457.74 1950.65 1458.16 Q1948.8 1458.57 1946.86 1459.45 L1946.86 1442.09 Z" fill="#000000" fill-rule="evenodd" fill-opacity="1" /><path clip-path="url(#clip9000)" d="M 0 0 M2282.88 1458.02 Q2286.24 1458.74 2288.11 1461 Q2290.01 1463.27 2290.01 1466.61 Q2290.01 1471.72 2286.49 1474.52 Q2282.97 1477.32 2276.49 1477.32 Q2274.32 1477.32 2272 1476.88 Q2269.71 1476.47 2267.26 1475.61 L2267.26 1471.1 Q2269.2 1472.23 2271.52 1472.81 Q2273.83 1473.39 2276.35 1473.39 Q2280.75 1473.39 2283.04 1471.65 Q2285.36 1469.92 2285.36 1466.61 Q2285.36 1463.55 2283.21 1461.84 Q2281.08 1460.1 2277.26 1460.1 L2273.23 1460.1 L2273.23 1456.26 L2277.44 1456.26 Q2280.89 1456.26 2282.72 1454.89 Q2284.55 1453.5 2284.55 1450.91 Q2284.55 1448.25 2282.65 1446.84 Q2280.78 1445.4 2277.26 1445.4 Q2275.34 1445.4 2273.14 1445.82 Q2270.94 1446.24 2268.3 1447.11 L2268.3 1442.95 Q2270.96 1442.21 2273.28 1441.84 Q2275.61 1441.47 2277.67 1441.47 Q2283 1441.47 2286.1 1443.9 Q2289.2 1446.3 2289.2 1450.43 Q2289.2 1453.3 2287.56 1455.29 Q2285.91 1457.25 2282.88 1458.02 Z" fill="#000000" fill-rule="evenodd" fill-opacity="1" /><path clip-path="url(#clip9000)" d="M 0 0 M2305.08 1445.17 Q2301.47 1445.17 2299.64 1448.74 Q2297.84 1452.28 2297.84 1459.41 Q2297.84 1466.51 2299.64 1470.08 Q2301.47 1473.62 2305.08 1473.62 Q2308.71 1473.62 2310.52 1470.08 Q2312.35 1466.51 2312.35 1459.41 Q2312.35 1452.28 2310.52 1448.74 Q2308.71 1445.17 2305.08 1445.17 M2305.08 1441.47 Q2310.89 1441.47 2313.95 1446.07 Q2317.02 1450.66 2317.02 1459.41 Q2317.02 1468.13 2313.95 1472.74 Q2310.89 1477.32 2305.08 1477.32 Q2299.27 1477.32 2296.19 1472.74 Q2293.14 1468.13 2293.14 1459.41 Q2293.14 1450.66 2296.19 1446.07 Q2299.27 1441.47 2305.08 1441.47 Z" fill="#000000" fill-rule="evenodd" fill-opacity="1" /><path clip-path="url(#clip9000)" d="M 0 0 M139.015 1114.49 Q135.404 1114.49 133.575 1118.05 Q131.769 1121.59 131.769 1128.72 Q131.769 1135.83 133.575 1139.39 Q135.404 1142.94 139.015 1142.94 Q142.649 1142.94 144.455 1139.39 Q146.283 1135.83 146.283 1128.72 Q146.283 1121.59 144.455 1118.05 Q142.649 1114.49 139.015 1114.49 M139.015 1110.78 Q144.825 1110.78 147.88 1115.39 Q150.959 1119.97 150.959 1128.72 Q150.959 1137.45 147.88 1142.06 Q144.825 1146.64 139.015 1146.64 Q133.205 1146.64 130.126 1142.06 Q127.07 1137.45 127.07 1128.72 Q127.07 1119.97 130.126 1115.39 Q133.205 1110.78 139.015 1110.78 Z" fill="#000000" fill-rule="evenodd" fill-opacity="1" /><path clip-path="url(#clip9000)" d="M 0 0 M156.029 1140.09 L160.913 1140.09 L160.913 1145.97 L156.029 1145.97 L156.029 1140.09 Z" fill="#000000" fill-rule="evenodd" fill-opacity="1" /><path clip-path="url(#clip9000)" d="M 0 0 M164.802 1111.41 L187.024 1111.41 L187.024 1113.4 L174.477 1145.97 L169.593 1145.97 L181.399 1115.34 L164.802 1115.34 L164.802 1111.41 Z" fill="#000000" fill-rule="evenodd" fill-opacity="1" /><path clip-path="url(#clip9000)" d="M 0 0 M138.205 791.006 Q134.593 791.006 132.765 794.57 Q130.959 798.112 130.959 805.242 Q130.959 812.348 132.765 815.913 Q134.593 819.455 138.205 819.455 Q141.839 819.455 143.644 815.913 Q145.473 812.348 145.473 805.242 Q145.473 798.112 143.644 794.57 Q141.839 791.006 138.205 791.006 M138.205 787.302 Q144.015 787.302 147.07 791.908 Q150.149 796.492 150.149 805.242 Q150.149 813.968 147.07 818.575 Q144.015 823.158 138.205 823.158 Q132.394 823.158 129.316 818.575 Q126.26 813.968 126.26 805.242 Q126.26 796.492 129.316 791.908 Q132.394 787.302 138.205 787.302 Z" fill="#000000" fill-rule="evenodd" fill-opacity="1" /><path clip-path="url(#clip9000)" d="M 0 0 M155.218 816.607 L160.103 816.607 L160.103 822.487 L155.218 822.487 L155.218 816.607 Z" fill="#000000" fill-rule="evenodd" fill-opacity="1" /><path clip-path="url(#clip9000)" d="M 0 0 M175.172 806.075 Q171.839 806.075 169.917 807.857 Q168.019 809.64 168.019 812.765 Q168.019 815.89 169.917 817.672 Q171.839 819.455 175.172 819.455 Q178.505 819.455 180.427 817.672 Q182.348 815.867 182.348 812.765 Q182.348 809.64 180.427 807.857 Q178.528 806.075 175.172 806.075 M170.496 804.084 Q167.487 803.343 165.797 801.283 Q164.13 799.223 164.13 796.26 Q164.13 792.117 167.07 789.709 Q170.033 787.302 175.172 787.302 Q180.334 787.302 183.274 789.709 Q186.214 792.117 186.214 796.26 Q186.214 799.223 184.524 801.283 Q182.857 803.343 179.871 804.084 Q183.251 804.871 185.126 807.163 Q187.024 809.455 187.024 812.765 Q187.024 817.788 183.945 820.473 Q180.889 823.158 175.172 823.158 Q169.454 823.158 166.376 820.473 Q163.32 817.788 163.32 812.765 Q163.32 809.455 165.218 807.163 Q167.116 804.871 170.496 804.084 M168.783 796.7 Q168.783 799.385 170.45 800.89 Q172.14 802.394 175.172 802.394 Q178.181 802.394 179.871 800.89 Q181.584 799.385 181.584 796.7 Q181.584 794.015 179.871 792.51 Q178.181 791.006 175.172 791.006 Q172.14 791.006 170.45 792.51 Q168.783 794.015 168.783 796.7 Z" fill="#000000" fill-rule="evenodd" fill-opacity="1" /><path clip-path="url(#clip9000)" d="M 0 0 M138.297 467.524 Q134.686 467.524 132.857 471.089 Q131.052 474.63 131.052 481.76 Q131.052 488.866 132.857 492.431 Q134.686 495.973 138.297 495.973 Q141.931 495.973 143.737 492.431 Q145.566 488.866 145.566 481.76 Q145.566 474.63 143.737 471.089 Q141.931 467.524 138.297 467.524 M138.297 463.82 Q144.107 463.82 147.163 468.427 Q150.242 473.01 150.242 481.76 Q150.242 490.487 147.163 495.093 Q144.107 499.677 138.297 499.677 Q132.487 499.677 129.408 495.093 Q126.353 490.487 126.353 481.76 Q126.353 473.01 129.408 468.427 Q132.487 463.82 138.297 463.82 Z" fill="#000000" fill-rule="evenodd" fill-opacity="1" /><path clip-path="url(#clip9000)" d="M 0 0 M155.311 493.126 L160.195 493.126 L160.195 499.005 L155.311 499.005 L155.311 493.126 Z" fill="#000000" fill-rule="evenodd" fill-opacity="1" /><path clip-path="url(#clip9000)" d="M 0 0 M165.403 498.288 L165.403 494.028 Q167.163 494.862 168.968 495.302 Q170.774 495.741 172.51 495.741 Q177.14 495.741 179.57 492.64 Q182.024 489.515 182.371 483.172 Q181.028 485.163 178.968 486.228 Q176.908 487.292 174.408 487.292 Q169.223 487.292 166.19 484.167 Q163.181 481.019 163.181 475.579 Q163.181 470.255 166.329 467.038 Q169.478 463.82 174.709 463.82 Q180.704 463.82 183.852 468.427 Q187.024 473.01 187.024 481.76 Q187.024 489.931 183.135 494.815 Q179.269 499.677 172.718 499.677 Q170.959 499.677 169.153 499.329 Q167.348 498.982 165.403 498.288 M174.709 483.635 Q177.857 483.635 179.686 481.482 Q181.538 479.329 181.538 475.579 Q181.538 471.853 179.686 469.7 Q177.857 467.524 174.709 467.524 Q171.561 467.524 169.709 469.7 Q167.88 471.853 167.88 475.579 Q167.88 479.329 169.709 481.482 Q171.561 483.635 174.709 483.635 Z" fill="#000000" fill-rule="evenodd" fill-opacity="1" /><path clip-path="url(#clip9000)" d="M 0 0 M130.149 171.588 L137.788 171.588 L137.788 145.223 L129.478 146.889 L129.478 142.63 L137.742 140.964 L142.417 140.964 L142.417 171.588 L150.056 171.588 L150.056 175.524 L130.149 175.524 L130.149 171.588 Z" fill="#000000" fill-rule="evenodd" fill-opacity="1" /><path clip-path="url(#clip9000)" d="M 0 0 M155.126 169.644 L160.01 169.644 L160.01 175.524 L155.126 175.524 L155.126 169.644 Z" fill="#000000" fill-rule="evenodd" fill-opacity="1" /><path clip-path="url(#clip9000)" d="M 0 0 M175.079 144.042 Q171.468 144.042 169.64 147.607 Q167.834 151.149 167.834 158.278 Q167.834 165.385 169.64 168.949 Q171.468 172.491 175.079 172.491 Q178.714 172.491 180.519 168.949 Q182.348 165.385 182.348 158.278 Q182.348 151.149 180.519 147.607 Q178.714 144.042 175.079 144.042 M175.079 140.339 Q180.889 140.339 183.945 144.945 Q187.024 149.528 187.024 158.278 Q187.024 167.005 183.945 171.612 Q180.889 176.195 175.079 176.195 Q169.269 176.195 166.19 171.612 Q163.135 167.005 163.135 158.278 Q163.135 149.528 166.19 144.945 Q169.269 140.339 175.079 140.339 Z" fill="#000000" fill-rule="evenodd" fill-opacity="1" /><path clip-path="url(#clip9000)" d="M 0 0 M1005.54 16.7545 L1005.54 25.383 Q1001.41 21.5346 996.706 19.6307 Q992.048 17.7268 986.781 17.7268 Q976.411 17.7268 970.902 24.0867 Q965.393 30.4061 965.393 42.3968 Q965.393 54.3469 970.902 60.7069 Q976.411 67.0263 986.781 67.0263 Q992.048 67.0263 996.706 65.1223 Q1001.41 63.2184 1005.54 59.3701 L1005.54 67.9175 Q1001.24 70.8341 996.423 72.2924 Q991.643 73.7508 986.295 73.7508 Q972.563 73.7508 964.664 65.3654 Q956.764 56.9395 956.764 42.3968 Q956.764 27.8135 964.664 19.4281 Q972.563 11.0023 986.295 11.0023 Q991.724 11.0023 996.504 12.4606 Q1001.32 13.8784 1005.54 16.7545 Z" fill="#000000" fill-rule="evenodd" fill-opacity="1" /><path clip-path="url(#clip9000)" d="M 0 0 M1013.36 27.2059 L1020.81 27.2059 L1020.81 72.576 L1013.36 72.576 L1013.36 27.2059 M1013.36 9.54393 L1020.81 9.54393 L1020.81 18.9825 L1013.36 18.9825 L1013.36 9.54393 Z" fill="#000000" fill-rule="evenodd" fill-opacity="1" /><path clip-path="url(#clip9000)" d="M 0 0 M1051.6 9.54393 L1051.6 15.7418 L1044.47 15.7418 Q1040.46 15.7418 1038.88 17.3622 Q1037.34 18.9825 1037.34 23.1955 L1037.34 27.2059 L1049.61 27.2059 L1049.61 32.9987 L1037.34 32.9987 L1037.34 72.576 L1029.84 72.576 L1029.84 32.9987 L1022.71 32.9987 L1022.71 27.2059 L1029.84 27.2059 L1029.84 24.0462 Q1029.84 16.471 1033.37 13.0277 Q1036.89 9.54393 1044.55 9.54393 L1051.6 9.54393 Z" fill="#000000" fill-rule="evenodd" fill-opacity="1" /><path clip-path="url(#clip9000)" d="M 0 0 M1080.03 49.7694 Q1071 49.7694 1067.52 51.8354 Q1064.03 53.9013 1064.03 58.8839 Q1064.03 62.8538 1066.62 65.2034 Q1069.26 67.5124 1073.75 67.5124 Q1079.95 67.5124 1083.68 63.1374 Q1087.45 58.7219 1087.45 51.4303 L1087.45 49.7694 L1080.03 49.7694 M1094.9 46.6907 L1094.9 72.576 L1087.45 72.576 L1087.45 65.6895 Q1084.89 69.8214 1081.09 71.8063 Q1077.28 73.7508 1071.77 73.7508 Q1064.8 73.7508 1060.67 69.8619 Q1056.58 65.9325 1056.58 59.3701 Q1056.58 51.7138 1061.68 47.825 Q1066.83 43.9361 1077 43.9361 L1087.45 43.9361 L1087.45 43.2069 Q1087.45 38.0623 1084.04 35.2672 Q1080.68 32.4315 1074.56 32.4315 Q1070.68 32.4315 1066.99 33.3632 Q1063.3 34.295 1059.9 36.1584 L1059.9 29.2718 Q1063.99 27.692 1067.84 26.9223 Q1071.69 26.1121 1075.33 26.1121 Q1085.18 26.1121 1090.04 31.2163 Q1094.9 36.3204 1094.9 46.6907 Z" fill="#000000" fill-rule="evenodd" fill-opacity="1" /><path clip-path="url(#clip9000)" d="M 0 0 M1129.01 34.1734 Q1127.75 33.4443 1126.25 33.1202 Q1124.8 32.7556 1123.01 32.7556 Q1116.69 32.7556 1113.29 36.8875 Q1109.93 40.9789 1109.93 48.6757 L1109.93 72.576 L1102.43 72.576 L1102.43 27.2059 L1109.93 27.2059 L1109.93 34.2544 Q1112.28 30.1225 1116.05 28.1376 Q1119.81 26.1121 1125.2 26.1121 Q1125.97 26.1121 1126.9 26.2337 Q1127.83 26.3147 1128.97 26.5172 L1129.01 34.1734 Z" fill="#000000" fill-rule="evenodd" fill-opacity="1" /><path clip-path="url(#clip9000)" d="M 0 0 M1139.3 65.6895 L1152.67 65.6895 L1152.67 19.5497 L1138.12 22.4663 L1138.12 15.0127 L1152.58 12.096 L1160.77 12.096 L1160.77 65.6895 L1174.14 65.6895 L1174.14 72.576 L1139.3 72.576 L1139.3 65.6895 Z" fill="#000000" fill-rule="evenodd" fill-opacity="1" /><path clip-path="url(#clip9000)" d="M 0 0 M1200.51 17.4837 Q1194.19 17.4837 1190.99 23.7221 Q1187.83 29.92 1187.83 42.3968 Q1187.83 54.833 1190.99 61.0714 Q1194.19 67.2693 1200.51 67.2693 Q1206.87 67.2693 1210.03 61.0714 Q1213.23 54.833 1213.23 42.3968 Q1213.23 29.92 1210.03 23.7221 Q1206.87 17.4837 1200.51 17.4837 M1200.51 11.0023 Q1210.67 11.0023 1216.02 19.0636 Q1221.41 27.0843 1221.41 42.3968 Q1221.41 57.6687 1216.02 65.73 Q1210.67 73.7508 1200.51 73.7508 Q1190.34 73.7508 1184.95 65.73 Q1179.6 57.6687 1179.6 42.3968 Q1179.6 27.0843 1184.95 19.0636 Q1190.34 11.0023 1200.51 11.0023 Z" fill="#000000" fill-rule="evenodd" fill-opacity="1" /><path clip-path="url(#clip9000)" d="M 0 0 M1251.83 46.5287 L1273.67 46.5287 L1273.67 53.1722 L1251.83 53.1722 L1251.83 46.5287 Z" fill="#000000" fill-rule="evenodd" fill-opacity="1" /><path clip-path="url(#clip9000)" d="M 0 0 M1336.86 44.2197 Q1339.49 45.1109 1341.96 48.0275 Q1344.48 50.9442 1346.99 56.0483 L1355.29 72.576 L1346.5 72.576 L1338.76 57.061 Q1335.77 50.9847 1332.93 48.9997 Q1330.14 47.0148 1325.27 47.0148 L1316.36 47.0148 L1316.36 72.576 L1308.18 72.576 L1308.18 12.096 L1326.65 12.096 Q1337.02 12.096 1342.13 16.4305 Q1347.23 20.7649 1347.23 29.5149 Q1347.23 35.2267 1344.56 38.994 Q1341.92 42.7613 1336.86 44.2197 M1316.36 18.8205 L1316.36 40.2903 L1326.65 40.2903 Q1332.57 40.2903 1335.56 37.5762 Q1338.6 34.8216 1338.6 29.5149 Q1338.6 24.2082 1335.56 21.5346 Q1332.57 18.8205 1326.65 18.8205 L1316.36 18.8205 Z" fill="#000000" fill-rule="evenodd" fill-opacity="1" /><path clip-path="url(#clip9000)" d="M 0 0 M1398.19 48.0275 L1398.19 51.6733 L1363.92 51.6733 Q1364.41 59.3701 1368.54 63.421 Q1372.71 67.4314 1380.12 67.4314 Q1384.42 67.4314 1388.43 66.3781 Q1392.48 65.3249 1396.45 63.2184 L1396.45 70.267 Q1392.44 71.9684 1388.23 72.8596 Q1384.01 73.7508 1379.68 73.7508 Q1368.82 73.7508 1362.46 67.4314 Q1356.14 61.1119 1356.14 50.3365 Q1356.14 39.1965 1362.14 32.6746 Q1368.17 26.1121 1378.38 26.1121 Q1387.54 26.1121 1392.84 32.0264 Q1398.19 37.9003 1398.19 48.0275 M1390.74 45.84 Q1390.66 39.7232 1387.29 36.0774 Q1383.97 32.4315 1378.46 32.4315 Q1372.22 32.4315 1368.46 35.9558 Q1364.73 39.4801 1364.16 45.8805 L1390.74 45.84 Z" fill="#000000" fill-rule="evenodd" fill-opacity="1" /><path clip-path="url(#clip9000)" d="M 0 0 M1434.93 28.5427 L1434.93 35.5912 Q1431.77 33.9709 1428.37 33.1607 Q1424.97 32.3505 1421.32 32.3505 Q1415.77 32.3505 1412.98 34.0519 Q1410.22 35.7533 1410.22 39.156 Q1410.22 41.7486 1412.21 43.2475 Q1414.19 44.7058 1420.19 46.0426 L1422.74 46.6097 Q1430.68 48.3111 1434 51.4303 Q1437.36 54.509 1437.36 60.0587 Q1437.36 66.3781 1432.34 70.0644 Q1427.36 73.7508 1418.61 73.7508 Q1414.96 73.7508 1410.99 73.0216 Q1407.06 72.3329 1402.69 70.9151 L1402.69 63.2184 Q1406.82 65.3654 1410.83 66.4591 Q1414.84 67.5124 1418.77 67.5124 Q1424.04 67.5124 1426.87 65.73 Q1429.71 63.9071 1429.71 60.6258 Q1429.71 57.5877 1427.64 55.9673 Q1425.62 54.3469 1418.69 52.8481 L1416.1 52.2405 Q1409.17 50.7821 1406.09 47.7845 Q1403.01 44.7463 1403.01 39.4801 Q1403.01 33.0797 1407.55 29.5959 Q1412.09 26.1121 1420.43 26.1121 Q1424.56 26.1121 1428.21 26.7198 Q1431.85 27.3274 1434.93 28.5427 Z" fill="#000000" fill-rule="evenodd" fill-opacity="1" /><path clip-path="url(#clip9000)" d="M 0 0 M1482.9 45.1919 L1482.9 72.576 L1475.44 72.576 L1475.44 45.4349 Q1475.44 38.994 1472.93 35.7938 Q1470.42 32.5936 1465.4 32.5936 Q1459.36 32.5936 1455.88 36.4419 Q1452.39 40.2903 1452.39 46.9338 L1452.39 72.576 L1444.9 72.576 L1444.9 27.2059 L1452.39 27.2059 L1452.39 34.2544 Q1455.07 30.163 1458.67 28.1376 Q1462.32 26.1121 1467.06 26.1121 Q1474.87 26.1121 1478.89 30.9732 Q1482.9 35.7938 1482.9 45.1919 Z" fill="#000000" fill-rule="evenodd" fill-opacity="1" /><path clip-path="url(#clip9000)" d="M 0 0 M1529.52 48.0275 L1529.52 51.6733 L1495.25 51.6733 Q1495.74 59.3701 1499.87 63.421 Q1504.04 67.4314 1511.45 67.4314 Q1515.75 67.4314 1519.76 66.3781 Q1523.81 65.3249 1527.78 63.2184 L1527.78 70.267 Q1523.77 71.9684 1519.56 72.8596 Q1515.34 73.7508 1511.01 73.7508 Q1500.15 73.7508 1493.79 67.4314 Q1487.47 61.1119 1487.47 50.3365 Q1487.47 39.1965 1493.47 32.6746 Q1499.5 26.1121 1509.71 26.1121 Q1518.87 26.1121 1524.17 32.0264 Q1529.52 37.9003 1529.52 48.0275 M1522.07 45.84 Q1521.99 39.7232 1518.62 36.0774 Q1515.3 32.4315 1509.79 32.4315 Q1503.56 32.4315 1499.79 35.9558 Q1496.06 39.4801 1495.49 45.8805 L1522.07 45.84 Z" fill="#000000" fill-rule="evenodd" fill-opacity="1" /><path clip-path="url(#clip9000)" d="M 0 0 M1544.71 14.324 L1544.71 27.2059 L1560.07 27.2059 L1560.07 32.9987 L1544.71 32.9987 L1544.71 57.6282 Q1544.71 63.1779 1546.21 64.7578 Q1547.75 66.3376 1552.41 66.3376 L1560.07 66.3376 L1560.07 72.576 L1552.41 72.576 Q1543.78 72.576 1540.5 69.3758 Q1537.22 66.1351 1537.22 57.6282 L1537.22 32.9987 L1531.75 32.9987 L1531.75 27.2059 L1537.22 27.2059 L1537.22 14.324 L1544.71 14.324 Z" fill="#000000" fill-rule="evenodd" fill-opacity="1" /><path clip-path="url(#clip9000)" d="M 0 0 M1569.18 71.3202 L1569.18 63.8666 Q1572.26 65.3249 1575.42 66.0946 Q1578.58 66.8642 1581.62 66.8642 Q1589.72 66.8642 1593.97 61.436 Q1598.27 55.9673 1598.87 44.8678 Q1596.52 48.3516 1592.92 50.215 Q1589.31 52.0784 1584.94 52.0784 Q1575.86 52.0784 1570.56 46.6097 Q1565.29 41.1005 1565.29 31.5808 Q1565.29 22.2638 1570.8 16.633 Q1576.31 11.0023 1585.46 11.0023 Q1595.96 11.0023 1601.47 19.0636 Q1607.02 27.0843 1607.02 42.3968 Q1607.02 56.6965 1600.21 65.2439 Q1593.44 73.7508 1581.98 73.7508 Q1578.9 73.7508 1575.74 73.1431 Q1572.58 72.5355 1569.18 71.3202 M1585.46 45.678 Q1590.97 45.678 1594.17 41.9107 Q1597.41 38.1433 1597.41 31.5808 Q1597.41 25.0589 1594.17 21.2916 Q1590.97 17.4837 1585.46 17.4837 Q1579.96 17.4837 1576.71 21.2916 Q1573.51 25.0589 1573.51 31.5808 Q1573.51 38.1433 1576.71 41.9107 Q1579.96 45.678 1585.46 45.678 Z" fill="#000000" fill-rule="evenodd" fill-opacity="1" /><path clip-path="url(#clip9000)" d="M 0 0 M1195.73 1508.52 L1225.78 1508.52 L1225.78 1513.93 L1202.16 1513.93 L1202.16 1528 L1224.79 1528 L1224.79 1533.41 L1202.16 1533.41 L1202.16 1550.63 L1226.35 1550.63 L1226.35 1556.04 L1195.73 1556.04 L1195.73 1508.52 Z" fill="#000000" fill-rule="evenodd" fill-opacity="1" /><path clip-path="url(#clip9000)" d="M 0 0 M1238.16 1550.7 L1238.16 1569.6 L1232.27 1569.6 L1232.27 1520.4 L1238.16 1520.4 L1238.16 1525.81 Q1240 1522.62 1242.8 1521.1 Q1245.64 1519.54 1249.55 1519.54 Q1256.05 1519.54 1260.09 1524.69 Q1264.16 1529.85 1264.16 1538.25 Q1264.16 1546.65 1260.09 1551.81 Q1256.05 1556.97 1249.55 1556.97 Q1245.64 1556.97 1242.8 1555.44 Q1240 1553.88 1238.16 1550.7 M1258.08 1538.25 Q1258.08 1531.79 1255.41 1528.13 Q1252.77 1524.44 1248.12 1524.44 Q1243.47 1524.44 1240.8 1528.13 Q1238.16 1531.79 1238.16 1538.25 Q1238.16 1544.71 1240.8 1548.4 Q1243.47 1552.07 1248.12 1552.07 Q1252.77 1552.07 1255.41 1548.4 Q1258.08 1544.71 1258.08 1538.25 Z" fill="#000000" fill-rule="evenodd" fill-opacity="1" /><path clip-path="url(#clip9000)" d="M 0 0 M1284.12 1524.5 Q1279.41 1524.5 1276.67 1528.19 Q1273.93 1531.85 1273.93 1538.25 Q1273.93 1544.65 1276.64 1548.34 Q1279.38 1552 1284.12 1552 Q1288.8 1552 1291.53 1548.31 Q1294.27 1544.62 1294.27 1538.25 Q1294.27 1531.92 1291.53 1528.23 Q1288.8 1524.5 1284.12 1524.5 M1284.12 1519.54 Q1291.76 1519.54 1296.12 1524.5 Q1300.48 1529.47 1300.48 1538.25 Q1300.48 1547 1296.12 1552 Q1291.76 1556.97 1284.12 1556.97 Q1276.45 1556.97 1272.09 1552 Q1267.76 1547 1267.76 1538.25 Q1267.76 1529.47 1272.09 1524.5 Q1276.45 1519.54 1284.12 1519.54 Z" fill="#000000" fill-rule="evenodd" fill-opacity="1" /><path clip-path="url(#clip9000)" d="M 0 0 M1332.27 1521.76 L1332.27 1527.24 Q1329.79 1525.87 1327.28 1525.2 Q1324.79 1524.5 1322.25 1524.5 Q1316.55 1524.5 1313.4 1528.13 Q1310.25 1531.73 1310.25 1538.25 Q1310.25 1544.78 1313.4 1548.4 Q1316.55 1552 1322.25 1552 Q1324.79 1552 1327.28 1551.33 Q1329.79 1550.63 1332.27 1549.26 L1332.27 1554.68 Q1329.82 1555.82 1327.18 1556.39 Q1324.57 1556.97 1321.61 1556.97 Q1313.56 1556.97 1308.82 1551.91 Q1304.07 1546.85 1304.07 1538.25 Q1304.07 1529.53 1308.85 1524.53 Q1313.65 1519.54 1321.99 1519.54 Q1324.7 1519.54 1327.28 1520.11 Q1329.86 1520.65 1332.27 1521.76 Z" fill="#000000" fill-rule="evenodd" fill-opacity="1" /><path clip-path="url(#clip9000)" d="M 0 0 M1368.05 1534.53 L1368.05 1556.04 L1362.19 1556.04 L1362.19 1534.72 Q1362.19 1529.66 1360.22 1527.14 Q1358.25 1524.63 1354.3 1524.63 Q1349.56 1524.63 1346.82 1527.65 Q1344.08 1530.68 1344.08 1535.9 L1344.08 1556.04 L1338.19 1556.04 L1338.19 1506.52 L1344.08 1506.52 L1344.08 1525.93 Q1346.18 1522.72 1349.02 1521.13 Q1351.88 1519.54 1355.6 1519.54 Q1361.75 1519.54 1364.9 1523.36 Q1368.05 1527.14 1368.05 1534.53 Z" fill="#000000" fill-rule="evenodd" fill-opacity="1" /><path clip-path="url(#clip9000)" d="M 0 0 M46.818 886.874 L70.4666 895.595 L70.4666 878.121 L46.818 886.874 M40.4842 890.503 L40.4842 883.214 L88.0042 865.104 L88.0042 871.788 L75.8138 876.116 L75.8138 897.537 L88.0042 901.866 L88.0042 908.645 L40.4842 890.503 Z" fill="#000000" fill-rule="evenodd" fill-opacity="1" /><path clip-path="url(#clip9000)" d="M 0 0 M53.7248 834.453 L59.1993 834.453 Q57.8307 836.935 57.1623 839.45 Q56.4621 841.932 56.4621 844.479 Q56.4621 850.176 60.0905 853.327 Q63.6872 856.478 70.212 856.478 Q76.7369 856.478 80.3653 853.327 Q83.9619 850.176 83.9619 844.479 Q83.9619 841.932 83.2935 839.45 Q82.5933 836.935 81.2247 834.453 L86.6355 834.453 Q87.7814 836.903 88.3543 839.545 Q88.9272 842.155 88.9272 845.115 Q88.9272 853.168 83.8664 857.91 Q78.8057 862.653 70.212 862.653 Q61.491 862.653 56.4939 857.878 Q51.4968 853.072 51.4968 844.733 Q51.4968 842.028 52.0697 839.45 Q52.6108 836.872 53.7248 834.453 Z" fill="#000000" fill-rule="evenodd" fill-opacity="1" /><path clip-path="url(#clip9000)" d="M 0 0 M53.7248 802.656 L59.1993 802.656 Q57.8307 805.139 57.1623 807.653 Q56.4621 810.136 56.4621 812.682 Q56.4621 818.379 60.0905 821.53 Q63.6872 824.681 70.212 824.681 Q76.7369 824.681 80.3653 821.53 Q83.9619 818.379 83.9619 812.682 Q83.9619 810.136 83.2935 807.653 Q82.5933 805.139 81.2247 802.656 L86.6355 802.656 Q87.7814 805.107 88.3543 807.749 Q88.9272 810.358 88.9272 813.319 Q88.9272 821.371 83.8664 826.114 Q78.8057 830.856 70.212 830.856 Q61.491 830.856 56.4939 826.082 Q51.4968 821.276 51.4968 812.937 Q51.4968 810.231 52.0697 807.653 Q52.6108 805.075 53.7248 802.656 Z" fill="#000000" fill-rule="evenodd" fill-opacity="1" /><path clip-path="url(#clip9000)" d="M 0 0 M73.9359 797.118 L52.3562 797.118 L52.3562 791.261 L73.7131 791.261 Q78.7739 791.261 81.3202 789.288 Q83.8346 787.315 83.8346 783.368 Q83.8346 778.625 80.8109 775.888 Q77.7872 773.119 72.5673 773.119 L52.3562 773.119 L52.3562 767.263 L88.0042 767.263 L88.0042 773.119 L82.5296 773.119 Q85.7762 775.252 87.3676 778.084 Q88.9272 780.885 88.9272 784.609 Q88.9272 790.752 85.1078 793.935 Q81.2883 797.118 73.9359 797.118 M51.4968 782.381 L51.4968 782.381 Z" fill="#000000" fill-rule="evenodd" fill-opacity="1" /><path clip-path="url(#clip9000)" d="M 0 0 M57.8307 740.463 Q57.2578 741.45 57.0032 742.627 Q56.7167 743.773 56.7167 745.174 Q56.7167 750.139 59.9632 752.812 Q63.1779 755.454 69.2253 755.454 L88.0042 755.454 L88.0042 761.343 L52.3562 761.343 L52.3562 755.454 L57.8944 755.454 Q54.6479 753.608 53.0883 750.648 Q51.4968 747.688 51.4968 743.455 Q51.4968 742.85 51.5923 742.118 Q51.656 741.386 51.8151 740.495 L57.8307 740.463 Z" fill="#000000" fill-rule="evenodd" fill-opacity="1" /><path clip-path="url(#clip9000)" d="M 0 0 M70.0847 718.119 Q70.0847 725.217 71.7079 727.954 Q73.3312 730.692 77.2461 730.692 Q80.3653 730.692 82.2114 728.655 Q84.0256 726.586 84.0256 723.053 Q84.0256 718.183 80.5881 715.255 Q77.1188 712.295 71.3897 712.295 L70.0847 712.295 L70.0847 718.119 M67.6657 706.438 L88.0042 706.438 L88.0042 712.295 L82.5933 712.295 Q85.8398 714.3 87.3994 717.292 Q88.9272 720.284 88.9272 724.612 Q88.9272 730.087 85.8716 733.333 Q82.7843 736.548 77.6281 736.548 Q71.6125 736.548 68.5569 732.538 Q65.5014 728.495 65.5014 720.507 L65.5014 712.295 L64.9285 712.295 Q60.8862 712.295 58.6901 714.968 Q56.4621 717.61 56.4621 722.416 Q56.4621 725.472 57.1941 728.368 Q57.9262 731.265 59.3903 733.938 L53.9795 733.938 Q52.7381 730.723 52.1334 727.7 Q51.4968 724.676 51.4968 721.812 Q51.4968 714.077 55.5072 710.258 Q59.5176 706.438 67.6657 706.438 Z" fill="#000000" fill-rule="evenodd" fill-opacity="1" /><path clip-path="url(#clip9000)" d="M 0 0 M53.7248 674.642 L59.1993 674.642 Q57.8307 677.124 57.1623 679.639 Q56.4621 682.121 56.4621 684.668 Q56.4621 690.365 60.0905 693.516 Q63.6872 696.667 70.212 696.667 Q76.7369 696.667 80.3653 693.516 Q83.9619 690.365 83.9619 684.668 Q83.9619 682.121 83.2935 679.639 Q82.5933 677.124 81.2247 674.642 L86.6355 674.642 Q87.7814 677.092 88.3543 679.734 Q88.9272 682.344 88.9272 685.304 Q88.9272 693.357 83.8664 698.099 Q78.8057 702.842 70.212 702.842 Q61.491 702.842 56.4939 698.067 Q51.4968 693.261 51.4968 684.922 Q51.4968 682.217 52.0697 679.639 Q52.6108 677.061 53.7248 674.642 Z" fill="#000000" fill-rule="evenodd" fill-opacity="1" /><path clip-path="url(#clip9000)" d="M 0 0 M91.3143 653.667 Q97.68 656.149 99.6216 658.505 Q101.563 660.86 101.563 664.807 L101.563 669.485 L96.6615 669.485 L96.6615 666.048 Q96.6615 663.629 95.5157 662.292 Q94.3699 660.955 90.1048 659.332 L87.4312 658.282 L52.3562 672.7 L52.3562 666.494 L80.238 655.354 L52.3562 644.214 L52.3562 638.007 L91.3143 653.667 Z" fill="#000000" fill-rule="evenodd" fill-opacity="1" /><polyline clip-path="url(#clip9002)" style="stroke:#009af9; stroke-width:4; stroke-opacity:1; fill:none" points="
  271.639,1386.4 341.311,1125.38 410.984,1087.43 480.656,787.955 550.329,924.464 620.001,787.451 689.674,848.05 759.346,999.512 829.019,786.517 898.691,621.757 
  968.364,716.429 1038.04,855.383 1107.71,961.556 1177.38,592.715 1247.05,681.924 1316.73,624.417 1386.4,456.709 1456.07,485.679 1525.74,397.908 1595.42,379.002 
  1665.09,414.225 1734.76,565.183 1804.43,270.959 1874.11,211.007 1943.78,188.004 2013.45,165.432 2083.12,165.001 2152.8,160.256 2222.47,164.066 2292.14,177.365 
  
  "/>
<polyline clip-path="url(#clip9002)" style="stroke:#e26f46; stroke-width:4; stroke-opacity:1; fill:none" points="
  271.639,1366.12 341.311,1175.27 410.984,1091.16 480.656,877.02 550.329,997.355 620.001,847.26 689.674,926.189 759.346,1035.53 829.019,931.365 898.691,745.686 
  968.364,814.911 1038.04,962.419 1107.71,1069.81 1177.38,734.688 1247.05,802.619 1316.73,763.154 1386.4,616.294 1456.07,655.111 1525.74,588.474 1595.42,580.711 
  1665.09,590.415 1734.76,713.338 1804.43,508.898 1874.11,442.26 1943.78,425.439 2013.45,401.502 2083.12,396.326 2152.8,385.328 2222.47,374.976 2292.14,374.976 
  
  "/>
<path clip-path="url(#clip9000)" d="
M283.024 388.432 L722.351 388.432 L722.351 206.992 L283.024 206.992  Z
  " fill="#ffffff" fill-rule="evenodd" fill-opacity="1"/>
<polyline clip-path="url(#clip9000)" style="stroke:#000000; stroke-width:4; stroke-opacity:1; fill:none" points="
  283.024,388.432 722.351,388.432 722.351,206.992 283.024,206.992 283.024,388.432 
  "/>
<polyline clip-path="url(#clip9000)" style="stroke:#009af9; stroke-width:4; stroke-opacity:1; fill:none" points="
  307.024,267.472 451.024,267.472 
  "/>
<path clip-path="url(#clip9000)" d="M 0 0 M475.024 250.192 L504.26 250.192 L504.26 254.127 L491.991 254.127 L491.991 284.752 L487.292 284.752 L487.292 254.127 L475.024 254.127 L475.024 250.192 Z" fill="#000000" fill-rule="evenodd" fill-opacity="1" /><path clip-path="url(#clip9000)" d="M 0 0 M516.783 262.808 Q516.065 262.391 515.209 262.206 Q514.375 261.998 513.357 261.998 Q509.746 261.998 507.801 264.359 Q505.88 266.697 505.88 271.095 L505.88 284.752 L501.598 284.752 L501.598 258.826 L505.88 258.826 L505.88 262.854 Q507.223 260.493 509.375 259.359 Q511.528 258.201 514.607 258.201 Q515.047 258.201 515.579 258.271 Q516.111 258.317 516.76 258.433 L516.783 262.808 Z" fill="#000000" fill-rule="evenodd" fill-opacity="1" /><path clip-path="url(#clip9000)" d="M 0 0 M533.033 271.72 Q527.871 271.72 525.88 272.9 Q523.889 274.081 523.889 276.928 Q523.889 279.197 525.371 280.539 Q526.875 281.859 529.445 281.859 Q532.986 281.859 535.116 279.359 Q537.269 276.836 537.269 272.669 L537.269 271.72 L533.033 271.72 M541.528 269.961 L541.528 284.752 L537.269 284.752 L537.269 280.817 Q535.81 283.178 533.635 284.312 Q531.459 285.423 528.31 285.423 Q524.329 285.423 521.968 283.201 Q519.63 280.956 519.63 277.206 Q519.63 272.831 522.547 270.609 Q525.486 268.386 531.297 268.386 L537.269 268.386 L537.269 267.97 Q537.269 265.03 535.324 263.433 Q533.403 261.812 529.908 261.812 Q527.685 261.812 525.579 262.345 Q523.473 262.877 521.528 263.942 L521.528 260.007 Q523.866 259.104 526.065 258.664 Q528.264 258.201 530.347 258.201 Q535.972 258.201 538.75 261.118 Q541.528 264.035 541.528 269.961 Z" fill="#000000" fill-rule="evenodd" fill-opacity="1" /><path clip-path="url(#clip9000)" d="M 0 0 M545.996 258.826 L550.255 258.826 L550.255 284.752 L545.996 284.752 L545.996 258.826 M545.996 248.734 L550.255 248.734 L550.255 254.127 L545.996 254.127 L545.996 248.734 Z" fill="#000000" fill-rule="evenodd" fill-opacity="1" /><path clip-path="url(#clip9000)" d="M 0 0 M576.273 269.104 L576.273 284.752 L572.014 284.752 L572.014 269.243 Q572.014 265.562 570.579 263.734 Q569.144 261.905 566.273 261.905 Q562.824 261.905 560.833 264.104 Q558.843 266.303 558.843 270.099 L558.843 284.752 L554.56 284.752 L554.56 258.826 L558.843 258.826 L558.843 262.854 Q560.37 260.516 562.431 259.359 Q564.514 258.201 567.222 258.201 Q571.69 258.201 573.982 260.979 Q576.273 263.734 576.273 269.104 Z" fill="#000000" fill-rule="evenodd" fill-opacity="1" /><path clip-path="url(#clip9000)" d="M 0 0 M580.741 258.826 L585 258.826 L585 284.752 L580.741 284.752 L580.741 258.826 M580.741 248.734 L585 248.734 L585 254.127 L580.741 254.127 L580.741 248.734 Z" fill="#000000" fill-rule="evenodd" fill-opacity="1" /><path clip-path="url(#clip9000)" d="M 0 0 M611.018 269.104 L611.018 284.752 L606.759 284.752 L606.759 269.243 Q606.759 265.562 605.324 263.734 Q603.889 261.905 601.018 261.905 Q597.569 261.905 595.579 264.104 Q593.588 266.303 593.588 270.099 L593.588 284.752 L589.306 284.752 L589.306 258.826 L593.588 258.826 L593.588 262.854 Q595.116 260.516 597.176 259.359 Q599.259 258.201 601.967 258.201 Q606.435 258.201 608.727 260.979 Q611.018 263.734 611.018 269.104 Z" fill="#000000" fill-rule="evenodd" fill-opacity="1" /><path clip-path="url(#clip9000)" d="M 0 0 M632.546 271.488 Q632.546 266.859 630.625 264.312 Q628.727 261.766 625.278 261.766 Q621.852 261.766 619.93 264.312 Q618.032 266.859 618.032 271.488 Q618.032 276.095 619.93 278.641 Q621.852 281.187 625.278 281.187 Q628.727 281.187 630.625 278.641 Q632.546 276.095 632.546 271.488 M636.805 281.535 Q636.805 288.155 633.865 291.372 Q630.926 294.613 624.861 294.613 Q622.616 294.613 620.625 294.266 Q618.634 293.942 616.759 293.247 L616.759 289.104 Q618.634 290.122 620.463 290.609 Q622.291 291.095 624.19 291.095 Q628.379 291.095 630.463 288.896 Q632.546 286.72 632.546 282.298 L632.546 280.192 Q631.227 282.484 629.166 283.618 Q627.106 284.752 624.236 284.752 Q619.467 284.752 616.551 281.118 Q613.634 277.484 613.634 271.488 Q613.634 265.47 616.551 261.836 Q619.467 258.201 624.236 258.201 Q627.106 258.201 629.166 259.336 Q631.227 260.47 632.546 262.762 L632.546 258.826 L636.805 258.826 L636.805 281.535 Z" fill="#000000" fill-rule="evenodd" fill-opacity="1" /><polyline clip-path="url(#clip9000)" style="stroke:#e26f46; stroke-width:4; stroke-opacity:1; fill:none" points="
  307.024,327.952 451.024,327.952 
  "/>
<path clip-path="url(#clip9000)" d="M 0 0 M488.218 345.232 L475.024 310.672 L479.908 310.672 L490.857 339.769 L501.829 310.672 L506.69 310.672 L493.519 345.232 L488.218 345.232 Z" fill="#000000" fill-rule="evenodd" fill-opacity="1" /><path clip-path="url(#clip9000)" d="M 0 0 M519.26 332.2 Q514.098 332.2 512.107 333.38 Q510.116 334.561 510.116 337.408 Q510.116 339.677 511.598 341.019 Q513.102 342.339 515.672 342.339 Q519.213 342.339 521.343 339.839 Q523.496 337.316 523.496 333.149 L523.496 332.2 L519.26 332.2 M527.755 330.441 L527.755 345.232 L523.496 345.232 L523.496 341.297 Q522.037 343.658 519.861 344.792 Q517.686 345.903 514.537 345.903 Q510.556 345.903 508.195 343.681 Q505.857 341.436 505.857 337.686 Q505.857 333.311 508.774 331.089 Q511.713 328.866 517.523 328.866 L523.496 328.866 L523.496 328.45 Q523.496 325.51 521.551 323.913 Q519.63 322.292 516.135 322.292 Q513.912 322.292 511.806 322.825 Q509.699 323.357 507.755 324.422 L507.755 320.487 Q510.093 319.584 512.292 319.144 Q514.491 318.681 516.574 318.681 Q522.199 318.681 524.977 321.598 Q527.755 324.515 527.755 330.441 Z" fill="#000000" fill-rule="evenodd" fill-opacity="1" /><path clip-path="url(#clip9000)" d="M 0 0 M532.222 309.214 L536.482 309.214 L536.482 345.232 L532.222 345.232 L532.222 309.214 Z" fill="#000000" fill-rule="evenodd" fill-opacity="1" /><path clip-path="url(#clip9000)" d="M 0 0 M540.949 319.306 L545.209 319.306 L545.209 345.232 L540.949 345.232 L540.949 319.306 M540.949 309.214 L545.209 309.214 L545.209 314.607 L540.949 314.607 L540.949 309.214 Z" fill="#000000" fill-rule="evenodd" fill-opacity="1" /><path clip-path="url(#clip9000)" d="M 0 0 M566.736 323.242 L566.736 309.214 L570.995 309.214 L570.995 345.232 L566.736 345.232 L566.736 341.343 Q565.394 343.658 563.333 344.792 Q561.296 345.903 558.426 345.903 Q553.727 345.903 550.764 342.153 Q547.824 338.403 547.824 332.292 Q547.824 326.181 550.764 322.431 Q553.727 318.681 558.426 318.681 Q561.296 318.681 563.333 319.816 Q565.394 320.927 566.736 323.242 M552.222 332.292 Q552.222 336.991 554.144 339.677 Q556.088 342.339 559.468 342.339 Q562.847 342.339 564.792 339.677 Q566.736 336.991 566.736 332.292 Q566.736 327.593 564.792 324.931 Q562.847 322.246 559.468 322.246 Q556.088 322.246 554.144 324.931 Q552.222 327.593 552.222 332.292 Z" fill="#000000" fill-rule="evenodd" fill-opacity="1" /><path clip-path="url(#clip9000)" d="M 0 0 M587.245 332.2 Q582.083 332.2 580.093 333.38 Q578.102 334.561 578.102 337.408 Q578.102 339.677 579.583 341.019 Q581.088 342.339 583.657 342.339 Q587.199 342.339 589.329 339.839 Q591.481 337.316 591.481 333.149 L591.481 332.2 L587.245 332.2 M595.741 330.441 L595.741 345.232 L591.481 345.232 L591.481 341.297 Q590.023 343.658 587.847 344.792 Q585.671 345.903 582.523 345.903 Q578.542 345.903 576.181 343.681 Q573.843 341.436 573.843 337.686 Q573.843 333.311 576.759 331.089 Q579.699 328.866 585.509 328.866 L591.481 328.866 L591.481 328.45 Q591.481 325.51 589.537 323.913 Q587.616 322.292 584.12 322.292 Q581.898 322.292 579.792 322.825 Q577.685 323.357 575.741 324.422 L575.741 320.487 Q578.079 319.584 580.278 319.144 Q582.477 318.681 584.56 318.681 Q590.185 318.681 592.963 321.598 Q595.741 324.515 595.741 330.441 Z" fill="#000000" fill-rule="evenodd" fill-opacity="1" /><path clip-path="url(#clip9000)" d="M 0 0 M604.421 311.945 L604.421 319.306 L613.194 319.306 L613.194 322.617 L604.421 322.617 L604.421 336.691 Q604.421 339.862 605.278 340.765 Q606.157 341.667 608.819 341.667 L613.194 341.667 L613.194 345.232 L608.819 345.232 Q603.889 345.232 602.014 343.403 Q600.139 341.552 600.139 336.691 L600.139 322.617 L597.014 322.617 L597.014 319.306 L600.139 319.306 L600.139 311.945 L604.421 311.945 Z" fill="#000000" fill-rule="evenodd" fill-opacity="1" /><path clip-path="url(#clip9000)" d="M 0 0 M617.662 319.306 L621.921 319.306 L621.921 345.232 L617.662 345.232 L617.662 319.306 M617.662 309.214 L621.921 309.214 L621.921 314.607 L617.662 314.607 L617.662 309.214 Z" fill="#000000" fill-rule="evenodd" fill-opacity="1" /><path clip-path="url(#clip9000)" d="M 0 0 M636.435 322.292 Q633.009 322.292 631.018 324.978 Q629.028 327.64 629.028 332.292 Q629.028 336.945 630.995 339.63 Q632.986 342.292 636.435 342.292 Q639.838 342.292 641.828 339.607 Q643.819 336.922 643.819 332.292 Q643.819 327.686 641.828 325.001 Q639.838 322.292 636.435 322.292 M636.435 318.681 Q641.99 318.681 645.162 322.292 Q648.333 325.904 648.333 332.292 Q648.333 338.658 645.162 342.292 Q641.99 345.903 636.435 345.903 Q630.856 345.903 627.685 342.292 Q624.537 338.658 624.537 332.292 Q624.537 325.904 627.685 322.292 Q630.856 318.681 636.435 318.681 Z" fill="#000000" fill-rule="evenodd" fill-opacity="1" /><path clip-path="url(#clip9000)" d="M 0 0 M674.351 329.584 L674.351 345.232 L670.092 345.232 L670.092 329.723 Q670.092 326.042 668.657 324.214 Q667.222 322.385 664.351 322.385 Q660.902 322.385 658.912 324.584 Q656.921 326.783 656.921 330.579 L656.921 345.232 L652.639 345.232 L652.639 319.306 L656.921 319.306 L656.921 323.334 Q658.449 320.996 660.509 319.839 Q662.592 318.681 665.3 318.681 Q669.768 318.681 672.06 321.459 Q674.351 324.214 674.351 329.584 Z" fill="#000000" fill-rule="evenodd" fill-opacity="1" /></svg>
